<svg id="Layer_1" data-name="Layer 1" xmlns="http://www.w3.org/2000/svg" viewBox="0 0 40 40"><defs><style>.cls-1{fill:#fff;}</style></defs><title>white_govD</title><path class="cls-1" d="M10.1,27.29H7.33a4.89,4.89,0,0,1-2.43-.6A4.82,4.82,0,0,1,2.23,22.3c0-5,0-10.08,0-15.13A5,5,0,0,1,7.15,2.25c8.5,0,17,0,25.51,0a5.08,5.08,0,0,1,5.11,5.06q0,7.46,0,14.91a5,5,0,0,1-5.13,5.08H24a1.47,1.47,0,0,0-.88.26Q15.47,32.76,7.76,38a1.12,1.12,0,0,1-1.86-.73,1.94,1.94,0,0,1,.2-.87Q8,32,9.93,27.69Zm5.71-13.13,3.39,2.51a1.17,1.17,0,0,0,1.59,0l2.88-2.14c.16-.12.33-.23.49-.36l.15.16,4,4.86,3.87,4.66a.75.75,0,1,0,1.13-1L27,15.28l-1.67-2,.23-.18,8.07-6a1.2,1.2,0,1,0-1.43-1.91L20.33,14a.47.47,0,0,1-.67,0L10.2,7c-.86-.64-1.71-1.28-2.57-1.9a1.15,1.15,0,0,0-1.5,0,1.13,1.13,0,0,0-.28,1.41,2,2,0,0,0,.54.57C9,9.1,11.61,11,14.22,13l.37.29a2.17,2.17,0,0,1-.2.26L7.14,22.26c-.21.25-.43.49-.62.75a.73.73,0,0,0,.14,1,.74.74,0,0,0,1-.05,2.52,2.52,0,0,0,.21-.25q2.89-3.46,5.77-6.95Z"/></svg>