<svg id="Layer_1" data-name="Layer 1" xmlns="http://www.w3.org/2000/svg" viewBox="0 0 40 40"><defs><style>.cls-1{fill:#fff;}</style></defs><title>white_pinterest</title><path class="cls-1" d="M20,1.23a19,19,0,0,0-6.92,36.69,18.15,18.15,0,0,1,.06-5.45L15.37,23a6.87,6.87,0,0,1-.57-2.83c0-2.64,1.53-4.61,3.44-4.61a2.39,2.39,0,0,1,2.4,2.68c0,1.63-1,4.06-1.57,6.32A2.76,2.76,0,0,0,21.88,28c3.38,0,6-3.56,6-8.7,0-4.55-3.27-7.73-7.94-7.73a8.22,8.22,0,0,0-8.58,8.24,7.44,7.44,0,0,0,1.41,4.34.57.57,0,0,1,.14.54c-.15.6-.47,1.89-.53,2.16s-.28.42-.64.25C9.35,26,7.87,22.56,7.87,19.77c0-6,4.35-11.5,12.55-11.5,6.59,0,11.71,4.7,11.71,11,0,6.54-4.13,11.81-9.86,11.81a5.09,5.09,0,0,1-4.35-2.18L16.74,33.4a21,21,0,0,1-2.37,5A19,19,0,1,0,20,1.23Z"/></svg>