<svg id="Layer_1" data-name="Layer 1" xmlns="http://www.w3.org/2000/svg" viewBox="0 0 40 40"><defs><style>.cls-1{fill:#fff;}</style></defs><title>white_podcast</title><rect class="cls-1" x="16.36" y="22.2" width="7.22" height="16.03" rx="0.86" ry="0.86"/><circle class="cls-1" cx="20" cy="17.86" r="3.5"/><path class="cls-1" d="M20,2.23a15.63,15.63,0,0,0-8.58,28.7L11.87,29l.16-.74a13.1,13.1,0,1,1,16,0l.1.35.63,2.24A15.63,15.63,0,0,0,20,2.23Z"/><path class="cls-1" d="M12.54,25.89l.56-2.61a8.86,8.86,0,1,1,13.62.21L27.38,26a11.05,11.05,0,1,0-14.84-.06Z"/></svg>