<svg id="Layer_1" data-name="Layer 1" xmlns="http://www.w3.org/2000/svg" viewBox="0 0 40 40">
    <defs>
        <style>
            .white_tumblr-1 {
                fill: #fff;
            }
        </style>
    </defs>
    <title>white_tumblr</title>
    <path class="white_tumblr-1" d="M30.51,36c-1.22,1.3-4,2.19-6.57,2.23h-.28c-8.49,0-10.34-6.25-10.34-9.89V18.21H10a.7.7,0,0,1-.7-.7h0V12.73a1.18,1.18,0,0,1,.79-1.12A9,9,0,0,0,16,3.37a1.06,1.06,0,0,1,1.13-1.14h5a.7.7,0,0,1,.7.7V11h5.83a.7.7,0,0,1,.71.7v5.74a.7.7,0,0,1-.71.7H22.79v9.37c0,2.35,1.55,3,2.51,3a7,7,0,0,0,2.27-.48,1.46,1.46,0,0,1,.9-.16.74.74,0,0,1,.52.55L30.53,35C30.66,35.33,30.77,35.72,30.51,36Z"
    />
</svg>