<svg xmlns="http://www.w3.org/2000/svg" id="_01" data-name="01" viewBox="0 0 40 40">
    <defs>
        <style>
            .cls-2{fill:#5a5a5a;}
        </style>
    </defs>
    <title>
        people_04
    </title>
    <path d="M27.09,6.29a6.22,6.22,0,0,0-7.19,5,6.56,6.56,0,0,0,1.88,6.29c.26.25.65,2.18-.86,1.85s-4.2-3.62-4.81-.4,3.25,3,3.19,3.89-1.56,3-2.83.16c-2.07-4.57-7.23-.71-8.55,2.52-.7,1.71.45,5.78,2.68,3.42.29-.31,2.08-3.49,2.4-2.14.48,2,1.5,6.31,4.06,6.8C25,35,28.44,25.93,28.23,24c-.39-3.74,2.5-6.65,3.26-10.1A6.22,6.22,0,0,0,27.09,6.29Z" class="fill-p"/>
    <path d="M20,0A20,20,0,1,0,40,20,20,20,0,0,0,20,0Zm0,37.79A17.8,17.8,0,1,1,37.79,20,17.81,17.81,0,0,1,20,37.79Z" class="fill-p"/>
</svg>
