<svg xmlns="http://www.w3.org/2000/svg" id="Layer_1" data-name="Layer 1" viewBox="0 0 40 40">
    <title>
        video_04
    </title>
    <path d="M4.38,5V36.2H35.63V5Zm5.68,28.41H7.21V30.52h2.84Zm0-4.26H7.21V26.26h2.84Zm0-4.26H7.21V22h2.84Zm0-5.68H7.21V16.32h2.84Zm0-4.26H7.21V12.06h2.84Zm0-4.26H7.21V7.79h2.84Zm17,22.73H12.9V22H27.1Zm0-14.21H12.9V7.79H27.1Zm5.68,14.21H29.94V30.52h2.84Zm0-4.26H29.94V26.26h2.84Zm0-4.26H29.94V22h2.84Zm0-5.68H29.94V16.32h2.84Zm0-4.26H29.94V12.06h2.84Zm0-4.26H29.94V7.79h2.84Z" class="fill-p fr-evenodd"/>
</svg>
