
<svg version="1.1" xmlns="http://www.w3.org/2000/svg" width="32" height="32" viewBox="0 0 32 32">
<title>brand46</title>
<path fill="#0066dc" d="M0 32v-32h32v32h-32zM27.594 4.524l-4.926 1.020v7.296c-1.12-1.434-2.68-2.12-4.708-2.12-2.12 0-4.020 0.78-5.58 2.308-1.746 1.68-2.68 3.834-2.68 6.234 0 2.62 1 4.88 2.93 6.58 1.466 1.32 3.212 1.98 5.24 1.98 1.992 0 3.488-0.52 4.954-1.96v1.88h4.77v-23.222zM18.958 23.344c-2.54 0-4.34-1.776-4.34-4.114 0-2.244 1.8-4.146 4.14-4.146 2.3 0 4.080 1.808 4.080 4.21 0 2.306-1.78 4.052-3.9 4.052z"></path>
</svg>
