
<svg version="1.1" xmlns="http://www.w3.org/2000/svg" width="32" height="32" viewBox="0 0 32 32">
<title>brand122</title>
<path d="M26.836 8.476c-0.106-0.088-0.228-0.12-0.37-0.12-0.070 0-0.14 0.014-0.212 0.032-1.3 0.494-2.606 0.88-3.824 1.146-0.246 0.052-0.44 0.246-0.528 0.46-0.88 2.394-3.116 4.684-5.46 7.080-0.088 0.090-0.228 0.212-0.44 0.212-0.21 0-0.352-0.106-0.44-0.21-2.344-2.4-4.58-4.67-5.464-7.084-0.088-0.212-0.28-0.406-0.528-0.46-1.196-0.28-2.52-0.668-3.82-1.16-0.074-0.036-0.144-0.036-0.214-0.036-0.124 0-0.264 0.034-0.37 0.12-0.16 0.126-0.248 0.34-0.23 0.532 0.196 1.99 0.986 3.946 2.414 5.99 1.34 1.92 3.084 3.7 4.776 5.426 3.1 3.172 6.040 6.166 6.306 9.636 0.020 0.32 0.284 0.566 0.6 0.566h3.648c0.156 0 0.314-0.070 0.44-0.192 0.104-0.124 0.176-0.284 0.16-0.44-0.126-2.328-0.99-4.652-2.68-7.12-0.354-0.51-0.724-1.020-1.128-1.514-0.16-0.196-0.088-0.44 0.034-0.58l0.37-0.374c1.692-1.724 3.436-3.506 4.776-5.426 1.426-2.040 2.22-3.98 2.414-5.99 0.016-0.16-0.072-0.37-0.23-0.494zM12.070 23.12c-0.088-0.090-0.21-0.18-0.42-0.18-0.266 0-0.44 0.196-0.496 0.284-1.532 2.344-2.326 4.546-2.43 6.766 0 0.16 0.052 0.336 0.16 0.44 0.104 0.124 0.26 0.194 0.44 0.194h3.646c0.32 0 0.58-0.246 0.6-0.564 0.086-1.074 0.404-2.132 1.020-3.26 0.212-0.386 0.054-0.76-0.070-0.916-0.616-0.792-1.34-1.62-2.45-2.766z"></path>
<path d="M18.044 10.186c0.28 0 0.546 0.23 0.546 0.564 0 0.088-0.020 0.16-0.052 0.228-0.16 0.404-0.848 1.866-2.134 3.12-0.14 0.14-0.32 0.156-0.424 0.156-0.1 0-0.28-0.020-0.42-0.16-1.286-1.25-1.974-2.712-2.134-3.12-0.016-0.050-0.050-0.12-0.050-0.226 0-0.32 0.264-0.564 0.544-0.564 0.264 0 0.934 0.070 2.080 0.070s1.814-0.070 2.044-0.070z"></path>
<path d="M9.71 3.12c-1.056 0-1.92 0.864-1.92 1.92 0 1.060 0.864 1.92 1.92 1.92s1.92-0.86 1.92-1.92c-0.020-1.056-0.864-1.92-1.92-1.92zM22.29 3.12c-1.056 0-1.92 0.864-1.92 1.92 0 1.060 0.864 1.92 1.92 1.92 1.060 0 1.92-0.86 1.92-1.92 0-1.056-0.86-1.92-1.92-1.92zM16 1.376c-1.060 0-1.92 0.86-1.92 1.92s0.86 1.92 1.92 1.92 1.92-0.86 1.92-1.92c0-1.074-0.86-1.92-1.92-1.92z"></path>
</svg>
