<!-- Generated by IcoMoon.io -->
<svg version="1.1" xmlns="http://www.w3.org/2000/svg" width="32" height="32" viewBox="0 0 32 32">
<title>brand153</title>
<path fill="#f00" d="M16 8c3.46 0 5.748 1.684 7.444 3.634l0.33 0.39c0.11 0.134 0.22 0.268 0.324 0.4 0.58 0.76 1.080 1.528 1.56 2.232 0.32 0.476 0.62 0.924 0.92 1.344l0.3 0.428c0.1 0.14 0.2 0.28 0.32 0.412 1.24 1.56 2.52 2.534 4.38 2.654 0.26-1.126 0.4-2.294 0.4-3.494s-0.14-2.368-0.4-3.494c-1.86 0.12-3.14 1.092-4.4 2.654-0.24-0.328-0.48-0.68-0.74-1.060-0.5-0.756-1.080-1.612-1.76-2.46 1.34-1.56 3-2.9 5.24-3.41-2.658-4.91-7.898-8.23-13.918-8.23-6 0-11.254 3.32-13.986 8.23 2.24 0.512 3.896 1.85 5.24 3.408 0.114 0.12 0.224 0.24 0.332 0.38l0.316 0.4c0.64 0.82 1.22 1.66 1.74 2.46l0.74 1.1 0.32 0.44c0.1 0.14 0.22 0.28 0.32 0.42 1.4 1.92 2.82 3.24 5 3.24 2.2 0 3.6-1.32 5.020-3.24l0.5 0.74c0.6 0.88 1.24 1.84 1.94 2.74-1.7 1.96-4 3.64-7.46 3.64s-5.74-1.7-7.44-3.64l-0.64-0.8c-0.58-0.76-1.080-1.54-1.56-2.24-0.32-0.48-0.62-0.92-0.92-1.34l-0.3-0.44c-0.1-0.14-0.2-0.28-0.32-0.42-1.302-1.478-2.582-2.458-4.442-2.578-0.26 1.132-0.4 2.3-0.4 3.5s0.136 2.368 0.388 3.494c1.864-0.12 3.14-1.092 4.392-2.654 0.23 0.328 0.472 0.68 0.726 1.060 0.5 0.756 1.074 1.612 1.75 2.46-1.346 1.56-3.004 2.9-5.24 3.41 2.728 4.91 7.964 8.23 13.984 8.23s11.254-3.32 13.986-8.23c-2.24-0.512-3.896-1.85-5.24-3.408-0.114-0.12-0.224-0.24-0.332-0.38l-0.316-0.4c-0.64-0.82-1.22-1.66-1.74-2.46l-0.738-1.122c-0.1-0.148-0.206-0.3-0.308-0.44-0.104-0.148-0.206-0.292-0.31-0.434-1.4-1.92-2.8-3.24-5-3.24s-3.6 1.32-5 3.24l-0.5-0.746c-0.58-0.892-1.22-1.84-1.94-2.746 1.698-1.95 3.938-3.634 7.438-3.634z"></path>
</svg>
