<!-- Generated by IcoMoon.io -->
<svg version="1.1" xmlns="http://www.w3.org/2000/svg" width="32" height="32" viewBox="0 0 32 32">
<title>brand199</title>
<path fill="#c7053d" d="M21.526 23.006c-1.144 1.32-1.78 3.724-0.946 4.5 0.796 0.6 2.94 0.52 4.52-1.644 1.148-1.44 0.76-3.86 0.106-4.5-0.974-0.74-2.372 0.22-3.68 1.66zM10.772 23.406c-1.212-1.388-2.788-2.214-3.806-1.6-0.68 0.508-0.808 2.248 0.164 3.96 1.44 2.036 3.466 2.24 4.3 1.744 0.88-0.65 0.4-2.852-0.66-4.106zM16.252 27.606c-1.472-0.036-3.734 0.584-3.706 1.376-0.024 0.54 1.776 2.1 3.61 2.020 1.772 0.040 3.604-1.52 3.58-2.2-0.006-0.7-2-1.24-3.48-1.18zM16.152 8.992c-1.704-0.044-3.34 1.244-3.34 1.992-0.006 0.908 1.344 1.836 3.35 1.86 2.060 0.014 3.36-0.744 3.38-1.68 0.020-1.060-1.86-2.188-3.36-2.172zM12.052 9.702c-2.85-0.46-5.224 1.2-5.128 4.26 0.094 1.18 6.18-4.060 5.13-4.24zM25.064 14.042c0.096-3.040-2.28-4.7-5.13-4.24-1.050 0.18 5.036 5.42 5.13 4.24zM25.55 15.142c-1.654-0.44-0.56 6.74 0.786 6.16 1.48-1.16 1.956-4.6-0.786-6.14zM5.664 21.382c1.344 0.6 2.44-6.58 0.786-6.14-2.74 1.54-2.266 4.98-0.786 6.16zM18.232 13.442c-1.53 1-1.806 3.24-0.616 5s3.396 2.42 4.928 1.44c1.53-0.98 1.806-3.22 0.616-5s-3.396-2.42-4.928-1.42zM14.1 13.622c-1.53-0.98-3.736-0.34-4.926 1.42-1.19 1.78-0.914 4.020 0.616 5.020s3.736 0.36 4.928-1.42c1.18-1.76 0.9-4-0.62-5zM19.932 23.182c-0.012-1.86-1.672-3.36-3.712-3.34s-3.686 1.52-3.676 3.38v0.040c0.012 1.86 1.674 3.36 3.714 3.34 2.040 0 3.68-1.52 3.66-3.36v-0.040zM24.216 2.982c-3.080 1.58-4.876 2.84-5.86 3.92 0.504 2 3.13 2.080 4.088 2.020-0.196-0.080-0.36-0.2-0.42-0.36 0.24-0.16 1.096-0.020 1.692-0.34-0.228-0.040-0.336-0.080-0.44-0.26 0.56-0.18 1.168-0.32 1.524-0.62-0.192 0-0.372 0.040-0.624-0.12 0.504-0.26 1.040-0.48 1.46-0.88-0.26 0-0.54 0-0.62-0.1 0.46-0.28 0.848-0.58 1.17-0.94-0.364 0.060-0.52 0.020-0.606-0.040 0.348-0.34 0.79-0.64 1-1.080-0.27 0.1-0.52 0.12-0.696 0 0.12-0.26 0.626-0.42 0.92-1.040-0.286 0.040-0.59 0.060-0.65 0 0.132-0.52 0.36-0.82 0.58-1.14-0.608 0-1.534 0-1.49-0.040l0.376-0.38c-0.596-0.16-1.206 0.020-1.648 0.16-0.2-0.14 0-0.34 0.246-0.54-0.52 0.080-0.98 0.18-1.38 0.34-0.22-0.2 0.14-0.38 0.32-0.58-0.8 0.16-1.12 0.36-1.46 0.56-0.24-0.22-0.020-0.42 0.14-0.6-0.6 0.22-0.9 0.5-1.22 0.76-0.12-0.14-0.28-0.24-0.080-0.6-0.42 0.24-0.74 0.52-0.98 0.84-0.26-0.18-0.16-0.4-0.16-0.6-0.44 0.36-0.72 0.72-1.060 1.080-0.080-0.040-0.14-0.2-0.18-0.46-1.040 1-2.52 3.5-0.38 4.48 1.8-1.46 3.98-2.54 6.38-3.34zM7.852 2.982c2.4 0.8 4.564 1.88 6.376 3.36 2.13-1 0.66-3.5-0.376-4.48-0.054 0.26-0.114 0.44-0.18 0.48-0.34-0.36-0.616-0.72-1.052-1.080 0 0.2 0.104 0.44-0.156 0.6-0.234-0.32-0.548-0.6-0.968-0.84 0.2 0.34 0.034 0.44-0.074 0.6-0.32-0.3-0.62-0.58-1.2-0.8 0.16 0.2 0.4 0.4 0.16 0.62-0.32-0.2-0.66-0.4-1.44-0.56 0.18 0.2 0.54 0.4 0.32 0.6-0.422-0.162-0.882-0.282-1.382-0.342 0.24 0.2 0.456 0.384 0.256 0.54-0.46-0.16-1.076-0.34-1.676-0.18l0.38 0.38c0.040 0.050-0.88 0.040-1.496 0.046 0.22 0.3 0.45 0.6 0.58 1.14-0.060 0.060-0.36 0.020-0.646 0 0.3 0.6 0.8 0.76 0.92 1.020-0.18 0.128-0.42 0.1-0.7 0 0.22 0.42 0.66 0.72 1 1.080-0.1 0.060-0.24 0.1-0.62 0.050 0.32 0.346 0.7 0.66 1.16 0.94-0.080 0.094-0.36 0.092-0.64 0.1 0.42 0.406 0.96 0.62 1.46 0.886-0.26 0.18-0.44 0.14-0.62 0.14 0.34 0.3 0.96 0.44 1.52 0.62-0.12 0.18-0.22 0.22-0.46 0.26 0.6 0.34 1.44 0.18 1.68 0.36-0.060 0.16-0.22 0.28-0.42 0.36 0.96 0.060 3.6-0.020 4.1-2.020-0.98-1.080-2.78-2.34-5.86-3.9zM10.166 0c0.314-0.010 0.58 0.18 0.87 0.268 0.706-0.226 0.868 0.084 1.216 0.212 0.77-0.16 1.004 0.188 1.374 0.56l0.43-0.012c1.16 0.676 1.74 2.050 1.944 2.756 0.204-0.706 0.78-2.080 1.944-2.756l0.43 0.010c0.37-0.38 0.604-0.72 1.374-0.56 0.348-0.14 0.508-0.44 1.216-0.22 0.44-0.14 0.828-0.5 1.41-0.060 0.492-0.2 0.97-0.26 1.396 0.12 0.66-0.080 0.872 0.080 1.034 0.28 0.144 0 1.080-0.14 1.51 0.48 1.080-0.12 1.42 0.62 1.034 1.32 0.22 0.34 0.45 0.66-0.066 1.3 0.2 0.36 0.080 0.74-0.36 1.22 0.12 0.5-0.1 0.84-0.5 1.12 0.080 0.68-0.64 1.080-0.84 1.22-0.080 0.4-0.24 0.78-1.060 0.98-0.12 0.6-0.62 0.7-1.1 0.82 1.58 0.9 2.92 2.080 2.92 4.98l0.24 0.4c1.8 1.080 3.42 4.54 0.9 7.36-0.16 0.88-0.44 1.5-0.68 2.2-0.36 2.82-2.78 4.14-3.42 4.3-0.92 0.7-1.92 1.36-3.26 1.82-1.26 1.28-2.64 1.78-4 1.78h-0.122c-1.38 0-2.754-0.5-4.020-1.78-1.344-0.46-2.34-1.12-3.266-1.82-0.64-0.16-3.048-1.48-3.42-4.3-0.248-0.7-0.524-1.34-0.69-2.22-2.528-2.82-0.91-6.28 0.888-7.36l0.23-0.4c0-2.9 1.34-4.080 2.92-4.98-0.48-0.12-0.96-0.22-1.1-0.82-0.82-0.2-0.98-0.58-1.060-0.98-0.2-0.14-0.92-0.54-0.84-1.24-0.4-0.28-0.62-0.62-0.5-1.14-0.42-0.46-0.54-0.86-0.36-1.22-0.52-0.64-0.28-0.98-0.060-1.3-0.38-0.7-0.040-1.46 1.040-1.34 0.42-0.62 1.36-0.48 1.5-0.48 0.16-0.2 0.38-0.38 1.040-0.3 0.42-0.38 0.9-0.32 1.4-0.136 0.2-0.16 0.38-0.22 0.54-0.22z"></path>
</svg>
