
<svg version="1.1" xmlns="http://www.w3.org/2000/svg" width="32" height="32" viewBox="0 0 32 32">
<title>brand99</title>
<path d="M16 0c-8.836 0-16 7.164-16 16s7.164 16 16 16 16-7.164 16-16-7.164-16-16-16zM24.652 18.62c-1.668-1.1-2.62-2.032-3.452-3.704-0.568 1.146-1.894 2.848-4.13 4.186-1.12 3.48-6.43 10.14-8.15 9.18-0.508-0.26-0.604-0.64-0.49-1.020 0.124-0.94 2.088-3.12 2.088-3.12s0.040 0.46 0.66 1.42c-0.84-2.58 1.36-5.74 1.94-6.84 0.92-0.28 0.98-1.46 0.98-1.46 0.060-1.82-0.76-3.12-1.54-3.92 0.56 0.7 0.74 1.74 0.76 2.7v0.34c-0.040 0.8-0.28 1.88-0.78 1.88v0.020c-0.52-0.020-1.18 0.1-1.76 0.28l-1.28 0.32s0.68-0.020 1.040 0.3c-0.42 0.68-1.34 1.5-2.36 1.98-1.48 0.7-1.92-0.68-1.16-1.56 0.18-0.22 0.38-0.4 0.54-0.54-0.12-0.12-0.18-0.28-0.2-0.48-0.1-0.46-0.060-1.040 0.6-1.98 0.12-0.2 0.28-0.4 0.46-0.6l0.040-0.040v-0.020c0.040-0.060 0.1-0.1 0.14-0.16 0.76-0.78 1.98-1.6 3.88-2.32 2.26-3.32 3.080-3.94 3.080-3.94 0.24-0.24 0.68-0.56 0.82-0.64-1.16-2.020-1.4-4.86-1.1-5.62-0.040 0.040-0.060 0.080-0.080 0.14 0.12-0.26 0.18-0.34 0.3-0.48 0.32-0.36 1.38-0.56 1.78 0.24 0.2 0.42 0.24 0.98 0.24 1.38-0.86-0.040-1.62 0.92-1.62 0.92s0.7-0.32 1.58-0.34c0 0 0.24 0.22 0.52 0.6-0.38 0.74-1.040 2.3-0.56 3.96 0.080 0.32 0.2 0.6 0.34 0.84 0.020 0.020 0.020 0.020 0.020 0.040l0.040 0.040c0.78 1.18 2.2 1.3 2.2 1.3-0.66-0.32-1.22-0.86-1.56-1.5-0.18-0.34-0.3-0.64-0.36-0.86-0.38-1.44 0.18-2.3 0.5-2.86 0.72-1.12 2.060-1.8 3.48-1.64 2 0.22 3.44 2.040 3.2 4.040-0.14 1.22-0.88 2.24-1.88 2.78 0.24 0.66-0.020 1.44-0.020 1.44 0.6 0.76 0.64 1.2 0.62 1.62-0.78-0.12-1.52 0.4-1.52 0.4s1.48-0.34 2.34 0.42c0.56 0.6 0.94 1.16 1.16 1.56 0.32 0.58 1.8 0.62 1.64 1.64-0.18 1.040-1.32 1.040-3.080-0.12zM18.22 12.474c-0.292-0.292-0.766-0.292-1.060 0l-0.62 0.624c-0.296 0.28-0.296 0.76 0 1.060l0.68 0.68c0.296 0.3 0.77 0.28 1.060 0l0.626-0.62c0.294-0.3 0.294-0.78 0-1.060l-0.686-0.7zM15.28 12.226c-0.186 0.186-0.186 0.49 0 0.68 0.188 0.184 0.492 0.184 0.68 0 0.186-0.19 0.186-0.494 0-0.68-0.188-0.188-0.492-0.188-0.68 0zM16.972 11.89c0.188-0.186 0.188-0.49 0-0.68-0.188-0.184-0.49-0.184-0.68 0-0.186 0.19-0.186 0.494 0 0.68 0.19 0.188 0.492 0.188 0.68 0zM24.152 10.15c0.788-1.506-0.33-2.386-1.1-3.108-1.232-1.16-2.46-1.66-3.866-0.040-1.404 1.6-0.512 3.48 0.772 4.38 1.28 0.92 3.38 0.3 4.18-1.22zM22.024 9.534c-0.496-0.594 0.43-1.67 1.010-1.026 1.068 1.184-0.516 1.62-1.010 1.026z"></path>
</svg>
