
<svg version="1.1" xmlns="http://www.w3.org/2000/svg" width="32" height="32" viewBox="0 0 32 32">
<title>brand260</title>
<path fill="#39a85b" d="M16 0c8.836 0 16 7.164 16 16s-7.164 16-16 16c-8.836 0-16-7.164-16-16s7.164-16 16-16zM16.56 25.812c-0.090 0.172-0.256 0.292-0.448 0.32l-1.492 0.212c0.47 0.14 0.96 0.214 1.468 0.214 0.674 0 1.34-0.14 1.97-0.4l-1.26-0.84-0.24 0.48zM22.42 23.206l-2.306-0.228c-0.1-0.020-0.192-0.060-0.272-0.1l-1.54-1.060-2.040 0.42c-0.060 0-0.1 0.020-0.16 0l-2.22-0.18-1.32 1.18c-0.060 0.060-0.14 0.1-0.22 0.12l-2.38 0.68c-0.1 0.020-0.2 0.020-0.3 0l1.4 1.58 4.66-0.66 0.4-0.82c0.080-0.16 0.22-0.26 0.38-0.32 0.16-0.040 0.34-0.020 0.48 0.080l1.76 1.18 3.92-0.9 0.84-1.34-0.7 0.28c-0.1 0.020-0.18 0.040-0.28 0.040zM11.84 22.31l1.406-1.26c0.12-0.108 0.28-0.166 0.44-0.15l2.386 0.18 2.22-0.47c0.16-0.032 0.32 0 0.456 0.092l1.634 1.12 1.68 0.16c0.18-0.4 0.32-0.84 0.42-1.28h-0.080l-4.56-0.62c-0.22-0.020-0.4-0.18-0.48-0.38l-0.82-2.36c-0.1-0.060-0.62-0.020-0.86 0.1l-0.84 2.28c-0.060 0.2-0.22 0.34-0.42 0.38l-4.54 1.060c0.16 0.54 0.38 1.060 0.64 1.58l1.36-0.38zM8.14 15.71l0.56 3.254 1.24 0.94 3.886-0.9 0.78-2.196c0.040-0.112 0.12-0.208 0.214-0.28 0.066-0.046 0.67-0.468 1.42-0.468 0.88 0 1.264 0.568 1.306 0.634l0.784 2.236 3.974 0.544 1.234-0.854 0.82-2.846c-5.3-1.2-10.92-1.22-16.22-0.064zM12.14 18.15h-0.36c-0.566 0-0.93-0.024-1.252 0.146 0.012-0.020 0.154-0.332 0.66-0.46-0.054-0.128-0.092-0.3-0.1-0.54-0.034-0.914 0.532-1.666 1.116-1.674 0.584 0 0.99 0.74 1 1.66 0.008 0.92-0.48 0.86-1.066 0.88zM20.124 15.4c0.586-0.020 1.12 0.7 1.188 1.62 0.020 0.252-0.008 0.44-0.068 0.572 0.54-0.064 0.666 0.306 0.67 0.326-0.394-0.2-0.826 0.040-1.608 0.060-0.59 0.020-1.074 0.020-1.11-0.9-0.034-0.92 0.346-1.68 0.928-1.7zM12.284 16.2c-0.164 0-0.296 0.14-0.29 0.306 0.004 0.166 0.144 0.3 0.308 0.29 0.18-0.008 0.3-0.146 0.3-0.308 0-0.164-0.14-0.294-0.3-0.29zM20.078 16.572c0.16 0 0.3-0.14 0.28-0.3 0-0.166-0.14-0.3-0.3-0.294-0.18 0-0.3 0.14-0.3 0.3s0.14 0.3 0.3 0.28zM16.078 27.74c1.7 0 3.32-0.7 4.64-1.868l2.32-0.54c0.14-0.034 0.28-0.13 0.36-0.264l1.88-3.040c0.14-0.22 0.12-0.494-0.040-0.69-0.18-0.2-0.44-0.28-0.68-0.18l-1.18 0.44c0.14-0.5 0.26-1.020 0.34-1.54v-0.18l0.62-0.44c0.12-0.1 0.2-0.22 0.24-0.36l0.86-3.060 0.060 0.020h0.020l0.060 0.020c0.26 0.060 0.52-0.040 0.66-0.28 0.3-0.52 0.48-1.18 0.56-1.94 0.080-0.82 0.020-1.5-0.18-2.020-0.060-0.16-0.18-0.28-0.34-0.34-0.52-0.22-1.040-0.4-1.56-0.58-0.78-3.72-4.46-6.48-8.74-6.48s-7.958 2.762-8.738 6.462c-0.536 0.18-1.060 0.36-1.576 0.58-0.148 0.060-0.27 0.18-0.32 0.34-0.2 0.5-0.254 1.18-0.172 2 0.070 0.78 0.26 1.42 0.56 1.94 0.1 0.18 0.3 0.3 0.5 0.3 0.060 0 0.106 0 0.16-0.020l0.452-0.12 0.572 3.38c0.020 0.16 0.1 0.3 0.228 0.38l0.68 0.52c-0.006 0.060-0.008 0.14 0 0.2 0.134 0.72 0.36 1.46 0.674 2.14l-1.48-0.62c-0.26-0.1-0.56-0.020-0.72 0.2s-0.14 0.54 0.040 0.74l3.362 3.76c0.12 0.14 0.28 0.2 0.45 0.2h0.080l1.66-0.232c1.060 0.68 2.28 1.092 3.596 1.094h0.014zM17.938 11.41v1.476c0 0.326-0.28 0.592-0.6 0.592h-2.418c-0.32 0-0.586-0.28-0.586-0.6v-1.478c0-0.286 0.2-0.52 0.468-0.58v-0.88h-1.1c-0.32 0-0.58-0.266-0.58-0.594v-1.952c0-0.328 0.28-0.592 0.6-0.592h4.878c0.328 0 0.592 0.28 0.592 0.6v1.96c0 0.34-0.264 0.6-0.59 0.6h-1.1v0.9c0.28 0.060 0.48 0.3 0.48 0.58zM24.318 12.024h-0.020c-0.14 0-0.26-0.040-0.36-0.114-1.54-0.48-3.14-0.82-4.76-1.008-0.34-0.020-0.56-0.32-0.52-0.64s0.3-0.56 0.66-0.52c1.4 0.18 2.78 0.44 4.12 0.82-0.94-2.84-3.94-4.88-7.4-4.88s-6.46 2.040-7.4 4.9c1.22-0.34 2.48-0.58 3.74-0.76 0.34-0.040 0.62 0.2 0.66 0.52s-0.2 0.62-0.52 0.66c-1.52 0.2-3 0.54-4.44 0.98-0.060 0.040-0.12 0.060-0.2 0.060-0.5 0.16-0.98 0.34-1.48 0.54-0.060 0.28-0.080 0.68-0.020 1.26 0.040 0.42 0.12 0.76 0.24 1.080 6.080-1.54 12.68-1.54 18.78 0 0.1-0.3 0.18-0.66 0.22-1.060 0.040-0.5 0.040-0.92-0.040-1.24-0.46-0.18-0.9-0.34-1.36-0.5zM17.78 8.756h0.2v-0.772h-3.68v0.772h0.2c0.008-0.316 0.268-0.57 0.588-0.57h0.312c0.328 0 0.594 0.266 0.594 0.592v2.622c0 0.284-0.2 0.52-0.48 0.58v0.306h1.24v-0.306c-0.27-0.054-0.472-0.292-0.472-0.58v-2.62c0-0.328 0.28-0.594 0.6-0.594h0.32c0.32 0 0.58 0.254 0.6 0.57z"></path>
</svg>
