<!-- Generated by IcoMoon.io -->
<svg version="1.1" xmlns="http://www.w3.org/2000/svg" width="32" height="32" viewBox="0 0 32 32">
<title>brand100</title>
<path fill="#1e8cbe" d="M16 0c-1.768 0-3.2 1.432-3.2 3.2v11.2c0 1.766 1.432 3.2 3.2 3.2s3.2-1.434 3.2-3.2v-7.452c3.728 1.32 6.4 4.872 6.4 9.052 0 5.3-4.3 9.6-9.6 9.6s-9.6-4.3-9.6-9.6c0-2.652 1.074-5.052 2.812-6.788 1.25-1.25 1.25-3.276 0-4.526s-3.276-1.25-4.526 0c-2.894 2.894-4.686 6.894-4.686 11.314 0 8.836 7.164 16 16 16s16-7.164 16-16-7.164-16-16-16z"></path>
</svg>
