
<svg version="1.1" xmlns="http://www.w3.org/2000/svg" width="32" height="32" viewBox="0 0 32 32">
<title>brand62</title>
<path fill="#e53238" d="M8.074 16.146v-6.56h1.6v4.034c0.788-0.936 1.87-1.208 2.936-1.208 1.788 0 3.772 1.206 3.772 3.808 0 0.31-0.020 0.608-0.080 0.89 0.32-1.27 1.7-1.74 3.86-1.792 0.68-0.020 1.46-0.020 2.080-0.020v-0.18c0-1.18-0.74-1.66-2.040-1.66-0.96 0-1.66 0.4-1.74 1.080h-1.7c0.18-1.72 2-2.16 3.58-2.16 1.42 0 2.66 0.36 3.22 1.36l-0.58-1.12h1.88l2.74 5.5 2.74-5.5h1.658l-4.96 9.74h-1.794l1.426-2.72-3.106-5.84c0.172 0.34 0.268 0.74 0.268 1.24v3.28c0 0.46 0.014 0.92 0.054 1.34h-1.488c-0.040-0.34-0.060-0.68-0.060-1.020-0.804 0.98-1.76 1.28-3.094 1.28-1.974 0-3.030-1.040-3.030-2.26 0-0.2 0.020-0.38 0.050-0.54-0.4 1.66-1.814 2.78-3.686 2.78-1.16 0-2.26-0.42-2.934-1.24 0 0.32-0.020 0.66-0.054 0.98h-1.572c0.026-0.52 0.054-1.14 0.054-1.66v-1.4h-6.44c0.086 1.46 1.090 2.32 2.47 2.32 0.956 0 1.806-0.4 2.090-1.24h1.654c-0.32 1.72-2.148 2.3-3.72 2.3-2.86 0.022-4.128-1.558-4.128-3.678 0-2.34 1.31-3.88 4.154-3.88 2.252 0 3.906 1.18 3.92 3.74zM20.258 16.39c-1.46 0.046-2.36 0.31-2.36 1.266 0 0.62 0.48 1.294 1.74 1.294 1.68 0 2.58-0.92 2.58-2.42v-0.17c-0.6 0-1.32 0.008-1.98 0.030zM12.178 18.89c1.48 0 2.5-1.074 2.5-2.694s-1.020-2.69-2.52-2.69c-1.48 0-2.52 1.072-2.52 2.69 0 1.62 1.020 2.692 2.5 2.692zM6.378 15.536c-0.060-1.5-1.14-2.060-2.3-2.060-1.26 0-2.26 0.63-2.42 2.060h4.72z"></path>
</svg>
