
<svg version="1.1" xmlns="http://www.w3.org/2000/svg" width="32" height="32" viewBox="0 0 32 32">
<title>brand180</title>
<path fill="#e6461a" d="M0 15.56c0-7.454 6.054-14.44 14.036-15.44 5.72-0.666 10.046 1.53 13.040 4.392 2.792 2.66 4.456 6.056 4.856 10.050 0.332 4-0.532 7.46-2.86 10.72-2.328 3.2-6.92 6.72-12.64 6.72h-7.784v-15.362c0.068-3.394 1.2-6.324 5.32-7.72 3.594-1.066 7.786 0.93 9.050 4.724 1.32 4.060-0.6 6.788-2.86 8.452-2.28 1.664-5.8 1.664-8.12 0.066v5.26c1.52 0.74 3.46 0.94 4.86 0.86 5.040-0.72 8.98-3.58 10.64-7.92 1.72-4.58 0.52-9.92-3.060-13.24-4.32-3.54-9.060-4.4-14.1-1.94-3.54 1.8-6 5.46-6.6 9.46v17.358h-3.718l-0.060-16.44z"></path>
</svg>
