
<svg version="1.1" xmlns="http://www.w3.org/2000/svg" width="32" height="32" viewBox="0 0 32 32">
<title>brand200</title>
<path fill="#008fd5" d="M31.188 8.748c-3.7 0.108-8.168-2.796-9.9-3.89-0.16-0.1-0.194-0.2-0.36-0.28-0.18-0.1-0.368-0.2-0.556-0.3v10.68h-0.004c0.006 0.96-0.408 1.96-1.006 2.92l-0.040 0.080c-1.72 2.8-5.36 4.42-8.78 3.26-3.32-1.12-4.2-4.34-2.44-7.18l0.058-0.038c1.7-2.78 5.34-4.42 8.76-3.26 0.26 0.086 0.504 0.192 0.74 0.308v-7.728c-1.228-0.33-2.52-0.52-3.89-0.52-7.9 0-13.77 5.914-13.77 13.2v0.094c0 7.286 5.82 13.106 13.674 13.106 7.9 0 13.768-5.914 13.768-13.2v-0.094c0-0.568-0.040-1.126-0.1-1.674 4.12-1.072 5.82-5.332 3.86-5.484z"></path>
</svg>
