<!-- Generated by IcoMoon.io -->
<svg version="1.1" xmlns="http://www.w3.org/2000/svg" width="32" height="32" viewBox="0 0 32 32">
<title>brand138</title>
<path fill="#00c300" d="M25.82 13.14c0.464 0 0.84 0.38 0.84 0.84s-0.376 0.84-0.84 0.84h-2.34v1.5h2.34c0.464 0 0.84 0.376 0.84 0.84 0 0.46-0.376 0.84-0.84 0.84h-3.18c-0.46 0-0.836-0.38-0.836-0.84v-6.36c0-0.46 0.376-0.84 0.84-0.84h3.18c0.46 0 0.836 0.38 0.836 0.84 0 0.464-0.376 0.84-0.84 0.84h-2.34v1.5h2.34zM20.68 17.16c0 0.36-0.232 0.68-0.576 0.796-0.086 0.028-0.176 0.040-0.266 0.040-0.28 0-0.52-0.12-0.68-0.334l-3.258-4.422v3.92c0 0.46-0.372 0.84-0.84 0.84-0.46 0-0.834-0.38-0.834-0.84v-6.36c0-0.36 0.23-0.68 0.572-0.794 0.080-0.030 0.18-0.044 0.26-0.044 0.26 0 0.5 0.14 0.66 0.34l3.282 4.438v-3.94c0-0.46 0.376-0.84 0.84-0.84 0.46 0 0.84 0.38 0.84 0.84v6.36zM13.024 17.16c0 0.46-0.376 0.84-0.84 0.84-0.46 0-0.836-0.38-0.836-0.84v-6.36c0-0.46 0.376-0.84 0.84-0.84 0.46 0 0.836 0.38 0.836 0.84v6.36zM9.736 18h-3.18c-0.46 0-0.84-0.38-0.84-0.84v-6.36c0-0.46 0.38-0.84 0.84-0.84 0.464 0 0.84 0.38 0.84 0.84v5.52h2.34c0.464 0 0.84 0.376 0.84 0.84 0 0.46-0.376 0.84-0.84 0.84zM32 13.74c0-7.16-7.18-12.988-16-12.988s-16 5.828-16 12.988c0 6.416 5.692 11.792 13.38 12.81 0.52 0.112 1.23 0.344 1.41 0.788 0.16 0.4 0.106 1.020 0.052 1.44l-0.22 1.36c-0.060 0.4-0.32 1.58 1.4 0.86s9.22-5.44 12.58-9.3c2.298-2.518 3.398-5.098 3.398-7.958z"></path>
</svg>
