
<svg version="1.1" xmlns="http://www.w3.org/2000/svg" width="32" height="32" viewBox="0 0 32 32">
<title>brand230</title>
<path fill="#fa6423" d="M21.6 12c-1.8 1.2-2.4 3.6-2.2 5.2-3-3 4.6-11.4-4-17.2 4.8 7.2-7.4 13-7.4 23.2 0 4 2.6 7.6 8 8.8 5.4-1.2 8-4.8 8-8.8 0-6-3.6-8-2.4-11.2zM16 27.8c-2.4 0-4.6-2-4.6-4.6 0-2.4 2-4.6 4.6-4.6 2.4 0 4.6 2 4.6 4.6-0.2 2.6-2.2 4.6-4.6 4.6zM-13.2 67c-1.6 1.2-2.4 3.8-2.2 5.4-2.8-3.2 4.6-11.6-4-17.2 4.8 7.2-7.4 13-7.4 23.2 0 4 2.6 7.6 8 8.8 5.4-1.2 8-4.8 8-8.8 0-6.2-3.6-8.2-2.4-11.4zM-18.8 82.8c-2.4 0-4.6-2-4.6-4.6 0-2.4 2-4.6 4.6-4.6 2.4 0 4.6 2 4.6 4.6s-2.2 4.6-4.6 4.6zM-29.4 67c-1.6 1.2-2.4 3.8-2.2 5.4-2.8-3.2 4.6-11.6-4-17.2 4.8 7.2-7.4 13-7.4 23.2 0 4 2.6 7.6 8 8.8 5.4-1.2 8-4.8 8-8.8 0.2-6.2-3.4-8.2-2.4-11.4zM-35 83.6c-2.8 0-5.2-2.4-5.2-5.2s2.4-5.2 5.2-5.2c2.8 0 5.2 2.4 5.2 5.2s-2.2 5.2-5.2 5.2z"></path>
</svg>
