<!-- Generated by IcoMoon.io -->
<svg version="1.1" xmlns="http://www.w3.org/2000/svg" width="32" height="32" viewBox="0 0 32 32">
<title>brand245</title>
<path fill="#eb4924" d="M16 0c-8.84 0-16 7.164-16 16 0 8.84 7.16 16 16 16s16-7.16 16-16c0-8.836-7.16-16-16-16zM15.176 11.876v6.6c0 2.472-2.256 4.334-4.6 4.334-2.192 0-4.24-1.036-4.472-3.512v-4.138h3.3v3.3c0 0.82 0.58 0.954 1.17 0.954 0.586 0 1.3-0.132 1.3-0.956v-6.6c0.066-2.458 2.106-4.018 4.386-4.018 2.326 0 3.866 1.76 3.866 4.020v1.4l-1.636 0.78-1.664-0.78v-2.208s-0.22-0.24-0.56-0.24c-0.566 0-1.088 0.24-1.088 1.064zM25.896 18.476c0 2.472-2.12 4.148-4.47 4.148-2.348 0-4.6-1.676-4.6-4.15v-3.3h3.3v3.3c0 0.824 0.714 0.956 1.3 0.956 0.588 0 1.172-0.132 1.172-0.956v-3.3h3.28v3.3z"></path>
</svg>
