
<svg version="1.1" xmlns="http://www.w3.org/2000/svg" width="32" height="32" viewBox="0 0 32 32">
<title>brand195</title>
<path fill="#34a7c1" d="M16 15.996c-0.97 0-1.756-0.786-1.756-1.756s0.786-1.756 1.756-1.756 1.756 0.786 1.756 1.756-0.786 1.756-1.756 1.756zM19.888 15.968c0-3.772-1.48-7.196-3.888-9.732-2.408 2.536-3.888 5.96-3.888 9.732 0 1.728 0.312 3.38 0.88 4.91-0.824 1.2-1.432 2.88-1.7 4.82 0.852-1.020 1.896-1.74 3.056-2.12 0.484 0.74 1.040 1.46 1.652 2.1 0.614-0.66 1.168-1.36 1.652-2.12 1.16 0.36 2.204 1.1 3.054 2.1-0.266-1.94-0.874-3.62-1.7-4.82 0.568-1.54 0.88-3.18 0.88-4.92z"></path>
<path fill="#34a7c1" d="M16 29.334c-7.364 0-13.334-5.97-13.334-13.334s5.97-13.334 13.334-13.334 13.334 5.97 13.334 13.334-5.97 13.334-13.334 13.334zM16 0c-8.836 0-16 7.164-16 16s7.164 16 16 16 16-7.164 16-16-7.164-16-16-16z"></path>
</svg>
