
<svg version="1.1" xmlns="http://www.w3.org/2000/svg" width="32" height="32" viewBox="0 0 32 32">
<title>brand207</title>
<path fill="#cc342d" d="M26.874 0.112c4.046 0.7 5.19 3.464 5.106 6.36l0.020-0.040-1.82 23.85-23.64 1.62c-1.964-0.082-6.34-0.262-6.54-6.382l2.192-4 4.43 10.344 3.74-12.192-0.040 0.010 0.020-0.040 12.34 3.94-1.86-7.24-1.32-5.2 11.76-0.76-0.82-0.68-8.442-6.882 4.88-2.72zM0 25.452v0.036-0.040zM6.84 6.766c4.748-4.71 10.876-7.494 13.228-5.12 2.35 2.37-0.14 8.14-4.896 12.848-4.752 4.71-10.804 7.646-13.152 5.276-2.354-2.37 0.060-8.29 4.816-13z"></path>
</svg>
