<!-- Generated by IcoMoon.io -->
<svg version="1.1" xmlns="http://www.w3.org/2000/svg" width="32" height="32" viewBox="0 0 32 32">
<title>brand43</title>
<path fill="#757575" d="M31.992 15.74c-0.006-0.126-0.014-0.248-0.024-0.372v-0.008c-0.12-1.35-0.566-2.612-1.32-3.754-0.34-0.508-0.726-0.97-1.16-1.384-0.628-0.6-1.36-1.1-2.18-1.5-1.24-0.58-2.61-0.88-4.072-0.88-0.14 0-0.292 0-0.44 0.020-1.028 0.060-2.020 0.24-2.954 0.58-0.94 0.34-1.76 0.8-2.42 1.34-0.14 0.12-0.28 0.24-0.44 0.4l-0.12 0.12-0.14 0.18-0.060 0.080-0.040 0.040-0.18 0.2c-0.14 0.16-0.26 0.32-0.38 0.46h-0.062c-0.256 0.32-0.494 0.64-0.668 0.92-0.12 0.18-0.234 0.38-0.344 0.58l-1.528 3h0.004l-0.080 0.16-0.168 0.34c-0.336 0.68-0.694 1.36-1.096 1.92-0.896 0.98-1.908 1.46-3.208 1.46h-0.28c-0.78-0.020-1.454-0.22-2.052-0.56l-0.184-0.12c-0.488-0.32-0.86-0.72-1.14-1.24-0.316-0.6-0.456-1.2-0.436-1.84l0.014-0.040c0.040-1.020 0.428-1.8 1.206-2.48 0.188-0.16 0.386-0.3 0.592-0.42 0.030-0.020 0.060-0.020 0.088-0.040 0.58-0.3 1.234-0.46 1.988-0.46l0.236 0.020c1.2 0.040 2.126 0.42 2.86 1.14l2.306-4.2c-0.554-0.36-1.18-0.68-1.866-0.94l-0.080-0.020c-0.080-0.020-0.16-0.060-0.24-0.080-0.734-0.24-1.5-0.38-2.29-0.46h-0.060l-0.374-0.062c-0.134-0.008-0.266-0.010-0.396-0.010h-0.074c-1.454 0.004-2.804 0.3-4.040 0.892-1.38 0.68-2.504 1.64-3.336 2.9-0.828 1.26-1.28 2.64-1.346 4.14-0.004 0.118-0.008 0.238-0.008 0.378 0 2.080 0.76 3.92 2.27 5.46 1.576 1.6 3.626 2.48 6.090 2.58h0.468c1.394 0 2.68-0.26 3.84-0.754 0.288-0.12 0.568-0.26 0.854-0.424 0.16-0.080 0.32-0.18 0.46-0.28l0.12-0.060 0.18-0.12c0.22-0.14 0.44-0.32 0.64-0.5l0.080-0.060c0.12-0.1 0.24-0.22 0.36-0.34l0.42-0.46 0.16-0.2 0.060-0.12 0.080-0.1c0.62-1.040 2.62-4.8 2.62-4.8v-0.020l0.12-0.22 0.1-0.18c0.3-0.54 0.52-0.92 0.8-1.32v-0.022c0.66-0.96 1.8-1.64 3.14-1.754 2.24-0.2 4.22 1.28 4.4 3.28 0.18 2.008-1.5 3.792-3.74 3.986-0.46 0.040-0.92 0-1.34-0.080-1.64-0.34-2.68-1.54-3.2-2.080l-2.16 3.96s0.68 0.67 1.14 1.008c0.46 0.34 1.060 0.664 1.54 0.87 1.14 0.49 2.4 0.784 3.78 0.784 0.16 0 0.12 0 0.3-0.012 2.46-0.1 4.66-1.040 6.24-2.66 1.5-1.54 2.32-3.28 2.32-5.36v-0.4z"></path>
</svg>
