
<svg version="1.1" xmlns="http://www.w3.org/2000/svg" width="32" height="32" viewBox="0 0 32 32">
<title>brand191</title>
<path fill="#ef3f56" d="M25.066 13.68l-7.526 7.22c-0.426 0.408-0.972 0.612-1.52 0.612-0.546 0-1.094-0.204-1.52-0.612l-7.524-7.22c-0.874-0.836-0.9-2.226-0.064-3.1 0.84-0.876 2.228-0.904 3.1-0.066l6.010 5.76 6.020-5.76c0.88-0.84 2.26-0.81 3.1 0.064 0.84 0.86 0.82 2.26-0.060 3.1zM31.842 3.624c-0.4-1.144-1.5-1.912-2.72-1.912h-26.222c-1.2 0-2.288 0.752-2.714 1.872-0.126 0.332-0.19 0.68-0.19 1.030v9.656l0.11 1.92c0.464 4.368 2.73 8.184 6.24 10.846 0.060 0.048 0.126 0.094 0.19 0.14l0.040 0.030c1.88 1.374 3.984 2.304 6.256 2.764 1.048 0.21 2.12 0.32 3.184 0.32 0.984 0 1.972-0.092 2.944-0.272 0.116-0.040 0.232-0.060 0.35-0.080 0.032 0 0.066-0.020 0.1-0.040 2.176-0.48 4.196-1.38 6.008-2.7l0.040-0.040 0.18-0.14c3.5-2.66 5.76-6.48 6.24-10.86l0.1-1.92v-9.638c0-0.334-0.040-0.666-0.16-0.99z"></path>
</svg>
