<!-- Generated by IcoMoon.io -->
<svg version="1.1" xmlns="http://www.w3.org/2000/svg" width="32" height="32" viewBox="0 0 32 32">
<title>brand255</title>
<path fill="#ff6b6b" d="M12.44 12.6c0.060 0.096 0.164 0.16 0.284 0.16 0.080 0 0.154-0.028 0.21-0.076l0.020-0.016c0.52-0.434 0.988-0.88 1.428-1.356 4.28-4.644 1.78-10.346 1.76-10.4-0.12-0.28-0.040-0.612 0.2-0.792 0.26-0.18 0.58-0.16 0.82 0.044 14.5 13.486 10.66 23.76 10.38 24.452-1.16 4.19-5.78 7.22-11.26 7.374-0.182 0.010-0.322 0.010-0.482 0.010-6.47 0-11.97-3.986-11.97-9.076v-0.080c0-7.064 6.394-14.032 6.68-14.326 0.18-0.2 0.46-0.26 0.7-0.14 0.24 0.1 0.396 0.34 0.388 0.6-0.060 1.38 0.22 2.58 0.84 3.6v0.020z"></path>
</svg>
