
<svg version="1.1" xmlns="http://www.w3.org/2000/svg" width="32" height="32" viewBox="0 0 32 32">
<title>brand244</title>
<path fill="#003168" d="M0.654 22.632c-0.16 0.060-0.25-0.016-0.196-0.18l0.44-1.46c0.040-0.16 0.080-0.44 0.060-0.608l-0.958-9.188c-0.014-0.168 0.108-0.32 0.28-0.332l31.432-2.11c0.17-0.010 0.3 0.12 0.286 0.292l-1.28 13.908c-0.020 0.17-0.18 0.3-0.34 0.292l-26.72-1.72c-0.18-0.008-0.46 0.034-0.6 0.104l-2.42 1zM15.060 14.948c-0.356 0-0.636 0.112-0.84 0.324v-1.492h-0.67v3.112c0 0.456 0.14 0.832 0.408 1.114 0.26 0.28 0.64 0.424 1.1 0.424s0.84-0.144 1.1-0.424c0.26-0.28 0.4-0.66 0.4-1.114v-0.376c-0.020-1.040-0.52-1.568-1.54-1.568zM15.060 15.6c0.28 0 0.492 0.068 0.636 0.212 0.14 0.14 0.216 0.38 0.216 0.71v0.38c0 0.28-0.074 0.5-0.228 0.66-0.152 0.16-0.354 0.24-0.624 0.24-0.266 0-0.48-0.080-0.62-0.24-0.148-0.16-0.22-0.38-0.22-0.64v-0.38c0-0.32 0.072-0.56 0.21-0.7 0.14-0.14 0.354-0.2 0.63-0.2zM19.908 15.696h-2.114v-1.93h-0.69v4.626h0.69v-2.024h2.114v2.024h0.694v-4.626h-0.68v1.93zM25.836 14.948c-0.354 0-0.636 0.112-0.84 0.324v-1.492h-0.67v3.112c0 0.456 0.14 0.832 0.408 1.114 0.27 0.28 0.64 0.424 1.108 0.424 0.48 0 0.86-0.144 1.12-0.424 0.28-0.28 0.42-0.66 0.42-1.114v-0.376c0-1.040-0.52-1.568-1.52-1.568zM25.836 15.6c0.28 0 0.494 0.068 0.636 0.212 0.144 0.14 0.22 0.38 0.22 0.71v0.38c0 0.28-0.076 0.5-0.23 0.66-0.14 0.16-0.36 0.24-0.62 0.24s-0.48-0.080-0.62-0.24c-0.14-0.16-0.22-0.38-0.22-0.64v-0.38c0-0.32 0.080-0.56 0.22-0.7s0.36-0.2 0.64-0.2zM12.362 16.86c0 0.346-0.040 0.594-0.14 0.726-0.1 0.128-0.26 0.196-0.5 0.196h-0.020c-0.24 0-0.42-0.060-0.52-0.18-0.1-0.14-0.14-0.38-0.14-0.72v-1.82h-0.66v1.82c0 0.56 0.1 0.98 0.32 1.22 0.2 0.24 0.52 0.36 0.94 0.38h0.16c0.44 0 0.76-0.12 0.96-0.36s0.32-0.64 0.32-1.2v-1.82h-0.682v1.82zM23.142 16.86c0 0.346-0.040 0.59-0.14 0.726-0.1 0.128-0.26 0.196-0.5 0.196h-0.020c-0.24 0-0.42-0.060-0.5-0.18-0.1-0.14-0.14-0.38-0.14-0.72v-1.82h-0.66v1.82c0 0.56 0.1 0.98 0.32 1.22 0.2 0.24 0.52 0.36 0.96 0.38h0.16c0.44 0 0.74-0.12 0.94-0.36s0.32-0.64 0.32-1.2v-1.82h-0.66v1.82h0.020zM7.062 15.886l-1.6-0.536c-0.1-0.036-0.18-0.084-0.24-0.148-0.060-0.040-0.080-0.1-0.080-0.18v-0.1c0-0.36 0.32-0.56 0.96-0.58h0.060c0.64 0 0.98 0.18 1.020 0.52l0.020 0.060h0.7v-0.060c-0.040-0.78-0.6-1.18-1.7-1.18h-0.080c-1.080 0.020-1.62 0.44-1.62 1.26v0.12c0 0.24 0.080 0.44 0.22 0.6 0.14 0.18 0.36 0.3 0.62 0.38l1.58 0.54c0.26 0.1 0.4 0.24 0.4 0.46v0.1c0 0.2-0.1 0.36-0.28 0.46-0.2 0.12-0.48 0.18-0.84 0.18s-0.64-0.060-0.84-0.18c-0.18-0.1-0.28-0.26-0.28-0.46v-0.080h-0.682v0.080c0 0.42 0.16 0.74 0.48 0.98s0.76 0.36 1.32 0.36 1.020-0.1 1.324-0.34c0.32-0.24 0.48-0.56 0.48-0.96v-0.182c0-0.27-0.080-0.504-0.24-0.694-0.16-0.184-0.372-0.328-0.632-0.412zM9.342 17.556c-0.14-0.16-0.22-0.38-0.22-0.652v-1.188h0.72v-0.68h-0.72v-1.26h-0.68v3.128c0 0.456 0.14 0.832 0.42 1.112 0.24 0.24 0.54 0.38 0.92 0.414l0.080 0.004v-0.646l-0.062-0.008c-0.188-0.028-0.332-0.104-0.448-0.224zM27.202 14.852h0.1v0.244h0.040v-0.244h0.080v-0.032h-0.22v0.032zM27.602 15.018l-0.060-0.2h-0.060v0.26h0.040v-0.22l0.1 0.22h0.040l0.080-0.24v0.24h0.040v-0.278h-0.060l-0.080 0.2z"></path>
</svg>
