<!-- Generated by IcoMoon.io -->
<svg version="1.1" xmlns="http://www.w3.org/2000/svg" width="32" height="32" viewBox="0 0 32 32">
<title>brand108</title>
<path d="M15.948 0h0.030c1.836 0.006 3.565 0.463 5.081 1.267 1.39-0.79 3.107-1.238 4.928-1.239h0.034l0.87 0.002v31.97l-0.876-0.002c-0.001 0-0.003 0-0.005 0-5.807 0-11.063-2.357-14.865-6.166-3.796-3.764-6.147-8.981-6.147-14.746 0-0.039 0-0.077 0-0.116l-0-10.94 0.904-0.002c1.734 0 3.448 0.416 4.988 1.21 1.467-0.78 3.208-1.238 5.056-1.238zM15.948 0.874c-1.842 0-3.568 0.496-5.054 1.36-1.431-0.839-3.151-1.334-4.987-1.334-0.001 0-0.002 0-0.003 0h-0.030v10.076c-0.032 11.132 9.020 20.118 20.144 20.148v-30.224h-0.030c-0.003 0-0.006 0-0.009 0-1.834 0-3.552 0.495-5.029 1.358-1.392-0.877-3.124-1.382-4.974-1.386h-0.029zM20.284 4.544c2.384 0.003 4.315 1.936 4.315 4.32 0 2.386-1.934 4.32-4.32 4.32-0.863 0-1.666-0.253-2.34-0.688l-2.003 2.020-2.010-2.020c-0.651 0.415-1.445 0.661-2.296 0.661-2.386 0-4.32-1.934-4.32-4.32s1.934-4.32 4.32-4.32c2.257 0 4.109 1.73 4.303 3.937l0.021-0.012 0.020 0.026c0.209-2.209 2.055-3.924 4.302-3.924 0.003 0 0.006 0 0.009 0zM11.624 11.72c0.003 0 0.007 0 0.011 0 1.591 0 2.88-1.289 2.88-2.88 0-0.302-0.046-0.593-0.133-0.866-0.225 0.527-0.727 0.873-1.309 0.873-0.795 0-1.44-0.645-1.44-1.44 0-0.584 0.348-1.087 0.848-1.313-0.249-0.087-0.545-0.136-0.853-0.136-1.587 0-2.875 1.285-2.878 2.872 0 0.003-0 0.007-0 0.010 0 1.588 1.286 2.877 2.874 2.88zM20.264 11.744c0.002 0 0.004 0 0.007 0 1.591 0 2.88-1.289 2.88-2.88s-1.289-2.88-2.88-2.88c-0.301 0-0.59 0.046-0.863 0.131 0.527 0.225 0.873 0.727 0.873 1.309 0 0.795-0.645 1.44-1.44 1.44-0.586 0-1.090-0.35-1.315-0.851-0.087 0.248-0.135 0.544-0.135 0.851 0 1.588 1.285 2.875 2.871 2.88z"></path>
</svg>
