<!-- Generated by IcoMoon.io -->
<svg version="1.1" xmlns="http://www.w3.org/2000/svg" width="32" height="32" viewBox="0 0 32 32">
<title>brand266</title>
<path fill="#f22f46" d="M16 0c-0.006 0-0.013 0-0.020 0-8.825 0-15.98 7.154-15.98 15.98 0 0.007 0 0.014 0 0.021 0 8.853 7.146 15.999 16 15.999s16-7.146 16-16-7.146-16-16-16zM16 27.734c-0.010 0-0.022 0-0.034 0-6.462 0-11.7-5.238-11.7-11.7 0-0.012 0-0.024 0-0.036-0-0.008-0-0.020-0-0.032 0-6.462 5.238-11.7 11.7-11.7 0.012 0 0.024 0 0.036 0 0.008-0 0.020-0 0.032-0 6.462 0 11.7 5.238 11.7 11.7 0 0.012-0 0.024-0 0.036 0 0.008 0 0.020 0 0.032 0 6.462-5.238 11.7-11.7 11.7-0.012 0-0.024-0-0.036-0zM23.254 12.054c0 1.812-1.494 3.306-3.308 3.306-1.822-0.010-3.296-1.484-3.306-3.305 0-1.815 1.494-3.309 3.306-3.309 1.814 0 3.308 1.494 3.308 3.308zM23.254 19.946c0 1.814-1.494 3.308-3.308 3.308-1.822-0.010-3.297-1.485-3.306-3.307 0-1.813 1.494-3.307 3.306-3.307 1.814 0 3.308 1.494 3.308 3.306zM15.36 19.946c0 1.814-1.494 3.308-3.306 3.308-1.823-0.009-3.299-1.485-3.308-3.307 0-1.813 1.494-3.307 3.308-3.307 1.812 0 3.306 1.494 3.306 3.306zM15.36 12.054c0 1.812-1.494 3.306-3.306 3.306-1.823-0.009-3.298-1.484-3.308-3.305 0-1.815 1.494-3.309 3.308-3.309 1.812 0 3.306 1.494 3.306 3.308z"></path>
</svg>
