
<svg version="1.1" xmlns="http://www.w3.org/2000/svg" width="32" height="32" viewBox="0 0 32 32">
<title>brand42</title>
<path fill="#00a1cc" d="M30.62 10.42c0.316-1.096 0.474-2.236 0.474-3.39 0-1.152-0.16-2.29-0.472-3.386-0.4-1.37-1.4-2.444-2.74-2.952-1.322-0.46-2.682-0.692-4.082-0.692-1.386 0-2.756 0.232-4.068 0.692-1.34 0.508-2.34 1.584-2.746 2.952-0.316 1.104-0.476 2.24-0.476 3.386 0 1.144 0.16 2.284 0.476 3.388 0.406 1.36 1.408 2.44 2.746 2.94 1.314 0.46 2.68 0.68 4.070 0.68 1.4 0 2.76-0.24 4.080-0.7 1.34-0.52 2.34-1.58 2.76-2.96zM26.692 7.032c0 0.56-0.084 1.12-0.252 1.65-0.228 0.74-0.834 1.28-1.58 1.42-0.346 0.080-0.7 0.1-1.056 0.1s-0.712-0.020-1.060-0.1c-0.744-0.14-1.35-0.68-1.58-1.4-0.166-0.52-0.25-1.080-0.25-1.64s0.084-1.12 0.252-1.64c0.228-0.72 0.834-1.26 1.58-1.4 0.34-0.060 0.7-0.1 1.060-0.1 0.356 0 0.712 0.040 1.054 0.1 0.746 0.14 1.352 0.68 1.58 1.4 0.168 0.54 0.252 1.1 0.252 1.66zM15.020 25.46c0.31-1.094 0.47-2.234 0.47-3.388 0-1.152-0.16-2.29-0.472-3.386-0.42-1.37-1.42-2.446-2.76-2.952-1.32-0.46-2.7-0.692-4.080-0.692-1.4 0-2.76 0.24-4.080 0.7-1.34 0.52-2.34 1.58-2.74 2.96-0.32 1.1-0.48 2.24-0.48 3.4 0 1.14 0.16 2.3 0.46 3.4 0.4 1.38 1.4 2.46 2.74 2.96 1.32 0.46 2.68 0.7 4.080 0.7 1.38 0 2.74-0.22 4.060-0.68 1.32-0.5 2.32-1.58 2.74-2.94zM11.086 22.074c0 0.564-0.084 1.12-0.25 1.65-0.23 0.72-0.836 1.26-1.58 1.408-0.346 0.068-0.7 0.1-1.060 0.1-0.354 0-0.71-0.032-1.056-0.1-0.746-0.146-1.352-0.686-1.58-1.408-0.166-0.53-0.252-1.086-0.252-1.65 0-0.566 0.086-1.12 0.252-1.652 0.228-0.72 0.834-1.26 1.58-1.4 0.34-0.060 0.7-0.1 1.060-0.1s0.712 0.040 1.056 0.1c0.744 0.16 1.35 0.7 1.58 1.42 0.166 0.54 0.25 1.1 0.25 1.66zM11.086 7.004h4.404c-0.004-1.14-0.16-2.272-0.472-3.36-0.418-1.37-1.418-2.444-2.758-2.952-1.304-0.46-2.676-0.692-4.060-0.692-1.39 0-2.76 0.232-4.074 0.692-1.34 0.508-2.34 1.584-2.746 2.952-0.314 1.104-0.474 2.244-0.474 3.386 0 1.144 0.16 2.284 0.474 3.388 0.406 1.36 1.408 2.44 2.746 2.94 1.314 0.46 2.684 0.68 4.072 0.68 1.38 0 2.74-0.24 4.060-0.7 1.34-0.5 2.34-1.58 2.74-2.96 0.040-0.2 0.1-0.38 0.14-0.58l-4.138-1.898c-0.040 0.26-0.1 0.516-0.18 0.768-0.23 0.726-0.836 1.266-1.58 1.412-0.346 0.068-0.7 0.1-1.060 0.1-0.354 0-0.71-0.032-1.056-0.1-0.746-0.146-1.352-0.686-1.58-1.408-0.166-0.54-0.252-1.094-0.252-1.66 0-0.564 0.086-1.12 0.252-1.65 0.228-0.72 0.834-1.26 1.58-1.4 0.34-0.060 0.7-0.1 1.060-0.1s0.712 0.040 1.056 0.1c0.76 0.16 1.36 0.7 1.58 1.42 0.18 0.52 0.26 1.080 0.26 1.62zM16.986 18.684c-0.316 1.106-0.476 2.244-0.476 3.388v9.928h4.404v-9.928c0-0.564 0.084-1.12 0.252-1.65 0.228-0.72 0.834-1.26 1.58-1.4 0.34-0.060 0.7-0.1 1.060-0.1 0.356 0 0.712 0.040 1.054 0.1 0.746 0.16 1.352 0.7 1.58 1.42 0.168 0.54 0.252 1.1 0.252 1.66s-0.084 1.12-0.252 1.66c-0.228 0.72-0.834 1.26-1.58 1.42-0.346 0.080-0.7 0.1-1.056 0.1s-0.712-0.020-1.060-0.1c-0.14-0.020-0.28-0.060-0.414-0.12l1.492 4.1c1.4 0 2.76-0.24 4.060-0.7 1.34-0.5 2.34-1.58 2.76-2.94 0.32-1.080 0.48-2.22 0.48-3.38s-0.16-2.3-0.46-3.38c-0.4-1.36-1.4-2.44-2.74-2.94-1.32-0.46-2.68-0.7-4.080-0.7-1.38 0-2.76 0.24-4.060 0.7-1.34 0.5-2.34 1.58-2.74 2.96z"></path>
</svg>
