<!-- Generated by IcoMoon.io -->
<svg version="1.1" xmlns="http://www.w3.org/2000/svg" width="32" height="32" viewBox="0 0 32 32">
<title>brand212</title>
<path fill="#0089cf" d="M28.3 5.52l-0.006 4.44h-14.134c-0.292 0-0.53 0.24-0.53 0.532 0 0.294 0.24 0.532 0.53 0.532l3.68-0.020c5.794 0 10.49 4.7 10.49 10.492 0 5.796-4.696 10.492-10.492 10.492l-14.178 0.012 0.006-4.5h14.18c3.316 0 6.006-2.688 6.006-6.006 0-3.32-2.69-6.008-6.008-6.008l-3.696-0.040c-2.746 0-4.968-2.22-4.968-4.96 0-2.746 2.22-4.966 4.964-4.966h14.14zM3.68 26.456l-0.006-4.44h14.146c0.28 0 0.51-0.234 0.51-0.516 0-0.284-0.23-0.514-0.512-0.514h-3.658c-5.794 0-10.49-4.7-10.49-10.494s4.696-10.492 10.49-10.492l14.134 0.004 0.008 4.466-14.14 0.006c-3.32 0-6 2.69-6 6.008 0 3.32 2.7 6.006 6.020 6.006l3.7 0.040c2.74 0 4.96 2.224 4.96 4.964s-2.22 4.96-4.96 4.96h-14.2z"></path>
</svg>
