
<svg version="1.1" xmlns="http://www.w3.org/2000/svg" width="32" height="32" viewBox="0 0 32 32">
<title>brand142</title>
<path fill="#cf202e" d="M28.14 8.4l0.054 0.004 0.054 0.008 0.052 0.014 0.054 0.020 0.050 0.026 0.052 0.030 0.096 0.080 0.050 0.060 0.060 0.060 0.040 0.060 0.060 0.060 0.1 0.16 0.040 0.080 0.16 0.4 0.16 0.48 0.24 0.84 0.080 0.32 0.040 0.18 0.020 0.16 0.080 0.36 0.020 0.18 0.040 0.2 0.040 0.4 0.040 0.2 0.040 0.4 0.1 1.1 0.020 0.24 0.020 0.46 0.080 0.96 0.1 1.3v0.52l0.040 0.56v0.54l0.020 0.28v0.82l0.020 0.56 0.020 0.84v1.7l0.020 0.5 0.040 0.36 0.060 0.24 0.060 0.16 0.060 0.14 0.080 0.12 0.18 0.18 0.2 0.1 0.12 0.040 0.128 0.040 0.19 0.040 0.26 0.014 0.36-0.020h0.14v3.020l-0.32 0.040-0.76 0.034-0.82-0.040-0.6-0.088-0.46-0.12-0.34-0.12-0.32-0.16-0.316-0.2-0.28-0.246-0.18-0.18-0.18-0.2-0.23-0.36-0.2-0.42-0.16-0.46-0.11-0.54-0.072-0.612-0.020-0.68v-2.6l-0.020-0.56v-1.16l-0.020-0.54v-0.384l-0.020-0.268v-0.532l-0.020-0.26v-0.26l-0.008-0.26-0.020-0.26-0.020-0.24-0.004-0.24-0.020-0.24-0.020-0.244v-0.24l-0.040-0.48-0.016-0.24-0.040-0.456-0.020-0.22-0.020-0.226-0.020-0.214-0.040-0.44-0.040-0.4-0.020-0.212-0.020-0.188-0.020-0.18-0.060-0.374-0.040-0.36-0.040-0.168-0.036-0.18-0.12-0.48-0.048-0.138-0.080-0.28-0.060-0.12-0.040-0.14-0.040-0.12-0.030-0.12-0.080-0.24-0.12-0.3-0.12-0.24-0.060-0.080-0.040-0.060-0.050-0.060-0.040-0.060-0.054-0.040-0.040-0.040-0.060-0.040-0.040-0.020-0.18-0.060-0.040-0.020h3.38zM0.010 4.156l1.568 0.028 1.46 0.034 1.3 0.020 1.14 0.040 0.98 0.040 0.86 0.040 0.76 0.040 0.68 0.040 0.62 0.060 0.56 0.060 0.52 0.060 0.48 0.060 0.44 0.060 0.42 0.060 0.38 0.080 0.36 0.080 0.34 0.080 0.32 0.080 0.3 0.080 0.28 0.080 0.26 0.1 0.26 0.080 0.24 0.1 0.44 0.2 0.2 0.1 0.22 0.1 0.2 0.12 0.36 0.24 0.64 0.48 0.14 0.12 0.14 0.14 0.14 0.12 0.14 0.14 0.24 0.28 0.14 0.14 0.24 0.28 0.1 0.14 0.12 0.14 0.1 0.16 0.1 0.14 0.4 0.64 0.16 0.32 0.1 0.16 0.32 0.64 0.060 0.16 0.064 0.16 0.080 0.18 0.066 0.16 0.080 0.18 0.080 0.16 0.060 0.16 0.080 0.18 0.072 0.18 0.060 0.16 0.068 0.18 0.060 0.16 0.3 0.9 0.040 0.18 0.060 0.18 0.052 0.18 0.040 0.18 0.052 0.18 0.040 0.18 0.054 0.18 0.040 0.18 0.060 0.18 0.040 0.16 0.060 0.18v0.020l0.040 0.16 0.040 0.17 0.080 0.36 0.040 0.16 0.080 0.36 0.060 0.16 0.040 0.18 0.040 0.16 0.040 0.18 0.44 1.76 0.020 0.16 0.040 0.14 0.060 0.3 0.12 0.42 0.030 0.14 0.040 0.14 0.020 0.14 0.080 0.28 0.020 0.14 0.040 0.14 0.040 0.12 0.040 0.13 0.020 0.12 0.040 0.12 0.060 0.36 0.020 0.1 0.020 0.12 0.020 0.116 0.040 0.2 0.020 0.104 0.032 0.1 0.040 0.2 0.020 0.092 0.020 0.080 0.032 0.1 0.032 0.080 0.020 0.088 0.1 0.4 0.020 0.060 0.040 0.068 0.060 0.18 0.040 0.060 0.020 0.060 0.050 0.1 0.020 0.052 0.12 0.24 0.1 0.1 0.040 0.020 0.020 0.006 0.020 0.020h-9.382l-0.068-0.020-0.152-0.040-0.16-0.040h-0.020l-0.070-0.032-0.074-0.020-0.074-0.040-0.080-0.040-0.060-0.040-0.080-0.040-0.060-0.040-0.080-0.040-0.12-0.12-0.080-0.060-0.060-0.060-0.080-0.060-0.080-0.080-0.080-0.074-0.060-0.080-0.080-0.072-0.080-0.060-0.16-0.16-0.060-0.080-0.082-0.006-0.080-0.080-0.060-0.092-0.080-0.090-0.24-0.3-0.060-0.1-0.080-0.12-0.080-0.1-0.080-0.12-0.080-0.1-0.56-0.84-0.080-0.14-0.080-0.12-0.060-0.14-0.88-1.54-0.64-1.28-0.18-0.038-0.084-0.164-0.080-0.164-0.16-0.332-0.086-0.168-0.080-0.17-0.080-0.16-0.086-0.16-0.080-0.16-0.084-0.16-0.080-0.16-0.084-0.2-0.080-0.18-0.084-0.16-0.086-0.16-0.080-0.18-0.084-0.16-0.080-0.18-0.080-0.16-0.4-0.9-0.080-0.16-0.56-1.26-0.080-0.2-0.080-0.16-0.080-0.18-0.16-0.32-0.1-0.16-0.080-0.18-0.1-0.16-0.080-0.16-0.1-0.16-0.32-0.64-0.082-0.182-0.32-0.64-0.2-0.32-0.18-0.306-0.080-0.16-0.1-0.148-0.1-0.16-0.080-0.15-0.080-0.14-0.168-0.28-0.1-0.14-0.16-0.28-0.080-0.12-0.080-0.14-0.086-0.14-0.088-0.12-0.080-0.12-0.2-0.24-0.080-0.12-0.1-0.12-0.118-0.156-0.090-0.104-0.092-0.104-0.080-0.1-0.078-0.132-0.1-0.1-0.088-0.080-0.1-0.092-0.084-0.088-0.1-0.108-0.088-0.080-0.086-0.080-0.090-0.080-0.090-0.070-0.188-0.12-0.086-0.080-0.1-0.060-0.080-0.060-0.1-0.060-0.088-0.040-0.092-0.040-0.094-0.040-0.096-0.040-0.090-0.042-0.080-0.030-0.080-0.010h0.010z"></path>
</svg>
