<!-- Generated by IcoMoon.io -->
<svg version="1.1" xmlns="http://www.w3.org/2000/svg" width="32" height="32" viewBox="0 0 32 32">
<title>brand146</title>
<path fill="#ff1e0d" d="M30.74 9.772c-0.804-1.906-1.96-3.62-3.426-5.086-1.47-1.468-3.18-2.62-5.086-3.428-1.974-0.838-4.068-1.258-6.228-1.258s-4.254 0.424-6.228 1.26c-1.906 0.804-3.616 1.96-5.086 3.426-1.468 1.468-2.62 3.18-3.428 5.086-0.838 1.974-1.258 4.068-1.258 6.228s0.424 4.254 1.26 6.228c0.804 1.906 1.96 3.62 3.426 5.086 1.47 1.468 3.18 2.62 5.086 3.428 1.974 0.84 4.068 1.26 6.228 1.26s4.254-0.42 6.228-1.26c1.906-0.8 3.616-1.96 5.086-3.42 1.468-1.46 2.62-3.18 3.428-5.080 0.84-1.96 1.26-4.060 1.26-6.22s-0.42-4.24-1.26-6.22zM16 29.78c-7.61 0-13.78-6.17-13.78-13.78s6.17-13.78 13.78-13.78c7.61 0 13.78 6.17 13.78 13.78s-6.17 13.78-13.78 13.78zM20.324 5.494h-8.648c-1.23 0-2.268 0.434-3.112 1.3-0.846 0.86-1.27 1.9-1.27 3.112v13.576c0 0.6 0.18 1.080 0.534 1.46 0.356 0.36 0.82 0.56 1.4 0.56 0.594 0 1.074-0.18 1.44-0.54 0.364-0.36 0.546-0.84 0.546-1.44v-14.082h2.854v14.040c0 0.594 0.174 1.074 0.52 1.44 0.346 0.364 0.816 0.548 1.412 0.548s1.066-0.184 1.412-0.548c0.346-0.366 0.52-0.846 0.52-1.44v-14.040h2.854v14.040c0 0.594 0.18 1.074 0.546 1.44 0.366 0.364 0.846 0.548 1.44 0.548 0.58 0 1.044-0.188 1.4-0.564 0.356-0.374 0.534-0.85 0.534-1.426v-13.578c0-1.212-0.424-2.25-1.27-3.114-0.844-0.864-1.88-1.3-3.112-1.3z"></path>
</svg>
