
<svg version="1.1" xmlns="http://www.w3.org/2000/svg" width="32" height="32" viewBox="0 0 32 32">
<title>brand263</title>
<path fill="#589442" d="M30.426 12.704c0.374-1.608 1.566-3.22 1.566-3.22h-5.348c-3-1.94-6.64-2.966-10.68-2.966-4.186 0-7.968 1.040-10.95 3h-5.014s1.18 1.58 1.56 3.18c-0.976 1.342-1.556 2.962-1.556 4.742 0 4.42 3.596 8.010 8.014 8.010 2.52 0 4.76-1.18 6.24-3.006l1.7 2.554 1.72-2.58c0.76 0.98 1.76 1.78 2.94 2.32 1.94 0.88 4.12 0.98 6.12 0.24 4.14-1.54 6.26-6.16 4.74-10.3-0.28-0.74-0.64-1.4-1.080-1.98zM26.2 23.464c-1.6 0.594-3.34 0.526-4.892-0.19-1.1-0.51-2.004-1.308-2.652-2.3-0.266-0.4-0.5-0.83-0.67-1.294-0.194-0.526-0.292-1.070-0.344-1.62-0.1-1.108 0.060-2.232 0.54-3.27 0.72-1.552 2-2.734 3.6-3.326 3.32-1.22 7 0.48 8.22 3.786 1.22 3.308-0.48 6.99-3.78 8.216zM13.312 21.020c-1.152 1.696-3.096 2.816-5.296 2.816-3.528 0-6.4-2.874-6.4-6.394s2.874-6.4 6.4-6.4c3.526 0 6.396 2.88 6.396 6.4 0 0.22-0.040 0.42-0.064 0.64-0.108 1.080-0.454 2.1-1.036 2.96zM3.952 17.36c0 2.186 1.78 3.96 3.96 3.96s3.956-1.774 3.956-3.96c0-2.18-1.776-3.952-3.954-3.952-2.18 0-3.96 1.772-3.96 3.952zM20.012 17.36c0 2.186 1.772 3.96 3.956 3.96 2.18 0 3.952-1.774 3.952-3.96 0-2.18-1.772-3.952-3.952-3.952s-3.96 1.772-3.96 3.952zM5.318 17.36c0-1.428 1.16-2.59 2.58-2.59s2.6 1.164 2.6 2.59c0 1.434-1.16 2.6-2.6 2.6s-2.6-1.166-2.6-2.6zM21.358 17.36c0-1.428 1.16-2.59 2.6-2.59 1.42 0 2.58 1.164 2.58 2.59 0 1.434-1.16 2.6-2.6 2.6s-2.6-1.166-2.6-2.6zM15.958 7.916c2.88 0 5.48 0.52 7.76 1.55-0.86 0.024-1.7 0.174-2.54 0.48-2.020 0.74-3.62 2.22-4.5 4.166-0.42 0.88-0.64 1.812-0.72 2.754-0.3-4.1-3.68-7.352-7.84-7.436 2.28-0.98 4.92-1.514 7.78-1.514z"></path>
</svg>
