<!-- Generated by IcoMoon.io -->
<svg version="1.1" xmlns="http://www.w3.org/2000/svg" width="32" height="32" viewBox="0 0 32 32">
<title>brand208</title>
<path fill="#2dc9d7" d="M3.322 5.138c0.1 0.18 0.46 0.48 0.6 1.1 0.060 0.28 0.22 0.62 0.5 1.020 0 0 2 2.16 2.8 3.62 0.74 1.48 0.92 1.94 1.020 2.22 0 0.040-0.74-0.86-1.6-1.48-3.3 3.76-5.7 8.26-6.4 13.14-0.74 5 2 6.32 4.040 6.26 1.64 0 5.060-1.76 6.88-6.14 1.76-4.26 1.48-9.16-0.3-13.42 1.7-1.72 4.84-3.76 7.9-3.7 2.28 0 3.42 1.98 3.58 2.16 1.76 3.18-0.3 6.040-0.3 6.040-1.14 1.72-3.12 2.52-4.16 2.8-0.78 0.22-2.26 0.16-2.62 0-0.22-0.060-0.28-0.18-0.28-0.34 0-0.24 0.18-0.34 0.34-0.34 0.22 0 0.34 0.16 0.34 0.34v0.18c0.58 0.16 1.7 0.040 2.16 0-0.36-0.854-1.14-1.31-2.18-1.31-1.38 0-2.46 1.082-2.46 2.446 0 1.026 0.58 1.88 1.42 2.22 0.44 0.172 1.76 0.342 3.4 0.172 2.504-0.342 4.324-1.48 6.024-3.416 1.992-2.332 2.564-5.46 1.764-8.42-0.796-2.844-3.070-5.064-6.030-5.464-3.66-0.566-7.46 1.194-10.142 3.59-0.060 0.054-0.22 0.168-0.28 0.28-0.28-0.51-0.64-1.020-1.020-1.42-0.512-0.74-1.648-1.936-1.708-1.992-0.226-0.284-0.626-0.342-0.85-0.454-0.7-0.15-1.18-0.388-1.48-0.56-0.016-0.022-0.036-0.044-0.060-0.070l-2.9-3.070c-0.286-0.23-0.628-0.284-0.912 0-0.228 0.284-0.284 0.626 0 0.91l2.872 3.1zM29.664 22.040l1.074-3.952c0.040-0.34 0.44-0.514 0.78-0.456 0.34 0.056 0.5 0.456 0.46 0.796l-1.080 4.1c0 0.168-0.18 0.74 0.040 1.648 0.1 0.34 0.060 0.68 0.1 0.68v0.060c-0.040 0.050-0.040 0.1-0.060 0.148l-0.020 0.044-0.060 0.148c-0.68 1.764-1.72 3.13-3.3 4.212-2.74 1.764-6.72 1.764-9.28 0-2.22-1.48-3.48-4.61-3.7-7.228 0.74 0.34 2.56 0.74 3.46 0.57 0.060 0.4 0.9 5.12 5.12 4.95 3.58-0.17 4.72-3.756 4.88-3.926 0 0 0.16-0.34 0.5-0.626 0.44-0.34 0.74-0.796 0.9-1.080 0.020-0.034 0.040-0.064 0.060-0.086zM8.944 21.56c-1.14 5.006-4.324 6.77-5.18 6.484-0.852-0.284-1.136-2.788 0.57-7 0.286-0.624 1.992-4.55 4.212-7-0.060 0.116 1.252 3.816 0.4 7.514z"></path>
</svg>
