<!-- Generated by IcoMoon.io -->
<svg version="1.1" xmlns="http://www.w3.org/2000/svg" width="32" height="32" viewBox="0 0 32 32">
<title>brand221</title>
<path fill="#2fcea0" d="M10.626 23.434c-0.036-0.008-0.076-0.012-0.118-0.012-0.21 0-0.395 0.112-0.496 0.28-0.54 1.141-1.679 1.914-2.999 1.914-0.206 0-0.407-0.019-0.603-0.055-0.014-0.175-0.034-0.38-0.034-0.589 0-1.318 0.777-2.454 1.898-2.975 0.189-0.112 0.299-0.295 0.299-0.504 0-0.292-0.215-0.533-0.496-0.574-0.339-0.067-0.726-0.104-1.121-0.104-1.813 0-3.44 0.796-4.55 2.057-1.215 1.651-1.941 3.716-1.941 5.95 0 0.714 0.074 1.411 0.215 2.083 0.031 0.18 0.223 0.372 0.465 0.414 0.607 0.102 1.303 0.16 2.013 0.16 0.001 0 0.002 0 0.003 0 0.142 0.008 0.308 0.013 0.475 0.013 2.381 0 4.538-0.96 6.106-2.514 0.9-1.060 1.447-2.445 1.447-3.957 0-0.397-0.038-0.785-0.11-1.161-0.024-0.211-0.21-0.41-0.45-0.461zM31.732 0.27c-0.228-0.226-0.696-0.12-0.696-0.12-0.766-0.093-1.655-0.147-2.557-0.15-0.068-0.001-0.144-0.001-0.22-0.001-5.694 0-10.854 2.292-14.606 6.003-0.465 0.469-0.909 0.964-1.329 1.481-0.978-0.413-2.090-0.676-3.264-0.676-0.974 0-1.905 0.181-2.762 0.511-2.999 1.294-4.783 5.034-6.259 8.882-0.024 0.062-0.039 0.133-0.039 0.208 0 0.32 0.26 0.58 0.58 0.58 0.136 0 0.261-0.047 0.36-0.125 1.25-0.937 2.829-1.501 4.54-1.501 0.978 0 1.912 0.184 2.771 0.52l-0.776 2.602c-0.013 0.045-0.020 0.097-0.020 0.15 0 0.205 0.107 0.386 0.267 0.489 1.972 1.485 3.671 3.181 5.11 5.085 0.151 0.228 0.332 0.335 0.537 0.335 0.055 0 0.107-0.008 0.157-0.022l2.616-0.719c0.33 0.815 0.522 1.76 0.522 2.75 0 1.71-0.572 3.287-1.535 4.549-0.065 0.080-0.112 0.205-0.112 0.342 0 0.32 0.26 0.58 0.58 0.58 0.076 0 0.149-0.015 0.215-0.041 3.842-1.479 7.582-3.259 8.89-6.299 0.313-0.805 0.494-1.738 0.494-2.712 0-1.171-0.262-2.281-0.73-3.275 0.568-0.406 1.061-0.857 1.53-1.333 3.729-3.792 6.030-8.994 6.030-14.734 0-0.934-0.061-1.853-0.179-2.755s0.111-0.364-0.117-0.594zM28.476 1.16c0 0 0.001 0 0.001 0 0.793 0 1.577 0.042 2.349 0.124-0.024 0.651 0.017 1.417 0.017 2.191 0 0.317-0.007 0.632-0.020 0.945-0.849-0.141-1.598-0.516-2.165-1.075-0.565-0.563-0.944-1.313-1.036-2.149 0.279-0.030 0.563-0.040 0.847-0.040zM14.476 6.82c3.117-3.094 7.278-5.139 11.908-5.56 0.179 0.94 0.539 1.785 1.084 2.479l-3.608 3.59c-0.792-0.627-1.805-1.006-2.906-1.006-2.596 0-4.7 2.104-4.7 4.7 0 1.102 0.379 2.115 1.014 2.916l-4.207 4.19c-1.050-1.019-2.195-1.954-3.415-2.787 0.849-3.383 2.555-6.237 4.832-8.522zM24.516 11.034c0 0.001 0 0.001 0 0.002 0 1.96-1.588 3.548-3.548 3.548s-3.548-1.588-3.548-3.548c0-1.96 1.588-3.548 3.548-3.548 0.001 0 0.001 0 0.002 0 1.958 0.002 3.544 1.588 3.548 3.546zM1.756 15.034c1.256-3.008 2.788-5.694 5.044-6.664 0.661-0.253 1.425-0.399 2.224-0.399 0.912 0 1.78 0.191 2.565 0.535-1.331 1.766-2.364 3.838-3.028 6.069-0.938-0.231-1.985-0.449-3.083-0.449-1.36 0-2.643 0.335-3.768 0.928zM13.62 23.294c-1.453-1.843-3.068-3.455-4.852-4.859l0.464-1.959c2.48 1.728 4.57 3.816 6.247 6.214zM23.64 25.194c-0.97 2.266-3.654 3.8-6.66 5.056 0.566-1.078 0.899-2.356 0.899-3.711 0-1.103-0.22-2.154-0.618-3.112 2.402-0.652 4.478-1.69 6.324-3.028 0.266 0.784 0.456 1.651 0.456 2.561 0 0.805-0.148 1.575-0.419 2.284zM16.72 22.446c-0.888-1.31-1.82-2.455-2.841-3.514l4.207-4.192c0.792 0.627 1.805 1.006 2.906 1.006 2.596 0 4.7-2.104 4.7-4.7 0-1.102-0.379-2.115-1.014-2.916l3.607-3.59c0.682 0.536 1.525 0.895 2.446 0.998-0.404 4.706-2.447 8.866-5.539 11.983-2.284 2.273-5.137 3.978-8.327 4.882z"></path>
</svg>
