
<svg version="1.1" xmlns="http://www.w3.org/2000/svg" width="32" height="32" viewBox="0 0 32 32">
<title>brand275</title>
<path fill="#f88d2d" d="M13.484 29.316h0.040c1.544 0 2.96-0.374 4.25-1.12s2.312-1.806 3.072-3.18c0.756-1.37 1.136-2.85 1.136-4.44 0-1.286-0.22-2.474-0.68-3.56 0.76-0.16 1.68-0.472 2.64-1.066 0.58 1.404 0.88 2.926 0.88 4.568 0 3.060-1.040 5.74-3.16 8.040-2.122 2.282-4.822 3.442-8.122 3.442-3.32 0-6.030-1.146-8.134-3.44-2.1-2.294-3.14-4.976-3.14-8.040 0-3.044 0.996-5.68 2.988-7.914 2.18-2.46 4.946-3.692 8.286-3.692 1.408 0 2.712 0.22 3.914 0.656-0.39 0.764-0.744 1.7-0.84 2.706-0.954-0.4-1.98-0.6-3.080-0.6-2.316 0-4.304 0.87-5.966 2.606-1.66 1.74-2.492 3.84-2.492 6.3 0 1.6 0.38 3.080 1.14 4.44 0.756 1.38 1.78 2.44 3.068 3.18 0.86 0.5 1.77 0.84 2.736 1 8.274-3.2 7.3-18.88 7.24-19.74l0.070 0.22c4.86 12.98-5.734 19.66-5.734 19.66h-0.1zM28.112 0.726c-1.352 2.876-3.86 3.41-3.86 3.41-2.504 0.636-3.38 1.6-3.38 1.6-2.504 2.52-0.532 5.576-0.532 5.576 5.41-1.232 7.386-5.676 7.386-5.676-0.24 2.986-6.68 6.514-6.68 6.514 2.132 2.084 4.166 1.834 5.51 1.034 1.78-1.060 2.636-3.38 2.636-3.38 1.726-5.16-1.080-9.080-1.080-9.080zM14.812 0c2.66 4.472 4.108 8.486 4.434 9.44v-0.040c-0.656-6.89-4.44-9.4-4.44-9.4z"></path>
</svg>
