
<svg version="1.1" xmlns="http://www.w3.org/2000/svg" width="32" height="32" viewBox="0 0 32 32">
<title>brand288</title>
<path fill="#ffc233" d="M30.558 2.868c0.5 0.014 1.62-0.126 1.36 0.694-0.080 0.188-0.3 0.366-0.42 0.54-0.16 0.18-0.3 0.38-0.42 0.58-0.2 0.32-0.4 0.64-0.58 0.98-0.46 0.8-0.84 1.64-1.28 2.46-1 1.76-2.040 3.5-3.32 5.080-0.96 1.16-2.080 2.34-3.5 2.92 1.080 1.96 2.14 3.96 3.2 5.94 0.92 1.7 1.82 3.4 2.8 5.1l0.14 0.24c0.14 0.24 0.32 0.576 0.32 0.856 0 0.56-0.82 0.58-1.2 0.58h-1.26l-2.18-0.020c-0.42 0-0.86 0.020-1.28-0.020-1.1-0.1-2.1-0.66-2.74-1.54-0.22-0.3-2.18-3.5-2.96-4.8-0.3-0.5-1.24-1.96-1.24-1.96s-0.94 1.46-1.24 1.96c-0.8 1.3-2.76 4.52-2.96 4.82-0.66 0.9-1.66 1.44-2.74 1.56-0.44 0.060-0.88 0.040-1.3 0.040-0.74 0.020-1.46 0.020-2.18 0.040-0.42 0-0.84 0.020-1.26 0.020-0.4 0-1.2-0.020-1.2-0.56-0.002-0.26 0.18-0.6 0.306-0.84l0.14-0.24c0.966-1.68 1.886-3.4 2.806-5.1l3.176-6c-1.41-0.58-2.55-1.76-3.494-2.92-1.276-1.58-2.334-3.3-3.32-5.080-0.45-0.8-0.832-1.64-1.284-2.44-0.188-0.34-0.384-0.66-0.584-0.98-0.126-0.2-0.27-0.4-0.416-0.58-0.128-0.16-0.354-0.34-0.414-0.54-0.264-0.82 0.852-0.68 1.352-0.68h3.51c1.15 0 2.202 0.88 3.010 1.58 0.788 0.68 1.462 1.5 2.108 2.32 0.236-0.64 0.536-1.26 0.856-1.82 0.41-0.82 1.222-1.6 2.13-1.78 0.46-0.1 0.972-0.040 1.44-0.040h3.078c0.46 0 0.98-0.040 1.44 0.060 0.92 0.18 1.72 0.96 2.14 1.78 0.32 0.56 0.62 1.18 0.86 1.82 0.64-0.82 1.32-1.64 2.12-2.3 0.808-0.694 1.866-1.568 3.012-1.568l1.45 0.004h2.070zM15.164 10.57c-0.006 0.008-0.012 0.020-0.012 0.032 0 0.020 0.008 0.040 0.020 0.040 0.028 0.040 0.060 0.060 0.096 0.080 0.186 0.14 0.416 0.2 0.684 0.2 0.272 0 0.488-0.060 0.684-0.2 0.034-0.020 0.070-0.040 0.1-0.080 0.028-0.020 0.040-0.040 0.020-0.060s-0.048-0.020-0.080 0-0.060 0.060-0.092 0.080c-0.18 0.12-0.38 0.18-0.632 0.18-0.246 0-0.46-0.060-0.628-0.18-0.034-0.020-0.060-0.040-0.088-0.060-0.020 0-0.052 0-0.072 0.020zM19.474 8.354c-0.074-0.148-0.156-0.254-0.244-0.32-0.284-0.21-0.714-0.21-0.97 0.040-0.12 0.12-0.208 0.26-0.274 0.416-0.148 0.346-0.26 0.74-0.236 1.124 0.014 0.172 0.072 0.352 0.194 0.48 0.146 0.152 0.356 0.214 0.56 0.254 0.2 0.040 0.434 0.074 0.62-0.026 0.22-0.1 0.31-0.38 0.37-0.6 0.076-0.28 0.148-0.58 0.12-0.88-0.020-0.16-0.066-0.34-0.14-0.48zM12.284 8.84c-0.030 0.296 0.040 0.6 0.12 0.88 0.060 0.22 0.148 0.486 0.366 0.6 0.188 0.1 0.42 0.070 0.62 0.028 0.204-0.040 0.416-0.1 0.56-0.256 0.12-0.126 0.18-0.306 0.196-0.48 0.024-0.38-0.088-0.776-0.236-1.12-0.066-0.156-0.154-0.3-0.274-0.416-0.256-0.252-0.686-0.252-0.97-0.040-0.088 0.064-0.17 0.17-0.244 0.32-0.060 0.146-0.12 0.32-0.12 0.484zM17.964 10.13l0.006 0.014c-0.004-0.004-0.006-0.010-0.006-0.014v0zM13.928 10.142h0.006l-0.006 0.020zM13.876 7.6c-0.044-0.448-0.106-0.67-0.19-0.66-0.316 0.026-0.792 0.030-1.432 0.020 0.024 0.046 0.092 0.124 0.18 0.192 0.12 0.094 0.28 0.22 0.548 0.31 0.1 0.040 0.2 0.080 0.3 0.1l0.22 0.040c0.18 0.020 0.38 0.040 0.38 0.020zM18.396 7.588c0.106-0.020 0.2-0.034 0.22-0.040 0.1-0.020 0.2-0.050 0.3-0.086 0.264-0.080 0.428-0.2 0.544-0.3 0.090-0.060 0.16-0.14 0.18-0.18-0.64 0.020-1.114 0.020-1.43-0.020-0.086 0-0.148 0.22-0.19 0.66-0.004 0.040 0.2 0.020 0.374 0z"></path>
</svg>
