
<svg version="1.1" xmlns="http://www.w3.org/2000/svg" width="32" height="32" viewBox="0 0 32 32">
<title>brand6</title>
<path fill="#f90" d="M0.060 24.030c0.096-0.156 0.25-0.166 0.464-0.030 4.848 2.812 10.124 4.22 15.826 4.22 3.8 0 7.554-0.71 11.26-2.126l0.42-0.174c0.184-0.080 0.314-0.136 0.392-0.174 0.3-0.116 0.52-0.060 0.7 0.174 0.16 0.232 0.12 0.446-0.16 0.64-0.34 0.252-0.8 0.544-1.34 0.872-1.66 0.99-3.52 1.756-5.58 2.3-2.040 0.54-4.060 0.814-6.020 0.814-3.020 0-5.88-0.53-8.58-1.586s-5.102-2.546-7.242-4.466c-0.14-0.094-0.2-0.194-0.2-0.29 0-0.060 0.020-0.116 0.060-0.174zM8.812 15.74c0-1.34 0.33-2.484 0.99-3.434s1.56-1.668 2.72-2.154c1.060-0.446 2.34-0.766 3.88-0.96 0.52-0.060 1.38-0.136 2.56-0.232v-0.494c0-1.24-0.14-2.076-0.4-2.5-0.4-0.584-1.040-0.876-1.92-0.876h-0.242c-0.64 0.060-1.194 0.26-1.66 0.612-0.466 0.36-0.766 0.84-0.9 1.46-0.080 0.4-0.274 0.62-0.58 0.68l-3.36-0.42c-0.33-0.080-0.496-0.24-0.496-0.52 0-0.060 0.010-0.12 0.030-0.2 0.33-1.72 1.14-3 2.428-3.84 1.3-0.82 2.8-1.3 4.52-1.4h0.72c2.2 0 3.94 0.58 5.18 1.72 0.18 0.2 0.36 0.4 0.54 0.64 0.16 0.22 0.3 0.42 0.38 0.6 0.1 0.18 0.2 0.44 0.26 0.76 0.080 0.34 0.14 0.56 0.18 0.68 0.040 0.14 0.080 0.4 0.1 0.82s0.040 0.66 0.040 0.74v7.040c0 0.5 0.080 0.96 0.22 1.38s0.28 0.72 0.42 0.9l0.68 0.9c0.12 0.18 0.18 0.34 0.18 0.48 0 0.16-0.080 0.3-0.24 0.42-1.6 1.4-2.48 2.16-2.62 2.28-0.22 0.18-0.5 0.2-0.84 0.060-0.26-0.22-0.5-0.44-0.7-0.66l-0.42-0.46c-0.080-0.1-0.22-0.28-0.42-0.56l-0.4-0.58c-1.080 1.18-2.14 1.92-3.2 2.22-0.66 0.2-1.46 0.3-2.44 0.3-1.48 0-2.72-0.46-3.68-1.38s-1.44-2.22-1.44-3.92zM13.816 15.156c0 0.756 0.188 1.36 0.566 1.82 0.38 0.454 0.9 0.68 1.54 0.68 0.060 0 0.14-0.008 0.26-0.026 0.12-0.020 0.18-0.030 0.22-0.030 0.82-0.214 1.44-0.736 1.9-1.57 0.22-0.37 0.38-0.772 0.48-1.208 0.12-0.42 0.16-0.78 0.18-1.060 0.020-0.26 0.020-0.72 0.020-1.34v-0.72c-1.12 0-1.98 0.080-2.56 0.24-1.7 0.48-2.56 1.56-2.56 3.24zM26.032 24.524c0.040-0.080 0.1-0.156 0.174-0.234 0.486-0.328 0.952-0.552 1.4-0.668 0.734-0.18 1.452-0.3 2.15-0.32 0.194-0.020 0.38 0 0.552 0.040 0.874 0.080 1.4 0.22 1.572 0.44 0.080 0.12 0.116 0.3 0.116 0.52v0.2c0 0.68-0.184 1.48-0.552 2.4-0.37 0.92-0.884 1.66-1.54 2.24-0.1 0.080-0.186 0.12-0.264 0.12-0.040 0-0.080 0-0.116-0.020-0.12-0.060-0.146-0.16-0.088-0.32 0.72-1.68 1.076-2.86 1.076-3.52 0-0.2-0.040-0.36-0.116-0.46-0.194-0.22-0.736-0.34-1.63-0.34-0.328 0-0.716 0.020-1.16 0.060-0.488 0.060-0.934 0.12-1.34 0.18-0.12 0-0.194-0.020-0.234-0.060s-0.048-0.060-0.028-0.1c0-0.020 0.008-0.040 0.028-0.080z"></path>
</svg>
