
<svg version="1.1" xmlns="http://www.w3.org/2000/svg" width="32" height="32" viewBox="0 0 32 32">
<title>brand298</title>
<path fill="#ff4a00" d="M20 16.006c0 1.19-0.22 2.328-0.614 3.38-1.050 0.396-2.19 0.614-3.38 0.614h-0.012c-1.19 0-2.328-0.22-3.38-0.614-0.394-1.052-0.614-2.19-0.614-3.38v-0.012c0-1.19 0.22-2.328 0.614-3.38 1.052-0.394 2.19-0.614 3.38-0.614h0.012c1.19 0 2.33 0.22 3.38 0.616 0.396 1.050 0.614 2.188 0.614 3.38v0.010zM31.78 13.334h-9.34l6.6-6.604c-0.52-0.73-1.096-1.414-1.728-2.044-0.63-0.632-1.314-1.21-2.040-1.728l-6.606 6.6v-9.338c-0.866-0.14-1.752-0.22-2.66-0.22h-0.014c-0.906 0-1.794 0.080-2.66 0.22v9.34l-6.6-6.6c-0.732 0.516-1.414 1.096-2.046 1.726-0.632 0.632-1.21 1.316-1.728 2.044l6.6 6.604h-9.338s-0.22 1.754-0.22 2.66v0.012c0 0.906 0.080 1.796 0.22 2.66h9.34l-6.6 6.604c1.036 1.46 2.312 2.734 3.77 3.772l6.604-6.6v9.34c0.864 0.14 1.75 0.22 2.654 0.22h0.024c0.904 0 1.79-0.080 2.654-0.22v-9.34l6.604 6.6c0.73-0.5 1.412-1.080 2.040-1.72h0.004c0.632-0.62 1.21-1.3 1.728-2.040l-6.6-6.6h9.34c0.14-0.86 0.22-1.74 0.22-2.64v-0.042c0-0.904-0.080-1.79-0.22-2.654z"></path>
</svg>
