
<svg version="1.1" xmlns="http://www.w3.org/2000/svg" width="32" height="32" viewBox="0 0 32 32">
<title>brand228</title>
<path fill="#f80046" d="M8.732 25.040c-2.474 0-4.496-0.452-6.13-2.136l2.56-2.544c0.84 0.84 2.32 1.136 3.62 1.136 1.58 0 2.32-0.52 2.32-1.452 0-0.388-0.080-0.706-0.32-0.956-0.2-0.204-0.54-0.364-1.060-0.432l-1.94-0.272c-1.42-0.204-2.52-0.68-3.24-1.43-0.74-0.772-1.12-1.86-1.12-3.246-0.042-2.952 2.178-5.108 5.858-5.108 2.32 0 4.064 0.544 5.448 1.93l-2.5 2.496c-1.020-1.020-2.36-0.954-3.060-0.954-1.386 0-1.954 0.796-1.954 1.5 0 0.204 0.068 0.5 0.32 0.748 0.2 0.204 0.54 0.408 1.11 0.48l1.956 0.27c1.454 0.204 2.5 0.66 3.18 1.34 0.86 0.84 1.2 2.040 1.2 3.54 0 3.294-2.836 5.092-6.24 5.092zM27.752 3.536c-2.18-1.626-4.592-2.72-7.632-3.22v14.5l4.348-6.052h4.754l-5.46 7.628s1.26 2.012 2.020 3.206c0.78 1.2 1.52 1.52 2.62 1.52h0.76v3.74h-1.162c-2.416 0-3.868-0.44-4.96-2.1-0.672-1.080-2.9-4.58-2.9-4.58v6.66h-3.98v-24.838h-0.16c-5.136 0-8.68 1.24-11.748 3.536-4.428 3.314-4.252 7.732-4.252 12.46 0 4.73-0.176 9.156 4.252 12.47 3.068 2.3 6.612 3.534 11.748 3.534s8.68-1.236 11.75-3.534c4.426-3.314 4.25-7.74 4.25-12.47 0-4.728 0.176-9.146-4.25-12.46z"></path>
</svg>
