<!-- Generated by IcoMoon.io -->
<svg version="1.1" xmlns="http://www.w3.org/2000/svg" width="32" height="32" viewBox="0 0 32 32">
<title>brand98</title>
<path fill="#630" d="M32 16c0 8.84-7.16 16-16 16-8.836 0-16-7.164-16-16s7.164-16 16-16c8.84 0 16 7.16 16 16zM22.508 9.97c-1.8-1.188-3.512-0.288-4.408 0.754-0.336 0.388-0.908 0.846-1.99 0.846-1.080 0-1.654-0.46-1.988-0.846-0.88-1.040-2.6-1.94-4.4-0.754-2.1 1.394-1.5 3.914-0.88 4.64l7.28 9.856 7.28-9.856c0.62-0.726 1.24-3.246-0.88-4.64z"></path>
</svg>
