<!-- Generated by IcoMoon.io -->
<svg version="1.1" xmlns="http://www.w3.org/2000/svg" width="32" height="32" viewBox="0 0 32 32">
<title>brand217</title>
<path fill="#7ab55c" d="M20.45 31.974l9.62-2.084s-3.47-23.484-3.5-23.64c-0.024-0.154-0.152-0.256-0.28-0.256-0.13 0-2.572-0.18-2.572-0.18s-1.7-1.7-1.92-1.88c-0.060-0.050-0.1-0.076-0.16-0.1l-1.22 28.14zM15.614 15.074s-1.080-0.566-2.366-0.566c-1.93 0-2.006 1.21-2.006 1.52 0 1.644 4.32 2.288 4.32 6.172 0 3.060-1.92 5.016-4.54 5.016-3.14 0-4.72-1.956-4.72-1.956l0.86-2.78s1.66 1.42 3.040 1.42c0.9 0 1.3-0.724 1.3-1.24 0-2.16-3.54-2.26-3.54-5.812-0.042-2.984 2.098-5.888 6.438-5.888 1.676 0 2.5 0.48 2.5 0.48l-1.26 3.62zM14.894 1.106c0.18 0 0.36 0.052 0.54 0.18-1.312 0.62-2.752 2.186-3.344 5.324-0.874 0.284-1.724 0.54-2.52 0.772 0.694-2.382 2.366-6.262 5.324-6.262zM16.54 5.040v0.18c-1.004 0.31-2.11 0.644-3.19 0.98 0.62-2.368 1.776-3.524 2.78-3.96 0.256 0.666 0.41 1.568 0.41 2.8zM17.26 2.060c0.926 0.1 1.52 1.156 1.904 2.34-0.464 0.154-0.98 0.308-1.544 0.488v-0.334c0-1.004-0.128-1.828-0.36-2.496zM21.248 3.78c-0.026 0-0.080 0.028-0.104 0.028-0.026 0-0.386 0.1-0.952 0.28-0.564-1.644-1.568-3.16-3.344-3.16h-0.154c-0.514-0.648-1.134-0.928-1.674-0.928-4.14 0-6.12 5.17-6.74 7.794-1.592 0.488-2.75 0.85-2.88 0.9-0.9 0.284-0.924 0.31-1.028 1.16-0.1 0.616-2.44 18.75-2.44 18.75l18.080 3.396 1.234-28.22z"></path>
</svg>
