
<svg version="1.1" xmlns="http://www.w3.org/2000/svg" width="32" height="32" viewBox="0 0 32 32">
<title>brand239</title>
<path d="M15.972 0c-8.404 0-15.292 6.48-15.944 14.716l8.576 3.544c0.726-0.494 1.604-0.786 2.548-0.786 0.084 0 0.168 0.004 0.252 0.008l3.816-5.522v-0.080c0-3.326 2.704-6.032 6.032-6.032 3.326 0 6.034 2.708 6.034 6.036s-2.708 6.034-6.034 6.034h-0.14l-5.436 3.882c0 0.068 0.006 0.14 0.006 0.212 0 2.5-2.020 4.528-4.52 4.528-2.18 0-4.020-1.564-4.44-3.636l-6.142-2.544c1.9 6.716 8.066 11.64 15.39 11.64 8.836 0 16-7.164 16-16s-7.164-16-16-16zM10.052 24.28l-1.964-0.814c0.35 0.724 0.952 1.332 1.752 1.666 1.73 0.72 3.724-0.1 4.444-1.832 0.35-0.84 0.352-1.76 0.006-2.6s-1-1.494-1.836-1.844c-0.832-0.346-1.72-0.332-2.504-0.040l2.030 0.84c1.276 0.534 1.88 2 1.346 3.274-0.53 1.276-1.996 1.88-3.272 1.348zM25.272 11.876c0-2.216-1.804-4.020-4.020-4.020-2.22 0-4.020 1.804-4.020 4.020 0 2.22 1.8 4.020 4.020 4.020 2.216 0 4.020-1.8 4.020-4.020zM18.24 11.87c0-1.67 1.35-3.020 3.020-3.020 1.666 0 3.020 1.35 3.020 3.020 0 1.668-1.354 3.020-3.020 3.020-1.67 0-3.020-1.352-3.020-3.020z"></path>
</svg>
