<!-- Generated by IcoMoon.io -->
<svg version="1.1" xmlns="http://www.w3.org/2000/svg" width="32" height="32" viewBox="0 0 32 32">
<title>brand59</title>
<path fill="#ea4c89" d="M16 32c-8.82 0-16-7.18-16-16s7.18-16 16-16 16 7.18 16 16-7.18 16-16 16zM29.494 18.19c-0.468-0.148-4.23-1.27-8.514-0.584 1.788 4.912 2.516 8.912 2.656 9.744 3.066-2.074 5.248-5.36 5.86-9.16zM21.34 28.6c-0.204-1.2-1-5.376-2.92-10.36l-0.088 0.028c-7.708 2.686-10.472 8.032-10.72 8.532 2.316 1.81 5.228 2.888 8.388 2.888 1.894 0 3.7-0.388 5.34-1.086zM5.846 25.16c0.31-0.532 4.060-6.74 11.11-9.020 0.18-0.060 0.36-0.112 0.54-0.16-0.346-0.78-0.72-1.556-1.11-2.32-6.826 2.040-13.446 1.954-14.046 1.94l-0.006 0.416c0 3.51 1.33 6.716 3.512 9.14zM2.62 13.22c0.614 0.010 6.244 0.034 12.636-1.664-2.264-4.024-4.706-7.41-5.066-7.904-3.824 1.804-6.68 5.328-7.568 9.57zM12.8 2.736c0.376 0.506 2.86 3.886 5.096 8 4.86-1.82 6.92-4.586 7.164-4.936-2.414-2.146-5.588-3.448-9.060-3.448-1.1 0-2.174 0.132-3.2 0.38zM26.58 7.38c-0.29 0.388-2.58 3.324-7.632 5.388 0.32 0.65 0.62 1.312 0.906 1.98 0.1 0.234 0.2 0.47 0.294 0.704 4.548-0.572 9.066 0.344 9.516 0.44-0.030-3.226-1.18-6.188-3.086-8.514z"></path>
</svg>
