
<svg version="1.1" xmlns="http://www.w3.org/2000/svg" width="32" height="32" viewBox="0 0 32 32">
<title>brand136</title>
<path fill="#d51007" d="M14.112 22.946l-1.172-3.186s-1.908 2.124-4.766 2.124c-2.53 0-4.326-2.2-4.326-5.72 0-4.508 2.274-6.12 4.51-6.12 3.22 0 4.24 2.088 5.12 4.764l1.16 3.666c1.16 3.556 3.36 6.414 9.7 6.414 4.54 0 7.62-1.392 7.62-5.060 0-2.966-1.7-4.506-4.84-5.24l-2.34-0.512c-1.62-0.366-2.1-1.026-2.1-2.126 0-1.246 0.98-1.98 2.6-1.98 1.76 0 2.7 0.66 2.86 2.236l3.66-0.44c-0.3-3.3-2.58-4.654-6.32-4.654-3.3 0-6.52 1.246-6.52 5.24 0 2.494 1.2 4.070 4.24 4.8l2.48 0.59c1.86 0.44 2.48 1.22 2.48 2.28 0 1.36-1.32 1.92-3.82 1.92-3.7 0-5.24-1.94-6.12-4.62l-1.2-3.66c-1.54-4.76-4-6.52-8.88-6.52-5.278-0.022-8.138 3.378-8.138 9.178 0 5.566 2.86 8.58 7.992 8.58 4.14 0 6.12-1.94 6.12-1.94z"></path>
</svg>
