
<svg version="1.1" xmlns="http://www.w3.org/2000/svg" width="32" height="32" viewBox="0 0 32 32">
<title>brand186</title>
<path fill="#bd081c" d="M16 0c-8.836 0-16 7.164-16 16 0 6.78 4.216 12.57 10.168 14.9-0.14-1.266-0.266-3.208 0.056-4.59 0.292-1.25 1.876-7.954 1.876-7.954s-0.48-0.96-0.48-2.376c0-2.22 1.292-3.886 2.896-3.886 1.366 0 2.024 1.026 2.024 2.254 0 1.374-0.872 3.426-1.324 5.328-0.38 1.594 0.8 2.89 2.37 2.89 2.84 0 5.028-2.996 5.028-7.324 0-3.82-2.752-6.5-6.684-6.5-4.552 0-7.22 3.42-7.22 6.94 0 1.38 0.526 2.86 1.186 3.66 0.132 0.16 0.15 0.3 0.114 0.46-0.12 0.5-0.392 1.6-0.446 1.82-0.070 0.3-0.23 0.36-0.536 0.22-1.996-0.922-3.248-3.842-3.248-6.202 0-5.040 3.668-9.68 10.574-9.68 5.548 0 9.864 3.96 9.864 9.24 0 5.52-3.48 9.96-8.32 9.96-1.62 0-3.14-0.84-3.68-1.84l-1 3.8c-0.36 1.396-1.34 3.14-2 4.2 1.5 0.46 3.080 0.714 4.74 0.714 8.82 0 16-7.16 16-16s-7.18-16-16-16z"></path>
</svg>
