<!-- Generated by IcoMoon.io -->
<svg version="1.1" xmlns="http://www.w3.org/2000/svg" width="32" height="32" viewBox="0 0 32 32">
<title>brand112</title>
<path fill="#0071ce" d="M20.46 16.674l3.16 4.176c0.264 0.346 0.28 0.92 0.034 1.28l-0.16 0.236c-0.24 0.36-0.732 0.86-1.086 1.108l-0.38 0.268c-0.354 0.26-0.928 0.26-1.274-0.020l-4.18-3.16c-0.34-0.26-0.908-0.26-1.254 0l-4.18 3.16c-0.344 0.28-0.92 0.28-1.276 0.040l-0.276-0.18c-0.36-0.24-0.854-0.74-1.1-1.080l-0.24-0.34c-0.248-0.36-0.24-0.92 0.024-1.28l3.168-4.2c0.26-0.34 0.26-0.9 0-1.26l-3.176-4.182c-0.26-0.35-0.272-0.92-0.020-1.276l0.268-0.38c0.248-0.352 0.746-0.84 1.104-1.086l0.234-0.16c0.36-0.26 0.936-0.24 1.28 0.020l4.18 3.16c0.346 0.26 0.912 0.26 1.256 0l4.18-3.18c0.344-0.26 0.932-0.3 1.306-0.080l0.44 0.26c0.374 0.22 0.852 0.7 1.060 1.080l0.16 0.28c0.206 0.38 0.164 0.96-0.1 1.32l-3.16 4.18c-0.26 0.34-0.26 0.9 0 1.26zM16 0c-8.84 0-16 7.164-16 16s7.16 16 16 16c8.836 0 16-7.164 16-16s-7.164-16-16-16z"></path>
</svg>
