<!-- Generated by IcoMoon.io -->
<svg version="1.1" xmlns="http://www.w3.org/2000/svg" width="32" height="32" viewBox="0 0 32 32">
<title>brand248</title>
<path fill="#2eace3" d="M27.85 19.306c-1.976 0.56-3.32 1.716-3.32 3.62v5.44c0 4.066-3.876 3.62-8.688 3.62h-0.74c-0.3 0-0.48-0.112-0.48-0.374v-1.864c0-0.26 0.16-0.374 0.46-0.374h0.6c2.88 0 4.9 0.634 4.9-1.68v-5.22c0-1.6 1.12-3.84 3.36-4.66 0.16-0.040 0.18-0.112 0.18-0.186s-0.040-0.186-0.18-0.26c-2.040-0.934-3.36-2.46-3.36-4.29v-5.898c0-2.276-2-4.55-4.88-4.55h-0.6c-0.3 0-0.44-0.112-0.44-0.372v-1.858c0-0.26 0.2-0.374 0.5-0.374h0.74c4.8 0 8.72 3.43 8.72 7.494v4.96c0 1.88 1.34 2.96 3.36 3.66 0.74 0.22 1.16 0.26 1.16 0.86v1.56c0.040 0.34-0.32 0.5-1.22 0.76zM10.82 31.96h-7.454c-0.3 0-0.448-0.074-0.448-0.336v-31.252c0-0.22 0.14-0.372 0.44-0.372h7.38c0.3 0 0.48 0.112 0.48 0.372v1.94c0 0.26-0.16 0.336-0.46 0.336h-3.298c-0.406 0-0.56 0.148-0.56 0.41v25.88c0 0.26 0.154 0.36 0.49 0.36h3.356c0.3 0 0.484 0.1 0.484 0.34v1.98c0.040 0.22-0.112 0.34-0.41 0.34zM17.32 14.58h-1.98c-0.484 0-0.856-0.374-0.856-0.786v-1.79c0-0.446 0.41-0.78 0.856-0.78h1.98c0.48 0 0.856 0.37 0.856 0.78v1.79c0 0.448-0.412 0.784-0.86 0.784z"></path>
</svg>
