
<svg version="1.1" xmlns="http://www.w3.org/2000/svg" width="32" height="32" viewBox="0 0 32 32">
<title>brand229</title>
<path fill="#f30" d="M1.546 16.26c-0.068 0-0.124 0.060-0.134 0.132l-0.312 2.874 0.312 2.81c0.010 0.076 0.066 0.13 0.134 0.13 0.066 0 0.12-0.054 0.132-0.13l0.34-2.81-0.36-2.874c0-0.076-0.060-0.132-0.12-0.132zM0.338 17.364c-0.080 0-0.12 0.050-0.14 0.124l-0.22 1.78 0.22 1.744c0 0.074 0.060 0.126 0.12 0.126s0.12-0.060 0.14-0.14l0.28-1.76-0.28-1.78c0-0.080-0.060-0.12-0.12-0.12zM2.778 15.698c-0.080 0-0.16 0.060-0.16 0.14l-0.28 3.42 0.3 3.28c0 0.080 0.060 0.16 0.16 0.16 0.080 0 0.14-0.080 0.16-0.16l0.34-3.3-0.34-3.4c-0.020-0.080-0.080-0.16-0.16-0.16zM4.058 15.558c-0.1 0-0.18 0.080-0.2 0.18l-0.258 3.522 0.28 3.394c0.020 0.104 0.1 0.184 0.2 0.184s0.18-0.080 0.2-0.2l0.32-3.38-0.32-3.5c0-0.1-0.080-0.18-0.18-0.18zM5.6 16.038c-0.006-0.12-0.1-0.2-0.212-0.2-0.12 0-0.212 0.080-0.22 0.2l-0.288 3.242 0.266 3.42c0 0.12 0.1 0.21 0.212 0.21 0.1 0 0.2-0.092 0.2-0.212l0.3-3.42-0.3-3.26zM6.68 13.758c-0.134 0-0.24 0.12-0.24 0.24l-0.28 5.28 0.248 3.42c0 0.12 0.108 0.22 0.24 0.22 0.126 0 0.232-0.12 0.24-0.24l0.28-3.42-0.28-5.3c-0.010-0.14-0.116-0.24-0.24-0.24zM7.928 12.498c-0.14 0-0.26 0.12-0.27 0.26l-0.24 6.5 0.22 3.4c0 0.16 0.12 0.28 0.26 0.28s0.26-0.12 0.28-0.28l0.26-3.4-0.26-6.48c-0.020-0.16-0.14-0.28-0.28-0.28zM9.218 11.898c-0.16 0-0.28 0.12-0.3 0.28l-0.22 7.040 0.22 3.36c0.020 0.16 0.14 0.3 0.3 0.3s0.3-0.14 0.3-0.3l0.26-3.36-0.26-7.040c0-0.16-0.14-0.3-0.3-0.3zM10.878 11.938c0-0.18-0.14-0.32-0.32-0.32-0.16 0-0.32 0.14-0.32 0.32l-0.2 7.26 0.2 3.34c0.020 0.18 0.16 0.32 0.34 0.32s0.32-0.14 0.32-0.32l0.22-3.34-0.22-7.28zM11.878 11.758c-0.18 0-0.34 0.16-0.34 0.34l-0.2 7.1 0.2 3.3c0 0.2 0.16 0.34 0.34 0.34s0.34-0.16 0.34-0.36l0.2-3.3-0.22-7.080c0-0.2-0.16-0.36-0.36-0.36zM13.178 11.958c-0.22 0-0.38 0.18-0.38 0.38l-0.138 6.862 0.18 3.3c0 0.2 0.16 0.37 0.38 0.37 0.2 0 0.36-0.16 0.38-0.38l0.16-3.26-0.18-6.82c-0.016-0.22-0.18-0.38-0.38-0.38zM14.78 10.77c-0.060-0.040-0.14-0.060-0.22-0.060s-0.16 0.020-0.22 0.060c-0.12 0.072-0.2 0.2-0.2 0.34v0.080l-0.14 8.070 0.154 3.268v0.010c0.010 0.080 0.040 0.18 0.1 0.24 0.076 0.080 0.188 0.14 0.312 0.14 0.108 0 0.21-0.060 0.28-0.12 0.076-0.080 0.12-0.18 0.12-0.3l0.020-0.32 0.156-2.94-0.18-8.12c0-0.14-0.080-0.26-0.18-0.32zM16.122 10.038c-0.060-0.060-0.12-0.080-0.2-0.080-0.1 0-0.2 0.020-0.28 0.080-0.1 0.080-0.16 0.2-0.16 0.32v0.040l-0.18 8.82 0.1 1.62 0.080 1.58c0 0.22 0.2 0.42 0.44 0.42s0.44-0.2 0.44-0.44l0.2-3.22-0.2-8.856c0-0.16-0.1-0.294-0.22-0.37zM28.062 14.992c-0.54 0-1.060 0.114-1.52 0.31-0.32-3.54-3.28-6.32-6.92-6.32-0.88 0-1.74 0.18-2.52 0.48-0.3 0.12-0.36 0.24-0.38 0.48v12.5c0.020 0.24 0.2 0.44 0.44 0.46h10.92c2.16 0.020 3.92-1.72 3.92-3.9s-1.76-3.94-3.92-3.94z"></path>
</svg>
