
<svg version="1.1" xmlns="http://www.w3.org/2000/svg" width="32" height="32" viewBox="0 0 32 32">
<title>brand89</title>
<path fill="#fbbf00" d="M21.96 28.53c0 1.614-1.304 2.92-2.914 2.92-1.612 0-2.92-1.306-2.92-2.92 0-1.61 1.308-2.916 2.92-2.916 1.61 0 2.916 1.306 2.916 2.916zM15.748 28.304l-6.84 1.6s-0.38 0.106-0.516-0.284c-0.080-0.236 0.12-0.524 0.12-0.524l6.868-11.216s0.35-0.53 1.014-0.724c0.55-0.16 1.148 0.212 1.148 0.212l11 6.92s0.48 0.194 0.46 0.576c-0.020 0.386-0.44 0.452-0.44 0.452l-6.64 1.552c-0.56-0.98-1.62-1.64-2.84-1.64-1.74 0-3.18 1.36-3.3 3.076zM5.52 9.61l1.994-6.932s0.094-0.4 0.5-0.32c0.246 0.040 0.4 0.36 0.4 0.36l6.44 11.46s0.292 0.56 0.14 1.24c-0.13 0.56-0.748 0.9-0.748 0.9l-11.406 6.222s-0.404 0.32-0.72 0.11c-0.32-0.214-0.18-0.61-0.18-0.61l1.94-6.74c1.55-0.272 2.728-1.626 2.728-3.254 0-0.972-0.42-1.84-1.088-2.45zM6.22 12.060c0 1.612-1.304 2.92-2.916 2.92-1.61 0-2.92-1.308-2.92-2.92 0-1.61 1.31-2.916 2.92-2.916 1.612 0 2.92 1.306 2.92 2.916zM26.86 9.774l5.020 5.506s0.276 0.28 0.004 0.586c-0.166 0.186-0.52 0.148-0.52 0.148l-13.14-0.52s-0.63-0.046-1.124-0.53c-0.408-0.4-0.372-1.104-0.372-1.104l0.672-12.98s-0.066-0.512 0.28-0.672c0.354-0.16 0.614 0.17 0.614 0.17l4.372 4.78c-0.246 0.46-0.386 0.98-0.386 1.54 0 1.82 1.48 3.3 3.306 3.3 0.45 0 0.88-0.1 1.27-0.26zM28.506 6.722c0 1.62-1.3 2.92-2.914 2.92-1.612 0-2.92-1.3-2.92-2.92 0-1.6 1.308-2.9 2.92-2.9s2.916 1.32 2.916 2.92z"></path>
</svg>
