<!-- Generated by IcoMoon.io -->
<svg version="1.1" xmlns="http://www.w3.org/2000/svg" width="32" height="32" viewBox="0 0 32 32">
<title>brand176</title>
<path fill="#f56c2d" d="M16.784 4.146c1.678 0.105 3.23 0.546 4.623 1.257 1.348 0.683 2.545 1.62 3.53 2.747 1.012 1.168 1.776 2.484 2.298 3.964s0.73 3.038 0.62 4.67c-0.044 0.848-0.18 1.67-0.408 2.464-0.253 0.873-0.558 1.626-0.931 2.339-0.555 1.063-1.207 2.135-1.927 3.147-0.718 1.012-1.5 1.954-2.35 2.826-0.85 0.87-1.752 1.67-2.71 2.4-0.958 0.728-1.96 1.386-3.004 1.974l-0.050 0.034c-0.037 0.021-0.081 0.033-0.128 0.033-0.006 0-0.013-0-0.019-0.001-0.085-0.020-0.157-0.066-0.211-0.129-0.052-0.061-0.083-0.139-0.083-0.224 0-0.002 0-0.004 0-0.007s-0-0.005-0-0.007c0-0.038 0.006-0.075 0.017-0.109 0.010-0.029 0.027-0.056 0.049-0.077 0.37-0.524 0.674-1.074 0.914-1.65s0.402-1.18 0.49-1.812c-0-0.045-0.019-0.086-0.050-0.114-0.029-0.031-0.069-0.050-0.114-0.050-0.305 0.041-0.671 0.070-1.043 0.082-0.084 0.003-0.161 0.004-0.239 0.004-0.296 0-0.588-0.019-0.874-0.055-1.644-0.101-3.196-0.543-4.589-1.253-1.348-0.683-2.545-1.62-3.53-2.747-0.982-1.128-1.759-2.441-2.271-3.879-0.439-1.224-0.677-2.54-0.677-3.911 0-0.297 0.011-0.591 0.033-0.883 0.042-0.809 0.178-1.631 0.406-2.425 0.228-0.796 0.528-1.54 0.9-2.238 0.586-1.154 1.24-2.236 1.958-3.248s1.5-1.954 2.35-2.826c0.85-0.87 1.752-1.67 2.71-2.4 0.96-0.728 1.96-1.386 3.004-1.974l0.050-0.034c0.037-0.021 0.081-0.033 0.128-0.033 0.006 0 0.013 0 0.019 0.001 0.087 0.020 0.159 0.066 0.211 0.13 0.056 0.066 0.082 0.142 0.082 0.23 0 0.002 0 0.005 0 0.008 0 0.038-0.006 0.075-0.017 0.109-0.009 0.029-0.026 0.056-0.047 0.077-0.343 0.476-0.65 1.019-0.895 1.595-0.261 0.631-0.421 1.235-0.509 1.867 0 0.044 0.016 0.082 0.048 0.114 0.028 0.031 0.069 0.050 0.114 0.050 0.348-0.044 0.702-0.072 1.060-0.082 0.36-0.010 0.714 0.006 1.062 0.048zM15.708 20.636c0.113 0.010 0.244 0.016 0.376 0.016 1.152 0 2.201-0.44 2.989-1.161 0.957-0.847 1.477-1.913 1.565-3.197 0.010-0.112 0.016-0.243 0.016-0.375 0-1.158-0.44-2.214-1.161-3.009-0.776-0.911-1.913-1.501-3.189-1.546-0.12-0.010-0.25-0.016-0.382-0.016-1.158 0-2.214 0.44-3.009 1.161-0.912 0.775-1.502 1.913-1.548 3.189-0.010 0.121-0.016 0.253-0.016 0.386 0 1.155 0.434 2.208 1.148 3.006 0.834 0.964 1.906 1.482 3.212 1.546z"></path>
</svg>
