<!-- Generated by IcoMoon.io -->
<svg version="1.1" xmlns="http://www.w3.org/2000/svg" width="32" height="32" viewBox="0 0 32 32">
<title>brand238</title>
<path d="M4.152 23.928c-0.040-0.284-0.028-0.952-0.028-0.952h-0.384c-0.884 0-1.228-0.356-1.228-1.24v-3.516c0-1.588-0.372-1.976-1.116-2.22v-0.080c0.744-0.244 1.116-0.65 1.116-2.236v-3.504c0-0.884 0.344-1.16 1.226-1.16h0.38s0.020-0.612 0.060-0.966c-0.18-0.024-0.88-0.040-0.88-0.040-1.78 0-2.28 0.86-2.28 2.64v3.19c0 1.304-0.76 1.48-1.040 1.48v1.268c0.28 0 1.020 0.176 1.020 1.46v3.21c0 1.78 0.5 2.62 2.28 2.62 0 0 0.7 0.060 0.84 0.060z"></path>
<path d="M3.070 16.788c0.652 0 1.58 0.224 1.58 1.864v4.088c0 2.266 0.544 3.4 2.812 3.4h1.020v-1.21h-0.52c-1.12 0-1.54-0.466-1.54-1.588v-4.482c0-2.020-0.64-2.514-1.76-2.828v-0.092c1.12-0.316 1.78-0.832 1.78-2.852v-4.472c0-1.12 0.42-1.454 1.54-1.454h0.52v-1.3h-1c-2.26 0-2.8 1.1-2.8 3.36v4.080c0 1.66-0.92 1.9-1.58 1.9v1.6zM18.396 21.988c0.62-0.174 1.14-0.426 1.57-0.754 0.428-0.328 0.76-0.73 1-1.204 0.234-0.474 0.354-1 0.354-1.58 0-0.506-0.088-0.94-0.264-1.3s-0.46-0.674-0.848-0.95c-0.392-0.274-0.888-0.52-1.492-0.734s-1.334-0.428-2.19-0.64c-0.92-0.232-1.556-0.44-1.914-0.62-0.36-0.186-0.54-0.484-0.54-0.896 0-0.474 0.188-0.82 0.564-1.032 0.374-0.22 0.836-0.32 1.388-0.32 0.596 0 1.192 0.080 1.788 0.28 0.596 0.18 1.23 0.5 1.904 0.92l1.26-1.9c-0.734-0.46-1.526-0.82-2.374-1.1-0.84-0.28-1.7-0.4-2.54-0.4-0.68 0-1.32 0.080-1.9 0.26s-1.1 0.44-1.54 0.78c-0.44 0.34-0.78 0.76-1.020 1.24s-0.36 1.040-0.36 1.64c0 0.46 0.080 0.84 0.24 1.18s0.4 0.62 0.74 0.88c0.34 0.26 0.78 0.48 1.34 0.68s1.22 0.4 2 0.58c1.040 0.24 1.76 0.46 2.2 0.68 0.44 0.2 0.66 0.52 0.66 0.94s-0.18 0.76-0.54 0.98c-0.36 0.22-0.88 0.34-1.52 0.34-1.42 0-2.9-0.5-4.42-1.5l-1.3 2.16c0.36 0.24 0.76 0.46 1.22 0.66s0.94 0.36 1.44 0.5 1.020 0.24 1.56 0.32c0.54 0.080 1.040 0.1 1.52 0.1 0.76 0 1.44-0.1 2.060-0.28zM28.352 9.020c0.88 0 1.136 0.276 1.136 1.16v3.5c0 1.586 0.28 1.992 1.396 2.24v0.068c-1.116 0.246-1.396 0.634-1.396 2.22v3.524c0 0.88-0.256 1.24-1.136 1.24h-0.388s-0.004 0.666-0.040 0.948c0.154 0 0.768-0.020 0.768-0.020 1.78 0 2.192-0.864 2.192-2.644v-3.2c0-1.286 0.744-1.46 1.116-1.46v-1.276c-0.372 0-1.116-0.176-1.116-1.48v-3.186c0-1.78-0.412-2.644-2.192-2.644 0 0-0.628 0.020-0.814 0.044 0.040 0.354 0.080 0.968 0.080 0.968h0.38z"></path>
<path d="M27.256 22.736v-4.086c0-1.64 0.93-1.864 1.58-1.864v-1.614c-0.65 0-1.58-0.224-1.58-1.886v-4.066c0-2.266-0.36-3.36-2.628-3.36h-1.094v1.3h0.6c1.12 0 1.448 0.334 1.448 1.456v4.468c0 2.020 0.56 2.536 1.68 2.85v0.090c-1.12 0.314-1.66 0.808-1.66 2.828v4.488c0 1.124-0.32 1.59-1.44 1.59h-0.6v1.21h1.1c2.28 0 2.64-1.136 2.64-3.404z"></path>
</svg>
