<!-- Generated by IcoMoon.io -->
<svg version="1.1" xmlns="http://www.w3.org/2000/svg" width="32" height="32" viewBox="0 0 32 32">
<title>brand</title>
<path fill="#0099e5" d="M28.016 26.6c-0.226-0.228-0.42-0.36-0.588-0.408-0.17-0.050-0.32-0.014-0.44 0.106l-0.112 0.1c-1.16 1.16-2.52 2.080-4.024 2.7-1.56 0.66-3.22 0.98-4.928 0.98-1.71 0-3.368-0.34-4.93-1-1.506-0.64-2.86-1.56-4.024-2.72-1.212-1.22-2.124-2.58-2.714-4.020-0.574-1.42-0.76-2.5-0.82-2.84l-0.016-0.080c-0.080-0.42-0.46-0.44-1.008-0.36-0.228 0.040-0.92 0.14-0.856 0.64v0.020c0.186 1.14 0.51 2.28 0.966 3.36 0.74 1.72 1.78 3.28 3.12 4.62s2.9 2.38 4.62 3.12c1.8 0.76 3.7 1.14 5.68 1.14 1.96 0 3.88-0.38 5.66-1.14 1.74-0.74 3.3-1.78 4.62-3.12l0.12-0.12c0.16-0.16 0.28-0.44-0.3-1.020zM17.9 3.42c-1.876 0-3.872 0.38-5.34 1.014-0.154 0.060-0.248 0.186-0.268 0.364-0.020 0.16 0.026 0.38 0.14 0.66 0.088 0.24 0.33 0.84 0.8 0.66 1.5-0.58 3.16-0.9 4.668-0.9 1.714 0 3.376 0.34 4.94 1 1.24 0.52 2.414 1.28 3.688 2.38 0.092 0.080 0.192 0.12 0.292 0.12 0.25 0 0.488-0.24 0.692-0.48 0.34-0.38 0.574-0.7 0.24-1.020-1.22-1.16-2.552-2.020-4.2-2.72-1.79-0.76-3.692-1.14-5.652-1.14zM15.344 19.3c0 0.212 0.196 0.4 0.312 0.51l0.036 0.036c0.2 0.196 0.388 0.296 0.56 0.296 0.148 0 0.236-0.060 0.268-0.1 0.088-0.080 1.080-1.080 1.172-1.18l1.104 1.1c0.104 0.12 0.214 0.18 0.344 0.18 0.176 0 0.368-0.1 0.572-0.3 0.476-0.48 0.24-0.74 0.12-0.88l-1.12-1.1 1.17-1.18c0.26-0.28 0.040-0.56-0.18-0.8-0.32-0.32-0.64-0.4-0.84-0.22l-1.16 1.16-1.16-1.16c-0.060-0.060-0.14-0.080-0.22-0.080-0.14 0-0.34 0.12-0.54 0.32-0.36 0.36-0.44 0.62-0.24 0.82l1.18 1.18-1.16 1.18c-0.1 0.1-0.14 0.2-0.14 0.3zM7.982 21.122c0 0.020 0.18 0.48 0.28 0.7 0.52 1.26 1.28 2.38 2.24 3.34s2.080 1.72 3.34 2.24c1.3 0.54 2.68 0.82 4.080 0.82 1.42 0 2.8-0.28 4.080-0.82 1.26-0.52 2.38-1.28 3.34-2.24s1.72-2.080 2.24-3.34c0.56-1.28 0.82-2.66 0.82-4.080 0-1.4-0.26-2.78-0.82-4.060-0.52-1.24-1.28-2.36-2.24-3.34-0.96-0.96-2.080-1.7-3.32-2.24-1.28-0.54-2.66-0.82-4.080-0.82s-2.86 0.28-4.12 0.82c-1.020 0.44-2.74 1.54-3.76 2.58v0.020-8.722h14.48c0.52-0.008 0.52-0.74 0.52-0.986 0-0.24 0-0.98-0.52-0.98h-15.782c-0.424 0-0.688 0.34-0.688 0.68v12.14c0 0.38 0.488 0.66 0.94 0.76 0.886 0.188 1.090-0.1 1.306-0.4l0.020-0.040c0.32-0.484 1.36-1.524 1.38-1.54 1.6-1.608 3.76-2.5 6.060-2.5 2.28 0 4.44 0.89 6.060 2.5 1.62 1.62 2.5 3.766 2.5 6.040 0 2.286-0.9 4.432-2.5 6.040-1.6 1.592-3.82 2.5-6.1 2.5-1.56 0-3.040-0.408-4.32-1.188v-7.386c0-0.98 0.42-2.040 1.14-2.86 0.82-0.92 1.94-1.42 3.16-1.42 1.18 0 2.3 0.45 3.12 1.27 0.82 0.816 1.26 1.9 1.26 3.056 0 2.46-1.94 4.38-4.42 4.38-0.48 0-1.36-0.214-1.38-0.22-0.5-0.152-0.72 0.54-0.78 0.772-0.28 0.88 0.14 1.040 0.22 1.080 0.8 0.24 1.32 0.28 2 0.28 3.5 0 6.34-2.84 6.34-6.34 0-3.48-2.84-6.3-6.34-6.3-1.72 0-3.32 0.64-4.52 1.84-1.16 1.12-1.82 2.64-1.82 4.12v6.080c-0.66-0.74-1.3-1.84-1.74-2.98-0.18-0.44-0.56-0.36-1.080-0.2-0.24 0.060-0.92 0.28-0.78 0.78z"></path>
</svg>
