<!-- Generated by IcoMoon.io -->
<svg version="1.1" xmlns="http://www.w3.org/2000/svg" width="32" height="32" viewBox="0 0 32 32">
<title>brand190</title>
<path fill="#e9443d" d="M15.012 31.988c-0.724-0.064-1.44-0.154-1.9-0.24-2.74-0.504-5.276-1.704-7.454-3.526-0.454-0.376-1.496-1.42-1.886-1.88-2.072-2.47-3.308-5.342-3.698-8.588-0.1-0.832-0.1-2.686 0-3.52 0.446-3.714 2.006-6.938 4.612-9.548 2.61-2.606 5.84-4.166 9.554-4.612 0.834-0.1 2.69-0.1 3.52 0 3.246 0.388 6.108 1.62 8.586 3.7 0.46 0.38 1.5 1.424 1.884 1.88 2.080 2.486 3.32 5.36 3.7 8.58 0.052 0.444 0.070 0.896 0.070 1.76 0 0.87-0.020 1.32-0.070 1.76-0.38 3.234-1.608 6.080-3.7 8.584-0.38 0.456-1.426 1.5-1.884 1.88-2.494 2.080-5.37 3.324-8.544 3.694-0.52 0.060-2.38 0.11-2.788 0.074zM12.42 28.074c0.74-0.128 1.52-0.44 2.16-0.866 0.364-0.244 1.154-1.020 1.38-1.36 0.45-0.668 0.746-1.508 0.8-2.26l0.012-0.14 0.614-0.026c2.444-0.108 4.536-0.83 6.348-2.186 2.152-1.612 3.464-3.71 3.844-6.15 0.1-0.63 0.1-2.014 0-2.64-0.31-1.976-1.256-3.76-2.76-5.206-1.796-1.726-3.98-2.746-6.526-3.050-0.72-0.086-2.132-0.086-2.866 0-1.87 0.22-3.488 0.8-4.944 1.768-2.396 1.592-3.872 3.76-4.31 6.32-0.128 0.748-0.146 1.704-0.132 6.64l0.016 4.846 0.090 0.396c0.484 2.16 2.328 3.728 4.672 3.98 0.396 0.040 1.164 0.010 1.6-0.066zM10.92 25.53c-1.196-0.192-2.1-1.020-2.24-2.040-0.026-0.216-0.036-1.932-0.026-5.38 0.014-4.954 0.020-5.068 0.1-5.494 0.116-0.604 0.286-1.106 0.564-1.66 0.32-0.65 0.68-1.136 1.26-1.724 1.404-1.406 3.060-2.2 5.126-2.454 0.506-0.064 1.828-0.064 2.314 0 0.206 0.024 0.594 0.090 0.864 0.144 2.52 0.508 4.786 2.272 5.72 4.46 0.55 1.288 0.6 2.996 0.136 4.394-0.56 1.676-1.99 3.23-3.816 4.14-0.734 0.37-1.48 0.61-2.43 0.786-0.414 0.080-0.628 0.086-2.384 0.104l-1.928 0.020v1.27c0 1.774-0.052 1.98-0.668 2.6-0.38 0.38-0.76 0.604-1.27 0.746-0.326 0.092-1.004 0.134-1.32 0.084zM17.67 15.966c1.788-0.494 2.46-2.334 1.32-3.596-0.84-0.93-2.254-1.19-3.404-0.626-0.7 0.344-1.18 0.88-1.344 1.512-0.046 0.18-0.060 0.5-0.060 1.526v1.3l1.594-0.014c1.47-0.014 1.616-0.020 1.894-0.1z"></path>
</svg>
