
<svg version="1.1" xmlns="http://www.w3.org/2000/svg" width="32" height="32" viewBox="0 0 32 32">
<title>brand262</title>
<path fill="#0079bf" d="M4 0h24c2.208 0 4 1.79 4 4v24c0 2.208-1.79 4-4 4h-24c-2.208 0-4-1.79-4-4v-24c0-2.208 1.79-4 4-4zM20 4.16c-1.060 0-1.92 0.86-1.92 1.92v10.16c0 1.060 0.86 1.92 1.92 1.92h5.92c1.060 0 1.92-0.86 1.92-1.92v-10.16c0-1.060-0.86-1.92-1.92-1.92h-5.92zM6.080 4.16c-1.060 0-1.92 0.86-1.92 1.92v18.16c0 1.060 0.86 1.92 1.92 1.92h5.92c1.060 0 1.92-0.86 1.92-1.92v-18.16c0-1.060-0.86-1.92-1.92-1.92h-5.92z"></path>
</svg>
