
<svg version="1.1" xmlns="http://www.w3.org/2000/svg" width="32" height="32" viewBox="0 0 32 32">
<title>brand269</title>
<path fill="#ff7102" d="M13.486 22.504c0.086-0.072 0.172-0.146 0.254-0.224-1.612 1.568-3.674 2.34-5.72 2.314h-0.032c-2.060-0.034-4.106-0.876-5.66-2.526-0.976-1.040-1.644-2.276-2.008-3.588v-0.008c-0.804-2.932-0.088-6.232 2.14-8.54 3.128-3.244 8.096-3.324 11.276-0.274l2.344 2.46 5.636 5.98h0.024c0.060 0.060 0.12 0.1 0.16 0.16 1.14 1.040 2.88 1 3.98-0.14 1.16-1.2 1.2-3.16 0.060-4.38-0.12-0.14-0.26-0.26-0.4-0.36l-0.32-0.22c-1.1-0.6-2.5-0.4-3.44 0.56-0.14 0.14-0.26 0.3-0.36 0.46-0.4 0.62-0.54 1.36-0.46 2.080l-2.020-2.038-2.34-2.22c0.38-0.752 0.876-1.46 1.486-2.092 0.14-0.14 0.28-0.28 0.424-0.408-0.086 0.072-0.172 0.146-0.254 0.224 1.612-1.568 3.674-2.34 5.72-2.314h0.032c2.060 0.034 4.106 0.876 5.66 2.526 0.976 1.040 1.644 2.276 2.008 3.59v0.008c0.806 2.93 0.090 6.234-2.14 8.54-3.128 3.244-8.096 3.324-11.276 0.274l-1.62-1.716-0.724-0.774-5.632-6-0.006-0.020c-0.020 0-0.020-0.020-0.020-0.020-0.060-0.060-0.12-0.12-0.16-0.18-1.14-1.040-2.88-1.020-3.98 0.14-1.16 1.2-1.2 3.16-0.060 4.36 0.12 0.14 0.26 0.24 0.4 0.36l0.32 0.2c1.1 0.58 2.5 0.4 3.44-0.58 0.14-0.14 0.26-0.3 0.36-0.46 0.4-0.62 0.54-1.38 0.46-2.1l2.020 2.080 2.342 2.362c-0.38 0.752-0.876 1.46-1.486 2.092-0.14 0.14-0.28 0.28-0.424 0.408z"></path>
</svg>
