<!-- Generated by IcoMoon.io -->
<svg version="1.1" xmlns="http://www.w3.org/2000/svg" width="32" height="32" viewBox="0 0 32 32">
<title>brand220</title>
<path fill="#258aaf" d="M3.294 14.044l2.36 2.25 7.464 6.854 3.2-3.054c0.28-0.396 0.26-0.94-0.060-1.314l-2.938-2.536 0.012-0.006-3.16-3.020c-0.372-0.42-0.36-1.040 0.028-1.44l8.52-8.1-3.86-3.678-11.56 10.984c-0.886 0.844-0.886 2.214 0 3.060zM28.704 17.96l-2.36-2.256-7.46-6.854-3.216 3.054c-0.294 0.4-0.274 0.94 0.060 1.314l2.94 2.52h-0.008l3.16 3.020c0.36 0.42 0.36 1.020-0.040 1.42l-8.52 8.1 3.88 3.722 11.56-10.984c0.886-0.844 0.888-2.212 0-3.060z"></path>
</svg>
