
<svg version="1.1" xmlns="http://www.w3.org/2000/svg" width="32" height="32" viewBox="0 0 32 32">
<title>brand174</title>
<path fill="#094ab2" d="M6.56 23.44c-0.666 0.406-1.412 0.61-2.24 0.61-1.226-0.040-2.24-0.46-3.050-1.268-0.81-0.802-1.23-1.822-1.27-3.042 0.020-1.15 0.388-2.126 1.106-2.924 0.72-0.8 1.632-1.264 2.744-1.4-0.040-0.236-0.056-0.488-0.056-0.754 0.040-1.52 0.56-2.78 1.56-3.76 1.004-0.98 2.266-1.5 3.788-1.54 0.96 0 1.82 0.22 2.58 0.68 0.64-1.020 1.46-1.86 2.48-2.48 1.040-0.62 2.2-0.94 3.48-0.96 1.72 0.040 3.18 0.58 4.42 1.62s2.020 2.38 2.34 4.040h-0.38c-0.62 0-1.16 0.080-1.64 0.26-0.64-0.68-1.38-1.2-2.22-1.56-0.82-0.36-1.72-0.52-2.68-0.52-0.88 0-1.72 0.14-2.52 0.44s-1.52 0.72-2.16 1.28c-0.56 0.48-1.020 1.020-1.4 1.64s-0.64 1.28-0.78 1.98c-0.48 0.1-0.94 0.24-1.36 0.42-0.68 0.32-1.26 0.76-1.72 1.34-0.44 0.5-0.78 1.080-1 1.74s-0.34 1.34-0.34 2.060c0 0.8 0.12 1.54 0.4 2.22zM29.024 18.446c2.1 0.52 3.090 1.76 2.966 3.708-0.124 1.95-1.26 3.048-3.408 3.294h-16.982c-2.806-0.37-4.184-1.82-4.136-4.35 0.046-2.54 1.472-3.94 4.28-4.18 0.368-2.72 1.756-4.4 4.16-5.040 2.408-0.66 4.456 0.080 6.15 2.24 0.58-0.48 1.314-0.68 2.2-0.62 0.892 0.060 1.646 0.24 2.264 0.58 0.8 0.42 1.44 1.020 1.86 1.78s0.64 1.62 0.64 2.56z"></path>
</svg>
