<!-- Generated by IcoMoon.io -->
<svg version="1.1" xmlns="http://www.w3.org/2000/svg" width="32" height="32" viewBox="0 0 32 32">
<title>brand54</title>
<path fill="#7289da" d="M26.974-0.004c1.872 0 3.386 1.516 3.476 3.3v28.7l-3.566-3.030-1.96-1.784-2.14-1.86 0.892 2.94h-18.72c-1.87 0-3.386-1.42-3.386-3.3v-21.662c0-1.78 1.516-3.3 3.39-3.3h22zM18.814 7.572h-0.040l-0.268 0.268c2.764 0.8 4.1 2.050 4.1 2.050-1.78-0.892-3.388-1.336-4.992-1.516-1.16-0.18-2.32-0.088-3.3 0h-0.264c-0.624 0-1.96 0.268-3.744 0.98-0.624 0.268-0.98 0.446-0.98 0.446s1.336-1.336 4.28-2.050l-0.18-0.18s-2.23-0.086-4.636 1.696c0 0-2.406 4.19-2.406 9.36 0 0 1.336 2.316 4.99 2.406 0 0 0.536-0.712 1.070-1.336-2.050-0.624-2.852-1.872-2.852-1.872s0.18 0.088 0.446 0.266h0.080c0.040 0 0.060 0.020 0.080 0.040v0.010c0.020 0.020 0.040 0.040 0.080 0.040 0.44 0.18 0.88 0.356 1.24 0.534 0.62 0.268 1.42 0.536 2.4 0.714 1.24 0.18 2.66 0.268 4.28 0 0.8-0.18 1.6-0.356 2.4-0.714 0.52-0.266 1.16-0.534 1.86-0.98 0 0-0.8 1.248-2.94 1.872 0.44 0.624 1.060 1.336 1.060 1.336 3.66-0.080 5.080-2.4 5.16-2.3 0-5.16-2.42-9.36-2.42-9.36-2.18-1.62-4.22-1.68-4.58-1.68zM19.040 13.456c0.936 0 1.694 0.8 1.694 1.78 0 0.986-0.76 1.784-1.694 1.784s-1.692-0.8-1.692-1.78c0-0.986 0.76-1.784 1.692-1.784zM12.98 13.456c0.934 0 1.692 0.8 1.692 1.78 0 0.986-0.76 1.784-1.692 1.784-0.936 0-1.694-0.8-1.694-1.78 0-0.986 0.76-1.784 1.694-1.784z"></path>
</svg>
