<!-- Generated by IcoMoon.io -->
<svg version="1.1" xmlns="http://www.w3.org/2000/svg" width="32" height="32" viewBox="0 0 32 32">
<title>brand61</title>
<path fill="#0678be" d="M27.3 4.7c-3.020-3.026-7.032-4.7-11.3-4.7-8.814 0-16 7.186-16 16s7.186 16 16 16 16-7.186 16-16c0-4.266-1.676-8.28-4.7-11.3zM16 26.384c-4.826 0-8.76-3.936-8.76-8.76 0-4.090 2.74-6.832 5.154-9.246 1.6-1.6 3.15-3.16 3.606-4.88 0.46 1.72 1.98 3.26 3.606 4.86 2.414 2.422 5.154 5.162 5.154 9.242 0 4.82-3.932 8.76-8.76 8.76z"></path>
</svg>
