<!-- Generated by IcoMoon.io -->
<svg version="1.1" xmlns="http://www.w3.org/2000/svg" width="32" height="32" viewBox="0 0 32 32">
<title>brand193</title>
<path fill="#ef145f" d="M29.21 7.016c-0.97-1.448-2.58-3.1-4.2-4.172-3.364-2.304-7.26-3.12-10.706-2.764-3.594 0.388-6.67 1.74-9.2 4-2.344 2.092-3.892 4.65-4.574 7.092-0.688 2.44-0.596 4.7-0.35 6.4 0.26 1.726 1.12 3.9 1.12 3.9 0.176 0.416 0.42 0.586 0.546 0.656 0.628 0.344 1.66 0.040 2.452-0.848 0.040-0.054 0.060-0.13 0.040-0.194-0.22-0.852-0.3-1.492-0.38-1.988-0.18-0.98-0.26-2.62-0.14-4.14 0.060-0.82 0.22-1.7 0.5-2.62 0.54-1.82 1.68-3.72 3.46-5.3 1.92-1.7 4.38-2.75 6.72-3.020 0.82-0.1 2.38-0.194 4.26 0.27 0.4 0.1 2.12 0.548 3.96 1.794 1.34 0.91 2.42 2.034 3.16 3.146 0.76 1.060 1.58 2.85 1.82 4.16 0.34 1.492 0.34 3.072 0.1 4.612-0.3 1.54-0.84 3.040-1.68 4.36-0.58 1.020-1.78 2.374-3.2 3.388-1.28 0.9-2.74 1.55-4.24 1.908-0.76 0.18-1.52 0.294-2.3 0.32-0.694 0.020-1.614 0-2.26-0.108-0.96-0.152-1.16-0.4-1.38-0.732 0 0-0.152-0.24-0.196-0.88 0.014-5.866 0.012-4.3 0.012-7.344 0-0.86-0.030-1.64-0.020-2.348 0.040-1.164 0.14-1.96 0.97-2.828 0.6-0.636 1.44-1.020 2.366-1.020 0.28 0 1.248 0.012 2.1 0.72 0.912 0.76 1.064 1.8 1.1 2.080 0.208 1.628-0.868 2.84-1.28 3.148-0.512 0.384-0.97 0.57-1.28 0.68-0.66 0.22-1.386 0.284-2.040 0.24-0.1-0.006-0.19 0.060-0.21 0.16l-0.22 1.14c-0.214 0.866 0.268 1.18 0.546 1.292 0.894 0.276 1.686 0.39 2.624 0.32 1.44-0.1 2.86-0.666 4.064-1.79 1.024-0.976 1.61-2.176 1.81-3.52 0.2-1.494-0.060-3.1-0.74-4.46-0.748-1.5-2.040-2.754-3.74-3.44-1.72-0.676-3.088-0.7-4.85-0.25l-0.020 0.006c-1.146 0.394-2.128 0.88-3.146 1.934-0.7 0.726-1.272 1.606-1.62 2.6-0.346 1-0.44 1.746-0.456 2.908-0.020 0.86 0.020 1.66 0.020 2.406v4.928c0 1.576-0.054 1.85 0 2.66 0.030 0.54 0.104 1.148 0.34 1.8 0.24 0.72 0.75 1.46 1.1 1.8 0.488 0.52 1.11 0.94 1.72 1.2 1.4 0.62 3.3 0.72 4.84 0.66 1.020-0.040 2.046-0.18 3.052-0.42 2.010-0.48 3.94-1.346 5.64-2.552 1.82-1.284 3.4-3.034 4.274-4.52 1.12-1.764 1.844-3.746 2.22-5.78 0.34-2.040 0.324-4.132-0.13-6.14-0.36-1.866-1.32-3.91-2.428-5.56z"></path>
</svg>
