
<svg version="1.1" xmlns="http://www.w3.org/2000/svg" width="32" height="32" viewBox="0 0 32 32">
<title>brand120</title>
<path fill="#c00" d="M10.764 32c-0.464 0-0.92-0.084-1.36-0.252-1.834-0.7-2.804-2.692-2.3-4.536l-0.020-0.010 0.12-0.3 9.328-24.222c0.14-0.36 0.074-1.214 0.008-1.69-0.020-0.112-0.020-0.214 0.010-0.32l0.010-0.030 0.008-0.020v-0.010l0.012-0.024c0.144-0.39 0.6-0.586 1.346-0.586 0.896 0 2.134 0.28 3.4 0.764 1.064 0.41 2.032 0.92 2.712 1.434 0.8 0.6 1.12 1.14 0.94 1.6l-0.040 0.060-0.020 0.020c-0.060 0.080-0.12 0.16-0.2 0.22-0.42 0.36-1.020 0.98-1.12 1.26l-9.418 24.562-0.020-0.008c-0.66 1.264-1.944 2.074-3.39 2.080h-0.010zM7.848 27.044l-0.028 0.066c-0.596 1.6 0.216 3.408 1.82 4.024 0.36 0.14 0.734 0.204 1.116 0.204 1.294 0 2.44-0.78 2.916-2l0.036-0.080 9.28-24.12c0.194-0.52 1.12-1.36 1.304-1.52l0.020-0.020c0.016-0.020 0.026-0.020 0.026-0.040 0-0.080-0.080-0.36-0.74-0.86-0.64-0.48-1.54-0.96-2.54-1.34-1.158-0.438-2.358-0.718-3.158-0.718-0.52 0-0.7 0.108-0.726 0.168v0.052c0.020 0.14 0.196 1.38-0.046 2.020l-9.28 24.16zM19.78 11.7s-1.284 1.48-2.456 2.012c-1.174 0.532-2.040 0.392-3.094 1.008-1.052 0.614-1.584 1.47-1.584 1.47l-4.286 11.15c-0.464 1.26 0.224 2.732 1.5 3.226 1.28 0.494 2.72-0.16 3.216-1.408l6.704-17.458zM13.206 25.014c0.14-0.056 0.3 0 0.354 0.14 0.056 0.14 0 0.296-0.14 0.352s-0.3 0-0.354-0.14c-0.056-0.13 0-0.288 0.14-0.352zM11.854 22.61c-0.204 0.092-0.446 0-0.53-0.206-0.094-0.204 0-0.446 0.204-0.53 0.206-0.094 0.448 0 0.532 0.204 0.1 0.2 0.010 0.42-0.206 0.52zM12.234 21.15c-0.164-0.384 0-0.832 0.384-1.010 0.38-0.166 0.82 0 1 0.38 0.16 0.384 0 0.832-0.38 1.008-0.4 0.168-0.84 0-1.020-0.38zM15.47 18.14c0.204-0.1 0.446 0 0.53 0.2 0.094 0.206 0 0.448-0.204 0.532-0.206 0.094-0.448 0-0.532-0.206-0.1-0.204 0-0.446 0.206-0.53zM13.746 16.3c0.14-0.056 0.3 0 0.354 0.14 0.056 0.14 0 0.3-0.14 0.354-0.14 0.056-0.3 0-0.354-0.14-0.056-0.14 0.010-0.3 0.14-0.354zM18.24 1.52c0.132-0.348 1.324-0.216 2.66 0.3 1.332 0.512 2.306 1.212 2.172 1.56-0.136 0.352-1.328 0.22-2.66-0.292-1.34-0.514-2.312-1.214-2.176-1.568z"></path>
</svg>
