<!-- Generated by IcoMoon.io -->
<svg version="1.1" xmlns="http://www.w3.org/2000/svg" width="32" height="32" viewBox="0 0 32 32">
<title>brand227</title>
<path fill="#fffc00" d="M16.31 0.96c1.324 0 5.806 0.37 7.92 5.104 0.708 1.594 0.54 4.3 0.4 6.474l-0.004 0.080c-0.016 0.24-0.030 0.46-0.040 0.68 0.1 0.060 0.27 0.12 0.536 0.12 0.4-0.020 0.88-0.16 1.38-0.4 0.22-0.12 0.46-0.14 0.62-0.14 0.24 0 0.48 0.040 0.68 0.12 0.6 0.2 0.98 0.64 0.98 1.12 0.020 0.6-0.52 1.12-1.62 1.56-0.12 0.040-0.28 0.1-0.46 0.16-0.6 0.18-1.52 0.48-1.78 1.080-0.12 0.3-0.080 0.7 0.16 1.16l0.020 0.020c0.080 0.18 2.040 4.64 6.4 5.36 0.34 0.060 0.58 0.36 0.56 0.68 0 0.1-0.020 0.2-0.060 0.3-0.32 0.76-1.7 1.32-4.2 1.7-0.080 0.12-0.16 0.5-0.22 0.76-0.040 0.24-0.1 0.48-0.18 0.74-0.1 0.36-0.36 0.54-0.74 0.54h-0.040c-0.18 0-0.42-0.040-0.72-0.1-0.48-0.1-1.020-0.18-1.7-0.18-0.4 0-0.8 0.020-1.22 0.1-0.8 0.14-1.5 0.62-2.3 1.18-1.14 0.8-2.44 1.72-4.4 1.72-0.080 0-0.16-0.020-0.24-0.020h-0.2c-1.96 0-3.24-0.9-4.38-1.72-0.8-0.56-1.48-1.040-2.28-1.18-0.42-0.060-0.84-0.1-1.24-0.1-0.72 0-1.28 0.12-1.7 0.2-0.28 0.060-0.52 0.1-0.72 0.1-0.5 0-0.7-0.3-0.78-0.56s-0.12-0.52-0.18-0.76-0.14-0.66-0.22-0.76c-2.562-0.298-3.942-0.858-4.262-1.638-0.040-0.084-0.068-0.2-0.072-0.3-0.020-0.324 0.22-0.62 0.56-0.68 4.36-0.72 6.32-5.18 6.4-5.368l0.020-0.040c0.24-0.46 0.3-0.86 0.16-1.16-0.26-0.58-1.18-0.88-1.78-1.080-0.16-0.040-0.32-0.1-0.46-0.16-1.48-0.58-1.68-1.24-1.6-1.7 0.12-0.64 0.9-1.060 1.56-1.060 0.194 0 0.36 0.040 0.512 0.1 0.56 0.26 1.054 0.4 1.474 0.4 0.312 0 0.512-0.080 0.62-0.14l-0.060-0.76c-0.13-2.172-0.3-4.876 0.41-6.46 2.056-4.712 6.526-5.072 7.846-5.072l0.56-0.020h0.080z"></path>
</svg>
