<!-- Generated by IcoMoon.io -->
<svg version="1.1" xmlns="http://www.w3.org/2000/svg" width="32" height="32" viewBox="0 0 32 32">
<title>brand25</title>
<path fill="#f38936" d="M29.3 32h-26.6c-1.5 0-2.7-1.2-2.7-2.7v-26.6c0-1.5 1.2-2.7 2.7-2.7h26.7c1.4 0 2.6 1.2 2.6 2.7v26.6c0 1.5-1.2 2.7-2.7 2.7zM16 5.3h-4c-3.7 0-6.7 3-6.7 6.7v8c0 3.7 3 6.7 6.7 6.7h8c3.7 0 6.7-3 6.7-6.7v-5.3c0-0.8-0.6-1.4-1.4-1.4h-1.3c-0.7 0-1.3-0.6-1.3-1.3 0-3.7-3-6.7-6.7-6.7zM20.1 21.3h-8.1c-0.7 0-1.3-0.6-1.3-1.3s0.6-1.3 1.3-1.3h8.1c0.7 0 1.3 0.6 1.3 1.3s-0.6 1.3-1.3 1.3zM16.7 10.7c0.7 0 1.3 0.6 1.3 1.3s-0.6 1.3-1.3 1.3h-4.8c-0.7 0-1.3-0.6-1.3-1.3s0.6-1.3 1.3-1.3h4.8z"></path>
</svg>
