<!-- Generated by IcoMoon.io -->
<svg version="1.1" xmlns="http://www.w3.org/2000/svg" width="32" height="32" viewBox="0 0 32 32">
<title>brand256</title>
<path fill="#c5000b" d="M16 0c-8.836 0-16 7.16-16 16s7.164 16 16 16c8.84 0 16-7.16 16-16s-7.16-16-16-16zM16 24.206c-4.316 0-7.82-3.5-7.82-7.82 0-3.604 2.44-6.636 5.754-7.544v2.28c-2.106 0.818-3.594 2.878-3.594 5.278 0 3.126 2.534 5.66 5.66 5.66s5.66-2.534 5.66-5.66c0-2.4-1.488-4.446-3.592-5.272v-2.288c3.314 0.91 5.752 3.94 5.752 7.546 0 4.32-3.5 7.82-7.82 7.82zM14.88 17.374v-11.146h2.24v11.146h-2.24z"></path>
</svg>
