
<svg version="1.1" xmlns="http://www.w3.org/2000/svg" width="32" height="32" viewBox="0 0 32 32">
<title>brand13</title>
<path fill="#7d8084" d="M1.65 9.66v12.684c0 1.070 0.756 2.378 1.68 2.91l10.99 6.346c0.924 0.534 2.436 0.534 3.36 0l10.99-6.362c0.924-0.52 1.68-1.84 1.68-2.9v-12.68c0-1.070-0.756-2.376-1.68-2.91l-10.99-6.348c-0.924-0.534-2.436-0.534-3.36 0l-10.99 6.348c-0.924 0.532-1.68 1.842-1.68 2.912zM20.576 22.826l-0.916-1.846h-7.336l-0.9 1.846h-4.38l7.2-14.72c0.406-0.81 1.036-1.2 1.756-1.2s1.38 0.436 1.756 1.186l7.2 14.734h-4.38zM21.896 21.010l-5.896-11.99v3.3l3.36 6.904h-8.386l5.026-10.2v-1.652c-0.646 0.044-1.006 0.39-1.32 0.946l-6.86 13.98h3.288l-1.004-1.28 0.87-1.82 1.034 1.28h7.968l0.9 1.8h3.3l-2.28-1.32zM17.966 17.5l-1.966-4.066-1.966 4.066h3.932z"></path>
</svg>
