
<svg version="1.1" xmlns="http://www.w3.org/2000/svg" width="32" height="32" viewBox="0 0 32 32">
<title>brand162</title>
<path fill="#3abfe6" d="M7.42 3.604l4.6 4.98-3.246 6.396 6.854-1.228 3.12 7.528 13.252-17.38-24.58-0.296zM6.57 14.388l1.276-1.050-1.646 0.52-0.168-0.24 0.68-0.66-0.892 0.36c-3.404 1.322-5.82 4.622-5.82 8.482 0 2.6 1.096 4.94 2.844 6.596-0.75-1.32-1.18-2.846-1.18-4.474 0-3.82 2.412-7.22 5.754-8.56l0.42-1.020-1 0.44-0.28-0.38zM12.39 11.762l2.13-3.762 12.532-2.936-14.664 6.7z"></path>
</svg>
