
<svg version="1.1" xmlns="http://www.w3.org/2000/svg" width="32" height="32" viewBox="0 0 32 32">
<title>brand14</title>
<path fill="#2319dc" d="M5.76 16.864c3.48-0.748 3-4.91 2.9-5.82-0.17-1.4-1.82-3.85-4.056-3.654-2.816 0.25-3.224 4.32-3.224 4.32-0.384 1.88 0.908 5.9 4.38 5.154zM12.22 9.888c1.92 0 3.47-2.212 3.47-4.946 0-2.722-1.55-4.942-3.47-4.942s-3.48 2.208-3.48 4.94c0 2.736 1.56 4.948 3.48 4.948zM20.496 10.214c2.57 0.336 4.216-2.406 4.546-4.484 0.34-2.074-1.32-4.486-3.14-4.9-1.82-0.42-4.080 2.5-4.3 4.4-0.24 2.332 0.34 4.654 2.9 4.984zM30.682 13.704c0-0.994-0.82-3.99-3.88-3.99s-3.482 2.826-3.482 4.826c0 1.9 0.16 4.56 3.98 4.48 3.808-0.1 3.392-4.32 3.392-5.32zM26.8 22.42s-3.976-3.080-6.296-6.4c-3.15-4.9-7.62-2.906-9.112-0.42-1.492 2.508-3.812 4.080-4.14 4.5-0.334 0.41-4.8 2.82-3.808 7.226 0.992 4.4 4.474 4.32 4.474 4.32s2.56 0.248 5.54-0.416c2.98-0.664 5.54 0.16 5.54 0.16s6.94 2.334 8.86-2.154c1.9-4.49-1.080-6.82-1.080-6.82z"></path>
</svg>
