<!-- Generated by IcoMoon.io -->
<svg version="1.1" xmlns="http://www.w3.org/2000/svg" width="32" height="32" viewBox="0 0 32 32">
<title>brand24</title>
<path fill="#ee6123" d="M17.44 28.4c-1.796 0.032-3.106-0.546-3.186-2.114-0.030-0.59-0.020-1.216 0.008-1.596 0.18-2.292 1.78-3.94 3.38-4.26 1.98-0.394 3.28 0.508 3.28 3.084 0 1.74-0.48 4.834-3.46 4.886zM15.928 0c-8.82 0-15.928 7.076-15.928 16.33 0 4.8 2.566 9.434 6.176 12.22 0.694 0.536 1.52 0.486 2 0.026 0.396-0.386 0.364-1.32-0.38-1.974-2.886-2.52-4.88-6.36-4.88-10.2 0-6.88 6.12-12.68 13.012-12.68 8.388 0 12.874 6.82 12.874 12.6 0 3.54-1.72 7.8-4.84 10.52 0.020 0 0.66-1.26 0.66-3.72 0-4.18-2.64-6.46-5.72-6.46-2.22 0-3.56 0.8-4.46 1.54 0-1.7 0.060-4.88 0.060-4.88 0-2.1-0.72-3.78-3.3-3.82-1.48-0.020-2.58 0.66-3.26 2.2-0.24 0.58-0.16 1.22 0.34 1.5 0.4 0.24 1.080 0.060 1.4-0.38 0.22-0.28 0.34-0.34 0.54-0.32 0.32 0.040 0.34 0.54 0.34 0.88 0.020 0.26 0.26 3.88 0.12 13.18-0.020 2.56 2 5.5 6.82 5.5 2.080 0 3.68-0.58 6-1.9 3.54-2 8.56-6.44 8.56-13.96-0.062-9.462-7.662-16.202-16.122-16.202z"></path>
</svg>
