<!-- Generated by IcoMoon.io -->
<svg version="1.1" xmlns="http://www.w3.org/2000/svg" width="32" height="32" viewBox="0 0 32 32">
<title>brand264</title>
<path fill="#53b50a" d="M16 0c-5.080 0.028-8.36 3.44-8.36 8.594 0 4.268 2.784 7.92 4.37 13.466 0.91 3.18 1.4 7.068 1.654 9.94h4.672c0.256-2.872 0.744-6.76 1.654-9.94 1.586-5.548 4.37-9.2 4.37-13.466 0-5.154-3.28-8.566-8.36-8.594zM16.026 13.134c-2.112 0-3.826-1.714-3.826-3.824s1.714-3.824 3.826-3.824c2.114 0 3.826 1.712 3.826 3.824s-1.712 3.824-3.826 3.824z"></path>
</svg>
