
<svg version="1.1" xmlns="http://www.w3.org/2000/svg" width="32" height="32" viewBox="0 0 32 32">
<title>brand184</title>
<path fill="#fff000" d="M15.946 23.74l10.614-4.528-9.4 9.656c-0.166-1.756-0.576-3.48-1.214-5.126zM32 14.826c-6.8-0.314-13.61 0.552-20.116 2.56 1.366 1.43 2.508 3.056 3.38 4.828 5.39-3 12.86-6.83 16.736-7.374v-0.020zM15.234 15.192l0.276-0.080c2.050-0.612 4.066-1.352 6.030-2.208 1.99-0.78 3.86-1.84 5.546-3.156 1.792-1.426 3.14-3.332 3.888-5.496 0.16-0.356 0.28-0.732 0.354-1.116-2.7 3.68-13.388 4.064-13.388 4.064l2.52-2.312c-7.34 0.026-14.5 2.346-20.46 6.64 4.040 0.43 7.836 2.128 10.852 4.846 1.448-0.448 2.928-0.768 4.38-1.172v-0.008z"></path>
</svg>
