<!-- Generated by IcoMoon.io -->
<svg version="1.1" xmlns="http://www.w3.org/2000/svg" width="32" height="32" viewBox="0 0 32 32">
<title>brand45</title>
<path fill="#f43059" d="M0 22v-20.5c0-0.832 0.672-1.5 1.5-1.5h29c0.832 0 1.5 0.672 1.5 1.5v19.768c-0.9-0.55-1.956-0.826-3.16-0.826-1.68 0-2.952 0.4-3.82 1.2-0.864 0.8-1.3 1.78-1.3 2.98 0 1.3 0.45 2.26 1.346 2.88 0.53 0.38 1.486 0.72 2.87 1.020l1.406 0.32c0.84 0.18 1.44 0.4 1.82 0.62 0.38 0.24 0.58 0.58 0.58 1.020 0 0.76-0.38 1.28-1.16 1.54l-0.040 0.020h-2.96c-0.38-0.14-0.68-0.34-0.92-0.6-0.24-0.3-0.4-0.74-0.48-1.36h-2.66c0 0.76 0.14 1.4 0.44 1.98h-2.26c0.26-0.52 0.4-1.1 0.4-1.76 0-1.18-0.4-2.080-1.18-2.7-0.5-0.4-1.26-0.72-2.26-0.96l-2.3-0.54c-0.88-0.2-1.46-0.38-1.74-0.54-0.42-0.24-0.62-0.6-0.62-1.060 0-0.52 0.22-0.92 0.64-1.2 0.44-0.28 1-0.42 1.72-0.42 0.66 0 1.18 0.12 1.62 0.34 0.66 0.34 1 0.92 1.060 1.72h2.68c-0.040-1.4-0.56-2.48-1.54-3.22-1-0.74-2.18-1.12-3.58-1.12-1.68 0-2.94 0.4-3.82 1.18-0.86 0.78-1.3 1.78-1.3 2.96 0 1.3 0.44 2.26 1.34 2.88 0.54 0.36 1.5 0.7 2.88 1.020l1.4 0.32c0.82 0.18 1.42 0.38 1.82 0.62 0.38 0.24 0.58 0.58 0.58 1.020 0 0.76-0.4 1.26-1.18 1.54h-3c-0.38-0.14-0.7-0.34-0.92-0.62-0.24-0.3-0.42-0.76-0.5-1.36h-2.722c0 0.74 0.144 1.4 0.432 1.98h-2.8c0.44-0.7 0.74-1.5 0.888-2.4h-2.746c-0.188 0.68-0.42 1.2-0.704 1.54-0.348 0.44-0.804 0.72-1.368 0.86h-1.64c-0.6-0.14-1.12-0.48-1.54-1.020-0.62-0.74-0.92-1.86-0.92-3.34 0-1.5 0.3-2.64 0.88-3.46 0.6-0.82 1.38-1.22 2.4-1.22 1 0 1.74 0.28 2.26 0.86 0.28 0.32 0.52 0.8 0.7 1.44h2.778c-0.040-0.82-0.348-1.66-0.92-2.48-1.032-1.46-2.668-2.2-4.906-2.2-1.552 0-2.86 0.48-3.9 1.42zM32 26.872v-2.080h-0.69c-0.048-0.8-0.4-1.37-1.048-1.708-0.42-0.22-0.96-0.334-1.6-0.334-0.72 0-1.28 0.146-1.7 0.434s-0.64 0.692-0.64 1.208c0 0.476 0.22 0.83 0.64 1.066 0.28 0.14 0.86 0.34 1.74 0.54l2.3 0.54c0.4 0.080 0.74 0.2 1.060 0.3z"></path>
</svg>
