<!-- Generated by IcoMoon.io -->
<svg version="1.1" xmlns="http://www.w3.org/2000/svg" width="32" height="32" viewBox="0 0 32 32">
<title>brand118</title>
<path fill="#f36" d="M29.1 0c1.6 0 2.9 1.3 2.9 2.9v26.2c0 1.6-1.3 2.9-2.9 2.9h-26.2c-1.6 0-2.9-1.3-2.9-2.9v-26.2c0-1.6 1.3-2.9 2.9-2.9h26.2zM6.64 20.384c-0.114 0.488-0.172 1.016-0.172 1.446 0 1.696 0.92 2.82 2.876 2.82 1.62 0 2.936-0.96 3.88-2.514l-0.576 2.32h3.22l1.84-7.38c0.46-1.87 1.35-2.84 2.7-2.84 1.064 0 1.726 0.66 1.726 1.754 0 0.316-0.028 0.66-0.144 1.034l-0.948 3.392c-0.14 0.49-0.2 0.98-0.2 1.44 0 1.608 0.96 2.786 2.94 2.786 1.7 0 3.060-1.080 3.8-3.7l-1.26-0.48c-0.62 1.76-1.18 2.080-1.6 2.080s-0.66-0.28-0.66-0.86c0-0.26 0.060-0.54 0.14-0.88l0.92-3.3c0.24-0.78 0.32-1.46 0.32-2.1 0-2.46-1.5-3.76-3.3-3.76-1.7 0-3.42 1.54-4.28 3.14l0.64-2.88h-4.962l-0.692 2.498h2.3l-1.416 5.668c-1.112 2.468-3.152 2.508-3.412 2.452-0.42-0.096-0.69-0.256-0.69-0.804 0-0.314 0.060-0.768 0.2-1.314l2.16-8.54h-5.466l-0.69 2.538h2.272l-1.466 5.988zM10.694 10.068c1.064 0 1.956-0.834 1.956-1.926 0-1.080-0.892-1.92-1.956-1.92s-1.954 0.84-1.954 1.94 0.89 1.94 1.954 1.94z"></path>
</svg>
