
<svg version="1.1" xmlns="http://www.w3.org/2000/svg" width="32" height="32" viewBox="0 0 32 32">
<title>brand274</title>
<path fill="#6fda44" d="M24.748 17.548c-1.47 0-2.848-0.622-4.1-1.636l0.304-1.434 0.010-0.056c0.276-1.524 1.132-4.080 3.786-4.080 1.988 0 3.604 1.616 3.604 3.604 0 1.986-1.616 3.602-3.604 3.602zM24.748 6.694c-3.386 0-6.014 2.2-7.080 5.822-1.626-2.446-2.864-5.382-3.582-7.856h-3.648v9.484c-0.002 1.875-1.521 3.394-3.396 3.396-1.874-0.003-3.392-1.522-3.394-3.396v-9.484h-3.648v9.484c0 3.884 3.16 7.070 7.042 7.070 3.884 0 7.044-3.186 7.044-7.070v-1.588c0.706 1.476 1.576 2.972 2.632 4.294l-2.232 10.498h3.73l1.618-7.614c1.416 0.906 3.046 1.48 4.914 1.48 4 0 7.252-3.27 7.252-7.268 0-4-3.252-7.252-7.252-7.252z"></path>
</svg>
