
<svg version="1.1" xmlns="http://www.w3.org/2000/svg" width="32" height="32" viewBox="0 0 32 32">
<title>brand155</title>
<path fill="#ba141a" d="M32 20.024c-0.068 0.724-1.032 1.3-2.886 1.72-1.856 0.428-4.184 0.64-6.988 0.64-0.828 0-1.62-0.010-2.38-0.034v4.376c0.76 0.046 1.552 0.070 2.38 0.070 2.792-0.024 5.12-0.272 6.98-0.75 1.86-0.476 2.826-1.076 2.894-1.8v-4.22zM22.092 16.87c-0.804 0-1.6-0.020-2.38-0.068l0.036 4.46c0.76 0.020 1.55 0.040 2.38 0.040 2.8-0.020 5.13-0.26 6.986-0.74 1.854-0.46 2.82-1.060 2.886-1.78v-4.302c-0.068 0.724-1.036 1.304-2.904 1.74-1.866 0.44-4.2 0.66-7.004 0.66zM22.092 11.374c-0.804 0-1.6-0.024-2.38-0.070v4.446c0.78 0.046 1.576 0.070 2.38 0.070 2.8-0.024 5.14-0.27 7.004-0.74 1.868-0.472 2.836-1.070 2.904-1.794v-4.274c-0.068 0.724-1.036 1.3-2.904 1.724-1.866 0.424-4.2 0.64-7.004 0.64zM22.092 5.204c-0.804 0-1.6 0.034-2.38 0.104v4.928c0.78 0.046 1.576 0.068 2.38 0.068 2.8-0.020 5.14-0.266 7.004-0.732 1.868-0.464 2.836-1.066 2.904-1.8-0.068-0.724-1.036-1.328-2.904-1.81-1.866-0.48-4.2-0.72-7.004-0.74zM8.632 12.148c-0.044 0.264-0.228 1.1-0.55 2.5l-0.6 2.446 2.4 0.034-0.56-2.448c-0.34-1.424-0.56-2.28-0.6-2.52h-0.080zM0 4.204v23.68l18.060 3.116v-30l-18.060 3.204zM11.046 21.85l-0.672-2.67-3.326-0.12-0.64 2.514-2.12-0.14 3.226-11.3 2.464-0.14 3.52 11.994-2.46-0.14z"></path>
</svg>
