<!-- Generated by IcoMoon.io -->
<svg version="1.1" xmlns="http://www.w3.org/2000/svg" width="32" height="32" viewBox="0 0 32 32">
<title>brand213</title>
<path fill="#21b352" d="M30.9 1.090c-10.194-1.454-19.696-1.454-29.836 0-1.42 10.080-1.42 19.476 0 29.506 4.948 0.726 9.894 1.404 14.94 1.404 4.996 0 9.944-0.68 14.892-1.356 1.468-10.080 1.468-19.476 0-29.554zM15.516 25.51c-2.74 0-5.634-0.92-6.906-1.6l1.076-4.168c1.42 0.94 3.576 1.86 5.928 1.86 1.86 0 2.988-0.58 2.988-1.74 0-0.82-0.58-1.3-2.1-1.68l-3.040-0.84c-3.222-0.882-4.742-2.522-4.742-5.142 0-3.154 2.44-5.674 7.492-5.674 2.652 0 5.296 0.726 6.76 1.454l-1.268 3.97c-1.472-0.82-3.72-1.5-5.634-1.5-1.82 0-2.6 0.58-2.6 1.456 0 0.826 0.54 1.16 1.72 1.456l3.32 0.98c3.42 0.98 4.94 2.62 4.94 5.18-0.1 3.6-3.28 6.020-7.94 6.020z"></path>
</svg>
