
<svg version="1.1" xmlns="http://www.w3.org/2000/svg" width="32" height="32" viewBox="0 0 32 32">
<title>brand157</title>
<path fill="#80397b" d="M31.93 13.58v4.79c0 0.186-0.066 0.344-0.2 0.48-0.132 0.13-0.292 0.2-0.476 0.2h-1.040v-6.15h1.040c0.184 0 0.344 0.068 0.476 0.2 0.134 0.134 0.2 0.292 0.2 0.48zM31.254 19.76c0.184 0 0.344 0.066 0.476 0.2 0.134 0.132 0.2 0.292 0.2 0.476v4.81c0 0.186-0.066 0.344-0.2 0.48-0.132 0.13-0.292 0.196-0.476 0.196h-1.040v-6.162h1.040zM31.254 6.040c0.184 0 0.356 0.068 0.512 0.2 0.156 0.136 0.234 0.294 0.234 0.48v4.792c0 0.196-0.080 0.36-0.234 0.486-0.156 0.12-0.328 0.18-0.512 0.18h-1.72v14.78c0 0.18-0.068 0.32-0.208 0.44-0.14 0.1-0.3 0.16-0.486 0.16h-8.94v-3.020h6.944v-1.44h-6.944v-1.7h6.944v-1.36h-6.944v-1.74h6.944v-1.34h-6.944v-1.7h6.944v-1.34h-6.944v-1.74h6.944v-1.36h-6.944v-1.7h6.944v-1.42h-6.944v-3.378h9.184c0.020 0 0.1 0.060 0.224 0.18 0.128 0.126 0.204 0.28 0.226 0.46v1.080h1.72zM18.194 0.888v30.228l-18.194-3.14v-23.866l18.196-3.22zM13.004 9.848l-2.134 0.14v3.972c-0.024 2.326-0.024 3.67 0 4.028l-4.254-7.76-2.172 0.086v11.008l1.7 0.14v-8.122l4.586 8.352 2.274 0.14v-11.98z"></path>
</svg>
