
<svg version="1.1" xmlns="http://www.w3.org/2000/svg" width="32" height="32" viewBox="0 0 32 32">
<title>brand77</title>
<path fill="#060" d="M32 16.424c0 3.336-1.14 6.3-3.47 8.92-0.846 0.972-1.524 1.436-1.988 1.436-0.16 0-0.34-0.044-0.46-0.168-0.12-0.126-0.2-0.296-0.2-0.464 0-0.252 0.3-0.634 0.9-1.186 2.42-2.32 3.64-5.2 3.64-8.62 0-3.8-1.26-6.88-3.76-9.26-0.5-0.46-0.76-0.84-0.76-1.14 0-0.16 0.080-0.34 0.22-0.46s0.3-0.2 0.46-0.2c0.56 0 1.4 0.68 2.46 2.040 2 2.54 3 5.6 3 9.14zM0 15.576c0-3.336 1.14-6.3 3.47-8.92 0.846-0.972 1.524-1.436 1.988-1.436 0.16 0 0.34 0.044 0.46 0.168 0.12 0.126 0.2 0.252 0.2 0.42 0 0.25-0.3 0.634-0.9 1.224-2.378 2.328-3.618 5.2-3.618 8.628 0 3.8 1.268 6.886 3.766 9.26 0.508 0.46 0.76 0.844 0.76 1.14 0 0.168-0.080 0.34-0.214 0.464-0.132 0.124-0.3 0.212-0.47 0.212-0.58 0-1.38-0.68-2.44-2.026-2.022-2.496-3.002-5.54-3.002-9.134zM23.632 24.748h-14.666c-0.466 0-0.892-0.384-0.892-0.892s0.38-0.89 0.892-0.89h14.666c0.464 0 0.892 0.38 0.892 0.89-0.008 0.516-0.384 0.892-0.892 0.892zM15.62 12.84c0.264-0.034 0.46 0.82 0.484 1 0.060 0.47-0.096 0.926-0.31 1.34-0.796 1.552-2.64 2.806-2.152 4.772 0.22 0.848 0.66 1.436 2.020 2.16-0.46 0.16-1.1-0.148-1.46-0.4-1.6-1.090-2.62-2.88-2.52-4.832 0.040-0.62 0.16-1.23 0.32-1.826 0.5-1.71 1.52-3.206 2.12-4.87 0.3-0.8 0.52-1.768 0.28-2.608-0.12-0.412-0.34-0.8-0.62-1.134-0.080-0.1-0.54-0.62-0.72-0.56 0.8-0.3 1.52-0.020 2.22 0.4 0.54 0.32 0.96 0.78 1.28 1.3 0.6 0.96 0.84 2.060 0.96 3.18 0.040 0.46-0.020 1.58 0.52 1.8 0.56 0.24 1-0.7 1.12-1.080 0.26-0.86-0.080-1.68-0.42-2.48 0.080 0.16 0.38 0.34 0.52 0.46l0.48 0.46c0.58 0.6 0.94 1.34 1.18 2.14 0.22 0.72 0.32 1.46 0.36 2.18 0.1 1.5-0.24 3.040-0.84 4.42-0.26 0.62-0.6 1.2-1.040 1.7-0.426 0.5-1 0.82-1.46 1.28 1.080-1.080 1.654-2.84 1.5-4.18-0.080-0.74-0.32-1.42-0.88-2.1 0 0 0.060 0.48 0.116 0.78 0.1 0.66-0.34 1.36-0.86 1.28-0.38-0.040-0.18-0.86-0.14-1.12 0.14-0.78-0.040-1.54-0.326-2.26-0.28-0.68-0.8-1.22-1.6-1.1z"></path>
</svg>
