
<svg version="1.1" xmlns="http://www.w3.org/2000/svg" width="32" height="32" viewBox="0 0 32 32">
<title>brand257</title>
<path fill="#29a8e0" d="M27.344 21.96c0.256-0.036 0.5-0.15 0.72-0.28 0.46-0.268 0.86-0.628 1.244-0.996 0.3-0.286 0.592-0.58 0.87-0.892 0.16-0.194 0.34-0.394 0.5-0.6 0.14-0.19 0.28-0.38 0.42-0.58 0.1-0.152 0.2-0.306 0.28-0.464 0.44-0.794 0.8-1.776 0.48-2.68-0.040-0.126-0.1-0.246-0.16-0.36-0.12-0.204-0.28-0.386-0.44-0.548-0.28-0.268-0.62-0.48-0.96-0.652-0.5-0.248-1.040-0.416-1.6-0.54-0.8-0.18-1.6-0.266-2.42-0.3-1.12-0.054-2.24-0.008-3.34 0.1 0.14 0.146 0.26 0.3 0.4 0.45 0.26 0.3 0.52 0.62 0.76 0.96 0.3 0.4 0.58 0.84 0.86 1.28 0.8 1.32 1.4 2.76 1.84 4.22 0.14 0.44 0.24 0.88 0.34 1.34 0.040 0.16 0.060 0.34 0.1 0.52zM2.628 21.76c0.068-0.272 0.14-0.548 0.212-0.82 0.106-0.4 0.234-0.796 0.354-1.192 0.092-0.288 0.2-0.57 0.3-0.856 0.12-0.3 0.246-0.6 0.37-0.9 0.044-0.1 0.080-0.204 0.13-0.306 0.134-0.286 0.28-0.568 0.428-0.848 0.18-0.32 0.34-0.64 0.52-0.94 0.24-0.42 0.5-0.8 0.78-1.18l0.020-0.020c-0.44-0.020-0.9-0.020-1.34-0.020-0.32 0-0.66 0.020-0.98 0.060-0.22 0.020-0.44 0.040-0.66 0.080-0.16 0.020-0.32 0.060-0.48 0.1-0.78 0.2-1.66 0.56-2.040 1.34-0.040 0.1-0.080 0.2-0.12 0.32-0.040 0.16-0.060 0.36-0.060 0.54 0 0.28 0.060 0.56 0.12 0.84 0.12 0.42 0.32 0.82 0.52 1.2 0.38 0.66 0.86 1.28 1.36 1.86l0.64 0.7zM26.768 21.7c-0.656-3.060-2.056-6.028-4.248-8.294l-0.112-0.114-0.054-0.054c-0.266 0.020-0.532 0.060-0.8 0.1-2.866 0.44-5.666 1.22-8.36 2.28 0.224 0.060 0.448 0.12 0.674 0.2 0.94 0.3 1.88 0.62 2.804 0.96 3.22 1.2 6.324 2.7 9.306 4.42l0.78 0.46zM3.22 21.514l1.16-1.12c0.2-0.19 0.2-0.188 0.4-0.372 2.040-1.8 4.414-3.16 6.89-4.28-0.366-0.1-0.73-0.18-1.096-0.26-1.4-0.32-2.81-0.58-4.24-0.7-0.112 0.16-0.22 0.3-0.328 0.46-0.24 0.36-0.472 0.7-0.688 1.080-0.2 0.32-0.36 0.64-0.52 0.96-0.14 0.26-0.28 0.52-0.38 0.78-0.040 0.060-0.060 0.14-0.080 0.2-0.12 0.3-0.26 0.6-0.38 0.9-0.1 0.24-0.18 0.48-0.26 0.72-0.12 0.38-0.24 0.74-0.34 1.12-0.060 0.2-0.12 0.4-0.16 0.6zM12.414 15.414c0.28-0.12 0.556-0.232 0.836-0.34 0.31-0.124 0.62-0.24 0.932-0.356 1.36-0.5 2.74-0.92 4.14-1.26 1.16-0.28 2.32-0.5 3.5-0.68l0.080-0.020c-0.32-0.3-0.66-0.56-1-0.82-0.64-0.48-1.34-0.88-2.080-1.2-1.72-0.74-3.62-0.98-5.46-0.64-1 0.18-1.98 0.52-2.88 1-1.42 0.76-2.66 1.84-3.68 3.080l-0.040 0.020 0.62 0.060 0.76 0.1c1.080 0.18 2.12 0.4 3.18 0.64 0.4 0.1 0.78 0.2 1.16 0.3z"></path>
</svg>
