
<svg version="1.1" xmlns="http://www.w3.org/2000/svg" width="32" height="32" viewBox="0 0 32 32">
<title>brand73</title>
<path fill="#00b0b9" d="M17.73 2.432c0 1.3-1.080 2.38-2.38 2.38-1.296 0-2.38-1.080-2.38-2.38 0-1.296 1.084-2.38 2.38-2.38 1.3 0 2.38 1.084 2.38 2.38zM15.35 6.756c-1.404 0-2.486 1.080-2.486 2.488 0 1.404 1.080 2.486 2.488 2.486 1.404 0 2.486-1.080 2.486-2.486s-1.1-2.488-2.5-2.488zM15.35 13.46c-1.404 0-2.594 1.188-2.594 2.594s1.19 2.594 2.596 2.594c1.404 0 2.594-1.188 2.594-2.594s-1.19-2.594-2.594-2.594zM15.35 20.27c-1.404 0-2.486 1.080-2.486 2.486s1.080 2.488 2.488 2.488c1.404 0 2.486-1.080 2.486-2.488 0-1.296-1.1-2.486-2.5-2.486zM15.35 27.19c-1.296 0-2.38 1.080-2.38 2.38 0 1.294 1.084 2.376 2.38 2.376 1.3 0 2.38-1.080 2.38-2.38 0-1.296-1.080-2.376-2.38-2.376zM21.946 6.43c-1.514 0-2.81 1.3-2.81 2.814 0 1.512 1.296 2.81 2.81 2.81s2.81-1.3 2.81-2.81c0-1.514-1.296-2.812-2.81-2.812zM21.946 13.136c-1.62 0-2.92 1.296-2.92 2.92 0 1.62 1.3 2.916 2.92 2.916s2.92-1.296 2.92-2.92c0-1.62-1.3-2.916-2.92-2.916zM21.946 19.946c-1.514 0-2.81 1.3-2.81 2.81 0 1.514 1.296 2.812 2.81 2.812s2.81-1.3 2.81-2.812c0-1.512-1.296-2.81-2.81-2.81zM28.756 12.81c-1.728 0-3.24 1.406-3.24 3.244 0 1.73 1.4 3.244 3.24 3.244s3.244-1.42 3.244-3.26c-0.108-1.84-1.514-3.24-3.244-3.24zM8.648 7.080c-1.188 0-2.16 0.974-2.16 2.164 0 1.188 0.972 2.16 2.16 2.16 1.19 0 2.16-0.972 2.16-2.16 0-1.19-0.97-2.16-2.16-2.16zM8.648 13.784c-1.296 0-2.27 0.972-2.27 2.27 0 1.3 0.96 2.27 2.26 2.27s2.26-0.972 2.26-2.27c0-1.3-0.98-2.27-2.28-2.27zM8.648 20.594c-1.188 0-2.16 0.974-2.16 2.16 0 1.192 0.972 2.164 2.16 2.164 1.19 0 2.16-0.98 2.16-2.18s-0.97-2.16-2.16-2.16zM1.948 14.108c-1.084 0-1.948 0.864-1.948 1.946 0 1.080 0.864 1.946 1.946 1.946 1.080 0 1.946-0.864 1.946-1.946 0-1.080-0.864-1.946-1.946-1.946z"></path>
</svg>
