
<svg version="1.1" xmlns="http://www.w3.org/2000/svg" width="32" height="32" viewBox="0 0 32 32">
<title>brand276</title>
<path fill="#7c529e" d="M27.748 3.12c-0.796-0.732-4.008-3.066-11.168-3.1 0 0-8.44-0.506-12.554 3.268-2.29 2.292-3.096 5.64-3.18 9.8-0.086 4.152-0.196 11.94 7.314 14.052h0.006l-0.006 3.224s-0.046 1.304 0.812 1.57c1.040 0.32 1.648-0.672 2.64-1.74 0.546-0.586 1.296-1.448 1.864-2.108 5.134 0.432 9.084-0.554 9.532-0.7 1.036-0.34 6.9-1.088 7.856-8.876 0.984-8.030-0.476-13.106-3.116-15.396zM28.618 17.936c-0.82 6.5-5.58 6.914-6.44 7.194-0.38 0.12-3.86 0.984-8.22 0.7 0 0-3.26 3.92-4.26 4.94-0.16 0.16-0.36 0.22-0.48 0.192-0.18-0.040-0.22-0.24-0.22-0.54l0.020-5.34c-0.020 0 0 0 0 0-6.36-1.78-5.98-8.4-5.9-11.88 0.060-3.46 0.72-6.3 2.66-8.22 3.482-3.162 10.662-2.682 10.662-2.682 6.056 0.020 8.96 1.846 9.63 2.46 2.232 1.91 3.37 6.486 2.54 13.19zM10.32 6.64c0.324 0 0.614 0.146 0.84 0.414 0.004 0.004 0.774 0.928 1.106 1.38 0.314 0.426 0.734 1.106 0.948 1.486 0.38 0.68 0.14 1.376-0.23 1.664l-0.754 0.6c-0.38 0.304-0.334 0.872-0.334 0.872s1.12 4.21 5.28 5.27c0 0 0.566 0.052 0.872-0.328l0.6-0.76c0.284-0.38 0.98-0.62 1.66-0.24 0.38 0.2 1.060 0.62 1.488 0.94 0.452 0.32 1.376 1.1 1.38 1.1 0.44 0.36 0.54 0.92 0.24 1.48v0.020c-0.308 0.54-0.72 1.040-1.244 1.52h-0.010c-0.42 0.36-0.84 0.56-1.26 0.6-0.040 0-0.1 0.020-0.18 0-0.18 0-0.36-0.040-0.54-0.080v-0.020c-0.64-0.18-1.7-0.64-3.46-1.62-1.14-0.64-2.1-1.28-2.92-1.94-0.42-0.34-0.86-0.72-1.3-1.16l-0.102-0.038-0.080-0.080c-0.44-0.44-0.82-0.88-1.16-1.306-0.64-0.812-1.28-1.77-1.92-2.92-0.98-1.76-1.44-2.82-1.62-3.46h-0.020c-0.060-0.18-0.1-0.36-0.080-0.54-0.020-0.080 0-0.14 0-0.186 0.040-0.4 0.252-0.82 0.61-1.26h0.006c0.474-0.52 0.984-0.94 1.528-1.244 0.22-0.12 0.44-0.18 0.64-0.18h0.020zM15.78 5.728h0.156l0.1 0.004h0.026l0.12 0.006h0.68l0.18 0.020h0.1l0.2 0.020h0.040l0.14 0.020h0.020l0.1 0.020c0.060 0 0.1 0.020 0.14 0.020h0.12l0.1 0.040 0.16 0.040 0.040 0.020h0.060l0.060 0.020h0.040l0.1 0.020 0.12 0.040 0.080 0.020 0.040 0.020c0.040 0 0.080 0.020 0.12 0.020l0.12 0.040 0.16 0.060 0.080 0.040 0.18 0.080 0.12 0.040 0.12 0.060 0.080 0.020 0.040 0.020 0.1 0.040 0.12 0.060 0.060 0.020 0.060 0.040 0.080 0.040 0.060 0.040 0.12 0.060 0.060 0.040 0.1 0.060 0.060 0.020 0.1 0.060 0.020 0.020 0.060 0.040 0.12 0.1 0.12 0.080 0.040 0.020 0.060 0.040 0.1 0.1 0.080 0.060 0.060 0.040 0.020 0.020 0.040 0.020 0.1 0.080 0.1 0.1 0.12 0.080 0.040 0.020 0.46 0.46c0.020 0.020 0.060 0.060 0.080 0.1l0.040 0.040 0.22 0.26 0.060 0.080c0.020 0.020 0.020 0.040 0.040 0.040l0.12 0.18 0.060 0.060 0.12 0.16 0.1 0.16 0.060 0.12 0.080 0.14 0.32 0.64 0.040 0.1c0.080 0.18 0.14 0.36 0.22 0.56 0.1 0.26 0.18 0.54 0.24 0.84 0.060 0.22 0.1 0.42 0.14 0.64l0.040 0.36 0.060 0.4c0.020 0.16 0.040 0.34 0.040 0.5 0.020 0.16 0.020 0.32 0.020 0.48v0.34c0 0.020-0.010 0.040-0.020 0.060-0.020 0.040-0.040 0.060-0.080 0.1-0.028 0.020-0.066 0.060-0.106 0.060-0.040 0.020-0.080 0.020-0.12 0.020h-0.060c-0.040 0-0.080-0.020-0.12-0.040s-0.080-0.040-0.1-0.080c-0.020-0.040-0.060-0.080-0.080-0.12s-0.040-0.080-0.040-0.12v-0.478c-0.020-0.28-0.040-0.568-0.080-0.852-0.020-0.196-0.060-0.38-0.080-0.56 0-0.1-0.020-0.196-0.040-0.28l-0.040-0.2-0.048-0.18-0.020-0.12-0.060-0.2c-0.040-0.16-0.1-0.32-0.16-0.48-0.040-0.12-0.080-0.22-0.14-0.32l-0.040-0.1-0.18-0.36-0.040-0.060c-0.080-0.18-0.18-0.36-0.3-0.52l-0.060-0.1h-0.268l-0.086-0.12c-0.072-0.12-0.152-0.22-0.24-0.32l-0.166-0.2-0.020-0.020-0.060-0.076-0.048-0.060-0.1-0.1-0.020-0.040-0.094-0.080-0.060-0.060-0.11-0.1-0.054-0.050-0.080-0.080c-0.020-0.020-0.060-0.060-0.1-0.080l-0.102-0.082-0.040-0.020-0.080-0.060-0.16-0.128-0.040-0.020-0.080-0.072c0-0.020-0.020-0.020-0.040-0.020l-0.060-0.060v-0.020l-0.040-0.020-0.080-0.050-0.060-0.040-0.1-0.060-0.080-0.060-0.080-0.040h-0.12l-0.026-0.020-0.088-0.046-0.010-0.020-0.1-0.050h-0.016l-0.060-0.020-0.034-0.020-0.060-0.020-0.014-0.014-0.040-0.020-0.070-0.040-0.040-0.020-0.12-0.040-0.1-0.040-0.18-0.020-0.060-0.040c-0.020-0.012-0.040-0.020-0.060-0.020l-0.040-0.020c-0.040-0.014-0.060-0.020-0.1-0.040l-0.040-0.020h-0.040l-0.12-0.060-0.060-0.020h-0.122c-0.010 0-0.024-0.006-0.040-0.010h-0.12l-0.060-0.020h-0.020l-0.060-0.020h-0.054c-0.034-0.020-0.060-0.020-0.094-0.020l-0.012-0.020-0.080-0.020c-0.040-0.020-0.074-0.020-0.112-0.020l-0.060-0.020-0.066-0.020-0.060-0.020-0.080-0.020h-0.082l-0.24-0.036h-0.12l-0.156-0.020h-0.1l-0.092-0.012h-0.040l-0.072-0.020h-0.38l-0.014-0.020h-0.080c-0.040 0-0.086-0.020-0.12-0.040-0.040-0.020-0.080-0.040-0.108-0.080l-0.040-0.060c-0.040-0.040-0.040-0.080-0.060-0.12s-0.020-0.080-0.020-0.12c0-0.040 0-0.080 0.020-0.12s0.040-0.080 0.080-0.1c0.020-0.040 0.060-0.060 0.1-0.080s0.080-0.040 0.12-0.040h0.080zM16.52 7.828l0.048 0.004 0.080 0.008c0.012 0 0.024 0 0.040 0.004 0.030 0 0.060 0.006 0.1 0.008l0.080 0.010 0.032 0.020 0.060 0.020 0.064 0.020 0.060 0.020h0.040l0.056 0.020 0.094 0.020 0.074 0.020 0.036 0.020h0.096l0.16 0.040 0.18 0.060s0.020 0 0.020 0.020l0.18 0.060c0.020 0 0.040 0.020 0.060 0.020 0.010 0 0.020 0.020 0.034 0.020l0.086 0.040h0.040l0.12 0.040 0.066 0.040 0.060 0.040 0.146 0.060 0.080 0.020 0.040 0.040c0.060 0.020 0.12 0.060 0.18 0.080l0.128 0.080 0.066 0.040c0.060 0.040 0.108 0.060 0.16 0.1l0.040 0.020 0.054 0.040 0.030 0.020 0.1 0.060 0.050 0.040 0.086 0.060 0.080 0.040 0.060 0.040 0.080 0.060c0.020 0.020 0.030 0.020 0.046 0.040 0.012 0.020 0.020 0.020 0.034 0.040l0.044 0.040 0.048 0.040 0.3 0.3c0 0.020 0.020 0.040 0.040 0.040l0.080 0.080 0.040 0.060 0.040 0.040 0.060 0.080 0.060 0.060 0.12 0.16 0.020 0.040 0.080 0.1 0.080 0.16c0.020 0.020 0.020 0.040 0.040 0.080l0.060 0.1 0.020 0.020 0.040 0.080 0.040 0.060c0.020 0.020 0.020 0.040 0.040 0.060l0.040 0.060 0.080 0.16 0.020 0.060c0.020 0.060 0.060 0.1 0.080 0.16 0 0.020 0.020 0.040 0.020 0.060l0.060 0.16 0.080 0.26c0 0.020 0.020 0.060 0.020 0.080l0.060 0.18 0.060 0.24 0.060 0.32c0.020 0.1 0.020 0.18 0.040 0.28 0.020 0.16 0.040 0.32 0.040 0.48l0.020 0.28v0.22c0 0.020 0 0.040-0.020 0.060l-0.058 0.058c-0.040 0.030-0.060 0.060-0.1 0.080s-0.080 0.040-0.12 0.054c-0.040 0.020-0.1 0.020-0.14 0.020s-0.080-0.020-0.12-0.040c-0.020 0-0.040-0.020-0.060-0.028-0.040-0.020-0.080-0.052-0.1-0.088-0.040-0.040-0.060-0.080-0.060-0.12l-0.020-0.060v-0.418c0-0.176-0.020-0.34-0.040-0.512-0.020-0.18-0.060-0.38-0.1-0.56-0.040-0.12-0.060-0.24-0.1-0.348l-0.040-0.12-0.040-0.1-0.020-0.040-0.060-0.16-0.16-0.32-0.092-0.16v-0.020l-0.040-0.064-0.040-0.050-0.060-0.1-0.18-0.24c-0.060-0.080-0.12-0.16-0.188-0.236-0.020-0.020-0.040-0.040-0.040-0.060l-0.060-0.060-0.040-0.020-0.040-0.036v-0.194l-0.16-0.152-0.1-0.090v-0.020l-0.040-0.040-0.050-0.040-0.020-0.020c0-0.020-0.020-0.020-0.040-0.020l-0.060-0.020-0.020-0.020-0.080-0.060-0.040-0.040c-0.016-0.020-0.030-0.020-0.040-0.020l-0.080-0.060-0.020-0.020-0.080-0.040-0.014-0.020-0.060-0.040-0.040-0.020-0.080-0.080h-0.020c-0.040-0.040-0.080-0.060-0.14-0.080l-0.060-0.040-0.040-0.020-0.020-0.020-0.060-0.040-0.060-0.020-0.080-0.040-0.060-0.020-0.020-0.020-0.074-0.020v-0.020l-0.12-0.040-0.12-0.060h-0.080c-0.040-0.020-0.060-0.020-0.1-0.040h-0.062l-0.060-0.020h-0.060l-0.060-0.020-0.040-0.020h-0.080l-0.080-0.020-0.040-0.020h-0.22l-0.092-0.020h-0.468l-0.060-0.020c-0.040-0.020-0.080-0.040-0.12-0.080-0.020-0.040-0.060-0.080-0.080-0.12s-0.040-0.080-0.040-0.12v-0.12c0.006-0.060 0.020-0.1 0.040-0.14 0.010-0.020 0.020-0.040 0.040-0.060 0.024-0.040 0.060-0.080 0.1-0.1 0.020-0.020 0.040-0.020 0.060-0.040 0.040-0.020 0.080-0.020 0.12-0.020h0.080zM17.124 10c0.020 0 0.040 0 0.060 0.004 0.020 0 0.040 0 0.060 0.004l0.068 0.006c0.14 0.012 0.284 0.032 0.424 0.060l0.14 0.032 0.034 0.010 0.152 0.040 0.080 0.026 0.060 0.020c0.060 0.020 0.12 0.060 0.18 0.080l0.020 0.020 0.24 0.12c0.020 0.020 0.040 0.020 0.060 0.040s0.060 0.040 0.080 0.060c0.080 0.040 0.14 0.1 0.2 0.14l0.14 0.12 0.12 0.12 0.080 0.1 0.080 0.080 0.060 0.080 0.12 0.18 0.1 0.18 0.080 0.16 0.060 0.14c0.060 0.14 0.080 0.26 0.12 0.4 0.040 0.12 0.060 0.26 0.080 0.38l0.020 0.2 0.020 0.18v0.080c0 0.060-0.020 0.1-0.040 0.14s-0.060 0.1-0.1 0.12c-0.040 0.040-0.080 0.060-0.14 0.080-0.040 0.020-0.080 0.020-0.12 0.020s-0.080 0-0.12-0.020l-0.14-0.060c-0.040-0.040-0.080-0.060-0.12-0.12-0.020-0.040-0.040-0.080-0.060-0.14v-0.22l-0.020-0.14-0.020-0.16-0.020-0.14-0.020-0.080c0-0.020-0.020-0.060-0.020-0.080-0.040-0.16-0.12-0.32-0.2-0.48l-0.080-0.080-0.060-0.080-0.060-0.060-0.020-0.040-0.1-0.080-0.080-0.080-0.080-0.060c-0.020-0.020-0.040-0.020-0.080-0.040l-0.12-0.080-0.12-0.060h-0.020l-0.102-0.042-0.12-0.040-0.12-0.020h-0.1l-0.060-0.020-0.048-0.010h-0.060l-0.080-0.020h-0.34l-0.020-0.1h-0.052c-0.040-0.006-0.072-0.020-0.106-0.040-0.046-0.028-0.086-0.060-0.12-0.106-0.024-0.040-0.046-0.080-0.060-0.12-0.010-0.040-0.016-0.080-0.016-0.12 0-0.050 0-0.1 0.020-0.152s0.040-0.094 0.080-0.132l0.080-0.060c0.040-0.020 0.080-0.040 0.12-0.040l0.082-0.1h0.040z"></path>
</svg>
