<!-- Generated by IcoMoon.io -->
<svg version="1.1" xmlns="http://www.w3.org/2000/svg" width="32" height="32" viewBox="0 0 32 32">
<title>brand18</title>
<path fill="#de484a" d="M27.672 15.45c-0.62-1.434-1.49-2.714-2.58-3.8-1.092-1.086-2.372-1.95-3.812-2.57-1.434-0.62-2.99-0.932-4.62-0.932l-6.436-0.008c-0.808 0-1.466-0.66-1.468-1.466l-0.004-4.060c0.004-1.46-1.176-2.614-2.68-2.614-1.48 0-2.686 1.206-2.686 2.686l0.008 17.376c0 1.64 0.314 3.2 0.936 4.64 0.626 1.44 1.492 2.72 2.574 3.82 1.088 1.080 2.368 1.96 3.804 2.58 1.44 0.62 3 0.94 4.63 0.94h1.32c1.62 0 3.18-0.3 4.62-0.92s2.72-1.48 3.8-2.56c1.080-1.080 1.94-2.36 2.56-3.8 0.62-1.42 0.94-2.98 0.94-4.62 0-1.62-0.32-3.18-0.94-4.62zM23.244 20.070c0 0.892-0.17 1.75-0.508 2.552-0.34 0.82-0.816 1.52-1.414 2.1-0.6 0.6-1.3 1.080-2.1 1.42s-1.66 0.52-2.56 0.52h-1.3c-0.9 0-1.76-0.16-2.56-0.5-0.78-0.32-1.5-0.8-2.1-1.4-0.6-0.58-1.060-1.3-1.4-2.1-0.32-0.8-0.5-1.66-0.5-2.56v-3.8c0-0.72 0.28-1.42 0.8-1.94s1.22-0.8 1.96-0.8h5.14c0.9 0 1.76 0.18 2.56 0.5 0.8 0.34 1.52 0.82 2.1 1.42 0.6 0.6 1.080 1.32 1.42 2.1 0.34 0.8 0.52 1.66 0.52 2.56z"></path>
</svg>
