<!-- Generated by IcoMoon.io -->
<svg version="1.1" xmlns="http://www.w3.org/2000/svg" width="32" height="32" viewBox="0 0 32 32">
<title>brand104</title>
<path fill="#1bacf7" d="M24.572 13.798c0.348 0 0.638 0.278 0.638 0.638v2.874c0 0.428 0.348 0.776 0.776 0.776h5.68c0.394 0 0.474 0.568 0.092 0.672l-11.428 3.292c-0.053 0.016-0.113 0.025-0.176 0.025-0.345 0-0.624-0.279-0.624-0.624 0-0.001 0-0.002 0-0.004v-3.002c-0.001-0.154-0.125-0.278-0.278-0.28h-12.528c-0.153-0.001-0.277-0.124-0.28-0.276v-3.374c0-0.001 0-0.003 0-0.004 0-0.47-0.375-0.853-0.843-0.864l-5.333-0.094c-0.314-0.012-0.372-0.452-0.070-0.544l11.684-3.374c0.021-0.006 0.045-0.009 0.070-0.009 0.152 0 0.276 0.124 0.276 0.276 0 0 0 0.001 0 0.001v3.256c0 0.348 0.29 0.638 0.64 0.638h11.704zM11.72 6.056c0.406-0.070 0.5 0.464 0.5 0.464s0.034 1.262 0 1.784c-0.036 0.52-0.51 0.5-0.51 0.5h-4.638s-0.42-0.152-0.476-0.698c-0.070-0.544 0.58-0.846 0.58-0.846s4.138-1.134 4.542-1.204zM19.568 4.584s-0.060-0.614 0.626-0.88c0.684-0.256 4.358-1.206 4.358-1.206s0.684-0.268 0.73 0.626c0.046 0.892 0 8.24 0 8.24s0.022 0.602-0.626 0.648c-0.65 0.048-4.3 0-4.3 0s-0.788 0.070-0.788-0.556v-6.874zM19.672 23.696c0.034-0.52 0.51-0.5 0.5-0.51h4.634s0.406 0.15 0.476 0.696c0.070 0.544-0.58 0.846-0.58 0.846s-4.138 1.136-4.544 1.204c-0.406 0.082-0.486-0.452-0.486-0.452s-0.034-1.262 0-1.784zM12.312 27.416s0.070 0.614-0.626 0.88c-0.684 0.256-4.358 1.206-4.358 1.206s-0.684 0.268-0.73-0.626c-0.046-0.892 0-8.24 0-8.24s-0.024-0.602 0.626-0.648c0.648-0.048 4.3 0 4.3 0s0.706-0.070 0.788 0.556c0.080 0.614 0 1.054 0 1.054v5.82z"></path>
</svg>
