<!-- Generated by IcoMoon.io -->
<svg version="1.1" xmlns="http://www.w3.org/2000/svg" width="32" height="32" viewBox="0 0 32 32">
<title>brand28</title>
<path d="M31.716 24.32c0.38 0.19 0.38 0.356 0 0.5l-15.148 6.966c-0.38 0.19-0.76 0.19-1.136 0l-15.148-6.966c-0.38-0.144-0.38-0.31 0-0.5l3.628-1.636c0.38-0.19 0.76-0.19 1.136 0l10.384 4.764c0.38 0.19 0.76 0.19 1.136 0l10.384-4.764c0.38-0.19 0.76-0.19 1.136 0l3.628 1.636zM31.716 15.716c0.38 0.19 0.38 0.38 0 0.568l-15.148 6.97c-0.38 0.14-0.76 0.14-1.136 0l-15.148-6.97c-0.38-0.19-0.38-0.38 0-0.568l3.628-1.636c0.38-0.19 0.76-0.19 1.136 0l10.384 4.764c0.38 0.19 0.76 0.19 1.136 0l10.384-4.764c0.38-0.19 0.76-0.19 1.136 0l3.628 1.636zM0.284 7.68c-0.38-0.19-0.38-0.356 0-0.5l15.148-6.964c0.38-0.19 0.76-0.19 1.136 0l15.148 6.968c0.38 0.144 0.38 0.31 0 0.5l-15.148 6.964c-0.38 0.19-0.76 0.19-1.136 0l-15.148-6.968z"></path>
</svg>
