<!-- Generated by IcoMoon.io -->
<svg version="1.1" xmlns="http://www.w3.org/2000/svg" width="32" height="32" viewBox="0 0 32 32">
<title>brand167</title>
<path fill="#00945e" d="M15.96 32c-3.366 0-6.4-1.476-8.452-4.184-1.48-1.888-2.216-4.104-2.216-6.48 0-0.74 0.080-1.48 0.246-2.136 0.4-2.38 2.12-6.236 5.24-11.57 2.302-3.94 4.182-6.89 4.282-6.89 0.164-0.33 0.41-0.74 0.9-0.74 0.496 0 0.74 0.41 0.988 0.74 0 0 1.968 2.952 4.266 6.89 3.12 5.334 4.84 9.19 5.252 11.57 0.174 0.656 0.256 1.394 0.256 2.134 0 2.38-0.74 4.594-2.2 6.48-2.162 2.63-5.282 4.186-8.562 4.186zM15.96 29.21c2.54 0 4.84-1.148 6.4-3.12 1.066-1.392 1.64-3.116 1.64-4.92 0-0.576-0.080-1.068-0.164-1.64-0.328-1.806-1.724-4.924-4.1-9.11-1.808-3.2-3.366-5.496-3.366-5.496l-0.412-0.576-0.34 0.494s-1.56 2.38-3.36 5.5c-2.458 4.198-3.858 7.298-4.098 9.118-0.080 0.574-0.164 1.066-0.164 1.64 0 1.806 0.572 3.448 1.64 4.924 1.48 2.050 3.774 3.2 6.32 3.2z"></path>
</svg>
