<!-- Generated by IcoMoon.io -->
<svg version="1.1" xmlns="http://www.w3.org/2000/svg" width="32" height="32" viewBox="0 0 32 32">
<title>brand97</title>
<path fill="#005ea5" d="M3.194 17.372c0.348-0.85-0.052-1.828-0.906-2.18-0.84-0.346-1.812 0.066-2.16 0.916-0.352 0.846 0.052 1.814 0.89 2.16 0.84 0.354 1.82-0.050 2.16-0.896zM4.318 13.056c0.34-0.846-0.060-1.824-0.92-2.18-0.84-0.344-1.82 0.070-2.18 0.914-0.36 0.848 0.040 1.82 0.88 2.166 0.86 0.354 1.82-0.052 2.18-0.9zM5.898 11.6c0.86 0.35 1.82-0.054 2.18-0.9 0.34-0.848-0.060-1.828-0.9-2.18-0.84-0.346-1.82 0.066-2.18 0.912-0.36 0.85 0.060 1.82 0.9 2.166zM10.098 12.998c0.86 0.34 1.82-0.060 2.18-0.9 0.34-0.86-0.060-1.84-0.92-2.18-0.84-0.36-1.82 0.060-2.16 0.9-0.36 0.84 0.060 1.82 0.9 2.16zM28.738 17.338c0.36 0.84 1.32 1.24 2.18 0.88 0.84-0.36 1.24-1.32 0.88-2.18s-1.34-1.26-2.18-0.9c-0.86 0.34-1.26 1.32-0.9 2.18zM29.718 13.898c0.84-0.34 1.24-1.32 0.9-2.18-0.36-0.84-1.34-1.26-2.18-0.9-0.86 0.36-1.26 1.32-0.9 2.18 0.34 0.84 1.32 1.24 2.16 0.9zM26 11.6c0.84-0.346 1.24-1.32 0.894-2.17-0.36-0.86-1.332-1.26-2.18-0.912-0.84 0.36-1.246 1.32-0.892 2.18 0.36 0.84 1.34 1.24 2.18 0.9zM21.462 12.738c0.84-0.36 1.24-1.34 0.9-2.18-0.36-0.86-1.32-1.26-2.18-0.92-0.84 0.36-1.24 1.34-0.88 2.18s1.32 1.24 2.18 0.88zM12.54 6.6l0.124 3.192 2.33-1.228c0.048 0.052 0.106 0.104 0.16 0.144-0.24 0.954-0.826 2.546-1.19 3.426-0.446 1.080 0.066 2.32 1.146 2.764 1.080 0.44 2.324-0.080 2.772-1.16 0.32-0.76 0.16-1.58-0.32-2.16-0.52-0.9-1.040-2.040-1.32-2.92 0.080-0.060 0.14-0.14 0.2-0.2l2.52 1.3 0.12-3.18-2.62 0.84c-0.020-0.040-0.040-0.080-0.060-0.1l1.020-2.9-3.1-0.1 0.94 2.86c-0.080 0.040-0.14 0.1-0.2 0.18l-2.522-0.758zM28.368 18.72c0.212 1.174 0.248 1.708-0.020 2.472-0.38-0.38-0.72-1.072-0.996-2.12l-1.16 3.712c0.69-0.46 1.216-0.752 1.814-0.76-1.084 2.28-2.42 2.856-3.274 2.69-1.046-0.21-1.53-1.154-1.346-1.95 0.232-1.12 1.4-1.4 1.926-0.090 1.056-2.084-0.69-2.764-1.82-2.16 1.748-1.704 1.952-3.228 0.568-5.104-1.948 1.472-1.984 2.94-1.132 5.020-1.12-1.312-2.9-0.62-2.28 1.48 0.834-1.264 1.906-0.46 1.728 0.752-0.146 1.060-1.548 1.88-3.274 1.72-2.48-0.22-2.6-1.94-2.64-3.36 0.6-0.1 1.7 0.48 2.64 1.8l0.38-3.94c-1.020 1.040-1.96 1.26-2.98 1.28 0.36-1.040 1.94-2.78 1.94-2.78l-4.96-0.060s1.58 1.76 1.92 2.82c-1.020-0.020-1.94-0.22-2.96-1.28l0.34 3.94c0.94-1.32 2.040-1.88 2.64-1.78-0.060 1.4-0.2 3.12-2.68 3.34-1.72 0.14-3.12-0.7-3.26-1.76-0.16-1.2 0.92-2 1.74-0.72 0.64-2.1-1.14-2.8-2.26-1.5 0.88-2.080 0.86-3.56-1.080-5.040-1.4 1.86-1.2 3.38 0.54 5.12-1.12-0.62-2.88 0.040-1.84 2.14 0.54-1.32 1.7-1.020 1.94 0.1 0.16 0.8-0.32 1.74-1.36 1.94-0.86 0.16-2.18-0.42-3.26-2.72 0.6 0.020 1.12 0.32 1.8 0.78l-1.142-3.702c-0.28 1.040-0.64 1.724-1.020 2.1-0.246-0.76-0.22-1.3 0.020-2.474l-2.4 0.816c1.228 1.68 2.472 4.020 3.446 8.12 3.028-0.5 8.192-0.8 11.32-0.8 3.12 0.020 8.286 0.38 11.3 0.92 1.020-4.1 2.28-6.42 3.52-8.080l-2.36-0.86z"></path>
</svg>
