
<svg version="1.1" xmlns="http://www.w3.org/2000/svg" width="32" height="32" viewBox="0 0 32 32">
<title>brand211</title>
<path fill="#1a7bba" d="M19.794 28.060c0-2.83 2.094-5.25 4.72-5.74-0.124-2.628-1.232-4.432-2.956-5.786-1.74-1.354-4.16-2.38-6.78-3.406-2.838-1.108-4.958-2.092-4.958-4.228 0-1.8 1.56-3.156 4.18-3.156 1.6 0 2.63 0.246 3.16 0.532 0 0.124-0.040 0.288-0.12 0.412-0.080 0.164-0.12 0.368-0.12 0.656 0 1.804 1.31 3.404 3.648 3.404 2.134 0 3.406-1.6 3.406-3.94 0-1.966-1.11-3.69-2.916-4.88-1.838-1.188-4.398-1.928-7.298-1.928-3 0.206-5.58 1.312-7.384 2.954-1.806 1.64-2.872 3.856-2.872 6.48 0 2.914 1.026 4.8 2.708 6.24 1.68 1.434 4.1 2.46 7.014 3.484 3.16 1.020 5.006 2.080 5.006 4.18 0 2.12-1.846 3.4-4.76 3.4-1.52 0-2.83-0.26-3.94-1.020 0.29-0.54 0.29-1.080 0.29-1.6 0-1.52-1.34-3.42-3.68-3.42-2.080 0-3.64 1.6-3.64 3.94 0 1.96 1.24 3.82 3.26 5.12 1.98 1.36 4.76 2.22 7.76 2.22 2.64 0 5.020-0.5 6.86-1.82-0.28-0.54-0.52-1.32-0.52-2.14zM29.518 28.060c0 2.094-1.7 3.694-3.7 3.694s-3.66-1.6-3.66-3.692c0-2 1.64-3.64 3.64-3.64s3.68 1.64 3.68 3.66z"></path>
</svg>
