<!-- Generated by IcoMoon.io -->
<svg version="1.1" xmlns="http://www.w3.org/2000/svg" width="32" height="32" viewBox="0 0 32 32">
<title>brand242</title>
<path fill="#3a98d9" d="M30.64 11.41c0.426 0.81 0.752 1.7 0.976 2.674 0.226 0.974 0.352 1.992 0.38 3.056 0.028 1.060-0.080 2.14-0.32 3.22-0.24 1.088-0.596 2.15-1.064 3.184-0.466 1.036-1.106 2.020-1.92 2.96-0.816 0.94-1.752 1.786-2.81 2.534-1.040 0.74-2.32 1.38-3.8 1.88-1.48 0.52-3.1 0.86-4.86 1.060l-0.4-0.96c0.1-0.020 0.22-0.060 0.4-0.12s0.5-0.18 0.96-0.4c0.48-0.2 0.92-0.44 1.36-0.72s0.92-0.66 1.44-1.16c0.54-0.5 0.98-1.040 1.36-1.62 0.38-0.6 0.7-1.32 0.96-2.2s0.4-1.82 0.4-2.82c0-0.96-0.12-1.84-0.38-2.68s-0.6-1.54-1.020-2.16c-0.42-0.6-0.9-1.18-1.4-1.72s-1.020-1.060-1.52-1.54c-0.52-0.48-0.98-0.98-1.42-1.46-0.42-0.48-0.78-1.020-1.040-1.62s-0.4-1.22-0.4-1.88c0-1.18 0.48-2.2 1.4-3.040 0.94-0.86 2.22-1.28 3.86-1.28 0.48 0 0.96 0.040 1.46 0.14s1.1 0.28 1.78 0.58c0.68 0.3 1.32 0.68 1.94 1.14s1.28 1.12 1.96 1.94c0.68 0.826 1.3 1.78 1.86 2.86zM1.36 20.59c-0.424-0.81-0.75-1.7-0.974-2.674-0.226-0.976-0.354-1.992-0.38-3.056-0.030-1.060 0.080-2.14 0.32-3.22 0.24-1.088 0.594-2.15 1.060-3.184 0.468-1.036 1.108-2.020 1.92-2.96 0.82-0.94 1.754-1.786 2.812-2.534 1.040-0.74 2.32-1.38 3.8-1.88 1.482-0.522 3.102-0.882 4.862-1.082l0.4 0.946c-0.084 0.020-0.212 0.060-0.38 0.108-0.166 0.052-0.48 0.18-0.95 0.39-0.466 0.208-0.916 0.446-1.35 0.716-0.43 0.27-0.908 0.652-1.43 1.148-0.524 0.496-0.974 1.036-1.35 1.62-0.38 0.586-0.696 1.314-0.954 2.186-0.26 0.872-0.388 1.808-0.388 2.81 0 0.946 0.12 1.834 0.4 2.666 0.26 0.834 0.6 1.55 1.020 2.152 0.42 0.62 0.9 1.18 1.4 1.74s1.020 1.060 1.52 1.54 0.98 0.98 1.4 1.46c0.44 0.5 0.78 1.040 1.040 1.62 0.26 0.6 0.4 1.22 0.4 1.88 0 1.2-0.48 2.22-1.4 3.060-0.94 0.86-2.22 1.28-3.86 1.28-0.48 0-0.96-0.040-1.46-0.14s-1.1-0.28-1.76-0.58c-0.68-0.3-1.32-0.68-1.96-1.14-0.62-0.46-1.28-1.12-1.96-1.94s-1.3-1.78-1.86-2.86z"></path>
</svg>
