<!-- Generated by IcoMoon.io -->
<svg version="1.1" xmlns="http://www.w3.org/2000/svg" width="32" height="32" viewBox="0 0 32 32">
<title>brand33</title>
<path fill="#204056" d="M31.77 26.304h-7.46c-0.124 0-0.226 0.080-0.226 0.23v2.020c0 0.126 0.076 0.228 0.228 0.228h7.46c0.126 0 0.228-0.060 0.228-0.22v-2.020c0-0.14-0.076-0.22-0.23-0.22zM21.95 3.288c0.020 0.046 0.040 0.092 0.064 0.16v25.052c0 0.080-0.026 0.128-0.050 0.154-0.052 0.052-0.1 0.080-0.18 0.080h-21.58c-0.050 0-0.1 0-0.128-0.028-0.050-0.052-0.076-0.1-0.076-0.18v-25.106c0-0.1 0.052-0.176 0.128-0.2h21.656c0.052 0 0.128 0.024 0.154 0.048v0.020zM2.424 26.1c0 0.1 0.052 0.18 0.128 0.204h16.856c0.076-0.024 0.128-0.1 0.128-0.204v-20.226c0-0.1-0.054-0.18-0.13-0.204h-16.852c-0.076 0.026-0.128 0.1-0.128 0.204v20.226zM9.244 14.84c0.868 0 1.43 0.33 1.94 0.92 0.076 0.1 0.204 0.126 0.306 0.048l1.38-1.226c0.1-0.060 0.076-0.22 0.026-0.3-0.846-1.020-2.072-1.66-3.654-1.66-2.12 0-3.72 1.060-4.34 2.94-0.22 0.66-0.32 1.5-0.32 2.64s0.1 1.98 0.34 2.64c0.62 1.9 2.22 2.94 4.34 2.94 1.6 0 2.82-0.64 3.66-1.62 0.060-0.1 0.080-0.22-0.020-0.3l-1.38-1.22c-0.1-0.060-0.22-0.060-0.3 0.040-0.52 0.6-1.060 0.92-1.94 0.92-0.94 0-1.66-0.46-1.96-1.38-0.18-0.52-0.22-1.16-0.22-1.98s0.060-1.42 0.24-1.96c0.32-0.88 1.020-1.34 1.98-1.34z"></path>
</svg>
