<!-- Generated by IcoMoon.io -->
<svg version="1.1" xmlns="http://www.w3.org/2000/svg" width="32" height="32" viewBox="0 0 32 32">
<title>brand17</title>
<path fill="#00a3e0" d="M27.934 29.664c-0.44 0-0.872-0.116-1.256-0.34-1.2-0.688-1.62-2.22-0.92-3.414 2.54-4.394 1.020-10.032-3.38-12.57-1.4-0.804-2.98-1.228-4.6-1.228-0.44 0-0.88-0.12-1.26-0.34-1.2-0.688-1.62-2.22-0.92-3.416 0.44-0.766 1.26-1.24 2.16-1.244 2.48 0 4.94 0.656 7.1 1.9 3.28 1.896 5.62 4.96 6.6 8.626 0.98 3.66 0.48 7.48-1.42 10.78-0.44 0.76-1.28 1.24-2.16 1.24zM12.654 31.41c-5.070 0-9.792-2.724-12.32-7.106-0.69-1.19-0.276-2.72 0.92-3.408 1.16-0.67 2.752-0.234 3.414 0.914 1.64 2.84 4.696 4.6 7.98 4.6 1.6 0 3.192-0.426 4.59-1.232 1.38-0.82 2.54-1.98 3.36-3.38 0.22-0.38 0.52-0.7 0.92-0.92 1.14-0.68 2.74-0.24 3.4 0.9 0.44 0.76 0.44 1.72-0.020 2.5-1.24 2.16-3.040 3.94-5.2 5.2-2.16 1.24-4.62 1.9-7.1 1.9zM13.646 9.264c-1.486 1.376-2.416 3.344-2.416 5.53 0 1.372 0.37 2.654 1.012 3.764 0.36 0.62 0.56 1.32 0.56 2.080 0 1.66-0.98 3.1-2.38 3.76 1.94 0.6 4.1 0.42 6-0.68 1.2-0.7 2.12-1.66 2.76-2.76 0.36-0.62 0.88-1.16 1.54-1.52 1.44-0.84 3.18-0.7 4.46 0.18-0.44-1.98-1.68-3.78-3.58-4.86-1.18-0.68-2.48-1-3.76-1-0.72 0-1.44-0.2-2.080-0.56-1.44-0.84-2.2-2.4-2.060-3.96zM8.63 23.144c-0.884 0-1.712-0.48-2.16-1.252-1.246-2.156-1.904-4.612-1.904-7.1 0-7.83 6.374-14.2 14.21-14.2 1.372 0 2.492 1.12 2.492 2.5s-1.12 2.5-2.5 2.5c-5.076 0-9.2 4.128-9.2 9.2 0 1.612 0.424 3.2 1.232 4.6 0.22 0.374 0.332 0.806 0.332 1.248 0 1.38-1.12 2.5-2.5 2.5z"></path>
</svg>
