<!-- Generated by IcoMoon.io -->
<svg version="1.1" xmlns="http://www.w3.org/2000/svg" width="32" height="32" viewBox="0 0 32 32">
<title>brand30</title>
<path fill="#d33c43" d="M0 18.5v4.994c0 2.756 7.16 4.99 16 4.99v-4.99c-8.84 0-16-2.24-16-4.992zM28.512 21.61l-12.512-3.11v4.994l12.512 3.11c2.18-0.854 3.488-1.934 3.488-3.11v-4.994c0 1.176-1.31 2.256-3.488 3.11zM16 13.51v4.99c-8.836 0-16-2.236-16-4.992v-5c0-2.754 7.16-4.992 16-4.992 8.834 0 16 2.24 16 4.992v5c0 1.174-1.308 2.254-3.488 3.108l-12.512-3.108z"></path>
</svg>
