<!-- Generated by IcoMoon.io -->
<svg version="1.1" xmlns="http://www.w3.org/2000/svg" width="32" height="32" viewBox="0 0 32 32">
<title>brand124</title>
<path fill="#4679a4" d="M28.126 15c0.012-0.188 0.028-0.372 0.028-0.56 0-5.18-4.26-9.38-9.52-9.38-0.010-0-0.021-0-0.033-0-3.74 0-6.977 2.156-8.536 5.293-0.759-0.511-1.692-0.852-2.705-0.853-2.428 0-4.396 1.936-4.396 4.324 0 0.45 0.070 0.884 0.2 1.29-1.899 1.111-3.157 3.138-3.164 5.459 0 3.473 2.834 6.293 6.35 6.345h19.012c0.12 0 0.24 0.020 0.36 0.020 3.48 0 6.3-2.78 6.3-6.22-0.016-2.575-1.597-4.778-3.839-5.705zM8.594 22.14c-0.64-0.58-1.040-1.28-1.2-2.11-0.051-0.258-0.080-0.554-0.080-0.857 0-0.004 0-0.009 0-0.013 0-1.179 0.43-2.151 1.29-2.919s1.95-1.152 3.276-1.152c1.36 0 2.64 0.51 3.776 1.528 0.28 0.254 0.556 0.54 0.82 0.856l1.456 1.714c0.252 0.344 0.52 0.64 0.8 0.894 0.75 0.672 1.56 1.008 2.248 1.008 0.584 0 1.070-0.18 1.46-0.536 0.322-0.295 0.536-0.703 0.579-1.161l0.011-0.203c0-0.003 0-0.006 0-0.009 0-0.196-0.031-0.384-0.090-0.56-0.29-0.774-1.035-1.325-1.909-1.325-0.024 0-0.048 0-0.071 0.001-0.723-0-1.441 0.244-2.229 1.008l-1.29-1.52-0.14-0.172c1.14-1.106 2.26-1.52 3.78-1.52 1.34 0 2.44 0.38 3.26 1.14l0.020 0.020c0.86 0.76 1.28 1.74 1.28 2.946 0 0.28-0.020 0.58-0.080 0.84-0.16 0.82-0.56 1.5-1.18 2.080-0.612 0.561-1.392 0.948-2.256 1.077-0.324 0.043-0.624 0.063-0.964 0.063-1.38 0-2.68-0.5-3.78-1.5-0.311-0.282-0.592-0.582-0.848-0.905l-1.472-1.715c-0.236-0.337-0.493-0.632-0.777-0.897-0.743-0.683-1.563-1.003-2.283-1.003-0.002 0-0.004 0-0.005 0-0.219 0-0.43 0.029-0.631 0.084-0.311 0.081-0.594 0.241-0.824 0.457-0.356 0.33-0.579 0.802-0.579 1.325 0 0.005 0 0.010 0 0.015 0 0.519 0.18 0.959 0.56 1.319l0.020 0.020c0.4 0.36 0.9 0.54 1.48 0.54 0.74 0 1.46-0.26 2.24-1.020l1.28 1.5 0.14 0.16c-1.16 1.12-2.28 1.54-3.74 1.54-1.34 0-2.44-0.38-3.28-1.14z"></path>
</svg>
