<!-- Generated by IcoMoon.io -->
<svg version="1.1" xmlns="http://www.w3.org/2000/svg" width="32" height="32" viewBox="0 0 32 32">
<title>brand214</title>
<path d="M16 27.046c-0.856 0.71-1.74 1.34-2.632 1.89 0.776 1.208 1.66 2.24 2.632 3.064 0.97-0.82 1.856-1.856 2.632-3.064-0.894-0.548-1.776-1.18-2.632-1.89zM24.64 23.082c0.28 2.5 0.060 4.84-0.64 6.78-2.036-0.36-4.164-1.34-6.18-2.82 2.732-0.44 5.134-1.88 6.82-3.94zM7.36 23.082c1.686 2.060 4.088 3.5 6.82 3.96-2.016 1.5-4.144 2.46-6.18 2.84-0.7-1.94-0.92-4.28-0.64-6.76zM23.81 22.262c-1.54 1.92-3.768 3.26-6.31 3.64 0.9-0.84 1.756-1.8 2.564-2.84 1.304-0.18 2.56-0.44 3.746-0.78zM8.19 22.262c1.184 0.36 2.44 0.62 3.746 0.8 0.808 1.040 1.664 2 2.564 2.86-2.54-0.38-4.772-1.72-6.31-3.64zM12.546 10.022c1.070-1.422 2.234-2.702 3.454-3.802 1.22 1.094 2.384 2.366 3.454 3.796 1.774 0.212 3.46 0.586 5.016 1.094-0.34 1.6-0.86 3.248-1.56 4.89 0.7 1.64 1.22 3.288 1.56 4.89-1.556 0.508-3.24 0.88-5.016 1.094-1.070 1.43-2.236 2.7-3.454 3.796-1.22-1.094-2.384-2.366-3.454-3.796-1.774-0.212-3.46-0.586-5.016-1.094 0.34-1.6 0.86-3.248 1.56-4.89-0.7-1.64-1.22-3.288-1.56-4.89 1.556-0.508 3.24-0.88 5.016-1.094zM3.48 20.2c-0.656 1.28-1.11 2.56-1.336 3.812 1.196 0.42 2.534 0.68 3.97 0.74 0.026-1.052 0.132-2.132 0.32-3.23-1.044-0.38-2.032-0.82-2.952-1.32zM28.52 20.2c-0.92 0.5-1.91 0.948-2.954 1.334 0.188 1.1 0.294 2.18 0.32 3.232 1.436-0.070 2.774-0.32 3.97-0.748-0.226-1.24-0.68-2.52-1.34-3.8zM26.46 12.060c2.296 1 4.2 2.36 5.54 3.94-1.34 1.58-3.244 2.94-5.54 3.94 0.46-1.226 0.712-2.554 0.712-3.94s-0.252-2.714-0.714-3.94zM5.54 12.060c-0.46 1.226-0.712 2.554-0.712 3.94s0.252 2.714 0.714 3.94c-2.282-1-4.202-2.36-5.542-3.94 1.34-1.58 3.244-2.94 5.54-3.94zM25.314 12.354c0.44 1.13 0.686 2.36 0.686 3.646s-0.244 2.516-0.686 3.646c-0.29-1.212-0.69-2.43-1.186-3.646 0.496-1.216 0.896-2.434 1.186-3.646zM6.686 12.354c0.29 1.212 0.69 2.43 1.186 3.646-0.496 1.216-0.896 2.434-1.186 3.646-0.44-1.13-0.686-2.36-0.686-3.646s0.244-2.516 0.686-3.646zM6.114 7.254c-1.436 0.068-2.774 0.32-3.97 0.746 0.226 1.25 0.68 2.534 1.34 3.812 0.92-0.5 1.906-0.948 2.95-1.334-0.188-1.1-0.294-2.18-0.32-3.24zM25.886 7.254c-0.026 1.046-0.132 2.126-0.32 3.224 1.044 0.38 2.032 0.82 2.952 1.32 0.64-1.28 1.1-2.56 1.32-3.82-1.2-0.44-2.54-0.68-3.98-0.76zM17.5 6.114c2.54 0.38 4.772 1.72 6.31 3.64-1.184-0.35-2.44-0.614-3.746-0.792-0.808-1.040-1.664-2-2.564-2.84zM14.5 6.114c-0.9 0.848-1.756 1.808-2.564 2.848-1.304 0.18-2.56 0.46-3.746 0.8 1.54-1.92 3.768-3.26 6.31-3.64zM17.82 4.974c2.016-1.49 4.144-2.46 6.18-2.83 0.7 1.95 0.92 4.28 0.64 6.774-1.686-2.060-4.088-3.5-6.82-3.96zM7.36 8.92c-0.28-2.496-0.060-4.828 0.64-6.78 2.036 0.37 4.164 1.34 6.18 2.83-2.732 0.45-5.134 1.892-6.82 3.944zM18.634 3.060c-0.78-1.204-1.66-2.236-2.634-3.060-0.97 0.82-1.856 1.856-2.632 3.064 0.894 0.548 1.776 1.18 2.632 1.89 0.856-0.71 1.74-1.34 2.632-1.89z"></path>
</svg>
