
<svg version="1.1" xmlns="http://www.w3.org/2000/svg" width="32" height="32" viewBox="0 0 32 32">
<title>brand271</title>
<path fill="#dd4814" d="M16 0c8.83 0 16 7.17 16 16s-7.17 16-16 16-16-7.17-16-16 7.17-16 16-16zM20.372 23.572c-1.020 0.59-1.372 1.896-0.78 2.92 0.588 1.020 1.894 1.37 2.916 0.78 1.020-0.59 1.372-1.896 0.78-2.92-0.588-1.020-1.894-1.37-2.916-0.78zM16 22.24c-0.94 0-1.83-0.21-2.628-0.58l-1.484 2.66c1.24 0.612 2.636 0.96 4.112 0.96 0.86 0 1.69-0.12 2.48-0.34 0.14-0.856 0.648-1.646 1.46-2.116 0.812-0.468 1.75-0.514 2.56-0.208 1.58-1.552 2.61-3.666 2.76-6.020l-3.046-0.044c-0.28 3.188-2.954 5.688-6.214 5.688zM9.76 16c0-2.11 1.050-3.976 2.654-5.106l-1.56-2.616c-1.872 1.24-3.26 3.16-3.84 5.38 0.674 0.54 1.106 1.38 1.106 2.32s-0.432 1.76-1.106 2.32c0.58 2.22 1.968 4.14 3.84 5.38l1.56-2.62c-1.604-1.098-2.654-2.958-2.654-5.058zM5.12 13.864c-1.18 0-2.136 0.956-2.136 2.136s0.956 2.136 2.136 2.136c1.18 0 2.136-0.956 2.136-2.136s-0.956-2.136-2.136-2.136zM16 9.76c3.26 0 5.934 2.5 6.214 5.686l3.046-0.046c-0.152-2.352-1.18-4.464-2.76-6.020-0.812 0.31-1.75 0.26-2.56-0.206-0.812-0.468-1.32-1.26-1.46-2.12-0.792-0.214-1.62-0.334-2.48-0.334-1.48 0-2.874 0.346-4.112 0.96l1.484 2.66c0.8-0.372 1.69-0.58 2.628-0.58zM20.372 8.426c1.020 0.59 2.328 0.24 2.92-0.78 0.588-1.020 0.24-2.328-0.784-2.92-1.020-0.588-2.328-0.24-2.92 0.784-0.588 1.020-0.24 2.326 0.784 2.916z"></path>
</svg>
