<!-- Generated by IcoMoon.io -->
<svg version="1.1" xmlns="http://www.w3.org/2000/svg" width="32" height="32" viewBox="0 0 32 32">
<title>brand177</title>
<path fill="#fc7e0f" d="M16 32c-8.836 0-16-7.164-16-16s7.164-16 16-16 16 7.164 16 16-7.164 16-16 16zM12.6 30.16c0.864-0.66 1.694-1.426 2.468-2.286-0.396-0.454-0.776-0.93-1.14-1.432l-1.472 3.68 0.146 0.040zM15.98 26.78c0.5-0.64 0.968-1.33 1.4-2.060l-1.38-3.46-1.4 3.5c0.428 0.716 0.89 1.39 1.38 2.020zM16.816 27.79c0.8 0.9 1.656 1.692 2.55 2.376l0.18-0.044-1.546-3.862c-0.38 0.54-0.776 1.046-1.186 1.532zM17.79 30.45c-0.648-0.506-1.274-1.060-1.874-1.666-0.58 0.6-1.184 1.152-1.808 1.652 0.62 0.080 1.25 0.12 1.892 0.12 0.606 0 1.204-0.036 1.79-0.108zM16 1.44c-8.040 0-14.56 6.52-14.56 14.56 0 6.43 4.172 11.886 9.956 13.814l3.74-11.214c-1.090-0.364-1.874-1.39-1.874-2.6 0-1.512 1.24-2.74 2.74-2.74 1.52 0 2.74 1.228 2.74 2.74 0 1.21-0.78 2.236-1.86 2.6l3.74 11.214c5.78-1.928 9.96-7.384 9.96-13.814-0.022-8.040-6.542-14.56-14.582-14.56zM24.104 24.104l-1.020-1.020c1.812-1.814 2.934-4.32 2.934-7.084 0-2.766-1.14-5.27-2.94-7.084l1.020-1.020c2.080 2.074 3.36 4.94 3.36 8.104s-1.3 6.030-3.36 8.104zM19.95 19.95c1.010-1.012 1.636-2.408 1.636-3.95 0-1.54-0.626-2.94-1.636-3.95l1.020-1.020c1.27 1.27 2.056 3.030 2.056 4.97s-0.786 3.7-2.060 4.968l-1.016-1.020zM11.030 20.97c-1.27-1.274-2.054-3.030-2.054-4.97s0.786-3.7 2.060-4.968l1.016 1.020c-1.012 1.008-1.64 2.404-1.64 3.948 0 1.54 0.628 2.94 1.64 3.95l-1.020 1.020zM7.9 24.1c-2.076-2.070-3.36-4.936-3.36-8.1s1.284-6.030 3.356-8.104l1.020 1.020c-1.812 1.814-2.936 4.32-2.936 7.084 0 2.766 1.124 5.27 2.936 7.084l-1.020 1.020z"></path>
</svg>
