
<svg version="1.1" xmlns="http://www.w3.org/2000/svg" width="32" height="32" viewBox="0 0 32 32">
<title>brand202</title>
<path fill="#900" d="M24.168 16.176v0.004l-0.44 3.95c-1.854-1.516-4.876-2.648-7.744-2.648-2.852 0-5.86 1.14-7.716 2.64l-0.436-3.94c-0.004-1.2-0.59-2.26-1.48-2.94 0.512-4.86 4.62-8.66 9.632-8.66 5.020 0 9.134 3.82 9.636 8.7-0.874 0.68-1.448 1.74-1.452 2.94z"></path>
<path fill="#900" d="M23.192 24.64h-14.386l-0.49-3.848c1.774-1.714 4.544-2.724 7.668-2.724 3.14 0 5.924 1.016 7.696 2.75l-0.488 3.82zM7.366 27.44c-1.512 0-1.43-0.026-1.43-1.54l-2.332-5.426c-2-0.070-3.604-1.714-3.604-3.73 0-2.066 1.674-3.74 3.74-3.74 2.060 0 3.73 1.67 3.734 3.73v0.004l0.996 8.96c0 1.5 0.408 1.74-1.104 1.74zM28.396 20.458l-2.332 5.42c0 1.5 0.080 1.56-1.43 1.56-1.512 0-1.104-0.26-1.104-1.76l0.994-8.96c0.006-2.060 1.68-3.74 3.74-3.74s3.736 1.68 3.736 3.74c0 2.020-1.6 3.66-3.604 3.72z"></path>
</svg>
