<!-- Generated by IcoMoon.io -->
<svg version="1.1" xmlns="http://www.w3.org/2000/svg" width="32" height="32" viewBox="0 0 32 32">
<title>brand284</title>
<path fill="#25d366" d="M23.33 19.176c-0.4-0.2-2.354-1.156-2.72-1.288-0.364-0.134-0.63-0.2-0.896 0.2-0.264 0.394-1.028 1.286-1.26 1.55-0.232 0.26-0.464 0.28-0.86 0.1-0.4-0.2-1.684-0.62-3.204-1.98-1.184-1.060-1.98-2.36-2.214-2.76-0.232-0.4-0.026-0.62 0.174-0.82 0.18-0.18 0.4-0.46 0.6-0.7 0.196-0.24 0.26-0.4 0.396-0.66 0.132-0.28 0.066-0.5-0.034-0.7s-0.896-2.16-1.228-2.94c-0.32-0.78-0.65-0.68-0.896-0.68-0.23-0.020-0.496-0.020-0.76-0.020-0.268 0-0.7 0.1-1.064 0.48-0.364 0.4-1.392 1.36-1.392 3.3s1.426 3.82 1.624 4.1c0.2 0.26 2.808 4.26 6.8 5.98 0.952 0.4 1.692 0.64 2.272 0.84 0.952 0.3 1.82 0.26 2.506 0.16 0.766-0.12 2.356-0.96 2.688-1.9 0.34-0.94 0.34-1.72 0.24-1.9s-0.36-0.28-0.76-0.46zM16.080 29h-0.020c-2.36 0-4.7-0.64-6.74-1.84l-0.48-0.286-5 1.3 1.34-4.86-0.32-0.5c-1.32-2.1-2.020-4.52-2.020-7.012 0-7.26 5.94-13.18 13.256-13.18 3.54 0 6.86 1.38 9.36 3.88 2.5 2.48 3.88 5.8 3.88 9.32-0.006 7.26-5.946 13.18-13.246 13.18zM27.36 4.6c-3.040-2.94-7.040-4.6-11.3-4.6-8.776 0-15.92 7.112-15.926 15.856 0 2.794 0.732 5.52 2.126 7.928l-2.26 8.216 8.446-2.204c2.328 1.26 4.948 1.928 7.614 1.93h0.008c8.78 0 15.928-7.114 15.932-15.86 0-4.234-1.654-8.22-4.66-11.216z"></path>
</svg>
