
<svg version="1.1" xmlns="http://www.w3.org/2000/svg" width="32" height="32" viewBox="0 0 32 32">
<title>brand8</title>
<path fill="#a4c639" d="M29.54 12.32c0-1.088-0.88-1.972-1.972-1.972s-1.976 0.884-1.976 1.976v8.27c0 1.092 0.886 1.974 1.98 1.976 1.088 0 1.972-0.884 1.972-1.976v-8.274zM7.174 10.726l0.004 12.816c0 1.18 0.94 2.12 2.1 2.12h1.42v4.38c0 1.1 0.88 1.98 1.96 1.98s1.96-0.88 1.98-1.96v-4.38h2.66v4.38c0 1.1 0.88 1.98 1.96 1.98 1.1 0 1.98-0.88 1.98-1.98v-4.38h1.44c1.16 0 2.1-0.94 2.1-2.1v-12.862l-17.66 0.004zM20.054 6.814c-0.414 0-0.748-0.332-0.748-0.746 0-0.408 0.334-0.746 0.746-0.748 0.408 0 0.744 0.34 0.744 0.746 0 0.412-0.334 0.746-0.744 0.746zM11.952 6.812c-0.412 0-0.746-0.332-0.746-0.744 0-0.41 0.334-0.746 0.744-0.746 0.414 0 0.748 0.34 0.748 0.76s-0.34 0.76-0.76 0.76zM20.338 2.962l1.38-2.52c0.080-0.14 0.020-0.3-0.1-0.38-0.14-0.060-0.3-0.020-0.38 0.12l-1.4 2.54c-1.158-0.542-2.478-0.842-3.858-0.842s-2.692 0.286-3.86 0.804l-1.38-2.54c-0.072-0.13-0.24-0.18-0.372-0.106-0.134 0.060-0.18 0.24-0.108 0.36l1.38 2.5c-2.71 1.4-4.54 4.060-4.54 7.12h17.792c0-3.060-1.828-5.72-4.534-7.12zM4.42 10.34c-1.092 0-1.976 0.888-1.976 1.98v8.268c0 1.094 0.886 1.976 1.98 1.976 1.088 0 1.972-0.88 1.972-1.976v-8.264c0-1.090-0.884-1.974-1.974-1.974z"></path>
</svg>
