<!-- Generated by IcoMoon.io -->
<svg version="1.1" xmlns="http://www.w3.org/2000/svg" width="32" height="32" viewBox="0 0 32 32">
<title>brand165</title>
<path fill="#ffc619" d="M26.296 0.804h-20.556c-2.839 0-5.14 2.301-5.14 5.14v20.556c0 2.839 2.301 5.14 5.14 5.14h20.556c2.839 0 5.14-2.301 5.14-5.14v-20.556c0-2.839-2.301-5.14-5.14-5.14zM16.448 21.74l-1.112-8.684-3.314 5.96-3.32-5.94-1.1 8.664h-2.482l1.8-12.96h1.94l3.16 5.9 3.152-5.9h1.944l1.796 12.96h-2.46zM24.836 14.37h-2.036v4.184c0 1.408 0.112 1.48 1.408 1.48h0.63l-0.22 1.89h-1.66c-1.74 0-2.48-1.22-2.48-2.426v-5.138h-1.32l0.2-1.888h1.1v-2.028l2.3-0.24v2.28h2.040v1.886zM26.992 21.926h-1.908l0.206-1.908h1.908l-0.22 1.9z"></path>
</svg>
