<!-- Generated by IcoMoon.io -->
<svg version="1.1" xmlns="http://www.w3.org/2000/svg" width="32" height="32" viewBox="0 0 32 32">
<title>brand172</title>
<path d="M24.18 18.6c-0.426 0.294-0.9 0.472-1.408 0.554-0.51 0.080-1.016 0.066-1.524 0.066h-10.496c-0.51 0-1.016 0.016-1.526-0.066-0.508-0.084-0.98-0.26-1.41-0.556-0.856-0.6-1.37-1.56-1.37-2.6 0-1.060 0.516-2.020 1.372-2.6 0.42-0.3 0.9-0.48 1.4-0.56s1-0.080 1.52-0.080h10.5c0.5 0 1.020-0.020 1.52 0.060s0.98 0.26 1.4 0.54c0.86 0.58 1.36 1.56 1.36 2.6s-0.52 2-1.38 2.6zM28.412 8.526c-1.126-0.904-2.416-1.528-3.82-1.866-0.8-0.194-1.606-0.28-2.43-0.306-0.6-0.020-1.2-0.014-1.82-0.014h-8.662c-0.61 0-1.22-0.006-1.83 0.014-0.824 0.028-1.628 0.112-2.432 0.306-1.4 0.34-2.7 0.964-3.82 1.868-2.278 1.82-3.598 4.566-3.598 7.472 0 2.908 1.32 5.654 3.586 7.474 1.128 0.904 2.42 1.528 3.82 1.866 0.804 0.194 1.608 0.28 2.432 0.306 0.6 0.020 1.2 0.014 1.82 0.014h8.66c0.6 0 1.22 0.006 1.82-0.014 0.82-0.026 1.62-0.112 2.42-0.306 1.4-0.34 2.68-0.964 3.82-1.868 2.302-1.82 3.622-4.566 3.622-7.472 0-2.908-1.32-5.654-3.588-7.474z"></path>
</svg>
