<!-- Generated by IcoMoon.io -->
<svg version="1.1" xmlns="http://www.w3.org/2000/svg" width="32" height="32" viewBox="0 0 32 32">
<title>brand192</title>
<path fill="#93c" d="M16 32s3.5 0 3.5-10.36c0-1.93-1.568-3.5-3.5-3.5s-3.5 1.57-3.5 3.5c0 10.36 3.5 10.36 3.5 10.36zM20.294 28.468c0.154-0.592 0.272-1.19 0.366-1.794l0.070-0.48c0.154-0.064 0.308-0.13 0.46-0.2 2.43-1.1 4.476-2.98 5.78-5.306 0.594-1.068 1.032-2.22 1.292-3.42 0.3-1.34 0.38-2.736 0.22-4.104-0.14-1.28-0.48-2.532-1.020-3.706-0.62-1.38-1.48-2.64-2.56-3.7-1.1-1.1-2.4-2-3.82-2.62-1.46-0.66-3.060-1-4.68-1.040s-3.24 0.22-4.76 0.8c-1.46 0.56-2.8 1.38-3.96 2.44-1.1 1-2.040 2.22-2.72 3.56-0.58 1.14-0.98 2.36-1.2 3.62-0.22 1.3-0.22 2.64-0.020 3.96 0.18 1.16 0.52 2.3 1.020 3.38 1.18 2.5 3.18 4.58 5.66 5.84 0.3 0.14 0.6 0.28 0.92 0.42 0.020 0.16 0.060 0.34 0.080 0.52 0.1 0.58 0.22 1.18 0.36 1.76-0.54-0.18-1.080-0.38-1.6-0.62-2.86-1.3-5.28-3.54-6.78-6.32-0.68-1.26-1.16-2.6-1.46-4-0.34-1.54-0.4-3.16-0.2-4.74 0.2-1.48 0.62-2.94 1.24-4.28 0.74-1.58 1.78-3.040 3.020-4.26 1.218-1.218 2.738-2.238 4.398-2.938 1.732-0.728 3.594-1.116 5.466-1.14 1.876-0.020 3.754 0.32 5.5 1.006 1.684 0.664 3.236 1.648 4.56 2.88 1.28 1.19 2.34 2.608 3.116 4.172 0.66 1.32 1.12 2.76 1.34 4.22 0.24 1.52 0.24 3.080-0.020 4.58-0.22 1.4-0.68 2.78-1.3 4.060-1.4 2.82-3.72 5.14-6.54 6.54-0.7 0.34-1.44 0.64-2.2 0.88zM20.986 22.76l0.012-0.624c0-0.42 0-0.84-0.060-1.254-0.020-0.16-0.060-0.3-0.1-0.46 0.74-0.6 1.36-1.36 1.82-2.22 0.34-0.64 0.6-1.34 0.74-2.060 0.16-0.8 0.2-1.64 0.080-2.48-0.1-0.74-0.3-1.46-0.6-2.14-0.38-0.82-0.9-1.58-1.54-2.22-0.66-0.64-1.4-1.16-2.24-1.54-0.92-0.4-1.92-0.64-2.92-0.66s-2.020 0.16-2.96 0.52c-0.84 0.34-1.62 0.82-2.3 1.44s-1.24 1.34-1.64 2.16c-0.34 0.66-0.58 1.36-0.72 2.1-0.14 0.76-0.16 1.54-0.060 2.3 0.1 0.74 0.3 1.46 0.6 2.14 0.46 1.020 1.14 1.92 1.98 2.66l-0.12 0.54c-0.080 0.42-0.060 0.82-0.060 1.26v0.56c-1.4-0.86-2.56-2.1-3.34-3.54-0.46-0.82-0.78-1.7-0.96-2.62-0.22-1.020-0.26-2.080-0.12-3.12 0.12-0.94 0.38-1.86 0.76-2.7 0.46-1.040 1.14-2 1.94-2.82 0.82-0.82 1.78-1.48 2.82-1.94 1.16-0.52 2.42-0.8 3.68-0.84 1.28-0.020 2.56 0.2 3.74 0.66 1.080 0.42 2.060 1.040 2.92 1.82 0.84 0.78 1.56 1.7 2.080 2.72 0.42 0.84 0.74 1.74 0.9 2.66 0.16 0.96 0.2 1.94 0.060 2.9-0.12 0.94-0.38 1.86-0.78 2.72-0.78 1.74-2.12 3.24-3.76 4.22zM16 10.032c1.948 0 3.528 1.58 3.528 3.53 0 1.96-1.58 3.54-3.528 3.54s-3.528-1.58-3.528-3.52 1.58-3.522 3.528-3.522z"></path>
</svg>
