<!-- Generated by IcoMoon.io -->
<svg version="1.1" xmlns="http://www.w3.org/2000/svg" width="32" height="32" viewBox="0 0 32 32">
<title>brand250</title>
<path fill="#e62b1e" d="M3.24 13.18h-3.24v-2.96h10.040v2.96h-3.24v8.6h-3.56v-8.6zM10.594 10.22h9.746v2.96h-6.184v1.444h6.184v2.752h-6.184v1.44h6.184v2.966h-9.746v-11.562zM24.5 18.82h1.394c2.22 0 2.544-1.8 2.544-2.886 0-0.728-0.24-2.752-2.82-2.752h-1.14v5.64zM20.94 10.22h5.844c3.856 0 5.216 2.846 5.216 5.76 0 3.546-1.88 5.8-5.912 5.8h-5.148v-11.564z"></path>
</svg>
