
<svg version="1.1" xmlns="http://www.w3.org/2000/svg" width="32" height="32" viewBox="0 0 32 32">
<title>brand156</title>
<path fill="#217346" d="M31.404 4.134h-10.72v1.984h3.16v3.14h-3.16v1h3.16v3.142h-3.16v1.030h3.16v2.97h-3.16v1.19h3.16v2.98h-3.16v1.19h3.16v2.996h-3.16v2.184h10.72c0.168-0.050 0.31-0.248 0.424-0.596 0.114-0.35 0.172-0.632 0.172-0.848v-22c0-0.17-0.060-0.272-0.172-0.308-0.114-0.036-0.256-0.054-0.424-0.054zM30.014 25.754h-5.144v-2.994h5.144v2.996zM30.014 21.568h-5.144v-2.98h5.144v2.98zM30.014 17.398h-5.144v-2.958h5.144v2.96zM30.014 13.398h-5.144v-3.138h5.144v3.14zM30.014 9.238h-5.144v-3.118h5.144v3.14zM0 3.64v24.8l18.88 3.266v-31.416l-18.88 3.36zM11.19 22.4c-0.072-0.194-0.41-1.020-1.010-2.484-0.6-1.46-0.96-2.312-1.066-2.554h-0.034l-2.024 4.82-2.706-0.182 3.21-6-2.94-6 2.76-0.146 1.824 4.694h0.036l2.060-4.908 2.85-0.18-3.394 6.494 3.5 6.624-3.066-0.18z"></path>
</svg>
