
<svg version="1.1" xmlns="http://www.w3.org/2000/svg" width="32" height="32" viewBox="0 0 32 32">
<title>brand278</title>
<path fill="#11b48a" d="M30.026 15.908c-0.824 0.19-1.62 0.274-2.34 0.274-4.036 0-7.144-2.82-7.144-7.72 0-2.4 0.94-3.64 2.26-3.64 1.26 0 2.080 1.12 2.080 3.4 0 1.3-0.34 2.72-0.6 3.56 0 0 1.24 2.18 4.64 1.5 0.72-1.6 1.12-3.68 1.12-5.5 0-4.9-2.5-7.76-7.080-7.76-4.722-0.022-7.482 3.598-7.482 8.378 0 4.73 2.21 8.79 5.856 10.64-1.534 3.066-3.484 5.768-5.52 7.804-3.688-4.464-7.026-10.42-8.396-22.040h-5.446c2.516 19.356 10.014 25.516 11.996 26.696 1.12 0.672 2.088 0.64 3.112 0.064 1.62-0.916 6.46-5.75 9.14-11.41 1.12-0.004 2.48-0.132 3.82-0.436v-3.818z"></path>
</svg>
