<!-- Generated by IcoMoon.io -->
<svg version="1.1" xmlns="http://www.w3.org/2000/svg" width="32" height="32" viewBox="0 0 32 32">
<title>brand135</title>
<path fill="#e74430" d="M8.6 17.7l18.28-4.38c-1.014-1.436-5.612-7.954-6.056-8.574-0.5-0.7 0.012-1.024 0.824-1.16 0.812-0.14 7.804-1.314 8.404-1.4 0.504-0.074 0.92-0.236 1.616 0.41-0.64-1.524-2.152-2.596-3.912-2.596h-23.512c-2.072 0-3.794 1.48-4.168 3.444l8.524 14.256z"></path>
<path fill="#e74430" d="M30.314 3.834c-0.274 0.060-6.356 1.16-6.73 1.21s-0.25 0.26-0.1 0.476l5.352 7.34 3.164-0.78v-6.846c-0.44-0.56-0.76-0.97-0.836-1.080-0.34-0.46-0.576-0.384-0.85-0.32zM32 20.174c-1.556-2.13-3.25-4.45-3.412-4.68-0.22-0.32-0.34-0.38-0.864-0.212l-17.82 4.64s5.47 9.478 5.89 10.078c0.42 0.608 0.676 0.56 1.004 0.42 0.24-0.108 10.4-3.54 15.2-5.166v-5.074zM32 17.040v-2.68l-1.668 0.446 1.668 2.234zM21.060 32h6.696c2.234 0 4.064-1.726 4.23-3.916-3.42 1.236-7.848 2.82-10.928 3.916zM7.378 20.576l-7.4 1.928v5.252c0.022 2.344 1.922 4.244 4.262 4.244h9.6c-1.256-2.052-4.674-8.21-6.448-11.424zM5.896 17.816l-5.896-10.184v12.14l5.774-1.38c0.47-0.11 0.36-0.17 0.126-0.576z"></path>
<path fill="#e74430" d="M30.19 14.61l1.81-0.49v0.84l-1.24 0.414-0.57-0.764z"></path>
</svg>
