<!-- Generated by IcoMoon.io -->
<svg version="1.1" xmlns="http://www.w3.org/2000/svg" width="32" height="32" viewBox="0 0 32 32">
<title>brand261</title>
<path fill="#5fcf80" d="M27.26 5.84c-1.060-0.6-2.754 0.364-3.78 2.152l-1.864 3.24c-0.68 1.346-0.588 2.95 0.276 4.188l0.054 0.080c0.86 1.236 2.020 2.38 2.4 2.788 0.228 0.24 0.4 0.536 0.494 0.874 0.314 1.14-0.34 2.3-1.466 2.62-1.124 0.32-2.292-0.34-2.606-1.46-0.080-0.28-0.096-0.56-0.060-0.84 0.060-0.46-0.090-1.22-0.756-1.96s-2.028 0.66-2.468 2.12l-0.020 0.080c-0.44 1.44-0.72 2.7-0.636 2.82 0.050 0.080 0.096 0.16 0.14 0.24 0.616 1.16 0.174 2.6-0.988 3.22-1.16 0.62-2.606 0.18-3.22-0.98-0.62-1.16-0.18-2.6 0.984-3.22l0.16-0.080c0.086-0.040 0.34-0.64 0.556-1.36l0.396-1.3c0.024-0.060 0.044-0.14 0.060-0.22l1.18-4.2-1.26 2.58c-0.148-0.48-0.396-0.5-0.934-0.12-0.32 0.24-0.86 0.7-1.12 0.88-0.48 0.36-0.9 1.040-1.12 1.46-0.12 0.26-0.3 0.48-0.54 0.66-0.9 0.74-2.22 0.6-2.94-0.3s-0.58-2.22 0.32-2.94c0.28-0.22 0.58-0.36 0.88-0.42 0.54-0.12 2.34-1.22 3.42-2 0.2-0.14 0.36-0.26 0.5-0.4l2.9-2.2-2.52 1.36s-0.26-0.020-0.56 0.020c-0.92 0.1-1.88 0.24-2.060 0.46-0.1 0.14-0.22 0.26-0.38 0.36-0.84 0.6-2 0.42-2.62-0.42-0.6-0.84-0.4-2.020 0.44-2.62 0.34-0.24 0.76-0.36 1.14-0.36 0.68 0.020 2.46 0.38 3.94 0.12l0.38-0.060c1.5-0.26 3.26-1.56 3.98-2.88l1.56-2.72c0.86-1.5 0.8-3.14-0.14-3.68l-1.74-1c-0.86-0.48-2.26-0.48-3.1 0l-11.662 6.538c-0.88 0.46-1.58 1.66-1.58 2.64v12.828c0 0.98 0.7 2.18 1.552 2.66l11.65 6.56c0.86 0.48 2.26 0.48 3.1 0l11.62-6.56c0.86-0.484 1.56-1.68 1.56-2.66v-12.848c0-0.98-0.7-2.176-1.54-2.66l-1.92-1.084z"></path>
</svg>
