<!-- Generated by IcoMoon.io -->
<svg version="1.1" xmlns="http://www.w3.org/2000/svg" width="32" height="32" viewBox="0 0 32 32">
<title>brand3</title>
<path fill="#0085ca" d="M16 32l16-16-16-16-16 16 16 16zM16 6.19c5.414 0 9.81 4.396 9.81 9.81s-4.396 9.81-9.81 9.81c-5.414 0-9.81-4.396-9.81-9.81s4.396-9.81 9.81-9.81zM16 7.17c4.872 0 8.828 3.96 8.828 8.83 0 4.872-3.956 8.828-8.828 8.828s-8.828-3.956-8.828-8.828 3.956-8.828 8.828-8.828zM16.304 16.818c-0.046 0.040-0.1 0.094-0.164 0.148-0.16 0.14-0.348 0.244-0.554 0.3-0.126 0.036-0.272 0.056-0.44 0.056-0.328 0-0.592-0.104-0.79-0.314-0.2-0.208-0.3-0.526-0.3-0.952 0-0.4 0.096-0.716 0.28-0.952 0.186-0.236 0.448-0.352 0.788-0.352 0.14 0 0.274 0.016 0.406 0.054 0.12 0.036 0.23 0.080 0.326 0.134 0.088 0.048 0.172 0.104 0.252 0.168 0.068 0.052 0.132 0.108 0.196 0.166h0.17v-1.14c-0.44-0.224-0.92-0.34-1.414-0.34-0.304 0-0.606 0.040-0.9 0.126-0.272 0.076-0.526 0.21-0.746 0.39-0.22 0.186-0.394 0.42-0.524 0.704-0.13 0.286-0.194 0.63-0.194 1.040 0 0.376 0.060 0.704 0.18 0.984 0.108 0.266 0.28 0.504 0.496 0.692 0.22 0.19 0.48 0.328 0.76 0.41 0.29 0.088 0.614 0.132 0.964 0.132 0.186 0 0.336-0.012 0.448-0.030 0.112-0.020 0.234-0.046 0.36-0.080 0.106-0.030 0.208-0.064 0.308-0.106 0.086-0.040 0.174-0.076 0.264-0.114v-1.122h-0.172zM12.184 18.166v-2.892c0-0.5-0.166-0.872-0.5-1.116-0.334-0.246-0.868-0.368-1.6-0.368-0.3 0-0.594 0.026-0.886 0.080-0.296 0.050-0.508 0.094-0.64 0.132v1.028h0.116c0.2-0.088 0.4-0.16 0.61-0.22 0.21-0.056 0.392-0.084 0.546-0.084 0.346 0 0.604 0.044 0.776 0.136 0.172 0.088 0.26 0.25 0.26 0.484v0.024c-0.384 0.024-0.74 0.060-1.072 0.104-0.332 0.048-0.62 0.128-0.86 0.24-0.234 0.116-0.416 0.27-0.54 0.464-0.126 0.196-0.188 0.448-0.188 0.766 0 0.386 0.12 0.7 0.37 0.954 0.246 0.252 0.56 0.38 0.932 0.38 0.2 0 0.36-0.020 0.47-0.046 0.12-0.032 0.24-0.076 0.348-0.13 0.12-0.060 0.216-0.12 0.288-0.18l0.244-0.206v0.448h1.326zM17.172 13.92v4.25h1.326v-3.016c0.1-0.066 0.2-0.126 0.304-0.18 0.104-0.048 0.212-0.074 0.32-0.074 0.14 0 0.252 0.020 0.332 0.064 0.080 0.040 0.144 0.112 0.18 0.2 0.036 0.090 0.060 0.208 0.068 0.352 0.008 0.146 0.012 0.32 0.012 0.528v2.126h1.326v-3.016c0.1-0.072 0.21-0.136 0.324-0.188 0.1-0.040 0.2-0.066 0.3-0.066 0.144 0 0.256 0.020 0.336 0.064 0.080 0.040 0.144 0.112 0.176 0.2 0.040 0.088 0.060 0.208 0.068 0.35 0.008 0.144 0.012 0.32 0.012 0.53v2.128h1.328v-2.768c0-0.3-0.030-0.548-0.090-0.736s-0.148-0.35-0.268-0.486c-0.108-0.124-0.24-0.22-0.4-0.28-0.154-0.066-0.33-0.1-0.526-0.1-0.232 0-0.46 0.066-0.688 0.194-0.224 0.128-0.466 0.31-0.72 0.546-0.104-0.244-0.254-0.428-0.452-0.552-0.196-0.124-0.424-0.186-0.684-0.186-0.226 0-0.448 0.052-0.646 0.16-0.22 0.12-0.424 0.264-0.614 0.43v-0.474h-1.326zM10.86 17.060v-0.88c-0.224 0.020-0.404 0.040-0.54 0.060-0.14 0.014-0.276 0.046-0.406 0.094-0.116 0.040-0.204 0.1-0.27 0.18-0.060 0.084-0.094 0.194-0.094 0.326 0 0.2 0.052 0.336 0.16 0.41 0.104 0.074 0.26 0.11 0.47 0.11 0.116 0 0.232-0.026 0.352-0.080 0.12-0.048 0.228-0.124 0.328-0.22z"></path>
</svg>
