<!-- Generated by IcoMoon.io -->
<svg version="1.1" xmlns="http://www.w3.org/2000/svg" width="32" height="32" viewBox="0 0 32 32">
<title>brand32</title>
<path d="M12.192 16c0-2.112 1.712-3.808 3.808-3.808s3.808 1.712 3.808 3.808-1.712 3.808-3.808 3.808-3.808-1.712-3.808-3.808zM16 0c-7.472 0-13.728 5.12-15.504 12.032-0.016 0.048-0.016 0.096-0.016 0.16 0 0.416 0.336 0.768 0.768 0.768h6.448c0.304 0 0.576-0.176 0.688-0.448 1.328-2.88 4.24-4.896 7.616-4.896 4.624 0 8.384 3.76 8.384 8.384s-3.76 8.384-8.384 8.384c-3.376 0-6.288-2-7.616-4.896-0.128-0.256-0.384-0.448-0.688-0.448h-6.448c-0.416 0-0.768 0.336-0.768 0.768 0 0.048 0.016 0.096 0.016 0.16 1.76 6.912 8.032 12.032 15.504 12.032 8.832 0 16-7.168 16-16s-7.168-16-16-16z"></path>
</svg>
