
<svg version="1.1" xmlns="http://www.w3.org/2000/svg" width="32" height="32" viewBox="0 0 32 32">
<title>brand111</title>
<path fill="#6a3" d="M5.034 14.012h-1.614c-0.56 0-0.872 0.124-0.872 0.124v-3.42h-2.548v10.566h2.548v-4.222c0-0.434 0.31-0.746 0.684-0.746h1.49c0.38 0 0.7 0.312 0.7 0.684v4.28h2.54v-4.6c-0.002-1.938-1.302-2.678-2.922-2.678zM29.46 14v4.24c0 0.372-0.314 0.68-0.688 0.68h-1.49c-0.36 0-0.68-0.308-0.68-0.68v-4.23h-2.54v4.474c0 1.8 1.18 2.796 2.92 2.796h2.5c1.62 0 2.56-1.114 2.56-2.792v-4.476h-2.56zM15.1 18.22c0 0.38-0.312 0.688-0.684 0.688h-1.492c-0.372 0-0.684-0.312-0.684-0.686v-4.222h-2.546v4.48c0 1.8 1.18 2.8 2.92 2.8h2.486c1.614 0 2.546-1.112 2.546-2.79v-4.48h-2.546v4.23zM19.634 21.27h2.548v-10.55h-2.542v10.56z"></path>
</svg>
