<!-- Generated by IcoMoon.io -->
<svg version="1.1" xmlns="http://www.w3.org/2000/svg" width="32" height="32" viewBox="0 0 32 32">
<title>brand130</title>
<path fill="#82bc23" d="M15.308 22.348c-0.012 0.916-0.746 1.654-1.65 1.654-0.92 0-1.64-0.72-1.66-1.64h-0.020v-8.322h0.022v-0.040c0-0.924 0.74-1.674 1.65-1.674 0.908 0 1.648 0.75 1.648 1.676v0.060h0.020v8.3h-0.020zM30.158 15.828c1 0 1.84 0.824 1.84 1.836 0 1.014-0.84 1.834-1.84 1.834-1.020 0-1.86-0.82-1.86-1.84s0.82-1.84 1.84-1.84zM27.378 21.408c0.16 0.26 0.26 0.576 0.26 0.914 0 0.94-0.74 1.68-1.66 1.68-0.62 0-1.16-0.34-1.44-0.84l-2.738-3.662-0.84 0.78v2.18h-0.020c-0.050 0.87-0.76 1.56-1.63 1.56-0.9 0-1.63-0.74-1.63-1.654v-0.032h-0.020v-12.6h0.036v-0.060c0-0.92 0.734-1.67 1.64-1.67 0.9 0 1.634 0.748 1.634 1.67v0.094h0.020l0.014 6.128 3.080-3.014c0.306-0.34 0.746-0.54 1.236-0.54 0.92 0 1.666 0.76 1.666 1.68 0 0.46-0.176 0.86-0.46 1.16l0.016 0.020-2.16 2.14 3.040 4.080-0.020 0.020zM9.718 21.408c0.16 0.26 0.26 0.576 0.26 0.914 0 0.94-0.74 1.68-1.66 1.68-0.62 0-1.16-0.34-1.44-0.84l-2.738-3.662-0.84 0.78v2.176h-0.020c-0.048 0.872-0.76 1.56-1.628 1.56-0.9 0-1.632-0.74-1.632-1.652v-0.032h-0.020v-12.6h0.040c-0.004-0.020-0.004-0.040-0.004-0.060 0-0.92 0.734-1.668 1.64-1.668 0.9 0 1.634 0.744 1.634 1.666v0.094h0.020l0.014 6.132 3.080-3.014c0.306-0.34 0.748-0.54 1.24-0.54 0.916 0 1.66 0.76 1.66 1.68 0 0.44-0.174 0.86-0.46 1.16l0.020 0.020-2.168 2.14 3.028 4.080-0.020 0.020z"></path>
</svg>
