<!-- Generated by IcoMoon.io -->
<svg version="1.1" xmlns="http://www.w3.org/2000/svg" width="32" height="32" viewBox="0 0 32 32">
<title>brand57</title>
<path fill="#1488c6" d="M6.424 23.036c-0.912 0-1.74-0.746-1.74-1.656s0.746-1.656 1.74-1.656c0.992 0 1.74 0.746 1.74 1.656s-0.83 1.656-1.74 1.656zM27.778 14.016c-0.18-1.326-1-2.4-2.080-3.23l-0.42-0.332-0.34 0.414c-0.66 0.746-0.92 2.070-0.84 3.060 0.080 0.748 0.32 1.492 0.74 2.072-0.34 0.166-0.76 0.332-1.080 0.496-0.76 0.248-1.5 0.332-2.24 0.332h-21.398l-0.080 0.496c-0.16 1.574 0.080 3.228 0.75 4.72l0.332 0.58v0.080c2 3.312 5.56 4.8 9.44 4.8 7.46 0 13.58-3.226 16.48-10.18 1.9 0.084 3.82-0.414 4.72-2.234l0.24-0.414-0.4-0.248c-1.080-0.66-2.56-0.746-3.8-0.414zM17.098 12.69h-3.238v3.23h3.24v-3.232zM17.098 8.634h-3.238v3.226h3.24v-3.224zM17.098 4.494h-3.238v3.226h3.24v-3.224zM21.058 12.69h-3.218v3.23h3.228v-3.232zM9.058 12.69h-3.218v3.23h3.228v-3.232zM13.098 12.69h-3.2v3.23h3.22v-3.232zM5.058 12.69h-3.198v3.23h3.24v-3.232zM13.098 8.634h-3.2v3.226h3.22v-3.224zM9.038 8.634h-3.2v3.226h3.22v-3.224z"></path>
</svg>
