<!-- Generated by IcoMoon.io -->
<svg version="1.1" xmlns="http://www.w3.org/2000/svg" width="32" height="32" viewBox="0 0 32 32">
<title>brand163</title>
<path fill="#314359" d="M29.268 25.432c-0.206 0-0.412-0.060-0.594-0.18-0.492-0.334-0.62-1-0.3-1.48 0.986-1.46 1.5-3.176 1.5-4.96s-0.514-3.5-1.5-4.96c-0.33-0.492-0.192-1.156 0.288-1.476 0.5-0.332 1.16-0.194 1.48 0.286 1.22 1.82 1.86 3.96 1.86 6.16s-0.64 4.34-1.86 6.16c-0.18 0.32-0.52 0.48-0.86 0.48z"></path>
<path fill="#314359" d="M26.216 23.706c-0.206 0-0.412-0.060-0.596-0.184-0.492-0.32-0.616-0.98-0.286-1.46 0.652-0.96 0.996-2.060 0.996-3.24 0-1.14-0.344-2.26-0.996-3.24-0.33-0.48-0.206-1.14 0.286-1.46s1.144-0.2 1.476 0.3c0.892 1.32 1.36 2.86 1.36 4.42 0 1.6-0.468 3.12-1.36 4.42-0.194 0.32-0.54 0.48-0.88 0.48zM21.24 14.17c-0.42-4.264-4.020-7.6-8.4-7.6-3.628 0-6.84 2.33-7.994 5.71-2.73 0.404-4.846 2.76-4.846 5.604 0 3.124 2.55 5.672 5.68 5.672h14.544c2.62 0 4.756-2.126 4.756-4.744 0-2.274-1.6-4.172-3.74-4.64zM20.224 21.43h-14.54c-1.956 0-3.56-1.588-3.56-3.544 0-1.954 1.592-3.544 3.56-3.544 0.946 0 1.84 0.38 2.514 1.040 0.4 0.42 1.080 0.42 1.5 0 0.4-0.4 0.4-1.080 0-1.5-0.74-0.72-1.64-1.24-2.62-1.48 1-2.22 3.24-3.7 5.74-3.7 3.48 0 6.32 2.84 6.32 6.32 0 0.68-0.1 1.34-0.32 1.98-0.18 0.56 0.12 1.16 0.68 1.36 0.1 0.040 0.22 0.060 0.32 0.060 0.44 0 0.86-0.28 1-0.72 0.14-0.42 0.24-0.84 0.3-1.28 0.98 0.38 1.68 1.34 1.68 2.44 0 1.46-1.18 2.64-2.62 2.64z"></path>
</svg>
