
<svg version="1.1" xmlns="http://www.w3.org/2000/svg" width="32" height="32" viewBox="0 0 32 32">
<title>brand129</title>
<path fill="#2bde73" d="M12.812 10.906l5.868-8.506c1.11-1.6 2.54-2.4 4.3-2.4 1.43 0 2.67 0.508 3.72 1.524 1.044 1.020 1.568 2.234 1.568 3.652 0 1.046-0.276 1.972-0.832 2.772l-5.29 7.692 6.47 8.204c0.646 0.816 0.97 1.772 0.97 2.866 0 1.448-0.508 2.69-1.526 3.73-1.016 1.040-2.248 1.56-3.696 1.56-1.586 0-2.796-0.516-3.628-1.548l-7.924-9.888v5.452c0 1.556-0.27 2.766-0.81 3.628-0.982 1.57-2.402 2.356-4.282 2.356-1.71 0-3.036-0.58-3.974-1.732-0.88-1.064-1.32-2.474-1.32-4.228v-20.22c0-1.66 0.448-3.032 1.34-4.11 0.93-1.14 2.224-1.71 3.874-1.71 1.572 0 2.88 0.57 3.928 1.71 0.584 0.632 0.954 1.27 1.108 1.92 0.094 0.4 0.14 1.144 0.14 2.24v5.036z"></path>
</svg>
