<!-- Generated by IcoMoon.io -->
<svg version="1.1" xmlns="http://www.w3.org/2000/svg" width="32" height="32" viewBox="0 0 32 32">
<title>brand47</title>
<path fill="#00c7f2" d="M19.624 24.928h5.834v-1.768h-5.838v1.768zM6.544 24.928h5.832v-1.768h-5.836v1.768zM0 24.928h5.834v-1.768h-5.834v1.768zM13.080 24.928h5.84v-1.768h-5.84v1.768zM26.166 24.928h5.834v-1.768h-5.834v1.768zM26.166 22.628h5.834v-1.766h-5.834v1.78zM13.082 22.628h5.84v-1.766h-5.842v1.78zM0.002 22.628h5.84v-1.766h-5.842v1.78zM6.542 22.628h5.84v-1.766h-5.842v1.78zM19.642 22.628h5.84v-1.766h-5.862v1.78zM19.642 20.332h5.84v-1.768h-5.862v1.768zM6.562 20.332h5.82v-1.768h-5.842v1.768zM0.022 20.332h5.82v-1.768h-5.842v1.768zM13.102 20.332h5.84v-1.768h-5.862v1.768zM26.202 20.332h5.798v-1.768h-5.834v1.768zM26.202 18.032h5.798v-1.766h-5.834v1.768zM13.122 18.032h5.82v-1.766h-5.862v1.768zM0.042 18.032h5.82v-1.766h-5.862v1.768zM19.682 18.032h5.84v-1.766h-5.902v1.768zM19.682 15.732h5.84v-1.764h-5.902v1.766zM0.042 15.732h5.82v-1.76h-5.862v1.764zM13.122 15.732h5.84v-1.76h-5.882v1.764zM26.202 15.732h5.798v-1.764h-5.834v1.768zM13.080 13.44h5.84v-1.77h-5.84v1.768zM26.166 13.436h5.834v-1.766h-5.834v1.766zM13.080 11.14h5.84v-1.77h-5.84v1.77zM26.166 11.14h5.834v-1.77h-5.834v1.768zM26.166 8.84h5.834v-1.768h-5.834v1.768z"></path>
</svg>
