<!-- Generated by IcoMoon.io -->
<svg version="1.1" xmlns="http://www.w3.org/2000/svg" width="32" height="32" viewBox="0 0 32 32">
<title>brand223</title>
<path fill="#56b68b" d="M13.172 14.66l1.38 4.114 4.274-1.432-1.38-4.1-4.274 1.44z"></path>
<path fill="#56b68b" d="M25.1 18.74l-2.074 0.694 0.72 2.146c0.29 0.868-0.18 1.808-1.048 2.1-0.2 0.060-0.38 0.090-0.58 0.084-0.68-0.020-1.3-0.452-1.54-1.132l-0.72-2.144-4.28 1.432 0.72 2.144c0.28 0.87-0.18 1.81-1.060 2.1-0.2 0.064-0.38 0.090-0.58 0.086-0.68-0.020-1.3-0.452-1.54-1.132l-0.72-2.16-2.080 0.7c-0.2 0.060-0.38 0.080-0.58 0.080-0.68-0.020-1.3-0.46-1.54-1.14-0.3-0.88 0.18-1.82 1.040-2.1l2.080-0.7-1.318-4.118-2.068 0.7c-0.188 0.064-0.38 0.090-0.57 0.086-0.66-0.020-1.3-0.45-1.52-1.13-0.28-0.866 0.18-1.806 1.060-2.1l2.080-0.692-0.72-2.14c-0.28-0.872 0.18-1.812 1.060-2.1 0.88-0.294 1.82 0.18 2.1 1.044l0.72 2.144 4.258-1.432-0.72-2.14c-0.28-0.86 0.18-1.8 1.052-2.1 0.87-0.28 1.812 0.18 2.1 1.056l0.72 2.16 2.074-0.68c0.868-0.292 1.808 0.18 2.1 1.040 0.29 0.872-0.18 1.812-1.046 2.1l-2.076 0.7 1.38 4.114 2.068-0.688c0.87-0.28 1.81 0.18 2.1 1.060 0.292 0.88-0.18 1.82-1.040 2.1zM30.66 11.6c-3.3-10.992-8.064-13.56-19.060-10.26-10.992 3.3-13.56 8.060-10.26 19.060 3.3 10.994 8.060 13.56 19.060 10.26 10.994-3.3 13.56-8.060 10.26-19.060z"></path>
</svg>
