
<svg version="1.1" xmlns="http://www.w3.org/2000/svg" width="32" height="32" viewBox="0 0 32 32">
<title>brand251</title>
<path fill="#39ace6" d="M31.874 1.252c0.040 0 0.074 0.006 0.094 0.016s0.032 0.036 0.032 0.080l-1.69 8.234v0.040h-0.080c-0.012 0-0.060 0-0.14-0.020h-0.060c-0.108-0.020-0.2-0.040-0.286-0.060-0.084-0.020-0.18-0.020-0.28-0.020-0.732-0.12-1.452-0.22-2.16-0.3-0.712-0.080-1.42-0.14-2.132-0.18l-0.5 10.52-0.094-0.16c0-0.020-0.020-0.020-0.020-0.040l-0.020-0.020c-0.020 0-0.040 0-0.060-0.020s-0.020-0.040-0.020-0.060c-0.040-0.020-0.080-0.040-0.1-0.080-0.020-0.020-0.060-0.060-0.1-0.080-0.12-0.1-0.24-0.2-0.38-0.3-0.16-0.1-0.3-0.2-0.44-0.28l-0.24-0.12-0.22-0.12c-0.020 0-0.040 0-0.060-0.020l-0.020-0.040 0.46-10.98h0.16c0.16 0 0.34 0 0.52 0.020s0.38 0.020 0.56 0.020l1.1 0.060c0.36 0.020 0.72 0.060 1.080 0.1l0.56 0.060 0.54 0.060h0.122c0.048 0 0.12 0.020 0.2 0.040 0.1 0.020 0.22 0.040 0.34 0.040 0.12 0.020 0.22 0.020 0.28 0.060l1-4.94c-0.020 0-0.048 0-0.090-0.020l-0.16-0.060c-0.7-0.14-1.42-0.26-2.14-0.38-0.72-0.1-1.446-0.18-2.18-0.24-0.56-0.060-1.134-0.1-1.72-0.12-0.57-0.020-1.16-0.040-1.74-0.040h-1.060c0 0.040 0 0.080-0.020 0.12l-0.060 0.2-0.060 0.18c-0.020 0.12-0.060 0.26-0.114 0.38-0.056 0.14-0.1 0.26-0.14 0.38-0.13 0.24-0.26 0.46-0.396 0.66-0.136 0.22-0.276 0.42-0.42 0.64-0.336 0.4-0.712 0.74-1.13 1.040-0.41 0.3-0.86 0.54-1.34 0.72-0.328 0.12-0.668 0.22-1.020 0.28-0.34 0.060-0.686 0.1-1.040 0.1-0.188 0-0.38 0-0.58-0.020s-0.392-0.040-0.58-0.080c-0.54-0.1-1.060-0.28-1.55-0.54-0.488-0.26-0.932-0.58-1.328-0.96-0.22-0.18-0.4-0.38-0.56-0.58-0.148-0.2-0.3-0.42-0.446-0.66l-0.956 0.34-0.96 0.36c-0.65 0.22-1.288 0.48-1.914 0.76-0.62 0.28-1.24 0.58-1.844 0.9l-0.92 0.5c-0.304 0.18-0.612 0.34-0.924 0.5v0.020c0 0.020-0.014 0.020-0.036 0.020l-0.116 0.060-0.050 0.040 2.080 4.56 0.264-0.14c0.080-0.040 0.18-0.1 0.284-0.14 0.65-0.34 1.308-0.64 1.98-0.94 0.664-0.28 1.34-0.56 2-0.82h0.060l2.746 11.018c0.44-0.19 0.85-0.352 1.236-0.486 0.394-0.136 0.76-0.256 1.12-0.36 0.688-0.188 1.4-0.33 2.13-0.424 0.73-0.088 1.46-0.14 2.192-0.14 0.38 0 0.76 0.020 1.14 0.052 0.36 0.040 0.7 0.080 1.020 0.14 0.38 0.080 0.74 0.2 1.080 0.32 0.32 0.14 0.62 0.28 0.88 0.48 0.3 0.2 0.56 0.42 0.78 0.68 0.2 0.26 0.38 0.54 0.5 0.84 0.12 0.32 0.18 0.64 0.2 1 0 0.36-0.040 0.7-0.12 1.020-0.040 0.18-0.1 0.34-0.16 0.48-0.080 0.16-0.16 0.32-0.26 0.46 0 0.020 0 0.040-0.020 0.040s-0.020 0.020-0.020 0.040l-0.060 0.060c-0.020 0.020-0.020 0.040-0.020 0.060s0 0.040 0.020 0.060l0.040 0.080v0.040l0.020 0.040 0.12 0.26c0.020 0.080 0.040 0.18 0.040 0.26 0.080 0.34 0.1 0.68 0.060 1.040-0.040 0.38-0.12 0.74-0.24 1.080-0.22 0.58-0.56 1.080-1.020 1.54-0.48 0.46-1.080 0.86-1.8 1.22-0.56 0.3-1.18 0.54-1.84 0.74-0.68 0.2-1.42 0.38-2.24 0.52-0.2 0.040-0.38 0.080-0.56 0.1l-0.52 0.020-0.34 0.040-0.14-1.9v-0.020h0.060l0.040-0.020h0.2l0.080-0.060h0.24c0.080 0 0.14-0.020 0.2-0.020 0.38-0.060 0.74-0.12 1.080-0.2 0.36-0.080 0.7-0.16 1.060-0.26s0.7-0.2 1.020-0.32c0.32-0.1 0.62-0.24 0.92-0.38 0.34-0.18 0.62-0.36 0.86-0.56s0.44-0.4 0.6-0.6c0.1-0.12 0.2-0.26 0.26-0.4s0.1-0.28 0.12-0.44v-0.3l-0.16 0.12c-0.020 0.020-0.060 0.040-0.1 0.060l-0.14 0.060c-0.28 0.18-0.58 0.32-0.9 0.46s-0.66 0.28-1.020 0.4c-0.34 0.12-0.68 0.24-1.040 0.32-0.36 0.1-0.72 0.18-1.060 0.24-0.38 0.060-0.74 0.12-1.1 0.16s-0.72 0.080-1.080 0.1h-0.2c-0.34 0-0.66 0-0.94-0.040-0.3-0.020-0.56-0.080-0.82-0.14-0.38-0.1-0.7-0.24-0.98-0.42s-0.48-0.4-0.6-0.68c-0.14-0.24-0.22-0.52-0.2-0.84 0-0.3 0.080-0.6 0.22-0.88 0.14-0.26 0.34-0.5 0.58-0.72s0.54-0.42 0.88-0.6c0.28-0.14 0.58-0.28 0.92-0.38 0.32-0.1 0.68-0.22 1.060-0.32 0.3-0.080 0.64-0.16 1-0.22s0.74-0.1 1.16-0.12c0.14-0.020 0.3-0.040 0.46-0.040 0.16-0.020 0.32-0.020 0.5-0.020h0.6l0.6 0.060c0.18 0.020 0.36 0.040 0.54 0.080s0.34 0.060 0.5 0.1c0.1 0.020 0.2 0.060 0.28 0.080l0.22 0.080h0.020c0.020 0 0.040 0.020 0.040 0.020l0.020 0.020 0.060 0.040-0.040 0.040c-0.18 0.42-0.5 0.76-1 1-0.5 0.26-0.84 0.42-1.060 0.48h-0.018c-0.020-0.020-0.040-0.040-0.048-0.040h-0.58c-0.184 0-0.366 0-0.544 0.020-0.18 0.020-0.352 0.020-0.52 0.040-0.374 0.040-0.74 0.1-1.094 0.16-0.36 0.060-0.692 0.16-1 0.26-0.194 0.060-0.372 0.12-0.54 0.2-0.166 0.060-0.32 0.12-0.468 0.2-0.084 0.040-0.16 0.080-0.234 0.12-0.072 0.040-0.14 0.080-0.2 0.12-0.040 0.040-0.1 0.080-0.16 0.12s-0.114 0.1-0.16 0.16c0.020 0 0.054 0 0.080 0.020l0.18 0.040v0.040c0.080 0.020 0.16 0.040 0.24 0.040 0.086 0 0.18 0.020 0.28 0.020 0.086 0.020 0.17 0.028 0.254 0.028h0.808c0.34 0 0.686-0.020 1.050-0.080 0.36-0.054 0.736-0.1 1.112-0.174 0.38-0.080 0.728-0.168 1.060-0.28 0.33-0.1 0.652-0.22 0.966-0.34 0.18-0.060 0.34-0.14 0.48-0.2 0.16-0.080 0.3-0.16 0.46-0.24l0.38-0.22c0.14-0.080 0.3-0.18 0.44-0.28 0.22-0.186 0.42-0.42 0.62-0.68 0.22-0.26 0.32-0.56 0.32-0.888 0-0.17-0.020-0.32-0.080-0.46-0.040-0.14-0.12-0.26-0.24-0.36-0.1-0.1-0.22-0.2-0.34-0.28s-0.26-0.16-0.44-0.22c-0.34-0.12-0.7-0.22-1.080-0.26-0.36-0.052-0.68-0.080-0.98-0.080-0.1-0.020-0.2-0.020-0.32-0.020h-0.302c-0.628 0-1.254 0.046-1.88 0.14-0.626 0.1-1.24 0.22-1.846 0.4-0.34 0.080-0.67 0.18-1.004 0.3-0.34 0.14-0.69 0.26-1.066 0.42-0.292 0.12-0.594 0.24-0.908 0.4l-1 0.52-0.060 0.040-2.76-11.46-0.12 0.060-0.126 0.060c-0.672 0.3-1.33 0.6-1.976 0.94-0.652 0.34-1.288 0.68-1.914 1.040l-0.064 0.040-3.476-8.068c0-0.020 0.010-0.030 0.032-0.040l0.156-0.11c0.040-0.020 0.084-0.048 0.126-0.080 0.040-0.030 0.072-0.056 0.094-0.080 0.020 0 0.036 0 0.046-0.012h0.016c0.146-0.080 0.3-0.16 0.454-0.26l0.486-0.3c0.29-0.16 0.59-0.34 0.89-0.5 0.32-0.16 0.6-0.34 0.9-0.5 0.62-0.32 1.24-0.62 1.86-0.9 0.64-0.3 1.28-0.58 1.9-0.82 0.68-0.26 1.34-0.5 2-0.72 0.66-0.24 1.34-0.46 2.040-0.64l0.060-0.040v0.060c0.1 0.42 0.24 0.8 0.46 1.18 0.22 0.36 0.48 0.68 0.78 0.98 0.38 0.32 0.8 0.58 1.28 0.78 0.48 0.18 0.98 0.28 1.48 0.28 0.060 0 0.12-0.020 0.18-0.020 0.048-0.020 0.106-0.020 0.168-0.020 0.5-0.040 0.988-0.18 1.46-0.42 0.468-0.24 0.88-0.54 1.234-0.92 0.4-0.44 0.7-0.94 0.86-1.5 0.18-0.56 0.24-1.16 0.14-1.76l0.060-0.020 1.36-0.060c0.46-0.020 0.9-0.020 1.36-0.020h0.86c0.74 0.020 1.46 0.060 2.18 0.1s1.44 0.12 2.16 0.2c0.7 0.080 1.38 0.18 2.060 0.3s1.34 0.26 2.020 0.44l0.18 0.060 0.24 0.060c0.080 0.020 0.16 0.040 0.22 0.080h0.020c0.020 0 0.040 0.020 0.060 0.020l0.040 0.020z"></path>
</svg>
