<!-- Generated by IcoMoon.io -->
<svg version="1.1" xmlns="http://www.w3.org/2000/svg" width="32" height="32" viewBox="0 0 32 32">
<title>brand5</title>
<path fill="#ff5a5f" d="M30.444 22.71c-0.144-0.4-0.312-0.792-0.47-1.154-0.246-0.554-0.504-1.112-0.752-1.65v-0.040c-2.22-4.808-4.58-9.68-7.060-14.48l-0.1-0.2c-0.24-0.492-0.5-1-0.78-1.5-0.3-0.58-0.66-1.196-1.14-1.77-1.082-1.236-2.542-1.916-4.142-1.916s-3.048 0.68-4.104 1.92c-0.488 0.57-0.836 1.186-1.148 1.768-0.27 0.504-0.534 1.016-0.788 1.51l-0.1 0.18c-2.468 4.802-4.846 9.682-7.060 14.482l-0.036 0.070c-0.24 0.53-0.496 1.076-0.736 1.62-0.16 0.364-0.326 0.752-0.47 1.156-0.42 1.18-0.56 2.308-0.38 3.45 0.34 2.38 1.94 4.426 4.16 5.332 0.82 0.336 1.7 0.506 2.62 0.506 0.28 0 0.56-0.020 0.84-0.052 1.080-0.12 2.16-0.48 3.22-1.080 1.3-0.72 2.58-1.8 3.98-3.32 1.4 1.54 2.68 2.6 3.98 3.34 1.060 0.6 2.14 0.96 3.2 1.1 0.28 0.040 0.56 0.060 0.84 0.060 0.9 0 1.78-0.16 2.62-0.5 2.22-0.9 3.82-2.94 4.16-5.32 0.16-1.14 0.040-2.26-0.38-3.44zM28.8 25.87c-0.24 1.668-1.356 3.096-2.92 3.728-0.76 0.3-1.6 0.42-2.45 0.32-0.814-0.1-1.616-0.38-2.45-0.84-1.154-0.66-2.324-1.66-3.64-3.12 2.096-2.6 3.404-4.98 3.888-7.1 0.22-0.98 0.268-1.9 0.14-2.74-0.126-0.82-0.412-1.56-0.852-2.2-0.98-1.4-2.666-2.24-4.516-2.24-1.848 0-3.536 0.84-4.516 2.28-0.44 0.64-0.726 1.36-0.85 2.18-0.128 0.84-0.080 1.76 0.14 2.72 0.48 2.12 1.79 4.5 3.884 7.1-1.32 1.46-2.5 2.46-3.64 3.1-0.84 0.48-1.64 0.76-2.46 0.84-0.86 0.1-1.7 0-2.46-0.32-1.56-0.62-2.68-2.060-2.92-3.72-0.12-0.82-0.040-1.6 0.28-2.48 0.1-0.32 0.24-0.64 0.4-1 0.22-0.52 0.48-1.060 0.72-1.58l0.020-0.060c2.2-4.78 4.56-9.62 7.020-14.4l0.1-0.2c0.24-0.5 0.5-1 0.76-1.48 0.26-0.5 0.54-1 0.9-1.42 0.68-0.78 1.56-1.2 2.54-1.2 1 0 1.88 0.42 2.54 1.2 0.36 0.42 0.62 0.9 0.9 1.42 0.26 0.48 0.52 0.98 0.76 1.46l0.1 0.2c2.46 4.78 4.82 9.62 7.020 14.4l0.020 0.040c0.24 0.52 0.5 1.080 0.74 1.62 0.16 0.36 0.3 0.68 0.42 1 0.3 0.88 0.4 1.66 0.28 2.48zM16 24.38c-1.732-2.204-2.844-4.246-3.234-5.96-0.164-0.72-0.2-1.38-0.112-1.96 0.080-0.508 0.252-0.96 0.516-1.346 0.6-0.87 1.656-1.392 2.83-1.392s2.232 0.54 2.83 1.4c0.266 0.4 0.44 0.84 0.516 1.34 0.090 0.58 0.052 1.26-0.112 1.96-0.39 1.72-1.5 3.76-3.234 5.96z"></path>
</svg>
