
<svg version="1.1" xmlns="http://www.w3.org/2000/svg" width="32" height="32" viewBox="0 0 32 32">
<title>brand296</title>
<path fill="#c41200" d="M28.146 24.304c-0.188 1.292-2.828 4.646-4.040 5.13-0.414 0.166-0.816 0.126-1.132-0.12-0.206-0.16-0.42-0.488-3.266-5.104l-0.844-1.376c-0.324-0.494-0.264-1.144 0.14-1.64 0.394-0.48 0.974-0.66 1.48-0.466 0.028 0.016 2.13 0.708 2.13 0.708 4.784 1.572 4.94 1.632 5.144 1.784 0.3 0.248 0.44 0.634 0.38 1.084zM18.556 17.28c-0.34-0.514-0.334-1.12 0.014-1.54l1.332-1.812c2.92-3.98 3.080-4.19 3.28-4.328 0.34-0.228 0.76-0.24 1.16-0.044 1.16 0.564 3.5 4.040 3.64 5.374v0.046c0.040 0.454-0.14 0.824-0.46 1.046-0.22 0.14-0.42 0.22-5.86 1.54-0.86 0.22-1.34 0.34-1.62 0.44l0.040-0.040c-0.54 0.16-1.14-0.1-1.48-0.64zM15.216 15.22c-0.26 0.080-1.052 0.326-2.026-1.25 0 0-6.576-10.348-6.73-10.666-0.094-0.36 0.020-0.766 0.34-1.096 0.98-1.014 6.29-2.5 7.68-2.16 0.454 0.116 0.766 0.4 0.876 0.806 0.080 0.446 0.726 10.048 0.82 12.2 0.088 1.84-0.7 2.088-0.96 2.166zM16.084 25.744c-0.014 5.034-0.024 5.2-0.108 5.44-0.14 0.376-0.46 0.624-0.908 0.706-1.28 0.22-5.29-1.26-6.126-2.252-0.16-0.22-0.26-0.44-0.28-0.66-0.020-0.16 0-0.32 0.060-0.46 0.1-0.26 0.24-0.46 3.84-4.68l1.060-1.26c0.36-0.46 1-0.6 1.6-0.36 0.58 0.22 0.94 0.72 0.9 1.26v2.24zM5.172 22.524c-0.394-0.012-0.746-0.248-0.952-0.64-0.15-0.286-0.254-0.76-0.32-1.336-0.18-1.736 0.040-4.352 0.56-5.184 0.244-0.38 0.6-0.58 0.994-0.566 0.26 0 0.492 0.080 5.64 2.2l1.506 0.6c0.54 0.2 0.874 0.76 0.84 1.4-0.040 0.62-0.396 1.1-0.926 1.24l-2.14 0.68c-4.788 1.54-4.946 1.58-5.2 1.56zM25.144 32h-0.004l-0.008 0.004 0.012-0.004z"></path>
</svg>
