
<svg version="1.1" xmlns="http://www.w3.org/2000/svg" width="32" height="32" viewBox="0 0 32 32">
<title>brand189</title>
<path fill="#039" d="M11.966 3.42v23.37l5.214 1.68v-19.6c0-0.92 0.404-1.534 1.056-1.32 0.848 0.24 1.014 1.084 1.014 2.004v7.826c3.25 1.59 5.81-0.004 5.81-4.2 0-4.312-1.5-6.226-5.912-7.76-1.74-0.596-4.964-1.58-7.18-2zM18.166 25.052l8.384-3.032c0.952-0.344 1.1-0.832 0.328-1.090-0.78-0.256-2.18-0.184-3.14 0.164l-5.6 1.996v-3.176l0.32-0.112s1.6-0.56 3.88-0.82c2.26-0.24 5.040 0.040 7.24 0.88 2.46 0.8 2.72 1.96 2.1 2.76s-2.16 1.38-2.16 1.38l-11.38 4.14v-3.060zM2.406 24.732c-2.53-0.724-2.948-2.22-1.8-3.090 1.068-0.78 2.876-1.4 2.876-1.4l7.48-2.68v3.080l-5.36 1.96c-0.94 0.36-1.1 0.84-0.32 1.1s2.18 0.2 3.12-0.16l2.58-0.94v2.76c-0.16 0.040-0.34 0.060-0.52 0.1-2.58 0.44-5.32 0.26-8.040-0.64z"></path>
</svg>
