
<svg version="1.1" xmlns="http://www.w3.org/2000/svg" width="32" height="32" viewBox="0 0 32 32">
<title>brand72</title>
<path fill="#6cc655" d="M9.86 29.244l-9.036-9.1c-1.1-1.1-1.1-3.48 0-4.52l12.948-13.004c1.040-1.040 3.36-1.040 4.396 0l13.008 13.006c1.1 1.1 1.1 3.48 0 4.52l-9.040 9.1c-0.548 0.548-1.404 0.914-2.26 0.914h-7.876c-0.794 0-1.588-0.366-2.14-0.916zM18.106 25.704c0.184-0.184 0.184-0.552 0-0.734l-1.77-1.772c-0.184-0.2-0.55-0.2-0.732 0l-1.772 1.76c-0.184 0.18-0.184 0.54 0 0.72l1.404 1.34h1.466l1.42-1.36zM18.106 18.19c0.124-0.12 0.124-0.426 0-0.548l-1.892-1.88c-0.12-0.12-0.428-0.12-0.55 0l-5.496 5.5c-0.184 0.2-0.184 0.62 0 0.8l1.28 1.28h1.468l5.19-5.142zM18.106 10.74c0.124-0.12 0.184-0.488 0-0.61l-1.832-1.832c-0.12-0.14-0.488-0.14-0.67 0l-9.22 9.22c-0.124 0.12-0.186 0.48-0.064 0.6l1.466 1.4h1.404l8.916-8.78z"></path>
</svg>
