<!-- Generated by IcoMoon.io -->
<svg version="1.1" xmlns="http://www.w3.org/2000/svg" width="32" height="32" viewBox="0 0 32 32">
<title>brand292</title>
<path fill="#005a5f" d="M24.252 0c-0.69 0-0.988 0.434-1.236 0.88 0 0-9.94 17.632-10.27 18.21 0.020 0.032 6.56 12.030 6.56 12.030 0.226 0.41 0.58 0.88 1.288 0.88h4.606c0.28 0 0.5-0.104 0.616-0.294 0.12-0.2 0.12-0.46-0.010-0.714l-6.506-11.888c-0.006-0.008-0.006-0.020 0-0.030l10.22-18.066c0.126-0.256 0.128-0.516 0.008-0.714-0.12-0.19-0.336-0.294-0.614-0.294h-4.66zM4.864 6.32c-0.28 0-0.512 0.1-0.63 0.288-0.12 0.2-0.104 0.452 0.026 0.708l3.12 5.4c0.006 0.012 0.006 0.020 0 0.028l-4.9 8.656c-0.13 0.252-0.124 0.508 0 0.706 0.114 0.19 0.32 0.314 0.6 0.314h4.616c0.69 0 1.020-0.464 1.26-0.89l4.98-8.812-3.172-5.54c-0.23-0.42-0.58-0.88-1.284-0.88h-4.616z"></path>
</svg>
