<!-- Generated by IcoMoon.io -->
<svg version="1.1" xmlns="http://www.w3.org/2000/svg" width="32" height="32" viewBox="0 0 32 32">
<title>brand114</title>
<path fill="#43b02a" d="M20.828 12.826c1.894 1.904 3.44 5.020 2.556 6.87-2.372 4.952-20.056 13.634-21.56 12.132-1.5-1.5 7.188-19.194 12.14-21.566 1.85-0.88 4.966 0.68 6.87 2.56l-0.006 0.020zM30.2 10.736c-0.31-1.14-1.096-2.288-2.268-2.426-2.148-0.248-5.536 3.55-5.294 4.452 0.24 0.92 5.020 2.5 6.8 1.22 0.92-0.66 1.040-2.080 0.74-3.22zM23.544 0.21c1.596 0.432 3.21 1.532 3.4 3.176 0.35 3.012-4.976 7.76-6.24 7.42-1.264-0.334-3.49-7.046-1.69-9.55 0.926-1.296 2.934-1.476 4.532-1.052v0.006z"></path>
</svg>
