
<svg version="1.1" xmlns="http://www.w3.org/2000/svg" width="32" height="32" viewBox="0 0 32 32">
<title>brand67</title>
<path fill="#f6682f" d="M10.82 0h14.71c0.236 0 0.354 0.12 0.354 0.356v5.51c0 0.24-0.12 0.356-0.354 0.356h-12.98c-0.236 0-0.354 0.12-0.354 0.36v6c0.060 0.24 0.18 0.36 0.356 0.36h11.51c0.24 0 0.36 0.12 0.36 0.36v5.32c0 0.24-0.12 0.36-0.36 0.36h-11.502c-0.18 0-0.296 0.12-0.356 0.36v6.040c0 0.24 0.12 0.36 0.354 0.36h13.42c0.18 0 0.3 0.1 0.36 0.28 0.080 0.3 0.14 0.66 0.16 1.12s-0.020 0.96-0.16 1.54c-0.14 0.58-0.38 1.12-0.72 1.6-0.34 0.5-0.9 0.92-1.66 1.26-0.78 0.34-1.72 0.52-2.8 0.52h-15.318c-0.236 0-0.356-0.12-0.356-0.36v-26.362c0-1.48 0.52-2.74 1.556-3.78 1.040-1.040 2.296-1.56 3.78-1.56z"></path>
</svg>
