<!-- Generated by IcoMoon.io -->
<svg version="1.1" xmlns="http://www.w3.org/2000/svg" width="32" height="32" viewBox="0 0 32 32">
<title>brand158</title>
<path fill="#0072c6" d="M32 9.85v13.97c0 0.308-0.106 0.564-0.316 0.768-0.21 0.206-0.468 0.308-0.776 0.308h-11.394v-9.28l2.132 1.64c0.136 0.112 0.304 0.168 0.504 0.168s0.372-0.056 0.52-0.17l9.33-7.404zM19.514 7.156h11.394c0.284 0 0.526 0.084 0.726 0.256 0.2 0.17 0.31 0.4 0.332 0.68l-9.826 7.834-2.626-2.066v-6.704zM17.874 1.152v29.696l-17.874-3.088v-23.434l17.876-3.174zM12.474 16.060c-0.026-1.512-0.416-2.764-1.172-3.752-0.74-0.988-1.7-1.508-2.84-1.554-1.1 0.046-2.040 0.564-2.8 1.554-0.76 0.988-1.14 2.24-1.16 3.752 0.020 1.49 0.42 2.728 1.18 3.72 0.76 0.988 1.7 1.51 2.8 1.568 1.14-0.046 2.1-0.566 2.86-1.56 0.76-0.996 1.16-2.24 1.18-3.728zM8.314 12.75c0.574 0.024 1.060 0.34 1.444 0.956 0.38 0.614 0.58 1.392 0.58 2.336 0 0.96-0.2 1.74-0.58 2.36-0.4 0.62-0.88 0.94-1.46 0.94s-1.060-0.3-1.46-0.92c-0.4-0.62-0.58-1.4-0.58-2.34s0.18-1.72 0.58-2.32c0.38-0.6 0.86-0.92 1.44-0.96z"></path>
</svg>
