<!-- Generated by IcoMoon.io -->
<svg version="1.1" xmlns="http://www.w3.org/2000/svg" width="32" height="32" viewBox="0 0 32 32">
<title>brand277</title>
<path fill="#1ab7ea" d="M31.984 8.55c-0.14 3.12-2.32 7.394-6.526 12.82-4.36 5.664-8.040 8.496-11.060 8.496-1.88 0-3.44-1.724-4.74-5.176l-2.558-9.49c-0.96-3.448-1.986-5.174-3.084-5.174-0.24 0-1.076 0.504-2.51 1.51l-1.506-1.944c1.58-1.392 3.136-2.78 4.67-4.172 2.106-1.824 3.688-2.78 4.74-2.88 2.492-0.24 4.024 1.466 4.6 5.12 0.62 3.94 1.052 6.388 1.294 7.346 0.72 3.268 1.508 4.9 2.37 4.9 0.67 0 1.676-1.060 3.020-3.18 1.34-2.12 2.056-3.732 2.152-4.84 0.192-1.83-0.526-2.748-2.154-2.748-0.766 0-1.556 0.16-2.37 0.52 1.58-5.16 4.58-7.68 9.020-7.52 3.3 0.080 4.84 2.22 4.66 6.4z"></path>
</svg>
