<!-- Generated by IcoMoon.io -->
<svg version="1.1" xmlns="http://www.w3.org/2000/svg" width="32" height="32" viewBox="0 0 32 32">
<title>brand68</title>
<path fill="#5ab552" d="M7.7 4.546c0.572-0.334 1.166-0.63 1.786-0.888 1.31-0.56 2.66-0.88 4.048-1.020l1.504 1.7-0.7 1.76c-1.36 0.26-2.64 0.76-3.84 1.48l-0.26 0.16-0.238-2.318-2.3-0.88z"></path>
<path fill="#5ab552" d="M7.046 4.96l2.388 0.92 0.25 2.28c-1.292 0.95-2.3 2.164-3.020 3.64-0.068 0.132-0.128 0.264-0.186 0.4l-1.678-2.040-2.74 0.58c0.68-1.472 1.6-2.788 2.75-3.948 0.688-0.694 1.428-1.304 2.224-1.834zM22.76 21.032c0.26-0.432 0.47-0.87 0.64-1.32l2.584 3.134 4.34-0.936c-0.248 0.684-0.544 1.354-0.884 2.010-0.892 1.72-2.068 3.212-3.53 4.48-1.484 1.284-3.16 2.22-5.030 2.812-0.036 0.012-0.074 0.020-0.11 0.034l-3.216-2.72 0.84-3.7 0.066-0.028c1.84-0.8 3.276-2.040 4.3-3.78z"></path>
<path fill="#5ab552" d="M28.194 6.4c0.266 0.366 0.514 0.746 0.75 1.14 0.99 1.664 1.674 3.444 2.054 5.34 0.36 1.88 0.42 3.772 0.16 5.67-0.14 0.912-0.34 1.8-0.62 2.67l-4.34 0.932-2.6-3.144c0.3-1.156 0.34-2.36 0.080-3.612-0.3-1.486-0.96-2.754-1.94-3.8l4.68-0.56 1.74-4.636zM1.77 11.44l2.8-0.592 1.648 2.012c-0.52 1.446-0.64 2.948-0.38 4.508 0.060 0.444 0.16 0.874 0.28 1.292l-2.96-0.674-2.12 2.508c-0.258-1.11-0.378-2.246-0.378-3.406 0.004-1.934 0.36-3.8 1.076-5.6l0.020-0.050z"></path>
<path fill="#5ab552" d="M6.36 19.354c0.426 1.124 1.052 2.152 1.88 3.088 0.62 0.72 1.32 1.3 2.084 1.76l-2.934 1.68 0.16 3.82c-0.968-0.6-1.86-1.32-2.668-2.14-1.36-1.4-2.4-3-3.12-4.8-0.2-0.5-0.36-1-0.5-1.5l2.18-2.56 2.96 0.68z"></path>
<path fill="#5ab552" d="M10.964 24.552c0.63 0.314 1.306 0.554 2.024 0.72 1.61 0.372 3.18 0.31 4.706-0.188l-0.834 3.676 3.184 2.694c-1.592 0.416-3.22 0.594-4.88 0.534-1.94-0.060-3.804-0.472-5.588-1.232-0.48-0.204-0.94-0.43-1.388-0.68l-0.16-3.844 2.936-1.68zM27.744 5.812l-1.75 4.65-4.82 0.58c-0.14-0.12-0.284-0.24-0.436-0.34-1.58-1.2-3.36-1.9-5.34-2.1-0.46-0.040-0.9-0.040-1.32-0.040l1.68-4.3-3.638-4.142c1.104-0.12 2.184-0.14 3.28-0.12 0.654 0.020 1.3 0.068 1.946 0.15 0.906 0.12 1.8 0.32 2.686 0.56 1.874 0.534 3.58 1.38 5.124 2.574 0.972 0.746 1.836 1.59 2.59 2.53z"></path>
</svg>
