
<svg version="1.1" xmlns="http://www.w3.org/2000/svg" width="32" height="32" viewBox="0 0 32 32">
<title>brand58</title>
<path fill="#f60" d="M10.824 20.166c0.064 0.46 0.184 0.748 0.37 0.924 0.192 0.184 0.452 0.248 0.794 0.286 0.406-0.040 0.68-0.13 0.868-0.4 0.11-0.172 0.184-0.44 0.22-0.81l0.13-1.54v-0.020l-0.028-0.232-0.040-0.23-0.040-0.232-0.040-0.22-0.040-0.232-0.080-0.44-0.040-0.224-0.040-0.214-0.080-0.4v-0.182l-0.080-0.36-0.020-0.164-0.040-0.154-0.040-0.14-0.040-0.22-0.060-0.22-0.12-0.48-0.018-0.262-0.068-0.268-0.060-0.28-0.070-0.28-0.040-0.28-0.060-0.286-0.040-0.284-0.022-0.322-0.020-0.28-0.012-0.3v-0.56l0.028-0.28 0.046-0.28 0.060-0.28 0.080-0.266 0.12-0.26 0.14-0.248 0.060-0.1c-0.26-0.060-0.58-0.1-0.92-0.1-0.14 0-0.26 0-0.4 0.020-3.1 0.268-1.84 3.78-1.3 5.708 0.38 1.34 0.8 4.46 0.96 5.42zM11.194 8.622c0.12 0.040 0.24 0.060 0.38 0.060 0.636 0 1.050-0.34 1.28-0.86 0.148-0.36 0.214-0.8 0.204-1.26-0.020-0.4-0.1-0.76-0.22-1.080-0.26-0.62-0.72-1.040-1.42-1.040-0.1 0-0.18 0-0.24 0.020-0.9 0.14-1.3 1.040-1.26 2.14 0.020 1.040 0.42 1.9 1.24 2.1zM12.854 13.742c0.112 0.48 0.224 0.92 0.316 1.3 0.38 1.54 0.748 5.12 0.886 6.22 0.13 1.1 0.52 1.32 1.294 1.4 0.766-0.060 1.154-0.3 1.284-1.38 0.128-1.080 0.506-4.66 0.876-6.2 0.092-0.38 0.212-0.82 0.32-1.28 0.344-1.4 0.62-3.060 0-4.14-0.394-0.68-1.152-1.12-2.48-1.12-1.34 0-2.108 0.44-2.494 1.14-0.62 1.080-0.34 2.74 0 4.14zM15.33 8.042h0.020c1.2 0 1.76-1.1 1.76-2.44s-0.56-2.46-1.76-2.46h-0.020c-1.22 0-1.78 1.12-1.78 2.48s0.56 2.46 1.78 2.46zM19.098 9.042c-0.36 0-0.68 0.040-0.94 0.1l0.060 0.1 0.14 0.26 0.1 0.26 0.080 0.28 0.060 0.28 0.040 0.28 0.020 0.3v0.58l-0.020 0.3v0.218l-0.040 0.288-0.040 0.286-0.060 0.286-0.12 0.56-0.060 0.276-0.060 0.266-0.060 0.26-0.080 0.26-0.060 0.24-0.040 0.24-0.060 0.22-0.020 0.12-0.040 0.16-0.080 0.36-0.018 0.178-0.040 0.16v0.040l-0.080 0.4-0.028 0.22-0.040 0.22-0.020 0.22-0.040 0.22-0.030 0.24-0.020 0.22-0.060 0.72v0.020c0.060 0.66 0.1 1.24 0.12 1.56 0.040 0.38 0.1 0.64 0.22 0.82 0.18 0.26 0.46 0.36 0.88 0.4 0.34-0.040 0.6-0.1 0.8-0.3 0.2-0.164 0.3-0.46 0.38-0.92 0.16-0.94 0.58-4.064 0.94-5.404 0.54-1.932 1.8-5.44-1.3-5.708-0.14-0.020-0.26-0.020-0.4-0.020zM19.118 8.682c0.12 0 0.24-0.020 0.36-0.040 0.8-0.2 1.2-1.060 1.24-2.080 0.040-1.080-0.36-2-1.26-2.12-0.080-0.020-0.16-0.020-0.24-0.020-0.72 0-1.18 0.44-1.42 1.060-0.12 0.32-0.2 0.7-0.2 1.1-0.020 0.48 0.040 0.92 0.2 1.28 0.22 0.54 0.64 0.88 1.28 0.88zM22.838 10.282c5.72 0.080 9.060 3.6 5.28 8.4-1.76 2.22-4.7 4.42-8.64 5.82l-0.56 0.2c-0.38 0.12-0.74 0.24-1.1 0.34-0.86 0.24-1.68 0.46-2.48 0.62-0.86 0.18-1.7 0.3-2.5 0.4-0.58 0.060-1.14 0.1-1.66 0.1-3.66 0.1-6.42-0.9-7.32-3.040-1.080-2.56 1.1-6.12 5.48-8.84-3.24 1.3-9.12 4.38-9.38 8.76v0.56c0.020 0.46 0.1 0.9 0.26 1.38 0.94 2.96 5.34 4.36 10.94 3.86 0.54-0.040 1.1-0.1 1.66-0.18 0.8-0.12 1.64-0.28 2.48-0.48 0.8-0.18 1.64-0.42 2.48-0.68l0.56-0.18c0.38-0.12 0.74-0.24 1.1-0.38 4.86-1.76 8.46-4.1 10.56-6.8 1.2-1.54 1.82-2.98 1.94-4.24v-0.98c-0.34-3.22-4.080-5.1-9.16-4.58z"></path>
</svg>
