<!-- Generated by IcoMoon.io -->
<svg version="1.1" xmlns="http://www.w3.org/2000/svg" width="32" height="32" viewBox="0 0 32 32">
<title>brand102</title>
<path fill="#72ef36" d="M25.1 8.68c-0.252-0.168-0.42-0.42-0.42-0.76-0.42-4.464-4.13-7.92-8.68-7.92s-8.26 3.454-8.68 7.92c0 0.34-0.168 0.59-0.42 0.76-2.276 1.6-3.708 4.214-3.708 7.16 0 4.046 2.78 7.42 6.488 8.43 0.674 0.168 1.264 0.252 1.516 0.080 0.506-0.25 1.012-2.44 0.76-2.946-0.17-0.254-0.76-0.506-1.35-0.674-2.19-0.59-3.792-2.61-3.792-4.97 0-1.35 0.506-2.53 1.35-3.46 0.336-0.42 0.84-0.756 1.264-1.008 0.926-0.506 1.516-1.52 1.516-2.614 0-0.6 0.084-1.1 0.252-1.6 0.674-2.040 2.612-3.54 4.888-3.54s4.214 1.5 4.888 3.54c0.168 0.5 0.252 1 0.252 1.6 0 1.080 0.506 2.1 1.52 2.6 0.504 0.24 0.924 0.58 1.26 1 0.844 0.92 1.35 2.1 1.35 3.46 0 2.86-2.276 5.14-5.14 5.14-3.286 0-5.9 2.68-5.9 5.88v3.36c0 0.66 0.086 1.34 0.254 1.52 0.42 0.42 2.612 0.42 3.034 0 0.18-0.18 0.26-0.84 0.26-1.52v-3.44c0-1.26 1.020-2.28 2.28-2.28 4.8 0 8.68-3.88 8.68-8.68 0-2.88-1.42-5.48-3.7-7.080z"></path>
</svg>
