
<svg version="1.1" xmlns="http://www.w3.org/2000/svg" width="32" height="32" viewBox="0 0 32 32">
<title>brand123</title>
<path fill="#5091cd" d="M22.292 19.68l-7.108 7.116c-1.824 1.82-4.396 2.44-6.73 1.864-0.436 1.9-2.14 3.32-4.174 3.32-2.364 0-4.28-1.916-4.28-4.28 0-2.024 1.406-3.72 3.292-4.166-0.596-2.346 0.020-4.94 1.86-6.772l0.24-0.24 3.16 3.16-0.244 0.24c-1.026 1.040-1.026 2.7 0 3.72 1.028 1.040 2.696 1.040 3.716 0l0.62-0.62 6.492-6.502 3.156 3.16zM23.524 28.552c-2.43 0.748-5.18 0.16-7.104-1.76l-0.24-0.244 3.154-3.16 0.24 0.244c1.028 1.024 2.69 1.024 3.716 0 1.020-1.020 1.024-2.68-0.006-3.708l-7.11-7.116 3.16-3.16 7.108 7.12c1.82 1.814 2.46 4.37 1.88 6.694 2.080 0.3 3.68 2.080 3.68 4.24 0 2.38-1.92 4.28-4.28 4.28-2.060 0-3.8-1.46-4.18-3.42zM9.3 12.616l7.12-7.114c1.9-1.9 4.61-2.5 7.020-1.78 0.284-2.082 2.074-3.702 4.24-3.702 2.364 0 4.28 1.916 4.28 4.28 0 2.174-1.62 3.97-3.72 4.246 0.692 2.4 0.092 5.090-1.8 6.98l-0.24 0.246-3.16-3.16 0.244-0.244c1.026-1.026 1.026-2.688 0-3.712-1.020-1.020-2.68-1.024-3.708 0.004l-7.116 7.112-3.16-3.156zM5.764 16.146l-0.616-0.616c-1.908-1.908-2.5-4.634-1.776-7.052-1.906-0.438-3.332-2.138-3.332-4.178 0-2.36 1.92-4.28 4.28-4.28 2.128 0 3.894 1.554 4.226 3.588 2.308-0.54 4.836 0.088 6.64 1.888l0.244 0.246-3.16 3.16-0.244-0.24c-1.026-1.020-2.688-1.020-3.714 0-1.028 1.040-1.026 2.7-0.006 3.72l7.12 7.12-3.156 3.16-6.506-6.5z"></path>
</svg>
