
<svg version="1.1" xmlns="http://www.w3.org/2000/svg" width="32" height="32" viewBox="0 0 32 32">
<title>brand160</title>
<path fill="#2b579a" d="M32 4.976v22.064c0 0.186-0.066 0.34-0.2 0.46-0.134 0.124-0.294 0.184-0.48 0.184h-11.412v-3.060h9.31v-1.394h-9.318v-1.706h9.31v-1.392h-9.304v-1.72h9.31v-1.376h-9.31v-1.724h9.31v-1.392h-9.31v-1.704h9.31v-1.392h-9.31v-1.74h9.31v-1.324h-9.31v-3.46h11.416c0.2 0 0.36 0.064 0.48 0.2 0.14 0.132 0.2 0.292 0.2 0.476zM18.2 0.852v30.296l-18.2-3.148v-23.912l18.2-3.24zM15.454 9.796l-2.28 0.14-1.46 9.048h-0.034c-0.072-0.428-0.34-1.926-0.82-4.49l-0.852-4.35-2.14 0.106-0.854 4.244c-0.5 2.472-0.78 3.91-0.852 4.316h-0.020l-1.3-8.334-1.96 0.104 2.1 10.51 2.18 0.14 0.82-4.090c0.48-2.4 0.76-3.794 0.82-4.176h0.060c0.080 0.406 0.34 1.832 0.82 4.28l0.82 4.212 2.36 0.14 2.64-11.8z"></path>
</svg>
