<!-- Generated by IcoMoon.io -->
<svg version="1.1" xmlns="http://www.w3.org/2000/svg" width="32" height="32" viewBox="0 0 32 32">
<title>brand219</title>
<path fill="#e6162d" d="M13.44 27.064c-5.294 0.52-9.868-1.872-10.212-5.35-0.344-3.474 3.672-6.72 8.972-7.244 5.296-0.524 9.868 1.87 10.212 5.348 0.344 3.46-3.672 6.72-8.97 7.24zM12.046 22.932c-0.512 0.82-1.608 1.176-2.436 0.8-0.814-0.372-1.054-1.32-0.54-2.12 0.504-0.792 1.566-1.146 2.386-0.8 0.83 0.35 1.094 1.294 0.59 2.12zM13.736 20.766c-0.186 0.316-0.596 0.468-0.916 0.336-0.316-0.12-0.416-0.48-0.236-0.78 0.184-0.3 0.58-0.46 0.894-0.32 0.32 0.12 0.42 0.48 0.24 0.8zM13.972 17.146c-2.52-0.656-5.37 0.6-6.466 2.82-1.114 2.268-0.036 4.78 2.51 5.604 2.64 0.852 5.748-0.452 6.83-2.9 1.066-2.388-0.266-4.85-2.874-5.524zM24.038 15.518c-0.46-0.14-0.76-0.24-0.54-0.82 0.5-1.3 0.56-2.4 0-3.2-1.040-1.48-3.88-1.4-7.14-0.040 0 0-1.020 0.44-0.76-0.36 0.5-1.62 0.42-2.96-0.36-3.74-1.78-1.78-6.48 0.060-10.5 4.1-2.998 3.022-4.738 6.222-4.738 8.982 0 5.3 6.786 8.514 13.426 8.514 8.7 0 14.492-5.060 14.492-9.080 0-2.426-2.060-3.8-3.88-4.372zM26.578 8.738c-1.020-1.14-2.54-1.58-3.94-1.28-0.58 0.12-0.94 0.68-0.82 1.24s0.68 0.92 1.24 0.8c0.68-0.14 1.42 0.060 1.92 0.62s0.62 1.3 0.42 1.96c-0.18 0.54 0.12 1.14 0.68 1.32 0.54 0.16 1.14-0.14 1.32-0.68 0.44-1.36 0.16-2.9-0.86-4.040zM29.798 5.818c-2.1-2.34-5.2-3.22-8.060-2.62-0.66 0.14-1.080 0.78-0.94 1.44s0.78 1.080 1.44 0.94c2.040-0.44 4.24 0.2 5.72 1.84 1.48 1.66 1.9 3.92 1.26 5.88-0.22 0.64 0.14 1.34 0.78 1.54 0.64 0.22 1.32-0.14 1.54-0.78 0.9-2.78 0.32-5.96-1.78-8.3z"></path>
</svg>
