<!-- Generated by IcoMoon.io -->
<svg version="1.1" xmlns="http://www.w3.org/2000/svg" width="32" height="32" viewBox="0 0 32 32">
<title>brand64</title>
<path fill="#72be50" d="M21.016 20.764l-6.888-9.724 6.44-6.512h-4.528l-6.44 6.836v-6.836h-3.62v16.492h3.624v-5.3l2.076-2.1 4.98 7.442h6.702v-3.84c0-0.38 0.040-0.74 0.12-1.080 0.080-0.32 0.2-0.6 0.38-0.86 0.18-0.24 0.42-0.44 0.72-0.58s0.66-0.22 1.080-0.22c0.14 0 0.3 0.020 0.44 0.020 0.14 0.020 0.28 0.040 0.38 0.060v-2.16c-0.188-0.040-0.356-0.080-0.508-0.080-0.294 0-0.58 0.040-0.854 0.12-0.272 0.080-0.532 0.22-0.772 0.36-0.244 0.158-0.454 0.35-0.644 0.574-0.18 0.224-0.33 0.47-0.44 0.73h-0.032v-1.576h-2.216v8.234zM31.996 6.764h0.004v9.532c0 0.44-0.060 0.886-0.172 1.316-0.040 0.17-0.094 0.34-0.168 0.52-0.32 0.82-0.848 1.544-1.532 2.1-0.674 0.696-1.56 1.464-2.624 2.28l-0.148 0.112h0.004l-1.296 0.988c-1.59 1.216-4.272 3.27-8.22 6.28-0.64 0.488-1.386 0.9-1.844 0.9-0.46 0-1.2-0.412-1.844-0.9-3.946-3.010-6.632-5.064-8.22-6.28l-0.694-0.53-0.58-0.44-0.14-0.1c-1.060-0.82-1.94-1.58-2.62-2.28-0.702-0.582-1.242-1.302-1.562-2.122-0.068-0.18-0.124-0.348-0.16-0.52-0.12-0.44-0.18-0.88-0.18-1.328v-10.048c0-2.78 2.226-5.036 4.966-5.036h22.066c2.736 0 4.968 2.26 4.968 5.032v0.52z"></path>
</svg>
