
<svg version="1.1" xmlns="http://www.w3.org/2000/svg" width="32" height="32" viewBox="0 0 32 32">
<title>brand79</title>
<path fill="#396" d="M16 32c-8.836 0-16-7.164-16-16s7.164-16 16-16c8.836 0 16 7.164 16 16s-7.164 16-16 16zM16 29.78c7.61 0 13.78-6.17 13.78-13.78s-6.17-13.78-13.78-13.78c-7.61 0-13.78 6.17-13.78 13.78s6.17 13.78 13.78 13.78zM20.64 20.146c0-2.232-1.436-3.214-3.84-3.3l-1.5-0.070c-1.26-0.044-1.596-0.11-1.596-0.58 0-0.18 0.134-0.424 0.404-0.56 0.246 0.048 0.426 0.070 0.674 0.070 3.22 0 4.84-1.56 4.84-3.972 0-0.4-0.1-0.76-0.3-0.98h1.28v-2.68h-3.802c-0.63-0.154-1.19-0.266-1.954-0.266-3.39 0-5.072 1.964-5.072 4.24 0 1.426 0.674 2.454 1.68 2.988-0.78 0.312-1.364 1.16-1.364 2.054 0 0.78 0.43 1.404 1.080 1.716-0.852 0.448-1.62 1.54-1.62 2.588 0 2.21 1.8 3.3 4.854 3.3 3.83 0 6.26-2.14 6.26-4.548zM16.64 12.066c0 0.946-0.668 1.52-1.766 1.52-1.192 0-1.79-0.596-1.79-1.566 0-0.906 0.644-1.546 1.766-1.546 1.194 0 1.79 0.64 1.79 1.59zM17.528 20.546c0 0.84-0.816 1.484-2.426 1.484-1.26 0-2-0.54-2-1.334 0-0.472 0.3-0.946 0.8-1.332 0.12 0.020 0.3 0 0.44 0.020l1.8 0.044c1.060 0.044 1.44 0.516 1.44 1.12zM23.516 14.474c-1.32 0-2.432 1.112-2.432 2.46 0 1.344 1.112 2.43 2.432 2.43 1.346 0 2.46-1.086 2.46-2.432s-1.114-2.46-2.46-2.46z"></path>
</svg>
