
<svg version="1.1" xmlns="http://www.w3.org/2000/svg" width="32" height="32" viewBox="0 0 32 32">
<title>brand113</title>
<path fill="#e6b91e" d="M29.838 0h0.050c1.184 0.092 2.112 1.092 2.112 2.28v27.44c0 1.174-0.914 2.176-2.074 2.28h-27.792c-0.020 0-0.040 0-0.060-0.004-1.124-0.1-1.994-0.99-2.074-2.156v-27.712c0.080-1.136 0.99-2.048 2.16-2.128h27.68zM3.85 11.014v9.82h2.54v-9.82h-2.54zM19.050 20.834c0.604 0 1.066-0.040 1.364-0.1 0.308-0.064 0.56-0.18 0.76-0.354 0.208-0.16 0.352-0.4 0.434-0.696 0.080-0.3 0.136-0.886 0.136-1.76v-3.45c0-0.93-0.036-1.556-0.1-1.87-0.054-0.32-0.19-0.606-0.416-0.86-0.226-0.26-0.56-0.44-0.994-0.56-0.426-0.108-1.14-0.172-2.36-0.172h-1.9v9.82h3.074zM25.902 18.454c0 0.47-0.020 0.77-0.060 0.896s-0.24 0.19-0.4 0.19c-0.14 0-0.24-0.064-0.3-0.18-0.040-0.12-0.080-0.4-0.080-0.832v-2.596c0-0.444 0.040-0.724 0.080-0.832s0.14-0.16 0.3-0.16c0.16 0 0.36 0.052 0.42 0.188 0.060 0.126 0.080 0.4 0.080 0.804v2.52zM19.080 12.786c0.1 0.054 0.16 0.144 0.188 0.272 0.040 0.12 0.046 0.4 0.046 0.84v3.82c0 0.64-0.046 1.040-0.126 1.18s-0.308 0.22-0.67 0.22v-6.418c0.26 0 0.46 0.028 0.56 0.092zM11.8 11.014l-0.588 4.592-0.36-2.494c-0.11-0.806-0.21-1.5-0.308-2.1h-3.292v9.82h2.224l0.010-6.48 0.93 6.48h1.584l0.894-6.628v6.628h2.216v-9.82h-3.31zM22.604 11.014v9.82h2.288l0.154-0.626c0.208 0.252 0.434 0.444 0.688 0.57 0.24 0.1 0.614 0.18 0.904 0.18 0.4 0 0.74-0.1 1.040-0.32 0.28-0.22 0.46-0.46 0.54-0.76 0.060-0.3 0.12-0.72 0.12-1.32v-2.738c0-0.588-0.020-0.976-0.060-1.16-0.040-0.18-0.1-0.368-0.24-0.56-0.14-0.188-0.34-0.332-0.58-0.44-0.26-0.1-0.54-0.154-0.88-0.154-0.3 0-0.66 0.060-0.92 0.17-0.26 0.12-0.48 0.3-0.68 0.534v-3.2h-2.4z"></path>
</svg>
