<!-- Generated by IcoMoon.io -->
<svg version="1.1" xmlns="http://www.w3.org/2000/svg" width="32" height="32" viewBox="0 0 32 32">
<title>brand19</title>
<path fill="#1769ff" d="M9.28 5.974c0.94 0 1.792 0.080 2.568 0.25 0.772 0.164 1.43 0.436 1.988 0.812 0.548 0.374 0.98 0.872 1.284 1.5 0.3 0.62 0.452 1.394 0.452 2.31 0 0.99-0.226 1.82-0.676 2.48-0.452 0.66-1.12 1.204-2.008 1.624 1.212 0.348 2.108 0.96 2.704 1.832 0.6 0.88 0.89 1.94 0.89 3.16 0 1-0.18 1.86-0.56 2.58-0.38 0.74-0.9 1.34-1.56 1.8-0.64 0.46-1.4 0.8-2.24 1.020-0.82 0.22-1.68 0.34-2.56 0.34h-9.562v-19.702h9.28zM22.66 22.24c0.586 0.572 1.434 0.86 2.532 0.86 0.788 0 1.472-0.2 2.044-0.6 0.568-0.394 0.912-0.82 1.046-1.26h3.46c-0.54 1.714-1.4 2.94-2.54 3.676-1.14 0.74-2.52 1.11-4.12 1.11-1.12 0-2.12-0.18-3.040-0.54-0.9-0.36-1.66-0.87-2.3-1.532-0.62-0.664-1.1-1.452-1.44-2.376-0.34-0.92-0.5-1.94-0.5-3.040 0-1.080 0.18-2.060 0.54-2.98 0.36-0.94 0.86-1.72 1.5-2.4 0.66-0.68 1.42-1.2 2.32-1.6s1.88-0.58 2.98-0.58c1.22 0 2.26 0.22 3.18 0.7 0.9 0.46 1.64 1.1 2.22 1.88 0.6 0.78 1 1.68 1.26 2.7 0.26 1 0.34 2.060 0.28 3.18h-10.282c0 1.12 0.38 2.18 0.96 2.76zM8.96 22.306c0.426 0 0.832-0.040 1.214-0.124 0.388-0.080 0.732-0.22 1.020-0.4 0.292-0.18 0.532-0.44 0.706-0.78 0.174-0.32 0.26-0.76 0.26-1.28 0-1-0.286-1.72-0.854-2.16-0.57-0.42-1.328-0.64-2.26-0.64h-4.712v5.42h4.626zM27.16 14.752c-0.468-0.516-1.256-0.794-2.216-0.794-0.626 0-1.144 0.1-1.56 0.32-0.404 0.2-0.736 0.46-0.99 0.78-0.252 0.32-0.424 0.64-0.524 1-0.1 0.34-0.16 0.66-0.18 0.94h6.37c-0.094-1-0.434-1.74-0.9-2.26zM8.72 13.926c0.768 0 1.404-0.18 1.906-0.552 0.5-0.364 0.74-0.964 0.74-1.79 0-0.46-0.080-0.836-0.24-1.13-0.168-0.294-0.39-0.524-0.668-0.684-0.28-0.168-0.6-0.284-0.96-0.346-0.36-0.070-0.74-0.1-1.12-0.1h-4.058v4.6h4.4zM20.89 7.294h7.98v1.944h-7.98v-1.96z"></path>
</svg>
