<!-- Generated by IcoMoon.io -->
<svg version="1.1" xmlns="http://www.w3.org/2000/svg" width="32" height="32" viewBox="0 0 32 32">
<title>brand243</title>
<path fill="#008cdd" d="M18.614 12.2c-2.894-1.074-4.474-1.9-4.474-3.212 0-1.108 0.91-1.74 2.534-1.74 2.97 0 6.020 1.146 8.12 2.176l1.186-7.326c-1.664-0.798-5.070-2.098-9.78-2.098-3.33 0-6.1 0.872-8.080 2.496-2.060 1.7-3.13 4.16-3.13 7.128 0 5.386 3.288 7.68 8.634 9.624 3.446 1.228 4.594 2.1 4.594 3.444 0 1.308-1.12 2.060-3.14 2.060-2.5 0-6.62-1.228-9.32-2.812l-1.2 7.406c2.322 1.308 6.602 2.654 11.042 2.654 3.52 0 6.456-0.832 8.436-2.416 2.22-1.74 3.368-4.316 3.368-7.644 0-5.504-3.366-7.8-8.792-9.74z"></path>
</svg>
