
<svg version="1.1" xmlns="http://www.w3.org/2000/svg" width="32" height="32" viewBox="0 0 32 32">
<title>brand148</title>
<path d="M25.64 5.572l-5.42 3.104v-6.24l-4.228-2.436-4.22 2.44v6.236l-5.396-3.116-4.232 2.44v4.886l5.4 3.114-5.404 3.124v4.876l4.22 2.44 5.392-3.116v6.24l4.228 2.436 4.232-2.44v-6.236l5.4 3.104 4.232-2.44v-4.86l-5.39-3.128 5.41-3.114v-4.886l-4.22-2.428zM26.136 10.146v-2.526l2.186 1.256v2.54l-2.18-1.27zM28.322 22.526l-8.1-4.672 2.2-1.26 5.898 3.406v2.528zM19.22 17.26l-2.2-1.26 8.6-4.968 2.188 1.26-8.594 4.968zM4.18 12.292l2.188-1.26 8.604 4.968-2.186 1.26-8.606-4.968zM11.768 17.852l-8.1 4.676v-2.528l5.912-3.406 2.188 1.26zM3.668 11.42v-2.54l2.186-1.26v2.53l-2.186 1.27zM16.504 11.42v-9.354l2.186 1.248v6.832l-2.186 1.27zM13.3 10.14v-6.816l2.186-1.26v9.34l-2.186-1.264zM25.12 7.62v2.53l-8.606 4.98v-2.54l8.606-4.97zM15.484 12.586v2.53l-8.612-4.97v-2.526l8.614 4.96zM12.28 21.27l-5.912 3.406-2.186-1.26 8.098-4.676v2.53zM13.3 18.146l2.186-1.26v9.936l-2.186 1.28v-9.942zM18.176 28.966l-2.186 1.27-2.186-1.268 2.186-1.26 2.186 1.26zM18.7 28.090l-2.196-1.268v-9.922l2.196 1.26v9.944zM27.808 23.416l-2.186 1.26-5.9-3.406v-2.53l8.1 4.676z"></path>
</svg>
