
<svg version="1.1" xmlns="http://www.w3.org/2000/svg" width="32" height="32" viewBox="0 0 32 32">
<title>brand279</title>
<path fill="#0093da" d="M23.614 9.65c0-0.334 0-0.634 0.2-0.834 0.266-0.234 0.534-0.2 0.8-0.2h1.904c1.020 0 2.5 0.266 3.5 1.168 1 0.934 1.22 2.27 1.22 3.472v3.004c0 0.8 0.020 1.37-0.38 2.104-0.5 0.934-1.54 1.2-1.54 1.336 0 0.132 1.12 0.334 1.62 1.334 0.4 0.8 0.36 1.3 0.36 2.104v4.14c0 0.82 0 1.86-1.2 3.26-1.14 1.26-2.72 1.44-3.52 1.44-0.6 0-1.040 0.020-1.64 0-0.4-0.040-1 0.020-1.14-0.18-0.2-0.3-0.26-0.24-0.26-1.14v-21.018zM16.334 31.45c0 0.536-0.132 0.536-1.134 0.536-0.768 0-1 0-1-0.468v-21.878c0-0.334 0.032-0.7 0.232-0.9 0.268-0.234 0.5-0.134 0.768-0.134h1.904c1.068 0 2.504 0.266 3.504 1.168 1 0.934 1.236 2.304 1.236 3.472v3.014c0 0.8 0.034 1.37-0.368 2.104-0.5 0.934-1.568 1.2-1.568 1.336 0 0.132 1.1 0.334 1.6 1.334 0.4 0.8 0.37 1.3 0.37 2.104v8.3c0 0.52-0.24 0.52-1.14 0.52-0.78 0-1 0.020-1-0.48v-8.478c0-1.37-0.9-2.204-1.64-2.204-1.58 0-1.78-0.032-1.78 0.5v10.12zM11.228 31.95c-0.9 0-1 0-1-0.466v-22.334c0-0.434 0.2-0.5 1-0.5 0.9 0 1.134 0.032 1.134 0.532v22.24c0 0.5-0.060 0.54-1.12 0.54zM26.118 29.782c0.26 0.040 0.3 0.040 0.6 0.040 0.36 0 1.2-0.1 1.8-0.72 0.66-0.72 0.7-1.2 0.7-1.76v-4.28c0-1.54-0.9-2.2-1.9-2.2-1.44 0-1.54 0.1-1.54 0.9v7.020c0 0.38 0.020 1 0.32 1.040zM4.78 25.040c0.568-5.74 1.068-10.616 1.6-15.86 0.068-0.564 0.336-0.532 0.94-0.532 0.932 0 1.266 0.068 1.232 0.434-1 8.22-1.768 14.3-2.77 22.42-0.060 0.48-0.42 0.5-1.1 0.5-0.86 0-1.26 0-1.34-0.56-0.9-7.52-1.72-14.2-2.7-22.4-0.020-0.4 0.14-0.4 1.080-0.4 0.98 0 1.18 0.1 1.2 0.54 0.54 5.84 0.94 10.38 1.44 15.94 0 0.1 0.040 0.32 0.2 0.32 0.2 0 0.24-0.22 0.24-0.36zM17.2 10.82c-0.3 0-0.6 0-0.736 0.232-0.1 0.2-0.1 0.368-0.1 0.568v6.244c0 0.366-0.066 0.734 0.2 0.934 0.2 0.16 0.434 0.12 0.6 0.12 0.37 0 1.24-0.1 1.84-0.74 0.666-0.74 0.666-1.3 0.666-1.78v-3.138c0-0.768-0.134-1.336-0.7-1.936-0.368-0.334-0.568-0.5-1.77-0.5zM26.848 10.82c-0.468 0-0.834 0-0.968 0.232-0.1 0.2-0.1 0.368-0.1 0.568v6.244c0 0.366-0.034 0.666 0.2 0.9 0.2 0.2 0.334 0.168 0.6 0.168 0.468 0 1.236-0.1 1.84-0.734 0.664-0.74 0.664-1.24 0.664-1.78v-3.158c0-0.768-0.132-1.336-0.7-1.936-0.368-0.334-0.6-0.5-1.536-0.5zM14.488 2.68h-2.104v-2.154c0-0.494-0.23-0.526-1.114-0.526-0.784 0-0.98 0.066-0.98 0.49v2.19h-2.050c-0.492 0-0.526 0.232-0.526 1.114 0 0.786 0.066 0.98 0.492 0.98h2.084v2.066c0 0.456 0.1 0.456 0.98 0.456 1.048 0 1.114-0.032 1.114-0.524v-1.996h2.17c0.46 0 0.46-0.1 0.46-0.98 0-1.048-0.036-1.114-0.526-1.114z"></path>
</svg>
