<!-- Generated by IcoMoon.io -->
<svg version="1.1" xmlns="http://www.w3.org/2000/svg" width="32" height="32" viewBox="0 0 32 32">
<title>brand127</title>
<path fill="#20beff" d="M25.1 31.812c-0.030 0.124-0.156 0.188-0.374 0.188h-4.186c-0.248 0-0.468-0.11-0.656-0.33l-6.904-8.786-1.93 1.832v6.814c0 0.314-0.156 0.47-0.47 0.47h-3.24c-0.316 0-0.472-0.156-0.472-0.47v-31.060c0-0.31 0.156-0.47 0.472-0.47h3.24c0.314 0 0.47 0.16 0.47 0.47v19.124l8.27-8.364c0.22-0.22 0.44-0.328 0.66-0.328h4.32c0.19 0 0.314 0.080 0.38 0.24 0.060 0.2 0.046 0.34-0.048 0.42l-8.74 8.46 9.114 11.34c0.126 0.14 0.156 0.28 0.094 0.48z"></path>
</svg>
