
<svg version="1.1" xmlns="http://www.w3.org/2000/svg" width="32" height="32" viewBox="0 0 32 32">
<title>brand125</title>
<path d="M16.034 32c0.64-0.006 1.272-0.040 1.904-0.124 1.44-0.184 2.86-0.58 4.2-1.152 1.88-0.804 3.6-1.964 5.060-3.396 1.34-1.32 2.46-2.872 3.26-4.574 0.68-1.464 1.16-3.036 1.36-4.64 0.2-1.548 0.18-3.13-0.060-4.67-0.2-1.28-0.56-2.53-1.060-3.72-0.32-0.748-0.7-1.47-1.14-2.16-1.558-2.452-3.818-4.424-6.418-5.74-0.926-0.474-1.9-0.86-2.9-1.16h-0.006c0.16 0.084 0.32 0.176 0.46 0.268 0.16 0.1 0.32 0.196 0.468 0.3 0.76 0.514 1.46 1.104 2.080 1.776 1.42 1.526 2.4 3.4 2.96 5.392 0.38 1.312 0.58 2.668 0.66 4.028 0.060 0.992 0.060 1.99-0.060 2.976-0.2 1.694-0.74 3.35-1.64 4.8-0.66 1.070-1.52 2.026-2.54 2.78-1.66 1.24-3.84 1.98-5.92 1.488-0.34-0.080-0.68-0.196-1-0.344-0.36-0.166-0.72-0.37-1.040-0.6-0.62-0.414-1.18-0.914-1.66-1.476-0.58-0.694-1.060-1.484-1.4-2.332-0.42-1.076-0.64-2.232-0.66-3.39-0.040-1.7 0.3-3.408 1.14-4.9 0.56-0.992 1.32-1.864 2.22-2.56 0.3-0.236 0.62-0.444 0.94-0.64l0.020-0.008c-0.62-0.14-1.28-0.2-1.92-0.16-0.56 0.040-1.1 0.14-1.64 0.32-0.48 0.16-0.94 0.36-1.36 0.6-0.34 0.2-0.68 0.42-0.98 0.66-0.28 0.24-0.56 0.48-0.82 0.74-1.5 1.54-2.36 3.58-2.7 5.68-0.2 1.3-0.2 2.62-0.12 3.94 0.14 1.86 0.52 3.72 1.26 5.42 0.46 1.060 1.060 2.040 1.8 2.9 1.14 1.32 2.58 2.34 4.18 2.98 0.9 0.36 1.86 0.62 2.82 0.72 0.1 0.020 0.2 0.020 0.28 0.020zM12.118 31.47c-0.22-0.094-0.42-0.2-0.6-0.304-0.2-0.11-0.4-0.226-0.6-0.346-0.78-0.484-1.48-1.050-2.12-1.704-1.46-1.516-2.44-3.424-3-5.446-0.38-1.38-0.58-2.804-0.66-4.232-0.060-0.94-0.040-1.86 0.060-2.78 0.18-1.68 0.66-3.34 1.5-4.78 0.6-1.060 1.42-2 2.38-2.74 0.66-0.5 1.4-0.92 2.18-1.2 1.1-0.4 2.28-0.52 3.42-0.36 0.44 0.060 0.88 0.16 1.28 0.3 0.040 0 0.040 0 0.060 0.040 0.020 0.020 0.060 0.020 0.080 0.040 0.060 0.020 0.14 0.060 0.22 0.1 0.32 0.16 0.64 0.36 0.94 0.56 1.2 0.84 2.18 2 2.8 3.34 0.56 1.22 0.82 2.58 0.84 3.92 0.020 1.44-0.24 2.88-0.86 4.2-0.74 1.58-2 2.92-3.52 3.78 0.12 0.040 0.24 0.060 0.36 0.1 0.3 0.060 0.6 0.1 0.92 0.1 1.96 0.060 3.86-0.88 5.26-2.2 0.26-0.24 0.5-0.5 0.72-0.78 0.3-0.36 0.58-0.72 0.82-1.1 0.32-0.5 0.58-1 0.82-1.54 0.3-0.72 0.54-1.46 0.68-2.22 0.26-1.34 0.28-2.7 0.2-4.040-0.18-2.7-0.9-5.4-2.46-7.64-0.24-0.34-0.48-0.66-0.74-0.96-0.44-0.5-0.92-0.96-1.42-1.38-0.56-0.46-1.18-0.88-1.82-1.22-0.658-0.298-1.438-0.598-2.258-0.798l-0.4-0.080c-0.28-0.040-0.56-0.060-0.846-0.080-0.434-0.020-0.894-0.014-1.354 0.020-0.94 0.060-1.886 0.212-2.82 0.448-4.48 1.156-8.4 4.28-10.486 8.42-0.668 1.32-1.14 2.732-1.416 4.18-0.32 1.66-0.36 3.368-0.14 5.040 0.16 1.36 0.5 2.7 1.040 3.974 0.3 0.76 0.68 1.5 1.1 2.2 1.46 2.38 3.58 4.32 6.020 5.66 0.92 0.52 1.88 0.92 2.88 1.26 0.3 0.1 0.6 0.2 0.92 0.28z"></path>
</svg>
