<!-- Generated by IcoMoon.io -->
<svg version="1.1" xmlns="http://www.w3.org/2000/svg" width="32" height="32" viewBox="0 0 32 32">
<title>brand196</title>
<path fill="#9497ce" d="M22.454 14.052v-3.888c-1.312-5.202-6.466-5.272-6.466-5.272s-5.152 0.072-6.464 5.272v3.888h12.93zM15.988 0s9.44-0.31 11.388 10.164v7.132s-0.080 0.764-2.226 2.314c-2.148 1.552-7.706 5.918-9.16 5.918-1.458 0-7.016-4.366-9.162-5.918-2.148-1.55-2.228-2.314-2.228-2.314v-7.132c1.948-10.474 11.388-10.164 11.388-10.164zM15.988 27.134s1.464-0.144 2.608-0.94c1.146-0.794 8.78-6.25 8.78-6.25v10.8s-0.064 1.256-1.448 1.256h-19.88c-1.384 0-1.448-1.256-1.448-1.256v-10.8s7.634 5.456 8.78 6.25c1.146 0.796 2.608 0.94 2.608 0.94z"></path>
</svg>
