
<svg version="1.1" xmlns="http://www.w3.org/2000/svg" width="32" height="32" viewBox="0 0 32 32">
<title>brand249</title>
<path fill="#fbb631" d="M13.2 25.644c-0.794-1.792-1.228-3.732-1.276-5.68-1.284 1.986-2.254 3.984-2.9 5.474-0.032 0.060-0.506 1.24-0.644 1.6-0.172 0.44 0.060 0.98 0.512 1.14 0.364 0.14 1.552 0.56 1.626 0.6 1.52 0.5 3.62 1.12 5.94 1.5-1.38-1.32-2.48-2.9-3.26-4.66zM16.28 11.18c-4.51-9.214-14.53-8.884-16.11-4.766-1.214 3.164 4.096 10.7 16.32 5.26l0.004-0.006c-0.040-0.076-0.184-0.4-0.214-0.484zM18.4 10.55c-2.5-6.194 1.87-9.75 4.274-8.826 1.786 0.686 2.75 6.024-4.152 9.1 0-0.046-0.1-0.23-0.12-0.274zM31.214 17.57c-1.046-2.35-2.964-4.030-5.194-4.83-0.224-0.084-0.454-0.12-0.68-0.12-1.16 0-2.276 0.964-2.38 2.168-0.18 2.008 0.22 4.052 1.1 6.020 0.86 1.946 2.088 3.588 3.666 4.794 0.41 0.32 0.912 0.48 1.414 0.48 0.904 0 1.806-0.48 2.164-1.34 0.92-2.2 0.964-4.78-0.090-7.16z"></path>
<path fill="#fbb631" d="M25.974 27.892c-1.93-1.48-3.46-3.466-4.548-5.908-1.104-2.48-1.554-4.984-1.34-7.448 0.060-0.686 0.26-1.348 0.584-1.952l-0.184 0.046c-1.016 0.254-2 0.696-2.874 1.27-1.266 0.834-2.384 2.068-2.864 3.528-0.13 0.394-0.228 0.826-0.26 1.24-0.154 1.972 0.168 4.012 1.028 5.946 0.834 1.872 2.080 3.432 3.58 4.62 0.912 0.73 2.56 1.188 3.908 1.188 1.266 0 2.514-0.36 3.636-0.94 0.35-0.18 1.12-0.66 1.172-0.7-0.668-0.16-1.296-0.46-1.84-0.88z"></path>
</svg>
