
<svg version="1.1" xmlns="http://www.w3.org/2000/svg" width="32" height="32" viewBox="0 0 32 32">
<title>brand253</title>
<path fill="#12b7f5" d="M26.78 15.61c-0.084-1.21-0.314-2.66-0.936-3.516 0.6-7.648-4.6-12.172-9.848-12.094-5.248 0.086-10.446 4.446-9.846 12.094-0.62 0.856-0.854 2.3-0.932 3.516-1.54 2.36-3.24 5.96-1.346 9.434 0.964-0.42 1.74-1.332 1.994-2.46 0.734 1.8 1.806 3.506 3.25 4.82-2.070 0.404-3.54 1.38-3.49 2.444 0.060 1.312 2.406 2.274 5.234 2.14 2.354-0.114 4.3-0.94 4.854-1.976 0.060 0.008 0.506 0.008 0.566 0 0.552 1.040 2.5 1.868 4.854 1.976 2.828 0.128 5.174-0.828 5.234-2.14 0.048-1.066-1.42-2.040-3.488-2.44 1.446-1.32 2.52-3.020 3.25-4.82 0.254 1.128 1.028 2.040 1.992 2.46 1.886-3.472 0.188-7.074-1.348-9.434h-0.004v-0.004zM18.64 5.024c1.040 0.032 1.848 1.3 1.8 2.832-0.050 1.532-0.934 2.746-1.972 2.71-1.040-0.036-1.84-1.296-1.794-2.832 0.046-1.53 0.932-2.74 1.966-2.71zM13.196 4.852c1.072-0.040 1.98 1.214 2.032 2.796 0.050 1.58-0.78 2.89-1.85 2.92-1.070 0.040-1.98-1.212-2.030-2.794-0.050-1.58 0.776-2.892 1.846-2.92zM9.88 12.328c0.14-0.62 3.834-1.372 6.116-1.38 2.286-0.014 5.976 0.764 6.12 1.38 0.092 0.454-1.932 2.024-3.208 2.532-1.23 0.48-1.506 1.164-2.91 1.164-1.4 0-1.68-0.68-2.906-1.164-1.28-0.508-3.304-2.080-3.214-2.532zM15.996 29.238c-4.87-0.014-9.68-3.86-7.566-11.448 0.292 0.16 0.606 0.304 0.936 0.45-0.068 0.952-0.274 4.040-0.186 4.53 0.1 0.59 3.24 1.032 3.52 0.824 0.248-0.18 0.22-3.21 0.186-4.292 1.004 0.19 2.056 0.294 3.11 0.294 2.826 0.004 5.64-0.774 7.566-1.8 2.12 7.584-2.692 11.46-7.564 11.444z"></path>
<path fill="#12b7f5" d="M13.83 6.364c-0.452 0.016-0.8 0.59-0.78 1.286 0.020 0.7 0.404 1.25 0.854 1.24 0.45-0.020 0.8-0.592 0.78-1.288-0.020-0.694-0.404-1.248-0.854-1.236zM14.064 8.024c-0.168 0.008-0.314-0.214-0.32-0.5-0.012-0.286 0.116-0.516 0.286-0.52 0.17-0.008 0.314 0.22 0.324 0.5s-0.12 0.516-0.29 0.52zM19.236 8.39h-0.010c-0.114-0.004-0.204-0.1-0.2-0.21 0.012-0.2-0.024-0.754-0.276-1.020-0.094-0.1-0.208-0.144-0.356-0.144-0.684 0-0.7 1.004-0.704 1.046 0 0.12-0.086 0.21-0.208 0.21s-0.2-0.1-0.2-0.212c0-0.506 0.236-1.46 1.116-1.46 0.26 0 0.476 0.094 0.652 0.274 0.426 0.446 0.394 1.29 0.39 1.32 0 0.106-0.090 0.192-0.204 0.196zM15.996 15.332c0.264 0.008 0.4-0.016 0.596-0.050 0.5-0.096 1.008-0.572 1.488-0.84 1.034-0.64 1.224-0.52 2.86-1.974-1.104 0.894-2.14 1.37-3.214 1.686-0.294 0.086-0.994 0.14-1.728 0.144-0.734 0.012-1.434-0.060-1.726-0.144-1.076-0.316-2.112-0.788-3.212-1.688 1.634 1.454 1.828 1.332 2.86 1.972 0.48 0.27 0.988 0.75 1.488 0.844 0.19 0.036 0.33 0.044 0.588 0.052z"></path>
</svg>
