
<svg version="1.1" xmlns="http://www.w3.org/2000/svg" width="32" height="32" viewBox="0 0 32 32">
<title>brand117</title>
<path fill="#1f8ded" d="M28 0h-24c-2.21 0-4 1.79-4 4v24c0 2.21 1.79 4 4 4h24c2.21 0 4-1.79 4-4v-24c0-2.21-1.79-4-4-4zM20.266 5.866c0-0.588 0.48-1.066 1.068-1.066s1.066 0.48 1.066 1.066v14.25c0 0.59-0.48 1.068-1.066 1.068-0.59 0-1.068-0.48-1.068-1.068v-14.25zM14.934 5.326c0-0.588 0.476-1.066 1.066-1.066s1.066 0.48 1.066 1.066v15.468c0 0.588-0.476 1.066-1.066 1.066s-1.066-0.48-1.066-1.066v-15.468zM9.6 5.866c0-0.588 0.48-1.066 1.066-1.066 0.59 0 1.068 0.48 1.068 1.066v14.25c0 0.59-0.48 1.068-1.068 1.068s-1.066-0.48-1.066-1.068v-14.25zM4.266 8c0-0.59 0.48-1.066 1.068-1.066s1.066 0.476 1.066 1.066v9.594c0 0.588-0.48 1.066-1.066 1.066-0.59 0-1.068-0.48-1.068-1.066v-9.594zM27.36 24.27c-0.164 0.14-4.116 3.456-11.36 3.456s-11.196-3.314-11.36-3.456c-0.448-0.384-0.5-1.056-0.116-1.504 0.38-0.446 1.054-0.5 1.5-0.12 0.064 0.054 3.592 2.948 9.976 2.948 6.464 0 9.94-2.914 9.972-2.944 0.446-0.384 1.12-0.332 1.504 0.116s0.332 1.12-0.116 1.504zM27.734 17.594c0 0.588-0.48 1.066-1.068 1.066s-1.066-0.48-1.066-1.066v-9.594c0-0.59 0.48-1.066 1.066-1.066 0.59 0 1.068 0.476 1.068 1.066v9.594z"></path>
</svg>
