
<svg version="1.1" xmlns="http://www.w3.org/2000/svg" width="32" height="32" viewBox="0 0 32 32">
<title>brand259</title>
<path fill="#ed1c24" d="M16 32c-8.82 0-16-7.18-16-16s7.18-16 16-16 16 7.18 16 16-7.18 16-16 16zM16 1.614c-7.934 0-14.386 6.452-14.386 14.386s6.452 14.386 14.386 14.386c7.934 0 14.386-6.452 14.386-14.386s-6.452-14.386-14.386-14.386zM6.52 24.708c2.34 2.56 5.724 4.152 9.48 4.152 1.92 0 3.734-0.42 5.37-1.17l-8.93-8.906-5.92 5.924zM25.57 24.618c2.054-2.28 3.314-5.32 3.314-8.62 0-5.18-3.050-9.62-7.426-11.68l-8.118 8.102 12.22 12.2zM12.4 13.38l-6.764 6.74-0.906-0.906 15.424-15.414c-1.304-0.44-2.694-0.68-4.154-0.68-7.116-0.004-12.884 5.764-12.884 12.88 0 2.896 0.95 5.57 2.586 7.734l6.74-6.74 0.48 0.44 9.66 9.66c0.2-0.11 0.38-0.22 0.56-0.354l-10.702-10.674-6.472 6.474-0.906-0.904 7.38-7.38 0.48 0.44 11.28 11.248c0.18-0.132 0.34-0.286 0.5-0.42l-12.182-12.154-0.112 0.020zM16.464 14.75l-0.904-0.9 6.384-6.388 0.906 0.92-6.386 6.38zM22.52 5.98l-7.36 7.36-0.906-0.904 7.36-7.36 0.906 0.91z"></path>
</svg>
