<!-- Generated by IcoMoon.io -->
<svg version="1.1" xmlns="http://www.w3.org/2000/svg" width="32" height="32" viewBox="0 0 32 32">
<title>brand285</title>
<path d="M16.088 17.496c-1.246 2.57-2.95 6.052-3.796 7.62-0.82 1.43-1.5 1.24-2.040 0.040-1.87-4.42-5.712-12.168-7.52-16.512-0.334-0.8-0.586-1.314-0.824-1.516-0.24-0.2-0.736-0.32-1.492-0.36-0.28-0.034-0.416-0.1-0.416-0.212v-0.606l0.068-0.060c1.23-0.006 7.188 0 7.188 0l0.068 0.060v0.576c0 0.16-0.1 0.236-0.3 0.236l-0.75 0.040c-0.644 0.040-0.966 0.22-0.966 0.58 0 0.18 0.068 0.44 0.22 0.8 1.44 3.52 6.412 14 6.412 14l0.18 0.060 3.208-6.4-0.64-1.42-2.208-4.342s-0.424-0.87-0.57-1.16c-0.968-1.92-0.946-2.020-1.926-2.152-0.274-0.032-0.416-0.066-0.416-0.2v-0.62l0.080-0.060h5.712l0.15 0.050v0.6c0 0.14-0.1 0.2-0.3 0.2l-0.41 0.062c-1.054 0.080-0.88 0.508-0.18 1.892l2.104 4.328 2.34-4.664c0.39-0.85 0.31-1.064 0.148-1.26-0.094-0.112-0.406-0.292-1.080-0.32l-0.268-0.028c-0.068 0-0.13-0.020-0.192-0.068-0.060-0.040-0.090-0.1-0.090-0.17v-0.57l0.080-0.060c1.66-0.010 5.38 0 5.38 0l0.080 0.060v0.58c0 0.16-0.080 0.236-0.26 0.236-0.86 0.040-1.040 0.126-1.36 0.584-0.16 0.248-0.5 0.784-0.86 1.384l-3.062 5.686-0.088 0.18 3.716 7.6 0.226 0.064 5.852-13.89c0.204-0.56 0.172-0.96-0.088-1.19-0.26-0.228-0.46-0.364-1.14-0.392l-0.56-0.020c-0.080 0-0.14-0.020-0.2-0.060s-0.1-0.1-0.1-0.16v-0.58l0.080-0.060h6.6l0.060 0.060v0.58c0 0.16-0.1 0.24-0.28 0.24-0.86 0.040-1.5 0.24-1.92 0.56-0.42 0.34-0.74 0.82-0.98 1.42 0 0-5.38 12.32-7.22 16.42-0.7 1.34-1.4 1.22-2-0.040-0.76-1.56-2.36-5.040-3.52-7.6z"></path>
</svg>
