<!-- Generated by IcoMoon.io -->
<svg version="1.1" xmlns="http://www.w3.org/2000/svg" width="32" height="32" viewBox="0 0 32 32">
<title>brand35</title>
<path d="M11.32 32c-2.017-0.906-3.437-2.817-3.628-5.078 0.126-2.394 1.384-4.447 3.239-5.666-0.291 0.757-0.215 1.635 0.227 2.343 0.5 0.698 1.364 1.036 2.206 0.86 0.961-0.275 1.652-1.146 1.652-2.178 0-0.677-0.298-1.285-0.769-1.7-1.134-0.929-1.851-2.326-1.851-3.89 0-0.244 0.017-0.484 0.051-0.719 0.245-0.928 0.759-1.739 1.454-2.349-0.535 1.435 0.989 2.855 2.011 3.555 1.814 1.088 3.56 2.284 5.232 3.58 1.64 1.299 2.682 3.29 2.682 5.525 0 0.167-0.006 0.333-0.017 0.497-0.423 2.454-2.165 4.438-4.464 5.204 4.683-1.046 9.553-4.806 9.655-10.146-0.103-4.37-2.726-8.103-6.467-9.812l-0.249-0.028c0.076 0.181 0.121 0.392 0.121 0.613 0 0.017-0 0.033-0.001 0.050 0.007-0.068 0.011-0.145 0.011-0.222s-0.004-0.154-0.011-0.23c0.021 0.182 0.021 0.358 0.001 0.53-0.25 1-1.141 1.729-2.201 1.729-0.713 0-1.35-0.33-1.765-0.845-1.565-2.004-0.003-4.284 0.259-6.484 0.008-0.138 0.013-0.298 0.013-0.46 0-2.74-1.338-5.167-3.397-6.663 1.118 1.884-0.404 4.384-1.508 5.804-1.102 1.42-2.706 2.48-4.008 3.72-1.391 1.3-2.654 2.699-3.79 4.198-1.893 2.311-3.005 5.194-3.005 8.336 0 0.951 0.102 1.878 0.295 2.772 1.119 3.616 4.163 6.4 7.938 7.143l0.086 0.011z"></path>
</svg>
