<!-- Generated by IcoMoon.io -->
<svg version="1.1" xmlns="http://www.w3.org/2000/svg" width="32" height="32" viewBox="0 0 32 32">
<title>brand16</title>
<path fill="#6c6" d="M16 2.666c8.614 0 15.36 10.958 16 20.214-2.7 4.694-9.22 6.454-16 6.454s-13.296-1.762-16-6.454c0.64-9.254 7.386-20.214 16-20.214zM29.75 20.676s-1.904-4.114-3.836-6.514c-1.936-2.4-4.3-5-5.696-5-1.4 0-5.3 6.92-7.1 6.92s-2.72-3.12-4.92-3.12c-2.2 0-5.7 7.56-5.7 7.56l-0.24 1.3s1.22 5.38 13.94 5.38c12.72 0 13.74-5.3 13.74-5.3l-0.2-1.18z"></path>
</svg>
