<!-- Generated by IcoMoon.io -->
<svg version="1.1" xmlns="http://www.w3.org/2000/svg" width="32" height="32" viewBox="0 0 32 32">
<title>brand121</title>
<path fill="#d24939" d="M3.828 32h-1.3c-0.034-0.088-0.064-0.176-0.092-0.264-0.288-0.888-0.792-1.986-0.924-2.872-0.196-1.312 1.040-1.386 1.832-1.954 1.22-0.88 2.18-1.366 3.504-2.16 0.392-0.236 1.574-0.83 1.708-1.104 0.268-0.544-0.46-1.31-0.654-1.736-0.3-0.674-0.46-1.246-0.5-1.91-1.1-0.176-1.94-0.836-2.46-1.58-0.84-1.234-1.42-3.516-0.7-5.25 0.060-0.136 0.34-0.406 0.38-0.616 0.080-0.412-0.14-0.96-0.16-1.4-0.080-2.256 0.38-4.2 1.9-4.88 0.618-2.454 2.818-3.27 4.898-4.49 0.774-0.456 1.632-0.748 2.52-1.074 3.16-1.17 8.036-0.95 10.66 1.044 1.114 0.844 2.9 2.628 3.54 3.92 1.684 3.406 1.564 9.1 0.384 13.246-0.16 0.56-0.388 1.376-0.71 2.044-0.224 0.466-0.92 1.4-0.834 1.814 0.086 0.42 1.586 1.56 1.908 1.86 0.58 0.56 1.68 1.3 1.766 2 0.096 0.74-0.33 1.78-0.546 2.5-0.29 0.96-0.58 1.92-0.874 2.84h-25.248zM18.634 27.276c-0.726-0.396-1.816-0.828-2.752-1.006-1.16-0.22-1.040 1.584-1 2.66 0.040 0.854 0.48 1.756 0.68 2.324 0.1 0.264 0.12 0.546 0.34 0.6 0.4 0.090 1.72-0.436 2.1-0.64 0.8-0.436 1.42-1.124 2.1-1.586 0.020-0.224 0.020-0.45 0.040-0.674-0.4-0.2-0.86-0.346-1.46-0.372 0.42-0.2 1-0.2 1.38-0.44l0.020-0.26c-0.66-0.040-0.92-0.34-1.36-0.58zM28.574 31.192c0.26-0.824 0.48-1.628 0.62-2.336 0.080-0.384 0.288-1.224 0.24-1.566-0.080-0.614-0.914-1.068-1.34-1.448-0.78-0.7-1.268-1.3-2.080-1.96-0.332 0.5-1.040 0.82-1.31 1.22 1.928-0.92 2.276 3.5 1.52 4.92 0.12 0.44 0.52 0.6 0.684 0.98l-0.116 0.22h1.72c0.020 0 0.044 0 0.060 0.020zM19.728 31.178c-0.064-0.1-0.132-0.18-0.2-0.28l-0.4 0.26h0.6zM23.424 31.178c0.012-0.28 0.024-0.54 0.040-0.8-0.706 0.040-1.1-0.64-1.594-0.7-0.432-0.060-0.8 0.48-1.36 0.26-0.128 0.14-0.246 0.3-0.38 0.42 0.206 0.24 0.392 0.5 0.564 0.78h1.088c0.020-0.22 0.18-0.38 0.4-0.38s0.38 0.16 0.38 0.36h0.88zM26.244 31.178c-0.42-0.64-1.264-1.2-2.24-0.74l-0.040 0.72h2.28zM14.898 31.178l-0.14-0.46c-0.3-0.96-0.48-1.68-0.54-2.24-1.22-0.58-2.5-1.16-3.54-1.9-0.2-0.14-1.48-1.8-1.64-1.74-2.32 0.9-4.48 2.48-6.42 3.98 0.34 0.74 0.64 1.52 0.92 2.32h11.34zM25.918 28.358c-0.040-0.68-0.22-2.080-0.64-2.32-0.88-0.52-2.46 1.040-3.12 1.26 0.060 0.2 0.18 0.36 0.2 0.64 0.38-0.1 0.86-0.040 1.2 0.12-0.4 0.040-0.84 0.040-1.1 0.22-0.1 0.26 0.020 0.64-0.040 1.020 0.92 0.26 2 0.4 3.18 0.44 0.22-0.3 0.3-0.86 0.28-1.44zM20.478 27.878c-0.060 0.5 0.060 0.68 0.16 1.26 1.68 0.52 1.38-2.32-0.18-1.28zM11.68 26c-0.6 0.608 1.696 1.44 2.42 1.486 0-0.388 0.22-0.752 0.18-1.030-0.866-0.154-2.004-0.054-2.594-0.46zM19.1 26.284c0 0.060-0.080 0.040-0.090 0.086 0.774 0.604 1.35 0.73 2.404 0.68 0.472-0.348 0.894-0.75 1.39-1.074-1.14 0.1-2.576 0.808-3.7 0.306zM23.66 2.648c-2.14-1.208-5.8-2.12-8.1-0.974-1.84 0.924-4.36 2.454-5.2 4.39 0.8 1.87-0.22 3.58-0.3 5.48-0.024 1.010 0.48 1.892 0.52 2.99-0.268 0.45-1.1 0.506-1.68 0.476-0.194-0.972-0.534-2.066-1.54-2.176-1.42-0.154-2.46 1.020-2.52 2.244-0.080 1.44 1.11 3.82 2.78 3.66 0.652-0.060 0.812-0.72 1.52-0.72 0.38 0.76-0.594 1-0.7 1.54-0.020 0.14 0.080 0.68 0.14 0.94 0.312 1.26 0.992 2.88 1.66 3.84 0.846 1.2 2.512 1.4 4.306 1.52 0.32-0.7 1.5-0.64 2.272-0.46-0.92-0.36-1.78-1.26-2.5-2.040-0.82-0.9-1.64-1.88-1.68-3.040 1.54 2.14 2.8 4 5.6 4.94 2.12 0.7 4.6-0.34 6.22-1.48 0.68-0.48 1.080-1.24 1.56-1.92 1.8-2.58 2.64-6.28 2.46-9.86-0.080-1.48-0.080-2.96-0.58-3.94-0.52-1.040-2.26-1.96-3.3-1.040-0.2-1.020 0.84-1.64 2.060-1.28-0.88-1.14-1.78-2.48-3.020-3.18zM18.108 19.86c0.82 2.060 3.634 1.82 6.008 1.766-0.112 0.26-0.34 0.58-0.62 0.686-0.76 0.31-2.86 0.544-3.916-0.016-0.674-0.36-1.1-1.164-1.47-1.636-0.18-0.228-1.060-0.81-0.014-0.812zM18.328 18.7c1.19 0.62 3.36 0.69 4.976 0.64 0.090 0.356 0.088 0.792 0.092 1.22-2.070 0.106-4.516-0.406-5.060-1.86zM27.228 17.92c-0.63 1.2-1.526 2.53-3.384 2.57-0.032-0.38-0.060-0.98 0-1.206 1.42-0.136 2.3-0.86 3.39-1.354zM26.364 17.030c-1.36 0.88-2.872 1.834-5.1 1.614-0.468-0.414-0.648-1.334-0.186-1.944 0.24 0.416 0.080 1.18 0.76 1.292 1.26 0.22 2.72-0.772 3.64-1.12 0.56-0.95-0.060-1.3-0.56-1.91-1.040-1.24-2.44-2.8-2.4-4.68 0.42-0.3 0.46 0.46 0.52 0.6 0.54 1.28 1.9 2.9 2.9 4 0.24 0.28 0.64 0.52 0.68 0.7 0.12 0.52-0.34 1.14-0.28 1.48zM8.444 16.13c-0.42-0.246-0.524-1.32-1.024-1.348-0.714-0.040-0.584 1.4-0.58 2.24-0.494-0.44-0.58-1.82-0.22-2.52-0.41-0.2-0.594 0.22-0.824 0.38 0.294-2.12 3.12-0.98 2.652 1.28zM6.284 7.99c-0.914 1.008-0.72 2.9-0.612 4.25 1.66-1.046 3.866 0.080 3.844 1.86 0.794-0.020 0.296-0.992 0.154-1.62-0.47-2.040 0.79-4.25 0.056-6.12-1.42 0.112-2.588 0.694-3.44 1.62zM18.444 9.476c0.41 0.748 0.54 1.53 1.12 2.092 0.26 0.256 0.766 0.566 0.516 1.27-0.060 0.16-0.488 0.52-0.734 0.6-0.9 0.26-3.006 0.040-2.294-1.080 0.748 0.020 1.752 0.48 2.31-0.060-0.42-0.7-1.18-2.040-0.9-2.84zM26.712 9.456h0.090c0.44 0.892 0.8 1.834 1.34 2.62-0.36 0.84-2.74 1.588-2.7 0.076 0.52-0.226 1.4-0.046 1.86-0.334-0.26-0.74-0.64-1.34-0.58-2.36zM17.472 7.3c-1.896-0.44-2.84 0.79-3.412 2.070-0.512-0.124-0.308-0.82-0.18-1.176 0.34-0.934 1.708-2.176 2.824-2.008 0.48 0.076 1.132 0.514 0.768 1.112zM12.856 2.12c-2.080 0.588-4.746 2.1-5.6 3.966 0.66-0.094 1.12-0.428 1.774-0.468 0.246-0.020 0.57 0.1 0.854 0.020 0.564-0.14 1.040-1.42 1.468-1.88 0.416-0.46 0.914-0.66 1.256-1.080 0.22-0.12 0.544-0.1 0.56-0.44-0.1-0.1-0.2-0.18-0.312-0.14z"></path>
</svg>
