<!-- Generated by IcoMoon.io -->
<svg version="1.1" xmlns="http://www.w3.org/2000/svg" width="32" height="32" viewBox="0 0 32 32">
<title>brand36</title>
<path d="M31.976 10.886c-0.008-0.040-0.014-0.080-0.024-0.116l-0.020-0.066c-0.012-0.034-0.024-0.068-0.040-0.1-0.006-0.024-0.020-0.046-0.028-0.068l-0.046-0.090-0.040-0.064-0.060-0.080-0.060-0.060-0.080-0.060-0.060-0.040-0.080-0.060-0.060-0.040-0.020-0.020-14.598-9.782c-0.46-0.308-1.060-0.308-1.52 0l-14.796 9.87-0.050 0.054-0.068 0.074-0.048 0.060-0.060 0.080c-0.020 0.020-0.040 0.040-0.040 0.060l-0.060 0.080-0.020 0.080c-0.020 0.020-0.020 0.060-0.040 0.1l-0.020 0.060c-0.020 0.040-0.020 0.080-0.020 0.12v0.060c-0.018 0.062-0.018 0.122-0.018 0.182v9.75c0 0.060 0.004 0.12 0.012 0.18l0.014 0.060c0.006 0.040 0.012 0.080 0.026 0.116l0.020 0.066c0.012 0.036 0.020 0.070 0.036 0.1l0.030 0.066c0 0.020 0.020 0.060 0.040 0.080l0.040 0.060c0.020 0.020 0.040 0.060 0.060 0.080l0.040 0.060 0.060 0.060c0.020 0.020 0.020 0.040 0.040 0.040l0.080 0.060 0.060 0.040 0.020 0.020 14.62 9.76c0.22 0.16 0.5 0.22 0.76 0.22s0.52-0.080 0.76-0.24l14.802-9.822 0.060-0.052 0.070-0.074 0.048-0.060 0.060-0.080 0.040-0.064 0.040-0.092 0.020-0.072 0.040-0.1 0.020-0.060 0.040-0.1v-10c0-0.060 0-0.12-0.020-0.18l-0.020-0.060zM16 19.252l-4.864-3.252 4.864-3.252 4.864 3.252-4.864 3.252zM14.624 10.36l-5.96 3.986-4.812-3.22 10.772-7.18v6.414zM6.19 16l-3.44 2.3v-4.6l3.44 2.3zM8.664 17.656l5.96 3.986v6.42l-10.772-7.18 4.812-3.22zM17.374 21.642l5.96-3.98 4.814 3.22-10.774 7.18v-6.4zM25.81 16l3.44-2.3v4.6l-3.44-2.3zM23.336 14.346l-5.96-3.986v-6.42l10.772 7.18-4.812 3.22z"></path>
</svg>
