<!-- Generated by IcoMoon.io -->
<svg version="1.1" xmlns="http://www.w3.org/2000/svg" width="32" height="32" viewBox="0 0 32 32">
<title>brand280</title>
<path fill="#142787" d="M23.26 11.494c-0.514-0.194-1.32-0.4-2.32-0.4-2.56 0-4.366 1.29-4.38 3.14-0.016 1.36 1.286 2.124 2.268 2.58 1.010 0.466 1.348 0.76 1.344 1.18-0.006 0.636-0.806 0.926-1.55 0.926-1.020 0-1.58-0.144-2.44-0.5l-0.32-0.15-0.36 2.13c0.62 0.26 1.74 0.484 2.9 0.5 2.72 0 4.5-1.28 4.52-3.252 0.020-1.084-0.68-1.906-2.16-2.584-0.9-0.44-1.46-0.734-1.46-1.18 0-0.394 0.48-0.816 1.48-0.816 0.86-0.014 1.46 0.172 1.94 0.364l0.24 0.108 0.36-2.060zM29.904 11.268h-2c-0.624 0-1.088 0.17-1.36 0.788l-3.848 8.712h2.72l0.546-1.428 3.32 0.004c0.080 0.332 0.32 1.424 0.32 1.424h2.398l-2.096-9.5zM12.88 11.188h2.592l-1.62 9.504h-2.592l1.62-9.506zM6.294 16.428l0.27 1.32 2.536-6.48h2.744l-4.080 9.486h-2.74l-2.24-8.034c-0.046-0.136-0.104-0.23-0.24-0.316-0.756-0.396-1.604-0.72-2.544-0.944l0.034-0.2h4.176c0.564 0.020 1.020 0.2 1.176 0.804l0.908 4.366zM26.708 17.396l1.032-2.66c-0.014 0.028 0.214-0.548 0.344-0.906l0.176 0.82 0.6 2.744h-2.152z"></path>
</svg>
