
<svg version="1.1" xmlns="http://www.w3.org/2000/svg" width="32" height="32" viewBox="0 0 32 32">
<title>brand254</title>
<path fill="#c00" d="M16 7.15l3.3-4.036s5.66 0.12 11.294 2.74c-1.444 2.18-4.308 3.25-4.308 3.25-0.194-1.92-1.54-2.388-5.808-2.388l-4.478 25.284-4.508-25.288c-4.24 0-5.584 0.472-5.78 2.39 0 0-2.86-1.060-4.306-3.24 5.634-2.622 11.294-2.742 11.294-2.742l3.3 4.028-0.006 0.004h0.006v-0.004zM16 1.95c4.554-0.040 9.768 0.704 15.104 3.040 0.714-1.29 0.896-1.86 0.896-1.86-5.834-2.314-11.296-3.11-16-3.13-4.704 0.020-10.166 0.814-16 3.132 0 0 0.26 0.7 0.896 1.86 5.336-2.34 10.55-3.080 15.104-3.046z"></path>
</svg>
