<!-- Generated by IcoMoon.io -->
<svg version="1.1" xmlns="http://www.w3.org/2000/svg" width="32" height="32" viewBox="0 0 32 32">
<title>brand246</title>
<path d="M16 0c8.834 0 16 7.164 16 16s-7.166 16-16 16c-8.834 0-16-7.164-16-16s7.166-16 16-16zM17.996 14.22c0.248 0.204 0.566 0.326 0.914 0.326 0.8 0 1.454-0.652 1.454-1.456 0-0.8-0.652-1.454-1.454-1.454-0.804 0-1.456 0.652-1.456 1.454 0 0.348 0.12 0.666 0.324 0.914l-1.78 1.78-1.778-1.784c0.204-0.248 0.326-0.566 0.326-0.914 0-0.8-0.652-1.454-1.456-1.454-0.8 0-1.454 0.652-1.454 1.454 0 0.804 0.652 1.456 1.454 1.456 0.348 0 0.666-0.12 0.914-0.32l1.78 1.78-1.78 1.78c-0.25-0.2-0.566-0.32-0.914-0.32-0.8 0-1.454 0.66-1.454 1.46s0.652 1.46 1.454 1.46c0.804 0 1.456-0.64 1.456-1.44 0-0.34-0.12-0.66-0.324-0.9l1.78-1.8 1.78 1.78c-0.2 0.26-0.32 0.58-0.32 0.92 0 0.8 0.66 1.46 1.46 1.46s1.46-0.64 1.46-1.44c0-0.8-0.64-1.44-1.44-1.44-0.34 0-0.66 0.12-0.9 0.32l-1.822-1.842 1.78-1.78z"></path>
</svg>
