<!-- Generated by IcoMoon.io -->
<svg version="1.1" xmlns="http://www.w3.org/2000/svg" width="32" height="32" viewBox="0 0 32 32">
<title>brand76</title>
<path fill="#f94877" d="M23.644 4.62l-0.716 3.732c-0.086 0.404-0.594 0.83-1.066 0.83h-6.642c-0.748 0-1.284 0.52-1.284 1.26v0.82c0 0.76 0.54 1.28 1.288 1.28h5.64c0.526 0 1.046 0.58 0.93 1.14l-0.714 3.68c-0.066 0.32-0.42 0.84-1.048 0.84h-4.608c-0.84 0-1.092 0.12-1.652 0.8-0.56 0.7-5.608 6.76-5.608 6.76-0.050 0.060-0.1 0.040-0.1-0.020v-21.182c0-0.48 0.414-1.040 1.036-1.040h13.7c0.5 0 0.972 0.474 0.844 1.094zM24.244 19.26c0.192-0.77 2.328-11.712 3.040-15.18zM24.654 0h-17.070c-2.354 0-3.044 1.772-3.044 2.886v27.12c0 1.254 0.672 1.72 1.052 1.874s1.426 0.284 2.054-0.44c0 0 8.060-9.35 8.196-9.488 0.22-0.21 0.22-0.21 0.42-0.21h5.22c2.2 0 2.54-1.56 2.78-2.48 0.2-0.76 2.34-11.7 3.040-15.18 0.538-2.642-0.142-4.082-2.642-4.082z"></path>
</svg>
