<!-- Generated by IcoMoon.io -->
<svg version="1.1" xmlns="http://www.w3.org/2000/svg" width="32" height="32" viewBox="0 0 32 32">
<title>brand80</title>
<path fill="#8cc63f" d="M32 16c0-8.836-7.164-16-16-16s-16 7.164-16 16c0 8.836 7.164 16 16 16s16-7.164 16-16zM16 20.85c-0.514 0.26-1.208 0.388-2.080 0.388-0.348 0-0.86-0.040-1.544-0.14-0.684-0.080-1.2-0.12-1.544-0.12-1.274 0-1.912 0.38-1.912 1.16 0 0.46 0.288 0.82 0.864 1.080s1.308 0.38 2.196 0.38c1.32 0 2.966-0.66 4.040-1.64l0.020-0.020c1.076 0.98 2.656 1.66 3.98 1.66 0.888 0 1.62-0.14 2.196-0.4 0.576-0.28 0.864-0.64 0.864-1.1 0-0.78-0.64-1.18-1.912-1.18-0.346 0-0.86 0.040-1.54 0.12-0.686 0.080-1.2 0.12-1.544 0.12-0.876 0-1.57-0.12-2.084-0.38zM16 9.044c1.030-0.9 2.292-1.354 3.786-1.354 1.184 0 2.176 0.22 2.974 0.666l1.208-1.406 2.134 1.94-1.46 1.070c0.52 0.774 0.78 1.688 0.78 2.74 0 1.506-0.46 2.708-1.36 3.61-0.92 0.9-2.060 1.35-3.46 1.35-0.22 0-0.52-0.020-0.88-0.060l-0.52-0.080c-0.060 0-0.26 0.090-0.66 0.266-0.38 0.176-0.56 0.36-0.56 0.548 0 0.328 0.28 0.492 0.86 0.492 0.26 0 0.68-0.060 1.28-0.184 0.6-0.12 1.12-0.18 1.54-0.18 3 0 4.5 1.22 4.5 3.62 0 1.34-0.6 2.38-1.8 3.14s-2.64 1.14-4.34 1.14c-1.4 0-2.72-0.28-3.96-0.86-1.22 0.58-2.54 0.88-3.96 0.88-1.68 0-3.14-0.38-4.34-1.14s-1.8-1.8-1.8-3.14c0-2.4 1.5-3.62 4.5-3.62 0.44 0 0.94 0.060 1.56 0.2 0.6 0.12 1.020 0.2 1.28 0.2 0.56 0 0.86-0.16 0.86-0.48 0-0.18-0.18-0.38-0.58-0.54-0.38-0.16-0.6-0.26-0.66-0.26l-0.52 0.080c-0.36 0.040-0.66 0.060-0.88 0.060-1.4 0-2.56-0.44-3.48-1.34s-1.38-2.1-1.38-3.62c0-1.040 0.26-1.96 0.76-2.74l-1.46-1.060 2.12-1.94 1.22 1.4c0.8-0.44 1.8-0.66 2.98-0.66 1.5 0 2.76 0.46 3.8 1.36zM16 17.13c0.206-0.156 0.428-0.284 0.664-0.38-0.24-0.16-0.46-0.326-0.664-0.504-0.2 0.18-0.424 0.344-0.664 0.5 0.236 0.1 0.46 0.228 0.664 0.384zM14.42 12.19c-0.072-0.514-0.284-0.95-0.64-1.304-0.44-0.444-1.020-0.666-1.726-0.666-0.674 0-1.224 0.23-1.648 0.69-0.42 0.46-0.634 1.024-0.634 1.692 0 0.82 0.196 1.44 0.592 1.9 0.394 0.46 0.96 0.7 1.69 0.7 0.732 0 1.314-0.24 1.746-0.7 0.348-0.38 0.556-0.86 0.624-1.44-0.012-0.14-0.020-0.3-0.020-0.44s0.008-0.26 0.016-0.4zM17.58 13.044c0.066 0.58 0.274 1.060 0.62 1.44 0.432 0.472 1.014 0.708 1.746 0.708s1.296-0.23 1.69-0.69c0.396-0.46 0.594-1.080 0.594-1.9 0-0.66-0.212-1.22-0.636-1.68s-0.974-0.68-1.648-0.68c-0.708 0-1.28 0.22-1.726 0.68-0.354 0.36-0.568 0.8-0.64 1.3 0.010 0.14 0.014 0.26 0.014 0.4 0 0.16-0.006 0.32-0.016 0.46z"></path>
</svg>
