
<svg version="1.1" xmlns="http://www.w3.org/2000/svg" width="32" height="32" viewBox="0 0 32 32">
<title>brand272</title>
<path fill="#01b3e3" d="M10.68 0.184l-10.68 6.056v13.944c-0.020 6.404 5.22 11.612 11.7 11.632 2.14 0.006 4.154-0.556 5.886-1.54l8.65-4.914c3.414-1.74 5.75-5.26 5.764-9.32v-14.582l-2.12-1.22-8.672 4.84v15.164c-0.004 0.644-0.034 1.116-0.204 1.914-0.288 1.22-0.694 2.080-0.766 2.22-0.68-0.040-2.060-0.42-3.18-1.080-0.56-0.32-1.22-0.8-1.82-1.36-0.4-0.38-0.74-0.82-1.040-1.26-0.32-0.46-0.58-0.94-0.78-1.44-0.22-0.52-0.38-1.040-0.5-1.58-0.12-0.56-0.14-1.14-0.14-1.7l0.022-14.558-2.12-1.21zM15.596 28.96c-0.58 0.24-1.184 0.424-1.8 0.548-0.634 0.126-1.22 0.188-1.87 0.186-0.652 0-1.304-0.068-1.936-0.2-0.616-0.124-1.22-0.312-1.8-0.556-0.566-0.24-1.114-0.54-1.626-0.88-1.32-0.92-2-1.72-2.588-2.58-0.346-0.52-0.64-1.060-0.88-1.62-0.244-0.58-0.43-1.18-0.554-1.78-0.12-0.62-0.14-1.28-0.14-1.92v-12.718l8-4.828v13.348c0 5.074 3.76 9.306 8.6 10.33-0.18 0.22-0.32 0.44-0.52 0.64-0.44 0.43-0.9 0.832-1.42 1.17-0.5 0.34-0.86 0.62-1.42 0.856zM29.468 17.75c-0.114 0.54-0.28 1.070-0.5 1.58-0.584 1.274-1.53 2.36-2.32 3.060-1.62 1.466-3.632 1.92-3.864 1.92 0.484-1.264 0.812-2.62 0.816-4.052v-13.958l6.006-3.634 0.004 13.346c0 0.574-0.024 1.172-0.14 1.728z"></path>
</svg>
