
<svg version="1.1" xmlns="http://www.w3.org/2000/svg" width="32" height="32" viewBox="0 0 32 32">
<title>brand105</title>
<path fill="#00a4de" d="M27.294 0c2.6 0 4.706 2.106 4.706 4.706v22.588c0 2.6-2.106 4.706-4.706 4.706h-22.588c-2.6 0-4.706-2.106-4.706-4.706v-22.588c0-2.6 2.106-4.706 4.706-4.706h22.588zM22.354 19.294c-1.040 0-1.88 0.84-1.88 1.88s0.84 1.884 1.88 1.884 1.88-0.86 1.88-1.9-0.84-1.88-1.88-1.88zM11.482 22.994c1.6 0 2.74-0.056 3.44-0.16 0.7-0.112 1.3-0.296 1.76-0.55 0.6-0.31 1.040-0.752 1.36-1.32s0.48-1.22 0.48-1.972c0-1.040-0.28-1.872-0.84-2.494-0.56-0.64-1.32-0.98-2.32-1.060 0.88-0.24 1.54-0.6 1.94-1.080 0.42-0.46 0.62-1.1 0.62-1.9 0-0.64-0.14-1.18-0.4-1.68-0.28-0.48-0.66-0.86-1.18-1.16-0.46-0.26-0.98-0.42-1.62-0.54-0.62-0.1-1.72-0.16-3.3-0.16h-3.882v13.98h3.94zM12.462 17.414c0.94 0 1.58 0.116 1.92 0.348 0.36 0.24 0.52 0.66 0.52 1.24 0 0.54-0.18 0.92-0.56 1.14-0.36 0.24-1.020 0.34-1.92 0.34h-1.34v-3.062h1.4zM24.002 18.354v-9.414h-3.28v9.414h3.278zM11.9 12.106c0.946 0 1.58 0.108 1.91 0.32 0.326 0.214 0.49 0.58 0.49 1.108 0 0.506-0.174 0.86-0.52 1.070-0.354 0.206-0.996 0.31-1.936 0.31h-0.76v-2.808h0.82z"></path>
</svg>
