
<svg version="1.1" xmlns="http://www.w3.org/2000/svg" width="32" height="32" viewBox="0 0 32 32">
<title>brand226</title>
<path fill="#e85c33" d="M10.31 16.010c1.020 0.7 2.216 1.346 3.61 1.926 2.38 0.988 3.98 1.848 4.8 2.58 0.82 0.728 1.236 1.664 1.236 2.804-0.006 1.944-1.364 2.92-4.1 2.92-2.634 0-5-0.836-7.1-2.5l-2.496 5.58c1.896 1.014 3.44 1.676 4.634 1.994l0.186 0.046-2.394 0.552c-1.696 0.39-3.386-0.67-3.776-2.36l-4.83-20.876c-0.39-1.696 0.666-3.386 2.364-3.78l5.832-1.344c-0.212 0.206-0.408 0.42-0.588 0.644l-0.024 0.030c-1.004 1.264-1.508 2.82-1.508 4.672 0 2.8 1.374 5.16 4.106 7.060l0.060 0.040zM24.118 16.106c-1.12-0.894-2.54-1.688-4.32-2.38-2.64-1.046-4.36-1.88-5.16-2.496-0.8-0.62-1.22-1.308-1.22-2.076 0-1.944 1.22-2.92 3.68-2.92 2.72 0 4.86 0.66 6.38 1.968l2.020-5.44c-1.46-0.74-2.98-1.28-4.54-1.62l-0.080-0.020c-0.34-0.080-0.7-0.16-1.080-0.22l3.5-0.8c1.7-0.38 3.38 0.68 3.78 2.36l4.84 20.86c0.38 1.7-0.68 3.4-2.38 3.78l-3.98 0.92c1.1-1.4 1.66-3.12 1.66-5.16 0-2.1-0.58-3.88-1.74-5.36-0.38-0.46-0.82-0.9-1.34-1.34l-0.060-0.040z"></path>
</svg>
