
<svg version="1.1" xmlns="http://www.w3.org/2000/svg" width="32" height="32" viewBox="0 0 32 32">
<title>brand215</title>
<path fill="#fb4226" d="M31.6 28.8c0.6-1 0.6-2 0-3l-13-22.6c-0.6-1-1.6-1.4-2.6-1.4s-2 0.6-2.6 1.4l-4.2 7.4 1 0.6c3.2 1.8 5.8 4.4 7.6 7.6 1.6 2.8 2.6 5.8 2.8 9h-3c-0.2-2.6-1-5.2-2.4-7.6-1.4-2.8-3.6-5-6.4-6.6l-1-0.6-4 6.8 1 0.6c2.6 1.6 4.4 4.2 4.8 7.2h-6.6c-0.2 0-0.4-0.2-0.4-0.2s-0.2-0.2 0-0.4l1.8-3.2c-0.6-0.6-1.4-1-2.2-1.2l-1.8 3.2c-0.6 1-0.6 2 0 3s1.4 1.4 2.6 1.4h9.2v-1.2c0-2.2-0.6-4.2-1.6-6.2-0.8-1.6-2-2.8-3.4-3.8l1.4-2.6c1.8 1.4 3.4 3 4.6 5 1.4 2.4 2 5 2 7.6v1.2h7.8v-1.2c0-4-1-8-3.2-11.6-1.6-3.2-4.2-5.8-7.2-7.8l3-5.2c0.2-0.2 0.4-0.2 0.4-0.2 0.2 0 0.2 0 0.4 0.2l13 22.6c0.2 0.2 0 0.4 0 0.4s-0.2 0.2-0.4 0.2h-3v2.4h3c1.2 0.2 2-0.2 2.6-1.2z"></path>
</svg>
