
<svg version="1.1" xmlns="http://www.w3.org/2000/svg" width="32" height="32" viewBox="0 0 32 32">
<title>brand209</title>
<path fill="#c69" d="M16 0c8.836 0 16 7.164 16 16s-7.164 16-16 16-16-7.164-16-16 7.164-16 16-16zM12.82 21.33c0.234 0.86 0.208 1.664-0.032 2.39l-0.088 0.24c-0.032 0.080-0.068 0.16-0.104 0.234-0.186 0.386-0.434 0.746-0.74 1.080-0.93 1.012-2.228 1.396-2.786 1.072-0.6-0.348-0.3-1.78 0.78-2.92 1.16-1.224 2.826-2.012 2.826-2.012v-0.004l0.144-0.080zM26.036 6.85c-0.724-2.844-5.436-3.78-9.896-2.194-2.654 0.944-5.526 2.424-7.592 4.356-2.456 2.296-2.848 4.296-2.688 5.132 0.57 2.948 4.61 4.876 6.272 6.306v0.008c-0.49 0.24-4.074 2.040-4.914 3.9-0.9 1.96 0.14 3.36 0.82 3.54 2.1 0.58 4.26-0.48 5.42-2.2 1.12-1.68 1.020-3.84 0.54-4.9 0.66-0.18 1.44-0.26 2.44-0.14 2.8 0.32 3.36 2.080 3.24 2.8s-0.7 1.14-0.9 1.26c-0.2 0.12-0.26 0.16-0.24 0.24 0.020 0.12 0.12 0.12 0.28 0.1 0.22-0.040 1.46-0.6 1.52-1.96 0.060-1.72-1.58-3.64-4.5-3.6-1.2 0.020-1.96 0.12-2.5 0.34-0.040-0.060-0.080-0.1-0.14-0.14-1.8-1.94-5.14-3.3-5-5.88 0.040-0.94 0.38-3.42 6.4-6.42 4.94-2.46 8.88-1.78 9.56-0.28 0.98 2.14-2.1 6.12-7.24 6.7-1.96 0.22-2.98-0.54-3.24-0.82-0.28-0.3-0.32-0.32-0.42-0.26-0.16 0.080-0.060 0.34 0 0.5 0.16 0.4 0.78 1.1 1.86 1.46 0.94 0.3 3.24 0.48 6-0.6 3.1-1.2 5.52-4.54 4.82-7.34z"></path>
</svg>
