
<svg version="1.1" xmlns="http://www.w3.org/2000/svg" width="32" height="32" viewBox="0 0 32 32">
<title>brand218</title>
<path d="M20 30v-8h-2v8h-4v-8h-2v8h-6v2h20v-2h-6zM8 23.96h-2v0.040c0 1.44 0.304 2.814 0.86 4.054h2.244c-0.704-1.19-1.104-2.574-1.104-4.054v-0.040zM16.004 14v2c4.416 0 8 3.584 8 8 0 1.478-0.404 2.864-1.104 4.054h2.24c0.554-1.24 0.86-2.614 0.86-4.054 0-5.52-4.48-10-10-10zM22 20v2h-12v-2h12zM16 16v-2c-3.312 0-6-2.688-6-6s2.688-6 6-6c3.312 0 6 2.688 6 6h2c0-4.416-3.584-8-8-8s-8 3.584-8 8c0 4.416 3.584 8 8 8zM16 4c-2.208 0-4 1.792-4 4s1.792 4 4 4c2.208 0 4-1.792 4-4s-1.792-4-4-4zM16 6c1.104 0 2 0.896 2 2s-0.896 2-2 2-2-0.896-2-2 0.896-2 2-2z"></path>
</svg>
