<!-- Generated by IcoMoon.io -->
<svg version="1.1" xmlns="http://www.w3.org/2000/svg" width="32" height="32" viewBox="0 0 32 32">
<title>brand69</title>
<path fill="#2dbe60" d="M22.554 15.136c-0.432-0.014-0.848 0.012-1.236 0.074 0.1-0.88 0.46-1.96 1.76-1.92 1.42 0.052 1.62 1.4 1.62 2.314-0.6-0.268-1.36-0.44-2.16-0.468zM28.638 5.568c-0.24-1.28-1-1.906-1.68-2.154-0.74-0.268-2.24-0.546-4.14-0.768-1.52-0.18-3.3-0.164-4.38-0.13-0.118-0.886-0.738-1.696-1.438-1.976-1.84-0.746-4.7-0.566-5.436-0.36-0.58 0.164-1.226 0.5-1.586 1.014-0.24 0.344-0.4 0.784-0.4 1.4 0 0.35 0 1.172 0.020 1.9l0.020 1.394c0 0.652-0.54 1.18-1.2 1.18h-3c-0.64 0-1.14 0.11-1.52 0.28s-0.64 0.4-0.84 0.67c-0.4 0.52-0.48 1.2-0.48 1.88 0 0 0 0.54 0.14 1.62 0.1 0.82 1 6.62 1.86 8.38 0.34 0.68 0.56 0.96 1.2 1.26 1.46 0.62 4.78 1.3 6.32 1.5 1.56 0.2 2.54 0.6 3.12-0.6 0-0.020 0.1-0.32 0.26-0.76 0.5-1.54 0.56-2.88 0.56-3.86 0-0.1 0.14-0.1 0.14 0 0 0.68-0.14 3.14 1.7 3.8 0.72 0.26 2.24 0.48 3.78 0.66 1.38 0.16 2.4 0.7 2.4 4.28 0 2.16-0.46 2.46-2.84 2.46-1.94 0-2.68 0.040-2.68-1.48 0-1.24 1.22-1.12 2.14-1.12 0.4 0 0.1-0.3 0.1-1.080 0-0.76 0.46-1.2 0.020-1.22-3.16-0.1-5 0-5 3.92 0 3.56 1.36 4.24 5.82 4.24 3.5 0 4.74-0.12 6.18-4.6 0.28-0.9 0.98-3.6 1.4-8.12 0.26-2.88-0.26-11.54-0.66-13.72zM5.2 6.12h3.020c0.172 0 0.312-0.14 0.312-0.32 0 0-0.028-2.58-0.028-3.3 0-0.594 0.12-1.1 0.34-1.536l0.1-0.2c-0.010 0-0.020 0-0.032 0.020l-5.8 5.84c-0.012 0.008-0.020 0.020-0.020 0.032l0.306-0.15c0.5-0.232 1.12-0.36 1.86-0.36z"></path>
</svg>
