<!-- Generated by IcoMoon.io -->
<svg version="1.1" xmlns="http://www.w3.org/2000/svg" width="32" height="32" viewBox="0 0 32 32">
<title>brand187</title>
<path fill="#0085de" d="M22.134 0c3.466 0 5.68 0.012 7.77 2.1 2.082 2.088 2.096 4.292 2.096 7.768v12.268c0 3.466-0.014 5.68-2.1 7.77-2.088 2.082-4.292 2.094-7.768 2.094h-12.266c-3.466 0-5.68-0.012-7.77-2.1-2.082-2.086-2.096-4.292-2.096-7.768v-12.266c0-3.466 0.014-5.68 2.1-7.77 2.088-2.082 4.292-2.096 7.768-2.096h12.268zM27.998 14.868c-0.57-6.096-5.754-10.866-11.998-10.866-6.627 0-11.999 5.371-12 11.998 0 6.4 5.004 11.646 11.314 12h9.514c1.751-0.005 3.169-1.423 3.172-3.174v-9.96zM24.952 26.32c-0.754 0-1.366-0.612-1.366-1.366s0.612-1.366 1.366-1.366c0.754 0 1.366 0.612 1.366 1.366s-0.612 1.366-1.366 1.366zM16 25.266c-5.115-0.007-9.259-4.151-9.266-9.265 0.006-5.116 4.151-9.261 9.265-9.267 5.116 0.006 9.261 4.151 9.267 9.265-0.007 5.115-4.151 9.26-9.265 9.267z"></path>
</svg>
