
<svg version="1.1" xmlns="http://www.w3.org/2000/svg" width="32" height="32" viewBox="0 0 32 32">
<title>brand70</title>
<path fill="#fa4b32" d="M14.452 31.926c-8.106-0.78-14.452-7.62-14.452-15.926 0-8.83 7.17-16 16-16s16 7.17 16 16c0 8.308-6.346 15.146-14.452 15.926v-9.396c2.96-0.7 5.16-3.36 5.16-6.53 0-3.704-3.004-6.71-6.708-6.71s-6.71 3.006-6.71 6.71c0 3.17 2.204 5.83 5.16 6.53v9.396zM13.936 12.386c0.854 0 1.548 0.694 1.548 1.55 0 0.854-0.694 1.548-1.548 1.548-0.856 0-1.548-0.694-1.548-1.548 0-0.856 0.692-1.548 1.548-1.548z"></path>
</svg>
