<!-- Generated by IcoMoon.io -->
<svg version="1.1" xmlns="http://www.w3.org/2000/svg" width="32" height="32" viewBox="0 0 32 32">
<title>brand147</title>
<path fill="#eb001b" d="M15.124 24.040c0.076 0.066 0.16 0.13 0.24 0.196-1.568 1.044-3.452 1.652-5.476 1.652-5.46 0-9.888-4.428-9.888-9.888s4.428-9.888 9.888-9.888c2.024 0 3.908 0.608 5.474 1.652-0.080 0.066-0.16 0.13-0.22 0.2-2.342 2.020-3.682 4.952-3.682 8.036 0 3.080 1.334 6.012 3.664 8.040zM22.112 6.112c-2.026 0-3.908 0.608-5.474 1.652 0.080 0.066 0.16 0.13 0.22 0.2 2.342 2.020 3.682 4.952 3.682 8.036 0 3.080-1.334 6.010-3.664 8.040-0.076 0.066-0.16 0.13-0.24 0.196 1.568 1.044 3.45 1.652 5.476 1.652 5.46 0 9.888-4.428 9.888-9.888s-4.428-9.888-9.888-9.888zM16 8.232c-0.128 0.1-0.252 0.2-0.374 0.308-2.084 1.812-3.4 4.48-3.4 7.46s1.316 5.648 3.4 7.46c0.12 0.106 0.246 0.21 0.374 0.31 0.128-0.1 0.252-0.204 0.374-0.31 2.084-1.812 3.4-4.48 3.4-7.46s-1.316-5.648-3.4-7.46c-0.12-0.108-0.246-0.21-0.374-0.31z"></path>
</svg>
