<!-- Generated by IcoMoon.io -->
<svg version="1.1" xmlns="http://www.w3.org/2000/svg" width="32" height="32" viewBox="0 0 32 32">
<title>brand83</title>
<path fill="#f14e32" d="M31.396 14.574l-13.98-13.97c-0.806-0.804-2.112-0.804-2.92 0l-2.896 2.9 3.68 3.68c0.86-0.288 1.84-0.094 2.52 0.588 0.688 0.686 0.88 1.676 0.584 2.534l3.548 3.546c0.86-0.296 1.85-0.104 2.536 0.58 0.96 0.96 0.96 2.512 0 3.47-0.96 0.96-2.512 0.96-3.47 0-0.72-0.72-0.9-1.78-0.54-2.66l-3.318-3.302v8.704c0.234 0.114 0.454 0.268 0.65 0.46 0.95 0.96 0.95 2.51 0 3.468-0.96 0.96-2.52 0.96-3.48 0s-0.96-2.508 0-3.466c0.24-0.24 0.514-0.42 0.806-0.54v-8.786c-0.29-0.12-0.564-0.296-0.8-0.534-0.726-0.726-0.9-1.79-0.528-2.68l-3.62-3.632-9.588 9.574c-0.8 0.808-0.8 2.112 0 2.92l13.984 13.968c0.804 0.806 2.11 0.806 2.916 0l13.916-13.906c0.806-0.804 0.806-2.11 0-2.916z"></path>
</svg>
