<!-- Generated by IcoMoon.io -->
<svg version="1.1" xmlns="http://www.w3.org/2000/svg" width="32" height="32" viewBox="0 0 32 32">
<title>brand222</title>
<path fill="#00aff0" d="M16.070 25.2c-5.37 0-7.77-2.644-7.77-4.626 0-1.020 0.748-1.73 1.78-1.73 2.3 0 1.7 3.306 5.99 3.306 2.192 0 3.406-1.194 3.406-2.416 0-0.736-0.36-1.55-1.808-1.908l-4.774-1.194c-3.846-0.966-4.544-3.052-4.544-5.008 0-4.068 3.82-5.596 7.408-5.596 3.3 0 7.2 1.832 7.2 4.272 0 1.046-0.92 1.654-1.94 1.654-1.96 0-1.6-2.72-5.56-2.72-1.96 0-3.060 0.888-3.060 2.16s1.54 1.68 2.88 1.986l3.52 0.784c3.86 0.866 4.84 3.132 4.84 5.266 0 3.304-2.54 5.772-7.64 5.772zM30.798 18.682l-0.040 0.18-0.060-0.32c0.020 0.060 0.060 0.1 0.080 0.16 0.16-0.9 0.24-1.82 0.24-2.74 0-2.040-0.4-4.020-1.2-5.9-0.76-1.8-1.86-3.42-3.24-4.8-1.4-1.38-3-2.48-4.8-3.24-1.758-0.842-3.738-1.242-5.778-1.242-0.96 0-1.928 0.094-2.86 0.274l0.16 0.080-0.32-0.046 0.16-0.032c-1.286-0.69-2.73-1.056-4.196-1.056-2.388 0-4.634 0.932-6.324 2.626s-2.62 3.946-2.62 6.34c0 1.526 0.39 3.024 1.126 4.35l0.026-0.166 0.056 0.32-0.080-0.154c-0.152 0.86-0.23 1.734-0.23 2.61 0 2.044 0.4 4.028 1.18 5.896 0.76 1.82 1.84 3.44 3.24 4.82 1.38 1.4 3 2.48 4.8 3.26 1.86 0.8 3.84 1.2 5.88 1.2 0.88 0 1.78-0.080 2.64-0.24l-0.16-0.080 0.32 0.060-0.18 0.040c1.34 0.76 2.84 1.16 4.4 1.16 2.38 0 4.62-0.92 6.32-2.62 1.68-1.68 2.62-3.94 2.62-6.34 0-1.52-0.4-3.020-1.14-4.36z"></path>
</svg>
