<!-- Generated by IcoMoon.io -->
<svg version="1.1" xmlns="http://www.w3.org/2000/svg" width="32" height="32" viewBox="0 0 32 32">
<title>brand210</title>
<path fill="#ec4047" d="M30.408 0.004l-28.844-0.004-0.010 18.36h4.986c4.106 0.080 3.724 2.868 4.084 5.41 0.366 2.584 2.836 3.85 4.91 3.85 2.714 0 4.86-2.328 4.86-5.1 0-2.14-0.98-3.68-5.2-5.48-4.786-2.020-5.994-4.872-5.994-7.648 0-4.54 3.47-7.58 7.5-7.58 2.114 0 4.416 0.676 5.976 2.434 1.26 1.42 1.714 2.854 1.664 4.624-0.020 0.776-0.112 1.77 1.46 1.792l4.608 0.020v-10.682z"></path>
<path fill="#ec4047" d="M30.446 13.24l-4.348-0.016s-4.6 0.36-4.34-3.168c0.12-1.7-0.38-2.996-0.74-3.54-0.92-1.42-2.46-2.128-4.3-2.128-2.718 0-4.718 2.26-4.718 4.626 0 2.060 1 4.366 5.26 6.016 3.694 1.426 5.992 3.908 5.992 7.36 0 3.636-2.766 7.88-7.74 7.88-2.56 0-4.88-0.61-6.66-3.152-0.9-1.3-1.25-2.96-1.31-4.64-0.040-1.28-0.38-1.56-1.26-1.56h-4.742v11.082h28.86v-18.6l0.014-0.16z"></path>
</svg>
