<!-- Generated by IcoMoon.io -->
<svg version="1.1" xmlns="http://www.w3.org/2000/svg" width="32" height="32" viewBox="0 0 32 32">
<title>brand150</title>
<path fill="#00ab6b" d="M23.648 25.256l-0.552 0.9 7.084 3.54c0.3 0.152 0.588 0.22 0.836 0.22 0.556 0 0.934-0.354 0.934-0.984v-17.166l-8.3 13.49zM31.84 7.916c-0.008-0.006 0-0.020-0.006-0.024l-9.65-4.824c-0.12-0.060-0.246-0.076-0.374-0.088-0.032 0-0.060-0.020-0.094-0.020-0.368 0-0.736 0.184-0.934 0.508l-0.48 0.78-1 1.628-3.78 6.16 5.78 9.402 1.18 1.9 9.42-15.28c0.040-0.060 0.020-0.12-0.040-0.16zM19.3 22.006l-6.138-9.974-0.5-0.832v9.734l8.64 4.326-2-3.252zM1.474 3.36l-0.294-0.144c-0.17-0.084-0.332-0.124-0.48-0.124-0.412 0-0.7 0.32-0.7 0.854v20.324c0 0.544 0.4 1.188 0.884 1.432l8.29 4.16c0.214 0.12 0.416 0.16 0.6 0.16 0.514 0 0.876-0.4 0.876-1.060v-20.942c0-0.040-0.024-0.080-0.060-0.094l-9.114-4.566z"></path>
</svg>
