<!-- Generated by IcoMoon.io -->
<svg version="1.1" xmlns="http://www.w3.org/2000/svg" width="32" height="32" viewBox="0 0 32 32">
<title>brand149</title>
<path d="M6.452 13.526v0.76h0.046c1.36-0.82 2.76-0.888 3.6-0.888 2.26 0 3.040 0.64 3.32 0.88 0.52-0.3 1.64-0.9 3.58-0.9 3.86 0 3.86 1.52 3.86 2.12v3.6h-3.098v-3.178c0-0.66 0-1.394-1.654-1.394-0.816 0-1.656 0.248-1.95 0.614-0.274 0.312-0.388 0.594-0.388 1.284v2.696h-3.1v-3.070c0-0.948 0.020-1.52-1.608-1.52-0.82 0-1.656 0.216-1.974 0.54-0.248 0.246-0.408 0.506-0.408 1.328v2.72h-3.118v-5.6h2.88zM28.36 14.766h-2.254v2.24c0 0.79 0 1.048 0.92 1.048 0.44 0 0.826-0.050 1.24-0.128l0.094-0.012 0.292 1.14c-1.090 0.2-2.28 0.22-2.62 0.22-1.014 0-2.324-0.148-2.808-0.566-0.412-0.34-0.46-0.674-0.46-1.52v-2.428h-1.528v-1.168h1.526v-1.106l3.36-0.866v1.972h2.26v1.168zM2.054 22.28c-1.234-1.864-2.054-4.080-2.054-6.308 0-2.632 1.034-4.772 2.080-6.28h1.248c-0.928 2.054-1.556 3.8-1.556 6.336 0 2.91 1.032 5.154 1.5 6.17 0.014 0 0.044 0.060 0.044 0.080h-1.26zM29.946 9.72c1.234 1.864 2.054 4.080 2.054 6.308 0 2.628-1.034 4.774-2.080 6.28h-1.248c0.926-2.056 1.56-3.8 1.56-6.336 0-2.912-1.036-5.152-1.506-6.172-0.014-0.014-0.040-0.066-0.040-0.080h1.26z"></path>
</svg>
