<!-- Generated by IcoMoon.io -->
<svg version="1.1" xmlns="http://www.w3.org/2000/svg" width="32" height="32" viewBox="0 0 32 32">
<title>brand300</title>
<path d="M27.706 24.994c-0.994 0.95-2.080 1.356-3.39 1.356-1.76 0-4.428-0.814-6.46-2.214-2.172-1.492-5.020-2.984-7.416-3.028 1.764-2.396 4.52-4.836 7.096-7.73 0.95-1.040 6.644-7.6 7.64-8.78 0.72-0.86 1.084-1.9 1.084-2.94 0-0.4-0.046-0.78-0.136-1.14-2.712 0.54-4.746 0.8-8 0.8-3.57 0.022-6.144-0.418-7.64-1.318-1.040 1.356-2.080 3.164-2.080 4.16 0 1.264 1.224 2.304 4.252 2.304 0.994 0 2.62-0.046 4.88-0.226-4.656 6-9.264 10.88-12.020 13.96-0.952 1.040-1.494 2.44-1.494 3.84 0 0.54 0.1 1.080 0.24 1.58 0.86-0.14 1.72-0.24 2.62-0.24 1.86 0 3.72 0.4 5.44 1.12 3.42 1.52 6.62 5.5 10.24 5.5 2.94 0 5.42-2.32 5.42-5.38 0-0.54-0.080-1.1-0.26-1.64z"></path>
</svg>
