<!-- Generated by IcoMoon.io -->
<svg version="1.1" xmlns="http://www.w3.org/2000/svg" width="32" height="32" viewBox="0 0 32 32">
<title>brand204</title>
<path fill="#ff4500" d="M2.946 18.736c-0.080 0.37-0.12 0.748-0.12 1.132 0 4.6 5.88 8.346 13.108 8.346 7.226 0 13.106-3.744 13.106-8.346 0-0.366-0.040-0.728-0.11-1.080l-0.020-0.044c-0.026-0.072-0.040-0.146-0.040-0.22-0.4-1.568-1.49-2.994-3.066-4.144-0.060-0.020-0.116-0.052-0.168-0.094-0.034-0.026-0.060-0.056-0.088-0.086-2.396-1.648-5.82-2.68-9.614-2.68-3.76 0-7.152 1.012-9.544 2.63-0.020 0.024-0.040 0.046-0.066 0.066-0.052 0.044-0.112 0.080-0.174 0.1-1.61 1.152-2.728 2.586-3.144 4.172 0 0.076-0.020 0.154-0.050 0.228l-0.010 0.020zM16 26.006c-2.396 0-4.084-0.52-5.16-1.6-0.232-0.232-0.232-0.61 0-0.844 0.234-0.22 0.614-0.22 0.848 0 0.84 0.84 2.25 1.26 4.31 1.26s3.46-0.4 4.3-1.24c0.22-0.22 0.6-0.22 0.84 0 0.22 0.24 0.22 0.62 0 0.86-1.080 1.080-2.76 1.6-5.16 1.6zM11.184 15.89c-1.22 0-2.24 1.020-2.24 2.24 0 1.216 1.020 2.204 2.24 2.204s2.206-0.988 2.206-2.204c0-1.22-0.988-2.24-2.206-2.24zM20.844 15.89c-1.22 0-2.24 1.020-2.24 2.24 0 1.216 1.020 2.204 2.24 2.204s2.206-0.988 2.206-2.204c0-1.22-0.988-2.24-2.206-2.24zM26.92 13.76c1.386 1.112 2.404 2.432 2.924 3.88 0.6-0.45 0.96-1.156 0.96-1.936 0-1.34-1.090-2.428-2.428-2.428-0.534 0-1.040 0.174-1.456 0.486zM3.624 13.28c-1.34 0-2.428 1.090-2.428 2.428 0 0.726 0.32 1.4 0.86 1.854 0.536-1.44 1.564-2.74 2.956-3.84-0.404-0.28-0.886-0.44-1.388-0.44zM15.934 29.414c-7.888 0-14.304-4.28-14.304-9.54 0-0.366 0.032-0.726 0.092-1.080-1.060-0.66-1.72-1.82-1.72-3.090 0-2 1.64-3.624 3.64-3.624 0.9 0 1.74 0.328 2.4 0.91 2.48-1.592 5.82-2.594 9.5-2.66l2.42-7.38 0.54 0.126s0.020 0 0.020 0.004l5.64 1.326c0.46-1.066 1.52-1.816 2.76-1.816 1.64 0 2.98 1.34 2.98 2.984 0 1.646-1.34 2.984-2.98 2.984s-2.98-1.34-2.98-2.98l-5.142-1.218-1.96 5.98c3.54 0.14 6.74 1.14 9.14 2.7 0.66-0.62 1.528-0.96 2.45-0.96 2 0 3.628 1.62 3.628 3.62 0 1.32-0.72 2.52-1.84 3.16 0.040 0.34 0.080 0.66 0.080 1-0.020 5.26-6.42 9.54-14.32 9.54zM26.86 3.786c-0.988 0-1.79 0.8-1.79 1.788 0 0.986 0.8 1.788 1.788 1.788 0.98 0 1.78-0.8 1.78-1.78s-0.8-1.78-1.8-1.78z"></path>
</svg>
