
<svg version="1.1" xmlns="http://www.w3.org/2000/svg" width="32" height="32" viewBox="0 0 32 32">
<title>brand287</title>
<path d="M32 19.3c0 0.006 0 0.013 0 0.020 0 5.446-4.414 9.86-9.86 9.86 0 0 0 0-0 0-2.281-0.022-4.371-0.825-6.019-2.155-1.658 1.329-3.798 2.122-6.123 2.122-5.469 0-9.913-4.391-9.999-9.84l-0-15.548h1.88v15.54c0 0.002 0 0.003 0 0.005 0 4.418 3.582 8 8 8 1.801 0 3.463-0.595 4.801-1.6-1.513-1.694-2.428-3.942-2.441-6.402v-12.723c0-2.077 1.683-3.76 3.76-3.76s3.76 1.683 3.76 3.76v12.72c0 0.010 0 0.022 0 0.034 0 2.444-0.893 4.68-2.371 6.399 1.316 0.95 2.956 1.528 4.731 1.528 4.404 0 7.978-3.559 8-7.959v-15.542h1.88zM17.88 6.58c0-1.038-0.842-1.88-1.88-1.88s-1.88 0.842-1.88 1.88v12.72c0.003 1.964 0.713 3.761 1.89 5.152 1.157-1.39 1.867-3.188 1.87-5.151z"></path>
</svg>
