
<svg version="1.1" xmlns="http://www.w3.org/2000/svg" width="32" height="32" viewBox="0 0 32 32">
<title>brand168</title>
<path d="M26.404 16.374c2.812 0 5.090-2.27 5.090-5.072 0-2.8-2.28-5.060-5.090-5.060-2.812 0-5.092 2.28-5.092 5.080s2.28 5.080 5.092 5.080zM14.934 17.314c2.53 0 4.58-2.044 4.58-4.566 0-2.52-2.050-4.566-4.58-4.566-2.532 0-4.58 2.060-4.58 4.58s2.046 4.578 4.58 4.578zM4.534 18.16c2.28 0 4.124-1.84 4.124-4.108 0-2.272-1.86-4.112-4.14-4.112-2.278 0-4.118 1.84-4.118 4.12 0 2.266 1.848 4.104 4.126 4.104zM4.534 19.1c-2.614 0-4.534 2.29-4.534 4.66v1.596c0 0.226 0.184 0.412 0.412 0.412h8.24c0.228 0 0.412-0.186 0.412-0.412v-1.596c0-2.372-1.916-4.666-4.532-4.666zM14.934 18.354c-2.906 0-5.040 2.552-5.040 5.186v1.774c0 0.252 0.208 0.46 0.46 0.46h9.16c0.252 0 0.456-0.208 0.456-0.46v-1.774c0-2.634-2.13-5.186-5.036-5.186zM26.404 17.53c-3.23 0-5.596 2.834-5.596 5.764v1.97c0 0.28 0.228 0.508 0.508 0.508h10.174c0.28 0 0.51-0.23 0.51-0.508v-1.97c0-2.93-2.368-5.764-5.596-5.764z"></path>
</svg>
