
<svg version="1.1" xmlns="http://www.w3.org/2000/svg" width="32" height="32" viewBox="0 0 32 32">
<title>brand22</title>
<path fill="#205081" d="M16 0c-7.626 0-13.89 2.040-13.89 4.63 0 0.68 1.634 10.348 2.316 14.16 0.272 1.772 4.766 4.22 11.574 4.22s11.166-2.448 11.574-4.22c0.68-3.812 2.316-13.48 2.316-14.16-0.136-2.59-6.264-4.63-13.89-4.63zM16 19.88c-2.452 0-4.36-1.906-4.36-4.356 0-2.452 1.908-4.36 4.36-4.36s4.36 1.908 4.36 4.36c0 2.316-1.91 4.356-4.36 4.356zM16 5.992c-4.9 0-8.852-0.82-8.852-1.906 0-1.090 3.95-1.908 8.852-1.908 4.9 0 8.852 0.8 8.852 1.9 0 1.080-3.95 1.9-8.852 1.9z"></path>
<path fill="#205081" d="M25.94 22.468c-0.272 0-0.408 0.136-0.408 0.136s-3.404 2.724-9.532 2.724-9.532-2.724-9.532-2.724-0.272-0.136-0.408-0.136c-0.272 0-0.546 0.136-0.546 0.544v0.136c0.546 2.86 0.954 4.904 0.954 5.176 0.408 2.040 4.492 3.676 9.396 3.676 4.9 0 8.988-1.634 9.396-3.676 0-0.272 0.408-2.316 0.952-5.176v-0.136c0.136-0.272 0-0.544-0.272-0.544z"></path>
<path fill="#205081" d="M18.178 15.388c0 1.203-0.975 2.178-2.178 2.178s-2.178-0.975-2.178-2.178c0-1.203 0.975-2.178 2.178-2.178s2.178 0.975 2.178 2.178z"></path>
</svg>
