<!-- Generated by IcoMoon.io -->
<svg version="1.1" xmlns="http://www.w3.org/2000/svg" width="32" height="32" viewBox="0 0 32 32">
<title>brand145</title>
<path fill="#2c9ab7" d="M31.158 20.836c0.38 0.922-0.36 2.030-0.36 2.030-0.040 0.082-2.4 9.134-11.64 9.134-8-0.002-11.78-6.956-11.78-6.956-0.58 0.032-1.16-0.060-1.66-0.252-2.348-0.86-3.474-3.548-2.664-5.8l-1.29-0.986c-4.998-3.806 9.16-21.226 14.166-17.286l1.19 0.96c1.8-1.090 3.58-1.68 5.032-1.68 1.028 0 1.888 0.3 2.46 0.982 1.3 1.4 0.836 4.080-0.94 6.8 0.384 0.36 0.698 0.86 0.924 1.34 0.564 0.44 0.932 1.1 1.112 2 0.202 1.020 0.244 2.46 0.372 3.080 0.478 0.22 0.274 0.12 0.784 0.36 0.532 0.28 1.18 0.6 1.896 1.28 1.272 0.32 1.758 1.66 1.012 2.58-0.020 0.024-0.108 0.13-0.2 0.234 0.020 0.060 0.264 0.456 0.44 1.26 0.528 0.126 0.948 0.45 1.168 0.92zM20.452 22.296c-0.61 0.028-0.988-0.072-1.2 0.64-0.016 0.060-0.028 0.132-0.034 0.206 2.38 0.76 6.16-0.7 6.52-0.78h0.040c0.22 0.020-2.040 1.46-5.18 1.46-0.54 0-1-0.040-1.36-0.12 0.16 0.6 0.62 0.86 1.2 1 0.44 0.1 0.92 0.12 0.92 0.12 4.34 0.12 7.92-3.24 8.060-3.42l-0.040 0.1c-0.64 1.44-4.34 4.040-8.020 3.96-0.86 0-1.9-0.22-2.44-0.88-0.86-1.040-0.42-2.8 0.94-2.84l0.44-0.020c3.36-0.1 6.38-1.34 8.54-3.92 0.28-0.36-0.040-0.88-0.68-0.88v-0.020c-0.76-0.82-1.44-1.1-2.040-1.4-1.26-0.64-1.14-0.080-1.42-3.18-0.080-0.82-0.24-1.96-0.98-2.4-0.18-0.12-0.4-0.16-0.62-0.16-0.2 0-0.32 0.040-0.36 0.040-0.4 0.1-0.62 0.32-0.9 0.58-1.36 1.24-2.44 0.9-4.040 0.9-1.52 0-2.86 1.040-3.1 2.66-0.14 0.84-0.060 1.72 0.080 2.1 0 0-0.42-0.26-0.62-0.5 0.24 1.48 1.58 2.44 1.58 2.44-0.22 0.060-0.52 0.040-0.52 0.040s0.76 0.62 1.44 0.82c-0.18 0.12-1.060 0.98-1.52 2.18-0.42 1.12-0.24 2.48-0.24 2.48l0.36-0.54s-0.24 1.22 0.22 2.42c0.14-0.36 0.48-0.98 0.48-0.98s-0.060 1.32 0.58 2.4c0.020-0.24 0.12-0.88 0.12-0.88s0.36 1.12 1.2 1.92c1.56 1.4 5.74 1.66 8.9-0.84 2.52-1.98 2.96-4.34 3-4.42 0.62-0.74 0.44-1.48-0.38-1.48-0.26 0-0.44 0.070-0.44 0.070s0-1.080-0.5-1.92c-0.4 0.428-1.46 1.288-2.86 1.96-1.32 0.62-3.080 1.166-5.26 1.24zM7.084 24c2.016 0 3.542-1.914 3.19-4.010 0 0-0.206 0.48-0.4 0.736 0.048-0.752-0.070-1.494-0.3-2.2 0 0-0.104 0.422-0.304 0.934-0.194-1.64-0.884-1.988-0.884-1.988-0.396-0.186-0.836-0.286-1.3-0.286-1.788 0-3.24 1.528-3.24 3.408 0 1.882 1.452 3.406 3.24 3.406zM7.902 19.458c-0.1 0-0.22 0.040-0.32 0.14-0.16 0.18-0.22 0.54 0.040 0.84 0.3 0.32 0.76 0.4 0.82 0.8 0.012 0.060 0.016 0.12 0.012 0.2 0 0.060-0.024 0.16-0.024 0.18-0.080 0.34-0.38 0.68-0.874 0.68h-0.19c-0.064-0.020-0.11-0.020-0.15-0.020-0.028 0-0.048 0-0.056 0.020-0.046 0.060 0.204 0.36 0.664 0.36h0.024c0.682-0.020 1.244-0.72 1.108-1.48-0.12-0.67-0.79-0.81-1.040-1.010-0.066-0.052-0.1-0.1-0.12-0.172-0.026-0.13-0.012-0.204 0.1-0.284 0.086-0.060 0.156-0.088 0.156-0.124 0.002-0.034-0.072-0.074-0.172-0.074zM6.442 19.082l0.114-0.060 0.054-0.020c0.13-0.038 0.056-0.022 0.19-0.048h0.040c0.126-0.028 0.246-0.040 0.36-0.040h0.042c0.52 0.002 0.9 0.256 1.080 0.516 0.16 0.24 0.1 0.382 0.18 0.45 0.020 0.016 0.040 0.026 0.060 0.026s0.040-0.004 0.040-0.010c0.1-0.040 0.14-0.192 0.16-0.3 0.020-0.258-0.12-0.546-0.3-0.752-0.24-0.27-0.62-0.484-1.040-0.55-0.1-0.014-0.2-0.020-0.3-0.020h-0.020c-0.26 0-0.48 0.046-0.56 0.070-0.040 0.016-0.12 0.030-0.18 0.050-1.020 0.4-1.48 1.4-1.26 2.4 0.040 0.24 0.16 0.51 0.32 0.69 0.1 0.104 0.2 0.152 0.26 0.152 0.080 0 0.12-0.066 0.060-0.18-0.020-0.058-0.16-0.298-0.18-0.732-0.016-0.444 0.086-0.906 0.374-1.26 0.21-0.26 0.47-0.376 0.5-0.39zM2.138 16.852c0.18 0.292 1.38 1.18 1.4 1.18 0.474-0.652 1.010-1.132 1.554-1.432h-0.052c1.1-3.8 4.020-7.7 7.042-10.198 0.74-0.62 2.42-1.82 2.24-1.64l-1.7-1.5-0.12-0.86 2.32 1.92-0.32 0.26c-0.24 0.18-0.46 0.4-0.7 0.6-0.34 0.32-0.66 0.64-1 0.98-0.7 0.74-1.4 1.52-2.060 2.34-1.15 1.44-1.628 2.12-2.356 3.48 0 0 3.97-4.76 4.96-5.74 1.814-1.8 4.786-3.82 4.814-3.84 1.27-0.776 2.34-1.232 3.22-1.428-1.444 0.146-2.988 0.886-4.2 1.616l-1.764-1.49-0.646 0.246c-2.346-0.556-7.514 3.34-10.614 8.28-1.256 2-3.022 5.516-2.008 7.228zM19.158 16.182c-0.080 0-0.16 0-0.24 0.020l-0.22 0.060c-0.040 0-0.060 0.020-0.080 0.020-0.16 0.060-0.3 0.14-0.42 0.26-0.14 0.16-0.2 0.3-0.14 0.32h0.020c0.060 0 0.14-0.044 0.28-0.096 0.44-0.174 0.76-0.22 1.060-0.22 0.1 0 0.18 0.004 0.28 0.010 0.080 0.006 0.14 0.014 0.2 0.014h0.020c0.070 0 0.11-0.012 0.13-0.040 0.052-0.090-0.3-0.376-0.82-0.376zM22.458 15.942c-0.14 0-0.26 0.060-0.32 0.16-0.1 0.18 0.022 0.46 0.276 0.58 0.104 0.058 0.214 0.084 0.314 0.084 0.144 0 0.268-0.058 0.328-0.166 0.104-0.186-0.022-0.446-0.276-0.586-0.102-0.056-0.212-0.084-0.312-0.084zM24.162 15.318c-0.18 0-0.34 0.18-0.38 0.42-0.040 0.26 0.080 0.48 0.26 0.52 0.020 0 0.040 0.020 0.040 0.020 0.18-0.002 0.32-0.174 0.36-0.408 0.040-0.254-0.080-0.482-0.28-0.51-0.014-0.004-0.024-0.004-0.034-0.004zM18.582 14.838c-0.5 0-1 0.18-1.4 0.5-0.3 0.24-0.42 0.5-0.3 0.52h0.020c0.1 0 0.26-0.060 0.48-0.14 0.48-0.18 0.86-0.26 1.2-0.26h0.020c0.34 0 0.66 0.080 1.020 0.22 0.22 0.080 0.4 0.16 0.48 0.16 0.040 0 0.060-0.020 0.060-0.020 0.040-0.032 0.020-0.106-0.060-0.206-0.18-0.26-0.52-0.488-0.84-0.6-0.23-0.086-0.474-0.126-0.714-0.126zM23.096 14.442c-0.094-0.28-0.138-0.54-0.148-0.84-0.006-0.24 0.032-0.64 0.26-0.72 0.386-0.134 0.9 0.854 0.92 1.734-0.304-0.152-0.664-0.216-1.032-0.186zM11.018 11.878c0.9-1.18 2.080-2.32 3.68-3.34 3.48-2.26 6.96-2.52 8.16-1.6l-0.020-0.060c-0.32-0.64-1.020-1.080-1.64-1.26 0.1 0.12 0.26 0.34 0.34 0.46-0.48-0.32-1.1-0.6-1.76-0.74l0.1 0.080c0.12 0.12 0.3 0.3 0.38 0.48-0.62-0.26-1.42-0.4-2.1-0.26l-0.080 0.020 0.1 0.040c0.22 0.060 0.54 0.2 0.7 0.4-1.132-0.2-2.376 0.020-3.048 0.4 0.086-0.020 0.086-0.020 0.16 0 0.246 0.006 0.744 0.040 0.95 0.174-0.712 0.144-1.744 0.46-2.3 0.94 0.098-0.008 0.656-0.082 0.884-0.048-3.040 1.74-4.436 4.368-4.452 4.4zM15.902 3.44l-1.48-0.448 0.96 0.812 0.014-0.010c0.138-0.104 0.3-0.224 0.484-0.354zM16.618 2.94c-0.16 0.104-0.312 0.204-0.452 0.304l-0.26-0.9 0.714 0.596zM14.686 2.472l-0.12-0.496 0.204-0.63 0.35 1.266-0.432-0.14z"></path>
</svg>
