
<svg version="1.1" xmlns="http://www.w3.org/2000/svg" width="32" height="32" viewBox="0 0 32 32">
<title>brand40</title>
<path fill="#00aaef" d="M25.8 10.4c-0.8-0.8-2-0.8-2.8 0l-12.6 12.6c-0.6 0.6-1.6 1-2.6 1s-2-0.4-2.8-1.2-1.2-1.8-1.2-2.8c0-1 0.4-2 1.2-2.8l11.8-11.8c-1.6-1.6-4-1.6-5.6 0l-8.8 9c-3 3-3 8 0 11.2 3 3 8 3 11.2 0l12.4-12.4c0.6-0.8 0.6-2-0.2-2.8z"></path>
<path fill="#00aaef" d="M29.6 6.4c-3-3-8-3-11.2 0l-12.2 12.4c-0.8 0.8-0.8 2 0 2.8s2 0.8 2.8 0l12.6-12.6c0.6-0.6 1.6-1 2.6-1s2 0.4 2.8 1.2c0.8 0.8 1.2 1.8 1.2 2.8s-0.4 2-1.2 2.8l-11.8 11.8c1.6 1.6 4 1.6 5.6 0l9-9c3-3.2 3-8-0.2-11.2z"></path>
</svg>
