
<svg version="1.1" xmlns="http://www.w3.org/2000/svg" width="32" height="32" viewBox="0 0 32 32">
<title>brand159</title>
<path fill="#d24726" d="M31.32 5.33h-11.392v4.25c0.686-0.52 1.51-0.784 2.474-0.784v4.13h4.1c-0.020 1.16-0.42 2.136-1.2 2.926s-1.76 1.196-2.92 1.22c-0.9-0.024-1.72-0.296-2.44-0.82v2.84h8.96v1.394h-8.962v1.724h8.954v1.376h-8.96v3.12h11.394c0.46 0 0.68-0.24 0.68-0.716v-19.98c0-0.454-0.22-0.68-0.68-0.68zM23.046 12.246v-4.166c1.16 0.026 2.134 0.43 2.92 1.214 0.78 0.784 1.186 1.768 1.208 2.952h-4.128zM11.010 12.316c-0.070-0.268-0.186-0.476-0.35-0.628-0.16-0.15-0.376-0.26-0.644-0.33-0.3-0.080-0.61-0.12-0.92-0.12l-0.96 0.020v4h0.034c0.348 0.020 0.714 0.020 1.1 0 0.38-0.020 0.74-0.12 1.080-0.3 0.416-0.3 0.666-0.7 0.746-1.22s0.052-1.020-0.086-1.48zM0 4.076v23.934l18.256 3.154v-30.328l-18.256 3.24zM13.62 14.86c-0.5 1.16-1.246 1.9-2.244 2.22-1 0.32-2.080 0.444-3.24 0.374v4.564l-2.404-0.28v-12.538l3.814-0.2c0.708-0.044 1.406 0.034 2.090 0.24 0.686 0.204 1.228 0.614 1.63 1.23 0.4 0.614 0.626 1.328 0.68 2.14 0.050 0.814-0.056 1.564-0.324 2.25z"></path>
</svg>
