
<svg version="1.1" xmlns="http://www.w3.org/2000/svg" width="32" height="32" viewBox="0 0 32 32">
<title>brand137</title>
<path fill="#f8c300" d="M29.334 24.9l-5.908-3.408-6.38 3.686v6.822l12.288-7.1zM14.954 32v-6.826l-6.38-3.684-5.908 3.41 12.29 7.1zM15.994 23.366l6.386-3.686v-7.368l-6.38-3.68-6.38 3.68v7.372l6.376 3.68zM1.626 8.906v14.19l5.908-3.412v-7.368l-5.91-3.412zM27.78 10.4l-3.312 1.914v7.366l5.908 3.412v-14.192l-2.596 1.5zM2.666 7.096l5.914 3.412 6.376-3.684v-6.824l-12.29 7.096zM23.426 10.508l5.91-3.412-12.292-7.1v6.828l6.38 3.684z"></path>
</svg>
