<!-- Generated by IcoMoon.io -->
<svg version="1.1" xmlns="http://www.w3.org/2000/svg" width="32" height="32" viewBox="0 0 32 32">
<title>brand225</title>
<path fill="#e4637c" d="M32 0h-32v32h32v-32zM11.32 20.764c0-0.172 0.108-0.432 0.326-0.78 0.216-0.346 0.412-0.52 0.584-0.52 0.020 0 0.16 0.080 0.42 0.246s0.63 0.33 1.116 0.496c0.486 0.164 1.072 0.246 1.756 0.246 0.7 0 1.26-0.194 1.7-0.586 0.44-0.39 0.66-0.92 0.66-1.586 0-0.668-0.2-1.188-0.58-1.56-0.38-0.374-1.16-0.726-2.32-1.056s-2-0.75-2.52-1.26c-0.52-0.514-0.78-1.29-0.78-2.33s0.4-1.914 1.2-2.616c0.8-0.72 1.84-1.060 3.12-1.060 0.9 0 1.68 0.1 2.38 0.34 0.7 0.22 1.040 0.48 1.040 0.74 0 0.22-0.1 0.52-0.3 0.86-0.2 0.36-0.38 0.52-0.52 0.52-0.020 0-0.12-0.060-0.34-0.16-0.58-0.32-1.24-0.48-1.98-0.48s-1.3 0.14-1.72 0.44c-0.4 0.3-0.6 0.7-0.6 1.18s0.16 0.86 0.46 1.14c0.3 0.28 0.82 0.52 1.56 0.76 1.64 0.5 2.74 1.040 3.32 1.64s0.88 1.5 0.88 2.7-0.42 2.2-1.28 2.98c-0.86 0.78-1.88 1.16-3.080 1.16s-2.22-0.18-3.1-0.54c-0.86-0.36-1.3-0.7-1.3-1.040z"></path>
</svg>
