<!-- Generated by IcoMoon.io -->
<svg version="1.1" xmlns="http://www.w3.org/2000/svg" width="32" height="32" viewBox="0 0 32 32">
<title>brand81</title>
<path fill="#467126" d="M17.654 0.004v3.096c1.72 0.214 3.916 0.83 5.968 2.394l-1.58 2.144-0.020-0.020s-1.64-1.4-4.36-1.84v8.56h8.44c-0.16-1.22-0.58-2.68-1.54-4.16l2.26-1.5s1.68 2.28 2.040 5.66h3.138v-14.338h-14.346zM23.434 30.94l-0.8 0.13-1.74-10.726 0.464-0.074 8.74-0.020-7.54 5.42 0.84 5.272zM17.65 17.652v14.348h14.344v-14.346l-14.344-0.004zM8.606 26.656l1.58-2.14h0.024s1.55 1.316 4.136 1.79v-8.656h-8.226c0.146 1.244 0.56 2.768 1.566 4.314l-2.246 1.492s-1.728-2.348-2.040-5.808h-3.4v14.346h14.346v-2.974c-1.684-0.24-3.78-0.864-5.74-2.36zM6.636 2.624c-0.226 0-0.412 0.14-0.412 0.312s0.184 0.31 0.412 0.31c0.226 0 0.41-0.14 0.412-0.31 0-0.172-0.186-0.312-0.412-0.312z"></path>
<path fill="#467126" d="M6.674 3.48c-0.668 0-1.208-0.54-1.208-1.2s0.54-1.196 1.208-1.196c0.668 0 1.208 0.54 1.208 1.2s-0.54 1.196-1.2 1.196zM4.894 3.56l-1.384 0.7c-0.124-0.152-0.22-0.274-0.32-0.412l-1.746 0.652-0.368-0.58 4.316-0.894-0.826 0.308c0.106 0.080 0.196 0.146 0.326 0.228zM2.234 1.020c0.504 0.766 1.1 1.396 1.868 1.976l-1.34 0.24c-0.502-0.716-0.942-1.412-1.342-2.266l0.812 0.048zM0 0v14.346h3.21c-0.136-1.312-0.28-5.074 1.976-8.196 0 0-0.5-0.48-1.174-1.268l-1.472 1.26-0.636-0.54 3.824-2.18-0.45 0.38c0.54 0.32 1.080 0.56 1.62 0.74 0 0 1.86-1.040 3.7-3.54l0.44 0.020c-0.34 1.12-1.4 3.040-3.060 4.58 0 0 4.4 1.92 5.4 5.18-0.28-0.16-1.86-0.5-2.64-0.32-0.14-0.22-1.62-3.24-3.86-3.2 0 0-0.5 0.6-0.98 2.16-0.42 1.38-0.24 4.28-0.18 4.96h8.6v-14.382h-14.318z"></path>
</svg>
