<!-- Generated by IcoMoon.io -->
<svg version="1.1" xmlns="http://www.w3.org/2000/svg" width="32" height="32" viewBox="0 0 32 32">
<title>brand188</title>
<path fill="#c0379a" d="M9.984 11.546v-0.050h8.4c2.496 0 4.52 2.084 4.52 4.66s-2.024 4.664-4.524 4.664h-8.394v-0.060h-0.006v-9.214h0.006zM18.646 10.012v-0.032h-10.226v18.34c-4.136-2.548-6.89-7.114-6.89-12.324 0-7.988 6.48-14.464 14.466-14.464 7.99 0 14.464 6.476 14.464 14.464 0 7.99-6.474 14.464-14.464 14.464-2.146 0-4.18-0.466-6.014-1.306v-6.83h8.68v-0.026c3.22-0.020 5.84-2.76 5.84-6.16s-2.622-6.138-5.842-6.138zM16 32c8.836 0 16-7.164 16-16s-7.164-16-16-16-16 7.164-16 16 7.164 16 16 16z"></path>
</svg>
