<!-- Generated by IcoMoon.io -->
<svg version="1.1" xmlns="http://www.w3.org/2000/svg" width="32" height="32" viewBox="0 0 32 32">
<title>brand51</title>
<path d="M20.344 29.236l-3.108-4.34c-0.83-1.16-1.504-2.064-1.54-2.064s-1.34 1.754-3.088 4.152c-1.664 2.284-3.040 4.152-3.060 4.152-0.044 0-5.996-4.192-6.012-4.236-0.008-0.020 1.34-1.996 2.99-4.388 1.652-2.394 3.004-4.39 3.004-4.436 0-0.074-0.536-0.26-4.734-1.66l-4.792-1.6c-0.040-0.020 0.206-0.848 1.056-3.532 0.612-1.928 1.126-3.52 1.14-3.54 0.020-0.020 2.28 0.7 5.030 1.608 2.75 0.904 5.020 1.644 5.050 1.644 0.028 0 0.060-0.040 0.070-0.094 0.012-0.040 0.036-2.38 0.054-5.2 0.020-2.8 0.048-5.12 0.066-5.16 0.026-0.040 0.8-0.040 3.634-0.040 1.98 0 3.62 0.020 3.646 0.040 0.032 0.020 0.086 1.58 0.18 5.040 0.146 5.7 0.15 5.78 0.24 5.78 0.036 0 2.214-0.72 4.84-1.62 2.63-0.88 4.792-1.6 4.808-1.58 0.040 0.060 2.2 7.080 2.18 7.1s-2.22 0.78-4.88 1.68c-3.68 1.24-4.86 1.66-4.86 1.72-0.020 0.040 1.24 1.94 2.86 4.28 1.58 2.32 2.86 4.22 2.86 4.24-0.020 0.060-5.92 4.4-5.98 4.4-0.020 0-0.78-1.020-1.66-2.26z"></path>
</svg>
