<!-- Generated by IcoMoon.io -->
<svg version="1.1" xmlns="http://www.w3.org/2000/svg" width="32" height="32" viewBox="0 0 32 32">
<title>brand247</title>
<path fill="#809cc9" d="M32 27.672v-8.408c-4.38 1.728-9.816 3.408-16.306 5.048-6.046 1.526-11.278 2.628-15.694 3.3v0.060h32zM0 18.772v6.844c4.984-0.736 9.488-1.61 13.508-2.624 3.948-0.998 6.992-1.966 9.128-2.906 2.136-0.938 3.12-1.73 2.96-2.374-0.142-0.56-1.128-0.846-2.956-0.86-0.938 0.012-2.226 0.080-3.872 0.2-1.648 0.122-3.698 0.312-6.148 0.568-3.798 0.406-6.954 0.716-9.464 0.926-1.196 0.1-2.248 0.176-3.156 0.226zM1.38 22.706c0.080 0 0.152 0.032 0.214 0.094 0.060 0.060 0.092 0.136 0.092 0.22 0 0.088-0.032 0.16-0.092 0.224-0.064 0.060-0.14 0.088-0.22 0.088-0.044 0-0.086-0.008-0.124-0.024-0.040-0.016-0.072-0.040-0.1-0.066-0.030-0.020-0.052-0.060-0.068-0.1 0-0.020-0.020-0.060-0.020-0.12 0-0.080 0.040-0.16 0.1-0.22s0.14-0.080 0.24-0.080zM2.46 22.706c0.084 0 0.156 0.032 0.22 0.094 0.060 0.060 0.088 0.136 0.088 0.22 0 0.088-0.030 0.16-0.090 0.224-0.080 0.060-0.14 0.088-0.24 0.088-0.040 0-0.080-0.008-0.12-0.024s-0.080-0.040-0.1-0.066c-0.040-0.020-0.060-0.060-0.080-0.1-0.020-0.020-0.020-0.060-0.020-0.12 0-0.080 0.020-0.16 0.080-0.22s0.14-0.080 0.22-0.080zM1.38 20.69c0.080 0 0.152 0.030 0.214 0.094 0.060 0.060 0.092 0.132 0.092 0.22 0 0.086-0.032 0.16-0.092 0.22s-0.134 0.092-0.22 0.092c-0.088 0-0.164-0.030-0.224-0.092-0.060-0.060-0.092-0.136-0.092-0.22 0-0.090 0.020-0.164 0.080-0.224s0.14-0.090 0.22-0.090zM2.46 20.69c0.084 0 0.156 0.030 0.22 0.094 0.060 0.060 0.088 0.132 0.088 0.22 0 0.086-0.030 0.16-0.090 0.22-0.080 0.060-0.14 0.092-0.24 0.092s-0.16-0.030-0.22-0.092c-0.060-0.060-0.1-0.136-0.1-0.22 0-0.090 0.020-0.164 0.080-0.224s0.14-0.090 0.22-0.090zM32 6.13v6.42c-2.18 0.132-4.906 0.37-8.184 0.712-3.32 0.36-6.026 0.64-8.124 0.82-2.1 0.2-3.616 0.3-4.546 0.32-1.816 0.040-2.786-0.2-2.926-0.74-0.14-0.6 0.94-1.4 3.26-2.36 2.32-0.98 5.4-1.96 9.2-2.92 3.34-0.84 7.12-1.58 11.32-2.2zM30.86 4.33c-4.34 0.808-8.836 1.8-13.486 2.974-7.26 1.832-13.050 3.656-17.374 5.46v-8.434h30.86z"></path>
</svg>
