<!-- Generated by IcoMoon.io -->
<svg version="1.1" xmlns="http://www.w3.org/2000/svg" width="32" height="32" viewBox="0 0 32 32">
<title>brand2</title>
<path fill="#044a75" d="M26.048 12.192c-1.832 0-2.844 1.35-3.060 2.82h6.144c-0.168-1.4-1.156-2.82-3.084-2.82zM23.036 17.012c0.314 1.54 1.59 2.626 3.374 2.626 0.964 0 2.36-0.36 3.18-1.22l1.566 1.8c-1.42 1.48-3.54 1.9-4.986 1.9-3.52 0-6.266-2.54-6.266-6.14 0-3.38 2.528-6.16 6.096-6.16 3.444 0 6 2.64 6 6.14v1.020h-8.964zM14.384 22.116v-7.586c0-1.3-0.576-2.048-1.78-2.048-1.086 0-1.808 0.78-2.29 1.34v8.32h-3.134v-7.6c0-1.3-0.552-2.040-1.756-2.040-1.084 0-1.834 0.78-2.29 1.34v8.32h-3.134v-12.162h3.134v1.534c0.53-0.62 1.734-1.68 3.614-1.68 1.66 0 2.794 0.7 3.3 2.12 0.7-1.016 2-2.12 3.88-2.12 2.266 0 3.59 1.346 3.59 3.948v8.32h-3.138z"></path>
</svg>
