
<svg version="1.1" xmlns="http://www.w3.org/2000/svg" width="32" height="32" viewBox="0 0 32 32">
<title>brand294</title>
<path fill="#0072c6" d="M27.72 8.66c0.646-0.516 0.81-1.446 0.356-2.154-0.4-0.624-1.154-0.88-1.832-0.686l-0.186 0.1c-1.080 0.594-8.38 5.7-7.56 6.276 0.82 0.572 5.8-1.672 9.2-3.54zM27.698 24.016c-3.42-1.868-8.4-4.11-9.22-3.54-0.82 0.576 6.46 5.684 7.54 6.276l0.18 0.1c0.68 0.2 1.42-0.060 1.82-0.684 0.46-0.71 0.28-1.64-0.36-2.154zM30.658 14.658c-0.080-0.020-0.14-0.020-0.22-0.020-1.24 0-10.080 0.96-9.64 1.86 0.44 0.88 5.88 1.32 9.76 1.32 0.8-0.14 1.4-0.88 1.34-1.72-0.060-0.74-0.58-1.34-1.28-1.48zM7.218 22.318c-1 2.86-1.94 4.2-4.1 4.2-0.2 0-0.94-0.040-0.98-0.060-0.7-0.040-1.34 0.42-1.52 1.12-0.22 0.78 0.24 1.6 1.040 1.84 0.56 0.1 1.16 0.12 1.68 0.12 3.96 0 5.28-2.28 6.58-5.62l7.8-19.32c0.28-0.88-0.22-1.8-1.080-2.080s-1.76 0.18-2.080 1l-5.44 14.4h-0.080l-5.718-14.498c-0.36-0.8-1.32-1.2-2.18-0.88-0.88 0.32-1.34 1.3-1.044 2.18l7.212 17.6z"></path>
</svg>
