
<svg version="1.1" xmlns="http://www.w3.org/2000/svg" width="32" height="32" viewBox="0 0 32 32">
<title>brand182</title>
<path fill="#40a4c4" d="M16.18 32c2.5 0 12.42-11.252 12.42-18.794 0-7.22-5.64-13.206-12.42-13.206-7.14 0-12.78 5.984-12.78 13.206 0 7.54 9.92 18.794 12.78 18.794zM14.186 5.128c0.646-0.16 1.326-0.246 2.032-0.246 4 0 7.44 3.4 7.44 7.82 0 3.98-3.44 7.38-7.46 7.38-4.46 0-7.9-3.4-7.9-7.38 0-1.86 0.6-3.52 1.64-4.84v0.040c0 1.66 1.34 2.98 3 2.98s3.062-1.362 3.062-3.022c0-1.224-0.746-2.276-1.812-2.736z"></path>
</svg>
