<!-- Generated by IcoMoon.io -->
<svg version="1.1" xmlns="http://www.w3.org/2000/svg" width="32" height="32" viewBox="0 0 32 32">
<title>brand7</title>
<path fill="#2e77bc" d="M21.846 21.942h2.984v-0.78h-2.094v-0.76h2.044v-0.78h-2.044v-0.68h2.094v-0.776h-2.984v3.754zM28.302 19.982c-0.2-0.2-0.54-0.28-1.020-0.3l-0.5-0.020c-0.14 0-0.24 0-0.34-0.040-0.12-0.040-0.2-0.14-0.2-0.28 0-0.12 0.020-0.22 0.12-0.28s0.2-0.080 0.36-0.080h1.64v-0.8h-1.8c-0.94 0-1.28 0.58-1.28 1.12 0 1.2 1.040 1.14 1.88 1.16 0.14 0 0.24 0.020 0.3 0.080 0.062 0.040 0.11 0.14 0.11 0.24s-0.046 0.2-0.106 0.24c-0.076 0.070-0.196 0.094-0.366 0.094h-1.732v0.8h1.74c0.904 0 1.404-0.374 1.404-1.18 0-0.386-0.094-0.616-0.266-0.796zM20.742 20.166c0.24-0.096 0.64-0.396 0.64-0.996 0-0.43-0.18-0.662-0.46-0.83-0.28-0.16-0.62-0.18-1.080-0.18h-2.060v3.758h0.9v-1.368h0.96c0.32 0 0.52 0.032 0.64 0.166 0.16 0.174 0.14 0.508 0.14 0.734v0.466h0.88v-0.74c-0.002-0.332-0.022-0.502-0.146-0.686-0.080-0.108-0.24-0.24-0.44-0.314zM13.768 21.578v-3.008l-1.374 1.48 1.374 1.526zM10.24 21.138l1.020-1.1-0.98-1.092h-2.24v0.68h1.96v0.766h-1.96v0.744h2.182zM15.842 19.9c0.36 0 0.56-0.172 0.56-0.496 0-0.328-0.24-0.46-0.56-0.46h-1.18v0.956h1.16zM20.182 19.71c-0.12 0.070-0.26 0.076-0.44 0.076h-1.080v-0.84h1.1c0.16 0 0.32 0 0.44 0.066 0.12 0.060 0.2 0.176 0.2 0.34 0 0.16-0.060 0.288-0.18 0.36zM17.342 19.404c0 1.040-0.76 1.26-1.56 1.26h-1.12v1.254h-1.74l-1.1-1.24-1.14 1.24h-3.542v-3.758h3.594l1.1 1.23 1.136-1.232h2.86c0.708 0 1.504 0.2 1.504 1.24zM31.862 21.442c0.12-0.18 0.18-0.4 0.18-0.7 0-0.32-0.060-0.52-0.18-0.7v-0.008c-0.040-0.034-0.060-0.064-0.1-0.094-0.2-0.204-0.52-0.288-1.020-0.3l-0.48-0.016c-0.16 0-0.26-0.008-0.36-0.040-0.12-0.040-0.2-0.14-0.2-0.28 0-0.118 0.040-0.21 0.12-0.27 0.1-0.062 0.2-0.068 0.36-0.068h1.63v-18.966h-31.812v13.46l1.080-2.502h2.336l0.3 0.62v-0.62h2.73l0.6 1.36 0.584-1.35h8.68c0.394 0 0.75 0.076 1.010 0.316v-0.304h2.386v0.306c0.408-0.226 0.914-0.306 1.494-0.306h3.48l0.32 0.62v-0.62h2.562l0.34 0.62v-0.62h2.48v5.262h-2.52l-0.48-0.8v0.78h-3.14l-0.34-0.84h-0.78l-0.36 0.82h-1.62c-0.64 0-1.12-0.14-1.44-0.32v0.32h-3.86v-1.18c0-0.16-0.040-0.16-0.14-0.18h-0.14v1.38h-7.46v-0.64l-0.28 0.64h-1.56l-0.27-0.64v0.62h-3.008l-0.34-0.834h-0.772l-0.344 0.832h-1.528v15.8h31.758v-9.478c-0.36 0.18-0.82 0.24-1.3 0.24h-2.3v-0.34c-0.28 0.22-0.76 0.34-1.22 0.34h-7.3v-1.2c0-0.16-0.020-0.16-0.16-0.16h-0.1v1.36h-2.4v-1.42c-0.4 0.18-0.86 0.2-1.24 0.18h-0.286v1.22h-2.912l-0.72-0.82-0.76 0.8h-4.73v-5.24h4.82l0.69 0.8 0.74-0.8h3.22c0.376 0 0.988 0.040 1.26 0.3v-0.32h2.904c0.27 0 0.858 0.060 1.206 0.3v-0.32h4.36v0.32c0.216-0.22 0.676-0.32 1.070-0.32h2.522v0.32c0.26-0.2 0.62-0.32 1.12-0.32h1.66v0.74h-1.8c-0.92 0-1.28 0.58-1.28 1.12 0 1.2 1.040 1.14 1.88 1.16 0.14 0 0.24 0.020 0.3 0.080 0.060 0.040 0.1 0.14 0.1 0.24s-0.060 0.2-0.12 0.24c-0.060 0.072-0.18 0.092-0.36 0.092h-1.72v0.806h1.72c0.56 0 0.98-0.16 1.2-0.48zM13.308 15.464v-0.774h-2.094v-0.75h2.040v-0.768h-2.040v-0.676h2.094v-0.78h-2.988v3.748h3zM18.952 15.464v-3.748h-0.912v3.748h0.92zM17.516 12.73c0-0.418-0.172-0.664-0.452-0.83-0.29-0.168-0.626-0.18-1.080-0.18h-2.060v3.762h0.9v-1.38h0.96c0.322 0 0.522 0.040 0.652 0.16 0.164 0.18 0.144 0.504 0.144 0.73v0.472h0.904v-0.736c0-0.334-0.022-0.502-0.15-0.688-0.076-0.108-0.244-0.24-0.44-0.316 0.232-0.092 0.632-0.4 0.632-1zM29.54 15.464h-1.27l-1.694-2.814v2.814h-1.82l-0.35-0.836h-1.852l-0.34 0.836h-1.044c-0.434 0-0.984-0.096-1.294-0.414-0.316-0.32-0.48-0.75-0.48-1.432 0-0.56 0.1-1.080 0.484-1.48 0.288-0.3 0.74-0.44 1.36-0.44h0.86v0.8h-0.844c-0.326 0-0.512 0.040-0.688 0.22-0.154 0.16-0.26 0.46-0.26 0.84 0 0.4 0.080 0.68 0.248 0.88 0.14 0.14 0.388 0.18 0.624 0.18h0.4l1.26-2.96h1.34l1.514 3.54v-3.478h1.36l1.574 2.61v-2.614h0.914v3.748zM0.014 15.464l1.6-3.748h1.33l1.52 3.55v-3.55h1.46l1.17 2.54 1.076-2.54h1.488v3.748h-0.92l-0.020-2.936-1.3 2.936h-0.78l-1.3-2.94v2.94h-1.82l-0.34-0.836h-1.858l-0.346 0.836h-0.96zM2.874 13.844l-0.614-1.492-0.61 1.494h1.22zM24.102 13.844l-0.62-1.492-0.62 1.494h1.24zM16.362 13.252c-0.12 0.074-0.26 0.076-0.44 0.076h-1.1v-0.832h1.1c0.16 0 0.32 0.008 0.44 0.068 0.12 0.054 0.2 0.17 0.2 0.332 0 0.164-0.060 0.296-0.18 0.356z"></path>
</svg>
