
<svg version="1.1" xmlns="http://www.w3.org/2000/svg" width="32" height="32" viewBox="0 0 32 32">
<title>brand107</title>
<path fill="#205281" d="M29.134 29.174c-1.114-0.636-2.148-1.752-2.706-3.264-0.080-0.32 0-0.556 0.24-0.716 3.34-2.468 5.332-6.208 5.332-10.348 0-7.64-7.164-13.85-16-13.85-8.836 0.080-16 6.288-16 13.85 0 7.64 7.164 13.85 16 13.85 1.114 0 2.228-0.080 3.344-0.32 0.24-0.080 0.476 0 0.636 0.16 2.15 1.354 5.492 2.468 8.28 2.468 0.874 0 1.272-0.556 1.272-1.114 0.16-0.24-0.16-0.48-0.4-0.716zM24.834 27.9c0.080 0.080 0.080 0.16 0.080 0.16 0 0.080-0.080 0.16-0.16 0.16-0.794 0-3.34-1.354-4.614-2.39-0.16-0.16-0.4-0.24-0.796-0.16-1.036 0.24-2.23 0.4-3.344 0.4-7.4 0-13.374-4.936-13.374-11.066 0-6.128 5.974-11.064 13.374-11.064s13.374 4.936 13.374 11.064c0 3.584-2.070 6.846-5.414 8.836-0.24 0.16-0.48 0.4-0.48 0.72 0 0.714 0.64 2.306 1.356 3.34zM24.754 18.11c0-0.32-0.236-0.64-0.634-0.64-0.16 0-0.32 0.080-0.4 0.16-1.59 1.434-4.376 2.708-7.72 2.708s-5.97-1.36-7.72-2.72c-0.080-0.080-0.32-0.16-0.4-0.16-0.4 0-0.636 0.32-0.636 0.72 0 0.32 0.16 0.54 0.4 0.78 0.954 1.34 3.9 3.82 8.356 3.82h0.080c4.46 0 7.4-2.4 8.36-3.9 0.080-0.24 0.316-0.56 0.316-0.8z"></path>
</svg>
