<!-- Generated by IcoMoon.io -->
<svg version="1.1" xmlns="http://www.w3.org/2000/svg" width="32" height="32" viewBox="0 0 32 32">
<title>brand164</title>
<path fill="#f60" d="M16 0c-8.846 0-16 7.164-16 16.020 0 1.78 0.304 3.476 0.824 5.080h4.77v-13.46l10.406 10.42 10.406-10.42v13.46h4.77c0.52-1.604 0.824-3.3 0.824-5.080 0-8.854-7.154-16.020-16-16.020zM13.616 20.408l-4.556-4.56v8.466h-6.716c2.816 4.606 7.892 7.686 13.656 7.686s10.884-3.080 13.66-7.686h-6.72v-8.466l-4.514 4.56-2.384 2.388-2.42-2.388z"></path>
</svg>
