
<svg version="1.1" xmlns="http://www.w3.org/2000/svg" width="32" height="32" viewBox="0 0 32 32">
<title>brand240</title>
<path fill="#4ba2f2" d="M5.232 3.46c0.354 0.060-0.528 2.37-0.036 5.014 0.424 2.264 5.752 11.034 5.532 14.040-0.17 1.89-4.544 6.32-5.004 6.024-0.504-0.138 1.328-3.148 0.648-5.656-0.788-2.922-5.478-10.482-5.472-13.82 0-2.442 4.014-5.76 4.332-5.602zM15.252 0.006c0.448 0.076-0.674 3.026-0.046 6.388 0.54 2.892 7.336 14.074 7.056 17.908-0.22 2.412-5.796 8.056-6.386 7.68-0.638-0.172 1.696-4.010 0.83-7.208-1.006-3.726-6.984-13.368-6.98-17.624 0-3.116 5.122-7.344 5.526-7.144zM25.592 3.46c0.356 0.060-0.526 2.37-0.034 5.014 0.426 2.264 5.752 11.034 5.534 14.040-0.168 1.89-4.544 6.32-5.006 6.024-0.502-0.138 1.328-3.148 0.65-5.656-0.79-2.924-5.48-10.484-5.474-13.82 0-2.442 4.020-5.76 4.332-5.602z"></path>
</svg>
