<!-- Generated by IcoMoon.io -->
<svg version="1.1" xmlns="http://www.w3.org/2000/svg" width="32" height="32" viewBox="0 0 32 32">
<title>brand173</title>
<path fill="#f4731c" d="M19.34 23.252l4.62 4.62c0.944 0.94 0.944 2.474 0 3.42-0.946 0.944-2.48 0.944-3.42 0l-4.54-4.54-4.562 4.54c-0.46 0.472-1.080 0.708-1.7 0.708s-1.24-0.236-1.7-0.708c-0.96-0.946-0.96-2.48 0-3.42l4.62-4.62c-1.682-0.382-3.302-1.046-4.794-1.986-1.132-0.712-1.472-2.204-0.76-3.336 0.71-1.132 2.204-1.474 3.336-0.76 3.38 2.126 7.736 2.126 11.12 0 1.132-0.714 2.624-0.372 3.336 0.76 0.712 1.13 0.372 2.624-0.756 3.336-1.496 0.938-3.12 1.606-4.8 1.986zM16 16.516c-4.554 0-8.26-3.704-8.26-8.256 0-4.556 3.706-8.26 8.26-8.26s8.26 3.704 8.26 8.26c0 4.552-3.704 8.256-8.26 8.256zM16 4.84c-1.884 0-3.42 1.534-3.42 3.42 0 1.884 1.536 3.42 3.42 3.42 1.886 0 3.42-1.536 3.42-3.42 0-1.886-1.534-3.42-3.42-3.42z"></path>
</svg>
