
<svg version="1.1" xmlns="http://www.w3.org/2000/svg" width="32" height="32" viewBox="0 0 32 32">
<title>brand235</title>
<path d="M30.206 11.624c-2.4-2.4-6.3-2.4-8.752 0l-9.8 9.8c-0.6 0.6-0.6 1.6 0 2.2s1.6 0.6 2.2 0l9.8-9.8c1.2-1.2 3.152-1.2 4.352 0s1.2 3.152 0 4.352l-9.652 9.652c1.2 1.2 3.15 1.2 4.35 0l7.452-7.452c2.45-2.45 2.45-6.352 0.050-8.752zM26.906 14.874c-0.6-0.6-1.6-0.6-2.2 0l-9.806 9.852c-1.2 1.2-3.148 1.2-4.348 0-0.6-0.6-1.6-0.6-2.2 0s-0.6 1.6 0 2.2c2.4 2.4 6.3 2.4 8.752 0l9.8-9.8c0.6-0.65 0.6-1.652 0-2.252zM23.654 5.074c-2.4-2.4-6.3-2.4-8.752 0l-9.8 9.8c-0.6 0.6-0.6 1.6 0 2.2s1.6 0.6 2.2 0l9.86-9.8c1.2-1.2 3.16-1.2 4.36 0 0.6 0.6 1.6 0.6 2.2 0 0.56-0.65 0.56-1.6-0.040-2.2zM20.354 8.324c-0.6-0.6-1.6-0.6-2.2 0l-9.8 9.852c-1.2 1.2-3.152 1.2-4.354 0-1.2-1.2-1.2-3.152 0-4.352l9.652-9.652c-1.2-1.2-3.15-1.2-4.35 0l-7.502 7.452c-2.4 2.4-2.4 6.3 0 8.752 2.4 2.4 6.3 2.4 8.752 0l9.8-9.8c0.6-0.652 0.6-1.652 0-2.252z"></path>
</svg>
