
<svg version="1.1" xmlns="http://www.w3.org/2000/svg" width="32" height="32" viewBox="0 0 32 32">
<title>brand38</title>
<path fill="#4cadc0" d="M16 29.11c-7.252 0-13.132-5.88-13.132-13.126 0-7.25 5.88-13.124 13.132-13.124 7.248 0 13.126 5.874 13.126 13.124 0 7.248-5.86 13.126-13.128 13.126zM16 0c-8.84 0-16.008 7.168-16.008 16s7.172 16 16.008 16c8.832 0 16-7.168 16-16s-7.152-16.016-16-16zM14.266 20.392l-4.67-4.392 4.67-4.408v-4.112l-9.014 8.52 9.014 8.506v-4.114zM17.746 7.478v4.1l4.666 4.422-4.672 4.392v4.114l9.020-8.506-9.020-8.52z"></path>
</svg>
