<!-- Generated by IcoMoon.io -->
<svg version="1.1" xmlns="http://www.w3.org/2000/svg" width="32" height="32" viewBox="0 0 32 32">
<title>brand9</title>
<path fill="#999" d="M16.224 9.18c1.080 0 3.088-1.486 5.7-1.486 4.5 0 6.27 3.2 6.27 3.2s-3.46 1.77-3.46 6.064c0 4.84 4.31 6.5 4.31 6.5s-3.014 8.48-7.084 8.48c-1.87 0-3.324-1.26-5.294-1.26-2.008 0-4 1.3-5.296 1.3-3.72 0-8.414-8.060-8.414-14.52 0-6.38 3.976-9.7 7.704-9.7 2.42 0 4.304 1.38 5.564 1.38zM17.35 2.784c2.1-2.77 5.026-2.784 5.026-2.784s0.434 2.606-1.654 5.116c-2.22 2.68-4.76 2.24-4.76 2.24s-0.48-2.108 1.4-4.572z"></path>
</svg>
