
<svg version="1.1" xmlns="http://www.w3.org/2000/svg" width="32" height="32" viewBox="0 0 32 32">
<title>brand290</title>
<path fill="#107c10" d="M5.468 28.048c2.812 2.464 6.5 3.956 10.532 3.956 4.034 0 7.72-1.492 10.534-3.956 2.506-2.552-5.754-11.616-10.534-15.228-4.776 3.612-13.040 12.676-10.532 15.228zM20.348 8.834c3.334 3.948 9.98 13.754 8.1 17.22 2.22-2.746 3.552-6.24 3.552-10.050 0-4.454-1.82-8.484-4.76-11.384 0 0-0.036-0.030-0.112-0.056-0.080-0.030-0.2-0.060-0.374-0.060-0.788 0-2.646 0.58-6.406 4.33zM4.872 4.564c-0.076 0.026-0.11 0.054-0.114 0.056-2.938 2.9-4.758 6.93-4.758 11.384 0 3.806 1.33 7.3 3.548 10.046-1.868-3.474 4.772-13.27 8.106-17.216-3.76-3.752-5.62-4.328-6.408-4.328-0.174 0-0.296 0.028-0.374 0.060zM16 4.73s-3.928-2.296-6.994-2.406c-1.204-0.044-1.94 0.394-2.028 0.452 2.86-1.92 5.9-2.78 9-2.78h0.022c3.112 0 6.14 0.86 9.020 2.78-0.090-0.060-0.82-0.496-2.026-0.452-3.066 0.11-6.994 2.4-6.994 2.4v0.008z"></path>
</svg>
