
<svg version="1.1" xmlns="http://www.w3.org/2000/svg" width="32" height="32" viewBox="0 0 32 32">
<title>brand90</title>
<path fill="#630" d="M26.044 21.26v-20.608h-2.74v3.868h-0.086c-0.28-0.606-0.64-1.186-1.12-1.74-0.48-0.548-1.020-1.034-1.64-1.454s-1.28-0.746-2.020-0.98c-0.738-0.226-1.518-0.346-2.358-0.346-1.61 0-3.060 0.3-4.32 0.892-1.26 0.594-2.32 1.406-3.174 2.434-0.854 1.030-1.506 2.232-1.956 3.608-0.448 1.38-0.674 2.834-0.674 4.37 0 1.594 0.188 3.094 0.566 4.5 0.38 1.406 0.98 2.63 1.82 3.674 0.84 1.040 1.88 1.86 3.16 2.44s2.82 0.88 4.62 0.88c1.66 0 3.1-0.42 4.34-1.26s2.18-1.96 2.82-3.36h0.080v3.040c0 2.72-0.56 4.8-1.68 6.26-1.12 1.44-2.96 2.18-5.52 2.18-0.76 0-1.5-0.080-2.22-0.24s-1.38-0.42-1.98-0.76c-0.58-0.36-1.1-0.8-1.52-1.38s-0.7-1.28-0.84-2.12h-2.802c0.090 1.18 0.42 2.2 0.98 3.060 0.566 0.86 1.28 1.56 2.132 2.12 0.854 0.54 1.82 0.94 2.89 1.2 1.080 0.26 2.18 0.4 3.32 0.4 1.84 0 3.38-0.26 4.64-0.74 1.26-0.5 2.28-1.2 3.060-2.14 0.8-0.94 1.36-2.060 1.72-3.4s0.56-2.84 0.56-4.48zM16.084 20.52c-1.272 0-2.374-0.252-3.3-0.76-0.928-0.506-1.7-1.174-2.306-2-0.62-0.826-1.060-1.774-1.36-2.846-0.3-1.074-0.44-2.174-0.44-3.306 0-1.16 0.14-2.296 0.4-3.412 0.28-1.116 0.72-2.11 1.32-2.98 0.6-0.868 1.38-1.572 2.3-2.108s2.040-0.804 3.34-0.804 2.4 0.276 3.32 0.826c0.9 0.552 1.66 1.276 2.24 2.174 0.58 0.9 1 1.9 1.26 3s0.38 2.204 0.38 3.304c0 1.132-0.16 2.232-0.46 3.306-0.3 1.072-0.76 2.020-1.38 2.846s-1.36 1.494-2.26 2c-0.9 0.508-1.94 0.76-3.14 0.76z"></path>
</svg>
