<!-- Generated by IcoMoon.io -->
<svg version="1.1" xmlns="http://www.w3.org/2000/svg" width="32" height="32" viewBox="0 0 32 32">
<title>brand216</title>
<path fill="#e7282d" d="M32 24.244v3.032h-6.52v-3.032h6.52zM0 24.104h15.34v3.034h-15.34v-3.040zM17.186 24.104h6.52v3.034h-6.52v-3.040zM25.482 19.294h6.518v3.032h-6.52v-3.032zM0 19.154h15.34v3.034h-15.34v-3.034zM17.186 19.154h6.52v3.034h-6.52v-3.034zM25.482 14.694h6.518v3.032h-6.52v-3.034zM0 14.554h15.34v3.026h-15.34v-3.026zM17.186 14.554h6.52v3.026h-6.52v-3.026zM25.48 9.74h6.52v3.040h-6.52v-3.040zM0 9.606h15.34v3.034h-15.34v-3.040zM17.186 9.606h6.52v3.034h-6.52v-3.040zM25.482 4.866h6.518v3.034h-6.52v-3.040zM0 4.72h15.34v3.032h-15.34v-3.028zM17.186 4.72h6.52v3.032h-6.52v-3.028z"></path>
</svg>
