<!-- Generated by IcoMoon.io -->
<svg version="1.1" xmlns="http://www.w3.org/2000/svg" width="32" height="32" viewBox="0 0 32 32">
<title>brand301</title>
<path fill="#0074e4" d="M23.174 24.074c-9.906 0.594-20.68 4.18-21.816 4.68l1.32-3.72c3.36-1.554 11.7-4.624 21.98-5.356-0.2 0.76-1.28 3.56-1.5 4.38zM26.708 14.062s-0.486 1.020-0.946 2.42c-3.94 0.24-10.18 1.54-13.22 2.64 1.58-1.44 11.58-11.48 11.58-11.48 3.858 2.638 7.878 5.898 7.878 5.898l-5.292 0.526zM3.308 14.502c2.196-1 8.352-2.86 14.246-4.24 0 0-11.33 10.46-14.48 13.7l2.6-7.040c-2.020 0.3-2.91 0.42-5.674 1l3.306-3.4zM17.44 3.26c0.98 0.48 4.6 2.94 5.892 3.85-4.128 0.1-12.18 1.88-15.536 3 2.754-2.090 7.87-6.040 9.644-6.864z"></path>
</svg>
