<!-- Generated by IcoMoon.io -->
<svg version="1.1" xmlns="http://www.w3.org/2000/svg" width="32" height="32" viewBox="0 0 32 32">
<title>brand141</title>
<path fill="#00b0ea" d="M24.12 19.596c-2.016 0.884-3.634 2.512-4.508 4.532l5.692 1.176-1.18-5.708zM3.3 11.090l-3.3-3.29c1.5-3.484 4.288-6.28 7.764-7.8h0.008l3.292 3.284c1.824-0.788 3.834-1.228 5.95-1.228 8.276 0 14.986 6.704 14.986 14.972s-6.712 14.972-14.986 14.972c-8.28 0-14.988-6.7-14.988-14.972 0-2.12 0.474-4.108 1.27-5.934l12.19 12.152c1.5-3.484 4.29-6.28 7.764-7.8l-12.19-12.16c-3.476 1.52-6.26 4.32-7.764 7.8z"></path>
</svg>
