<!-- Generated by IcoMoon.io -->
<svg version="1.1" xmlns="http://www.w3.org/2000/svg" width="32" height="32" viewBox="0 0 32 32">
<title>brand27</title>
<path fill="#0aa0ff" d="M31.966 15.012c-0.506-8.344-7.41-14.96-15.872-15.012h-0.19c-2.99 0.020-5.784 0.854-8.172 2.3-2.204 1.33-4.060 3.18-5.4 5.38-1.316 2.154-2.132 4.652-2.3 7.324-0.020 0.33-0.032 0.66-0.032 0.996 0 0.334 0.014 0.666 0.034 0.996 0.164 2.672 0.98 5.168 2.3 7.326 1.334 2.2 3.18 4.040 5.368 5.38 2.4 1.44 5.2 2.28 8.18 2.3h0.24c8.46-0.060 15.34-6.66 15.86-15 0.020-0.32 0.040-0.66 0.040-0.98s0-0.66-0.020-0.98zM16.014 20.86v5.11c0.128 3.12-0.76 3.644-1.826 3.69-0.048 0-0.090 0.004-0.134 0.006-6.080-0.86-10.886-5.68-11.72-11.772-0.090-0.62-0.134-1.25-0.134-1.894 0-0.64 0.046-1.272 0.132-1.892 0.834-6.080 5.628-10.9 11.7-11.768l0.156 0.014c1.066 0.060 1.954 0.572 1.826 3.69v5.108c-0.014 2.1 1.194 4.1 2.48 4.856-1.284 0.752-2.494 2.506-2.48 4.852z"></path>
</svg>
