
<svg version="1.1" xmlns="http://www.w3.org/2000/svg" width="32" height="32" viewBox="0 0 32 32">
<title>brand291</title>
<path fill="#13b5ea" d="M16 0c-8.836 0-16 7.164-16 16s7.164 16 16 16 16-7.164 16-16-7.164-16-16-16zM24.78 19.54c-1.98 0-3.588-1.608-3.588-3.586 0-1.98 1.61-3.588 3.588-3.588 1.98 0 3.588 1.61 3.588 3.588 0 1.98-1.61 3.586-3.588 3.586zM10.040 19.524c-0.132 0-0.256-0.054-0.354-0.154l-2.726-2.72-2.736 2.73c-0.092 0.092-0.214 0.144-0.344 0.144-0.27 0-0.49-0.22-0.49-0.49 0-0.132 0.052-0.256 0.148-0.35l2.72-2.734-2.718-2.73c-0.1-0.092-0.15-0.216-0.15-0.348 0-0.27 0.22-0.488 0.49-0.488 0.13 0 0.252 0.050 0.344 0.14l2.74 2.732 2.73-2.728c0.092-0.094 0.216-0.144 0.348-0.144 0.28 0 0.5 0.22 0.5 0.488 0 0.13-0.040 0.252-0.14 0.344l-2.74 2.74 2.738 2.734c0.092 0.092 0.14 0.214 0.14 0.344 0 0.27-0.22 0.49-0.486 0.49zM20.728 13.404c-1.060 0.134-1.174 0.634-1.174 1.872v3.716c0 0.27-0.22 0.488-0.49 0.488s-0.488-0.22-0.49-0.488v-6.040c0-0.272 0.214-0.488 0.484-0.488 0.22 0 0.42 0.166 0.46 0.386 0.36-0.28 0.8-0.424 1.24-0.424h0.14c0.26 0 0.48 0.22 0.48 0.49s-0.22 0.47-0.5 0.48c0 0-0.12 0-0.22 0.010zM16.608 16.344h-5.108c0 0.024 0.004 0.050 0.008 0.076 0.026 0.14 0.060 0.28 0.11 0.412 0.26 0.708 1.020 1.7 2.44 1.72 0.44-0.004 0.84-0.114 1.2-0.306 0.28-0.16 0.52-0.36 0.7-0.57 0.060-0.076 0.12-0.15 0.16-0.224 0.24-0.306 0.54-0.248 0.72-0.11 0.22 0.18 0.24 0.52 0.060 0.76l-0.020 0.020c-0.28 0.36-0.58 0.66-0.92 0.88s-0.7 0.38-1.080 0.46c-0.44 0.12-0.86 0.14-1.3 0.080-1.46-0.18-2.68-1.24-3.040-2.68-0.080-0.28-0.12-0.56-0.12-0.86 0-1.14 0.56-2.26 1.5-2.94 1.18-0.82 2.78-0.88 4-0.1 0.84 0.54 1.38 1.36 1.58 2.36 0.1 0.56-0.28 1.060-0.98 1.080zM24.78 13.38c-1.42 0-2.574 1.154-2.574 2.574s1.154 2.574 2.574 2.574 2.574-1.156 2.574-2.574c0-1.42-1.154-2.576-2.574-2.576zM24.78 16.84c-0.49 0-0.888-0.396-0.888-0.888 0-0.49 0.4-0.888 0.888-0.888 0.49 0 0.89 0.4 0.89 0.888 0 0.492-0.4 0.89-0.89 0.89zM14.060 13.37c-1.214 0-2.23 0.83-2.514 1.954v0.040h5.034c-0.27-1.14-1.296-1.992-2.52-1.992z"></path>
</svg>
