<!-- Generated by IcoMoon.io -->
<svg version="1.1" xmlns="http://www.w3.org/2000/svg" width="32" height="32" viewBox="0 0 32 32">
<title>brand270</title>
<path d="M5.034 12.16v3.684c0 1.23-0.544 1.74-1.82 1.74-1.28 0-1.82-0.51-1.82-1.74v-3.844h-1.234c-0.104 0-0.16 0.054-0.16 0.16v3.744c0 2.060 1.31 2.776 3.212 2.776 1.9 0 3.212-0.72 3.212-2.776v-3.904h-1.23c-0.106 0-0.16 0.054-0.16 0.16zM22.862 13.068c0.1 0 0.16-0.032 0.2-0.106l0.36-0.88c0.020-0.040 0-0.080-0.040-0.080h-4.982c-0.466 0-0.64 0.14-0.64 0.46v5.72c0 0.28 0.134 0.4 0.49 0.4h4.62c0.1 0 0.146-0.020 0.18-0.1l0.356-0.88c0.020-0.040 0-0.080-0.052-0.080h-4.234v-1.18c0-0.4 0.22-0.58 0.82-0.58h1.832c0.1 0 0.148-0.020 0.18-0.1l0.346-0.84c0.020-0.060 0-0.080-0.060-0.080h-3.118v-1.66h3.74zM14.14 15.104c0.54-0.28 0.76-0.812 0.76-1.44 0-1.444-1.18-1.664-2.4-1.664h-2.8c-0.464 0-0.64 0.14-0.64 0.46v5.716c0 0.268 0.136 0.39 0.492 0.39h3.44c1.3 0 2.226-0.504 2.226-1.814 0-0.786-0.34-1.452-1.080-1.648zM12.852 17.51h-2.426v-1.2c0-0.406 0.22-0.586 0.82-0.586h1.606c0.774 0 0.988 0.294 0.988 0.9 0 0.604-0.214 0.886-0.988 0.886zM10.426 13.056h2.17c0.726 0 0.928 0.272 0.928 0.84 0 0.566-0.2 0.84-0.928 0.84h-2.17v-1.68zM31.986 18.452l-1.474-2.528c0.734-0.188 1.324-0.672 1.324-1.9 0-1.594-0.988-2.024-2.62-2.024h-2.81c-0.464 0-0.64 0.14-0.64 0.46v5.94c0 0.108 0.056 0.16 0.164 0.16h1.2v-1.914c0-0.4 0.224-0.584 0.82-0.584h1.212l1.34 2.4c0.040 0.080 0.080 0.12 0.18 0.12h1.26c0.1 0 0.1-0.060 0.060-0.1zM29.42 15.044h-2.29v-1.988h2.286c0.85 0 1.040 0.328 1.040 0.994 0 0.672-0.19 0.994-1.040 0.994z"></path>
</svg>
