<!-- Generated by IcoMoon.io -->
<svg version="1.1" xmlns="http://www.w3.org/2000/svg" width="32" height="32" viewBox="0 0 32 32">
<title>brand203</title>
<path fill="#8ca1af" d="M3.674 31.91l0.886-0.19c0.276-0.060 0.55-0.114 0.826-0.168 0.424-0.084 0.848-0.166 1.274-0.244 0.32-0.060 0.64-0.114 0.96-0.17l0.074-0.020c0.332-0.060 0.664-0.12 0.996-0.16l1.62-0.24v-30.818h-0.056c-0.84 0.004-1.674 0.020-2.512 0.048-0.92 0.024-1.86 0.080-2.78 0.14-0.4 0.028-0.8 0.060-1.2 0.094h-0.060v31.72zM11.88-0.080v30.6c1.148-0.132 2.294-0.244 3.444-0.33 2.828-0.214 5.666-0.28 8.5-0.2 1.504 0.044 3.004 0.13 4.5 0.256v-28.34c-1.34-0.306-2.684-0.576-4.040-0.81-2.624-0.456-5.274-0.776-7.93-0.976-1.488-0.108-2.98-0.176-4.472-0.2zM26.234 19.656l-0.060-0.006-0.748-0.080c-1.866-0.194-3.74-0.324-5.612-0.388-1.876-0.060-3.754-0.040-5.63 0.020h-0.060c-0.060 0-0.12 0-0.18-0.020-0.134-0.040-0.26-0.1-0.356-0.2-0.168-0.18-0.246-0.42-0.208-0.66 0.012-0.080 0.040-0.14 0.072-0.22 0.036-0.060 0.084-0.14 0.14-0.18 0.056-0.060 0.12-0.1 0.19-0.14 0.080-0.040 0.16-0.060 0.24-0.080h0.12c0.26 0 0.52-0.020 0.76-0.020 1.86-0.040 3.7-0.040 5.56 0.040 1.92 0.080 3.82 0.22 5.72 0.44l0.2 0.020c0.060 0.020 0.12 0.020 0.18 0.040 0.14 0.060 0.26 0.14 0.34 0.24 0.060 0.060 0.1 0.14 0.14 0.22s0.060 0.16 0.060 0.24c0.020 0.22-0.060 0.44-0.22 0.6-0.060 0.060-0.12 0.1-0.18 0.14s-0.14 0.060-0.22 0.080c-0.040 0.020-0.060 0.020-0.12 0.020h-0.060zM26.282 16.040c-0.060 0-0.060 0-0.12-0.008l-0.74-0.094c-1.86-0.24-3.74-0.4-5.6-0.48-1.86-0.1-3.74-0.12-5.62-0.080l-0.060-0.020c-0.060-0.020-0.12-0.020-0.18-0.040-0.12-0.040-0.26-0.12-0.34-0.22-0.040-0.060-0.1-0.14-0.12-0.2-0.1-0.22-0.1-0.48 0.020-0.7 0.040-0.080 0.080-0.14 0.14-0.2s0.12-0.12 0.2-0.14c0.080-0.040 0.16-0.080 0.24-0.080l0.12-0.020 0.78-0.020c1.86-0.020 3.7 0.020 5.54 0.12 1.92 0.1 3.82 0.28 5.72 0.52l0.2 0.020 0.12 0.020c0.14 0.040 0.26 0.1 0.36 0.22 0.16 0.16 0.24 0.38 0.22 0.6 0 0.080-0.020 0.16-0.060 0.22-0.040 0.080-0.080 0.14-0.12 0.2s-0.1 0.1-0.18 0.16c-0.060 0.040-0.14 0.060-0.22 0.080l-0.12 0.020h-0.060zM26.282 12.424c-0.060 0-0.060 0-0.12-0.008l-0.74-0.106c-1.86-0.254-3.72-0.446-5.6-0.57-1.86-0.124-3.74-0.18-5.62-0.174h-0.060l-0.12-0.020c-0.080-0.020-0.14-0.048-0.22-0.090-0.2-0.124-0.34-0.34-0.38-0.584 0-0.080 0-0.16 0.020-0.24s0.040-0.156 0.080-0.226c0.040-0.072 0.1-0.136 0.16-0.192 0.1-0.1 0.24-0.168 0.38-0.2 0.060-0.014 0.12-0.020 0.18-0.020h0.76c1.92 0.012 3.84 0.086 5.74 0.23 1.86 0.14 3.7 0.346 5.54 0.608l0.2 0.028c0.060 0.010 0.080 0.010 0.12 0.026 0.080 0.024 0.16 0.060 0.22 0.106 0.080 0.044 0.14 0.1 0.18 0.164s0.080 0.134 0.12 0.21c0.080 0.208 0.060 0.446-0.040 0.64-0.040 0.072-0.080 0.14-0.14 0.194-0.1 0.1-0.22 0.17-0.36 0.2-0.040 0.016-0.060 0.016-0.12 0.020l-0.060 0.004zM26.282 8.808c-0.060 0-0.060 0-0.12-0.010l-0.74-0.12c-1.86-0.3-3.72-0.52-5.6-0.66-1.86-0.16-3.74-0.24-5.62-0.28h-0.060l-0.142-0.018c-0.080-0.020-0.154-0.060-0.22-0.1-0.070-0.040-0.132-0.1-0.186-0.16-0.048-0.060-0.092-0.14-0.124-0.2-0.028-0.080-0.050-0.16-0.060-0.24-0.020-0.24 0.070-0.496 0.24-0.66 0.1-0.1 0.236-0.168 0.374-0.2 0.060-0.020 0.12-0.020 0.18-0.020 0.252 0 0.506 0.006 0.76 0.010 1.916 0.046 3.83 0.152 5.74 0.328 1.85 0.16 3.694 0.4 5.528 0.7l0.18 0.020c0.054 0 0.068 0 0.12 0.020 0.080 0.020 0.15 0.060 0.22 0.1 0.060 0.040 0.12 0.1 0.166 0.16 0.12 0.18 0.18 0.4 0.14 0.62-0.020 0.080-0.040 0.14-0.080 0.22-0.040 0.060-0.1 0.14-0.16 0.18-0.1 0.1-0.22 0.16-0.36 0.2h-0.18zM5.382 8.128c-0.12 0-0.24-0.026-0.36-0.084-0.26-0.126-0.42-0.39-0.44-0.674 0-0.074 0.020-0.148 0.040-0.22 0.020-0.090 0.060-0.176 0.12-0.254 0.060-0.086 0.14-0.16 0.22-0.216 0.1-0.064 0.22-0.1 0.32-0.12l0.64-0.060c0.88-0.076 1.74-0.14 2.6-0.19h0.080c0.14 0.004 0.26 0.032 0.36 0.094 0.26 0.136 0.42 0.406 0.42 0.69 0 0.074-0.020 0.146-0.040 0.216-0.020 0.090-0.060 0.176-0.12 0.252-0.060 0.1-0.14 0.16-0.22 0.22-0.1 0.060-0.2 0.1-0.32 0.12-0.14 0.020-0.28 0.020-0.42 0.040-0.18 0.020-0.38 0.020-0.58 0.040l-1.56 0.12-0.38 0.040c-0.080 0.020-0.16 0.020-0.26 0.020zM26.262 5.192l-0.12-0.012-0.74-0.132c-1.86-0.314-3.74-0.568-5.62-0.754-1.86-0.184-3.74-0.3-5.62-0.36h-0.060l-0.12-0.024c-0.080-0.020-0.14-0.052-0.22-0.096-0.060-0.040-0.12-0.096-0.18-0.16-0.16-0.184-0.22-0.44-0.16-0.676 0.020-0.080 0.060-0.16 0.1-0.24s0.1-0.14 0.16-0.2c0.1-0.1 0.24-0.16 0.38-0.2 0.060-0.020 0.12-0.020 0.18-0.020l0.78 0.020c1.86 0.080 3.7 0.2 5.54 0.4 1.92 0.2 3.82 0.48 5.72 0.8l0.2 0.020c0.060 0 0.080 0 0.12 0.020 0.080 0.020 0.16 0.060 0.22 0.1 0.18 0.14 0.3 0.34 0.32 0.56 0.020 0.080 0 0.16-0.020 0.24 0 0.080-0.040 0.16-0.080 0.22s-0.080 0.12-0.14 0.18c-0.1 0.1-0.24 0.16-0.38 0.18l-0.12 0.020h-0.060zM5.36 4.168c-0.116 0-0.228-0.024-0.334-0.074-0.094-0.044-0.18-0.106-0.25-0.184-0.060-0.070-0.114-0.15-0.148-0.24-0.026-0.066-0.044-0.136-0.052-0.21-0.028-0.284 0.104-0.568 0.34-0.728 0.106-0.072 0.224-0.114 0.348-0.13 0.21-0.020 0.42-0.020 0.63-0.040 0.868-0.060 1.734-0.1 2.6-0.14h0.064c0.12 0.020 0.24 0.040 0.34 0.1 0.24 0.14 0.4 0.42 0.4 0.7 0 0.080-0.020 0.16-0.040 0.22-0.040 0.1-0.080 0.18-0.14 0.26s-0.14 0.16-0.24 0.2c-0.1 0.060-0.22 0.1-0.34 0.1-0.14 0.020-0.28 0.020-0.44 0.020l-0.6 0.040c-0.54 0.040-1.060 0.060-1.58 0.1l-0.4 0.020c-0.1 0.020-0.18 0.020-0.26 0.020z"></path>
</svg>
