<svg id="Layer_1" data-name="Layer 1" xmlns="http://www.w3.org/2000/svg" viewBox="0 0 40 40"><defs><style>.cls-1{fill:#fff;}</style></defs><title>white_TW</title><path class="cls-1" d="M13.32,34.86c13.59,0,21-11.26,21-21,0-.32,0-.64,0-.95A15.23,15.23,0,0,0,38,9.06a14.72,14.72,0,0,1-4.24,1.17A7.52,7.52,0,0,0,37,6.14a14.72,14.72,0,0,1-4.69,1.79A7.39,7.39,0,0,0,19.54,13a7.24,7.24,0,0,0,.19,1.69A21,21,0,0,1,4.51,7a7.4,7.4,0,0,0,2.28,9.86,7.37,7.37,0,0,1-3.34-.92V16a7.37,7.37,0,0,0,5.92,7.24,7.34,7.34,0,0,1-1.95.26A7,7,0,0,1,6,23.35a7.39,7.39,0,0,0,6.9,5.13,14.85,14.85,0,0,1-9.18,3.16A14.72,14.72,0,0,1,2,31.54a21,21,0,0,0,11.32,3.32"/></svg>