<svg xmlns="http://www.w3.org/2000/svg" id="_01" data-name="01" viewBox="0 0 40 40">
    <title>presentation_01</title>
    <path d="M35,5.21H5A1.29,1.29,0,1,1,5,2.63h13.7V1.34a1.3,1.3,0,0,1,2.6,0V2.63H35a1.29,1.29,0,1,1,0,2.58Zm0,20.64H5V6.5H35ZM9,15.57a5.2,5.2,0,0,0,10.4,0h-5.2V10.4A5.19,5.19,0,0,0,9,15.57Zm14.33-5.2H22v1.29h1.3Zm0,2.58H22v1.29h1.3Zm0,2.58H22v1.29h1.3Zm0,2.58H22V19.4h1.3Zm0,2.58H22V22h1.3Zm7.78-10.32H24.58v1.29h6.48Zm0,2.58H24.58v1.29h6.48Zm0,2.58H24.58v1.29h6.48Zm0,2.58H24.58V19.4h6.48Zm0,2.58H24.58V22h6.48ZM16.46,32.31h2.93V25.85h1.3v6.45h2.88l-2.88-6.45h2.6l5.18,11.61H25.88L24.15,33.6H20.69V40h-1.3V33.6H15.88l-1.76,3.87H11.53L16.8,25.85h2.59Zm4.22-6.45Zm-1.3,0Z" class="fill-p"/>
</svg>
