<svg xmlns="http://www.w3.org/2000/svg" id="_01" data-name="01" viewBox="0 0 40 40">
    <title>
        badge_01
    </title>
    <path d="M37.14,9.34h-2.8V5.14l-5.78-.09,0,4.29H11.25l.12-4.29-5.66.09V9.43L2.86,9.34A2.86,2.86,0,0,0,0,12.19v20a2.86,2.86,0,0,0,2.86,2.86H37.14A2.86,2.86,0,0,0,40,32.19v-20A2.86,2.86,0,0,0,37.14,9.34ZM30,6.48h2.86v5.71H30ZM11.43,16.21c1.72,0,3.12,1.84,3.12,4.11s-1.4,4.11-3.12,4.11S8.3,22.59,8.3,20.32,9.7,16.21,11.43,16.21ZM7.14,6.48H10v5.71H7.14ZM5.24,29.26S5.57,26.54,6.35,26a10.92,10.92,0,0,1,3-.85s1.43,1.54,2,1.54,2-1.54,2-1.54a10.89,10.89,0,0,1,3,.85c.91.6,1.13,3.23,1.13,3.23Zm29-1.35H21.43V26.48H34.28Zm0-2.86H21.43V23.62H34.28Zm0-2.86H21.43V20.76H34.28Zm0-2.86H21.43V17.91H34.28Z" class="fill-p"/>
</svg>
