<svg xmlns="http://www.w3.org/2000/svg" id="_01" data-name="01" viewBox="0 0 40 40">
    <title>
        money_01
    </title>
    <path d="M0,31.3V8.8H40V31.3ZM2.5,11.22V28.8h35V11.22ZM26.25,20c0-4.14-2.8-7.5-6.25-7.5H36.25v15H20C23.45,27.55,26.25,24.19,26.25,20Zm5,2.5c1,0,1.88-1.12,1.88-2.5s-.84-2.5-1.87-2.5-1.87,1.12-1.87,2.5S30.21,22.55,31.25,22.55Zm-8.6-5.65a.31.31,0,0,1-.08.15.19.19,0,0,1-.14,0,.65.65,0,0,1-.27-.11l-.46-.24a4.34,4.34,0,0,0-.63-.23,2.82,2.82,0,0,0-.79-.1,1.89,1.89,0,0,0-.59.08,1.23,1.23,0,0,0-.42.22.89.89,0,0,0-.25.35,1.13,1.13,0,0,0-.08.43.94.94,0,0,0,.18.58,1.76,1.76,0,0,0,.49.44,5.23,5.23,0,0,0,.7.36l.8.36a8.14,8.14,0,0,1,.8.43,3.27,3.27,0,0,1,.7.57,2.62,2.62,0,0,1,.49.78,2.73,2.73,0,0,1,.19,1.06,3.14,3.14,0,0,1-.3,1.4,2.91,2.91,0,0,1-.8,1,3.51,3.51,0,0,1-1.19.61l-.18,0v1.36H19.59v-1.2h0a5.26,5.26,0,0,1-1-.08,5.8,5.8,0,0,1-.79-.21,3.52,3.52,0,0,1-.58-.25,1.63,1.63,0,0,1-.33-.23.59.59,0,0,1-.15-.29,2.7,2.7,0,0,1,0-.55c0-.16,0-.3,0-.41a1.09,1.09,0,0,1,.05-.27.28.28,0,0,1,.09-.14.23.23,0,0,1,.14,0,.65.65,0,0,1,.31.13,5.15,5.15,0,0,0,.51.28,4.53,4.53,0,0,0,.75.29,3.58,3.58,0,0,0,1,.13,2.35,2.35,0,0,0,.67-.09,1.53,1.53,0,0,0,.5-.25,1.11,1.11,0,0,0,.32-.41,1.33,1.33,0,0,0,.11-.54,1,1,0,0,0-.19-.59,1.89,1.89,0,0,0-.49-.44,5.29,5.29,0,0,0-.68-.36L19,20.58a6.74,6.74,0,0,1-.79-.43,3.15,3.15,0,0,1-.68-.57A2.68,2.68,0,0,1,17,18.8a3.19,3.19,0,0,1,.08-2.36,2.6,2.6,0,0,1,.72-.91A3.09,3.09,0,0,1,18.93,15a4.4,4.4,0,0,1,.66-.14V13.56h1.23v1.29H21a5.18,5.18,0,0,1,.67.15,3.64,3.64,0,0,1,.55.21,1.22,1.22,0,0,1,.32.19.44.44,0,0,1,.15.28,1.25,1.25,0,0,1,0,.23q0,.14,0,.34c0,.15,0,.28,0,.38A1.31,1.31,0,0,1,22.65,16.9ZM13.75,20c0,4.14,2.8,7.5,6.25,7.5H3.75v-15H20C16.55,12.55,13.75,15.91,13.75,20Zm-5-2.5c-1,0-1.88,1.12-1.88,2.5s.84,2.5,1.88,2.5,1.88-1.12,1.88-2.5S9.79,17.55,8.75,17.55Z" class="fill-p fr-evenodd"/>
</svg>
