<svg xmlns="http://www.w3.org/2000/svg" id="_01" data-name="01" viewBox="0 0 40 40">
    <defs>
        <style>
            .cls-2{fill:#5a5a5a;}
        </style>
    </defs>
    <title>
        phone_01
    </title>
    <path d="M19,25.53S14.6,18.13,14.59,18c-.91-2-1.64-4-.11-4.91L8.15,2.46c-1.64,1.23-6.28,7.88,2.4,23C19.7,41.31,28.4,40.64,30.14,39.57L24,29.15C22.52,30,21.29,28.6,19,25.53Zm15.35,10h0L29.56,27.4a1.35,1.35,0,0,0-1.84-.47l-3,1.74L31,39.12l3-1.74h0A1.34,1.34,0,0,0,34.38,35.52ZM18.23,10.92h0a1.34,1.34,0,0,0,.47-1.84h0l-5-8.35A1.34,1.34,0,0,0,11.91.24L9,2l6.32,10.68Z" class="fill-p"/>
</svg>
