<svg xmlns="http://www.w3.org/2000/svg" id="_01" data-name="01" viewBox="0 0 40 40">
    <title>
        medical_02
    </title>
    <path d="M33,6.06a.42.42,0,0,0,.42.42h2.45L34.23,8.33H31.8a.42.42,0,0,0,0,.85h1.66l-.86,1a3,3,0,0,1-2.7,1.29H20.85V21l-1.7-.61v-9H10.1a3,3,0,0,1-2.7-1.29l-.86-1H8.2a.42.42,0,1,0,0-.85H5.77L4.09,6.49H6.54a.42.42,0,0,0,0-.85H3.32L1,3.12H14.55c3.09,0,2.36,2.25,2,3.13-.86,2.12-.89,3.23.45,3.23h2.15V4.11a2.12,2.12,0,1,1,1.7,0V9.49H23c1.34,0,1.31-1.11.45-3.23-.36-.88-1.09-3.13,2-3.13H39l-2.3,2.52H33.46A.42.42,0,0,0,33,6.06ZM26.38,26.2a3.24,3.24,0,0,1-2.15,3.07l-1,.35-.17-.07-2.23-.91,2.72-1.16a1.33,1.33,0,0,0,.87-1.36,1.62,1.62,0,0,0-1.07-1.44l-2.53-.86v4.82l-1.7-.69v-4h0a15.57,15.57,0,0,0-2.53.73,1.66,1.66,0,0,0-1.07,1.53,1.28,1.28,0,0,0,.87,1.27L22,29.76a2.94,2.94,0,0,1,1.93,2.79,3.09,3.09,0,0,1-1.73,2.55s1.67-2.83-.79-3.75l-.57-.21V39.2a.85.85,0,0,1-1.7,0V31.1l-.06,0c-1,.37-1.86.92-1.84,2.09a4.33,4.33,0,0,0,.55,1.9,3.1,3.1,0,0,1-1.73-2.52,3,3,0,0,1,1-2.26l.8.29.82-.28-2.9-1.06a3.34,3.34,0,0,1-2.15-3A3.69,3.69,0,0,1,16,22.88h0l1.28.43,1-.36-5.77-2a3.92,3.92,0,0,1-2.35-5h0a3.52,3.52,0,0,1,4.48-2.25c.18.06,2.47,1.21,2.53,1.24a1.32,1.32,0,0,1-.79,2.45L13,16.82a1.79,1.79,0,0,1-.63-.43,1.74,1.74,0,0,0-.14.29A1.8,1.8,0,0,0,13.25,19L24,22.88A3.67,3.67,0,0,1,26.38,26.2Zm-13-11.11a.57.57,0,1,0,.59-.55A.57.57,0,0,0,13.42,15.08ZM29.72,19a3.9,3.9,0,0,1-2.21,2L24,22.18l-3.13-1.13L26.79,19a1.8,1.8,0,0,0,1.06-2.31,1.74,1.74,0,0,0-.14-.29,1.79,1.79,0,0,1-.63.43l-3.45.57a1.32,1.32,0,0,1-.79-2.45c.06,0,2.35-1.18,2.53-1.24A3.52,3.52,0,0,1,29.85,16h0A3.9,3.9,0,0,1,29.72,19Zm-3.09-3.87a.57.57,0,1,0-.55.59A.57.57,0,0,0,26.62,15.08Z" class="fill-p"/>
</svg>
