<svg xmlns="http://www.w3.org/2000/svg" id="_01" data-name="01" viewBox="0 0 40 40">
    <title>
        weather_02
    </title>
    <path d="M24.68,25.37l-1.81-3.49L19.56,24l-.24-3.92-3.88.58L16.82,17l-3.78-1,2.75-2.8-3-2.5,3.65-1.44L14.66,5.7l3.92.18L18.4,1.95,21.92,3.7,23.35,0l2.49,3L28.64.32,29.7,4.11l3.67-1.38-.58,3.88,3.92.24-2.11,3.31L38.08,12,34.8,14.14l2.44,3.07-3.87.64,1,3.8-3.8-1-.64,3.87L26.84,22.1Zm8.55-12.66a7.81,7.81,0,1,0-7.81,7.81A7.81,7.81,0,0,0,33.23,12.71Z" class="fill-p fr-evenodd"/>
    <path d="M13.13,29.54a3.46,3.46,0,0,0,.06-.62V4.76A3.54,3.54,0,0,0,9.65,1.23H7.4A3.54,3.54,0,0,0,3.86,4.76V28.91c0,.06,0,.12,0,.18a6.37,6.37,0,1,0,9.25.44ZM6.27,8.26c0-1.75,1-3.18,2.25-3.18s2.25,1.42,2.25,3.18v.92H6.27Zm4.62,16.33H6V23.43h4.85Zm0-5.31H6V18.12h4.85Zm0-5.31H6V12.81h4.85Z" class="fill-p fr-evenodd"/>
</svg>
