<svg xmlns="http://www.w3.org/2000/svg" id="_01" data-name="01" viewBox="0 0 40 40">
    <defs>
        <style>
            .cls-2{fill:#5a5a5a;fill-rule:evenodd;}
        </style>
    </defs>
    <title>
        weather_11
    </title>
    <path d="M0,36.78c5.9-1.35,13.48-2.94,10.51-6.95l-.16-.2a13.58,13.58,0,0,1-4-9.33h0c0-.44,0-.89,0-.09v-.42h0a14,14,0,0,1,4-9.33,18.36,18.36,0,0,1,1.77-1.63C19.74,3.39,28.75.93,40,3.32c-5.9,1.34-13.48,2.95-10.51,6.95l.16.2a14,14,0,0,1,4,9.33h0v.09c0-.46,0,0,0,.43h0a13.59,13.59,0,0,1-4,9.33,18.41,18.41,0,0,1-1.77,1.63C20.25,36.71,11.25,39.17,0,36.78ZM22.71,22.71a3.71,3.71,0,0,0,1.11-2.78,4,4,0,0,0-1.1-2.54,3.85,3.85,0,0,0-5.43,0,4.18,4.18,0,0,0-1.11,2.78,3.52,3.52,0,0,0,1.1,2.54A3.84,3.84,0,0,0,22.71,22.71Z" class="fill-p"/>
</svg>
