<svg xmlns="http://www.w3.org/2000/svg" id="_01" data-name="01" viewBox="0 0 40 40">
    <title>
        clothes_01
    </title>
    <path d="M29.8,18.61l-7.29,3.51a6.3,6.3,0,0,1-5,0l-8-3.86L7.42,25.36A3.68,3.68,0,0,0,8,28.29S11.71,33,19.64,33c8.55,0,11.65-4.58,11.65-4.58a4.07,4.07,0,0,0,.47-3Z" class="fill-p"/>
    <path d="M39.25,10.55,21.82,3.48a5.53,5.53,0,0,0-3.61,0L.77,10.55c-1,.4-1,1.11-.05,1.58l17.53,8.44a4.6,4.6,0,0,0,3.51,0l14.77-7.11V24.25H36l-.83,12.68h4.14l-.81-12.68h-.56V12.87a.44.44,0,0,0,0-.07l1.41-.67C40.27,11.66,40.24,11,39.25,10.55ZM19.1,6.62,7.18,11.55a.6.6,0,0,1-.22,0,.58.58,0,0,1-.22-1.12L18.66,5.54a.58.58,0,0,1,.45,1.08Z" class="fill-p"/>
</svg>
