<svg xmlns="http://www.w3.org/2000/svg" id="_01" data-name="01" viewBox="0 0 40 40">
    <title>
        allergy_01
    </title>
    <path d="M31.82,9.6c-.23-.3-1.43-1.77-2.78-1.31-1.19.4-1.73,2-1.73,5.18s-.63,4.36-1.12,4.86a16.63,16.63,0,0,0-.05-2.59C25.89,13.1,22,9.47,20.55,8.2a4.69,4.69,0,0,0,.33-1.74,3.65,3.65,0,0,0-.41-1.69l0-4.24a.43.43,0,0,0-.67-.35l-3,2.13a8.32,8.32,0,0,0-1.75-.18,8.08,8.08,0,0,0-1.92.23l-3-2.17a.43.43,0,0,0-.68.35l0,4.79a3.75,3.75,0,0,0-.18,1.15A5,5,0,0,0,12,10.79c.06,1.73.2,6.35.2,9.66,0,0,0,2.21,1.1,2.31.92.08,1.38-1.93,1.5-6.82a4.63,4.63,0,0,0,2,.89c0,1.37.08,2.9.08,4.18,0,0,0,1.68,1.1,1.75.53,0,.9-.45,1.15-1.57a3.47,3.47,0,0,0,3.16,1.57,3.33,3.33,0,0,0,3.46-2.48,2.7,2.7,0,0,0,1-.42c1.37-.92,2.07-3.07,2.07-6.4s.61-3.63.61-3.63a2.06,2.06,0,0,1,1,.75.82.82,0,1,0,1.3-1Z" class="fill-p"/>
    <path d="M15.52,31.33a.29.29,0,0,0-.18-.15.28.28,0,0,0-.23,0c-5.73,3.08-3.19,8.12-3.17,8.17a.3.3,0,0,0,.34.15,7.6,7.6,0,0,0,.91-.3A4.65,4.65,0,0,0,16,36.56C16.91,34.17,15.58,31.44,15.52,31.33Z" class="fill-p"/>
    <path d="M2.7,34.4a.29.29,0,0,0-.18.15.3.3,0,0,0,0,.23A7.45,7.45,0,0,0,5.88,38.7a4.53,4.53,0,0,0,3.65,0h0a7.62,7.62,0,0,0,1.15-.58.3.3,0,0,0,.13-.35C10.78,37.68,8.88,32.37,2.7,34.4Z" class="fill-p"/>
    <path d="M1.85,28.69a.3.3,0,0,0-.2.38,6.49,6.49,0,0,0,2.91,3.54,4,4,0,0,0,3.32,0h0a6.3,6.3,0,0,0,.85-.42.3.3,0,0,0,.14-.35S7.32,27.07,1.85,28.69Z" class="fill-p"/>
    <path d="M9.87,33.42a.3.3,0,0,0,.35.13c.19-.06.38-.12.55-.19a4.22,4.22,0,0,0,2.58-2.46,6.41,6.41,0,0,0-.58-4.65.3.3,0,0,0-.18-.14.3.3,0,0,0-.23,0C7.44,29,9.85,33.38,9.87,33.42Z" class="fill-p"/>
    <path d="M6.23,27h0l.17-.07a.3.3,0,0,0,.18-.33S5.63,21.94.34,22.87a.3.3,0,0,0-.2.13.3.3,0,0,0,0,.23,6,6,0,0,0,2.52,3.72A4.14,4.14,0,0,0,6.23,27Z" class="fill-p"/>
    <path d="M7.55,28a.31.31,0,0,0,.36.13L8.19,28a4.07,4.07,0,0,0,2.54-2.44,6,6,0,0,0-.68-4.41A.3.3,0,0,0,9.86,21a.3.3,0,0,0-.23,0C5.11,23.94,7.52,27.92,7.55,28Z" class="fill-p"/>
    <path d="M5.83,23.28a.31.31,0,0,0,.22,0,.3.3,0,0,0,.16-.14,5.51,5.51,0,0,0,.39-4,5.49,5.49,0,0,0-2.91-2.73.3.3,0,0,0-.38.14,5.5,5.5,0,0,0-.39,4A5.51,5.51,0,0,0,5.83,23.28Z" class="fill-p"/>
    <path d="M39.53,21.48a3.54,3.54,0,0,0-3.26-2.07,3.22,3.22,0,0,0-1.68.56,2.14,2.14,0,0,1-1.1.41h-.22a9,9,0,0,0-2.48.31c-3.14,1.35-4.31,3.67-5.23,5.94a7.07,7.07,0,0,1-2.66,2.68A10,10,0,0,0,20,32a5.47,5.47,0,0,0-.77,4.27,4.32,4.32,0,0,0,2.15,2.79,6.56,6.56,0,0,0,7.15-.46,7.87,7.87,0,0,0,2.57-4.1,12.6,12.6,0,0,1,1-2.21v0c.21-.39.66-.53,1.36-.72a7.31,7.31,0,0,0,1.09-.36,7.65,7.65,0,0,0,3.37-2.55,10,10,0,0,0,1.7-3.28A5.67,5.67,0,0,0,39.53,21.48Zm-16,14.37a.66.66,0,1,1-1.24-.34.66.66,0,1,1,1.24.34Zm.74-2.45a.66.66,0,1,1-.41-1A.75.75,0,0,1,24.26,33.4Zm.87-2.47a.66.66,0,1,1,.41,1A.75.75,0,0,1,25.13,30.92Zm.8,5.42a.66.66,0,1,1-.41-1A.75.75,0,0,1,25.93,36.34Zm.8-2.73a.66.66,0,1,1-.41-1A.75.75,0,0,1,26.73,33.61Zm1.38,1.62a.66.66,0,1,1-.41-1A.75.75,0,0,1,28.11,35.23ZM28,31.17a.84.84,0,1,1,.84-.62A.74.74,0,0,1,28,31.17Zm1.6,1.6a.66.66,0,1,1-.41-1A.75.75,0,0,1,29.56,32.77Zm.2-5.62a.66.66,0,1,1-.41-1A.75.75,0,0,1,29.76,27.15Zm.75-1.23a.84.84,0,1,1,.84-.62A.75.75,0,0,1,30.51,25.92Zm1.95,2.64a.66.66,0,1,1-.41-1A.75.75,0,0,1,32.45,28.56Zm-.33-5a.66.66,0,1,1,.41,1A.75.75,0,0,1,32.12,23.52Zm1.94,2.85a.66.66,0,1,1-.41-1A.75.75,0,0,1,34.07,26.38Zm.25-2.51a.66.66,0,1,1,.41,1A.75.75,0,0,1,34.32,23.87Zm1.36,4.06a.66.66,0,1,1-.41-1A.75.75,0,0,1,35.68,27.92Zm1.5-2a.66.66,0,1,1-.41-1A.75.75,0,0,1,37.18,25.89Zm.08-3.14a.66.66,0,1,1-.41-1A.75.75,0,0,1,37.25,22.75Z" class="fill-p"/>
</svg>
