<svg xmlns="http://www.w3.org/2000/svg" id="_01" data-name="01" viewBox="0 0 40 40">
    <title>
        medical_04
    </title>
    <path d="M10.6,33.37l.53-.74-.33-.85H9.24s-.33.85-.33.85l.52.74Z" class="fill-p"/>
    <path d="M20,40a.41.41,0,0,0,0-.2c0-6.89-3.85-8.24-4.19-8.34l-2.2-.81-.89-1.05A6.88,6.88,0,0,0,13.56,28a.33.33,0,0,0,.14,0,3.47,3.47,0,0,0,1.66-2.62c0-.26.06-.91-.22-1.16a.55.55,0,0,0-.44-.14c.72-3.72-1.68-5.81-4.8-5.81-4.8,0-4.81,4.47-4.7,5.81a.53.53,0,0,0-.34.14c-.28.25-.25.9-.22,1.16A3.47,3.47,0,0,0,6.3,28a.34.34,0,0,0,.17,0h0a6.8,6.8,0,0,0,.82,1.57h0l-.91,1.07-2.21.81C3.85,31.57,0,32.91,0,39.81A.41.41,0,0,0,0,40ZM14.32,24.14h0l0,0A.21.21,0,0,0,14.32,24.14Zm0,.85a1.79,1.79,0,0,1,.43-.27A2.79,2.79,0,0,1,13.9,27,10.8,10.8,0,0,0,14.27,25Zm-9-.27a1.91,1.91,0,0,1,.5.32h0a10.85,10.85,0,0,0,.37,2v0A2.79,2.79,0,0,1,5.3,24.73Zm1.18,2a10,10,0,0,1-.29-2.24,9.4,9.4,0,0,0,5.34-2.15c.38.68,1.65,1.15,2.32,1.46,0,.17,0,.35,0,.53a10,10,0,0,1-.36,2.66C13,28.69,11.41,30.57,10,30.57S7,28.56,6.48,26.68Zm.33,4.76A.45.45,0,0,0,7,31.31l.91-1.07a3.09,3.09,0,0,0,2.13.88,3,3,0,0,0,2.08-.86l.89,1a.43.43,0,0,0,.18.13l.84.31-3.1,8-.37-6H9.47l-.37,6-3.19-8Z" class="fill-p"/>
    <rect width="7.78" height="17.5" x="16" y="2.17" class="fill-p"/>
    <rect width="17.5" height="7.78" x="11.13" y="7.03" class="fill-p"/>
    <path d="M35.67,31.56l-.58,0h-.71a12.06,12.06,0,0,1-1.95,3.58,2.55,2.55,0,0,1-1.56.91v0a2.29,2.29,0,0,0,4.5.6,1,1,0,0,1-.42-.77,1,1,0,1,1,1.16.92,3,3,0,0,1-6-.74s0,0,0,0a2.72,2.72,0,0,1-1.52-.89,9.94,9.94,0,0,1-2-3.58h-.9a4.87,4.87,0,0,0-4.85,4.84V40H40V36.36A4.83,4.83,0,0,0,35.67,31.56Z" class="fill-p"/>
    <path d="M27.62,30.23v1.28h-.08a9.32,9.32,0,0,0,1.71,3,1.8,1.8,0,0,0,1.3.65,1.65,1.65,0,0,0,1.23-.65,25.34,25.34,0,0,0,1.5-3V30.23h3.11c-1-.82-.86-2.81-.75-3.49.66-3.93-.21-5.8-.79-6.56a3.51,3.51,0,0,0-3.14-1.95H29.19a3.51,3.51,0,0,0-3.14,1.94c-.58.76-1.46,2.63-.8,6.57.11.68.25,2.67-.75,3.49Zm5.08,1.28a2.25,2.25,0,1,1-4.5,0V30.31a4.9,4.9,0,0,0,4.5,0Zm-6.61-7a.43.43,0,0,1,.32-.13,4.39,4.39,0,0,0,.4,1l.39-2.06c.06-.29.13-.71.21-1.15,0-.13,0-.27.06-.4h.61a9.54,9.54,0,0,0,2.33.67,19.93,19.93,0,0,0,2.91.24h.28l.12.64c.1.52.39,2.06.39,2.06a4.32,4.32,0,0,0,.4-1,.42.42,0,0,1,.32.13,1.36,1.36,0,0,1,.18,1c-.12.81-.45,1.37-.78,1.37l-.35,0,0,.28A5.22,5.22,0,0,1,33.48,29a3.69,3.69,0,0,1-2.4,1.27,4.13,4.13,0,0,1-.63.05,4.08,4.08,0,0,1-.62-.05A3.68,3.68,0,0,1,27.42,29a5.2,5.2,0,0,1-.35-1.79l0-.28-.28,0h0c-.37,0-.7-.56-.81-1.37A1.35,1.35,0,0,1,26.09,24.52Z" class="fill-p"/>
</svg>
