<svg xmlns="http://www.w3.org/2000/svg" id="_01" data-name="01" viewBox="0 0 40 40">
    <title>
        alert_03
    </title>
    <path d="M35.29,7.73l-1.76.32a3.89,3.89,0,0,0-.73.54l0,0s0,0,0,0h0l0,0h0l0,0h-.06v0h0l-.1.09c-5.2,1-17.68,3.65-28.64,5.65l.19.05-.19-.05h0l-.21,0a1.26,1.26,0,0,0-.62.17l-.21.13a1.29,1.29,0,0,0-.61-.32l-.71.13C.65,14.91,0,16.62,0,18.66S.65,22.4,1.54,22.9l.71.13a1.29,1.29,0,0,0,.61-.32l.21.13a1.26,1.26,0,0,0,.62.17l.2,0h0c1.38.25,2.9.51,4.17.78v4.62a1.47,1.47,0,0,0,1.47,1.46l13.64,2.43a1.43,1.43,0,0,0,1.42-1.46V27l8.11,1.63-.22-.23.11,0,.2.21h0l.1,0a3.24,3.24,0,0,0,.59.47c.59.11,1.17.25,1.76.36C37.93,29.06,40,24.37,40,18.64S37.93,8.22,35.29,7.73m-3,1.35L32.36,9a3.51,3.51,0,0,1,.33-.35h0l0,0h.05a6.25,6.25,0,0,0-1,1.19,6.42,6.42,0,0,1,.52-.75m-1.37,2.34-.11.27q-.11.28-.21.57a4.36,4.36,0,0,1,.32-.84m-.32.85c.06-.18.13-.35.2-.52-.08.2-.15.41-.22.61l0-.09m-.05.25a15.87,15.87,0,0,1,.65-1.61l0-.05a12.92,12.92,0,0,0-.68,1.76s0-.06,0-.09m-8.08,17.6L10.18,27.89V24.15c4.24.84,8.48,1.71,12.29,2.48Zm10.75-1.42-.37-.07-.09,0h0c.79.15,1.39.24,1.77.29-.31,0-.75-.1-1.31-.2m1.76.24h0Zm-.75-.18.38.07-.85-.13,0,0h.07a3,3,0,0,1-.26-.19l0,0,.25.17,1.38.25Zm1.22,0h0l.07-.11-.07.11m.5-.95a2.17,2.17,0,0,1-.7.42L34,28c-1.49-1-3-4.53-3-9.33h0l-.53,0s.1,0,.1,0h-.1v0H30l-.27,0h0l-1.8,0-16.05-.73v0h0l0-1.94L30.42,13a.23.23,0,0,1,0-.07L31,12.9h.14l.71-.11h0A6.93,6.93,0,0,1,34,9.29l1.25-.23a2.14,2.14,0,0,1,.7.42c1.45,1.23,2.76,4.71,2.76,9.18s-1.3,7.94-2.76,9.18" class="fill-p"/>
</svg>
