<svg xmlns="http://www.w3.org/2000/svg" id="_01" data-name="01" viewBox="0 0 40 40">
    <title>
        paper_03
    </title>
    <path d="M38.89.64H7.06A1.11,1.11,0,0,0,6,1.75V24H1.11A1.11,1.11,0,0,0,0,25.11V35.24a4.13,4.13,0,0,0,3.87,4.12h32A4.12,4.12,0,0,0,40,35.24V1.75A1.11,1.11,0,0,0,38.89.64M6,33l-.06,2.21a1.9,1.9,0,0,1-1.84,1.89,1.9,1.9,0,0,1-1.83-1.89v-9H6Zm31.83,2.21a1.9,1.9,0,0,1-1.89,1.9H7.65a4.07,4.07,0,0,0,.45-1.86L8.18,2.86h29.6ZM14,18.29a1.1,1.1,0,0,0,.85.52H15a1.11,1.11,0,0,0,.83-.37l3.75-4.22a1.11,1.11,0,1,0-1.66-1.47l-2.77,3.11-.59-1a1.11,1.11,0,1,0-1.88,1.17Zm0,9.31a1.11,1.11,0,0,0,.85.52H15a1.12,1.12,0,0,0,.83-.37l3.75-4.23a1.11,1.11,0,1,0-1.66-1.47l-2.77,3.11-.59-1a1.11,1.11,0,1,0-1.88,1.17Zm9.49-11.32H32a1.11,1.11,0,1,0,0-2.22H23.53a1.11,1.11,0,0,0,0,2.22m0,9.88H32a1.11,1.11,0,1,0,0-2.22H23.53a1.11,1.11,0,0,0,0,2.22" class="fill-p"/>
</svg>
