<svg xmlns="http://www.w3.org/2000/svg" id="_01" data-name="01" viewBox="0 0 40 40">
    <defs>
        <style>
            .cls-2{fill:#5a5a5a;}
        </style>
    </defs>
    <title>
        people_07
    </title>
    <path d="M18.51,8.05a.32.32,0,0,1,.61.22L19,8.52a.32.32,0,1,1-.61-.22Zm0,1.46a.32.32,0,0,1,.61.21L19,10a.32.32,0,1,1-.6-.22Zm.74,2-.11.3a.32.32,0,1,1-.61-.22l.11-.3a.32.32,0,1,1,.61.22ZM17.41,9.17a.32.32,0,0,1,.61.22l-.09.25a.32.32,0,0,1-.61-.22Zm0,1.69a.32.32,0,0,1,.41-.19.32.32,0,0,1,.19.41l-.1.29a.32.32,0,0,1-.61-.21Zm-1.18-.51a.32.32,0,0,1,.61.22l-.09.25a.32.32,0,0,1-.61-.22ZM18,19.56A3.08,3.08,0,1,1,21,16.48,3.08,3.08,0,0,1,18,19.56Zm1.68-9.63a.32.32,0,1,1,.6.21l-.1.29a.32.32,0,1,1-.6-.21Zm-.09-1.31.11-.3a.32.32,0,1,1,.61.22l-.11.3a.32.32,0,1,1-.61-.22Zm.87,3.3-.1.29a.32.32,0,1,1-.6-.21l.1-.29a.32.32,0,1,1,.6.21Zm.83-2.62a.32.32,0,1,1-.61-.22l.09-.25a.32.32,0,1,1,.61.22Zm.24,1.31-.09.25a.32.32,0,0,1-.41.19.32.32,0,0,1-.2-.41l.09-.25a.32.32,0,0,1,.61.22Zm.07,1.9a.32.32,0,0,1-.61-.22l.09-.25a.32.32,0,1,1,.61.22ZM22.4,8a6.78,6.78,0,0,1-3.69-1.3.23.23,0,0,1,0-.36l1.54-1.47a.49.49,0,0,1,.46-.1l1.38.49a.49.49,0,0,1,.3.36l.28,2.12A.23.23,0,0,1,22.4,8Zm0-3.81a.28.28,0,0,1,.17.35l-.11.31a.28.28,0,0,1-.35.17l-1.37-.49a.28.28,0,0,1-.17-.35l.11-.31a.27.27,0,0,1,.35-.17Z" class="fill-p"/>
    <path d="M19.73,10.63a.32.32,0,0,0,.41-.19l.1-.29a.32.32,0,1,0-.6-.21l-.1.29A.32.32,0,0,0,19.73,10.63Z" class="fill-p"/>
    <path d="M19.82,11.71l-.1.29a.32.32,0,1,0,.6.21l.1-.29a.32.32,0,1,0-.6-.21Z" class="fill-p"/>
    <path d="M20.15,8.84l.11-.3a.32.32,0,1,0-.61-.22l-.11.3a.32.32,0,1,0,.61.22Z" class="fill-p"/>
    <path d="M21.14,8.65a.32.32,0,0,0-.41.2l-.09.25a.32.32,0,1,0,.61.22l.09-.25A.32.32,0,0,0,21.14,8.65Z" class="fill-p"/>
    <path d="M20.88,10.4l-.09.25a.32.32,0,0,0,.2.41.32.32,0,0,0,.41-.19l.09-.25a.32.32,0,0,0-.61-.22Z" class="fill-p"/>
    <path d="M20.72,3.86l-.11.31a.28.28,0,0,0,.17.35L22.15,5a.28.28,0,0,0,.35-.17l.11-.31a.28.28,0,0,0-.17-.35l-1.38-.49A.27.27,0,0,0,20.72,3.86Z" class="fill-p"/>
    <path d="M22.07,5.24l-1.38-.49a.49.49,0,0,0-.46.1L18.69,6.33a.23.23,0,0,0,0,.36A6.78,6.78,0,0,0,22.4,8a.23.23,0,0,0,.24-.27L22.36,5.6A.49.49,0,0,0,22.07,5.24Z" class="fill-p"/>
    <path d="M21.46,11.86a.32.32,0,0,0-.41.2l-.09.25a.32.32,0,0,0,.61.22l.09-.25A.32.32,0,0,0,21.46,11.86Z" class="fill-p"/>
    <path d="M18.61,11.29l-.11.3a.32.32,0,1,0,.61.22l.11-.3a.32.32,0,1,0-.61-.22Z" class="fill-p"/>
    <path d="M18.62,8.71a.32.32,0,0,0,.41-.2l.09-.25a.32.32,0,0,0-.61-.22l-.09.25A.32.32,0,0,0,18.62,8.71Z" class="fill-p"/>
    <path d="M18.57,10.22A.32.32,0,0,0,19,10l.1-.29a.32.32,0,0,0-.61-.21l-.1.29A.32.32,0,0,0,18.57,10.22Z" class="fill-p"/>
    <circle cx="17.96" cy="16.48" r="3.08" class="fill-p"/>
    <path d="M22.67,25.54v10a1.5,1.5,0,0,0,3,0V25.08a4.48,4.48,0,0,0-4.39-4.56H14.65a4.48,4.48,0,0,0-4.39,4.56V35.59a1.5,1.5,0,0,0,3,0v-10h.58V40H17.6V37.51h.72V40h3.77V25.54Z" class="fill-p"/>
    <path d="M29.33,2.4a2.76,2.76,0,0,0-1.12-1.16,2.19,2.19,0,0,0-1-.26H24.07a2.26,2.26,0,0,0-1.48.57,3,3,0,0,0-.69.89,1.56,1.56,0,0,0-.68.75.25.25,0,0,0,.15.34l.94.33a.25.25,0,0,0,.34-.17,1.76,1.76,0,0,0,0-.86,2.08,2.08,0,0,1,.49-.64,1.42,1.42,0,0,1,.93-.37h3.11a1.34,1.34,0,0,1,.64.16,1.81,1.81,0,0,1,.55.47,2.68,2.68,0,0,1,.54,1.66V40h.84V4.12A3.63,3.63,0,0,0,29.33,2.4Z" class="fill-p"/>
    <path d="M17.51,9.83a.32.32,0,0,0,.41-.19L18,9.38a.32.32,0,0,0-.61-.22l-.09.25A.32.32,0,0,0,17.51,9.83Z" class="fill-p"/>
    <path d="M16.34,11a.32.32,0,0,0,.41-.2l.09-.25a.32.32,0,0,0-.61-.22l-.09.25A.32.32,0,0,0,16.34,11Z" class="fill-p"/>
    <path d="M17.5,11.56a.32.32,0,0,0,.41-.19l.1-.29a.32.32,0,0,0-.19-.41.32.32,0,0,0-.41.19l-.1.29A.32.32,0,0,0,17.5,11.56Z" class="fill-p"/>
</svg>
