<svg xmlns="http://www.w3.org/2000/svg" id="_01" data-name="01" viewBox="0 0 40 40">
    <title>
        Artboard 102
    </title>
    <circle cx="20.36" cy="4.14" r="4.14" class="fill-p"/>
    <path d="M11.86,30.22l6.12.11v8.09c0,.87.94,1.58,2.09,1.58h.18c1.15,0,2.09-.71,2.09-1.58V30.33h3.22s-.91-4.72-1.46-8.71a1.69,1.69,0,0,0,.3-.27l3.39-4.15a1.37,1.37,0,0,0,0-1.92h0a1.07,1.07,0,0,0-.14-.17s-4.19-4.29-5.5-5.2a3.22,3.22,0,0,0-1.37-.42,3.65,3.65,0,0,0-2.21.74A7.6,7.6,0,0,0,15.72,14,5.84,5.84,0,0,0,16,16.92a4.4,4.4,0,0,0-3.13,2.89h0C11.59,22.74,11.86,30.22,11.86,30.22Zm11.87-12c0-.33,0-.63,0-.89,0-.68,0-1.32-.07-1.94L25,16.71Z" class="fill-p"/>
</svg>
