<svg id="_01" data-name="01" xmlns="http://www.w3.org/2000/svg" viewBox="0 0 40 40">
    <title>medical_08</title>
    <path class="fill-p" d="M18.32,18.44h3.36v-.79H18.32Zm0,3h3.36V20.7H18.32Zm0,3h3.36v-.79H18.32Zm11-16.46a31.54,31.54,0,0,1-3.67.62V25.53a4.08,4.08,0,0,1-1.22,2.9,3.38,3.38,0,0,1-2.21,1.08h-.2v2.06a1.62,1.62,0,0,1-1.62,1.62h0V39a.42.42,0,1,1-.84,0V33.18h0A1.62,1.62,0,0,1,18,31.57V29.51h-.2a3.38,3.38,0,0,1-2.21-1.08,4.07,4.07,0,0,1-1.22-2.9V8.69a31.58,31.58,0,0,1-3.67-.62A.84.84,0,0,1,11,6.43a32.68,32.68,0,0,0,4.78.71V2.85a21.92,21.92,0,0,1-2.41-.42A.84.84,0,0,1,13.8.8,28.19,28.19,0,0,0,20,1.4h0a28.08,28.08,0,0,0,6.2-.61h0a.84.84,0,0,1,.39,1.64,21.72,21.72,0,0,1-2.42.42V7.14A32.72,32.72,0,0,0,29,6.43a.84.84,0,0,1,.39,1.64m-5.17.76v5.8l.66.63V8.78l-.66.06M16.67,7.21c1.06.07,2.18.11,3.34.11q1.07,0,2.1,0V3c-.68,0-1.38.06-2.1.06h0c-1.18,0-2.3-.05-3.34-.15Zm0,1.69V14.1H21.2V9H20c-1.15,0-2.27,0-3.34-.1m-1.51-.12v6.48l.66-.63V8.83l-.66-.06"
    />
</svg>