<svg id="_01" data-name="01" xmlns="http://www.w3.org/2000/svg" viewBox="0 0 40 40">
    <title>Artboard 117</title>
    <path class="fill-p" d="M25.06,22.81C23.8,25.13,25,28,27.4,28.33l-.32.18L9.78,38.13a2,2,0,0,1-1.35.29.92.92,0,0,1-.72-.57,3.29,3.29,0,0,1-.16-.44,1.91,1.91,0,0,0-.83-1.12,1.76,1.76,0,0,1-.65-2,2.62,2.62,0,0,1,1.25-1.59L25,22.82Z"
    />
    <path class="fill-p" d="M7.59,25.25c.19-.63.43-1.28.58-1.94A6.5,6.5,0,0,0,7.6,19c-.49-1-1-2-1.57-3a14,14,0,0,1-1.51-3.94,11.8,11.8,0,0,1,.27-5.38A24.07,24.07,0,0,1,7,1.45L7,1.37s0,.08,0,.1a8.69,8.69,0,0,0,.07,7C7.64,9.74,8.27,11,8.86,12.26a15.66,15.66,0,0,1,1.35,4,10.05,10.05,0,0,1-.67,5.5,18.8,18.8,0,0,1-1.91,3.46Z"
    />
    <path class="fill-p" d="M32.66,18.57c-1.26,2.37,0,5.22,2.32,5.55l-.67.37c-1.79,1-3.59,2-5.37,3a2.55,2.55,0,0,1-3.49-.9,3.35,3.35,0,0,1,1.2-4.7c1.94-1,3.83-2.12,5.75-3.18Z"
    />
    <path class="fill-p" d="M32.54,20.61a3.43,3.43,0,0,1,.63-2,2.54,2.54,0,0,1,4.29.11,3.33,3.33,0,0,1-1.14,4.72A2.5,2.5,0,0,1,33.61,23,3.32,3.32,0,0,1,32.54,20.61Z"
    />
    <path class="fill-p" d="M4.73,32.07c-.11-.18-.23-.35-.33-.52a8.87,8.87,0,0,1-1.26-2.91,6.29,6.29,0,0,1,.37-3.76c.34-.83.75-1.65,1.13-2.47a9.39,9.39,0,0,0,.81-2.32A5.24,5.24,0,0,0,5.08,17s0,0,0,0A13.35,13.35,0,0,1,6.7,21.19a6.89,6.89,0,0,1-.63,4.35c-.32.66-.69,1.31-1,2a5.92,5.92,0,0,0-.72,2.12,4.55,4.55,0,0,0,.38,2.24.77.77,0,0,1,.07.16Z"
    />
    <path class="fill-p" d="M5.88,33.47a1.68,1.68,0,0,0-.6,1.63,2,2,0,0,0,1,1.4,2.08,2.08,0,0,1,.89,1.17,6.63,6.63,0,0,0,.45.93.57.57,0,0,0,.67.35A2.28,2.28,0,0,1,6,39.17a3,3,0,0,1-1.73-2.29A3.17,3.17,0,0,1,5.88,33.47Z"
    />
</svg>