<svg id="_01" data-name="01" xmlns="http://www.w3.org/2000/svg" viewBox="0 0 40 40">
    <title>Artboard 118</title>
    <path class="fill-p" d="M10.72,1.22h1a1.24,1.24,0,0,0,.16,0A7.34,7.34,0,0,1,14.27,2a.87.87,0,0,1,.48.92.8.8,0,0,1-.64.76A6.91,6.91,0,0,0,11.3,5,4.22,4.22,0,0,0,9.77,8.66,2.14,2.14,0,0,0,11,8.47a7.71,7.71,0,0,0,2.14-1.36c.58-.51,1.12-1.06,1.67-1.59a.55.55,0,0,1,1,.11,1.27,1.27,0,0,1,.12.74,16,16,0,0,1-1.87,4.93A26.81,26.81,0,0,1,8.53,18a2,2,0,0,1-.18.15l3,1.41s0,0,0,0a10.24,10.24,0,0,1,2.39-2.65.35.35,0,0,0,.1-.24,2.83,2.83,0,0,1,.48-1.59A1.53,1.53,0,0,1,16.93,15a.26.26,0,0,0,.34.11,10.25,10.25,0,0,1,5.44,0,.28.28,0,0,0,.37-.13A1.52,1.52,0,0,1,25.61,15a2.6,2.6,0,0,1,.57,1.69.36.36,0,0,0,.16.32,9.9,9.9,0,0,1,2.25,2.45l.09.12,2.88-1.34L31.41,18a29.34,29.34,0,0,1-4.24-4.67A18,18,0,0,1,24,6.55a1.5,1.5,0,0,1,0-.73.61.61,0,0,1,1.1-.26,22.23,22.23,0,0,0,2,1.8,5.79,5.79,0,0,0,2.24,1.23,6.24,6.24,0,0,0,.81.13,4.23,4.23,0,0,0-.82-2.93,6.2,6.2,0,0,0-3.49-2.15.8.8,0,0,1-.66-.77.86.86,0,0,1,.49-.93,8,8,0,0,1,1.12-.42c.45-.13.91-.2,1.36-.3h1.06l.18,0a14.49,14.49,0,0,1,1.51.38,8.89,8.89,0,0,1,3.68,2.79,19.43,19.43,0,0,1,3.23,5.8,17.42,17.42,0,0,1,1.14,4.6,3,3,0,0,1-.6,2.35.28.28,0,0,0,0,.22,6.07,6.07,0,0,1-.84,4.38,4.75,4.75,0,0,1-.85,1c-.18.16-.35.28-.35.56a1.16,1.16,0,0,1-.17.42,2.5,2.5,0,0,1-1.09,1,9.94,9.94,0,0,1-3,1.06c-.58.12-1.18.19-1.7.27l-.9,2.81s0,0,0,0a8.46,8.46,0,0,1,4.32,6.56.93.93,0,0,1-.18.72.54.54,0,0,1-.92,0,1.57,1.57,0,0,1-.21-.62,6.86,6.86,0,0,0-3.67-5.16l-.22-.1-.48.71.2.13a7.79,7.79,0,0,1,3.43,5.67,1,1,0,0,1-.17.76.54.54,0,0,1-.92,0,1.33,1.33,0,0,1-.2-.51,6.55,6.55,0,0,0-.87-2.5A6.14,6.14,0,0,0,27,32.33l-.55.58.12.08a6.39,6.39,0,0,1,3.21,4.59,1,1,0,0,1-.46,1.16H29a1,1,0,0,1-.47-.68,4.86,4.86,0,0,0-3.21-3.86.32.32,0,0,0-.38.06,12.8,12.8,0,0,1-3,1.81,4.73,4.73,0,0,1-3.78,0,12.29,12.29,0,0,1-3-1.77.43.43,0,0,0-.51-.07A4.91,4.91,0,0,0,11.51,38a1,1,0,0,1-.5.79h-.29a.93.93,0,0,1-.52-1A6.36,6.36,0,0,1,13.34,33l.22-.13s0,0,0,0a4.38,4.38,0,0,1-.36-.39c-.11-.14-.21-.14-.36-.06a6,6,0,0,0-3.06,4c-.09.33-.12.67-.21,1a.63.63,0,0,1-.6.5.62.62,0,0,1-.57-.5,2.27,2.27,0,0,1,0-.78,7.66,7.66,0,0,1,3.5-5.47L12,31l-.49-.67-.2.09a6.78,6.78,0,0,0-3.44,4.3c-.1.39-.15.79-.24,1.18a.65.65,0,0,1-.6.53.61.61,0,0,1-.6-.53,2.27,2.27,0,0,1,0-.78A8.45,8.45,0,0,1,10.5,29l.11-.07-.87-2.81C9,26,8.13,25.89,7.32,25.7a7.79,7.79,0,0,1-2.9-1.28A1.79,1.79,0,0,1,3.61,23a.54.54,0,0,0-.11-.27,10,10,0,0,1-.81-1,6.15,6.15,0,0,1-.81-4.13.18.18,0,0,0-.07-.17A2.15,2.15,0,0,1,1,16.09a5.6,5.6,0,0,1,0-2.08A22,22,0,0,1,2.91,8.32,16.16,16.16,0,0,1,6.3,3.41,7.6,7.6,0,0,1,10,1.34C10.26,1.29,10.49,1.26,10.72,1.22Zm3.65,17.13c-.36.34-.7.64-1,1a8.65,8.65,0,0,0-1.44,2.14,7.11,7.11,0,0,0-.64,5.21,9.93,9.93,0,0,0,2.09,3.77,13.87,13.87,0,0,0,4.82,3.85,6,6,0,0,0,1.49.45,3.47,3.47,0,0,0,2.13-.44,13.61,13.61,0,0,0,6.34-6.18,5.88,5.88,0,0,0,.76-3,8.32,8.32,0,0,0-1-3.75,1,1,0,0,1-.15-.37,1.61,1.61,0,0,0-.47-.9c-.49-.55-1-1.08-1.53-1.62,0,0-.1-.06-.15-.1A1.56,1.56,0,0,1,22.89,18a4.66,4.66,0,0,1-.31-1,.31.31,0,0,0-.27-.29,9.42,9.42,0,0,0-4.57,0,.38.38,0,0,0-.34.37,2.3,2.3,0,0,1-.79,1.54,1.44,1.44,0,0,1-1.95,0A2.37,2.37,0,0,1,14.37,18.35ZM26.09,8.67c.26.5.5,1,.77,1.51a25.2,25.2,0,0,0,5.47,6.61c.5.45,1,.86,1.56,1.28.15.12.24.09.33-.08a9.19,9.19,0,0,1,.59-1.12,2,2,0,0,1,1.64-1h.63c.44,0,.57-.12.56-.57a8.17,8.17,0,0,0-.11-1.12,20.14,20.14,0,0,0-2-5.6,13.32,13.32,0,0,0-3-4A6.15,6.15,0,0,0,29.33,3c-.29,0-.57,0-.87-.06.42.35.83.65,1.19,1a6.24,6.24,0,0,1,1.73,5.54c-.08.6-.31.81-.91.9a3.82,3.82,0,0,1-2-.32A12.33,12.33,0,0,1,26.09,8.67ZM11.5,2.94A5.07,5.07,0,0,0,9,3.45,8.43,8.43,0,0,0,6,6a19.4,19.4,0,0,0-3.58,8.1,9.9,9.9,0,0,0-.11,1.45c0,.22.14.33.36.34H3.2a2.13,2.13,0,0,1,2,1.14c.15.26.27.53.4.79l.18.33c2.06-.84,7.77-7.68,8-9.53A9.14,9.14,0,0,1,11,10.19a3.32,3.32,0,0,1-1.82.12.8.8,0,0,1-.67-.74A5.17,5.17,0,0,1,8.48,9,6.29,6.29,0,0,1,9.54,4.75,6.82,6.82,0,0,1,11.5,2.94ZM29.35,21c.2.57.41,1.1.55,1.64s.22,1.12.33,1.7a10.1,10.1,0,0,0,4.25-1.21c.6-.35.57-.27.34-1a10.79,10.79,0,0,0-1.26-2.31.6.6,0,0,0-.61-.3,2.76,2.76,0,0,0-.4.06A13.15,13.15,0,0,0,29.35,21Zm-18.78,0a15.32,15.32,0,0,0-2.83-1.29A4.74,4.74,0,0,0,7,19.61a.59.59,0,0,0-.57.19A11.44,11.44,0,0,0,5,22.29c-.17.48-.17.51.27.78a9,9,0,0,0,3.07,1.14c.43.08.88.13,1.34.19A9.79,9.79,0,0,1,10.57,21.05Zm25.55.13a4.3,4.3,0,0,0,.9-3.37c-.28,0-.52.08-.77.1a.78.78,0,0,0-.71.55c-.12.32-.27.63-.4.95a.25.25,0,0,0,0,.19C35.46,20.12,35.78,20.63,36.12,21.18ZM3.2,17.81A4,4,0,0,0,4,21.06c.23-.43.45-.87.7-1.28a.48.48,0,0,0,0-.64,8.59,8.59,0,0,1-.52-1A.51.51,0,0,0,4,17.92C3.71,17.86,3.47,17.85,3.2,17.81Zm11.93-1.14c0,.37.22.66.5.66a.59.59,0,0,0,.51-.62.62.62,0,0,0-.49-.7C15.36,16,15.13,16.29,15.13,16.67Zm9.74,0c0-.38-.23-.67-.51-.67s-.5.3-.5.66.23.67.51.66A.59.59,0,0,0,24.87,16.68Z"
    />
</svg>