<svg id="_01" data-name="01" xmlns="http://www.w3.org/2000/svg" viewBox="0 0 40 40">
    <title>Artboard 119</title>
    <path class="fill-p" d="M10.2,3h1.28a1.62,1.62,0,0,0,.19,0,8.84,8.84,0,0,1,4.27,1.49A12.12,12.12,0,0,1,19.8,8.87l.1.16c.57-.8,1.09-1.63,1.71-2.39a9.49,9.49,0,0,1,5.45-3.43c.44-.09.89-.14,1.33-.21h1.29l.16,0a14.78,14.78,0,0,1,1.89.42,10.62,10.62,0,0,1,7,8.37c.09.46.13.92.19,1.38v1.71c0,.07,0,.14,0,.21a12.76,12.76,0,0,1-2.57,6.93,27.14,27.14,0,0,1-4.76,4.76,95.09,95.09,0,0,0-7.76,6.84,24.49,24.49,0,0,0-3.45,4.21c-.15.24-.28.48-.42.73-.15-.25-.27-.49-.41-.71a24.88,24.88,0,0,0-3.14-4.08,85,85,0,0,0-8.47-8,29.85,29.85,0,0,1-3.86-3.68A12.72,12.72,0,0,1,1.1,16C1,15.61,1,15.19.94,14.78V13.26c0-.08,0-.15,0-.23a10.93,10.93,0,0,1,.77-3.38A10.42,10.42,0,0,1,9,3.22C9.39,3.11,9.8,3.07,10.2,3Z"
    />
</svg>