<svg id="_01" data-name="01" xmlns="http://www.w3.org/2000/svg" viewBox="0 0 40 40">
    <title>Artboard 123</title>
    <path class="fill-p" d="M38.92,19V21a1.26,1.26,0,0,0,0,.27,18.77,18.77,0,0,1-.56,3.5,19,19,0,0,1-16,14.11c-.46.06-.92.1-1.39.15h-2c-.57-.06-1.13-.11-1.7-.19A19,19,0,0,1,1.05,22.23C1,21.81,1,21.39.92,21V19c0-.08,0-.16,0-.24a18.23,18.23,0,0,1,.75-4.22A19,19,0,0,1,17.53,1.15c.46-.06.93-.1,1.39-.15h2A.32.32,0,0,0,21,1c.54.06,1.08.09,1.61.16A19,19,0,0,1,38.78,17.77C38.84,18.19,38.87,18.61,38.92,19ZM20,36c.75-.07,1.56-.1,2.36-.23a15.6,15.6,0,0,0,10.15-5.9,15.5,15.5,0,0,0,3.3-12.07,15.26,15.26,0,0,0-4.62-9.22A15.6,15.6,0,0,0,17.92,4.14,15.49,15.49,0,0,0,8.7,8.6,15.89,15.89,0,0,0,6.06,28C9.22,33.31,14,35.79,20,36Z"
    />
    <path class="fill-p" d="M19.74,8a10.17,10.17,0,0,1,4.93,1.06A6.93,6.93,0,0,1,28,12.77,5.27,5.27,0,0,1,27.32,18,19.59,19.59,0,0,1,24.4,21c-.51.45-1,.9-1.52,1.36a3.14,3.14,0,0,0-1,2.32c0,.85-.44,1.23-1.24,1.23H18.85a1.07,1.07,0,0,1-1.14-1.24,14.81,14.81,0,0,1,.24-2A5,5,0,0,1,19.46,20c.87-.83,1.79-1.59,2.68-2.38.35-.31.71-.61,1-.95a2.86,2.86,0,0,0,.16-3.83,3.48,3.48,0,0,0-1.83-1.18,5.2,5.2,0,0,0-2.82,0,4.18,4.18,0,0,0-2.81,2.76c-.29.78-.61,1-1.41.91l-2-.24a1.07,1.07,0,0,1-.89-1.37,7.13,7.13,0,0,1,3.23-4.4,8.46,8.46,0,0,1,3.91-1.25C19.14,8,19.53,8,19.74,8Z"
    />
    <path class="fill-p" d="M20,27.44c.38,0,.77,0,1.16,0a1.07,1.07,0,0,1,1.09,1.14v2.26A1.07,1.07,0,0,1,21.18,32c-.8,0-1.6,0-2.39,0a1.07,1.07,0,0,1-1.07-1.12V28.57a1.07,1.07,0,0,1,1.08-1.13C19.2,27.43,19.6,27.44,20,27.44Z"
    />
</svg>