<svg xmlns="http://www.w3.org/2000/svg" id="Layer_1" data-name="Layer 1" viewBox="0 0 40 40">
    <defs>
        <style>
            .fill-epub-1 { fill: #86b916; }
            .fill-epub-2 { fill: #fff; }
            .fill-op-2 { opacity: 0.2; }
        </style>
    </defs>
    <title>
        ePUB
    </title>
    <path d="M27.89,1H6.72V39H34.28V7.41Z" class="fill-epub-1"/>
    <polygon points="34.3 7.39 27.9 7.39 27.9 1 34.3 7.39" class="fill-op-2"/>
    <path d="M20.53,27.92l-6.28-6.29,6.28-6.28,2.1,2.09-4.19,4.19,2.09,2.1,6.28-6.29L21.34,12a1.14,1.14,0,0,0-1.62,0l-8.85,8.85a1.15,1.15,0,0,0,0,1.62l8.85,8.85a1.14,1.14,0,0,0,1.62,0l8.86-8.85a1.15,1.15,0,0,0,0-1.62l-1.29-1.28Z" class="fill-epub-2"/>
</svg>
