<svg xmlns="http://www.w3.org/2000/svg" id="Layer_1" data-name="Layer 1" viewBox="0 0 40 40">
    <title>
        audio_04
    </title>
    <path d="M27.14,14.83,26.08,17a4.69,4.69,0,0,1,1.64,3.57,4.44,4.44,0,0,1-1.54,3.85l1,1.81a7.6,7.6,0,0,0-.06-11.38ZM31,11,29.7,12.88a10.79,10.79,0,0,1-.12,15.45l1.37,1.82a13.56,13.56,0,0,0,3.92-9.6A13.84,13.84,0,0,0,31,11Zm3.92-3.67-1.48,1.8a16.75,16.75,0,0,1,0,22.85l1.48,1.83a19.85,19.85,0,0,0,0-26.47ZM2,16.34v8.59a2.54,2.54,0,0,0,2.12,2.5h6.4V13.69H4.12C3,13.69,2,15.24,2,16.34ZM20.42,7.43l-8.9,6.14V27.64l8.9,6.2c1.17,0,2.85-.89,2.85-2V9.41C23.27,8.32,21.59,7.43,20.42,7.43Z" class="fill-p fr-evenodd"/>
</svg>
