<svg id="Layer_1" data-name="Layer 1" xmlns="http://www.w3.org/2000/svg" xmlns:xlink="http://www.w3.org/1999/xlink" viewBox="0 0 40 40"><defs><style>.cls-1,.cls-2{fill-rule:evenodd;}.cls-2{fill:#5a5a5a;}.cls-1{fill:url(#linear-gradient);}.cls-3{mask:url(#mask);}</style><linearGradient id="linear-gradient" x1="16.22" y1="13.95" x2="16.22" y2="31.7" gradientUnits="userSpaceOnUse"><stop offset="0" stop-color="#fff"/><stop offset="1"/></linearGradient><mask id="mask" x="7.97" y="13.95" width="16.5" height="17.75" maskUnits="userSpaceOnUse"><path class="cls-1" d="M8,14h16.5V31.7H8Z"/></mask></defs><title>Artboard 21</title><path class="fill-p" d="M35,37H32.46v1.32h-3.8V37H11.27v1.32H7.46V37H5A2.48,2.48,0,0,1,2.5,34.52V10.84A2.48,2.48,0,0,1,5,8.36h8.69a6.91,6.91,0,0,1,1.55-1.45L12,3.72l.88-.88,3.44,3.44a5.74,5.74,0,0,1,2.29-.48A5.63,5.63,0,0,1,21,6.34l3.5-3.5.88.88L22.14,7a6.48,6.48,0,0,1,1.39,1.38H35a2.48,2.48,0,0,1,2.48,2.48V34.52A2.48,2.48,0,0,1,35,37ZM26.17,13.33a1.24,1.24,0,0,0-1.24-1.24H7.54A1.24,1.24,0,0,0,6.3,13.33V32a1.24,1.24,0,0,0,1.24,1.24H24.93A1.24,1.24,0,0,0,26.17,32Zm3.88,19.95H33.7V32H30.05Zm0-2.48H33.7V29.55H30.05Zm0-2.56H33.7V27H30.05Zm0-2.48H33.7V24.5H30.05Zm1.74-13.63A1.86,1.86,0,1,0,33.65,14,1.86,1.86,0,0,0,31.79,12.12Zm0,5a1.86,1.86,0,1,0,1.86,1.86A1.86,1.86,0,0,0,31.79,17.07Z"/><g class="cls-3"><path class="fill-p" d="M8,14h16.5V31.7H8Z"/></g></svg>