<svg xmlns="http://www.w3.org/2000/svg" id="_01" data-name="01" viewBox="0 0 40 40">
    <title>
        photo_01
    </title>
    <path d="M32.09,38.8,2.58,30.93l7.89-29.3L40,9.43Zm4.65-27.5L12.37,4.79,7.56,22.67l24.37,6.5ZM14.91,16.54l1.62,2.75,4.21-3.94,2.14,3.72,5.66-5,1.42,11.52-18.69-5Zm1.21-2.71a2,2,0,1,1,2.44-1.4A2,2,0,0,1,16.11,13.83ZM27.62,4.54l-.56.15L21.93,3.32l7.57-2,1.17,4.35-3-.79ZM3.25,11l1.68,6.24L3.56,22.39,0,9.17l7.67-2-.79,2.95Zm4.66,27.5L6.53,33.43,16.8,36.17Z" class="fill-p"/>
</svg>
