<svg xmlns="http://www.w3.org/2000/svg" id="_01" data-name="01" viewBox="0 0 40 40">
    <defs>
        <style>
            .cls-2{fill:#5a5a5a;fill-rule:evenodd;}
        </style>
    </defs>
    <title>
        signal_01
    </title>
    <path d="M35.18,18.73a17,17,0,0,0-5-11.38,17.6,17.6,0,0,0-11.62-5L18.29,0A20.6,20.6,0,0,1,31.62,5.89,19.86,19.86,0,0,1,37.6,19ZM32,19.23l-2.32-.32A10.87,10.87,0,0,0,26.44,11a11.31,11.31,0,0,0-7.92-3.2l-.42-2.3a14.41,14.41,0,0,1,9.78,4.08A13.59,13.59,0,0,1,32,19.23Zm-5.6-.14-2.06-.57a4.45,4.45,0,0,0-1.68-3.86,4.88,4.88,0,0,0-3.8-1.38L18.07,11a7.9,7.9,0,0,1,6.06,2.24A7.59,7.59,0,0,1,26.41,19.09ZM22,17.83a2.71,2.71,0,0,1-2.74,2.69,2.75,2.75,0,0,1-1.42-.4l-1.18,1.16,8.51,8.26c-.21.25-.43.49-.68.74a12.38,12.38,0,0,1-17.28,0,11.84,11.84,0,0,1,0-17c.22-.21.44-.4.65-.58l8,7.78,1.15-1.13a2.63,2.63,0,0,1-.51-1.56,2.74,2.74,0,0,1,5.47,0Zm-10.44,16c-.1,0,2.78,6.19,2.78,6.19h-12l4.13-9.57S7.79,32.31,11.6,33.85Z" class="fill-p"/>
</svg>
