<svg xmlns="http://www.w3.org/2000/svg" id="_01" data-name="01" viewBox="0 0 40 40">
    <defs>
        <style>
            .cls-2{fill:#5a5a5a;fill-rule:evenodd;}
        </style>
    </defs>
    <title>
        weather_09
    </title>
    <polygon points="31.65 24.98 26.61 22.34 21.2 24.9 21.2 21.29 18.38 21.29 18.38 24.76 13.52 22.35 8.35 24.87 8.35 19.14 5.51 19.14 20 7.29 25.15 11.5 25.15 8.56 29.65 8.56 29.65 15.18 34.48 19.14 31.65 19.14 31.65 24.98" class="fill-p"/>
    <path d="M.2,28.47A.58.58,0,1,1,1,27.6c2.29,2.06,4.39,2.89,6.32,2.83A8.88,8.88,0,0,0,13,27.61a.58.58,0,0,1,.42-.16l.08,0,.07,0a.58.58,0,0,1,.42.15c2.29,2.06,4.39,2.89,6.32,2.83a8.89,8.89,0,0,0,5.73-2.82.73.73,0,0,1,.89,0c2.29,2.06,4.39,2.89,6.32,2.83A8.88,8.88,0,0,0,39,27.61a.59.59,0,0,1,.81.85,10.07,10.07,0,0,1-6.5,3.14A9,9,0,0,1,28,29.89l-1.46-1.15-1.19,1a8.94,8.94,0,0,1-5,1.86A9,9,0,0,1,15,29.89l-1.51-1.18-1.23,1a8.94,8.94,0,0,1-5,1.86C5,31.68,2.63,30.66.2,28.47Zm0-4.09A.59.59,0,1,1,1,23.51c2.29,2.06,4.38,2.89,6.32,2.83A8.88,8.88,0,0,0,13,23.52a.59.59,0,0,1,.42-.16l.08,0,.07,0a.59.59,0,0,1,.42.15c2.29,2.06,4.38,2.89,6.32,2.83a8.89,8.89,0,0,0,5.73-2.82.59.59,0,0,1,.45-.16.6.6,0,0,1,.44.15c2.29,2.06,4.38,2.89,6.32,2.83A8.89,8.89,0,0,0,39,23.52a.59.59,0,1,1,.81.85,10.05,10.05,0,0,1-6.5,3.14A9,9,0,0,1,28,25.81l-1.46-1.15-1.19,1a8.93,8.93,0,0,1-5,1.86A9,9,0,0,1,15,25.81l-1.51-1.18-1.23,1a8.93,8.93,0,0,1-5,1.86C5,27.59,2.63,26.58.19,24.38Z" class="fill-p"/>
    <path d="M.2,36.91A.58.58,0,1,1,1,36c2.29,2.06,4.39,2.89,6.32,2.83A8.88,8.88,0,0,0,13,36.05a.58.58,0,0,1,.42-.16l.08,0,.07,0A.58.58,0,0,1,14,36c2.29,2.06,4.39,2.89,6.32,2.83a8.89,8.89,0,0,0,5.73-2.82A.73.73,0,0,1,27,36c2.29,2.06,4.39,2.89,6.32,2.83A8.88,8.88,0,0,0,39,36.05a.59.59,0,0,1,.81.85A10.07,10.07,0,0,1,33.32,40,9,9,0,0,1,28,38.34l-1.46-1.15-1.19,1a8.94,8.94,0,0,1-5,1.86A9,9,0,0,1,15,38.34l-1.51-1.18-1.23,1a8.94,8.94,0,0,1-5,1.86C5,40.12,2.63,39.1.2,36.91Zm0-4.09A.59.59,0,1,1,1,32C3.27,34,5.36,34.85,7.3,34.79A8.88,8.88,0,0,0,13,32a.59.59,0,0,1,.42-.16l.08,0,.07,0A.59.59,0,0,1,14,32c2.29,2.06,4.38,2.89,6.32,2.83A8.89,8.89,0,0,0,26.07,32,.73.73,0,0,1,27,32c2.29,2.06,4.38,2.89,6.32,2.83A8.89,8.89,0,0,0,39,32a.59.59,0,1,1,.81.85A10.05,10.05,0,0,1,33.31,36,9,9,0,0,1,28,34.25l-1.46-1.15-1.19,1a8.93,8.93,0,0,1-5,1.86A9,9,0,0,1,15,34.25l-1.51-1.18-1.23,1a8.93,8.93,0,0,1-5,1.86C5,36,2.63,35,.19,32.83Z" class="fill-p"/>
</svg>
