<svg xmlns="http://www.w3.org/2000/svg" id="_01" data-name="01" viewBox="0 0 40 40">
    <title>
        hazard_04
    </title>
    <path d="M33.74,32.43a2.5,2.5,0,0,0-3.42.91c0,.06-.05.12-.08.19l-4.59-1.87-4.55,1.85,7.68,3.12a2.5,2.5,0,1,0,4.72.24,2.49,2.49,0,0,0,.24-4.44Z" class="fill-p"/>
    <path d="M30.24,28.64c0,.06,0,.12.08.18a2.5,2.5,0,1,0,4.33-2.5,2.48,2.48,0,0,0-1.16-1,2.48,2.48,0,0,0-.24-1.93,2.5,2.5,0,0,0-4.48,2.16l-9.1,3.7-8.43-3.42a2.5,2.5,0,1,0-4.73-.22,2.46,2.46,0,0,0-1.15,1,2.5,2.5,0,0,0,4.33,2.5c0-.07.06-.14.09-.21l5.34,2.17L9.77,33.25c0-.07-.06-.14-.09-.21a2.5,2.5,0,0,0-4.33,2.5,2.47,2.47,0,0,0,1.15,1,2.5,2.5,0,1,0,4.73-.21Z" class="fill-p"/>
    <path d="M20,0C13.8,0,8.59,4.41,8.59,9.78c0,0,.29,5.45.34,6.42.77.52,2.19,1.42,3.1,2a2.19,2.19,0,0,1,1.09,1.67c.12.55.25,2,.34,2.43.2,1,5.61,2.61,6.53,2.61s6.33-1.58,6.54-2.61c.09-.47.22-1.88.34-2.43A2.21,2.21,0,0,1,28,18.19c.91-.57,2.33-1.47,3.11-2,.05-1,.34-6.42.34-6.42C31.42,4.41,26.2,0,20,0ZM15.86,14.47A2.43,2.43,0,1,1,18.28,12,2.42,2.42,0,0,1,15.86,14.47Zm8.68,0A2.43,2.43,0,1,1,27,12,2.42,2.42,0,0,1,24.54,14.47Z" class="fill-p"/>
</svg>
