<svg xmlns="http://www.w3.org/2000/svg" id="_01" data-name="01" viewBox="0 0 40 40">
    <title>
        bag_01
    </title>
    <path d="M0,11.65V33.33a2.45,2.45,0,0,0,2.45,2.45H3.72V9.2H2.45A2.45,2.45,0,0,0,0,11.65Z" class="fill-p"/>
    <path d="M26.89,7.95a3.64,3.64,0,0,0-3.63-3.63H16.74a3.64,3.64,0,0,0-3.63,3.63V9.2h-7V35.78H33.86V9.2h-7ZM24.47,9.2H15.53V7.95a1.21,1.21,0,0,1,1.21-1.21h6.52a1.21,1.21,0,0,1,1.21,1.21Z" class="fill-p"/>
    <path d="M37.55,9.2H36.28V35.78h1.27A2.45,2.45,0,0,0,40,33.33V11.65A2.45,2.45,0,0,0,37.55,9.2Z" class="fill-p"/>
</svg>
