<svg xmlns="http://www.w3.org/2000/svg" id="_01" data-name="01" viewBox="0 0 40 40">
    <title>
        medical_05
    </title>
    <path d="M27.47,14.58c.1-.47.19-.87.23-1.11A10.07,10.07,0,0,1,31.3,13a12.1,12.1,0,0,1,3.49.39l-.25,1.19h.34a1.25,1.25,0,0,1,.33.07c.14-.69.27-1.29.31-1.49.09-.46-1.89-.84-4.22-.84s-4.12.39-4.22.84c0,.17-.16.75-.3,1.43l.23,0Z" class="fill-p"/>
    <path d="M22.78,33.08H20.51a.85.85,0,0,0-.81.66l-.12.63-.06.34-.07.34-.64,3.26-.13.67-.07.35a.54.54,0,0,0,.55.66h10a2.14,2.14,0,0,0,2-1.66l.22-1.15c-5-1.18-7.33-2.72-8.56-4.11" class="fill-p"/>
    <path d="M35.06,15.81a.6.6,0,0,0-.29-.07H27a.82.82,0,0,0-.37.11.85.85,0,0,0-.41.55L23.16,32c1.1,1.34,3.33,2.86,8.32,4.05L35.31,16.4a.54.54,0,0,0-.25-.59" class="fill-p"/>
    <path d="M16.88,35.05a3.09,3.09,0,0,0-.34,3.26h1.58l.64-3.26Z" class="fill-p"/>
    <path d="M19.24,8.8l-.13-.07c-.67-.35-1.49-.79-1.69-.94s-.21-.24-.26-1c0-.08,0-.19,0-.32a2.33,2.33,0,0,0,.72-.49,1,1,0,0,0,.28-.72c0-.21,0-1,0-1.67s0-1.55,0-1.81C18,.45,15.24,0,12.89,0h-.37C10.1.05,8.11.55,7.45,1.27A1,1,0,0,0,7.17,2h0c0,.24,0,1,0,1.66s0,1.53,0,1.82c0,.45.41.8,1,1.06a1.86,1.86,0,0,0,0,.21c-.05.8-.2,1-.27,1a12.77,12.77,0,0,1-1.22.58l-.55.24a3,3,0,0,0-1.61,2.57V26.67a2.66,2.66,0,0,0,1.72,2.4L11,30.69a5.33,5.33,0,0,0,1.61.23,5.17,5.17,0,0,0,1.51-.2L19,29.17a2.61,2.61,0,0,0,1.74-2.37V11.41A3.18,3.18,0,0,0,19.24,8.8M8.07,1.94h0c.08-.27,1.52-1,4.48-1h.34A16,16,0,0,1,14.5,1c1.76.18,2.65.62,2.71.81h0c-.09.28-1.54,1-4.47,1h-.35c-2.84,0-4.24-.65-4.32-.89M19.89,26.8a1.72,1.72,0,0,1-1.11,1.52l-4.89,1.54a5.1,5.1,0,0,1-2.57,0L6.49,28.22a1.76,1.76,0,0,1-1.11-1.55V22.24l6.31,1.95a3.27,3.27,0,0,0,.83.08l.13,4.79.13-4.81a2.88,2.88,0,0,0,.63-.11l6.47-2ZM13.53,16.08a2.64,2.64,0,0,1-.52.11l.08-3a1.28,1.28,0,0,1,.78-1.08l4.76-1.75-5.25,1.22a4.17,4.17,0,0,1-1.57,0L6.55,10.32l4.89,1.8a1.29,1.29,0,0,1,.78,1.08l.08,3a2.58,2.58,0,0,1-.5-.07L5.38,14.36V11.18A2.12,2.12,0,0,1,6.46,9.43L7,9.19a9.91,9.91,0,0,0,1.4-.68A2.23,2.23,0,0,0,9,6.85a14,14,0,0,0,3.37.37h.36a14,14,0,0,0,3.5-.46s0,0,0,.06a2.3,2.3,0,0,0,.62,1.71c.24.18.88.52,1.81,1l.14.07a2.32,2.32,0,0,1,1.07,1.82v2.53Z" class="fill-p"/>
</svg>
