<svg xmlns="http://www.w3.org/2000/svg" id="_01" data-name="01" viewBox="0 0 40 40">
    <title>
        building_02
    </title>
    <rect width="10.17" height="0.38" x="28.2" y="19.86" class="fill-p"/>
    <rect width="10.17" height="0.38" x="1.46" y="19.86" class="fill-p"/>
    <path d="M28.2,34.55H38.37V21H28.2Zm6.4-1.13H33.1V31.91H34.6Zm0-2.64H33.1V29.27H34.6Zm0-4.52H33.1V24.75H34.6Zm0-2.64H33.1V22.12H34.6Zm2.64,9.79H35.73V31.91h1.51Zm0-2.64H35.73V29.27h1.51Zm0-4.52H35.73V24.75h1.51Zm0-2.64H35.73V22.12h1.51Z" class="fill-p"/>
    <path d="M1.46,34.55h9.42V21H1.46ZM5.23,22.12H6.73v1.51H5.23Zm0,2.64H6.73v1.51H5.23Zm0,4.52H6.73v1.51H5.23Zm0,2.64H6.73v1.51H5.23ZM2.59,22.12H4.1v1.51H2.59Zm0,2.64H4.1v1.51H2.59Zm0,4.52H4.1v1.51H2.59Zm0,2.64H4.1v1.51H2.59Z" class="fill-p"/>
    <path d="M20.29,5.55V3.29h4.09L22.85,2,24.38.65H20c-.23,0-.43.33-.43.55V5.55L14.63,8.88l.26.93,1.46-1L19.91,6.4l4.63,3.07.38.25.26-.93Z" class="fill-p"/>
    <path d="M20.34,13.06l-2.13-1.35c-.47-.29.4-.28.69-.75l-.11.17c.3-.47,1.38-1.35,1.85-1.05l.12.07c.47.3.14,1.65-.15,2.12l.11-.17c-.29.47.09,1.24-.37.95" class="fill-p"/>
    <polygon points="14.77 20.23 25.05 20.23 19.92 16.68 14.77 20.23" class="fill-p"/>
    <polygon points="35.75 13.46 3.5 13.46 0 20.23 13.39 20.23 19.92 15.79 26.43 20.23 40 20.23 35.75 13.46" class="fill-p"/>
    <path d="M20.91,16.47h3.52V10.25l-4.52-3-4.52,3v6.22h3.52l1-.68Zm-3.3-4.9a2.19,2.19,0,1,1,2.19,2.19,2.19,2.19,0,0,1-2.19-2.19" class="fill-p"/>
    <polygon points="30.46 21.69 22.15 16.17 30.46 22.75 30.46 21.69" class="fill-p"/>
    <polygon points="9.37 22.75 8.27 23.55 8.39 23.61 9.37 22.98 9.37 22.75" class="fill-p"/>
    <polygon points="22.31 16.17 19.91 14.28 17.51 16.18 19.91 14.58 22.31 16.17" class="fill-p"/>
    <polygon points="30.46 22.75 30.46 22.98 31.67 23.74 31.7 23.7 30.46 22.75" class="fill-p"/>
    <polygon points="32.11 23.99 31.11 20.85 19.91 14.1 8.7 20.85 7.83 23.9 8.26 23.61 8.27 23.55 9.37 22.98 19.92 15.79 30.46 22.98 31.74 23.7 31.71 23.74 32.11 23.99" class="fill-p"/>
    <rect width="16.39" height="0.82" x="11.72" y="38.53" class="fill-p"/>
    <rect width="14.75" height="0.82" x="12.54" y="36.98" class="fill-p"/>
    <path d="M19.92,16.68,9.37,24V35.68h4.11l.31-.38h3.48V27.77h4.9V35.3H26l.31.38h4.12V24ZM12.76,30.78H11.25V29.27h1.51Zm0-2.64H11.25V26.64h1.51Zm2.64,2.64H13.89V29.27H15.4Zm0-2.64H13.89V26.64H15.4Zm7.53-5.27h-.72v0a2.45,2.45,0,0,1-2.29,2.44v.92h-.38v-.92a2.45,2.45,0,0,1-2.23-2.44s0,0,0,0H16.15v-.38h1.2a2.45,2.45,0,0,1,2.19-2v-1h.38v1a2.45,2.45,0,0,1,2.25,2h.76Zm2.64,7.91H24.06V29.27h1.51Zm0-2.64H24.06V26.64h1.51Zm2.63,2.64H26.69V29.27H28.2Zm0-2.64H26.69V26.64H28.2Z" class="fill-p"/>
    <path d="M19.54,22.49H17.35a2.67,2.67,0,0,0,0,.38h2.23Z" class="fill-p"/>
    <path d="M19.92,22.49v.38h2.29a2.65,2.65,0,0,0,0-.38Z" class="fill-p"/>
    <path d="M19.54,22.87v2.47h.38V22.87Z" class="fill-p"/>
    <polygon points="19.54 20.46 19.54 22.49 19.54 22.87 19.92 22.87 19.92 22.49 19.92 20.46 19.92 19.48 19.54 19.48 19.54 20.46" class="fill-p"/>
    <path d="M19.54,25.34v.92h.38v-.92h-.38" class="fill-p"/>
    <path d="M16.15,22.87h1.16a2.67,2.67,0,0,1,0-.38h-1.2Z" class="fill-p"/>
    <path d="M22.17,22.49a2.65,2.65,0,0,1,0,.38h.72v-.38Z" class="fill-p"/>
</svg>
