<svg data-name="01" height="40px" id="_01" viewbox="0 0 40 40" width="40px" xmlns="http://www.w3.org/2000/svg">
	<defs>
		<style>
		.cls-2{fill:#5a5a5a;}
		</style>
	</defs>
	<title>device_04</title>
	<path class="fill-p" d="M13.69,26.64s2,.45,2,3.46h4.11a3.36,3.36,0,0,1,2.55-3.4c2.74-.78-8.63-.06-8.63-.06"></path>
	<path class="fill-p" d="M21.75,31.31H13.47a.78.78,0,1,1,0-1.57h8.29a.78.78,0,1,1,0,1.57"></path>
	<path class="fill-p" d="M30.84,8.84v4.67h1.93V7a1.69,1.69,0,0,0-1.69-1.69H4.92A1.69,1.69,0,0,0,3.23,7v7.92H5.17v-6A1.45,1.45,0,0,1,6.62,7.38H29.39A1.46,1.46,0,0,1,30.84,8.84Z"></path>
	<rect class="fill-p" height="2.12" width="16.34" x="9.13" y="24.82"></rect>
	<path class="fill-p" d="M9.4,13.69H1a1,1,0,0,0-1,1V31.31a1,1,0,0,0,1,1H9.4a1,1,0,0,0,1-1V14.73A1,1,0,0,0,9.4,13.69ZM3.53,31.16a.36.36,0,1,1,.36-.36A.36.36,0,0,1,3.53,31.16Zm1.79.27a.63.63,0,1,1,.63-.63A.62.62,0,0,1,5.32,31.43Zm1.79-.27a.36.36,0,1,1,.36-.36A.36.36,0,0,1,7.1,31.16Zm2-2.67a.89.89,0,0,1-.89.89H2.18a.89.89,0,0,1-.89-.89V15.76a.89.89,0,0,1,.89-.89H8.25a.89.89,0,0,1,.89.89Z"></path>
	<path class="fill-p" d="M38.75,12.07H25.15a1.26,1.26,0,0,0-1.25,1.25V33.48a1.26,1.26,0,0,0,1.25,1.25H38.75A1.26,1.26,0,0,0,40,33.48V13.33A1.26,1.26,0,0,0,38.75,12.07ZM29.9,33.3a.43.43,0,1,1,.43-.44A.44.44,0,0,1,29.9,33.3Zm2.17.33a.76.76,0,1,1,.76-.76A.76.76,0,0,1,32.07,33.62Zm2.17-.33a.43.43,0,1,1,.43-.44A.43.43,0,0,1,34.25,33.3Zm4.18-3.25a1.08,1.08,0,0,1-1.08,1.08H26.55a1.08,1.08,0,0,1-1.08-1.08V14.59a1.08,1.08,0,0,1,1.08-1.08h10.8a1.08,1.08,0,0,1,1.08,1.08Z"></path>
</svg>