<svg xmlns="http://www.w3.org/2000/svg" id="_01" data-name="01" viewBox="0 0 40 40">
    <title>
        building_03
    </title>
    <path d="M29.73,17.19a.58.58,0,0,0-.47-.58,1.19,1.19,0,0,1-.88-.93,8.15,8.15,0,0,0-3-4.9,8.92,8.92,0,0,0-3.26-1.7V8.66A.66.66,0,0,0,21.71,8V5.74a.66.66,0,0,0-.19-1.29h-.18c0-.54-.73-.79-.83-1.53-.07-.5.18-1.18.18-1.75S20.35,0,20,0s-.7.54-.7,1.17a17.15,17.15,0,0,1,.19,1.75c-.1.74-.79,1-.83,1.53h-.18a.66.66,0,0,0-.19,1.29V8a.66.66,0,0,0-.47.63v.43a9,9,0,0,0-3.25,1.7,8.14,8.14,0,0,0-3,4.9,1.19,1.19,0,0,1-.87.93.59.59,0,0,0-.47.58v.94H29.73ZM20.39,8h-.79V5.77h.79Z" class="fill-p"/>
    <path d="M9.34,21.42v4.72h2.88V22.89a1,1,0,1,1,2.09,0v3.24h2.39V22.89a1,1,0,1,1,2.1,0v3.24H21.2V22.89a1,1,0,1,1,2.1,0v3.24h2.39V22.89a1,1,0,1,1,2.09,0v3.24h2.88V21.42a1,1,0,0,0-.36-1.86H9.7a1,1,0,0,0-.36,1.86" class="fill-p"/>
    <path d="M32.63,38.13v-8.7a1,1,0,0,0-.31-1.88H7.68a1,1,0,0,0-.31,1.88v8.7A1,1,0,0,0,7.68,40H32.32a1,1,0,0,0,.31-1.87m-20.73-.05H10V32.19a.93.93,0,1,1,1.86,0Zm4.51,0H14.56V32.19a.93.93,0,1,1,1.86,0Zm4.51,0H19.07V32.19a.93.93,0,1,1,1.86,0Zm4.51,0H23.58V32.19a.93.93,0,0,1,1.87,0Zm4.51,0H28.1V32.19a.93.93,0,1,1,1.86,0Z" class="fill-p"/>
</svg>
