<svg xmlns="http://www.w3.org/2000/svg" id="_01" data-name="01" viewBox="0 0 40 40">
    <title>
        scale_02
    </title>
    <path d="M24.94,8a.7.7,0,0,0-1,.26L21,13.29a3.16,3.16,0,0,0-1-.19,3.22,3.22,0,1,0,2.26.93l2.95-5.1a.71.71,0,0,0-.27-1M20,18.11a1.79,1.79,0,1,1,1.79-1.79A1.79,1.79,0,0,1,20,18.11M32.16,4.56H29.65a12.49,12.49,0,0,0-19.29,0H7.85a5.57,5.57,0,0,0-5.57,5.57V34.43A5.57,5.57,0,0,0,7.85,40H32.16a5.57,5.57,0,0,0,5.56-5.57V10.13a5.57,5.57,0,0,0-5.56-5.57M20.72,36a.71.71,0,1,1-1.43,0V26.44a.71.71,0,0,1,1.43,0ZM20,22.86A10.36,10.36,0,1,1,30.36,12.5,10.37,10.37,0,0,1,20,22.86" class="fill-p"/>
</svg>
