<svg xmlns="http://www.w3.org/2000/svg" id="_01" data-name="01" viewBox="0 0 40 40">
    <title>
        travel_01
    </title>
    <path d="M12.4,29.42a5.6,5.6,0,0,0-.85,0H11V31h.64a3,3,0,0,0,.93-.09.76.76,0,0,0,.5-.74.75.75,0,0,0-.19-.52A.81.81,0,0,0,12.4,29.42Z" class="fill-p"/>
    <polygon points="16.13 31.91 17.73 31.91 16.92 29.75 16.13 31.91" class="fill-p"/>
    <path d="M33.79,0H6.21a3,3,0,0,0-3,3V37a3,3,0,0,0,3,3H33.79a3,3,0,0,0,3-3V3A3,3,0,0,0,33.79,0ZM20.59,4.54l.38,0A1.91,1.91,0,0,1,22,5a6.76,6.76,0,0,1,1.54,2,11.11,11.11,0,0,1,.59,1.28,31.22,31.22,0,0,1-3.54.26Zm4,14a32.37,32.37,0,0,0-4-.32V15h4.54A17.17,17.17,0,0,1,24.61,18.55Zm-4,1.11a31.11,31.11,0,0,1,3.59.27,11.33,11.33,0,0,1-.64,1.4,6.75,6.75,0,0,1-1.54,2,1.91,1.91,0,0,1-1,.44l-.37,0Zm4,2.23a12.49,12.49,0,0,0,.79-1.78c.62.11,1.25.25,1.87.4h0c-.14.16-.28.31-.42.45a9.58,9.58,0,0,1-2.93,2A9.4,9.4,0,0,0,24.57,21.89Zm5-6.89a9.61,9.61,0,0,1-1.44,4.28l-.16,0c-.71-.19-1.46-.36-2.23-.5A18.38,18.38,0,0,0,26.3,15Zm-9-5a32.41,32.41,0,0,0,4-.31,17,17,0,0,1,.55,3.67H20.59Zm5.15-.5c.75-.14,1.48-.3,2.18-.49l.16,0a9.59,9.59,0,0,1,1.51,4.39H26.3A18.28,18.28,0,0,0,25.74,9.45Zm1.39-1.76c-.6.15-1.21.28-1.82.39a12.12,12.12,0,0,0-.74-1.66,9.41,9.41,0,0,0-.69-1.09,9.56,9.56,0,0,1,2.93,2l.32.34ZM18,5a1.9,1.9,0,0,1,1-.44l.38,0v4a31,31,0,0,1-3.54-.26A11.15,11.15,0,0,1,16.46,7,6.82,6.82,0,0,1,18,5ZM14.23,18.74c-.77.14-1.51.31-2.23.5l-.16,0A9.59,9.59,0,0,1,10.41,15H13.7A18.39,18.39,0,0,0,14.23,18.74Zm-1.45,1.78c.62-.16,1.24-.29,1.87-.4a12.49,12.49,0,0,0,.78,1.78A9.5,9.5,0,0,0,16.12,23a9.56,9.56,0,0,1-2.93-2c-.14-.14-.28-.29-.42-.45Zm3-.59a30.85,30.85,0,0,1,3.59-.27v4.11c-.3,0-.6,0-.9-.1A4.1,4.1,0,0,1,18,23.3a6.73,6.73,0,0,1-1.54-2A11.09,11.09,0,0,1,15.83,19.93Zm3.59-1.7a32.34,32.34,0,0,0-4,.32A17.09,17.09,0,0,1,14.87,15h4.54Zm-4-8.59a32.4,32.4,0,0,0,4,.31v3.36H14.87A17.06,17.06,0,0,1,15.42,9.64Zm.69-4.3a10.06,10.06,0,0,0-.68,1.09,12.49,12.49,0,0,0-.74,1.66c-.61-.11-1.22-.24-1.82-.39h0l.33-.34A9.58,9.58,0,0,1,16.12,5.34ZM12.08,9c.71.19,1.44.35,2.18.49a18.29,18.29,0,0,0-.56,3.86H10.41a9.59,9.59,0,0,1,1.51-4.39Zm1.5,22.7a1.7,1.7,0,0,1-.61.28,6.72,6.72,0,0,1-1.22.08H11v2.2H9.81V28.39H11.7a6.87,6.87,0,0,1,1.4.09,1.53,1.53,0,0,1,.84.57,1.81,1.81,0,0,1,.34,1.13,1.9,1.9,0,0,1-.19.9A1.59,1.59,0,0,1,13.58,31.66Zm5,2.56L18.1,32.9H15.77l-.48,1.32H14l2.27-5.83h1.24l2.33,5.83Zm6.07-.76a1.67,1.67,0,0,1-.79.65,3.3,3.3,0,0,1-1.27.21,2.52,2.52,0,0,1-1.7-.51,2.22,2.22,0,0,1-.71-1.49l1.15-.11a1.39,1.39,0,0,0,.42.85,1.27,1.27,0,0,0,.85.27,1.31,1.31,0,0,0,.86-.24.72.72,0,0,0,.29-.56.54.54,0,0,0-.12-.35,1,1,0,0,0-.42-.25q-.21-.07-.94-.25A3.18,3.18,0,0,1,21,31.09a1.51,1.51,0,0,1-.54-1.17,1.49,1.49,0,0,1,.25-.83,1.57,1.57,0,0,1,.73-.59,2.91,2.91,0,0,1,1.15-.2,2.46,2.46,0,0,1,1.65.48,1.7,1.7,0,0,1,.58,1.28l-1.18.05a1,1,0,0,0-.32-.65,1.19,1.19,0,0,0-.75-.2,1.34,1.34,0,0,0-.8.21.42.42,0,0,0-.19.36.45.45,0,0,0,.17.35,3.09,3.09,0,0,0,1.08.39,5.71,5.71,0,0,1,1.27.42,1.64,1.64,0,0,1,.64.59,1.84,1.84,0,0,1,0,1.87Zm5.43,0a1.67,1.67,0,0,1-.79.65,3.29,3.29,0,0,1-1.27.21,2.53,2.53,0,0,1-1.7-.51,2.22,2.22,0,0,1-.71-1.49l1.14-.11a1.4,1.4,0,0,0,.42.85,1.27,1.27,0,0,0,.85.27,1.31,1.31,0,0,0,.86-.24.71.71,0,0,0,.29-.56.54.54,0,0,0-.12-.35,1,1,0,0,0-.42-.25q-.21-.07-.94-.25a3.19,3.19,0,0,1-1.33-.58,1.52,1.52,0,0,1-.54-1.17,1.49,1.49,0,0,1,.25-.83,1.58,1.58,0,0,1,.73-.59,2.91,2.91,0,0,1,1.15-.2,2.46,2.46,0,0,1,1.65.48,1.69,1.69,0,0,1,.58,1.28L29,30.11a1,1,0,0,0-.32-.65,1.19,1.19,0,0,0-.75-.2,1.35,1.35,0,0,0-.8.21.42.42,0,0,0-.19.36.45.45,0,0,0,.18.35,3.09,3.09,0,0,0,1.08.39,5.7,5.7,0,0,1,1.27.42,1.64,1.64,0,0,1,.64.59,1.74,1.74,0,0,1,.23.93A1.71,1.71,0,0,1,30.11,33.46Z" class="fill-p"/>
</svg>
