<svg data-name="01" height="40px" id="_01" viewbox="0 0 40 40" width="40px" xmlns="http://www.w3.org/2000/svg">
	<defs>
		<style>
		.cls-2{fill:#5a5a5a;}
		</style>
	</defs>
	<title>people_08</title>
	<circle class="fill-p" cx="19.25" cy="7.18" r="4.61"></circle>
	<circle class="fill-p" cx="23.26" cy="21.07" r="2.26" transform="translate(-8.03 18.72) rotate(-37.88)"></circle>
	<ellipse class="fill-p" cx="23.86" cy="25.68" rx="2.45" ry="1.87" transform="translate(-0.36 0.34) rotate(-0.8)"></ellipse>
	<path class="fill-p" d="M31,40,27.12,25.86c1-.11,1.79-.73,1.77-1.45l-.32-9.91A1.2,1.2,0,0,0,28,13.6a1.36,1.36,0,0,0-1-.42H13.55c-.94-.15-1.78.18-2,.81L9.22,22.31a2.72,2.72,0,0,0-.26,1,.72.72,0,0,0,0,.12,1.24,1.24,0,0,0,.55,1.17L13,26.48,9.25,40ZM19.51,20.29c3-2.3,6.3-2.94,7.48-1.43s-.27,4.6-3.22,6.9a11.44,11.44,0,0,1-3.65,2c.37-.89.24-1.81-.34-2.13l-3.3-1.81A11.06,11.06,0,0,1,19.51,20.29Zm-4.74-2.73h.5v.79l-1.15,4.13-.65-.36Z"></path>
</svg>