<svg xmlns="http://www.w3.org/2000/svg" id="_01" data-name="01" viewBox="0 0 40 40">
    <title>
        building_04
    </title>
    <path d="M32.56,1.06h-.69a7.45,7.45,0,0,0-7.45,7.44v6.14l.72.4a2.14,2.14,0,0,1,.81.81l5,8.92a2.13,2.13,0,0,1-3,2.82v11.5H40V8.51A7.45,7.45,0,0,0,32.56,1.06ZM9.4,38.59l4.81-4.43L9.4,29.72ZM15,12.76l8.46,4.76,4.93,8.71a.85.85,0,0,0,1.48-.84h0l-5.05-8.92a.85.85,0,0,0-.33-.32L15.43,11a.85.85,0,0,0-.84,0L5.52,16.16a.85.85,0,0,0-.32.32L.11,25.4a.85.85,0,1,0,1.48.84l5-8.71Zm4.5,16.5h-9L15,33.43ZM15,14.13,7.62,18.29,3.31,25.9V39.1h5V28.2H21.66V39.1h5V25.9l-4.29-7.61Zm-4.59,25h9.14L15,34.88Zm10.17-.5V29.72l-4.82,4.44Z" class="fill-p"/>
</svg>
