<svg id="_01" data-name="01" xmlns="http://www.w3.org/2000/svg" viewBox="0 0 40 40">
    <title>Artboard 120</title>
    <path class="fill-p" d="M9.26,21.3v-12a1.55,1.55,0,0,0,0-.21,7.76,7.76,0,0,1,1.13-3.36A9.75,9.75,0,0,1,17,1.31c.53-.12,1.07-.17,1.61-.25H21.8l.23.05a10.47,10.47,0,0,1,4.46,1.34,8.8,8.8,0,0,1,4.4,5.62c.1.4.15.81.22,1.21v12a.79.79,0,0,0,0,.2,7.46,7.46,0,0,1-.72,2.59A9.55,9.55,0,0,1,24,29.18a.39.39,0,0,1-.11,0v-2.3H16.49V29.2l-.21-.05a10.23,10.23,0,0,1-2.49-1,8.84,8.84,0,0,1-4.31-5.59C9.38,22.13,9.33,21.71,9.26,21.3Zm11-14.07H13.56c-.51,0-.66.16-.66.67V18.65c0,.52.15.67.66.67H26.81c.51,0,.66-.15.66-.67V7.92c0-.54-.14-.69-.68-.69ZM27.47,22.9a1.73,1.73,0,0,0-.57-1.33,2.22,2.22,0,0,0-2.82-.06,1.65,1.65,0,0,0,0,2.61,2.2,2.2,0,0,0,2.8,0A1.63,1.63,0,0,0,27.47,22.9ZM15,21a2.1,2.1,0,0,0-1.31.4,1.66,1.66,0,0,0-.05,2.73,2.22,2.22,0,0,0,2.73-.06,1.65,1.65,0,0,0,0-2.58A2.12,2.12,0,0,0,15,21Z"
    />
    <path class="fill-p" d="M17.71,39.06c0-.33,0-.66,0-1V28h4.93v11.1Z" />
    <path class="fill-p" d="M25.57,17a.86.86,0,0,1-.87.38c-.72,0-1.45,0-2.18,0a.89.89,0,0,1-.81-.38.89.89,0,0,1,.78-.37c.76,0,1.52,0,2.27,0C25.23,16.61,25.23,16.61,25.57,17Z"
    />
    <path class="fill-p" d="M18.92,17a.85.85,0,0,1-.86.37c-.72,0-1.44,0-2.16,0a.87.87,0,0,1-.83-.38.88.88,0,0,1,.77-.37q1.13,0,2.25,0A.87.87,0,0,1,18.92,17Z"
    />
    <path class="fill-p" d="M19.09,16.82a.74.74,0,0,1-.41-.79c0-.61,0-1.23,0-1.85,0-.47,0-.47.4-.77a.72.72,0,0,1,.43.75c0,.61,0,1.23,0,1.85A.72.72,0,0,1,19.09,16.82Z"
    />
    <path class="fill-p" d="M25.73,13.42a.71.71,0,0,1,.42.8,16.14,16.14,0,0,0,0,1.84.74.74,0,0,1-.41.77.75.75,0,0,1-.42-.78c0-.63,0-1.25,0-1.87C25.33,13.71,25.33,13.71,25.73,13.42Z"
    />
    <path class="fill-p" d="M14.9,13.11a.74.74,0,0,1-.41-.81c0-.6,0-1.21,0-1.82a.7.7,0,0,1,.42-.77.7.7,0,0,1,.41.69,17.57,17.57,0,0,0,0,1.92A.73.73,0,0,1,14.9,13.11Z"
    />
    <path class="fill-p" d="M21.55,9.71a.7.7,0,0,1,.41.75,17,17,0,0,0,0,1.89.74.74,0,0,1-.41.77.72.72,0,0,1-.42-.75,17.2,17.2,0,0,0,0-1.9A.71.71,0,0,1,21.55,9.71Z"
    />
    <path class="fill-p" d="M21.55,13.42a.7.7,0,0,1,.41.75,17,17,0,0,0,0,1.89.74.74,0,0,1-.41.77.73.73,0,0,1-.42-.76,17,17,0,0,0,0-1.89A.72.72,0,0,1,21.55,13.42Z"
    />
    <path class="fill-p" d="M15.07,9.56a.86.86,0,0,1,.83-.38c.72,0,1.44,0,2.16,0,.5,0,.5,0,.88.36a.87.87,0,0,1-.68.37c-.81,0-1.62,0-2.44,0A.87.87,0,0,1,15.07,9.56Z"
    />
    <path class="fill-p" d="M25.58,9.54a.86.86,0,0,1-.83.38c-.75,0-1.5,0-2.25,0-.46,0-.46,0-.79-.35a.87.87,0,0,1,.78-.38c.74,0,1.48,0,2.23,0C25.21,9.19,25.21,9.19,25.58,9.54Z"
    />
    <path class="fill-p" d="M15.06,13.27a.91.91,0,0,1,.84-.38c.72,0,1.44,0,2.16,0a.85.85,0,0,1,.86.37.82.82,0,0,1-.73.36c-.76,0-1.52,0-2.28,0C15.42,13.62,15.42,13.62,15.06,13.27Z"
    />
    <path class="fill-p" d="M21.71,13.26a.93.93,0,0,1,.81-.37c.73,0,1.46,0,2.18,0,.5,0,.5,0,.88.36a.83.83,0,0,1-.72.37c-.8,0-1.59,0-2.39,0C22,13.62,22,13.62,21.71,13.26Z"
    />
    <path class="fill-p" d="M20,17.34a.37.37,0,1,1,0-.74.42.42,0,0,1,.41.38A.41.41,0,0,1,20,17.34Z" />
</svg>