<svg id="_01" data-name="01" xmlns="http://www.w3.org/2000/svg" viewBox="0 0 40 40">
    <title>Artboard 121</title>
    <path class="fill-p" d="M11.62,38.88h-.23a.55.55,0,0,1-.27-.4c-.15-.73-.32-1.45-.47-2.18a.17.17,0,0,0-.2-.16l-2.69.08H7.53a.32.32,0,0,1-.23-.52.76.76,0,0,1,.11-.14c3.3-4,6.5-8,9.55-12.12a.19.19,0,0,0,0-.27c-.69-1.08-1.38-2.16-2-3.26a37.26,37.26,0,0,1-2.8-5.53,12.29,12.29,0,0,1-.8-6.59,7.78,7.78,0,0,1,2-4.19A8.93,8.93,0,0,1,18.94,1l1-.1h1.21l.19,0a10.31,10.31,0,0,1,2.53.43,7.34,7.34,0,0,1,5.23,5.31,11.76,11.76,0,0,1,0,5.92,18.71,18.71,0,0,1-1.56,4,62.9,62.9,0,0,1-3.9,6.63.21.21,0,0,0,0,.29c2.83,3.83,5.8,7.55,8.87,11.2l.93,1.15v.07a.47.47,0,0,1-.53.29l-2.72-.08c-.12,0-.17,0-.19.15-.16.73-.33,1.46-.48,2.19a.52.52,0,0,1-.27.4H29a2.61,2.61,0,0,1-.3-.27q-4.35-5.11-8.34-10.53A.74.74,0,0,0,20.3,28l-.1.13q-4,5.4-8.28,10.49C11.83,38.69,11.72,38.78,11.62,38.88Zm8.65-20.16.06-.08c.9-1.36,1.77-2.75,2.56-4.17a17.06,17.06,0,0,0,1.9-4.79A8.31,8.31,0,0,0,25,6.62,3,3,0,0,0,22.71,4a5.71,5.71,0,0,0-1.58-.24A9.41,9.41,0,0,0,18.38,4,3.12,3.12,0,0,0,16,6.48a6.21,6.21,0,0,0-.13,1.66,14,14,0,0,0,.93,4.29A35.48,35.48,0,0,0,20.27,18.72Z"
    />
</svg>