<svg id="_01" data-name="01" xmlns="http://www.w3.org/2000/svg" viewBox="0 0 40 40">
    <title>Artboard 122</title>
    <path class="fill-p" d="M14.92,39.17,13.61,39a6,6,0,0,1-3.46-1.78c-.26-.26-.52-.53-.76-.81a2.92,2.92,0,0,0-1.28-.85c-.18-.06-.35-.13-.53-.18a6.47,6.47,0,0,1-4.44-4.68,9.48,9.48,0,0,1-.34-3,3.74,3.74,0,0,0-.65-2.24A7.24,7.24,0,0,1,1,21.61a11.89,11.89,0,0,1,.56-4.74,10.37,10.37,0,0,1,.83-1.71A5.53,5.53,0,0,0,3,13.53a10.37,10.37,0,0,1,1.75-4A7.53,7.53,0,0,1,8.31,6.9,2.67,2.67,0,0,0,9.67,5.81l.45-.72a6.5,6.5,0,0,1,4.73-3,6.33,6.33,0,0,1,2.6.09,2.05,2.05,0,0,1,1.14.67.74.74,0,0,1,.17.42c.09,4.57.16,9.13.24,13.69q.18,9.53.38,19.05a5.54,5.54,0,0,1-.06,1A2.13,2.13,0,0,1,18,38.71a11,11,0,0,1-1.52.41l-.23.05Zm-13.11-20a.35.35,0,0,0,0,.13c0,.76-.07,1.52-.05,2.28a6.49,6.49,0,0,0,1,3.5,3.9,3.9,0,0,1,.76,2.37.44.44,0,0,0,.14.28,9.15,9.15,0,0,0,1,.67,2.72,2.72,0,0,0,2.45.21c.42-.16.81-.38,1.22-.56a13,13,0,0,1,1.21-.53,1.75,1.75,0,0,1,1.65.25.36.36,0,1,1-.39.61c-.62-.43-1.17-.15-1.74.12a2.35,2.35,0,0,1,.11.24,4.09,4.09,0,0,1,0,3.32,1.6,1.6,0,0,1-1.14,1l-.59.14a1.59,1.59,0,0,0-1.07.91,4.38,4.38,0,0,0,.57.29c.4.16.81.3,1.22.43A3.94,3.94,0,0,1,10,36a7.28,7.28,0,0,0,.54.58,5.37,5.37,0,0,0,3.23,1.71,10.61,10.61,0,0,0,2.58.11c.21,0,.35-.08.4-.29s.19-.54.24-.81a1.78,1.78,0,0,0-.86-2.09.56.56,0,0,0-.79,0l-.5.38a1.48,1.48,0,0,1-2.2-.42,2.77,2.77,0,0,1-.34-1c-.07-.86-.08-1.73-.1-2.59A2.56,2.56,0,0,1,14.08,29a5.07,5.07,0,0,1,.95-.14,2.23,2.23,0,0,0,1.89-1.15,1.42,1.42,0,0,0-1.08-2.14,2.77,2.77,0,0,0-.91,0c-.61.17-1.2.39-1.79.6a1.64,1.64,0,0,1-2.18-.6l-.07-.1a1.84,1.84,0,0,0-2.14-.67c-.33.1-.66.21-1,.28a1,1,0,0,1-1.27-.74,5.12,5.12,0,0,1-.14-.68l0-.26c-1.05.41-1.49.23-2-.74-.1-.21-.21-.41-.33-.61a.48.48,0,0,0-.61-.29.36.36,0,1,1-.17-.7,1.05,1.05,0,0,1,1.15.28,5.52,5.52,0,0,1,.5.73c.12.2.22.42.36.62a.47.47,0,0,0,.28.2,1.25,1.25,0,0,0,1-.67A8.89,8.89,0,0,1,7,21.08a1.73,1.73,0,0,1,2.31-.83.65.65,0,0,0,.39,0,1.82,1.82,0,0,0,.93-2.11,2.41,2.41,0,0,1,.14-2.2,1.15,1.15,0,0,1,1.36-.6,2,2,0,0,1,1.09.67c.23.25.44.53.67.78a.8.8,0,0,0,1.08.23c.25-.11.5-.24.75-.37a1.47,1.47,0,0,0,.91-1.51,2.64,2.64,0,0,1,1.36-2.46.37.37,0,0,0,.21-.38c0-2.88-.1-5.75-.12-8.63a.58.58,0,0,0-.37-.6,3.48,3.48,0,0,0-1.42-.3,6,6,0,0,0-5.64,3c-.07.13-.15.25-.23.37A3.49,3.49,0,0,1,8.53,7.6a6.87,6.87,0,0,0-3.59,3,10,10,0,0,0-1.13,2.93A7.11,7.11,0,0,1,3,15.67a12.56,12.56,0,0,0-.81,1.79,6.33,6.33,0,0,0-.25,1,10.59,10.59,0,0,0,1.12,0,1.06,1.06,0,0,0,1-.91c0-.11,0-.22.06-.33a13.48,13.48,0,0,1,.33-1.68c.22-.75.77-.92,1.47-.56a4.08,4.08,0,0,0,1,.37,1.24,1.24,0,0,0,1.51-1,.93.93,0,0,0-.1-.64,3.45,3.45,0,0,1,.38-4.24,2.12,2.12,0,0,1,1-.72,3.81,3.81,0,0,1,3.41.37l.95.62a2,2,0,0,0,1.36.29,1.05,1.05,0,0,0,1-.84,4.93,4.93,0,0,0,0-.94.66.66,0,0,0-.6-.6c-.24,0-.48-.06-.72-.08a4.83,4.83,0,0,1-1.59-.31,1,1,0,0,1-.6-1.33,3.85,3.85,0,0,1,.43-.83,9,9,0,0,1,1.65-1.67c.24-.19.46-.2.62,0s.09.37-.14.59c-.5.47-1,.94-1.45,1.44a2.87,2.87,0,0,0-.41.73.29.29,0,0,0,.19.42,2.38,2.38,0,0,0,.58.16c.47.07.94.1,1.41.15a1.43,1.43,0,0,1,1.37,1.29,3.71,3.71,0,0,1,.06.67,1.74,1.74,0,0,1-1.47,1.85,2.78,2.78,0,0,1-1.43-.06c-.07,0-.18,0-.22,0a4.15,4.15,0,0,0-1.33,1.52,1,1,0,0,0,0,.84c.14.25.09.45-.11.56a.4.4,0,0,1-.55-.23,1.45,1.45,0,0,1,0-1.49,8.64,8.64,0,0,1,.84-1.17,3.85,3.85,0,0,1,.5-.48c-.38-.24-.73-.49-1.11-.68a2.74,2.74,0,0,0-2.61.05,2.7,2.7,0,0,0-.78,3.7,1.69,1.69,0,0,1,.24.57A2,2,0,0,1,7.64,16a3,3,0,0,1-2-.35c-.45-.23-.5-.22-.61.29s-.17,1-.25,1.54a1.81,1.81,0,0,1-1.7,1.65A10.36,10.36,0,0,1,1.81,19.16Zm13.43-1.47-.11,0a1.55,1.55,0,0,1-1.85-.44c-.21-.23-.38-.49-.6-.7A2.29,2.29,0,0,0,12,16.1c-.33-.16-.54-.07-.71.27a1.93,1.93,0,0,0,0,1.58,2.05,2.05,0,0,1,.13.88,2.71,2.71,0,0,1-.84,1.67,1.44,1.44,0,0,1-1.7.39.85.85,0,0,0-1.07.26,3.37,3.37,0,0,0-.62,3c.08.28.19.34.49.26s.64-.19,1-.28a2.56,2.56,0,0,1,2.76.87c.12.14.22.28.34.41a.68.68,0,0,0,.75.25c.29-.09.59-.2.88-.32a5.51,5.51,0,0,1,2.18-.5A2.18,2.18,0,0,1,17.7,26.2a2.24,2.24,0,0,1-.58,2.51,3.1,3.1,0,0,1-2.21.92,2,2,0,0,0-1.23.41l-.11.14h.37a1.62,1.62,0,0,1,1.56,1.51c0,.3-.27.51-.51.37a.57.57,0,0,1-.23-.35.88.88,0,0,0-.79-.79,1.69,1.69,0,0,0-.55,0C13,31,13,31,13,31.43c0,.82,0,1.65.06,2.47a2.82,2.82,0,0,0,.23.85.74.74,0,0,0,1.17.25,5.41,5.41,0,0,1,.61-.46,1.17,1.17,0,0,1,1.22-.09,2.52,2.52,0,0,1,1.54,2.2,6.48,6.48,0,0,1-.16,1.16,2,2,0,0,1-.06.27,1.68,1.68,0,0,0,1-1.71q-.15-7.65-.29-15.3c-.05-2.46-.11-4.92-.16-7.38,0-.08,0-.16,0-.26a2,2,0,0,0-.84,1.66c0,.23,0,.47,0,.7a1.93,1.93,0,0,1-1,1.33l-.4.25a3.67,3.67,0,0,1,.65,1.91,2.16,2.16,0,0,1-2.05,2.52c-.34,0-.69.08-1,.15a.6.6,0,0,0-.55.66,4.93,4.93,0,0,0,.07.66.39.39,0,0,1-.31.49.38.38,0,0,1-.43-.36,4.48,4.48,0,0,1-.08-.64,1.36,1.36,0,0,1,1.2-1.54c.43-.08.86-.12,1.29-.19a1.15,1.15,0,0,0,1-.75A2.77,2.77,0,0,0,15.24,17.69ZM5.79,33.6a2.34,2.34,0,0,1,1.43-1.13,5.07,5.07,0,0,1,.56-.13,1,1,0,0,0,.74-.62,3.52,3.52,0,0,0,.23-1.67,3.06,3.06,0,0,0-.39-1.22,4,4,0,0,1-4.78-.24A6.77,6.77,0,0,0,5.79,33.6Z"
    />
    <path class="fill-p" d="M24,1.92c.44.08.89.13,1.32.24A6.42,6.42,0,0,1,29.07,4.7c.23.34.47.68.73,1a1.91,1.91,0,0,0,1,.67,8.26,8.26,0,0,1,5.54,5.71,6.65,6.65,0,0,1,.23.76,4.44,4.44,0,0,0,.75,1.62A9.11,9.11,0,0,1,38.88,19a13,13,0,0,1,0,3.41A6.07,6.07,0,0,1,38,24.7,3.76,3.76,0,0,0,37.44,27a9.84,9.84,0,0,1-.24,3.2A7.12,7.12,0,0,1,34.8,34a5.32,5.32,0,0,1-1.8.93,3.9,3.9,0,0,0-2,1.39,6.15,6.15,0,0,1-3,2.24,8.76,8.76,0,0,1-4.76.32,2.43,2.43,0,0,1-2-2.53c0-.41,0-.81,0-1.21q-.21-7.74-.41-15.48-.16-6.67-.34-13.35c0-.93-.07-1.86-.13-2.79a.88.88,0,0,1,.29-.73A3,3,0,0,1,22.27,2l.59-.1Zm13.9,15.79a2.45,2.45,0,0,1-.06-.28,7.61,7.61,0,0,0-1.2-2.6,5.08,5.08,0,0,1-.81-1.73,11.65,11.65,0,0,0-.47-1.41,7.36,7.36,0,0,0-4.8-4.61A3,3,0,0,1,29,6c-.19-.27-.36-.55-.57-.8a8.8,8.8,0,0,0-1-1.11,6.13,6.13,0,0,0-4.93-1.32,4.77,4.77,0,0,0-1.19.4c-.18.06-.24.21-.23.42.05.62.07,1.24.09,1.85.07,2.31.13,4.62.2,6.93,0,.13,0,.22.15.29a2.78,2.78,0,0,1,1.56,2.64,1,1,0,0,0,.52,1,13.45,13.45,0,0,0,1.38.66.67.67,0,0,0,.79-.21c.18-.21.33-.44.51-.64a5.84,5.84,0,0,1,.84-.81,1.32,1.32,0,0,1,1.74.15,2.36,2.36,0,0,1,.58,2.53A.86.86,0,0,0,29.76,19a1.45,1.45,0,0,0,1,.32c.53,0,1.06,0,1.59,0a1.29,1.29,0,0,1,1.33,1.42c0,.37,0,.74,0,1.1a.46.46,0,0,0,.17.31c.62.41.82.35,1.14-.32a6.22,6.22,0,0,1,.46-.89,1.07,1.07,0,0,1,1.17-.49c.28.06.41.21.37.44s-.22.33-.49.27a.39.39,0,0,0-.43.19c-.12.19-.21.38-.31.57a7.3,7.3,0,0,1-.36.68,1.09,1.09,0,0,1-1.32.47l-.4-.15,0,.1a2.92,2.92,0,0,1-3.88,2,.92.92,0,0,0-1,.18c-.29.27-.53.59-.8.89a8.57,8.57,0,0,1-.77.82,1,1,0,0,1-1.29.05c-.18-.12-.32-.29-.5-.42a8.32,8.32,0,0,0-1-.73.7.7,0,0,0-.94.24,1.28,1.28,0,0,0-.29,1.08,1.91,1.91,0,0,0,1.37,1.47,4,4,0,0,0,1.14.15,2.6,2.6,0,0,1,2.54,2.33c.06.91.06,1.83.05,2.74a3,3,0,0,1-.22,1,1.5,1.5,0,0,1-2.3.65,2.57,2.57,0,0,0-.55-.38.73.73,0,0,0-.52,0,1.9,1.9,0,0,0-1,1.29A3.06,3.06,0,0,0,24,38.16a.29.29,0,0,0,.22.1c.72,0,1.44,0,2.16-.11A5.53,5.53,0,0,0,30.25,36l.42-.49a3.51,3.51,0,0,1,1.55-1.14c.46-.18.92-.36,1.37-.56a4.94,4.94,0,0,0,.55-.32l0-.09a1.82,1.82,0,0,0-1.49-.85,1.6,1.6,0,0,1-1.32-.92,3.78,3.78,0,0,1-.41-2.26c.07-.45.21-.89.31-1.36a1.49,1.49,0,0,0-1.7,0,.35.35,0,0,1-.51-.1.34.34,0,0,1,.09-.49,2.55,2.55,0,0,1,.68-.34,2.31,2.31,0,0,1,1.59.2c.48.2.94.44,1.42.64a3.22,3.22,0,0,0,1.62.28A3.82,3.82,0,0,0,36.62,27a.27.27,0,0,0,.07-.21,4.26,4.26,0,0,1,.66-2.47A7,7,0,0,0,38,22.67a9.71,9.71,0,0,0,.14-3.4c0-.3-.07-.59-.11-.9l-.44.09A2,2,0,0,1,35,16.67a12.57,12.57,0,0,0-.35-1.5c-.08-.29-.15-.3-.41-.15s-.24.15-.37.21a2.74,2.74,0,0,1-2,.27,1.92,1.92,0,0,1-1.15-2.79,2.6,2.6,0,0,0-2.12-3.82A4,4,0,0,0,26,10.05a13.4,13.4,0,0,1,.5,1.37,1.77,1.77,0,0,1-.94,2.1c-.27.14-.54,0-.59-.22s.09-.34.26-.44a1,1,0,0,0,.55-1.23,6.09,6.09,0,0,0-.42-1.07.3.3,0,0,0-.24-.11,2.48,2.48,0,0,1-1.82-.37,2.15,2.15,0,0,1-1-2.31c.2-1.06.57-1.42,1.66-1.65a8.29,8.29,0,0,0,.86-.21.82.82,0,0,0,.6-.63.39.39,0,0,0-.25-.53,3.67,3.67,0,0,0-.67-.18c-.22,0-.37-.17-.36-.37a.36.36,0,0,1,.41-.35,2.21,2.21,0,0,1,1.11.33,1.08,1.08,0,0,1,.53.87,1.52,1.52,0,0,1-1.06,1.52A6.12,6.12,0,0,1,24,6.85a1.07,1.07,0,0,0-1,1,1.48,1.48,0,0,0,.63,1.6,1.53,1.53,0,0,0,1.81,0l.74-.55a3.75,3.75,0,0,1,4.09-.26,3.49,3.49,0,0,1,1,4.56.83.83,0,0,0-.11.46,1.25,1.25,0,0,0,.86,1.11,1.52,1.52,0,0,0,1,0,7.23,7.23,0,0,0,.84-.41.88.88,0,0,1,1.33.4,3.74,3.74,0,0,1,.26.8c.11.46.18.93.29,1.38a1,1,0,0,0,.91.82C37.09,17.77,37.48,17.72,37.91,17.71ZM21.44,13.4v.16c.07,2.91.13,5.82.2,8.73q.2,7,.4,14.1a2.24,2.24,0,0,0,.1.63,1.46,1.46,0,0,0,1,1c-.05-.17-.11-.32-.15-.49a2.49,2.49,0,0,1,1-3,1.31,1.31,0,0,1,1.65-.09c.17.11.33.23.49.35a.75.75,0,0,0,1.23-.37,3,3,0,0,0,.14-.94c0-.71,0-1.42,0-2.12s0-.64-.72-.68a.91.91,0,0,0-1,.91.4.4,0,0,1-.39.36.39.39,0,0,1-.36-.4,1.15,1.15,0,0,1,0-.19A1.58,1.58,0,0,1,26.1,30c.22-.06.45-.08.69-.12l-.1-.09a2.13,2.13,0,0,0-1.34-.37,3,3,0,0,1-2.47-1.15,2.14,2.14,0,0,1-.12-2.65A1.5,1.5,0,0,1,24.38,25a2.94,2.94,0,0,1,1.44.87l.44.41a.34.34,0,0,0,.5,0c.15-.15.3-.31.44-.47.31-.36.59-.75.93-1.08a1.77,1.77,0,0,1,2-.41,2.27,2.27,0,0,0,1,.12A2.14,2.14,0,0,0,33,22.34c0-.53,0-1.07,0-1.61s-.16-.68-.67-.71c-.35,0-.69,0-1,0A6.29,6.29,0,0,1,30.15,20a1.72,1.72,0,0,1-1.35-2.38,1.51,1.51,0,0,0-.5-1.71.73.73,0,0,0-.46-.11,1.16,1.16,0,0,0-.74.5c-.21.27-.4.54-.62.8a1.51,1.51,0,0,1-1.77.52c-.13,0-.21,0-.26.1a5.24,5.24,0,0,0-.37.89,1.65,1.65,0,0,0,1.08,2.12c.23.09.47.15.7.25a9.59,9.59,0,0,1,1.16.57,1.69,1.69,0,0,1,.74,1.62.47.47,0,0,1-.25.33.5.5,0,0,1-.38-.1.39.39,0,0,1-.1-.28,1.22,1.22,0,0,0-.84-1.22c-.22-.1-.45-.17-.67-.26a11.24,11.24,0,0,1-1.06-.45,2.25,2.25,0,0,1-1.19-2.31,3.71,3.71,0,0,1,.57-1.6l-.17-.1a2.07,2.07,0,0,1-1.31-2.05A1.93,1.93,0,0,0,21.44,13.4Zm10.49,15a3.44,3.44,0,0,0-.08,2.74,1,1,0,0,0,.94.77,2.42,2.42,0,0,1,1.8,1l.13.17c1.18-.92,2.33-3.9,2-5.06A3.94,3.94,0,0,1,31.93,28.36Z"
    />
</svg>