<svg xmlns="http://www.w3.org/2000/svg" id="Layer_1" data-name="Layer 1" viewBox="0 0 40 40">
    <title>
        alert_04
    </title>
    <path d="M37,34.34a2,2,0,0,1-2-2V8.78a2,2,0,0,1,3.93,0V32.37A2,2,0,0,1,37,34.34Zm-9.83-2.62a2.62,2.62,0,0,1-2.62,2.62H12.79a2.62,2.62,0,0,1-2.62-2.62V26.53L4.94,25.37V15.89L33.8,9.53V31.79l-6.6-1.47ZM25.9,30,11.48,26.82v4.9A1.31,1.31,0,0,0,12.79,33H24.59a1.31,1.31,0,0,0,1.31-1.31ZM2.31,26.47A1.31,1.31,0,0,1,1,25.16V16a1.31,1.31,0,1,1,2.62,0v9.17A1.31,1.31,0,0,1,2.31,26.47Z" class="fill-p fr-evenodd"/>
</svg>
