<svg xmlns="http://www.w3.org/2000/svg" id="Layer_1" data-name="Layer 1" viewBox="0 0 40 40">
    <defs>
        <style>
            .twit-fill-1{fill:#1da1f2;}.twit-fill-2{fill:#fff;}
        </style>
    </defs>
    <title>
        TW
    </title>
    <rect width="38" height="38" x="1" y="1" class="twit-fill-1" rx="4.75" ry="4.75"/>
    <path d="M15.59,29.65A13.77,13.77,0,0,0,29.46,15.79q0-.32,0-.63a9.91,9.91,0,0,0,2.43-2.52,9.73,9.73,0,0,1-2.8.77,4.89,4.89,0,0,0,2.14-2.7,9.76,9.76,0,0,1-3.09,1.18,4.88,4.88,0,0,0-8.3,4.44,13.83,13.83,0,0,1-10-5.09,4.88,4.88,0,0,0,1.51,6.5,4.84,4.84,0,0,1-2.21-.61s0,0,0,.06A4.87,4.87,0,0,0,13,22a4.86,4.86,0,0,1-2.2.08,4.88,4.88,0,0,0,4.55,3.38,9.78,9.78,0,0,1-6.05,2.09,9.92,9.92,0,0,1-1.16-.07,13.79,13.79,0,0,0,7.47,2.19" class="twit-fill-2"/>
</svg>
