<svg id="Layer_1" data-name="Layer 1" xmlns="http://www.w3.org/2000/svg" viewBox="0 0 40 40"><defs><style>.cls-1{fill:#40871b;}.cls-2{fill:#fff;}</style></defs><title>bookmark</title><circle class="cls-1" cx="19.99" cy="20" r="19"/><path class="cls-2" d="M28.71,8.64A1.68,1.68,0,0,1,29.8,10.2V29.8a1.67,1.67,0,0,1-1.09,1.56,1.53,1.53,0,0,1-.67.12A1.84,1.84,0,0,1,26.78,31l-6.71-6.45L13.37,31a1.86,1.86,0,0,1-1.26.5,1.55,1.55,0,0,1-.67-.14,1.67,1.67,0,0,1-1.09-1.56V10.2a1.68,1.68,0,0,1,1.09-1.56,1.71,1.71,0,0,1,.67-.14H28A1.71,1.71,0,0,1,28.71,8.64Z"/></svg>