<svg id="Layer_1" data-name="Layer 1" xmlns="http://www.w3.org/2000/svg" xmlns:xlink="http://www.w3.org/1999/xlink" viewBox="0 0 40 40">
    <defs>
        <style>
            .cdc-tv-fill-2-1 {
                fill: none;
            }

            .cdc-tv-fill-2-2 {
                fill: #0060a9;
            }

            .cdc-tv-fill-2-3,
            .cdc-tv-fill-2-5 {
                fill: #fff;
            }

            .cdc-tv-fill-2-4 {
                clip-path: url(#clip-path);
            }

            .cdc-tv-fill-2-5 {
                stroke: #fff;
                stroke-width: 0.09px;
            }
        </style>
        <clipPath id="clip-path">
            <rect class="cdc-tv-fill-2-1" x="6.79" y="12.01" width="26.33" height="15.76" />
        </clipPath>
    </defs>
    <title>CDC-tv</title>
    <circle class="cdc-tv-fill-2-2" cx="19.99" cy="20" r="19" />
    <path class="cdc-tv-fill-2-3" d="M26.79,30.94H21.24a1.21,1.21,0,0,1-.12-.55V28.83h-2.3v1.6a1,1,0,0,1-.12.51H13.14L11.36,32v.24H28.55V32Z"
    />
    <rect class="cdc-tv-fill-2-3" x="5.36" y="10.78" width="29.19" height="18.21" rx="0.26" ry="0.26" />
    <g class="cdc-tv-fill-2-4">
        <rect class="cdc-tv-fill-2-2" x="6.25" y="11.6" width="27.5" height="16.57" />
        <path class="cdc-tv-fill-2-5" d="M12.41,24.1c-2.85,0-4.8-1.76-4.8-4.61a4.64,4.64,0,0,1,4.83-4.74,5.26,5.26,0,0,1,2.15.43v1.37a2.53,2.53,0,0,0-2.12-1.12c-1.73,0-2.7,1.58-2.7,3.86s.91,4.11,2.88,4.11a3.24,3.24,0,0,0,1.94-.72l.33.72A3.84,3.84,0,0,1,12.41,24.1Z"
        />
        <path class="cdc-tv-fill-2-5" d="M21.77,19.43c0,3.54-2.18,3.79-3.87,3.79V15.6C19.63,15.6,21.77,15.81,21.77,19.43Zm-2.27,4.5a4.26,4.26,0,0,0,4.38-4.54c0-3.66-2.62-4.48-4.61-4.48H16v9Z"
        />
        <path class="cdc-tv-fill-2-5" d="M29.74,24.1c-2.86,0-4.8-1.76-4.8-4.61a4.63,4.63,0,0,1,4.82-4.74,5.26,5.26,0,0,1,2.15.43v1.37a2.53,2.53,0,0,0-2.12-1.12c-1.72,0-2.7,1.58-2.7,3.86S28,23.4,30,23.4a3.24,3.24,0,0,0,1.94-.72l.33.72A3.83,3.83,0,0,1,29.74,24.1Z"
        />
    </g>
</svg>