<svg id="Layer_1" data-name="Layer 1" xmlns="http://www.w3.org/2000/svg" viewBox="0 0 40 40"><defs><style>.cls-1{fill:#4f4f4f;}.cls-2{fill:#fff;}</style></defs><title>email</title><circle class="cls-1" cx="19.99" cy="20" r="19"/><g id="email-1"><path class="cls-2" d="M20.78,20.08a1.29,1.29,0,0,1-1.56,0L8.79,11.63C8.36,11.28,8.46,11,9,11H31c.55,0,.65.28.22.63Zm-6.88-.45a.93.93,0,0,0-.1-1.37l-5-4.07C8.35,13.85,8,14,8,14.56v10.5c0,.55.3.67.68.27Zm12.3-1.37a.93.93,0,0,0-.1,1.37l5.22,5.7c.38.4.68.28.68-.27V14.56c0-.55-.35-.71-.78-.37Zm-1.66,2.63a1.08,1.08,0,0,0-1.45-.11l-2.31,1.88a1.32,1.32,0,0,1-1.56,0l-2.31-1.88a1.08,1.08,0,0,0-1.45.11L8.7,28.26c-.37.41-.23.74.32.74H31c.55,0,.69-.33.32-.74Z"/></g></svg>