<svg id="Layer_1" data-name="Layer 1" xmlns="http://www.w3.org/2000/svg" viewBox="0 0 40 40">
    <defs>
        <style>
            .govd-1 {
                fill: #5a5a5a;
            }
        </style>
    </defs>
    <title>govD</title>
    <path class="govd-1" d="M9.42,27.77c-1,0-2,0-2.95,0a5.27,5.27,0,0,1-2.61-.63A5.17,5.17,0,0,1,1,22.45C1,17.06,1,11.67,1,6.28A5.32,5.32,0,0,1,6.27,1c9.08,0,18.17,0,27.25,0A5.42,5.42,0,0,1,39,6.41c0,5.31,0,10.62,0,15.93a5.37,5.37,0,0,1-5.48,5.43q-4.59,0-9.19,0a1.55,1.55,0,0,0-.93.28L6.93,39.19a1.2,1.2,0,0,1-2-.78,2.07,2.07,0,0,1,.21-.93l4.09-9.27C9.3,28.08,9.35,28,9.42,27.77Zm6.1-14,3.62,2.68a1.25,1.25,0,0,0,1.7,0l3.08-2.28.53-.39.15.17,4.31,5.19,4.14,5a.8.8,0,0,0,1.18.19.82.82,0,0,0,0-1.23l-6.74-8.11L25.74,12.8l.24-.19,8.62-6.4A1.29,1.29,0,0,0,35,4.35a1.28,1.28,0,0,0-1.91-.18Q26.71,8.9,20.35,13.62a.5.5,0,0,1-.72,0q-5-3.77-10.1-7.51c-.92-.68-1.82-1.37-2.74-2A1.27,1.27,0,0,0,4.88,5.65a2,2,0,0,0,.58.61q4.17,3.12,8.36,6.22l.4.31c-.09.12-.14.2-.21.28L6.26,22.4c-.22.27-.46.53-.66.81a.76.76,0,0,0,.15,1.07.77.77,0,0,0,1-.05A2.85,2.85,0,0,0,7,24l6.17-7.43Z"
    />
</svg>