<svg id="Layer_1" data-name="Layer 1" xmlns="http://www.w3.org/2000/svg" xmlns:xlink="http://www.w3.org/1999/xlink" viewBox="0 0 40 40">
    <defs>
        <style>
            .ig-1 {
                fill: url(#ig-radial-gradient);
            }

            .ig-2 {
                fill: #fff;
            }
        </style>
        <radialGradient id="ig-radial-gradient" cx="13.44" cy="37.31" r="36.12" gradientUnits="userSpaceOnUse">
            <stop offset="0" stop-color="#fede7d" />
            <stop offset="0.36" stop-color="#fb7e20" />
            <stop offset="0.64" stop-color="#da2c76" />
            <stop offset="1" stop-color="#4b62d7" />
        </radialGradient>
    </defs>
    <title>IG</title>
    <circle class="ig-1" cx="19.99" cy="20" r="19" />
    <path class="ig-2" d="M20,9.81c3.32,0,3.71,0,5,.08a6.84,6.84,0,0,1,2.31.42,4.12,4.12,0,0,1,2.36,2.36A6.84,6.84,0,0,1,30.11,15c.06,1.31.08,1.7.08,5s0,3.71-.08,5a6.84,6.84,0,0,1-.42,2.31,4.12,4.12,0,0,1-2.36,2.36,6.84,6.84,0,0,1-2.31.42c-1.31.06-1.7.08-5,.08s-3.71,0-5-.08a6.84,6.84,0,0,1-2.31-.42,4.12,4.12,0,0,1-2.36-2.36A6.84,6.84,0,0,1,9.89,25c-.06-1.31-.08-1.7-.08-5s0-3.71.08-5a6.84,6.84,0,0,1,.42-2.31,4.12,4.12,0,0,1,2.36-2.36A6.84,6.84,0,0,1,15,9.89c1.31-.06,1.7-.08,5-.08m0-2.24c-3.37,0-3.8,0-5.12.08a9,9,0,0,0-3,.58,6.32,6.32,0,0,0-3.63,3.63,9,9,0,0,0-.58,3c-.06,1.32-.08,1.75-.08,5.12s0,3.8.08,5.12a9,9,0,0,0,.58,3,6.32,6.32,0,0,0,3.63,3.63,9,9,0,0,0,3,.58c1.32.06,1.75.08,5.12.08s3.8,0,5.12-.08a9,9,0,0,0,3-.58,6.32,6.32,0,0,0,3.63-3.63,9,9,0,0,0,.58-3c.06-1.32.08-1.75.08-5.12s0-3.8-.08-5.12a9,9,0,0,0-.58-3,6.32,6.32,0,0,0-3.63-3.63,9,9,0,0,0-3-.58c-1.32-.06-1.75-.08-5.12-.08Z"
    />
    <path class="ig-2" d="M20,13.62A6.38,6.38,0,1,0,26.38,20,6.38,6.38,0,0,0,20,13.62Zm0,10.52A4.14,4.14,0,1,1,24.14,20,4.14,4.14,0,0,1,20,24.14Z"
    />
    <circle class="ig-2" cx="26.63" cy="13.37" r="1.49" />
</svg>