<svg id="Layer_1" data-name="Layer 1" xmlns="http://www.w3.org/2000/svg" viewBox="0 0 40 40">
    <defs>
        <style>
            .podcast-1 {
                fill: #724faa;
            }

            .podcast-2 {
                fill: #fff;
            }
        </style>
    </defs>
    <title>podcast</title>
    <circle class="podcast-1" cx="19.99" cy="20" r="19" />
    <rect class="podcast-2" x="17.17" y="22.53" width="5.62" height="12.47" rx="0.67" ry="0.67" />
    <circle class="podcast-2" cx="20" cy="19.16" r="2.73" />
    <path class="podcast-2" d="M20,7a12.16,12.16,0,0,0-6.67,22.33l.35-1.5.12-.58a10.19,10.19,0,1,1,12.42,0l.08.28.49,1.74A12.16,12.16,0,0,0,20,7Z"
    />
    <path class="podcast-2" d="M14.2,25.4l.44-2a6.81,6.81,0,0,1-1.53-4.32,6.89,6.89,0,1,1,12.12,4.48l.51,1.92A8.61,8.61,0,1,0,14.2,25.4Z"
    />
</svg>