<svg id="Layer_1" data-name="Layer 1" xmlns="http://www.w3.org/2000/svg" viewBox="0 0 40 40"><defs><style>.cls-1{fill:#f48223;}.cls-2{fill:#fff;}</style></defs><title>RSS</title><circle class="cls-1" cx="19.99" cy="20" r="19"/><path class="cls-2" d="M31.65,30.73a1,1,0,0,1-.76.33H28.56a1.05,1.05,0,0,1-1-1A18.7,18.7,0,0,0,9.92,12.47a1,1,0,0,1-1-1V9.1a1,1,0,0,1,.33-.75A1,1,0,0,1,10,8.06h0A23.2,23.2,0,0,1,31.94,30,1,1,0,0,1,31.65,30.73Zm-8.35,0a1,1,0,0,1-.77.34h-2.2a1,1,0,0,1-1-.95A10.46,10.46,0,0,0,9.89,20.7a1,1,0,0,1-1-1v-2.2a1,1,0,0,1,.34-.77,1,1,0,0,1,.71-.28h.08A14.79,14.79,0,0,1,23.58,29.93,1.1,1.1,0,0,1,23.3,30.72Zm-11.22.34a3.14,3.14,0,1,1,3.13-3.14A3.14,3.14,0,0,1,12.08,31.06Z"/></svg>