<svg id="Layer_1" data-name="Layer 1" xmlns="http://www.w3.org/2000/svg" viewBox="0 0 40 40"><defs><style>.cls-1{fill:#0060aa;}.cls-2{fill:#f26722;}</style></defs><title>syndication</title><polygon class="cls-1" points="20.08 19.43 4.34 25.8 12.54 26.96 13.77 35.06 20.08 19.43"/><path class="cls-2" d="M13.55,19.71l-.29,0A1.41,1.41,0,0,1,12.18,18a8.16,8.16,0,0,1,4.41-5.59,1.41,1.41,0,1,1,1.23,2.53,5.4,5.4,0,0,0-2.89,3.66A1.39,1.39,0,0,1,13.55,19.71Z"/><path class="cls-2" d="M21.14,27.79a1.41,1.41,0,0,1-.21-2.8,5.32,5.32,0,0,0,4-3,1.41,1.41,0,0,1,2.55,1.22,8.17,8.17,0,0,1-6.18,4.56Z"/><path class="cls-2" d="M26.61,19.2a1.4,1.4,0,0,1-1.35-1,5.31,5.31,0,0,0-3.47-3.53A1.41,1.41,0,1,1,22.67,12,8.1,8.1,0,0,1,28,17.39,1.39,1.39,0,0,1,27,19.14,1.45,1.45,0,0,1,26.61,19.2Z"/><path class="cls-2" d="M7.71,19.05l-.24,0a1.41,1.41,0,0,1-1.16-1.62A13.95,13.95,0,0,1,15.58,6.5a1.41,1.41,0,1,1,.92,2.66,11.24,11.24,0,0,0-6.06,5,11.37,11.37,0,0,0-1.35,3.73A1.4,1.4,0,0,1,7.71,19.05Z"/><path class="cls-2" d="M21.75,33.62a1.41,1.41,0,0,1-.18-2.8,11.15,11.15,0,0,0,8.28-5.51,11.42,11.42,0,0,0,.73-1.49,1.41,1.41,0,1,1,2.62,1,12.75,12.75,0,0,1-.9,1.86,13.89,13.89,0,0,1-10.36,6.89Z"/><path class="cls-2" d="M32.41,18.16A1.41,1.41,0,0,1,31,17.09a11.07,11.07,0,0,0-5.29-7A11.26,11.26,0,0,0,23.14,9a1.41,1.41,0,1,1,.76-2.72,14.62,14.62,0,0,1,3.27,1.37,13.89,13.89,0,0,1,6.61,8.81,1.4,1.4,0,0,1-1,1.7A1.24,1.24,0,0,1,32.41,18.16Z"/><path class="cls-2" d="M2.42,18.31l-.23,0A1.42,1.42,0,0,1,1,16.68a19.55,19.55,0,0,1,2.37-6.61,19.33,19.33,0,0,1,9.9-8.4,1.41,1.41,0,1,1,1,2.64A16.49,16.49,0,0,0,3.81,17.12,1.42,1.42,0,0,1,2.42,18.31Z"/><path class="cls-2" d="M21.4,39a1.41,1.41,0,0,1-.1-2.81A16.53,16.53,0,0,0,34.47,28a16.11,16.11,0,0,0,1-2,1.41,1.41,0,0,1,1.84-.77A1.39,1.39,0,0,1,38.09,27a19,19,0,0,1-1.17,2.4A19.36,19.36,0,0,1,21.5,39Z"/><path class="cls-2" d="M37.59,16.88a1.42,1.42,0,0,1-1.38-1.08A16.32,16.32,0,0,0,28.42,5.44a16.8,16.8,0,0,0-4.05-1.67,1.41,1.41,0,1,1,.72-2.72A19.37,19.37,0,0,1,39,15.14a1.41,1.41,0,0,1-1,1.7A1.24,1.24,0,0,1,37.59,16.88Z"/></svg>