<svg id="Layer_1" data-name="Layer 1" xmlns="http://www.w3.org/2000/svg" viewBox="0 0 40 40"><defs><style>.cls-1{fill:#f26722;}.cls-2{fill:#fff;}</style></defs><title>syndication</title><circle class="cls-1" cx="19.99" cy="20" r="19"/><polygon class="cls-2" points="19.8 19.85 8.33 24.49 14.3 25.33 15.2 31.23 19.8 19.85"/><path class="cls-2" d="M15.05,20.05a.83.83,0,0,1-.22,0A1,1,0,0,1,14,18.8a6,6,0,0,1,3.22-4.07,1,1,0,1,1,.89,1.84,4,4,0,0,0-2.1,2.67A1,1,0,0,1,15.05,20.05Z"/><path class="cls-2" d="M20.57,25.93a1,1,0,0,1-.15-2,3.89,3.89,0,0,0,2.94-2.17,1,1,0,0,1,1.38-.49,1,1,0,0,1,.49,1.37,5.93,5.93,0,0,1-4.51,3.32Z"/><path class="cls-2" d="M24.56,19.68a1,1,0,0,1-1-.74,3.86,3.86,0,0,0-2.52-2.57,1,1,0,0,1-.66-1.29,1,1,0,0,1,1.3-.66,5.91,5.91,0,0,1,3.85,3.94,1,1,0,0,1-.68,1.27A1,1,0,0,1,24.56,19.68Z"/><path class="cls-2" d="M10.79,19.56h-.18a1,1,0,0,1-.84-1.18A10,10,0,0,1,11,15a10.2,10.2,0,0,1,5.53-4.54,1,1,0,1,1,.67,1.94A8.14,8.14,0,0,0,12.78,16a8,8,0,0,0-1,2.72A1,1,0,0,1,10.79,19.56Z"/><path class="cls-2" d="M21,30.18a1,1,0,0,1-1-.89,1,1,0,0,1,.89-1.15,8.1,8.1,0,0,0,6-4A7.31,7.31,0,0,0,27.45,23a1,1,0,0,1,1.91.76,9,9,0,0,1-.66,1.36,10.13,10.13,0,0,1-7.55,5Z"/><path class="cls-2" d="M28.78,18.92a1,1,0,0,1-1-.78A8.17,8.17,0,0,0,22,12.21a1,1,0,1,1,.56-2,10.47,10.47,0,0,1,2.37,1,10.11,10.11,0,0,1,4.83,6.42A1,1,0,0,1,29,18.89,1,1,0,0,1,28.78,18.92Z"/><path class="cls-2" d="M6.93,19H6.77a1,1,0,0,1-.86-1.17A14.11,14.11,0,0,1,14.84,6.9a1,1,0,0,1,1.33.6,1,1,0,0,1-.6,1.32,12.14,12.14,0,0,0-6.16,5.23A11.7,11.7,0,0,0,8,18.16,1,1,0,0,1,6.93,19Z"/><path class="cls-2" d="M20.76,34.1a1,1,0,0,1-.07-2.05A12,12,0,0,0,31,24.58a1,1,0,0,1,1.91.77,14.92,14.92,0,0,1-.86,1.75,14.11,14.11,0,0,1-11.24,7Z"/><path class="cls-2" d="M32.56,18a1,1,0,0,1-1-.78,11.93,11.93,0,0,0-5.68-7.55,12.09,12.09,0,0,0-3-1.22,1,1,0,0,1-.73-1.26,1,1,0,0,1,1.26-.73,14.12,14.12,0,0,1,3.46,1.43,14,14,0,0,1,6.65,8.84A1,1,0,0,1,32.8,18,1,1,0,0,1,32.56,18Z"/></svg>