<svg id="Layer_1" data-name="Layer 1" xmlns="http://www.w3.org/2000/svg" viewBox="0 0 40 40"><defs><style>.cls-1{fill:#39475d;}.cls-2{fill:#fff;}</style></defs><title>tumblr</title><circle class="cls-1" cx="19.99" cy="20" r="19"/><path class="cls-2" d="M27.58,30.88a7.34,7.34,0,0,1-4.74,1.6h-.2c-6.14,0-7.47-4.5-7.47-7.14V18H12.75a.5.5,0,0,1-.5-.51h0V14.07a.86.86,0,0,1,.57-.81A6.46,6.46,0,0,0,17.1,7.31c0-.55.33-.83.82-.83h3.6A.51.51,0,0,1,22,7v5.85h4.21a.51.51,0,0,1,.51.51V17.5a.5.5,0,0,1-.51.5H22v6.77a1.89,1.89,0,0,0,1.81,2.16,5,5,0,0,0,1.64-.35,1.13,1.13,0,0,1,.65-.11c.18,0,.29.17.37.4l1.12,3.26C27.69,30.39,27.77,30.68,27.58,30.88Z"/></svg>