<svg xmlns="http://www.w3.org/2000/svg" id="_01" data-name="01" viewBox="0 0 40 40">
    <defs>
        <style>
            .cls-2{fill:#5a5a5a;}
        </style>
    </defs>
    <title>
        chart_01
    </title>
    <path d="M1.51,1.3H0V38.8H40V37.2l-38.45,0Zm20,1.56A1.55,1.55,0,0,0,20,1.3H15.38a1.55,1.55,0,0,0-1.54,1.56V34.11h7.69Zm-9.23,9.38a1.55,1.55,0,0,0-1.54-1.56H6.15a1.55,1.55,0,0,0-1.54,1.56V34.11H12.3V12.24Zm18.46,9.37a1.55,1.55,0,0,0-1.54-1.56H24.61a1.55,1.55,0,0,0-1.54,1.56v12.5h7.69V21.61Zm7.69,7.81H33.84A1.55,1.55,0,0,0,32.31,31v3.13H40V31A1.55,1.55,0,0,0,38.46,29.42Z" class="cls-2"/>
</svg>
