<svg xmlns="http://www.w3.org/2000/svg" id="_01" data-name="01" viewBox="0 0 40 40">
    <title>
        calendar_01
    </title>
    <path d="M37.14,40H2.85A2.86,2.86,0,0,1,0,37.19v-30A2.86,2.86,0,0,1,2.85,4.33H5.71V5.76a4.29,4.29,0,0,0,8.57,0V4.33H25.71V5.76a4.29,4.29,0,0,0,8.57,0V4.33h2.86A2.86,2.86,0,0,1,40,7.19v30A2.86,2.86,0,0,1,37.14,40Zm0-25.71H2.85V37.19H37.14ZM15.81,25.52a2.62,2.62,0,0,0,.43-1.42q0-1.66-1.78-1.66a4.45,4.45,0,0,0-3,1.23V21.35a6.34,6.34,0,0,1,3.53-1,4.16,4.16,0,0,1,2.88.92,3.19,3.19,0,0,1,1,2.5q0,2.1-2.52,4.34l-2.47,2.19v.05h4.87v2.19h-7.9V30.48l3.44-3.29A9.48,9.48,0,0,0,15.81,25.52Zm9.67,4.77A1.44,1.44,0,0,0,26,29.07a1.38,1.38,0,0,0-.7-1.24,3.62,3.62,0,0,0-1.92-.44H22.34v-2h1q2.34,0,2.34-1.56c0-1-.6-1.46-1.8-1.46a4.11,4.11,0,0,0-2.34.78V21a6.47,6.47,0,0,1,2.95-.64,4.43,4.43,0,0,1,2.87.83,2.63,2.63,0,0,1,1,2.15A2.8,2.8,0,0,1,26,26.26v0a3.24,3.24,0,0,1,2,.92,2.61,2.61,0,0,1,.74,1.88,3.22,3.22,0,0,1-1.23,2.66,5.32,5.32,0,0,1-3.4,1,6.56,6.56,0,0,1-3-.6v-2.3a4.65,4.65,0,0,0,2.81.88A2.53,2.53,0,0,0,25.47,30.29ZM30,8.62a2.81,2.81,0,0,1-2.81-2.81V2.86a2.81,2.81,0,1,1,5.62,0V5.81A2.81,2.81,0,0,1,30,8.62Zm-20,0A2.81,2.81,0,0,1,7.14,5.81V2.86a2.81,2.81,0,0,1,5.63,0V5.81A2.81,2.81,0,0,1,10,8.62Z" class="fill-p"/>
</svg>
