<svg data-name="01" height="40px" id="_01" viewbox="0 0 40 40" width="40px" xmlns="http://www.w3.org/2000/svg">
<title>edit_01</title>
<path class="fill-p" d="M32.34,17.49l.09,19.11h-29V7.26H23.74l3.18-3.42H1.7A1.71,1.71,0,0,0,0,5.56V38.32A1.71,1.71,0,0,0,1.7,40H34.08a1.71,1.71,0,0,0,1.7-1.72V14.08Z"></path>
<path class="fill-p" d="M39,2.28,37.79,1.06a3.38,3.38,0,0,0-4.82,0L30.56,3.5l6,6.09L39,7.16A3.48,3.48,0,0,0,39,2.28Z"></path>
<polygon class="fill-p" points="18.52 27.88 35.39 10.81 29.36 4.72 12.49 21.8 18.52 27.88"></polygon>
<polygon class="fill-p" points="11.44 23.17 7.68 32.94 17.18 28.96 11.44 23.17"></polygon>
</svg>