<svg xmlns="http://www.w3.org/2000/svg" id="_01" data-name="01" viewBox="0 0 40 40">
    <defs>
        <style>
            .cls-2{fill:#5a5a5a;}
        </style>
    </defs>
    <title>
        link_01
    </title>
    <path d="M35.19,9.92l-5.7,10A3.24,3.24,0,0,1,25,21.09l-1.41-.82,1.62-2.85h0a1.62,1.62,0,0,0,2.22-.6L31.56,9.7A1.65,1.65,0,0,0,31,7.45L25.32,4.16a1.61,1.61,0,0,0-2.22.6L19,11.89a1.65,1.65,0,0,0,.6,2.25L18,17l-1.41-.82a3.31,3.31,0,0,1-1.19-4.49l5.7-10A3.24,3.24,0,0,1,25.54.49L34,5.42A3.31,3.31,0,0,1,35.19,9.92ZM15.93,27.17a1.65,1.65,0,0,1-.6-2.25l6.52-11.4a1.62,1.62,0,0,1,2.22-.6,1.65,1.65,0,0,1,.6,2.25l-6.52,11.4A1.61,1.61,0,0,1,15.93,27.17Zm-1.19-4.49h0a1.62,1.62,0,0,0-2.22.6L8.45,30.4A1.65,1.65,0,0,0,9,32.65l5.64,3.29a1.61,1.61,0,0,0,2.22-.6L21,28.21A1.65,1.65,0,0,0,20.38,26h0L22,23.12l1.41.82a3.3,3.3,0,0,1,1.19,4.49l-5.7,10a3.24,3.24,0,0,1-4.45,1.2L6,34.68a3.3,3.3,0,0,1-1.19-4.49l5.7-10A3.24,3.24,0,0,1,15,19l1.41.82Z" class="cls-2"/>
</svg>
