<svg xmlns="http://www.w3.org/2000/svg" id="_01" data-name="01" viewBox="0 0 40 40">
    <title>
        alert_01
    </title>
    <path d="M20,0A20,20,0,1,0,40,20,20,20,0,0,0,20,0Zm3.14,27.36c-1.51,2.27-3,4-5.63,4-1.76-.29-2.49-1.55-2.1-2.84l3.32-11a.52.52,0,0,0-.3-.64c-.25-.08-.73.23-1.14.69l-2,2.42a10.92,10.92,0,0,1,0-1.35c1.51-2.27,4-4.05,5.67-4.05A2.26,2.26,0,0,1,23,17.48L19.67,28.54a.52.52,0,0,0,.31.58c.25.08.76-.23,1.18-.69l2-2.42A10.84,10.84,0,0,1,23.14,27.41ZM22.69,13a2.23,2.23,0,0,1-2.3-2.29,2.3,2.3,0,0,1,4.6,0A2.23,2.23,0,0,1,22.69,13Z" class="fill-p fr-evenodd"/>
</svg>