<svg xmlns="http://www.w3.org/2000/svg" id="_01" data-name="01" viewBox="0 0 40 40">
    <defs>
        <style>
            .cls-2{fill:#5a5a5a;fill-rule:evenodd;}
        </style>
    </defs>
    <title>
        scale_01
    </title>
    <path d="M31.53,6,26,18.17h-1.6l5.85-13h-9V35.41c1.86.07,11.37,3.15,11.37,3.15V40H7.08V38.46s9.71-3.05,11.18-3.05V5.2H9.51l5.85,13h-1.6L8.28,6,2.79,18.17H1.19l5.89-13V3.62H16.9c0-2,1.32-3.58,2.86-3.58s2.86,1.7,2.86,3.58h10V4.91l6,13.26H37ZM15.46,19.65c0,3.92-2.72,7.68-7.18,7.68s-7.18-3.77-7.18-7.68Zm9.08,0H38.91c0,3.92-2.72,7.68-7.18,7.68S24.54,23.57,24.54,19.65Z" class="fill-p"/>
</svg>