<svg xmlns="http://www.w3.org/2000/svg" id="_01" data-name="01" viewBox="0 0 40 40">
    <title>
        hazard_01
    </title>
    <path d="M20,40A20,20,0,1,1,40,20,20,20,0,0,1,20,40Zm9.92-35c-5.33-3.58-9.86-3-9.86-3V15a5,5,0,0,0-4.24,2.52l-10.93-7S2,13.35,2,19.78s2.78,9.53,2.78,9.53l11.06-6.7a5,5,0,0,0,4.22,2.49V38.19s4.52.59,9.86-3,6.18-7.27,6.18-7.27L24.66,22.37a4.9,4.9,0,0,0,.11-4.44l11.57-5.47S35.25,8.66,29.92,5.08ZM20.18,22.94A2.9,2.9,0,1,1,23.08,20,2.9,2.9,0,0,1,20.18,22.94Z" class="fill-p fr-evenodd"/>
</svg>