<svg xmlns="http://www.w3.org/2000/svg" id="_01" data-name="01" viewBox="0 0 40 40">
    <defs>
        <style>
            .cls-2{fill:#5a5a5a;}
        </style>
    </defs>
    <title>
        hazard_02
    </title>
    <path d="M33.53,14.93c-.2-.12-.41-.22-.61-.32,0-.23,0-.46,0-.69A12.94,12.94,0,0,0,21,1a8.79,8.79,0,0,1,6.31,13.58,11.11,11.11,0,0,0-1.05,1.3A8.79,8.79,0,1,1,19,1,12.94,12.94,0,0,0,7.06,13.91c0,.23,0,.46,0,.69l-.61.33A12.94,12.94,0,0,0,1.26,31.71a8.79,8.79,0,0,1,8.6-12.26,11,11,0,0,0,1.65.26A8.79,8.79,0,1,1,2.28,33.47a12.94,12.94,0,0,0,17.14,3.88L20,37l.59.37a12.94,12.94,0,0,0,17.14-3.88,8.79,8.79,0,0,1-14.92-1.32,11.51,11.51,0,0,0-.6-1.56,8.79,8.79,0,1,1,16.53,1.12A12.94,12.94,0,0,0,33.53,14.93ZM20,24.87A2.83,2.83,0,1,1,22.83,22,2.83,2.83,0,0,1,20,24.87Z" class="fill-p"/>
    <path d="M23.43,29.61c0,.17.07.33.11.5a12.42,12.42,0,0,1,.58,1.51,7.26,7.26,0,0,0,.79,1.21,11.84,11.84,0,0,0,6.92-10.77q0-.57-.05-1.12a7.25,7.25,0,0,0-3.53.32c0,.26,0,.53,0,.8A8.3,8.3,0,0,1,23.43,29.61Z" class="fill-p"/>
    <path d="M11.27,21.11a12.3,12.3,0,0,1-1.61-.25H9.32a7.39,7.39,0,0,0-1.1.09q-.05.56-.05,1.12a11.84,11.84,0,0,0,6.92,10.77,7.41,7.41,0,0,0,1.49-3.22,8.31,8.31,0,0,1-4.86-7.55c0-.27,0-.53,0-.79Z" class="fill-p"/>
    <path d="M15.19,15.31a8.25,8.25,0,0,1,9.62,0c.13-.11.26-.22.38-.34a12.35,12.35,0,0,1,1-1.27,7.38,7.38,0,0,0,.66-1.29,11.83,11.83,0,0,0-13.73,0A7.4,7.4,0,0,0,15.19,15.31Z" class="fill-p"/>
</svg>
