<svg xmlns="http://www.w3.org/2000/svg" id="_01" data-name="01" viewBox="0 0 40 40">
    <title>
        search_02
    </title>
    <path d="M23.26,40l-.42,0a4.87,4.87,0,0,1-4-3.41c-.54-2.52.31-4.63,1.91-7.11a24.53,24.53,0,0,0,8.79,3.72A22.85,22.85,0,0,1,28.07,37,5.09,5.09,0,0,1,24.59,40l-.52,0c-.28,0-.54,0-.81,0Z" class="fill-p"/>
    <path d="M35.34,2.63a4.7,4.7,0,0,0-4.28-.36,12.7,12.7,0,0,0-2,1.6c-2.78,2.68-4.81,6.54-6.28,10-1.41,4.81,1,10.56-1.7,14.58a16.43,16.43,0,0,0,2.62,1.6A23,23,0,0,0,29.09,32l1.44.2c3.6-5.43,7.55-10.62,8-17V12.5C38.12,9.07,38,4.92,35.34,2.63Zm-2.58,13.2a3.38,3.38,0,0,1-2.55,1.9H30a3,3,0,0,1-2.41-1.2,3.56,3.56,0,0,1-.32-3.43,3.23,3.23,0,0,1,2.68-1.53h0a3,3,0,0,1,2.5,1.25A3.6,3.6,0,0,1,32.76,15.84Z" class="fill-p"/>
    <path d="M15.2,31.81l-.87.18a1.78,1.78,0,0,1-2.11-1.38l-1.47-7a1.76,1.76,0,0,1,1-1.93l-.8-3.82a8.95,8.95,0,1,1,1.76-.28l.78,3.74a1.76,1.76,0,0,1,1.66,1.38l1.47,7A1.78,1.78,0,0,1,15.2,31.81ZM16,12.59a6.69,6.69,0,1,0-9.26,1.94A6.69,6.69,0,0,0,16,12.59Z" class="fill-p fr-evenodd"/>
</svg>
