<svg xmlns="http://www.w3.org/2000/svg" id="_01" data-name="01" viewBox="0 0 40 40">
    <defs>
        <style>
            .cls-2{fill:#5a5a5a;}
        </style>
    </defs>
    <title>
        lab_03
    </title>    
    <path d="M35.54,6.66a2.4,2.4,0,0,0-.8-3.29l-.11-.07a2.39,2.39,0,0,0-3.29.8L24.12,14.56h7.23Z" class="fill-p"/>
    <path d="M21.7,22a2.24,2.24,0,0,0,0-1.52,1.53,1.53,0,0,0-.93-1,2.91,2.91,0,0,0-1.06-.17H17.53a.05.05,0,0,0-.06.06V23c0,.12,0,.12.11.12.78,0,1.56,0,2.33,0a2.62,2.62,0,0,0,.88-.2A1.62,1.62,0,0,0,21.7,22Z" class="fill-p"/>
    <path d="M38.53,16H1.47a1.47,1.47,0,1,0,0,2.94h.41a18.15,18.15,0,0,0,9.73,15.24,1.47,1.47,0,0,0,.22,2.92H28.16a1.47,1.47,0,0,0,.22-2.92A18.15,18.15,0,0,0,38.12,19h.41a1.47,1.47,0,0,0,0-2.94ZM14,32.83a.74.74,0,0,1-1,.11A19.43,19.43,0,0,1,6.08,20a.74.74,0,0,1,1.46-.17,18,18,0,0,0,6.34,12A.73.73,0,0,1,14,32.83Zm13.08-.78c0,.06,0,.08-.09.08h-3.6c-.17,0-.17,0-.17-.17s0-.15,0-.22,0-.12.12-.13l.45,0a.28.28,0,0,0,.3-.25A.4.4,0,0,0,24,31.1a3.34,3.34,0,0,0-.31-.43l-1-1.16-.26-.31s-.06,0-.09,0l-.41.44-.78.86-.49.55,0,.06c-.16.26-.06.46.24.48l.39,0c.07,0,.1,0,.1.1s0,.22,0,.34,0,.09-.08.08H18.59c-.07,0-.1,0-.1-.1s0-.21,0-.32a.1.1,0,0,1,.1-.12l.21,0a1.15,1.15,0,0,0,.54-.23,4.1,4.1,0,0,0,.45-.38l1.73-1.77.41-.44c.07-.08.07-.08,0-.16l-.84-1.09-1.21-1.57-1.54-2a.26.26,0,0,0-.24-.12h-.55c-.06,0-.1,0-.09.09s0,.06,0,.1v3.12a2.91,2.91,0,0,0,0,.39.52.52,0,0,0,.43.47,2.74,2.74,0,0,0,.61,0c.17,0,.17,0,.17.17v.38c0,.06,0,.09-.08.08H14.5c-.2,0-.18,0-.18-.18v-.31c0-.14,0-.14.14-.14h.39a1,1,0,0,0,.33,0,.61.61,0,0,0,.4-.54,4.59,4.59,0,0,0,0-.54q0-3.42,0-6.84a1.9,1.9,0,0,0-.05-.47.56.56,0,0,0-.49-.45,5.5,5.5,0,0,0-.62,0c-.12,0-.12,0-.13-.13s0-.28,0-.42,0-.09.08-.09h5.33a6.93,6.93,0,0,1,1.77.2,2.77,2.77,0,0,1,1.22.68,2.24,2.24,0,0,1,.7,1.54,2.53,2.53,0,0,1-.53,1.75,2.8,2.8,0,0,1-1.24.88,4.35,4.35,0,0,1-1.21.25l-.46,0s-.05,0-.06,0,0,0,0,.07l1,1.21,1,1.29,1,1.14c.05.06.08,0,.12,0l.74-.79a3,3,0,0,0,.39-.46.54.54,0,0,0,.07-.15.24.24,0,0,0-.18-.32,3.06,3.06,0,0,0-.53-.06c-.14,0-.14,0-.14-.14s0-.2,0-.29,0-.09.09-.08h2.83c.07,0,.1,0,.1.1s0,.21,0,.32,0,.12-.11.13a2.31,2.31,0,0,0-.39.09,1.83,1.83,0,0,0-.65.4c-.27.23-.5.5-.75.75l-1,1s-.05.08,0,.14l.71.84.95,1.08.76.86a2.45,2.45,0,0,0,.55.45,1.08,1.08,0,0,0,.41.13H27a.09.09,0,0,1,.09.1Q27.07,31.88,27.07,32.05Z" class="fill-p"/>
</svg>
