<svg id="_01" data-name="01" xmlns="http://www.w3.org/2000/svg" viewBox="0 0 40 40"><defs><style>.cls-1{fill:#5a5a5a;}</style></defs><title>Artboard 47</title><path class="cls-1" d="M20,0A20,20,0,1,0,40,20,20,20,0,0,0,20,0ZM8.38,25,6.29,16.85A1.62,1.62,0,1,1,9.43,16l2.09,8.17a1.62,1.62,0,0,1-3.14.8Zm4.1,8.53a1.62,1.62,0,0,1-2-1.17L9.43,28.19a1.62,1.62,0,0,1,3.14-.8l1.07,4.19A1.62,1.62,0,0,1,12.47,33.54ZM16.14,19,12.51,9a1.62,1.62,0,0,1,3-1.11l3.63,10a1.62,1.62,0,0,1-3,1.11ZM23,24.66l-.78,7.57A1.62,1.62,0,1,1,19,31.9l.78-7.58a1.62,1.62,0,1,1,3.22.33Zm3.56-10.59-1.39,2.85a1.62,1.62,0,1,1-2.91-1.42l1.39-2.85a1.62,1.62,0,0,1,2.91,1.42Zm-.37-2.37a1.62,1.62,0,0,1-.74-2.17l1.39-2.85a1.62,1.62,0,1,1,2.91,1.42L28.31,11A1.62,1.62,0,0,1,26.14,11.7Zm6.21,15.58a1.62,1.62,0,0,1-2.17-.74l-1.4-2.85a1.62,1.62,0,1,1,2.91-1.43l1.4,2.85A1.62,1.62,0,0,1,32.36,27.28Z"/></svg>