<svg xmlns="http://www.w3.org/2000/svg" id="_01" data-name="01" viewBox="0 0 40 40">
    <defs>
        <style>
            .cls-2{fill:#5a5a5a;}
        </style>
    </defs>
    <title>
        medical_03
    </title>
    <path d="M32,4.24A5.73,5.73,0,0,0,30.49.66a2.1,2.1,0,1,0-3,3A6.26,6.26,0,0,0,30.66,5.1a5.18,5.18,0,0,1,1.63,3.83,13.12,13.12,0,0,1-2,6.13c-.53,1-1.07,1.84-1.59,2.66a35.53,35.53,0,0,1-5.55.43,35.58,35.58,0,0,1-5.55-.43c-.53-.82-1.06-1.71-1.6-2.66a13.1,13.1,0,0,1-2-6.13A5.18,5.18,0,0,1,15.6,5.1a6.26,6.26,0,0,0,3.13-1.47,2.1,2.1,0,1,0-3-3,5.73,5.73,0,0,0-1.47,3.57,6.7,6.7,0,0,0-1.87,4.7,14.55,14.55,0,0,0,2.21,6.88A42,42,0,0,0,22.49,26.2v7.07a5.23,5.23,0,0,1-10.46,0,4.92,4.92,0,0,1,1.24-3.38,4.37,4.37,0,0,0,1.48-3,6,6,0,0,0-1.58-3.54l0,0-.63-.63a3.44,3.44,0,1,0-1.09,1.09l.56.56a4.58,4.58,0,0,1,1.23,2.55c0,.57-.32,1.11-1.06,1.9a6.45,6.45,0,0,0-1.65,4.43,6.77,6.77,0,1,0,13.54,0V26s0,0,0,0a43.17,43.17,0,0,0,7.59-10.14,14.57,14.57,0,0,0,2.21-6.88A6.69,6.69,0,0,0,32,4.24ZM23.13,19.69a38,38,0,0,0,4.4-.26c-.72,1-1.4,1.9-2,2.64H20.75c-.62-.74-1.3-1.63-2-2.64A38,38,0,0,0,23.13,19.69Z" class="fill-p"/>
</svg>
