<svg xmlns="http://www.w3.org/2000/svg" id="_01" data-name="01" viewBox="0 0 40 40">
    <defs>
        <style>
            .cls-2{fill:#5a5a5a;fill-rule:evenodd;}
        </style>
    </defs>
    <title>
        weather_04
    </title>
    <path d="M16.5,21.83a5.67,5.67,0,0,1-4.94-2.41L0,40H32.71L21.33,19.6A5.77,5.77,0,0,1,16.5,21.83Z" class="fill-p"/>
    <path d="M37.7,4.55s0-.05,0-.08a3.24,3.24,0,0,0-6.23-1.23l-.05,0a3.1,3.1,0,0,0-4.82-2,3.06,3.06,0,0,0-3.53.65,3.06,3.06,0,0,0-4.46-.46,3.74,3.74,0,0,0-6.67,2A3.75,3.75,0,0,0,9.87,9.57,4.19,4.19,0,0,0,11.1,16a5.37,5.37,0,1,0,10.26-3,3.11,3.11,0,0,0,1.37-1.38,3.19,3.19,0,0,0,1.5.39,3.23,3.23,0,0,0,2.88-1.79,3.21,3.21,0,0,0,5.13-.66h.14a3.2,3.2,0,0,0,1.53-.4A3.23,3.23,0,1,0,37.7,4.55Z" class="fill-p"/>
</svg>