<svg xmlns="http://www.w3.org/2000/svg" id="_01" data-name="01" viewBox="0 0 40 40">
    <defs>
        <style>
            .cls-2{fill:#5a5a5a;fill-rule:evenodd;}
        </style>
    </defs>
    <title>
        weather_05
    </title>
    <path d="M18.86,25.3l6.67.27L18.39,24A29.72,29.72,0,0,0,16,18.62l10.26.32L14.79,17a7.73,7.73,0,0,0-3.61-2.24C4.19,11.42.92,8.38,1,5.58,16.59,8.95,29.8,9,38.84,5.58c.61,2.49-.55,4.48-1.92,6.42L23.57,14.28l12-.38c-1.3,1.89-2.32,3.87-1.65,6.34L27.5,21.89l6.91-.33.2.38c1.19,3.06-1.38,5.56-4.74,8.76l-6.79,1.74,5.23-.25A34.53,34.53,0,0,0,21.93,40C23.85,32.67,19.27,31.3,18.86,25.3Z" class="fill-p"/>
    <path d="M1,5.59l8.57,2.8C35.84,6.18,52,3.41,24.55,0,36.58,4.71,18.93,3.85,1,5.59Z" class="fill-p"/>
</svg>
