<svg data-name="01" height="40px" id="_01" viewbox="0 0 40 40" width="40px" xmlns="http://www.w3.org/2000/svg">
	<defs>
		<style>
		.cls-2{fill:#5a5a5a;fill-rule:evenodd;}
		</style>
	</defs>
	<title>weather_07</title>
	<polygon class="fill-p" points="0 16.69 0 40.05 40 40.05 40 12.72 32.94 13.48 30.73 17.36 34.89 20.46 31.51 24.23 32.67 40.05 28.89 24.9 31.51 21.13 25.03 17.65 25.31 14.08 0 16.69"></polygon>
	<polygon class="fill-p" points="8.45 16.62 8.05 10.76 5.81 10.94 12.29 6.35 15.85 8.09 19.41 9.84 17.17 10.02 17.56 15.89 14.29 16.15 13.99 11.5 11.43 11.7 11.73 16.36 8.45 16.62"></polygon>
	<path class="fill-p" d="M5.61,14.51a8.14,8.14,0,0,1-1.19-4.17A6.34,6.34,0,0,1,6,6.41a.41.41,0,0,1,.63.51,5.51,5.51,0,0,0-1.37,3.44,7.39,7.39,0,0,0,1.08,3.76.4.4,0,0,1-.71.4Z"></path>
	<path class="fill-p" d="M3,15.24a9.69,9.69,0,0,1-1.44-5,7.55,7.55,0,0,1,1.9-4.71A.41.41,0,0,1,4,6a6.72,6.72,0,0,0-1.71,4.21,8.9,8.9,0,0,0,1.33,4.58.4.4,0,0,1-.7.4Z"></path>
	<path class="fill-p" d="M19.49,12.82a.41.41,0,0,1-.24-.52,7.18,7.18,0,0,0,.42-3.83,5.42,5.42,0,0,0-1.95-3.1.41.41,0,0,1,0-.57.4.4,0,0,1,.57-.05,6.22,6.22,0,0,1,2.22,3.56A8,8,0,0,1,20,12.57.4.4,0,0,1,19.49,12.82Z"></path>
	<path class="fill-p" d="M22.21,13.12A.41.41,0,0,1,22,12.6c1.22-3.44.79-6.33-1.9-8.6a.4.4,0,1,1,.52-.62c3,2.52,3.45,5.79,2.14,9.48A.4.4,0,0,1,22.21,13.12Z"></path>
</svg>