<svg id="_01" data-name="01" xmlns="http://www.w3.org/2000/svg" viewBox="0 0 40 40"><defs><style>.cls-2{fill:#5a5a5a;fill-rule:evenodd;}</style></defs><title>Artboard 60</title><rect class="cls-1" y="0.05" width="40" height="40"/><polygon class="cls-2" points="0 40.05 3.4 16.43 5.57 14.94 8.89 16.43 12.89 10.94 16.55 4.42 22.04 3.05 32 40.05 0 40.05"/><polygon class="cls-2" points="27.97 8.27 26.28 10.74 28.36 12.95 28.36 15.54 33.29 14.9 33.94 11.52 27.97 8.27"/><polygon class="cls-2" points="33 21.5 31.24 23.85 34.32 25.61 35.8 24.73 33 21.5"/><polygon class="cls-2" points="34.72 16.43 36.5 14.84 38.31 19.91 35.69 20.94 33.41 19.39 34.72 16.43"/><polygon class="cls-2" points="25.18 5.1 24.92 7.37 27.69 7.34 28.33 6.17 25.18 5.1"/><polygon class="cls-2" points="37.7 29.61 36.42 27.72 38.89 26.46 40 27.2 37.7 29.61"/></svg>