<svg id="_01" data-name="01" xmlns="http://www.w3.org/2000/svg" viewBox="0 0 40 40"><defs><style>.cls-1{fill:#5a5a5a;}.cls-2{fill:none;}</style></defs><title>Artboard 63</title><path class="cls-1" d="M38.28,35.5a2.67,2.67,0,0,1-3.77,3.77L20.28,25a4,4,0,0,1-5.66,0L8,18.4a23.55,23.55,0,0,1-7-17A1.3,1.3,0,0,1,1.77.15,1.31,1.31,0,0,1,3.23.44Z"/><path class="cls-1" d="M30.19.44a1.33,1.33,0,0,1,1.89,1.89L25.19,9.21a1.33,1.33,0,0,0,1.89,1.89L34,4.21A1.33,1.33,0,1,1,35.84,6.1L29,13a1.33,1.33,0,0,0,1.88,1.88L37.73,8a1.33,1.33,0,1,1,1.88,1.89l-8.77,8.77a4,4,0,0,1-5.66,0l-3.77-3.77a4,4,0,0,1,0-5.66Z"/><path class="cls-1" d="M4.56,39.27A2.67,2.67,0,0,1,.79,35.5L11,25.24l1.69,1.69a6.63,6.63,0,0,0,2.57,1.6Z"/><rect class="cls-2" y="0.05" width="40" height="40"/></svg>