<svg xmlns="http://www.w3.org/2000/svg" id="_01" data-name="01" viewBox="0 0 40 40">
    <defs>
        <style>
            .cls-2{fill:#5a5a5a;}
        </style>
    </defs>
    <title>
        hazard_03
    </title>
    <path d="M6.08,26.73h3s.57-.61,1.35-1.31a3.89,3.89,0,0,1,1.88-1.15,3.83,3.83,0,0,1,1.6.24,27.14,27.14,0,0,0,3.8,1.15,13.51,13.51,0,0,0,3.48,0,25.94,25.94,0,0,0,3.68-1.11c.82-.29,1.77-.58,2.44-.1a2.1,2.1,0,0,1,.92,1.65c.08.65.37,3.27.37,3.27l.16,1s.25.34,1.6.41a9.07,9.07,0,0,0,3.37-.41c.74-.29.8-.57.8-.57L34,25a7.61,7.61,0,0,0-1.29-3.44,8.16,8.16,0,0,0-3.82-2.78c-1.6-.68-2.7-.61-3.93-1.27S22.44,16,22.4,14.94a12.49,12.49,0,0,1,.39-2.78l0-.2-6.71,0s.07.26.16.78a10.6,10.6,0,0,1,.33,2,2.52,2.52,0,0,1-1.11,2.13A10.45,10.45,0,0,1,13.36,18l-1.27,0s-1.27-.72-1.92-1.19-1.27-1-1.27-1H6.08l-.57,2.95v5.81l.57,2.17Z" class="fill-p"/>
    <polygon points="14.79 11.79 14.63 9.99 17.25 7.99 21.74 8 24.48 9.96 24.45 11.79 22.79 12.16 22.79 12.16 16.14 12.15 14.79 11.79" class="fill-p"/>
    <path d="M18,8.26V6.54s.82-.1,1.43-.14a8.48,8.48,0,0,1,1.76.19V8.28L18,8.26Z" class="fill-p"/>
    <path d="M21.15,7s.5-.21.58-.42a2.54,2.54,0,0,1,.39-1.18,1.68,1.68,0,0,1,1.64-.74,14.8,14.8,0,0,1,2.46.74,3.41,3.41,0,0,0,2.66-.16A2.46,2.46,0,0,0,30,2.62,2,2,0,0,0,27.88.79c-1.27-.09-2,.53-2.87.61A3.55,3.55,0,0,1,22.44.67,5,5,0,0,0,19.33.06a3.49,3.49,0,0,0-2.21.45,12.6,12.6,0,0,1-1.81,1,2.18,2.18,0,0,1-1.38-.13,7.9,7.9,0,0,0-2-.65,3.1,3.1,0,0,0-2,.49,2.2,2.2,0,0,0-.78,1.64,3.26,3.26,0,0,0,.7,2,2.56,2.56,0,0,0,2.33.69,10,10,0,0,0,2.21-.86A2.7,2.7,0,0,1,16.71,5a2,2,0,0,1,.62,1.35c0,.24.61.66.61.66Z" class="fill-p"/>
    <path d="M31.79,32.39c.62,2.55,2.48,3.83,2.48,5.11A2.31,2.31,0,0,1,31.79,40a2.31,2.31,0,0,1-2.48-2.55c0-1.28,1.86-2.55,2.48-5.11Z" class="fill-p"/>
</svg>