<svg xmlns="http://www.w3.org/2000/svg" id="_01" data-name="01" viewBox="0 0 40 40">
    <defs>
        <style>
            .cls-2{fill:#5a5a5a;}
        </style>
    </defs>
    <title>
        idea_01
    </title>
    <path d="M20,8.15a9.6,9.6,0,0,0-7.83,15.16c1.34,2.23,3,4.61,3,7.06v.14a.32.32,0,0,0,.32.32h8.94a.32.32,0,0,0,.32-.32v-.14c0-2.59,1.81-5,3.15-7.21A9.6,9.6,0,0,0,20,8.15Z" class="fill-p"/>
    <path d="M23.84,35H16.18a1,1,0,1,0,0,1.92h7.66a1,1,0,0,0,0-1.92Z" class="fill-p"/>
    <path d="M23.84,32H16.18a1,1,0,1,0,0,1.92h7.66a1,1,0,0,0,0-1.92Z" class="fill-p"/>
    <path d="M17.13,38.13c-.17,0-.22.1-.09.23l1.47,1.47A.88.88,0,0,0,19,40H21a.89.89,0,0,0,.54-.23L23,38.36c.12-.12.08-.23-.09-.23Z" class="fill-p"/>
    <path d="M30.75,24.83a.17.17,0,0,0-.23,0l-1.14,1.42a.17.17,0,0,0,0,.23l3.26,3.1a.15.15,0,0,0,.22,0l1.64-2.06a.15.15,0,0,0,0-.22Z" class="fill-p"/>
    <path d="M37.26,20l-4.46-.62a.17.17,0,0,0-.19.14l-.41,1.83a.17.17,0,0,0,.11.2l4.28,1.37a.15.15,0,0,0,.2-.11l.59-2.56,0-.19S37.35,20,37.26,20Z" class="fill-p"/>
    <path d="M32.21,13.89l.4,1.78a.17.17,0,0,0,.19.13l4.46-.64a.15.15,0,0,0,.13-.18l-.59-2.57a.15.15,0,0,0-.2-.1l-4.28,1.38A.17.17,0,0,0,32.21,13.89Z" class="fill-p"/>
    <path d="M30.52,10.4a.17.17,0,0,0,.23,0l3.73-2.5a.15.15,0,0,0,0-.22L32.87,5.66a.15.15,0,0,0-.22,0L29.38,8.74a.17.17,0,0,0,0,.23Z" class="fill-p"/>
    <path d="M24.69,5.76l1.64.79a.17.17,0,0,0,.22-.06l2.28-3.88a.15.15,0,0,0-.06-.21L26.4,1.26a.15.15,0,0,0-.2.09l-1.6,4.2A.17.17,0,0,0,24.69,5.76Z" class="fill-p"/>
    <path d="M19.08,4.9s.56,0,.93,0,.9,0,.9,0a.16.16,0,0,0,.17-.15L21.46.27A.16.16,0,0,0,21.31.1S20.48,0,20,0,18.67.1,18.67.1a.16.16,0,0,0-.14.17l.38,4.49A.16.16,0,0,0,19.08,4.9Z" class="fill-p"/>
    <path d="M13.44,6.5a.17.17,0,0,0,.22.06l1.64-.79a.17.17,0,0,0,.09-.21l-1.61-4.2a.15.15,0,0,0-.21-.09L11.21,2.42a.15.15,0,0,0-.06.21Z" class="fill-p"/>
    <path d="M9.26,10.46a.17.17,0,0,0,.23,0L10.63,9a.17.17,0,0,0,0-.23L7.34,5.67a.16.16,0,0,0-.22,0L5.48,7.74a.15.15,0,0,0,0,.22Z" class="fill-p"/>
    <path d="M6.62,15.74l.31,0,.28,0a.17.17,0,0,0,.19-.13l.4-1.79a.17.17,0,0,0-.11-.2L3.41,12.35a.15.15,0,0,0-.19.11L2.63,15l0,.16v0s.07,0,.15.06Z" class="fill-p"/>
    <path d="M7.8,21.35l-.4-1.78a.17.17,0,0,0-.19-.13l-4.46.63a.15.15,0,0,0-.13.18l.59,2.57a.15.15,0,0,0,.19.11l4.29-1.37A.17.17,0,0,0,7.8,21.35Z" class="fill-p"/>
    <path d="M9.49,24.85a.17.17,0,0,0-.23,0L5.52,27.3a.16.16,0,0,0,0,.22l1.64,2.06a.15.15,0,0,0,.22,0l3.27-3.09a.17.17,0,0,0,0-.23Z" class="fill-p"/>
</svg>
