<svg xmlns="http://www.w3.org/2000/svg" id="_01" data-name="01" viewBox="0 0 40 40">
    <defs>
        <style>
            .cls-2{fill:#5a5a5a;}
        </style>
    </defs>
    <title>
        book_03
    </title>
    <path d="M39.45,16.71l.15-.08a.72.72,0,0,0,.18-.13l0-.05a.79.79,0,0,0,.1-.15.65.65,0,0,0,0-.11.73.73,0,0,0,0-.12.74.74,0,0,0,0-.13.14.14,0,0,0,0,0,.8.8,0,0,0,0-.14.53.53,0,0,0,0-.09l0-.07a.78.78,0,0,0-.09-.13l-.09-.08-.13-.08-.08,0,0,0a1.44,1.44,0,0,1-1-1.44,1.85,1.85,0,0,1,.9-1.6l.18-.09a.74.74,0,0,0,.34-.36h0l0-.09h0a.74.74,0,0,0,0-.44l0-.09a.72.72,0,0,0-.32-.33l-.09,0h0L21,4.17a.75.75,0,0,0-.58,0c-.65.32-15.89,8-17.18,8.67L3,13c-1.27.68-3,1.62-3,4.39A4,4,0,0,0,.54,19.6,4.6,4.6,0,0,0,0,21.89a4,4,0,0,0,.54,2.22A4.6,4.6,0,0,0,0,26.4c0,2.65,1.49,3.24,2.69,3.71l.24.1c.69.28,13.76,4.9,15.82,5.63l.2.07.05,0h0l.06,0,.17,0h0a.72.72,0,0,0,.3-.07h0l20-10.24a.74.74,0,0,0,.4-.72.75.75,0,0,0-.52-.65,1.44,1.44,0,0,1-1-1.44,1.84,1.84,0,0,1,.93-1.62l.15-.08a.7.7,0,0,0,.18-.14l0-.05a.77.77,0,0,0,.1-.15.7.7,0,0,0,0-.11.64.64,0,0,0,0-.12.67.67,0,0,0,0-.13.13.13,0,0,0,0,0,.72.72,0,0,0,0-.14.55.55,0,0,0,0-.09l0-.07A.78.78,0,0,0,39.8,20l-.09-.08-.13-.08-.08,0,0,0a1.44,1.44,0,0,1-1-1.44A1.84,1.84,0,0,1,39.45,16.71ZM20.9,8.14l11,3.88L28.14,14,17.14,10ZM17.09,33.68C11.6,31.74,4,29,3.49,28.84l-.25-.1C2.14,28.3,1.48,28,1.48,26.4a3.45,3.45,0,0,1,.21-1.25,8.34,8.34,0,0,0,1,.45l.24.1c.62.25,11.15,4,14.84,5.34a3.22,3.22,0,0,0-.73,2.1A3.39,3.39,0,0,0,17.09,33.68Zm0-5a3.36,3.36,0,0,0,0,.52c-5.48-2-13.11-4.7-13.59-4.9l-.25-.1a4.06,4.06,0,0,1-1.16-.6.74.74,0,0,0-.14-.17l-.05,0a2.32,2.32,0,0,1-.41-1.54,3.45,3.45,0,0,1,.21-1.25,8.42,8.42,0,0,0,1,.45l.24.1c.61.25,11.16,4.07,14.84,5.4A3.22,3.22,0,0,0,17,28.7Zm0-4.44a3.37,3.37,0,0,0,0,.51C11.6,22.78,4,20,3.49,19.82l-.25-.1a4,4,0,0,1-1.16-.6.71.71,0,0,0-.14-.17l-.05,0a2.33,2.33,0,0,1-.41-1.54c0-.38.07-.65.2-.74.39-.27,1.7.2,2.48.48l.25.09c1.34.48,10.11,3.72,13.38,4.93A3.23,3.23,0,0,0,17,24.26Zm2.18,10.17a1.33,1.33,0,0,1-.7-1.28,1.86,1.86,0,0,1,1-1.67l0,0h0l17.46-9a3.56,3.56,0,0,0,0,.39,3,3,0,0,0,.77,2.06Zm0-4.45a1.33,1.33,0,0,1-.7-1.28,1.86,1.86,0,0,1,1-1.67h.05L37.06,18a3.4,3.4,0,0,0,0,.38,3,3,0,0,0,.77,2.07Zm0-4.45a1.33,1.33,0,0,1-.69-1.28,1.86,1.86,0,0,1,1-1.67l0,0h0l17.45-9.11c0,.12,0,.24,0,.37a3,3,0,0,0,.78,2.07Z" class="fill-p"/>
</svg>
