<svg xmlns="http://www.w3.org/2000/svg" id="_01" data-name="01" viewBox="0 0 40 40">
    <title>
        food_03
    </title>
    <path d="M35.75,10c-1-3.6-.93-6.73.9-9a3,3,0,0,1,.94-.83c.73-.35,2.18.24,1.82,1.07A1.28,1.28,0,0,1,39,1.7,8.36,8.36,0,0,0,35.75,10Z" class="fill-p fr-evenodd"/>
    <path d="M18.4,25.11a3.76,3.76,0,0,1,4.49.14,3,3,0,0,1-.27,1,2.9,2.9,0,0,1-.85,1.08,3.78,3.78,0,0,0-3.11-.59,3.73,3.73,0,0,0-.26-1.69Zm5.42,1.22a3.73,3.73,0,0,1,.47,2.29,3.72,3.72,0,0,0-1.31.2,3.82,3.82,0,0,0-.37-.62,4.47,4.47,0,0,0,1-1.43,4.55,4.55,0,0,0,.18-.44Z" class="fill-p fr-evenodd"/>
    <path d="M37.5,8.32c.39-3.35-2.58-4.83-5-2.49A16.07,16.07,0,0,0,30.3,9c-.9,1.44-2.7,3.39-4.65,2.52a5.26,5.26,0,0,0,1.89,1.23c-1.27,1.42-2.47,1.44-3.83,2.76-1.56,1.52-1.51,3.43-3.16,5.12-1.4,1.43-2.93,1.57-4.26,2.87s-1.6,2.81-3.17,4.18c-1.79,1.57-3.76,1.38-5.35,2.92S6.3,33,4.31,34.3c-3.11,2-2.44,2.82-3.78,2.35,2.84,2,5.13,3,7.3,3.31,10.55,1.36,22.95-12.56,26.6-22a7,7,0,0,0,.4-1.57,5.19,5.19,0,0,0,2.25.85c-1.88-1-1.41-3.64-.8-5.23A16.17,16.17,0,0,0,37.5,8.32ZM13.6,37.73a3.92,3.92,0,1,1,.6-5.51A3.92,3.92,0,0,1,13.6,37.73Zm10.07-5.64a5,5,0,1,1,.77-7A5,5,0,0,1,23.67,32.09ZM30,22.33a3.92,3.92,0,1,1,.6-5.51A3.92,3.92,0,0,1,30,22.33Z" class="fill-p"/>
    <path d="M9.46,32.25a3,3,0,0,1,3.52.11A2.32,2.32,0,0,1,12.1,34a3,3,0,0,0-2.44-.46,2.93,2.93,0,0,0-.2-1.32Zm4.25,1a3,3,0,0,1,.37,1.8,3,3,0,0,0-1,.16,2.91,2.91,0,0,0-.29-.48,3.54,3.54,0,0,0,.82-1.12c.05-.12.1-.23.14-.35Z" class="fill-p fr-evenodd"/>
    <path d="M25.84,16.84a3,3,0,0,1,3.52.11,2.33,2.33,0,0,1-.21.83,2.26,2.26,0,0,1-.67.85A3,3,0,0,0,26,18.17a3,3,0,0,0-.2-1.33Zm4.25,1a2.94,2.94,0,0,1,.37,1.8,3,3,0,0,0-1,.16,2.85,2.85,0,0,0-.29-.48A3.52,3.52,0,0,0,30,18.15a3.34,3.34,0,0,0,.14-.35Z" class="fill-p fr-evenodd"/>
</svg>