<svg xmlns="http://www.w3.org/2000/svg" id="_01" data-name="01" viewBox="0 0 40 40">
    <defs>
        <style>
            .cls-2{fill:#5a5a5a;}
        </style>
    </defs>
    <title>
        email_01
    </title>
    <path d="M35.67,10.21a2.09,2.09,0,0,1,2.09,2.09V27.7a2.09,2.09,0,0,1-2.09,2.09H4.33A2.09,2.09,0,0,1,2.24,27.7V12.3a2.09,2.09,0,0,1,2.09-2.09H35.67m0-2.24H4.33A4.33,4.33,0,0,0,0,12.3V27.7A4.34,4.34,0,0,0,4.33,32H35.67A4.34,4.34,0,0,0,40,27.7V12.3A4.33,4.33,0,0,0,35.67,8" class="fill-p"/>
    <polygon points="23.78 21.31 31.79 30.2 31.07 30.7 23.78 21.31" class="fill-p"/>
    <polygon points="15.26 21.31 7.97 30.7 7.25 30.2 15.26 21.31" class="fill-p"/>
    <path d="M20.59,17.21,21,15a1.31,1.31,0,0,0-.31-.14,1.34,1.34,0,0,0-.4-.06,1,1,0,0,0-.83.54,2.47,2.47,0,0,0-.34,1.34,1.1,1.1,0,0,0,.16.68.6.6,0,0,0,.51.21.9.9,0,0,0,.4-.09,1.86,1.86,0,0,0,.39-.26m2.27,1.18H20.53V18a3.42,3.42,0,0,1-.5.27,1.61,1.61,0,0,1-.6.09,1.27,1.27,0,0,1-1-.44A1.77,1.77,0,0,1,18,16.76a3.1,3.1,0,0,1,.66-2A1.94,1.94,0,0,1,20.25,14a1.44,1.44,0,0,1,.53.09,1.22,1.22,0,0,1,.4.24l.05-.28h1l-.7,3.62h.8a3.86,3.86,0,0,0,.44-1,4.47,4.47,0,0,0,.14-1.12,2.41,2.41,0,0,0-.61-1.74,2.34,2.34,0,0,0-1.76-.64,3,3,0,0,0-1.23.27,3.45,3.45,0,0,0-1.07.77,3.74,3.74,0,0,0-1,2.58,2.91,2.91,0,0,0,.19,1.1,2.22,2.22,0,0,0,.51.78,2.19,2.19,0,0,0,.77.48,2.77,2.77,0,0,0,1,.16,6.3,6.3,0,0,0,.89-.08,6.85,6.85,0,0,0,.85-.17l-.12.86c-.29.06-.57.11-.84.14a7.86,7.86,0,0,1-.9,0,3.25,3.25,0,0,1-2.36-.87,3.12,3.12,0,0,1-.9-2.36,4.45,4.45,0,0,1,.33-1.7,4.68,4.68,0,0,1,.92-1.44,4.43,4.43,0,0,1,1.39-1,4.06,4.06,0,0,1,1.73-.37,3,3,0,0,1,3.19,3.16,4.79,4.79,0,0,1-.29,1.6,4.9,4.9,0,0,1-.71,1.35" class="fill-p"/>
    <path d="M18.46,22.68,4.67,11.17,18.46,25a1.9,1.9,0,0,0,2.67,0L34.77,11.26,21.14,22.66a1.9,1.9,0,0,1-2.67,0" class="fill-p"/>
</svg>