<svg id="_01" data-name="01" xmlns="http://www.w3.org/2000/svg" viewBox="0 0 40 40"><defs><style>.cls-2{fill:#5a5a5a;}</style></defs><title>Artboard 80</title><rect class="cls-1" width="40" height="40"/><path class="cls-2" d="M19.63,20.44a3.91,3.91,0,1,0-3.91-3.91,3.91,3.91,0,0,0,3.91,3.91"/><path class="cls-2" d="M28.89,18.5A3.91,3.91,0,1,0,25,14.59a3.91,3.91,0,0,0,3.91,3.91"/><path class="cls-2" d="M10.36,18.5a3.91,3.91,0,1,0-3.91-3.91,3.91,3.91,0,0,0,3.91,3.91"/><path class="cls-2" d="M31.31,19.46H26.46a4.05,4.05,0,0,0-2.77,1,5.18,5.18,0,0,1,3.56,5v8A15.23,15.23,0,0,0,35,21.88a4,4,0,0,0-3.73-2.42"/><path class="cls-2" d="M15.56,20.44a4.1,4.1,0,0,0-2.78-1H7.93A4,4,0,0,0,4.6,21.18,15.06,15.06,0,0,0,12,33.08V25.39a5.19,5.19,0,0,1,3.57-5"/><path class="cls-2" d="M22,21H17.2A4.35,4.35,0,0,0,13,25.39v8.33a15.62,15.62,0,0,0,6.81,1.58,16.11,16.11,0,0,0,6.34-1.36V25.39A4.35,4.35,0,0,0,22,21"/><path class="cls-2" d="M20,0A20,20,0,1,0,40,20,20,20,0,0,0,20,0m0,37.5A17.52,17.52,0,0,1,2.5,20a17.83,17.83,0,0,1,.11-2A17.52,17.52,0,0,1,19.94,2.5H20a17.5,17.5,0,1,1,0,35"/></svg>