<svg xmlns="http://www.w3.org/2000/svg" id="_01" data-name="01" viewBox="0 0 40 40">
    <defs>
        <style>
            .cls-2{fill:#5a5a5a;}
        </style>
    </defs>
    <title>
        badge_03
    </title>
    <path d="M34.62,3.46S30,8.08,20,0C10,8.08,5.38,3.46,5.38,3.46c.61,6.24,3,11.44,1.73,15.3C2.7,31.92,16.54,36.15,20,40c3.46-3.85,17.31-8.08,12.89-21.24C31.59,14.9,34,9.71,34.62,3.46M28.8,16.81l-3.69,3.48a.71.71,0,0,0-.21.62l.77,5a.7.7,0,0,1-1,.72l-4.45-2.43a.69.69,0,0,0-.65,0L15,26.49a.7.7,0,0,1-1-.76l.94-5a.7.7,0,0,0-.19-.62l-3.57-3.6a.7.7,0,0,1,.41-1.19l5-.65a.69.69,0,0,0,.53-.38L19.48,9.8a.7.7,0,0,1,1.26,0l2.17,4.58a.7.7,0,0,0,.52.39l5,.81a.7.7,0,0,1,.37,1.2" class="fill-p"/>
</svg>
