<svg xmlns="http://www.w3.org/2000/svg" id="_01" data-name="01" viewBox="0 0 40 40">
    <defs>
        <style>
            .cls-2{fill:#5a5a5a;}
        </style>
    </defs>
    <title>
        people_03
    </title>
    <path d="M36.1,8.3a3,3,0,1,1-3-3,3,3,0,0,1,3,3" class="fill-p"/>
    <path d="M33.2,12.06h-.12c-5.58.11-7.56,7.39-6.54,7.89.83.41,3.16-4.17,4-4.17s0,2.36-.37,4.21c-.79,3.95-1.58,14.67-.38,14.67s1.77-9.93,3.37-10.19c1.61.25,2.18,10.19,3.37,10.19s.42-10.72-.37-14.67c-.37-1.85-1.2-4.21-.38-4.21s3.16,4.59,4,4.17c1-.51-1-7.78-6.54-7.89" class="fill-p"/>
    <path d="M9.82,8.3a3,3,0,1,1-3-3,3,3,0,0,1,3,3" class="fill-p"/>
    <path d="M6.92,12.06H6.8C1.22,12.17-.76,19.45.26,20c.83.41,3.16-4.17,4-4.17s0,2.36-.38,4.21c-.79,3.95-1.58,14.67-.37,14.67s1.77-9.93,3.37-10.19c1.61.25,2.18,10.19,3.37,10.19S10.65,23.94,9.86,20c-.37-1.85-1.2-4.21-.37-4.21s3.16,4.59,4,4.17c1-.51-1-7.78-6.54-7.89" class="fill-p"/>
    <path d="M22.54,19.14A2.11,2.11,0,1,1,20.43,17a2.11,2.11,0,0,1,2.11,2.11" class="fill-p"/>
    <path d="M20.47,21.82h-.21c-3.92-.06-5.26-1.91-5.54-1.47-.63,1,3.46,3,3.81,3.38s0,2.26-.24,3.58c-.56,2.82-1.13,7.34-.27,7.34s1.26-4.86,2.41-5c1.15.18,1.56,5,2.41,5s.29-4.52-.27-7.34c-.26-1.32-.83-3.46-.25-3.6,2.45-.59,3.89-2.82,3.54-3.12S24.27,22,20.47,21.82" class="fill-p"/>
</svg>