<svg xmlns="http://www.w3.org/2000/svg" id="_01" data-name="01" viewBox="0 0 40 40">
    <defs>
        <style>
            .cls-2{fill:#5a5a5a;}
        </style>
    </defs>
    <title>
        direction_01
    </title>
    <path d="M22.06,1.85a1.89,1.89,0,0,0-3.79,0V2.3h3.79Z" class="fill-p"/>
    <rect width="3.79" height="2.84" x="18.28" y="11.28" class="fill-p"/>
    <path d="M18.28,34v4.16a1.89,1.89,0,0,0,3.79,0v-15H18.28Z" class="fill-p"/>
    <path d="M38.09,6.52,34.91,4.19a3,3,0,0,0-1.49-.48H17.58a.73.73,0,0,0-.72.81V9.2c0,.45.26.67.72.67H33.51A3.06,3.06,0,0,0,35,9.48l3.06-2a.54.54,0,0,0,0-.95" class="fill-p"/>
    <path d="M22.42,15.54H6.58A3,3,0,0,0,5.09,16L1.91,18.33a.53.53,0,0,0,0,.93L5,21.31a3.06,3.06,0,0,0,1.5.38H22.42c.45,0,1.06-.2,1.06-.66V16.37c0-.45-.6-.82-1.06-.82" class="fill-p"/>
</svg>