<svg xmlns="http://www.w3.org/2000/svg" id="_01" data-name="01" viewBox="0 0 40 40">
    <defs>
        <style>
            .cls-2{fill:#5a5a5a;}
        </style>
    </defs>
    <title>
        people_05
    </title>
    <path d="M26.15,25.71,23.1,21.14a.67.67,0,0,0-.31-.25.37.37,0,0,0-.2-.06H17.17a.37.37,0,0,0-.2.06.66.66,0,0,0-.31.24l-3.05,4.57a1,1,0,0,0,1.55,1l2.19-3.27v.3l-1.44,6.64h1.44v3.32a1.24,1.24,0,0,0,1.07,1.34,1.23,1.23,0,0,0,1.07-1.34V30.41h.76v3.32a1.23,1.23,0,0,0,1.07,1.34,1.23,1.23,0,0,0,1.07-1.34V30.41h1.44L22.4,23.77v-.3l2.19,3.27a1,1,0,0,0,1.56-1Z" class="fill-p"/>
    <circle cx="19.88" cy="18.28" r="1.91" class="fill-p"/>
    <circle cx="34.14" cy="8.12" r="3.11" class="fill-p"/>
    <path d="M27.74,27.73l4.6.08v6.08c0,.65.7,1.18,1.57,1.18H34c.87,0,1.57-.53,1.57-1.18V27.81H38s-.69-3.55-1.1-6.54a1.37,1.37,0,0,0,.22-.2l2.54-3.12a1,1,0,0,0,0-1.45h0l-.11-.13s-3.15-3.23-4.13-3.91a2.41,2.41,0,0,0-1-.32,2.74,2.74,0,0,0-1.66.56,5.72,5.72,0,0,0-2.11,2.88,4.41,4.41,0,0,0,.21,2.16,3.31,3.31,0,0,0-2.35,2.17h0C27.54,22.11,27.74,27.73,27.74,27.73Zm8.92-9c0-.25,0-.47,0-.67,0-.51,0-1-.05-1.46l1,1Z" class="fill-p"/>
    <path d="M6.88,10.18a2.68,2.68,0,1,0-1.6-3.43,2.68,2.68,0,0,0,1.6,3.43" class="fill-p"/>
    <path d="M9.69,20.91,8.2,12.5a3,3,0,0,0-1.66-1.88,2.43,2.43,0,0,0-2.67.75C2.69,12.87,2.25,15.16,2,22c.07,3.64.86,3.14,1,5.48a26.76,26.76,0,0,1-.47,5.74c0,.6,0,1.22,0,1.88H6.89V34l-1.55-.71.77-5.48a4.12,4.12,0,0,0,0-.83l-.56-5.36c1.35-1.82.88-4,1.4-5.87l.84,6a1.1,1.1,0,0,0,1.42.46,1,1,0,0,0,.47-1.39" class="fill-p"/>
    <rect width="0.25" height="6.63" x="9.19" y="22.07" class="fill-p" transform="translate(-3.47 1.56) rotate(-8.07)"/>
    <path d="M11.39,29.58l0,.13a6.85,6.85,0,0,1-1.62-.79c-.18.47-.38,1-.8,1.16a5.08,5.08,0,0,1-2,.26c-.38,0-.87,0-1.34,0a4.54,4.54,0,0,0-.78.05c-.24,0-.46.1-.7.12-1.31.11-1.61-.74-2.09-1a.27.27,0,0,0-.16,0c-.34,0-.38,1,.24,1.41a2.27,2.27,0,0,0,1.58.48l.23,0a7.88,7.88,0,0,0-.1,1.39c0,.34-.78.9-.84,1a4.45,4.45,0,0,0,.1,1.1c0,.24.18.28.25.28H3.9c.19,0,.22-.19.2-.31a.16.16,0,0,0,0-.09H4c-.09-.05-.4-.08-.4-.18v-.55s.06-.1.26-.22l1-.59a1.81,1.81,0,0,0,.81-.82,3.21,3.21,0,0,1,.7.08c.55.12,1,.35,1.28.44A5,5,0,0,0,8.93,33h.22a4.74,4.74,0,0,0,.54-.05c.12.64.29,1.61.31,1.74a.51.51,0,0,0,.12.25.47.47,0,0,0,.35.17h.18c.3,0,.3-.3,0-.48s-.13-.3-.13-.56a2.26,2.26,0,0,1,.19-.91c.11-.26.46-1,.59-1.35a3.17,3.17,0,0,0,.2-1.36C11.47,30,11.42,29.73,11.39,29.58Z" class="fill-p"/>
    <path d="M12.84,28.41,12.07,28a.87.87,0,0,0-.82-.56h-.06l-.12-.25,0-.1c0-.15.11-.5,0-.5s-.11,0-.23.18a1.09,1.09,0,0,0-.35.95,2.18,2.18,0,0,0-.58.89,7.7,7.7,0,0,0,1.5.77c0-.24.14-.39.26-.39h0l.63.08h.06a.83.83,0,0,0,.5-.17l.13-.15C13.12,28.6,13,28.5,12.84,28.41Z" class="fill-p"/>
    <path d="M9.53,33.08l-.35,0c.11.59.23,1.26.24,1.36a.51.51,0,0,0,.47.42h0a.59.59,0,0,1-.09-.23C9.79,34.53,9.62,33.56,9.53,33.08Z" class="fill-p"/>
</svg>
