<svg id="_01" data-name="01" xmlns="http://www.w3.org/2000/svg" viewBox="0 0 40 40"><defs><style>.cls-2{fill:#5a5a5a;}</style></defs><title>Artboard 98</title><rect class="cls-1" width="40" height="40"/><path class="cls-2" d="M10.56,29.46a5.48,5.48,0,1,0,7.06-5.25,3.23,3.23,0,0,0,.76-1.32,7,7,0,1,1-5.93.6,3.2,3.2,0,0,0,1,1.14A5.48,5.48,0,0,0,10.56,29.46ZM19.57,7a3.49,3.49,0,1,0-3.49-3.49A3.49,3.49,0,0,0,19.57,7ZM34.39,35.24A2.8,2.8,0,0,1,32,38.34a2.36,2.36,0,1,1,0-1.51c.42-.11.91-.47.91-1.59v-.7H31.28a6.2,6.2,0,0,1-4-1.09,11.62,11.62,0,0,0,.45-1.59,5.11,5.11,0,0,0,0-1.18L27,24.13H25A10.43,10.43,0,1,1,11,20.34l.78,1.78a8.47,8.47,0,1,0,6.62-.79,3.19,3.19,0,0,0-.2-.63l-3-6.58-.85,1.65,2.44,5.53a1.72,1.72,0,0,1-3.15,1.39l-2.77-6.28a1.72,1.72,0,0,1,0-1.48l1.3-2.55c1.41-2.64,3.5-4.13,5.91-4.21h.48a3.15,3.15,0,0,1,3,3.14v8.62h7.23A2.1,2.1,0,0,1,31,21.81L32.11,32A2.09,2.09,0,0,1,31.94,33h2.44Zm-3.75,2.4a.86.86,0,1,0-.86.86A.86.86,0,0,0,30.64,37.64Z"/></svg>