<svg id="_01" data-name="01" xmlns="http://www.w3.org/2000/svg" xmlns:xlink="http://www.w3.org/1999/xlink" viewBox="0 0 40 40"><defs><style>.cls-1,.cls-4{fill-rule:evenodd;}.cls-1{fill:url(#linear-gradient);}.cls-2{fill:none;}.cls-3{mask:url(#mask);}.cls-4{fill:#5a5a5a;}</style><linearGradient id="linear-gradient" x1="20" y1="7.49" x2="20" y2="30.83" gradientUnits="userSpaceOnUse"><stop offset="0" stop-color="#fff"/><stop offset="1"/></linearGradient><mask id="mask" x="11.67" y="7.49" width="16.67" height="23.33" maskUnits="userSpaceOnUse"><path class="cls-1" d="M11.67,7.49H28.33V30.83H11.67Z"/></mask></defs><title>Artboard 104</title><rect class="cls-2" width="40" height="40"/><g class="cls-3"><path class="cls-4" d="M11.67,7.49H28.33V30.83H11.67Z"/></g><path class="cls-4" d="M30,0H10A3.33,3.33,0,0,0,6.67,3.33V36.67A3.33,3.33,0,0,0,10,40H30a3.33,3.33,0,0,0,3.33-3.33V3.33A3.33,3.33,0,0,0,30,0ZM15,1.67h8.33l.11,1.67H15ZM20,37.5a1.67,1.67,0,1,1,1.66-1.67A1.67,1.67,0,0,1,20,37.5Zm10-5.83H10L10,5H30Z"/></svg>