<svg xmlns="http://www.w3.org/2000/svg" id="_01" data-name="01" viewBox="0 0 40 40">
    <title>
        video_01
    </title>
    <path id="video-5-icon" d="M18.78,11.34,39.73,7.19V7.12L38.31,0,3,7a3.75,3.75,0,0,0-3,3.68V34.26A5.7,5.7,0,0,0,5.7,40H34.31a5.7,5.7,0,0,0,5.7-5.7V11.34ZM36.12,34.26a1.81,1.81,0,0,1-1.81,1.81H5.7a1.81,1.81,0,0,1-1.81-1.81V20.56H36.12Zm-8-21-3.39,3.39H19.63L23,13.29ZM33.52,3l4,2.67-5,1L28.53,4ZM23.69,4.93l4,2.68-5,1-4-2.68Zm-9.84,2,4,2.68-5,1-4-2.68ZM13,13.29h5.09l-3.39,3.39H9.6Zm16.66,3.39L33,13.29h5.09l-3.39,3.39ZM17.77,33.33V22.77l8.61,5.28Z" class="fill-p"/>
</svg>
