<svg id="_01" data-name="01" xmlns="http://www.w3.org/2000/svg" viewBox="0 0 40 40"><defs><style>.cls-2{fill:#5a5a5a;}</style></defs><title>Artboard 107</title><rect class="cls-1" x="0.01" width="40" height="40"/><path class="cls-2" d="M29.24,16.7c0-6-6.55-10.88-14.62-10.88S0,10.69,0,16.7c0,3.61,2.36,6.81,6,8.79,0,0-2.9,5.29-2.9,5.29L12,27.4a19.63,19.63,0,0,0,2.67.18C22.7,27.58,29.24,22.71,29.24,16.7ZM40,20.1c0-6-6.16-10.83-12.83-10.88,9.56,9.52-1.7,19.67-10.88,19.67,0,0,1,2.08,9.09,2.08a19.63,19.63,0,0,0,2.67-.18l8.84,3.38S34,28.92,34,28.89C37.64,26.91,40,23.71,40,20.1Z"/></svg>