<svg xmlns="http://www.w3.org/2000/svg" id="_01" data-name="01" viewBox="0 0 40 40">
    <title>
        photo_02
    </title>
    <path d="M37.15,7.86V30.71a2.86,2.86,0,0,1-2.86,2.86h-30a2.86,2.86,0,0,0,2.86,2.86h30A2.86,2.86,0,0,0,40,33.57V10.71A2.86,2.86,0,0,0,37.15,7.86ZM35.72,29.29V6.43a2.86,2.86,0,0,0-2.86-2.86h-30A2.86,2.86,0,0,0,0,6.43V29.29a2.86,2.86,0,0,0,2.86,2.86h30A2.86,2.86,0,0,0,35.72,29.29ZM2.87,6.43h30V29.29h-30ZM19.48,21.16l-4.27-4.54-4.27,7.29-3.2-3.35L4.27,27.89H31.49L25.35,11.82ZM8.58,16.43a2.86,2.86,0,1,0-2.86-2.86A2.86,2.86,0,0,0,8.58,16.43Z" class="fill-p fr-evenodd"/>
</svg>