<svg id="_01" data-name="01" xmlns="http://www.w3.org/2000/svg" viewBox="0 0 40 40"><defs><style>.cls-2{fill:#5a5a5a;}</style></defs><title>Artboard 109</title><rect class="cls-1" x="0.01" width="40" height="40"/><path id="gear-10-icon" class="cls-2" d="M27.57,17.24V13.53l-2-.71a2.87,2.87,0,0,1-1.69-1.61h0a2.87,2.87,0,0,1,.06-2.33L24.84,7,22.22,4.33l-1.92.91A2.88,2.88,0,0,1,18,5.31h0a2.88,2.88,0,0,1-1.61-1.69l-.71-2H11.93l-.71,2A2.88,2.88,0,0,1,9.62,5.31h0a2.88,2.88,0,0,1-2.34-.06L5.36,4.33,2.73,7l.91,1.92a2.87,2.87,0,0,1,.06,2.33h0A2.87,2.87,0,0,1,2,12.82l-2,.71v3.71L2,18a2.87,2.87,0,0,1,1.69,1.6h0a2.87,2.87,0,0,1-.06,2.33l-.91,1.92,2.63,2.62,1.92-.91a2.88,2.88,0,0,1,2.34-.06h0a2.87,2.87,0,0,1,1.61,1.69l.71,2h3.71l.71-2A2.91,2.91,0,0,1,18,25.47h0a2.84,2.84,0,0,1,2.31.06l1.93.92,2.63-2.62-.91-1.92a2.86,2.86,0,0,1-.06-2.33h0A2.87,2.87,0,0,1,25.56,18Zm-13.78,3.2a5.05,5.05,0,1,1,5.05-5.05A5.05,5.05,0,0,1,13.79,20.44ZM40,28.15v-2l-1.07-.38a1.53,1.53,0,0,1-.9-.85h0a1.53,1.53,0,0,1,0-1.24l.49-1-1.4-1.4-1,.49a1.53,1.53,0,0,1-1.24,0h0a1.53,1.53,0,0,1-.85-.9l-.38-1.07h-2l-.38,1.07a1.53,1.53,0,0,1-.85.9h0a1.53,1.53,0,0,1-1.24,0l-1-.49-1.4,1.4.49,1a1.53,1.53,0,0,1,0,1.24h0a1.53,1.53,0,0,1-.9.85l-1.07.38v2l1.07.38a1.52,1.52,0,0,1,.9.85h0a1.53,1.53,0,0,1,0,1.24l-.49,1,1.4,1.4,1-.49a1.53,1.53,0,0,1,1.24,0h0a1.53,1.53,0,0,1,.85.9l.38,1.07h2L34,33.43a1.55,1.55,0,0,1,.86-.91h0a1.51,1.51,0,0,1,1.23,0l1,.49,1.4-1.39-.49-1a1.52,1.52,0,0,1,0-1.24h0a1.53,1.53,0,0,1,.9-.85Zm-7.32,1.7a2.69,2.69,0,1,1,2.69-2.69A2.69,2.69,0,0,1,32.69,29.85ZM25.77,34V32.88L25,32.69a.44.44,0,0,1-.32-.32h0a.44.44,0,0,1,.12-.43l.56-.54-.54-.94-.74.21a.45.45,0,0,1-.44-.11h0a.43.43,0,0,1-.11-.42l.22-.75-.94-.54-.54.56a.45.45,0,0,1-.43.12h0a.43.43,0,0,1-.31-.32l-.19-.76H20.26l-.19.75a.45.45,0,0,1-.32.32h0a.44.44,0,0,1-.43-.12l-.54-.56-.93.54.21.74a.45.45,0,0,1-.11.44h0a.43.43,0,0,1-.42.11l-.75-.22-.54.94.56.54a.44.44,0,0,1,.12.43h0a.44.44,0,0,1-.32.31l-.76.19V34l.75.19a.44.44,0,0,1,.32.32h0a.44.44,0,0,1-.12.43l-.56.54.54.94.74-.21a.45.45,0,0,1,.44.11h0a.43.43,0,0,1,.11.42l-.21.75.93.54.54-.56a.44.44,0,0,1,.43-.12h0a.44.44,0,0,1,.31.32l.19.76h1.08l.19-.75a.44.44,0,0,1,.32-.32h0a.44.44,0,0,1,.43.12l.54.56.94-.54-.21-.74a.45.45,0,0,1,.11-.44h0a.43.43,0,0,1,.42-.11l.75.22.54-.94-.56-.54a.44.44,0,0,1-.12-.43h0a.44.44,0,0,1,.32-.31Zm-5,1.41a1.95,1.95,0,1,1,1.95-1.95A2,2,0,0,1,20.8,35.37Z"/></svg>