<svg xmlns="http://www.w3.org/2000/svg" id="_01" data-name="01" viewBox="0 0 40 40">
    <title>
        food_05
    </title>
    <path d="M34.47.9c-4.21-2.63-9.83,1.89-10.62,2.8S12.67,6,7.09,8.94s-.52,4.38-.52,4.38c6.05,6,16,5.79,16,5.79,4.43-.88,8.45-2,12.89-5.48S38.68,3.53,34.47.9ZM12.79,15.07h-.52c2.84-.17,5.79-1.53,5.79-3.14s-3-2.92-5.82-3l.52,0c3.08,0,6.69,1.34,6.7,3.06S15.87,15,12.79,15.07Zm3.7,1.21-.68,0c3.68-.22,7.5-2.23,7.47-4.69s-3.91-4.46-7.6-4.69l.68,0c4,0,8.71,2.12,8.74,4.72S20.49,16.28,16.49,16.28Z" class="fill-p"/>
    <path d="M22.34,37.14a14.55,14.55,0,0,0,1.71-.55,4.85,4.85,0,0,0,.88.32c.81.21.9-.5,1-1.24.47-.27.91-.56,1.33-.86a11.59,11.59,0,0,0,1.61-.09c.94-.17,1.16-1.43,1.1-2.27l1.06-1.09a.93.93,0,0,0,.86-.16c.19-.17.2-.53.17-.91.39-.4.82-.83,1.21-1.27.42.06.81.06,1-.31a1,1,0,0,0-.08-.87A4.15,4.15,0,0,0,35.14,25c-.2-1.61-1.72-2.07-4.08-2.36a2,2,0,0,0-1.16-.79,6.19,6.19,0,0,0-2,.46l-1.42-.17c-.77-.45-1.37-1.43-1.85-1.83s-1.84.45-2.76,1c-2.07-.5-3.8-1-5.39-1.31-.76-.53-1.44-1.12-2-.74-.73.5-1.38-.51-2.74.31S8.77,20,8.59,21.1A1.7,1.7,0,0,1,8,22a17,17,0,0,0-2.14,1.74A6.17,6.17,0,0,0,3.9,25c-.58.71-2.52.11-2.11,1.66.36,1.38-.22,2.64.09,3.88a7.16,7.16,0,0,0,.09,3,5.08,5.08,0,0,0,.74,1.63,4.33,4.33,0,0,0,1.83,2.57c.92.45,1.44.1,1.93.52a1.66,1.66,0,0,0,1.9-.06,19.84,19.84,0,0,0,2.23.27,6.24,6.24,0,0,0,.59.78c.45.51,1.26,1.25,1.79.56s1-.65,2.22-.49,1-1,2.3-.82a1.41,1.41,0,0,0,1.56-.63c1.09-.2,2.19-.44,3.28-.72ZM9.46,29.32c-.63,7.32,19.88.81,19.48-3.2-.14-1.41-2.5-1.19-5.67-1.47-2.76-.24-5.14-.75-7.56-.53-3.18.3-6,2.45-6.25,5.19ZM4.31,31.83C3.88,42,29,33.72,30.06,28c-4.18,5.42-24.91,11.51-24.52,2.4A6.63,6.63,0,0,1,6.71,26.9,7.15,7.15,0,0,0,4.31,31.83Z" class="fill-p fr-evenodd"/>
</svg>
