<svg xmlns="http://www.w3.org/2000/svg" id="_01" data-name="01" viewBox="0 0 40 40">
    <title>
        tools_04
    </title>
    <path d="M28,26.4a.41.41,0,0,0-.18,0l.1-.16c0-.35-.91-.46-.91-.46.08-.64-.34-.41-.34-.41.28-.22-.16-.41-.16-.41a1.87,1.87,0,0,0-1.79.71,3.11,3.11,0,0,0-1.05.54,2.36,2.36,0,0,0-1.44,1.6,6.15,6.15,0,0,0-.58.89,10.09,10.09,0,0,1-2,.11C19.36,27.71,17.17,27,17.17,27c-.08-.86-1.62-2-1.62-2a3.8,3.8,0,0,0-1.19-.85c-.06,0,.23-.21.23-.21.23-.12,0-.73,0-.73-.21-.6-.54-.38-.54-.38-.14.16-.2.05-.2.05-.21-.41-.5.22-.5.22s-.22.1-.22.1c-.16-.27-.27.23-.27.23,0,.15-.13.15-.13.15-.64.27-.49,1.34-.49,1.34,0,.3.23.11.23.11s.06.11.06.11a.63.63,0,0,0-.56.43c-.15.28.2.09.2.09a1.62,1.62,0,0,1,.51-.1c0,.07.18.08.18.08.16.1.1.39.1.39a1.52,1.52,0,0,0-.16.86c-.27,1.1.38.81.38.81a1.88,1.88,0,0,0-.27.67,4.84,4.84,0,0,0-.25,3.52,4.07,4.07,0,0,0,1.72,3.28c0,.47,1.53.86,1.53.86a2,2,0,0,0,1.21.38c0,.12.27.24.27.24a9.47,9.47,0,0,1-.58,1.12,1,1,0,0,0-.33.3c-.14,0-.22.23-.22.23a1.6,1.6,0,0,0-.52.16.52.52,0,0,0-.46.11h-.4c-.2,0-.44.36-.44.36h.33c.08.08.49,0,.49,0s.76-.1.76-.1.53-.24.53-.24a1.64,1.64,0,0,0,0,.2.5.5,0,0,0-.24.1.48.48,0,0,0-.42.38,2.64,2.64,0,0,1,.6-.08,3.09,3.09,0,0,0,.76-.08.92.92,0,0,1,.39-.07.83.83,0,0,0,.47-.16.89.89,0,0,0-.06.46v.27c.2,0,.23-.28.23-.28a.56.56,0,0,0,.29-.31.53.53,0,0,1,.19-.27c.27,0,.33-.09.33-.09a2.17,2.17,0,0,0,.38,0,4.34,4.34,0,0,0-.83-.34,1.36,1.36,0,0,0,.17-.29.94.94,0,0,0,.78-.41c-.09.12-.69.07-.69.07l.2-.42c.15,0,.58-.45.58-.45.47.36,1.66-.13,1.66-.13.25.35,1.15.1,1.15.1a.65.65,0,0,0,.18-.67,1.49,1.49,0,0,0,.33.27,1.37,1.37,0,0,0,.4-.92,3.09,3.09,0,0,0,0-.77c.24.18.2-.25.2-.25s.11.66.11.66c.68.69,1.08-2.64,1.08-2.64a.19.19,0,0,0,.28,0c.49,1.13.55,0,.55,0A2.25,2.25,0,0,0,25.38,31c.05,0,.2-.19.2-.19A5.52,5.52,0,0,0,26,31.95c.49.37.39-.92.39-.92a.57.57,0,0,0,.3,0l.09-.23.3.24c.46-1-.6-2-.6-2,.46-.22.83-1.24.83-1.24s.36-.42.36-.42a3.43,3.43,0,0,0-.65-.21,6.74,6.74,0,0,0,.76-.07c.08,0,.09-.23.09-.23h-.59l.73-.08a.14.14,0,0,0,0-.11l-.12,0,.15,0C28.08,26.49,28,26.4,28,26.4ZM17,38.72c-.2.12.18-.17.21-.28a.79.79,0,0,0,.29.07l-.24.12A.59.59,0,0,0,17,38.72Zm1-.59s-.17.13-.16.19-.38-.26-.35-.42a1.19,1.19,0,0,0,.17-.19.62.62,0,0,0,.38.21S18,38.07,18,38.13Zm.3-.58a.3.3,0,0,0-.08.12s-.39-.14-.41-.26A2.09,2.09,0,0,1,18,37s.27.13.46.2A1.29,1.29,0,0,0,18.28,37.55Z" class="fill-p"/>
    <path d="M9.77,21.75a.8.8,0,0,0-.36.77,3.59,3.59,0,0,0,1.73,0c.32,0,.14-.91.14-.91.17.2.15-1.21.15-1.21a7.12,7.12,0,0,1,.48-1.59,3.24,3.24,0,0,1,.36-.69c.26-.29.2-.48.2-.48a2.23,2.23,0,0,0,.18-.56,6.85,6.85,0,0,0,.57-1.35c.05-.4.25-.37.25-.37a3,3,0,0,0,.78-.24c.08.25.35,1.54.35,1.54A5.58,5.58,0,0,0,14.77,18a2.66,2.66,0,0,0,.57,1s1.31,1.37,1.56,1.75.37.27.37.27a7.52,7.52,0,0,1,.81.5c.09.16.31.33.42.3a.19.19,0,0,1,.17,0c.73.5.8.23.8.23a3.34,3.34,0,0,0-.17-1.28c-.36-.45-.62-.38-.62-.38,0,.22-.19.1-.19.1-.28-.09-.2-.21-.2-.21s-.11-.19-.11-.19a.17.17,0,0,0-.28-.12,2.62,2.62,0,0,1-.73-.71c-.13-.19-.58-.73-.58-.73a1.53,1.53,0,0,0-.25-.27.8.8,0,0,0-.06-.41.68.68,0,0,0,0-.4,6.3,6.3,0,0,0,.06-1.4,6.55,6.55,0,0,1,.05-1c0-.67.7-.69.7-.69.45.11,4.12.28,4.12.28.66.37.66.17.66.17.37.36.63.17.63.17a.75.75,0,0,0,.78-.38,8.49,8.49,0,0,1,2.26-.93,1.65,1.65,0,0,0,.75-.15,1,1,0,0,0,.13.33c.18.54.71,1.69.71,1.69a.44.44,0,0,0,0,.46,4.07,4.07,0,0,1-.41,1.3c-.11.25-1.45,1.85-1.45,1.85-.21.27-.19.4-.19.4a7.25,7.25,0,0,1-.34.88c-.14.12-.27.36-.22.46a.17.17,0,0,1,0,.17c-.36.8-.07.82-.07.82a3.59,3.59,0,0,0,1.25-.42c.38-.43.26-.67.26-.67-.23,0-.13-.16-.13-.16,0-.28.17-.23.17-.23s.17-.14.17-.14c.25-.11.07-.29.07-.29a2.6,2.6,0,0,1,.56-.84c.17-.16.62-.7.62-.7a2.64,2.64,0,0,0,.41-.39c.12-.25,1.52-1.72,1.52-1.72.4-.34,0-.86,0-.86A3.4,3.4,0,0,1,29,13.72a1.58,1.58,0,0,1,.22.42,2.54,2.54,0,0,0,.36.78,15.4,15.4,0,0,0,.89,2.2,3.34,3.34,0,0,0,.32,1.1,9.65,9.65,0,0,1,.1,3.16,2.62,2.62,0,0,1-.44.63.67.67,0,0,0-.08.62A5.22,5.22,0,0,0,32,22.52c.32-.05,0-.92,0-.92.2.17.12-1.32.12-1.32,0-.55,0-1.35,0-1.35a.56.56,0,0,0,.07-.39,7.81,7.81,0,0,1,.13-1.92c.23-1-.2-1.1-.2-1.1a4.1,4.1,0,0,1-.48-3.16c.27-.58,1-4,1-4,.08-.41.26,0,.26,0A29.51,29.51,0,0,0,33.76,12a6,6,0,0,0,1.56,2.58,2.71,2.71,0,0,0,.93.88c.4,0,.74.54.74.54a2.19,2.19,0,0,0,.68.86,6,6,0,0,0,1.2,1.57,4.07,4.07,0,0,1-.73-1.17c.12.27.68.47.68.47A2.92,2.92,0,0,0,40,19a3.88,3.88,0,0,1-.45-.89.41.41,0,0,0,.32.13c-.41-.27-.33-.36-.33-.36a.55.55,0,0,1,.49.29c0-.13-.5-.52-.5-.52a.68.68,0,0,1-.36-.27,4,4,0,0,0-.35-1,6.3,6.3,0,0,1,1,1.34,3.37,3.37,0,0,0-1.29-1.72,2.48,2.48,0,0,1-1-.82,1.09,1.09,0,0,0,.49.18,9.7,9.7,0,0,1,1.94.49,2.55,2.55,0,0,0-1.05-.43A3,3,0,0,1,36.38,14a2.45,2.45,0,0,0,1-.09,4.11,4.11,0,0,1-2.37-.74A5,5,0,0,1,34,10.65a4.65,4.65,0,0,0-.18-.85,5.57,5.57,0,0,0-.29-1.48,4.74,4.74,0,0,1-.22-1,3,3,0,0,0-.51-1.78c.09-.14-.12-.29-.12-.29A4,4,0,0,1,32.26,5c-.28-.39-.4-.38-.4-.38a.43.43,0,0,1-.24,0,1,1,0,0,0-.38-.15.8.8,0,0,0-.53-.13,1.06,1.06,0,0,0-.43,0,4.73,4.73,0,0,1-1-.08,3.74,3.74,0,0,0-2.48-.23A9,9,0,0,1,25,4.08a19,19,0,0,0-3.28,0,3.55,3.55,0,0,0-.88,0,12.65,12.65,0,0,0-2.55,0,11.08,11.08,0,0,1-2.58.17,4.34,4.34,0,0,1-1.16.07,1.37,1.37,0,0,0-.84-.1c-.78-.1-.83.1-.83.1a1.21,1.21,0,0,0-.57.06,3.6,3.6,0,0,0-1.08.12,1.86,1.86,0,0,0-.86.07,4.93,4.93,0,0,1-1.68.19.62.62,0,0,0-.54,0,6.9,6.9,0,0,1-.8-.09c.28-.94-.41-1.09-.41-1.09a1.45,1.45,0,0,0-1.39.83C5.07,4.31,5,4,5,4c0-.43-.53-.62-.53-.62-1-.2-.86-.93-.86-.93,0-.3-.1-.22-.1-.22a.94.94,0,0,0-.09,1C3,3,3.14,2.79,3.14,2.79c.12-.22,0-.12,0-.12C2.36,3.37,3.62,4,3.62,4a.27.27,0,0,1,.15.15,3,3,0,0,1-.11.29c-.4.07-.71,1-.71,1a2.47,2.47,0,0,0-.46.87,3,3,0,0,0-.67.78c-.23.28-.89,1.3-.89,1.3a1,1,0,0,1-.52.46c-.13,0-.28.28-.28.28-.42.59.31,1,.31,1a.5.5,0,0,0,.38.09c.7.51,1.11,0,1.11,0,.14-.21.59-.08.59-.08a3.94,3.94,0,0,0,.65.1c.43.1,1,.17,1,.17a.68.68,0,0,0,.64.14.82.82,0,0,0,.54-.11,1.57,1.57,0,0,0,.51,0,.71.71,0,0,1,.54-.07,1.27,1.27,0,0,0,.33.22c.31.17.32.22.32.22,0,.17.3.29.3.29a.84.84,0,0,0,.35.23.42.42,0,0,0,.23.29,3.25,3.25,0,0,1,.62.66c.66,1.16,1.09,1.06,1.09,1.06.1.48,1,.74,1,.74,0,.41.81.71.81.71a9.26,9.26,0,0,1-.23,1.57A6.94,6.94,0,0,0,11,18a3.29,3.29,0,0,1-.26,1.3,9.84,9.84,0,0,0-.49,1.75A.63.63,0,0,1,9.77,21.75Z" class="fill-p"/>
</svg>