<svg xmlns="http://www.w3.org/2000/svg" id="Layer_1" data-name="Layer 1" viewBox="0 0 40 40">
    <title>
        govD
    </title>
    <path d="M9.42,27.77h-3a5.23,5.23,0,0,1-2.6-.63A5.16,5.16,0,0,1,1,22.45C1,17.06,1,11.67,1,6.28A5.32,5.32,0,0,1,6.27,1c9.08,0,18.17,0,27.25,0A5.42,5.42,0,0,1,39,6.41q0,8,0,15.93a5.38,5.38,0,0,1-5.48,5.43H24.31a1.55,1.55,0,0,0-.93.28L6.93,39.19a1.2,1.2,0,0,1-2-.78,2,2,0,0,1,.22-.92q2-4.64,4.09-9.28Zm6.1-14,3.62,2.68a1.26,1.26,0,0,0,1.7,0l3.08-2.29.52-.38.16.17,4.31,5.19,4.14,5a.8.8,0,1,0,1.21-1l-6.73-8.11L25.74,12.8l.24-.19,8.62-6.4a1.28,1.28,0,1,0-1.53-2q-6.36,4.72-12.72,9.45a.5.5,0,0,1-.72,0q-5-3.77-10.11-7.51c-.91-.68-1.82-1.36-2.74-2a1.23,1.23,0,0,0-1.61.06,1.22,1.22,0,0,0-.3,1.51,2.1,2.1,0,0,0,.57.61l8.37,6.22.4.31-.21.28L6.26,22.4c-.22.27-.46.53-.66.81a.79.79,0,0,0,1.2,1A3,3,0,0,0,7,24l6.16-7.42Z" class="fill-govd"/>
</svg>
