<svg id="Layer_1" data-name="Layer 1" xmlns="http://www.w3.org/2000/svg" viewBox="0 0 40 40"><defs><style>.cls-1{fill:#5a5a5a;fill-rule:evenodd;}</style></defs><title>Artboard 14</title><path class="cls-1" d="M34.24,4.5H5.75A3.25,3.25,0,0,0,2.5,7.75V25.93a3.26,3.26,0,0,0,3.25,3.26h5.43v7.48l8.3-7.48H34.24a3.26,3.26,0,0,0,3.26-3.26V7.75A3.25,3.25,0,0,0,34.24,4.5Zm-23,13.13a1.46,1.46,0,1,1,1.46-1.46A1.46,1.46,0,0,1,11.26,17.62Zm5.82-.06a1.46,1.46,0,1,1,1.46-1.45A1.46,1.46,0,0,1,17.09,17.56Zm5.85,0a1.46,1.46,0,1,1,1.45-1.46A1.46,1.46,0,0,1,22.94,17.59Zm5.79,0a1.46,1.46,0,1,1,1.46-1.46A1.46,1.46,0,0,1,28.73,17.62Z"/></svg>