<svg xmlns="http://www.w3.org/2000/svg" id="Layer_1" data-name="Layer 1" viewBox="0 0 40 40">
    <title>
        chat_04
    </title>
    <path d="M20,5.11c-10,0-18.12,6-18.12,13.49,0,4.48,2.93,8.44,7.44,10.9,0,0-3.59,6.56-3.59,6.56l11-4.19a24,24,0,0,0,3.31.22c10,0,18.13-6,18.13-13.49S30,5.11,20,5.11ZM11.3,20a1.44,1.44,0,1,1,1.44-1.44A1.44,1.44,0,0,1,11.3,20ZM17,20.1a1.44,1.44,0,1,1,1.44-1.44A1.44,1.44,0,0,1,17,20.1Zm5.83,0a1.44,1.44,0,1,1,1.44-1.44A1.45,1.45,0,0,1,22.87,20.1Zm5.77,0a1.44,1.44,0,1,1,1.44-1.44A1.45,1.45,0,0,1,28.64,20.1Z" class="fill-p fr-evenodd"/>
</svg>