<svg xmlns="http://www.w3.org/2000/svg" id="Layer_1" data-name="Layer 1" viewBox="0 0 40 40">
    <title>
        alert_05
    </title>
    <path d="M35.84,23.26v10a1.17,1.17,0,0,1-1.26,1.26c-.21,0-.73-.45-1.37-1.12V6.59c.64-.67,1.16-1.12,1.37-1.12a1.13,1.13,0,0,1,1.26,1.26V17a3.36,3.36,0,0,1,3.3,3.15A3.36,3.36,0,0,1,35.84,23.26ZM15.53,25.69c.08,0,0-11.42,0-11.42A22.86,22.86,0,0,0,32.05,7.86V32.11A22.87,22.87,0,0,0,15.53,25.69Zm-5.05,10L8,25.67H5.43a17.52,17.52,0,0,1-1.09-3.79H2.9a1.26,1.26,0,0,1-1.26-1.26V19.35A1.26,1.26,0,0,1,2.9,18.09H4.34A17.49,17.49,0,0,1,5.43,14.3h8.84V25.67H11.74l.32,1.26h1.26L14,29.46H12.7l1.57,6.23Z" class="fill-p fr-evenodd"/>
</svg>