<svg xmlns="http://www.w3.org/2000/svg" id="Layer_1" data-name="Layer 1" viewBox="0 0 40 40">
    <title>
        photo_03
    </title>
    <path d="M35.63,9.33l-18.75,0V5.66l-10-.08V9.33H4.37a2.5,2.5,0,0,0-2.5,2.5V33.08a2.5,2.5,0,0,0,2.5,2.5H35.63a2.5,2.5,0,0,0,2.5-2.5V11.83A2.5,2.5,0,0,0,35.63,9.33ZM9.37,8.08h5v3.75h-5Zm6.25,23.7A8.75,8.75,0,1,1,24.38,23,8.75,8.75,0,0,1,15.62,31.78ZM32.5,17.48A2.5,2.5,0,1,1,35,15,2.5,2.5,0,0,1,32.5,17.48Zm-16.87.13a5.63,5.63,0,1,0,5.62,5.63A5.62,5.62,0,0,0,15.63,17.61Z" class="fill-p fr-evenodd"/>
</svg>