<svg id="Layer_1" data-name="Layer 1" xmlns="http://www.w3.org/2000/svg" viewBox="0 0 40 40"><defs><style>.cls-1{fill:#c1272d;}.cls-2{opacity:0.2;}.cls-3{fill:#fff;}</style></defs><title>PDF</title><path class="cls-1" d="M27.81,1H6.72V39H34.28V7.47Z"/><polygon class="cls-2" points="34.22 7.49 27.79 7.49 27.79 1.06 34.22 7.49"/><path id="path4463" class="cls-3" d="M16.77,23.75c.64-1.25,1.37-2.66,1.95-4.08h0l.23-.56c-.76-2.89-1.22-5.21-.81-6.71h0a1,1,0,0,1,1-.63h.35c.66,0,1,.83,1,1.16h0a5.28,5.28,0,0,1-.19,1.47h0a3.62,3.62,0,0,0-.22-1.5h0c-.27-.6-.54-1-.77-1h0a.74.74,0,0,0-.27.56h0A8.05,8.05,0,0,0,19,13.74h0a14.42,14.42,0,0,0,.59,3.74h0c.07-.21.14-.42.19-.61h0l.59-2.32h0s-.13,2.68-.31,3.49h0c0,.17-.08.34-.13.51h0a11.78,11.78,0,0,0,2.94,4.6h0a9.22,9.22,0,0,0,1.7,1.17h0A23.22,23.22,0,0,1,28,24.06h0a4.32,4.32,0,0,1,2.66.59h0a1,1,0,0,1,.29.66h0a2,2,0,0,1-.06.39h0c0-.07,0-.41-1-.75h0a12.21,12.21,0,0,0-4.23-.06h0c2.15,1.05,4.24,1.57,4.9,1.26h0a1.4,1.4,0,0,0,.36-.35h0a3.73,3.73,0,0,1-.2.66h0a1,1,0,0,1-.52.35h0c-1,.28-3.77-.37-6.15-1.73h0A50.2,50.2,0,0,0,16.13,27h0c-2.3,4-4,5.88-5.43,5.17h0l-.52-.26a.6.6,0,0,1-.19-.65h0c.16-.8,1.17-2,3.19-3.21h0c.22-.13,1.19-.64,1.19-.64h0s-.72.69-.88.83h0c-1.61,1.32-2.8,3-2.77,3.63h0v.06c1.37-.2,3.42-3,6.06-8.14m.84.43c-.44.83-.87,1.6-1.27,2.31h0a33.72,33.72,0,0,1,6.82-1.93h0c-.3-.21-.6-.43-.87-.66h0a11.71,11.71,0,0,1-2.87-3.74h0a32,32,0,0,1-1.81,4"/></svg>