<svg id="Layer_1" data-name="Layer 1" xmlns="http://www.w3.org/2000/svg" viewBox="0 0 40 40"><defs><style>.cls-1{fill:#d24625;}.cls-2{fill:#fff;}</style></defs><title>ppt</title><g id="powerpoint"><path class="cls-1" d="M21,1.5h2.45V5.39c4.61,0,9.23,0,13.84,0A1.5,1.5,0,0,1,39,7.08c.07,8.06,0,16.13,0,24.2a5.07,5.07,0,0,1-.41,2.61,3.88,3.88,0,0,1-2.19.43c-4.32,0-8.63,0-13,0v4.32H20.76C14.18,37.43,7.59,36.33,1,35.17Q1,20.07,1,5C7.66,3.81,14.32,2.64,21,1.5Z"/><path class="cls-2" d="M23.44,6.68H37.69V33H23.44V29.56H33.8V27.83H23.44V25.68H33.8V23.95H23.45c0-.85,0-1.69,0-2.54a6.06,6.06,0,0,0,5.18-.51,5.91,5.91,0,0,0,2.66-4.71c-1.9,0-3.79,0-5.68,0,0-1.88,0-3.76,0-5.63L23.44,11Z"/><path class="cls-1" d="M26.47,9.65a6.07,6.07,0,0,1,5.68,5.66c-1.9,0-3.79,0-5.69,0C26.46,13.42,26.46,11.53,26.47,9.65Z"/><path class="cls-2" d="M7.93,12.91c2.34.11,5.18-.93,7.13.83,1.86,2.26,1.37,6.41-1.39,7.76a6.37,6.37,0,0,1-3.17.4q0,2.53,0,5.06l-2.57-.22C7.88,22.13,7.87,17.52,7.93,12.91Z"/><path class="cls-1" d="M10.49,15.24c.85,0,1.9-.19,2.48.6A3.13,3.13,0,0,1,13,18.68c-.49.89-1.61.8-2.47.91C10.47,18.14,10.48,16.69,10.49,15.24Z"/></g></svg>