<svg xmlns="http://www.w3.org/2000/svg" id="Layer_1" data-name="Layer 1" viewBox="0 0 40 40">
    <defs>
        <style>
            .linkedin-1{fill:#007bb5;}.linkedin-2{fill:#fff;}
        </style>
    </defs>
    <title>
        Linkedin
    </title>
    <path d="M36.19,1H3.8A2.77,2.77,0,0,0,1,3.74V36.26A2.78,2.78,0,0,0,3.8,39H36.19A2.78,2.78,0,0,0,39,36.26V3.74A2.78,2.78,0,0,0,36.19,1Z" class="linkedin-1"/>
    <path d="M6.63,15.25h5.64V33.38H6.63Zm2.82-9A3.27,3.27,0,1,1,6.18,9.5,3.27,3.27,0,0,1,9.45,6.23" class="linkedin-2"/>
    <path d="M15.81,15.25h5.41v2.48h.08a5.92,5.92,0,0,1,5.33-2.93c5.71,0,6.76,3.75,6.76,8.64v9.95H27.75V24.56c0-2.1,0-4.81-2.93-4.81S21.44,22,21.44,24.41v9H15.81Z" class="linkedin-2"/>
</svg>