<svg xmlns="http://www.w3.org/2000/svg" id="Layer_1" data-name="Layer 1" viewBox="0 0 40 40">
    <defs>
        <style>
            .fill-rss-1{fill:#FA9B39;}
        </style>
    </defs>
    <title>
        RSS
    </title>
    <path d="M38.51,38.46a1.67,1.67,0,0,1-1.24.54H33.41a1.72,1.72,0,0,1-1.73-1.62A30.89,30.89,0,0,0,2.62,8.29,1.71,1.71,0,0,1,1,6.59V2.73a1.66,1.66,0,0,1,.54-1.24A1.68,1.68,0,0,1,2.73,1h.08a38,38,0,0,1,25,11.17A38,38,0,0,1,39,37.19,1.64,1.64,0,0,1,38.51,38.46Zm-13.79,0a1.64,1.64,0,0,1-1.27.57H19.81a1.71,1.71,0,0,1-1.7-1.57A17.27,17.27,0,0,0,2.57,21.89,1.7,1.7,0,0,1,1,20.19V16.54a1.64,1.64,0,0,1,.57-1.27,1.66,1.66,0,0,1,1.16-.46h.13a24.25,24.25,0,0,1,15.25,7.07,24.26,24.26,0,0,1,7.07,15.25A1.74,1.74,0,0,1,24.72,38.43ZM6.18,39a5.18,5.18,0,1,1,5.18-5.18A5.18,5.18,0,0,1,6.18,39Z" class="fill-rss-1"/>
</svg>