<svg xmlns="http://www.w3.org/2000/svg" xmlns:xlink="http://www.w3.org/1999/xlink" id="Layer_1" data-name="Layer 1" viewBox="0 0 40 40">
    <defs>
        <style>
            .gp-lg {
                fill: url(#gp-linear-gradient);
            }
            .gp-w {
                fill: #fff;
            }
        </style>
        <linearGradient id="gp-linear-gradient" x1="20" x2="20" y1="39" y2="1" gradientUnits="userSpaceOnUse">
            <stop offset="0" stop-color="#d73526"/>
            <stop offset="1" stop-color="#dc4e41"/>
        </linearGradient>
    </defs>
    <title>
        googleplus
    </title>
    <rect width="38" height="38" x="1" y="1" class="gp-lg" rx="6.23" ry="6.23"/>
    <path d="M14,17.93v4.15h5.67c-.89,2.69-2.27,4.16-5.67,4.16a6.23,6.23,0,0,1,0-12.45,5.94,5.94,0,0,1,4.07,1.53c.86-.86.79-1,3-3.06A10.48,10.48,0,1,0,14,30.48c8.65,0,10.77-7.53,10.07-12.56Zm18.89.21V14.5H30.28v3.63H26.54v2.59h3.74v3.74h2.59V20.73H36.5V18.13Z" class="gp-w"/>
</svg>