<svg xmlns="http://www.w3.org/2000/svg" id="Layer_1" data-name="Layer 1" viewBox="0 0 40 40">
    <defs>
        <style>
            .word-fill-1{fill:#2a5699;}.word-fill-2{fill:#fff;}
        </style>
    </defs>
    <title>
        word
    </title>
    <g id="word">
        <path d="M20.86,1.5h2.58V5c4.62,0,9.23,0,13.85,0A1.49,1.49,0,0,1,39,6.63c.07,8.5,0,17,0,25.52a5,5,0,0,1-.42,2.61,3.93,3.93,0,0,1-2.18.43c-4.32,0-8.64,0-13,0v3.45h-2.7C14.17,37.43,7.59,36.32,1,35.17Q1,20.07,1,5C7.62,3.81,14.24,2.68,20.86,1.5Z" class="word-fill-1"/>
        <path d="M23.44,6.25H37.69V33.88H23.44V30.42H34.67V28.7H23.44V26.54H34.67V24.81H23.44V22.65H34.67V20.93H23.44V18.77H34.67V17H23.44V14.88H34.67V13.16H23.44V11H34.67V9.27H23.44Z" class="word-fill-2"/>
        <path d="M9.92,13.88l2.46-.13c.57,2.91,1.16,5.82,1.78,8.72.49-3,1-6,1.55-9,.86,0,1.73-.08,2.59-.13-1,4.18-1.83,8.4-2.9,12.56-.72.38-1.8,0-2.65,0-.57-2.86-1.24-5.7-1.76-8.57-.5,2.79-1.16,5.55-1.74,8.32l-2.5-.15C6,21.78,5.2,18,4.53,14.2l2.22-.09c.44,2.75.95,5.49,1.34,8.24C8.69,19.52,9.32,16.7,9.92,13.88Z" class="word-fill-2"/>
    </g>
</svg>