<svg id="Layer_1" data-name="Layer 1" xmlns="http://www.w3.org/2000/svg" viewBox="0 0 40 40"><defs><style>.cls-1{fill:#ffca28;}.cls-2{opacity:0.2;}.cls-3{fill:#3e2723;}</style></defs><title>ZIP</title><path class="cls-1" d="M27.42,1.09H6.25v38H33.82V7.5Z"/><polygon class="cls-2" points="33.83 7.47 27.43 7.47 27.43 1.09 33.83 7.47"/><rect class="cls-3" x="17.75" y="1.09" width="0.56" height="13.48"/><rect class="cls-3" x="21.69" y="1.09" width="0.56" height="13.48"/><rect class="cls-3" x="18.22" y="1.09" width="1.78" height="1.69"/><rect class="cls-3" x="20" y="2.77" width="1.78" height="1.69"/><rect class="cls-3" x="18.22" y="4.46" width="1.78" height="1.69"/><rect class="cls-3" x="20" y="6.15" width="1.78" height="1.69"/><rect class="cls-3" x="18.22" y="7.83" width="1.78" height="1.69"/><rect class="cls-3" x="20" y="9.52" width="1.78" height="1.69"/><rect class="cls-3" x="18.22" y="11.19" width="1.78" height="1.69"/><rect class="cls-3" x="20" y="12.87" width="1.78" height="1.69"/><path class="cls-3" d="M22.53,14.56H17.47a1,1,0,0,0-1,1V18.4a1,1,0,0,0,1,1h.85V16.51h3.37v2.85h.85a1,1,0,0,0,1-1V15.53A1,1,0,0,0,22.53,14.56Z"/><rect class="cls-3" x="19.02" y="17.56" width="1.97" height="7.2"/><path class="cls-3" d="M22.32,22.67h-.63v4.18H18.31V22.67h-.63a1.13,1.13,0,0,0-1.13,1.13V35a1.13,1.13,0,0,0,1.13,1.13h4.63A1.13,1.13,0,0,0,23.45,35V23.81A1.13,1.13,0,0,0,22.32,22.67Zm-.63,11.38H18.31V31h3.37Z"/></svg>