<svg xmlns="http://www.w3.org/2000/svg" id="_01" data-name="01" viewBox="0 0 40 40">
    <defs>
        <style>
            .cls-2{fill:#5a5a5a;}
        </style>
    </defs>
    <title>
        clipboard_01
    </title>
    <path d="M31.76,40H8.24a2.59,2.59,0,0,1-2.61-2.57v-31A2.59,2.59,0,0,1,8.24,3.9h6.54V6.58H9.54A1.3,1.3,0,0,0,8.24,7.86V36.19a1.3,1.3,0,0,0,1.31,1.29H30.45a1.3,1.3,0,0,0,1.31-1.29V7.86a1.29,1.29,0,0,0-1.31-1.28H25.23V3.9h6.53a2.59,2.59,0,0,1,2.61,2.57v31A2.59,2.59,0,0,1,31.76,40Zm-17-25.77H29.15v1.29H14.77Zm0,3.85H29.15v1.28H14.77Zm0,3.85H29.15v1.28H14.77Zm0,3.85H29.15v1.28H14.77Zm14.38,9H14.77V33.55H29.15ZM14.77,29.7H29.15V31H14.77ZM10.85,14.26h1.31v1.28H10.85Zm0,3.85h1.31v1.28H10.85Zm0,3.85h1.31v1.28H10.85Zm0,3.85h1.31V27.1H10.85Zm1.31,9H10.85V33.52h1.31Zm-1.31-5.14h1.31V31H10.85Zm17-21.73a1.3,1.3,0,0,1,1.31,1.29v2.49H10.85V9.23a1.3,1.3,0,0,1,1.31-1.29h3.92s0-1.83,0-3.91A3.93,3.93,0,0,1,20,.05a4,4,0,0,1,4,4c0,2.25,0,3.9,0,3.9h3.92ZM20,3.9a1.28,1.28,0,1,0,1.3,1.28A1.3,1.3,0,0,0,20,3.9Z" class="cls-2"/>
</svg>
