<svg xmlns="http://www.w3.org/2000/svg" id="_01" data-name="01" viewBox="0 0 40 40">
    <defs>
        <style>
            .cls-2{fill:#5a5a5a;}
        </style>
    </defs>
    <title>
        book_02
    </title>    
    <path d="M34.32,40H8.86V6.2H20v14l5.63-4.14,5.51,4.14V6.2H37.5V37A3.13,3.13,0,0,1,34.32,40Zm-8.69-26-4,3.08V4.66h8v12.5ZM4.09,3.12V4.66A1.56,1.56,0,0,0,5.68,6.2H7.27V40.05H5.68A3.13,3.13,0,0,1,2.5,37V3.13A3.13,3.13,0,0,1,5.68,0H34.32a3.19,3.19,0,0,1,2.74,1.54H5.68A1.56,1.56,0,0,0,4.09,3.12Z" class="cls-2"/>
</svg>
