<svg xmlns="http://www.w3.org/2000/svg" id="_01" data-name="01" viewBox="0 0 40 40">
    <defs>
        <style>
            .cls-1{fill:#5a5a5a;fill-rule:evenodd;}
        </style>
    </defs>
    <title>
        search_01
    </title>
    <path d="M39.2,38.31l-1,1a2.8,2.8,0,0,1-3.89,0l-7.78-7.6a2.6,2.6,0,0,1-.39-3.23l-4.25-4.16a13.87,13.87,0,0,1-8.17,2.65A13.59,13.59,0,0,1,0,13.49,13.6,13.6,0,0,1,13.75,0,13.59,13.59,0,0,1,27.49,13.49a13.2,13.2,0,0,1-3.54,9l4.16,4.06a2.75,2.75,0,0,1,3.3.38l7.78,7.6A2.65,2.65,0,0,1,39.2,38.31ZM24,13.43A10.19,10.19,0,0,0,13.72,3.35a10.41,10.41,0,0,0-4.41,1c.72.72,1.8,1.8,1.86,1.8C10,6.15,6.39,9.73,6.39,10.9c0-.06-1.16-1.14-1.93-1.84a9.82,9.82,0,0,0-1.05,4.37A10.2,10.2,0,0,0,13.72,23.51,10.19,10.19,0,0,0,24,13.43Z" class="cls-1"/>
</svg>
