<svg id="_01" data-name="01" xmlns="http://www.w3.org/2000/svg" viewBox="0 0 40 40"><defs><style>.cls-2{fill:#5a5a5a;fill-rule:evenodd;}</style></defs><title>Artboard 29</title><rect class="cls-1" y="0.05" width="40" height="40"/><path class="cls-2" d="M39.62,19.11l-5.18-4.26V5A1.06,1.06,0,0,0,33.38,4H28.83A1.06,1.06,0,0,0,27.78,5V9.36l-7-5.78a1.33,1.33,0,0,0-1.63,0L.38,19.21A1.06,1.06,0,0,0,.24,20.7L1.6,22.33a1.06,1.06,0,0,0,1.49.14L19.15,9.08a1.33,1.33,0,0,1,1.63,0l16.15,13.3a1.06,1.06,0,0,0,1.49-.14l1.34-1.63A1.06,1.06,0,0,0,39.62,19.11Z"/><path class="cls-2" d="M20.78,12a1.33,1.33,0,0,0-1.63,0L5.57,23.29V35.73a1.06,1.06,0,0,0,1.06,1.06H17V28.33A1.06,1.06,0,0,1,18,27.27H22A1.06,1.06,0,0,1,23,28.33v8.46H33.38a1.06,1.06,0,0,0,1.06-1.06V23.22Z"/></svg>