<svg id="_01" data-name="01" xmlns="http://www.w3.org/2000/svg" viewBox="0 0 40 40"><defs><style>.cls-2{fill:#5a5a5a;fill-rule:evenodd;}</style></defs><title>Artboard 38</title><rect class="cls-1" y="0.05" width="40" height="40"/><path class="cls-2" d="M32.51,35.85,23.38,20.5v0l0-9H24a1.71,1.71,0,0,0,0-3.43H14.86a1.71,1.71,0,0,0,0,3.43h.55l0,9L7.49,35.85A3.43,3.43,0,0,0,9.92,40H30.08A3.43,3.43,0,0,0,32.51,35.85ZM29.78,38.9l-19.56,0a2.28,2.28,0,0,1-1.62-2.8l7.94-15.57,0-10.18H14.86a.57.57,0,0,1,0-1.14H24a.57.57,0,0,1,0,1.14H22.29l0,10.15L31.39,36.1A2.29,2.29,0,0,1,29.78,38.9Zm-6-13.67a2.73,2.73,0,0,1-4.33,0c-2.36-2.29-4.07,0-4.07,0L9.73,36.42a1.14,1.14,0,0,0,.81,1.4H29.39a1.14,1.14,0,0,0,.81-1.4ZM20.55,6.34a1.14,1.14,0,1,0,1.14-1.14A1.14,1.14,0,0,0,20.55,6.34Zm1.14-2.86A1.71,1.71,0,1,0,20,1.76,1.71,1.71,0,0,0,21.69,3.48ZM17.12,6.34A1.14,1.14,0,1,0,16,5.19,1.14,1.14,0,0,0,17.12,6.34Z"/></svg>