<svg xmlns="http://www.w3.org/2000/svg" id="_01" data-name="01" viewBox="0 0 40 40">
    <title>
        lab_02
    </title>
    <path d="M35.56,19.35c-.15-1.89-1.28-2.73-2.46-3.63a2.41,2.41,0,0,1-1-1.5,4.74,4.74,0,0,1,.06-1.2,6.83,6.83,0,0,0,.09-1.31,4.53,4.53,0,0,0-1.61-3.26,4.77,4.77,0,0,0-3.13-.95,13.85,13.85,0,0,0-1.55.1,6.5,6.5,0,0,1-.72,0,2,2,0,0,1-1.2-.3,6.51,6.51,0,0,1-.85-.76,7.65,7.65,0,0,0-1.22-1,4.94,4.94,0,0,0-4.77-.45A7.75,7.75,0,0,0,14.23,7.9l-.32.44a2.65,2.65,0,0,1-2.31.77h-.82c-2.85,0-4.69.73-5.63,2.22a3.57,3.57,0,0,0-.42,2A5,5,0,0,0,7.07,17c.9.64,1.45,1.08,1.37,1.81s-.87,1.36-1.64,2C5.49,22,3.7,23.53,5,25.85a4,4,0,0,0,3.84,1.83h1.34a2.8,2.8,0,0,1,2.26.68c.52.57.43,1.53.33,2.54-.13,1.41-.31,3.16,1.45,4a4.34,4.34,0,0,0,2,.49h0a4.68,4.68,0,0,0,4-2.58c.55-.95,1.59-2.71,2.57-2.71a1,1,0,0,1,.44.11,3.25,3.25,0,0,1,1.08,1.16A5.16,5.16,0,0,0,25.81,33a4.48,4.48,0,0,0,2.27.67,3.44,3.44,0,0,0,2.86-1.52c1-1.38.56-2.85.23-4A3.42,3.42,0,0,1,31,26a4.76,4.76,0,0,1,1.83-1.8A11.64,11.64,0,0,0,34,23.25,4.81,4.81,0,0,0,35.58,20,5.94,5.94,0,0,0,35.56,19.35ZM33,22.07a10.89,10.89,0,0,1-1.07.81,6.15,6.15,0,0,0-2.38,2.48,4.75,4.75,0,0,0,.13,3.23c.34,1.19.5,2,0,2.67a1.84,1.84,0,0,1-1.56.84,2.87,2.87,0,0,1-1.45-.44,3.73,3.73,0,0,1-1-1.16,4.68,4.68,0,0,0-1.68-1.69,2.58,2.58,0,0,0-1.15-.28c-1.9,0-3.18,2.19-4,3.54a3.11,3.11,0,0,1-2.57,1.75A2.76,2.76,0,0,1,15,33.51c-.71-.36-.73-1-.58-2.47.12-1.25.26-2.67-.74-3.77a4.35,4.35,0,0,0-3.44-1.21H8.88c-1.21,0-2-.16-2.46-1C5.8,24,6.35,23.34,7.85,22c1-.87,2-1.78,2.18-3.07.18-1.71-1.1-2.62-2-3.27a3.62,3.62,0,0,1-1.67-2.37,2,2,0,0,1,.18-1.15c.62-1,2-1.47,4.28-1.47h.82a4.12,4.12,0,0,0,3.58-1.41l.33-.45a6.5,6.5,0,0,1,2.33-2.28,3.33,3.33,0,0,1,3.24.34,6.62,6.62,0,0,1,1,.83,8.46,8.46,0,0,0,1.06.92,3.57,3.57,0,0,0,2.12.59,8.06,8.06,0,0,0,.89-.05,13.05,13.05,0,0,1,1.38-.09,3.25,3.25,0,0,1,2.13.59,3,3,0,0,1,1,2.1,6.25,6.25,0,0,1-.08,1,5.91,5.91,0,0,0-.07,1.62A3.88,3.88,0,0,0,32.14,17c1.2.91,1.74,1.35,1.83,2.48A3.84,3.84,0,0,1,34,20,3.28,3.28,0,0,1,33,22.07ZM21.46,13a4.81,4.81,0,1,0,4.81,4.81A4.81,4.81,0,0,0,21.46,13Zm-7.86.82a1.36,1.36,0,0,0-.61-.32,1,1,0,0,0-1.3.55.92.92,0,0,0,.6,1,1.42,1.42,0,0,0,.61.32,1,1,0,0,0,1.3-.55A.91.91,0,0,0,13.61,13.79Zm-1.94,7.82A1.12,1.12,0,0,0,11,23a1.11,1.11,0,0,0,1.52.27,1.11,1.11,0,0,0,.7-1.38A1.11,1.11,0,0,0,11.67,21.61Zm6.55,4.07c-.49-.16-1.06.25-1.28.92a1.14,1.14,0,0,0,.51,1.49c.49.16,1.06-.26,1.28-.92A1.14,1.14,0,0,0,18.22,25.68Zm7.06-2.52a.74.74,0,0,0,.59,1.3.75.75,0,0,0-.59-1.3Zm-6.2-12.61a.64.64,0,0,0,.18-.87.64.64,0,0,0-.78-.43.65.65,0,0,0-.18.87A.65.65,0,0,0,19.08,10.55Zm9.86,7.21a.64.64,0,0,0-.84.29c-.09.28.14.6.52.72a.64.64,0,0,0,.84-.28C29.54,18.2,29.31,17.88,28.93,17.76Z" class="fill-p"/>
    <path d="M20,40A20,20,0,1,1,40,20,20,20,0,0,1,20,40ZM5.62,9.51A17.82,17.82,0,0,0,30.54,34.43l1.31-1L6.58,8.21ZM20,2.2A17.68,17.68,0,0,0,9.4,5.72l-1.3,1L33.37,31.95l1-1.29A17.82,17.82,0,0,0,20,2.2Z" class="fill-p fr-evenodd"/>
</svg>
