<svg id="_01" data-name="01" xmlns="http://www.w3.org/2000/svg" viewBox="0 0 40 40"><defs><style>.cls-2{fill:#5a5a5a;}</style></defs><title>Artboard 48</title><rect class="cls-1" y="0.05" width="40" height="40"/><path class="cls-2" d="M34.1,37H32.93a14.41,14.41,0,0,0-4.11-6.79c1.7-9.66-1.47-14.41-5.87-16.74A4,4,0,0,1,23,14a.37.37,0,0,1-.74,0,3.42,3.42,0,0,0-5.84-2.42h0a.37.37,0,0,1-.53-.53,4.16,4.16,0,0,1,5.53-.31l.75-1.62a.68.68,0,0,0,.29.06.69.69,0,0,0,.29-1.32L22,7.56l2-4.38.36.17a.49.49,0,0,0,.21,0,.5.5,0,0,0,.21-.95L19.82.1a.5.5,0,0,0-.42.9l.36.17-2,4.39L17,5.21a.69.69,0,1,0-.59,1.26L10.52,19.1l.89.42a.37.37,0,0,1-.16.71.38.38,0,0,1-.16,0l-.89-.42h0A.69.69,0,1,0,9.62,21l.51.24,1.07,2.93a.58.58,0,0,0,.74.34l2.93-1.07.51.24A.69.69,0,1,0,16,22.46l2.19-4.7a3.74,3.74,0,0,0,2.13-.23,9.83,9.83,0,0,1,.79,10.8H17.46V27.2H4.37V29H7.79l4.41,5.54a10,10,0,0,0-.84,1.72h4.52a.37.37,0,0,1,0,.74H9.29a1.54,1.54,0,1,0,0,3.07H34.1a1.54,1.54,0,0,0,0-3.07ZM18.83,15.24A1.21,1.21,0,1,1,20,14,1.21,1.21,0,0,1,18.83,15.24Z"/></svg>