<svg id="_01" data-name="01" xmlns="http://www.w3.org/2000/svg" viewBox="0 0 40 40"><defs><style>.cls-2{fill:#5a5a5a;fill-rule:evenodd;}</style></defs><title>Artboard 51</title><rect class="cls-1" y="0.05" width="40" height="40"/><path class="cls-2" d="M24.57,13.73V24.45a1,1,0,0,0,1,1h0a1,1,0,0,0,1-1V13.73a1,1,0,0,0-1-1h0A1,1,0,0,0,24.57,13.73Z"/><path class="cls-2" d="M29.24,23.74l-3.68-2.12V19.32L30.23,22a1,1,0,0,1,.37,1.35h0A1,1,0,0,1,29.24,23.74Z"/><path class="cls-2" d="M21.88,23.74l3.68-2.12V19.33L20.89,22a1,1,0,0,0-.36,1.35h0A1,1,0,0,0,21.88,23.74Z"/><path class="cls-2" d="M24.21,12.38l-9.28,5.36a1,1,0,0,0-.37,1.35h0a1,1,0,0,0,1.35.36L25.2,14.1a1,1,0,0,0,.36-1.35h0A1,1,0,0,0,24.21,12.38Z"/><path class="cls-2" d="M17.88,21.43V17.18l2-1.14v5.39a1,1,0,0,1-1,1h0A1,1,0,0,1,17.88,21.43Z"/><path class="cls-2" d="M14.2,15.05l3.68,2.13,2-1.14-4.67-2.7a1,1,0,0,0-1.35.36h0A1,1,0,0,0,14.2,15.05Z"/><path class="cls-2" d="M25.2,11.39,15.92,6a1,1,0,0,0-1.35.36h0a1,1,0,0,0,.36,1.35l9.28,5.36a1,1,0,0,0,1.35-.36h0A1,1,0,0,0,25.2,11.39Z"/><path class="cls-2" d="M14.2,10.43l3.68-2.13,2,1.15-4.67,2.69a1,1,0,0,1-1.35-.36h0A1,1,0,0,1,14.2,10.43Z"/><path class="cls-2" d="M17.88,4.06V8.31l2,1.15V4.06a1,1,0,0,0-1-1h0A1,1,0,0,0,17.88,4.06Z"/><path class="cls-2" d="M26.55,11.75V1a1,1,0,0,0-1-1h0a1,1,0,0,0-1,1V11.75a1,1,0,0,0,1,1h0A1,1,0,0,0,26.55,11.75Z"/><path class="cls-2" d="M21.88,1.75l3.68,2.13V6.16l-4.67-2.7a1,1,0,0,1-.36-1.35h0A1,1,0,0,1,21.88,1.75Z"/><path class="cls-2" d="M29.24,1.75,25.56,3.88V6.16l4.67-2.7a1,1,0,0,0,.37-1.35h0A1,1,0,0,0,29.24,1.75Z"/><path class="cls-2" d="M26.91,13.11l9.28-5.36a1,1,0,0,0,.37-1.35h0A1,1,0,0,0,35.2,6l-9.28,5.36a1,1,0,0,0-.36,1.35h0A1,1,0,0,0,26.91,13.11Z"/><path class="cls-2" d="M33.24,4.06V8.31l-2,1.15V4.06a1,1,0,0,1,1-1h0A1,1,0,0,1,33.24,4.06Z"/><path class="cls-2" d="M36.92,10.43,33.24,8.31l-2,1.15,4.67,2.69a1,1,0,0,0,1.35-.36h0A1,1,0,0,0,36.92,10.43Z"/><path class="cls-2" d="M25.92,14.1l9.28,5.36a1,1,0,0,0,1.35-.36h0a1,1,0,0,0-.37-1.35l-9.28-5.36a1,1,0,0,0-1.35.36h0A1,1,0,0,0,25.92,14.1Z"/><path class="cls-2" d="M36.92,15.05l-3.68,2.13-2-1.14,4.67-2.7a1,1,0,0,1,1.35.36h0A1,1,0,0,1,36.92,15.05Z"/><path class="cls-2" d="M33.24,21.43V17.18l-2-1.14v5.39a1,1,0,0,0,1,1h0A1,1,0,0,0,33.24,21.43Z"/><path class="cls-2" d="M13.68,29.64a3.51,3.51,0,0,0,.06-.62V5.12a3.51,3.51,0,0,0-3.5-3.5H8a3.51,3.51,0,0,0-3.5,3.5V29c0,.06,0,.12,0,.18a6.31,6.31,0,1,0,9.17.44ZM9.12,5.43c1.23,0,2.23,1.41,2.23,3.15V26.37H6.89V8.58C6.89,6.84,7.89,5.43,9.12,5.43Z"/></svg>