<svg id="_01" data-name="01" xmlns="http://www.w3.org/2000/svg" viewBox="0 0 40 40"><defs><style>.cls-1{fill:#5a5a5a;}.cls-2{fill:none;}</style></defs><title>Artboard 62</title><path class="cls-1" d="M39.75,10.79A9.18,9.18,0,0,1,39,9.31c-.21-.52-.36-.66-.9-.66H37.3a.64.64,0,0,0-.7.56,10.11,10.11,0,0,0-.22,1.14c0,.61-.44.85-.94,1s-1.11.25-1.63.45a1.1,1.1,0,0,0-.61.54,11.21,11.21,0,0,0-.38,1.53c-.2,0-.51,0-.82.08-.52.09-.68.31-.65.82a.45.45,0,0,1-.11.31c-.36.32-.73.63-1.18,1,.07-.17.1-.25.14-.33a.77.77,0,0,0-.11-1.08,4.09,4.09,0,0,0-.29-.3c-.24-.22-.42-.41-.29-.81s-.13-.62-.47-.77-.42-.17-.39-.52a.65.65,0,0,0-.69-.63,4.19,4.19,0,0,0-.75,0,3.57,3.57,0,0,1-1.46-.18,4.09,4.09,0,0,0-1.26.05s.05-.1.09-.19a.67.67,0,0,0-.54-1,1.73,1.73,0,0,0-.41,0A3.17,3.17,0,0,1,21.94,10a1.57,1.57,0,0,0-.6-.13c-2.5-.14-5-.31-7.51-.38a34.21,34.21,0,0,1-5.45-1c-1.33-.25-2.64-.57-4-.86-.44-.1-.71.06-1,.52L2.58,7.4H2.33c-.77.29-.52.92-.49,1.47,0,.36.12.71.13,1.06a2,2,0,0,1-.13.79A14.39,14.39,0,0,1,1.1,12.3a6.15,6.15,0,0,0-.54,2A4.65,4.65,0,0,1,0,15.47v.33c.08.21.18.42.25.64a9.92,9.92,0,0,0,.43,1.49,7.27,7.27,0,0,1,.31,2c.13.7.2,1.42.36,2.12a1.09,1.09,0,0,0,.47.58c.38.24.82.39,1.21.62a.79.79,0,0,1,.36.49,1.13,1.13,0,0,0,.88,1c2,.69,4,1.44,5.93,2.18.42.16.79.23,1.1-.21a.79.79,0,0,1,.92.08,8.82,8.82,0,0,1,.64,1.29,1.44,1.44,0,0,0,.77.87l.25.14c.94.5.94.5,1.86-.07a5.07,5.07,0,0,1,.46.55c.37.59.73,1.18,1.06,1.78a1.65,1.65,0,0,0,.92.79c.46.17.91.38,1.36.57h.17c.65-.38.7-.55.43-1.27A1.14,1.14,0,0,1,20.71,30c.4-.21.82-.4,1.2-.65A2.35,2.35,0,0,1,23.49,29c.77.07,1.55.1,2.32.14s1-.18,1-1c.57,0,1.13-.34,1.72.07.9.63.91.61,1.76,0A1.08,1.08,0,0,1,31,29.24a1.47,1.47,0,0,0,.44,1.17c.47.49.91,1,1.37,1.5a.67.67,0,0,0,.93.11,1.93,1.93,0,0,0,.64-2.79c-.45-.7-.91-1.39-1.32-2.11A4.21,4.21,0,0,1,32.65,26c0-.11.08-.28.17-.39,1-1.28,1.92-2.57,2.91-3.83a.94.94,0,0,0,.1-1.23c-.26-.4-.46-.85-.71-1.26a.66.66,0,0,1,0-.8c.69,0,.89-.11,1.08-.79.11-.38.19-.78.33-1.15a1.05,1.05,0,0,1,.39-.5,12.59,12.59,0,0,1,1.16-.54c.82-.38.9-.89.2-1.46-.27-.22-.41-.44-.25-.77a.78.78,0,0,1,.22-.28l1.29-1C40.11,11.63,40.12,11.38,39.75,10.79Z"/><rect class="cls-2" y="0.05" width="40" height="40"/></svg>