<svg id="_01" data-name="01" xmlns="http://www.w3.org/2000/svg" viewBox="0 0 40 40"><defs><style>.cls-2{fill:#5a5a5a;}</style></defs><title>Artboard 69</title><rect class="cls-1" y="0.05" width="40" height="40"/><path class="cls-2" d="M35.21,37.71V26.76h0v-11h-4v8.89h-1.2V15.73h-4v8.89h-2V19.69l-9.72,4.94V19.69L4.69,24.62V37.71H2.87V40H37.13V37.71ZM21.88,31H18.79V28.21h3.09Zm8.51,4.65H27.3V32.85h3.09Zm0-4.65H27.3V28.21h3.09Zm3.77-20.64A3.06,3.06,0,0,0,31.36,6a3.08,3.08,0,0,0-.74.09s0-.06,0-.09a4.09,4.09,0,0,0-6.45-3.35,4.3,4.3,0,0,0-6.12-1.3,6.05,6.05,0,1,0-.83,10,4.45,4.45,0,0,0,4.61,1,3.19,3.19,0,0,0,4.41,1.28,2.5,2.5,0,0,0,4.19-.6,2.41,2.41,0,1,0,3.72-2.79ZM32.9,9.48a.29.29,0,0,1-.29-.29,1.37,1.37,0,0,0-1.41-1.38,2.42,2.42,0,0,0-1.39.44l-.55.39.1-.67a3.13,3.13,0,0,0,0-.45,3,3,0,0,0-5.17-2.09l-.34.35-.15-.46A3.32,3.32,0,0,0,18,4.15l-.26.29-.21-.33A4.05,4.05,0,0,0,10.82,4a.29.29,0,0,1-.48-.33,4.63,4.63,0,0,1,7.52-.19,3.9,3.9,0,0,1,6.26,1.22A3.59,3.59,0,0,1,30,7.49a3,3,0,0,1,1.23-.26,2,2,0,0,1,1.41.56,1.93,1.93,0,0,1,.58,1.4A.29.29,0,0,1,32.9,9.48Z"/></svg>