<svg id="_01" data-name="01" xmlns="http://www.w3.org/2000/svg" viewBox="0 0 40 40"><defs><style>.cls-2{fill:#5a5a5a;}</style></defs><title>Artboard 70</title><rect class="cls-1" y="0.05" width="40" height="40"/><path class="cls-2" d="M38.19,16.37l-.07-.08h0v0h0L30.3,7.09v-4a.48.48,0,0,0-.42-.48L10.65.05a.48.48,0,0,0-.54.48V4L1.83,15.62h0l0,.06a.48.48,0,0,0-.09.28V32.44a.48.48,0,0,0,.3.45L20,40h.34L38,33.61a.48.48,0,0,0,.32-.45V16.68A.48.48,0,0,0,38.19,16.37Zm-3.05-2.11L28.53,9.84,29.84,8ZM11.07,1.08l18.27,2.4V6.69l-12.17-2-6.1-1Zm8.66,37.78L2.66,32.11V16.5l8.42,2.06,8.65,2.11ZM20,19.74,16.92,19,3,15.6,10.8,4.68l.49.08L29,7.6l-1.1,1.5a.44.44,0,0,0-.06.11l-.34.46h0Zm17.36-2.84a.48.48,0,0,1-.33.27l-5.78,1.28h0l-9.79,2.18h-.11a.48.48,0,0,1-.24-.06h0a.48.48,0,0,1-.23-.31.43.43,0,0,1,0-.13.48.48,0,0,1,.38-.45L31,17.52h0l5.43-1.21h0l.35-.08a.48.48,0,0,1,.57.36.43.43,0,0,1,0,.08A.49.49,0,0,1,37.36,16.91Z"/></svg>