<svg xmlns="http://www.w3.org/2000/svg" id="_01" data-name="01" viewBox="0 0 40 40">
    <defs>
        <style>
            .cls-2{fill:#5a5a5a;}
        </style>
    </defs>
    <title>
        badge_02
    </title>
    <path d="M27.8,25.26a6.19,6.19,0,0,0-.5,1.12c-.45,1.16-1,2.6-2.48,3.08a2.72,2.72,0,0,1-.86.14,4.34,4.34,0,0,1-2.18-.71L24.46,40l3-3L32,38.17l-3.15-13a5.44,5.44,0,0,0-1.1.13" class="fill-p"/>
    <path d="M32.94,11.58c-.53-.43-1.12-.91-1.25-1.31a4.21,4.21,0,0,1,.23-1.88c.28-1.06.57-2.16,0-3s-1.79-.89-2.87-1a4.12,4.12,0,0,1-1.81-.35,4.13,4.13,0,0,1-.88-1.62c-.4-1-.82-2.11-1.8-2.43s-1.89.31-2.8.89A4.14,4.14,0,0,1,20,1.79,4.29,4.29,0,0,1,18.24,1C17.33.38,16.38-.22,15.46.08s-1.39,1.39-1.8,2.43a4.16,4.16,0,0,1-.88,1.62,4.14,4.14,0,0,1-1.84.35c-1.05.06-2.24.12-2.84.94s-.3,1.91,0,3a4.19,4.19,0,0,1,.23,1.88,4,4,0,0,1-1.25,1.32c-.87.71-1.77,1.44-1.77,2.48s.9,1.78,1.77,2.49a4,4,0,0,1,1.25,1.31,4.21,4.21,0,0,1-.23,1.88c-.27,1-.57,2.16,0,3s1.73.88,2.84.94a4.13,4.13,0,0,1,1.84.35,4.09,4.09,0,0,1,.88,1.63c.4,1,.82,2.1,1.79,2.42a1.58,1.58,0,0,0,.52.08,4.65,4.65,0,0,0,2.28-1A4.24,4.24,0,0,1,20,26.35a3.36,3.36,0,0,1,1.49.65l.26.17a4.65,4.65,0,0,0,2.28,1,1.53,1.53,0,0,0,.51-.08c1-.31,1.39-1.38,1.8-2.43A4.05,4.05,0,0,1,27.22,24a.94.94,0,0,1,.25-.13l.05,0,.31-.08h.06c.25,0,.53-.07.82-.09l.35,0c1.1-.06,2.24-.13,2.84-.94s.3-1.9,0-3a4.15,4.15,0,0,1-.23-1.88c.13-.4.72-.89,1.25-1.32.87-.71,1.77-1.44,1.77-2.48s-.9-1.77-1.77-2.49m-.74,4.08a4.59,4.59,0,0,0-1.61,1.85A4.76,4.76,0,0,0,30.8,20c.2.76.42,1.62.16,2s-1.17.43-2,.47l-.56,0-.51.05h0l-.43.08H27.4a2.93,2.93,0,0,0-.41.13l-.09,0a2.33,2.33,0,0,0-.37.21,4.66,4.66,0,0,0-1.28,2.15C25,26,24.64,26.81,24.18,27L24,27H24l-.12,0-.08,0-.13,0-.09,0-.14-.06-.09,0-.15-.08-.09,0-.16-.1-.07,0-.19-.11,0,0c-.07,0-.15-.18-.21-.22a5.7,5.7,0,0,1-1.26-.8h0c-.36,0-.73-.19-1.11-.19a4.83,4.83,0,0,0-2.37,1c-.58.37-1.42.91-1.81.78S15,26,14.74,25.2a4.6,4.6,0,0,0-1.28-2.14A4.7,4.7,0,0,0,11,22.5c-.79,0-1.7-.09-2-.47s0-1.23.16-2a4.76,4.76,0,0,0,.22-2.53A4.65,4.65,0,0,0,7.8,15.65c-.63-.51-1.35-1.09-1.35-1.58S7.17,13,7.8,12.48a4.58,4.58,0,0,0,1.62-1.85A4.74,4.74,0,0,0,9.2,8.1c-.2-.76-.43-1.64-.16-2s1.17-.42,2-.47a4.67,4.67,0,0,0,2.45-.57,4.65,4.65,0,0,0,1.28-2.14c.29-.75.62-1.59,1.07-1.74s1.23.39,1.81.76a4.76,4.76,0,0,0,2.37,1,4.73,4.73,0,0,0,2.38-1c.58-.37,1.42-.89,1.82-.76s.78,1,1.07,1.75a4.66,4.66,0,0,0,1.28,2.14A4.69,4.69,0,0,0,29,5.64c.79,0,1.69.1,2,.47s0,1.23-.16,2a4.73,4.73,0,0,0-.22,2.53,4.62,4.62,0,0,0,1.63,1.86c.63.51,1.33,1.09,1.33,1.58s-.71,1.07-1.35,1.59" class="fill-p"/>
    <path d="M15.89,29.6a2.78,2.78,0,0,1-.86-.13c-1.47-.48-2-1.92-2.48-3.08A6.86,6.86,0,0,0,12,25.26a2,2,0,0,0-.42-.08l-3.14,13L13.09,37l3,3,2.81-11.62-.12.08a5.54,5.54,0,0,1-2.88,1.14" class="fill-p"/>
    <path d="M20,4.64a9.43,9.43,0,1,0,9.43,9.43A9.43,9.43,0,0,0,20,4.64m3.42,13.75-3.37-1.77-3.37,1.77.64-3.75L14.6,12l3.77-.55L20.05,8l1.69,3.41,3.77.55-2.73,2.66Z" class="fill-p"/>
</svg>
