<svg id="_01" data-name="01" xmlns="http://www.w3.org/2000/svg" viewBox="0 0 40 40"><defs><style>.cls-2{fill:#5a5a5a;}</style></defs><title>Artboard 82</title><rect class="cls-1" width="40" height="40"/><path class="cls-2" d="M10.47,25.56l-.45,0a5.1,5.1,0,0,1-4.66-5.07,2.1,2.1,0,0,1,0-.28c0-.16-.1-.22-.2-.08a4.37,4.37,0,0,0-.69,2c0,.12,0,.25,0,.39a4.44,4.44,0,0,0,4.05,4.42l.4,0a4.42,4.42,0,0,0,3.31-1.49c.09-.1,0-.21-.13-.17a5,5,0,0,1-1.62.28"/><path class="cls-2" d="M37.17,16c-1.58-1.39-3.75-3.08-3.75-3.08h0a7,7,0,0,0-4.46-1.57L27.23,9.66h0a3.4,3.4,0,0,0-5.67,1.09,2.86,2.86,0,0,0-3.13,0,3.4,3.4,0,0,0-5.66-1.06h0l-1.71,1.69a7,7,0,0,0-4.46,1.57h0S4.41,14.61,2.83,16A8.63,8.63,0,0,0,0,21.73c0,.26,0,.53,0,.79a8.91,8.91,0,0,0,8.13,8.86l.78,0A8.9,8.9,0,0,0,17.68,24a4.51,4.51,0,0,0,4.64,0,8.9,8.9,0,0,0,8.77,7.46l.78,0A8.91,8.91,0,0,0,40,22.52c0-.26,0-.53,0-.79A8.63,8.63,0,0,0,37.17,16M14.84,23a6,6,0,0,1-5.93,5.43l-.53,0a6,6,0,0,1-5.44-5.93c0-.18,0-.36,0-.52a6,6,0,0,1,5.93-5.45h0l.51,0a6,6,0,0,1,5.46,5.94c0,.17,0,.35,0,.54ZM20,22.33a2.38,2.38,0,1,1,2.38-2.38A2.38,2.38,0,0,1,20,22.33m11.66,6.12-.53,0A6,6,0,0,1,25.16,23h0c0-.19,0-.36,0-.54a6,6,0,0,1,5.46-5.94l.51,0h0A6,6,0,0,1,37,22a4.73,4.73,0,0,1,0,.52,6,6,0,0,1-5.44,5.93"/><path class="cls-2" d="M32.67,25.56l-.46,0a5.1,5.1,0,0,1-4.65-5.07,2.75,2.75,0,0,1,0-.28c0-.16-.1-.22-.2-.08a4.38,4.38,0,0,0-.69,2,3.83,3.83,0,0,0,0,.39,4.44,4.44,0,0,0,4.05,4.42l.39,0a4.43,4.43,0,0,0,3.31-1.49c.09-.1,0-.21-.13-.17a5,5,0,0,1-1.62.28"/></svg>