<svg xmlns="http://www.w3.org/2000/svg" id="_01" data-name="01" viewBox="0 0 40 40">
    <defs>
        <style>
            .cls-2{fill:#5a5a5a;}
        </style>
    </defs>
    <title>
        people_02
    </title>
    <path d="M15.33,10.34l-7.79,0L7.25,11.4l6.8,0Z" class="fill-p"/>
    <path d="M32.3,10.37a32.29,32.29,0,0,1-4.86-.08C25.6,10,22.56,8.78,21,8.78a7.38,7.38,0,0,0-3.35,1.27l0,0a17.86,17.86,0,0,0-2.5,2,7.86,7.86,0,0,0-1.27,2.8,12.66,12.66,0,0,1-1.47,2.79,2,2,0,0,0,1.94.85,5.73,5.73,0,0,0,3.83-2.84,3,3,0,0,1,2.48-1.77,9.91,9.91,0,0,1,2.63.65c.26.16,8.4,8.72,8.55,8.88a1.4,1.4,0,0,1,.29.88,1.57,1.57,0,0,1-2,1.53l-.1,0-7.1-5.66.38,1.56,5.25,4.53a1.19,1.19,0,0,1,0,1.42A1.28,1.28,0,0,1,27,28l-4.51-3.39L21,24.74l4.63,3.69a.94.94,0,0,1,.18.55,1,1,0,0,1-1,1,1.22,1.22,0,0,1-.38-.07l-3.34-2.45-1.63.18,2.94,2.32a1.09,1.09,0,0,1,.05.37.87.87,0,0,1-.87.87c-.3,0-.41-.16-.72-.38l-1.78-1.23a1.33,1.33,0,0,0-2-1.37l0,0A1.84,1.84,0,0,0,14.16,26a1.67,1.67,0,0,0-2.76-1.81l-.07.07S7,20.57,6.46,19.83a7.33,7.33,0,0,1-.9-2.27l-.48,1.75.37.93a1.11,1.11,0,0,0,.21.34l1.65,1.76-.25.21a2,2,0,0,0-.46,2.7,2,2,0,0,0,2.72-.29,2.75,2.75,0,0,0,.42-.5l.87.6-.79.9a1.67,1.67,0,0,0,2.25,2.44,1.84,1.84,0,0,0,3,2.11l.17-.19a1.33,1.33,0,0,0,1.88,1.64,11.38,11.38,0,0,0,2.11-1l1,.69.14.11a1.83,1.83,0,0,0,1.21.47,2,2,0,0,0,1.91-1.53v0h.09A2.31,2.31,0,0,0,24.8,31a2,2,0,0,0,.92-.22,2.07,2.07,0,0,0,1.11-1.48,1.84,1.84,0,0,0,0-.28,2.77,2.77,0,0,0,.77.11,2.33,2.33,0,0,0,.83-.15,2.15,2.15,0,0,0,.89-.63,2.1,2.1,0,0,0,.49-1.15,2.31,2.31,0,0,0,0-.32,2.54,2.54,0,0,0,.7.1h0a2.51,2.51,0,0,0,.85-.15,2.63,2.63,0,0,0,1-.7,2.76,2.76,0,0,0,.73-1.85,2.61,2.61,0,0,0-.4-1.4l2.56-1.41Z" class="fill-p"/>
    <rect width="2.76" height="13.72" x="35.48" y="8.47" class="fill-p" transform="translate(-2.74 10.24) rotate(-15.26)"/>
    <polygon points="6.28 8.47 3.61 7.74 0.06 20.76 0 20.98 2.67 21.71 2.74 21.45 6.28 8.47" class="fill-p"/>
</svg>
