<svg id="_01" data-name="01" xmlns="http://www.w3.org/2000/svg" viewBox="0 0 40 40"><defs><style>.cls-2{fill:#5a5a5a;}</style></defs><title>Artboard 85</title><rect class="cls-1" width="40" height="40"/><path class="cls-2" d="M19.82,31l-1-1.58H7.21A1.86,1.86,0,0,1,5.4,27.7V4.1a1.85,1.85,0,0,1,1.81-1.7H23.69a1.61,1.61,0,0,1,1.54,1.7V20.92a1,1,0,0,0,.26,0,2.67,2.67,0,0,1,1.57.51,2,2,0,0,1,.27-.22c.11-.07.3-.12.3-.17V1.88A1.8,1.8,0,0,0,25.83,0H5.08A2,2,0,0,0,3,1.88V32.94a2.09,2.09,0,0,0,2.07,1.94H22.67A23.16,23.16,0,0,1,20,31.31a2.66,2.66,0,0,1-.23-.31m-7.49,1.66A.66.66,0,1,1,13,32a.66.66,0,0,1-.66.66m3.31.5A1.16,1.16,0,1,1,16.8,32a1.16,1.16,0,0,1-1.16,1.16m3.31-.5a.66.66,0,1,1,.66-.66.66.66,0,0,1-.66.66"/><path class="cls-2" d="M15.64,16.41a3,3,0,0,1,3,2.58l.88,1.46a3.88,3.88,0,0,0,.14-1,4,4,0,1,0-4.41,4l-.73-1.21a3,3,0,0,1,1.16-5.73"/><path class="cls-2" d="M20.61,22.31a2.49,2.49,0,0,1,.47-.36l.18-.09a6.13,6.13,0,1,0-5.62,3.67,6,6,0,0,0,.85-.07l-.57-.94h-.28a5.16,5.16,0,1,1,4.59-2.84Z"/><path class="cls-2" d="M37,36a19.73,19.73,0,0,0-5.5-11.66l-1.39-1.74a1.58,1.58,0,0,0-1.36-.76,1.77,1.77,0,0,0-.87.23c-.06,0-.23.09-.23.13a1.33,1.33,0,0,0-.5.95l-.25-.47a1.65,1.65,0,0,0-1.39-.76,2.12,2.12,0,0,0-.8.33h0A1.51,1.51,0,0,0,24,23.75l-.22-.39a1.59,1.59,0,0,0-1.35-.77,1.57,1.57,0,0,0-.81.22A1.6,1.6,0,0,0,21,25l-.92-1.46h0l-.5-.89L19,21.55l-.59-1-.74-1.23a1.58,1.58,0,0,0-1.35-.76,1.56,1.56,0,0,0-.81.23A1.59,1.59,0,0,0,14.94,21l.85,1.4.57.94.63,1,1,1.77c1-.32,1.38-1.78,2.08-2.52a6.19,6.19,0,0,1-2.58,1.67L20,29.41l.66,1.06a1.47,1.47,0,0,0,.2.26A26.65,26.65,0,0,0,24,34.89a22.33,22.33,0,0,0,6.13,4.62,5.59,5.59,0,0,0,2.31.49c2.52,0,4.75-1.72,4.5-4"/></svg>