<svg id="_01" data-name="01" xmlns="http://www.w3.org/2000/svg" viewBox="0 0 40 40"><defs><style>.cls-2{fill:#5a5a5a;}</style></defs><title>Artboard 86</title><rect class="cls-1" width="40" height="40"/><path class="cls-2" d="M7.34,30.28l8.31,8.31a4.85,4.85,0,0,0,6.84,0l.85-.85a4.85,4.85,0,0,0,0-6.84L15,22.59a.82.82,0,0,0-1.16,0L7.34,29.12a.83.83,0,0,0,0,1.16"/><path class="cls-2" d="M13.28,23.05,10,19.74a1,1,0,0,0-1.36,0L4.5,23.86a1,1,0,0,0,0,1.35l3.31,3.31a1,1,0,0,0,1.36,0l4.12-4.12a1,1,0,0,0,0-1.35M13,24.11,8.87,28.23a.55.55,0,0,1-.77,0L4.79,24.92a.55.55,0,0,1,0-.77L8.91,20a.55.55,0,0,1,.77,0L13,23.34a.55.55,0,0,1,0,.77"/><path class="cls-2" d="M9.68,20a.55.55,0,0,0-.77,0L4.79,24.14a.55.55,0,0,0,0,.77L8.1,28.23a.55.55,0,0,0,.77,0L13,24.11a.55.55,0,0,0,0-.77Zm3,3.8L8.58,27.94a.14.14,0,0,1-.19,0L5.08,24.63a.14.14,0,0,1,0-.19l4.12-4.12a.14.14,0,0,1,.19,0l3.31,3.31a.14.14,0,0,1,0,.19"/><rect class="cls-2" x="9.4" y="22.87" width="1.99" height="1.17" rx="0.35" ry="0.35" transform="translate(-13.55 14.25) rotate(-45.06)"/><path class="cls-2" d="M8.75,24.76a.35.35,0,0,0-.5,0l-.91.91a.35.35,0,0,0,0,.5l.33.33a.35.35,0,0,0,.5,0l.91-.91a.35.35,0,0,0,0-.5Z"/><path class="cls-2" d="M11.49,16.21V14.68A4.85,4.85,0,0,0,6.65,9.84H5.45A4.85,4.85,0,0,0,.61,14.68v1.54Z"/><path class="cls-2" d="M11.49,18.13v-.9H.61v.9a.24.24,0,0,0,.24.25H11.24a.25.25,0,0,0,.25-.25"/><path class="cls-2" d="M37.49,12,37.2,9.74,38,9.11l.82-.62c-.08-.24-.16-.47-.26-.7s-.15-.37-.23-.55-.18-.42-.29-.63l-2,.26L34.64,5.07l.79-1.89a12.3,12.3,0,0,0-1.61-1.24L32.19,3.18l-1.05-.44-1.05-.44-.13-1-.13-1A12.44,12.44,0,0,0,28.32,0l-.51,0L27,1.9l-2.26.29L23.52.56c-.32.1-.64.22-1,.35s-.62.27-.92.42l.14,1.08.12,1L21,4.06l-.9.69L18.21,4c-.23.25-.45.51-.66.78s-.4.54-.58.83L18.21,7.2l-.88,2.1-2,.26a12.6,12.6,0,0,0-.27,2l1.9.79.29,2.26-1.63,1.25a12.13,12.13,0,0,0,.48,1.25c.1.21.19.42.29.63l2-.26,1.38,1.81L19,21.18a12.11,12.11,0,0,0,1.6,1.24l.82-.62.81-.62,2.1.88.27,2c.33.07.66.13,1,.18s.67.08,1,.09l.79-1.9,2.25-.29.62.82.63.81.2-.07a12.35,12.35,0,0,0,1.67-.7l-.27-2,.65-.5h0l.07-.05,1.09-.83,1.89.79c.23-.25.45-.51.65-.78s.4-.54.59-.83l-1.25-1.63.88-2.1,2-.26c.07-.33.13-.66.17-1s.08-.67.09-1ZM26.27,4.92c.22,0,.44,0,.67-.05h.88l.44.06.25,0L29,5.1l.14,0c.22.06.44.14.65.22l.15.07.47.21.21.12.38.21.23.15.33.23.22.18.3.25.21.2.27.28.19.22.25.3.17.24c.07.11.15.22.21.33l.16.25c.07.12.12.24.18.36l.13.26c.06.13.11.26.16.39l.1.26c0,.15.09.3.13.45s0,.15.06.23a7.06,7.06,0,0,1,.17.7h.05c0,.22,0,.44,0,.67,0,0,0,.1,0,.14a6.32,6.32,0,0,1,0,.64s0,.07,0,.11c0,.19,0,.38-.07.57l0,.11c0,.21-.09.4-.14.6l0,.14c-.05.2-.12.4-.19.59v0c-.07.19-.16.37-.24.55l-.06.13c-.09.18-.19.35-.3.52l-.06.11c-.1.15-.2.3-.31.44l-.07.1c-.12.16-.25.31-.38.45l-.11.11c-.14.15-.28.29-.43.42h0l-.06.05c-.14.12-.28.23-.43.34l-.17.12-.37.25-.18.11c-.19.11-.37.21-.57.29h0c-.18.08-.37.16-.57.23l-.2.06-.46.14-.19,0c-.22,0-.44.09-.66.12h0c-.22,0-.45,0-.67.05h-.86L26,19.39l-.22,0-.42-.09L25,19.14l-.26-.09-.39-.15-.19-.08-.41-.2-.11-.06a7.31,7.31,0,0,1-3.55-4.7c-.05-.24-.1-.48-.13-.73a6.45,6.45,0,0,1-.06-.75,6.57,6.57,0,0,1,0-.73,7.56,7.56,0,0,1,.25-1.42,7.31,7.31,0,0,1,6.11-5.3"/><path class="cls-2" d="M28.08,18.86a6.7,6.7,0,0,0,3.74-1.77l-.29-.83c0-.74-1.14-1.27-1.65-1.27H29.2C29,16,27.58,17.13,27.58,17.13S26.13,16,25.95,15h-1.4v.19c-.53,0-1.38.39-1.38,1.13l-.29,1a6.72,6.72,0,0,0,4.32,1.59,7,7,0,0,0,.88,0"/><path class="cls-2" d="M25.94,14.07c.07.82.75,1.79,1.59,1.79a1.76,1.76,0,0,0,1.55-1.42l0,0h0a1.93,1.93,0,0,1,0-.53h-.07a7.07,7.07,0,0,0,1.23-3.62,2.88,2.88,0,0,0-2.67-3,2.82,2.82,0,0,0-3,3,6.2,6.2,0,0,0,1.36,3.77"/></svg>