<svg id="_01" data-name="01" xmlns="http://www.w3.org/2000/svg" viewBox="0 0 40 40"><defs><style>.cls-2{fill:#5a5a5a;}</style></defs><title>Artboard 97</title><rect class="cls-1" width="40" height="40"/><path class="cls-2" d="M22.23,14.22h0l0-.08A7.22,7.22,0,0,0,18.93,4.5c-.21-.1-.42-.19-.62-.27l-.09,0L17.61,4,17.5,4l-.61-.12h-.11l-.62-.06h-.78l-.61.06H14.7l-.54.1L14,4l-.47.14-.12,0-.57.23-.14.07-.43.22-.15.09c-.18.11-.35.22-.52.34l0,0c-.16.11-.31.24-.46.36L11,5.63,10.59,6l-.1.1c-.14.15-.28.31-.41.48L10,6.69c-.1.14-.2.28-.29.42l-.1.16c-.11.19-.22.38-.32.58l0,.08h0L.73,25.48a7.22,7.22,0,1,0,13,6.3l4.36-9h0ZM11.56,30.74a4.82,4.82,0,0,1-8.67-4.21l4.36-9,8.67,4.21Z"/><path class="cls-2" d="M30.07,16.36a9.93,9.93,0,0,0-7.8,16.08L36.22,18.5A9.9,9.9,0,0,0,30.07,16.36Z"/><path class="cls-2" d="M37.86,20.14,23.92,34.09A9.93,9.93,0,0,0,37.86,20.14Z"/></svg>