<svg xmlns="http://www.w3.org/2000/svg" xmlns:xlink="http://www.w3.org/1999/xlink" id="_01" data-name="01" viewBox="0 0 40 40">
    <defs>
        <linearGradient id="linear-gradient" x1="20" x2="20" y1="7.49" y2="30.83" gradientUnits="userSpaceOnUse">
            <stop offset="0" stop-color="#fff"/>
            <stop offset="1"/>
        </linearGradient>
        <mask id="mask" width="16.67" height="23.33" x="11.67" y="7.49" maskUnits="userSpaceOnUse">
            <path d="M11.67,7.49H28.33V30.83H11.67Z" class="fr-evenodd fill-mask"/>
        </mask>
    </defs>
    <title>
        device_05
    </title>
    <g class="fill-mask">
        <path d="M11.67,7.49H28.33V30.83H11.67Z" class="fill-p"/>
    </g>
    <path d="M30,0H10A3.33,3.33,0,0,0,6.67,3.33V36.67A3.33,3.33,0,0,0,10,40H30a3.33,3.33,0,0,0,3.33-3.33V3.33A3.33,3.33,0,0,0,30,0ZM15,1.67h8.33l.11,1.67H15ZM20,37.5a1.67,1.67,0,1,1,1.66-1.67A1.67,1.67,0,0,1,20,37.5Zm10-5.83H10L10,5H30Z" class="fill-p"/>
</svg>
