<svg id="_01" data-name="01" xmlns="http://www.w3.org/2000/svg" viewBox="0 0 40 40"><defs><style>.cls-2{fill:#5a5a5a;}</style></defs><title>Artboard 105</title><rect class="cls-1" width="40" height="40"/><path class="cls-2" d="M20,0A20,20,0,1,0,34.15,34.14L20,20ZM9.15,9.38a1.07,1.07,0,0,1,1.06-1.06h4.25a1.07,1.07,0,0,1,1.06,1.06v3.19a1.07,1.07,0,0,1-1.06,1.06H10.21a1.07,1.07,0,0,1-1.06-1.06Zm8.49,21.24a1.07,1.07,0,0,1-1.06,1.06H8.08A1.07,1.07,0,0,1,7,30.62V28.49a1.07,1.07,0,0,1,1.06-1.06H9.15V21.06H8.08A1.07,1.07,0,0,1,7,20V17.88a1.07,1.07,0,0,1,1.06-1.06h6.37a1.07,1.07,0,0,1,1.06,1.06v9.56h1.06a1.07,1.07,0,0,1,1.06,1.06Z"/><path class="cls-2" d="M23.4.29V3.75A16.61,16.61,0,0,1,33.9,29.09l2.44,2.44A20,20,0,0,0,23.4.29Z"/></svg>