<svg xmlns="http://www.w3.org/2000/svg" id="_01" data-name="01" viewBox="0 0 40 40">
    <title>
        tools_02
    </title>
    <path d="M7.95,39.1a3.12,3.12,0,0,1-2.19.9,3.24,3.24,0,0,1-2.21-.9L1,36.47A3.06,3.06,0,0,1,0,34.28,3.15,3.15,0,0,1,1,32.06L17.54,15.48a12.56,12.56,0,0,0,7,7Zm-.63-7.94a1.56,1.56,0,1,0,1.56,1.56A1.57,1.57,0,0,0,7.32,31.16ZM39.43,14.49a10.9,10.9,0,0,1-21.21-3.58A10.91,10.91,0,0,1,34.71,1.53a.81.81,0,0,1,.39.68.87.87,0,0,1-.39.68L27.57,7v5.45l4.7,2.6c.8-.46,6.45-4,6.94-4a.78.78,0,0,1,.78.85A8.77,8.77,0,0,1,39.43,14.49Z" class="fill-p"/>
</svg>
