<svg id="_01" data-name="01" xmlns="http://www.w3.org/2000/svg" viewBox="0 0 40 40"><defs><style>.cls-2{fill:#5a5a5a;}</style></defs><title>Artboard 111</title><rect class="cls-1" x="0.01" width="40" height="40"/><path class="cls-2" d="M30.36,22.81V20.75H29v2.06a9,9,0,0,1-9,8.93h0A8.93,8.93,0,0,1,11,22.81V20.75H9.67v2.06A10.27,10.27,0,0,0,18.51,33v4.17c-3.92.29-6.87,1.62-6.87,2.85,0,0,16.94,0,16.94,0,0-1.27-3.19-2.64-7.32-2.87V33A10.34,10.34,0,0,0,30.36,22.81ZM20,30.28a7.63,7.63,0,0,0,7.64-7.55v-2H12.42v2A7.56,7.56,0,0,0,20,30.28ZM27.61,7.55a7.6,7.6,0,0,0-15.2,0V19.38h15.2ZM22.77,2.78a.69.69,0,1,1-.69.69A.69.69,0,0,1,22.77,2.78ZM20,2.78a.69.69,0,1,1-.69.69A.69.69,0,0,1,20,2.78Zm-2.76,0a.69.69,0,1,1-.69.69A.69.69,0,0,1,17.26,2.78ZM14.5,17.95a.69.69,0,1,1,.69-.69A.69.69,0,0,1,14.5,17.95Zm0-2.76a.69.69,0,1,1,.69-.69A.69.69,0,0,1,14.5,15.19Zm0-2.76a.69.69,0,1,1,.69-.69A.69.69,0,0,1,14.5,12.43Zm0-2.76A.69.69,0,1,1,15.19,9,.69.69,0,0,1,14.5,9.67Zm1.38-2.76a.69.69,0,1,1,.69-.69A.69.69,0,0,1,15.88,6.91Zm1.38,11a.69.69,0,1,1,.69-.69A.69.69,0,0,1,17.26,17.95Zm0-2.76a.69.69,0,1,1,.69-.69A.69.69,0,0,1,17.26,15.19Zm0-2.76a.69.69,0,1,1,.69-.69A.69.69,0,0,1,17.26,12.43Zm0-2.76A.69.69,0,1,1,17.95,9,.69.69,0,0,1,17.26,9.67Zm1.38-2.76a.69.69,0,1,1,.69-.69A.69.69,0,0,1,18.64,6.91Zm1.38,11a.69.69,0,1,1,.69-.69A.69.69,0,0,1,20,17.95Zm0-2.76a.69.69,0,1,1,.69-.69A.69.69,0,0,1,20,15.19Zm0-2.76a.69.69,0,1,1,.69-.69A.69.69,0,0,1,20,12.43Zm0-2.76A.69.69,0,1,1,20.7,9,.69.69,0,0,1,20,9.67Zm1.38-2.76a.69.69,0,1,1,.69-.69A.69.69,0,0,1,21.39,6.91Zm1.38,11a.69.69,0,1,1,.69-.69A.69.69,0,0,1,22.77,17.95Zm0-2.76a.69.69,0,1,1,.69-.69A.69.69,0,0,1,22.77,15.19Zm0-2.76a.69.69,0,1,1,.69-.69A.69.69,0,0,1,22.77,12.43Zm0-2.76A.69.69,0,1,1,23.46,9,.69.69,0,0,1,22.77,9.67Zm1.38-2.76a.69.69,0,1,1,.69-.69A.69.69,0,0,1,24.15,6.91Zm1.38,11a.69.69,0,1,1,.69-.69A.69.69,0,0,1,25.53,17.95Zm0-2.76a.69.69,0,1,1,.69-.69A.69.69,0,0,1,25.53,15.19Zm0-2.76a.69.69,0,1,1,.69-.69A.69.69,0,0,1,25.53,12.43Zm0-2.76A.69.69,0,1,1,26.22,9,.69.69,0,0,1,25.53,9.67Z"/></svg>