<svg id="_01" data-name="01" xmlns="http://www.w3.org/2000/svg" viewBox="0 0 40 40"><defs><style>.cls-2{fill:#5a5a5a;}</style></defs><title>Artboard 112</title><rect class="cls-1" x="0.02" y="0.08" width="40" height="40"/><path class="cls-2" d="M19,3.27V4a7.47,7.47,0,0,1,1.87-.25h.19V3.27a1.67,1.67,0,0,0,1-1.47A1.91,1.91,0,0,0,20.09.08,1.91,1.91,0,0,0,18,1.8,1.68,1.68,0,0,0,19,3.27Z"/><path class="cls-2" d="M19.11,10.71l.07,9,.41-.17c.36-.14,1.07-.33,1.39-.47l.07-8.6-.16,0a4,4,0,0,0-.64-.06A1.45,1.45,0,0,0,19.11,10.71Z"/><path class="cls-2" d="M17.76,15.22l0-4c0-.08,0-.17,0-.26,0-.77.62-2.45,3.44-2s3.53-.1,3.73-1S24,5.57,21.83,5.24C18.32,4.7,15,7.44,15,10.61A5.23,5.23,0,0,0,17.76,15.22Zm3.93-8.77c.52,0,.94.16.94.47s-.42.41-.94.41-.94-.24-.94-.41S21.17,6.45,21.68,6.45Z"/><path class="cls-2" d="M17.85,26.31A1.18,1.18,0,0,1,17.8,26c0-1.13.76-1.68,3.46-2.7S25.08,21,25.08,18.9c0-1.76-.82-2.8-2.66-4l0,3.92s0,0,0,.07c0,1.24-1,1.48-2.83,2.23-4.33,1.8-4.48,3.51-4.48,4.86,0,1.6,1,2.87,2.81,3.92Z"/><path class="cls-2" d="M20.87,33.38,20.94,25a10.39,10.39,0,0,0-1.7.77l.07,8.36A7.46,7.46,0,0,0,20.87,33.38Z"/><path class="cls-2" d="M22.29,29.64l0,3.4a1.45,1.45,0,0,1,0,.26c0,.91-1.33,1.79-2.72,2.27-2.29.79-2.93,1.16-2.7,1.61.54,1.05,3.46.16,4.74-.35,1.8-.72,3-1.87,3-3.38S24,30.77,22.29,29.64Z"/><path class="cls-2" d="M19.36,40.08h1.45V38.44a13.59,13.59,0,0,1-1.47.36Z"/></svg>