<svg id="Layer_1" data-name="Layer 1" xmlns="http://www.w3.org/2000/svg" viewBox="0 0 40 40"><defs><style>.cls-1{fill:#207245;}.cls-2{fill:#fff;}</style></defs><title>Excel</title><g id="excel"><path class="cls-1" d="M20.87,1.5h2.56V5c4.32,0,8.64,0,13,0a4,4,0,0,1,2.17.41A4,4,0,0,1,39,7.54Q39,18.78,39,30a19.69,19.69,0,0,1-.15,3.78c-.17.9-1.25.92-2,.95-4.47,0-8.95,0-13.43,0v3.89H20.76C14.18,37.43,7.59,36.32,1,35.17V5C7.63,3.81,14.25,2.67,20.87,1.5Z"/><path class="cls-2" d="M23.44,6.25H37.68v27.2H23.44V30.85h3.45v-3H23.44V26.11h3.45v-3H23.44V21.36h3.45v-3H23.44V16.61h3.45v-3H23.44V11.86h3.45v-3H23.44Z"/><path class="cls-1" d="M28.62,8.84h6v3h-6Z"/><path class="cls-2" d="M13.79,12.88q1.46-.1,2.94-.18Q15,16.25,13.24,19.78c1.19,2.42,2.4,4.82,3.59,7.23l-3.12-.2a51,51,0,0,1-2.15-5.42c-.59,1.75-1.42,3.41-2.1,5.12-.95,0-1.89-.05-2.84-.09,1.11-2.17,2.18-4.36,3.32-6.52-1-2.22-2-4.4-3-6.61l2.85-.16c.64,1.69,1.35,3.35,1.88,5.08C12.21,16.38,13.06,14.66,13.79,12.88Z"/><path class="cls-1" d="M28.62,13.59h6v3h-6Z"/><path class="cls-1" d="M28.62,18.34h6v3h-6Z"/><path class="cls-1" d="M28.62,23.08h6v3h-6Z"/><path class="cls-1" d="M28.62,27.83h6v3h-6Z"/></g></svg>