<svg xmlns="http://www.w3.org/2000/svg" id="Layer_1" data-name="Layer 1" viewBox="0 0 40 40">
    <title>
        audio_05
    </title>
    <path d="M36.2,1.94a86,86,0,0,0-24,3.95s0,22.55,0,22.55A7.13,7.13,0,0,0,7.71,29C4.7,30.42,3,33.19,4,35.24s4.24,2.6,7.25,1.23C14.05,35,14.94,33.65,15,31.71l.07-19.58A81.23,81.23,0,0,1,33.39,9V26.51a7.8,7.8,0,0,0-4.89.59c-3,1.37-4.66,4.15-3.68,6.2s4.23,2.6,7.26,1.23c2.14-1,3.86-2.66,4.17-4.29C36.25,30.23,36.18,1.9,36.2,1.94Z" class="fill-p fr-evenodd"/>
</svg>
