<svg id="Layer_1" data-name="Layer 1" xmlns="http://www.w3.org/2000/svg" viewBox="0 0 40 40"><defs><style>.cls-1{fill:#5a5a5a;fill-rule:evenodd;}</style></defs><title>Artboard 24</title><path class="cls-1" d="M38.9,33.64q-.24-.41-1.54-.25a3.18,3.18,0,0,1-3.47-1.56A3.6,3.6,0,0,1,33.46,29a14.61,14.61,0,0,1,2.34-4.09l.81-1.13q3.61-5,1.48-8.69c-1.45-2.51-5.62-2.3-8.63-1A15.16,15.16,0,1,0,30,15.36a11.64,11.64,0,0,1,3.37-.67c1.5-.05,2.86.26,3.4,1.2q1.81,3.13-1.74,7.39l-.48.58q-4.15,5-2,8.73a4.87,4.87,0,0,0,2.78,2.16,3.81,3.81,0,0,0,3.23-.12A.65.65,0,0,0,38.9,33.64ZM9.1,23.78a3.13,3.13,0,1,1,3.13-3.13A3.13,3.13,0,0,1,9.1,23.78ZM16,30.66a3.13,3.13,0,1,1,3.13-3.12A3.12,3.12,0,0,1,16,30.66Zm-1.23-10A1.25,1.25,0,1,1,16,21.91,1.25,1.25,0,0,1,14.75,20.66ZM16,16.91a3.12,3.12,0,1,1,3.13-3.12A3.12,3.12,0,0,1,16,16.91Zm6.88,6.88A3.13,3.13,0,1,1,26,20.66,3.13,3.13,0,0,1,22.85,23.78Z"/></svg>