<svg id="Layer_1" data-name="Layer 1" xmlns="http://www.w3.org/2000/svg" viewBox="0 0 40 40"><defs><style>.cls-1{fill:#5a5a5a;fill-rule:evenodd;}</style></defs><title>Artboard 19</title><path class="cls-1" d="M1.88,6.28V33a16.2,16.2,0,0,1,8.73-2.6A16.2,16.2,0,0,1,19.33,33V6.61a14.78,14.78,0,0,0-8.73-3A15.87,15.87,0,0,0,1.88,6.28ZM4.56,9H9.93v6.71H4.56ZM16.64,26.42H4.56V25.07H16.64Zm0-2.68H4.56V22.39H16.64Zm0-2.69H4.56V19.7H16.64Zm0-2.69H4.56V17H16.64ZM11.27,9h5.37v1.34H11.27Zm0,2.69h5.37V13H11.27Zm0,2.69h5.37v1.34H11.27ZM22,33.13s8.31-2.77,14.77,2.43V33.13C29.23,28.94,22,33.13,22,33.13ZM29.4,3.59a15.87,15.87,0,0,0-8.73,2.69V33a15.94,15.94,0,0,1,17.45,0V6.61A14.78,14.78,0,0,0,29.4,3.59Zm6,22.82H23.36V25.07H35.44Zm0-2.68H23.36V22.39H35.44Zm0-2.69H23.36V19.7H35.44Zm0-2.69H23.36V17H35.44Zm0-2.68H23.36V14.33H35.44Zm0-2.69H23.36V11.65H35.44Zm0-2.69H23.36V9H35.44ZM3.22,33.13v2.43C9.68,30.36,18,33.13,18,33.13S10.77,28.94,3.22,33.13Z"/></svg>