<svg id="Layer_1" data-name="Layer 1" xmlns="http://www.w3.org/2000/svg" viewBox="0 0 40 40"><defs><style>.cls-1{fill:#5a5a5a;fill-rule:evenodd;}</style></defs><title>Artboard 23</title><path class="cls-1" d="M35.63,10.58H28.2a8.61,8.61,0,0,1-.08-1.87A3.12,3.12,0,0,0,25,5.58H15A3.12,3.12,0,0,0,11.88,8.7,8.61,8.61,0,0,0,12,10.58H4.37a2.5,2.5,0,0,0-2.5,2.5v20a2.5,2.5,0,0,0,2.5,2.5H35.63a2.5,2.5,0,0,0,2.5-2.5v-20A2.5,2.5,0,0,0,35.63,10.58Zm-15.57,20a7.5,7.5,0,1,1,7.5-7.5A7.5,7.5,0,0,1,20.06,30.55Z"/></svg>