<svg id="Layer_1" data-name="Layer 1" xmlns="http://www.w3.org/2000/svg" viewBox="0 0 40 40"><defs><style>.cls-1{fill-rule:evenodd;fill:#5a5a5a;}</style></defs><title>Artboard 26</title><path class="cls-1" d="M31.25,22a2.81,2.81,0,0,0-2.81,2.81v5.63h-7V10.73H36.88V22Zm-7-9.85H22.81V15h1.41Zm0,14.06H22.81V29h1.41ZM27,12.14h-1.4V15H27ZM27,26.2h-1.4V29H27Zm2.81-14.06H28.44V15h1.41Zm2.81,0H31.25V15h1.41Zm2.81,0h-1.4V15h1.4ZM3.13,6.51H21.41V9.33H3.13ZM20,10.73V30.42H4.53V10.73Zm1.41,23.91H3.13V31.83H21.41Z"/></svg>