<svg xmlns="http://www.w3.org/2000/svg" xmlns:xlink="http://www.w3.org/1999/xlink" viewBox="0 0 40 40"><defs><style>.cls-2{isolation:isolate;}.cls-3{fill:url(#linear-gradient);}.cls-4{fill:url(#linear-gradient-2);}.cls-5{fill:url(#linear-gradient-3);}.cls-10,.cls-11,.cls-6,.cls-7{fill:#7f7f7f;}.cls-6{opacity:0.5;}.cls-7{opacity:0.3;}.cls-8{fill:url(#linear-gradient-4);}.cls-9{opacity:0.9;fill:url(#linear-gradient-5);}.cls-10{opacity:0.1;}.cls-11{opacity:0.2;}.cls-12{fill:url(#linear-gradient-6);}.cls-13{fill:#58595b;}.cls-14{fill:url(#radial-gradient);}.cls-15{fill:url(#linear-gradient-7);}.cls-16,.cls-196{fill:#fff;}.cls-17{opacity:0.7;fill:url(#linear-gradient-8);}.cls-18{opacity:0.8;fill:url(#radial-gradient-2);}.cls-19{mix-blend-mode:screen;}.cls-20{clip-path:url(#clip-path);}.cls-21{fill:#020202;}.cls-22{fill:#030303;}.cls-23{fill:#050505;}.cls-24{fill:#060606;}.cls-25{fill:#080808;}.cls-26{fill:#090909;}.cls-27{fill:#0b0b0b;}.cls-28{fill:#0c0c0c;}.cls-29{fill:#0e0e0e;}.cls-30{fill:#0f0f0f;}.cls-31{fill:#111;}.cls-32{fill:#121212;}.cls-33{fill:#141414;}.cls-34{fill:#151515;}.cls-35{fill:#171717;}.cls-36{fill:#181818;}.cls-37{fill:#1a1a1a;}.cls-38{fill:#1b1b1b;}.cls-39{fill:#1c1d1d;}.cls-40{fill:#1e1e1e;}.cls-41{fill:#1f2020;}.cls-42{fill:#212121;}.cls-43{fill:#222223;}.cls-44{fill:#242424;}.cls-45{fill:#252525;}.cls-46{fill:#272727;}.cls-47{fill:#282828;}.cls-48{fill:#292a2a;}.cls-49{fill:#2b2b2b;}.cls-50{fill:#2c2c2d;}.cls-51{fill:#2e2e2e;}.cls-52{fill:#2f2f2f;}.cls-53{fill:#303131;}.cls-54{fill:#323232;}.cls-55{fill:#333334;}.cls-56{fill:#353535;}.cls-57{fill:#363636;}.cls-58{fill:#373838;}.cls-59{fill:#393939;}.cls-60{fill:#3a3a3b;}.cls-61{fill:#3b3c3c;}.cls-62{fill:#3d3d3d;}.cls-63{fill:#3e3e3f;}.cls-64{fill:#3f4040;}.cls-65{fill:#414141;}.cls-66{fill:#424243;}.cls-67{fill:#434444;}.cls-68{fill:#454545;}.cls-69{fill:#464647;}.cls-70{fill:#474848;}.cls-71{fill:#494949;}.cls-72{fill:#4a4a4b;}.cls-73{fill:#4b4c4c;}.cls-74{fill:#4d4d4d;}.cls-75{fill:#4e4e4f;}.cls-76{fill:#4f5050;}.cls-77{fill:#505151;}.cls-78{fill:#525253;}.cls-79{fill:#535354;}.cls-80{fill:#545555;}.cls-81{fill:#565656;}.cls-82{fill:#575758;}.cls-83{fill:#585859;}.cls-84{fill:#595a5a;}.cls-85{fill:#5b5b5b;}.cls-86{fill:#5c5c5d;}.cls-87{fill:#5d5d5e;}.cls-88{fill:#5e5f5f;}.cls-89{fill:#5f6060;}.cls-90{fill:#616162;}.cls-91{fill:#626263;}.cls-92{fill:#636464;}.cls-93{fill:#646565;}.cls-94{fill:#656666;}.cls-95{fill:#676768;}.cls-96{fill:#686869;}.cls-97{fill:#696a6a;}.cls-98{fill:#6a6b6b;}.cls-99{fill:#6b6c6c;}.cls-100{fill:#6c6d6e;}.cls-101{fill:#6e6e6f;}.cls-102{fill:#6f6f70;}.cls-103{fill:#707071;}.cls-104{fill:#717272;}.cls-105{fill:#727373;}.cls-106{fill:#737474;}.cls-107{fill:#747576;}.cls-108{fill:#767677;}.cls-109{fill:#777778;}.cls-110{fill:#787879;}.cls-111{fill:#79797a;}.cls-112{fill:#7a7b7b;}.cls-113{fill:#7b7c7c;}.cls-114{fill:#7c7d7d;}.cls-115{fill:#7d7e7e;}.cls-116{fill:#7e7f80;}.cls-117{fill:#7f8081;}.cls-118{fill:#808182;}.cls-119{fill:#818283;}.cls-120{fill:#838384;}.cls-121{fill:#848485;}.cls-122{fill:#858586;}.cls-123{fill:#868687;}.cls-124{fill:#878788;}.cls-125{fill:#888889;}.cls-126{fill:#89898a;}.cls-127{fill:#8a8a8b;}.cls-128{fill:#8b8b8c;}.cls-129{fill:#8c8c8d;}.cls-130{fill:#8d8d8e;}.cls-131{fill:#8e8e8f;}.cls-132{fill:#8f8f90;}.cls-133{fill:#909091;}.cls-134{fill:#919192;}.cls-135{fill:#919293;}.cls-136{fill:#929394;}.cls-137{fill:#939495;}.cls-138{fill:#949596;}.cls-139{fill:#959697;}.cls-140{fill:#969798;}.cls-141{fill:#979899;}.cls-142{fill:#98999a;}.cls-143{fill:#999a9a;}.cls-144{fill:#9a9b9b;}.cls-145{fill:#9b9b9c;}.cls-146{fill:#9c9c9d;}.cls-147{fill:#9c9d9e;}.cls-148{fill:#9d9e9f;}.cls-149{fill:#9e9fa0;}.cls-150{fill:#9fa0a1;}.cls-151{fill:#a0a1a2;}.cls-152{fill:#a1a2a2;}.cls-153{fill:#a2a2a3;}.cls-154{fill:#a2a3a4;}.cls-155{fill:#a3a4a5;}.cls-156{fill:#a4a5a6;}.cls-157{fill:#a5a6a7;}.cls-158{fill:#a6a6a7;}.cls-159{fill:#a6a7a8;}.cls-160{fill:#a7a8a9;}.cls-161{fill:#a8a9aa;}.cls-162{fill:#a9aaaa;}.cls-163{fill:#aaaaab;}.cls-164{fill:#aaabac;}.cls-165{fill:#abacad;}.cls-166{fill:#acadae;}.cls-167{fill:#adadae;}.cls-168{fill:#adaeaf;}.cls-169{fill:#aeafb0;}.cls-170{fill:#afb0b0;}.cls-171{fill:#afb0b1;}.cls-172{fill:#b0b1b2;}.cls-173{fill:#b1b2b3;}.cls-174{fill:#b2b3b4;}.cls-175{fill:#b3b4b5;}.cls-176{fill:#b4b5b6;}.cls-177{fill:#b5b6b6;}.cls-178{fill:#b5b6b7;}.cls-179{fill:#b6b7b8;}.cls-180{fill:#b7b8b9;}.cls-181{fill:#b8b9ba;}.cls-182{fill:#b9babb;}.cls-183{fill:#babbbc;}.cls-184{fill:#bbbcbd;}.cls-185{fill:#bcbdbe;}.cls-186{fill:#bdbebf;}.cls-187{fill:#bebfc0;}.cls-188{fill:#bfc0c1;}.cls-189{fill:#c0c1c2;}.cls-190{fill:#c1c2c3;}.cls-191{fill:#c2c3c4;}.cls-192{fill:#c3c4c5;}.cls-193{fill:#c4c5c6;}.cls-194{clip-path:url(#clip-path-2);}.cls-195{fill:#0060a9;}.cls-196{stroke:#fff;stroke-width:0.11px;}</style><linearGradient id="linear-gradient" x1="19.96" y1="31.4" x2="19.96" y2="32.81" gradientUnits="userSpaceOnUse"><stop offset="0" stop-color="#363636"/><stop offset="0.08" stop-color="#2d2d2d"/><stop offset="0.23" stop-color="#202020"/><stop offset="0.82"/></linearGradient><linearGradient id="linear-gradient-2" x1="19.96" y1="33.14" x2="19.96" y2="32.81" gradientUnits="userSpaceOnUse"><stop offset="0.35"/><stop offset="0.5" stop-color="#030303"/><stop offset="0.6" stop-color="#0b0b0b"/><stop offset="0.68" stop-color="#1a1919"/><stop offset="0.75" stop-color="#2e2e2d"/><stop offset="0.82" stop-color="#494847"/><stop offset="0.82" stop-color="#4a4948"/><stop offset="1" stop-color="#202020"/></linearGradient><linearGradient id="linear-gradient-3" x1="17.96" y1="31.06" x2="21.96" y2="31.06" gradientUnits="userSpaceOnUse"><stop offset="0"/><stop offset="0.34" stop-color="#030303"/><stop offset="0.62" stop-color="#0d0d0c"/><stop offset="0.87" stop-color="#1f1e1c"/><stop offset="1" stop-color="#2a2927"/></linearGradient><linearGradient id="linear-gradient-4" x1="17.96" y1="32" x2="21.96" y2="32" gradientUnits="userSpaceOnUse"><stop offset="0.01"/><stop offset="0.1" stop-color="#020202"/><stop offset="0.13" stop-color="#090808"/><stop offset="0.15" stop-color="#141413"/><stop offset="0.17" stop-color="#252422"/><stop offset="0.18" stop-color="#2a2927"/><stop offset="0.2" stop-color="#252422"/><stop offset="0.29" stop-color="#141413"/><stop offset="0.4" stop-color="#090808"/><stop offset="0.56" stop-color="#020202"/><stop offset="1"/></linearGradient><linearGradient id="linear-gradient-5" x1="18.16" y1="32.4" x2="21.75" y2="32.4" gradientUnits="userSpaceOnUse"><stop offset="0"/><stop offset="0.32" stop-color="#040403"/><stop offset="0.61" stop-color="#0f0f0e"/><stop offset="0.9" stop-color="#22211f"/><stop offset="1" stop-color="#2a2927"/></linearGradient><linearGradient id="linear-gradient-6" x1="-1382.53" y1="18.29" x2="-1344.53" y2="18.29" gradientTransform="matrix(-1, 0, 0, 1, -1343.57, 0)" gradientUnits="userSpaceOnUse"><stop offset="0"/><stop offset="0.04" stop-color="#414042"/><stop offset="0.04" stop-color="#3f3e40"/><stop offset="0.05" stop-color="#393839"/><stop offset="0.05" stop-color="#2f2c2e"/><stop offset="0.05" stop-color="#231f20"/><stop offset="0.27" stop-color="#171415"/><stop offset="0.56"/><stop offset="0.83"/><stop offset="0.91" stop-color="#231f20"/><stop offset="0.94" stop-color="#414042"/><stop offset="0.98" stop-color="#231f20"/><stop offset="1"/></linearGradient><radialGradient id="radial-gradient" cx="-1376.27" cy="21.62" r="14.86" gradientTransform="matrix(-1, 0, 0, 1, -1343.57, 0)" gradientUnits="userSpaceOnUse"><stop offset="0" stop-color="#b6bab5"/><stop offset="0.01" stop-color="#b1b5b0"/><stop offset="0.12" stop-color="#898d89"/><stop offset="0.22" stop-color="#6a6d69"/><stop offset="0.32" stop-color="#535653"/><stop offset="0.42" stop-color="#464946"/><stop offset="0.5" stop-color="#414441"/><stop offset="1"/></radialGradient><linearGradient id="linear-gradient-7" x1="-1374.15" y1="10.03" x2="-1354.09" y2="25.47" gradientTransform="matrix(-1, 0, 0, 1, -1343.57, 0)" gradientUnits="userSpaceOnUse"><stop offset="0" stop-color="#b8bab9"/><stop offset="1" stop-color="#414042"/></linearGradient><linearGradient id="linear-gradient-8" x1="-1369.83" y1="3.24" x2="-1379.91" y2="30.94" gradientTransform="matrix(-1, 0, 0, 1, -1343.57, 0)" gradientUnits="userSpaceOnUse"><stop offset="0" stop-color="#babcbe"/><stop offset="0" stop-color="#b9bbbd"/><stop offset="0.05" stop-color="#8b8d8f"/><stop offset="0.11" stop-color="#646568"/><stop offset="0.16" stop-color="#444548"/><stop offset="0.22" stop-color="#2c2c2f"/><stop offset="0.28" stop-color="#1a1a1d"/><stop offset="0.34" stop-color="#0f0f12"/><stop offset="0.41" stop-color="#0c0c0f"/></linearGradient><radialGradient id="radial-gradient-2" cx="-1379.41" cy="29.62" r="0.12" gradientTransform="matrix(-1, 0, 0, 1, -1343.57, 0)" gradientUnits="userSpaceOnUse"><stop offset="0.32" stop-color="#da0500"/><stop offset="0.42" stop-color="#d00500"/><stop offset="0.6" stop-color="#b40300"/><stop offset="0.83" stop-color="#880200"/><stop offset="1" stop-color="#610000"/></radialGradient><clipPath id="clip-path"><path class="cls-1" d="M38.67,6.47s.11,0,.19.09.08.2.05.17a.4.4,0,0,0-.08-.13C38.75,6.51,38.66,6.48,38.67,6.47Z"/></clipPath><clipPath id="clip-path-2"><rect class="cls-1" x="2.16" y="7.64" width="35.6" height="21.31"/></clipPath></defs><title>CDC-tv</title><g class="cls-2"><g id="Layer_1" data-name="Layer 1"><polygon class="cls-3" points="31.14 32.81 8.77 32.81 11.08 31.4 28.85 31.4 31.14 32.81"/><rect class="cls-4" x="8.77" y="32.81" width="22.38" height="0.32"/><path class="cls-5" d="M21.9,31.83a1.57,1.57,0,0,1-.43-1.14V30h-3v.73A1.42,1.42,0,0,1,18,31.82s-.08,0-.08.07a4.21,4.21,0,0,0,2,.25,4.22,4.22,0,0,0,2-.25S21.93,31.84,21.9,31.83Z"/><path class="cls-6" d="M20.22,30V31.2s-.09,1,1,.63V30Z"/><path class="cls-7" d="M19.23,30h-.41v1.84c.44.1.44-.63.44-.63Z"/><path class="cls-8" d="M21.94,31.86a5.24,5.24,0,0,1-2,.22,5.24,5.24,0,0,1-2-.22v0a4.21,4.21,0,0,0,2,.25,4.22,4.22,0,0,0,2-.25Z"/><path class="cls-9" d="M18.47,32.37v.44h3v-.56a.61.61,0,0,1,.29-.26,8.65,8.65,0,0,1-1.8.14A9,9,0,0,1,18.16,32C18.3,32.06,18.47,32.19,18.47,32.37Z"/><path class="cls-10" d="M19.13,32.81v-.15a.41.41,0,0,0-.32-.5v.66Z"/><path class="cls-11" d="M20.23,32.81h.95v-.66c-1,.08-1,.5-1,.5Z"/><rect class="cls-12" x="0.96" y="6.44" width="38" height="23.71" rx="0.34" ry="0.34"/><rect class="cls-13" x="0.99" y="6.47" width="37.94" height="23.65" rx="0.32" ry="0.32"/><rect x="1.01" y="6.5" width="37.89" height="23.59" rx="0.29" ry="0.29"/><rect class="cls-14" x="1.96" y="7.44" width="36" height="21.71"/><polygon class="cls-15" points="37.78 7.61 2.13 7.61 2.13 28.92 37.78 28.8 37.78 7.61"/><rect class="cls-16" x="2.16" y="7.64" width="35.6" height="21.31"/><path class="cls-17" d="M24.38,29.15H38V7.44H17.46l-.3-.88H38.61a.29.29,0,0,1,.29.29v23a.29.29,0,0,1-.29.29H24.68Z"/><circle class="cls-18" cx="35.85" cy="29.58" r="0.12"/><g class="cls-19"><g class="cls-20"><rect x="38.66" y="6.45" width="0.28" height="0.32"/><ellipse cx="38.8" cy="6.6" rx="0.14" ry="0.15" transform="translate(8.68 31.93) rotate(-49.71)"/><ellipse class="cls-21" cx="38.8" cy="6.6" rx="0.14" ry="0.15" transform="translate(8.67 31.93) rotate(-49.71)"/><ellipse class="cls-22" cx="38.8" cy="6.6" rx="0.13" ry="0.15" transform="translate(8.69 31.95) rotate(-49.74)"/><ellipse class="cls-23" cx="38.8" cy="6.6" rx="0.13" ry="0.15" transform="translate(8.69 31.95) rotate(-49.74)"/><ellipse class="cls-24" cx="38.8" cy="6.6" rx="0.13" ry="0.15" transform="translate(8.68 31.93) rotate(-49.72)"/><ellipse class="cls-25" cx="38.8" cy="6.6" rx="0.13" ry="0.15" transform="translate(8.68 31.93) rotate(-49.72)"/><ellipse class="cls-26" cx="38.8" cy="6.6" rx="0.13" ry="0.15" transform="translate(8.68 31.93) rotate(-49.71)"/><ellipse class="cls-27" cx="38.8" cy="6.6" rx="0.13" ry="0.15" transform="translate(8.68 31.93) rotate(-49.71)"/><ellipse class="cls-28" cx="38.8" cy="6.6" rx="0.13" ry="0.15" transform="translate(8.68 31.93) rotate(-49.71)"/><ellipse class="cls-29" cx="38.8" cy="6.6" rx="0.13" ry="0.15" transform="translate(8.68 31.93) rotate(-49.71)"/><ellipse class="cls-30" cx="38.8" cy="6.6" rx="0.13" ry="0.15" transform="translate(8.69 31.95) rotate(-49.74)"/><ellipse class="cls-31" cx="38.8" cy="6.6" rx="0.13" ry="0.15" transform="translate(8.68 31.94) rotate(-49.72)"/><ellipse class="cls-32" cx="38.8" cy="6.6" rx="0.13" ry="0.15" transform="translate(8.68 31.93) rotate(-49.72)"/><ellipse class="cls-33" cx="38.8" cy="6.6" rx="0.13" ry="0.15" transform="translate(8.68 31.93) rotate(-49.71)"/><ellipse class="cls-34" cx="38.8" cy="6.6" rx="0.13" ry="0.15" transform="translate(8.68 31.93) rotate(-49.71)"/><ellipse class="cls-35" cx="38.8" cy="6.6" rx="0.13" ry="0.14" transform="translate(8.68 31.93) rotate(-49.71)"/><ellipse class="cls-36" cx="38.8" cy="6.6" rx="0.13" ry="0.14" transform="translate(8.68 31.93) rotate(-49.71)"/><ellipse class="cls-37" cx="38.8" cy="6.6" rx="0.13" ry="0.14" transform="translate(8.69 31.95) rotate(-49.75)"/><ellipse class="cls-38" cx="38.8" cy="6.6" rx="0.13" ry="0.14" transform="translate(8.68 31.93) rotate(-49.72)"/><ellipse class="cls-39" cx="38.8" cy="6.6" rx="0.13" ry="0.14" transform="translate(8.68 31.93) rotate(-49.72)"/><ellipse class="cls-40" cx="38.8" cy="6.6" rx="0.13" ry="0.14" transform="translate(8.68 31.93) rotate(-49.72)"/><ellipse class="cls-41" cx="38.8" cy="6.6" rx="0.13" ry="0.14" transform="translate(8.68 31.93) rotate(-49.72)"/><ellipse class="cls-42" cx="38.8" cy="6.6" rx="0.12" ry="0.14" transform="translate(8.68 31.93) rotate(-49.71)"/><ellipse class="cls-43" cx="38.8" cy="6.6" rx="0.12" ry="0.14" transform="translate(8.68 31.93) rotate(-49.71)"/><ellipse class="cls-44" cx="38.8" cy="6.6" rx="0.12" ry="0.14" transform="translate(8.68 31.93) rotate(-49.71)"/><ellipse class="cls-45" cx="38.8" cy="6.6" rx="0.12" ry="0.14" transform="translate(8.68 31.94) rotate(-49.72)"/><ellipse class="cls-46" cx="38.8" cy="6.6" rx="0.12" ry="0.14" transform="matrix(0.65, -0.76, 0.76, 0.65, 8.68, 31.94)"/><ellipse class="cls-47" cx="38.8" cy="6.6" rx="0.12" ry="0.14" transform="translate(8.68 31.94) rotate(-49.72)"/><ellipse class="cls-48" cx="38.8" cy="6.6" rx="0.12" ry="0.14" transform="translate(8.68 31.93) rotate(-49.72)"/><ellipse class="cls-49" cx="38.8" cy="6.6" rx="0.12" ry="0.14" transform="matrix(0.65, -0.76, 0.76, 0.65, 8.68, 31.93)"/><ellipse class="cls-50" cx="38.8" cy="6.6" rx="0.12" ry="0.14" transform="translate(8.68 31.93) rotate(-49.72)"/><ellipse class="cls-51" cx="38.8" cy="6.6" rx="0.12" ry="0.13" transform="translate(8.68 31.93) rotate(-49.71)"/><ellipse class="cls-52" cx="38.8" cy="6.6" rx="0.12" ry="0.13" transform="translate(8.68 31.94) rotate(-49.73)"/><ellipse class="cls-53" cx="38.8" cy="6.6" rx="0.12" ry="0.13" transform="translate(8.68 31.94) rotate(-49.72)"/><ellipse class="cls-54" cx="38.8" cy="6.6" rx="0.12" ry="0.13" transform="translate(8.68 31.94) rotate(-49.72)"/><ellipse class="cls-55" cx="38.8" cy="6.6" rx="0.12" ry="0.13" transform="translate(8.68 31.94) rotate(-49.72)"/><ellipse class="cls-56" cx="38.8" cy="6.6" rx="0.12" ry="0.13" transform="translate(8.68 31.94) rotate(-49.72)"/><ellipse class="cls-57" cx="38.8" cy="6.6" rx="0.12" ry="0.13" transform="translate(8.68 31.93) rotate(-49.72)"/><ellipse class="cls-58" cx="38.8" cy="6.6" rx="0.12" ry="0.13" transform="translate(8.68 31.93) rotate(-49.71)"/><ellipse class="cls-59" cx="38.8" cy="6.6" rx="0.12" ry="0.13" transform="translate(8.68 31.93) rotate(-49.71)"/><ellipse class="cls-60" cx="38.8" cy="6.6" rx="0.12" ry="0.13" transform="translate(8.68 31.94) rotate(-49.73)"/><ellipse class="cls-61" cx="38.8" cy="6.6" rx="0.11" ry="0.13" transform="translate(8.68 31.94) rotate(-49.73)"/><ellipse class="cls-62" cx="38.8" cy="6.6" rx="0.11" ry="0.13" transform="translate(8.68 31.94) rotate(-49.73)"/><ellipse class="cls-63" cx="38.8" cy="6.6" rx="0.11" ry="0.13" transform="translate(8.68 31.94) rotate(-49.72)"/><ellipse class="cls-64" cx="38.8" cy="6.6" rx="0.11" ry="0.13" transform="translate(8.68 31.94) rotate(-49.72)"/><ellipse class="cls-65" cx="38.8" cy="6.6" rx="0.11" ry="0.13" transform="translate(8.68 31.93) rotate(-49.72)"/><ellipse class="cls-66" cx="38.8" cy="6.6" rx="0.11" ry="0.13" transform="translate(8.68 31.93) rotate(-49.71)"/><ellipse class="cls-67" cx="38.8" cy="6.6" rx="0.11" ry="0.13" transform="translate(8.69 31.94) rotate(-49.73)"/><ellipse class="cls-68" cx="38.8" cy="6.6" rx="0.11" ry="0.13" transform="translate(8.69 31.94) rotate(-49.73)"/><ellipse class="cls-69" cx="38.8" cy="6.6" rx="0.11" ry="0.12" transform="translate(8.68 31.94) rotate(-49.72)"/><ellipse class="cls-70" cx="38.8" cy="6.6" rx="0.11" ry="0.12" transform="translate(8.68 31.94) rotate(-49.72)"/><ellipse class="cls-71" cx="38.8" cy="6.6" rx="0.11" ry="0.12" transform="translate(8.68 31.94) rotate(-49.72)"/><ellipse class="cls-72" cx="38.8" cy="6.6" rx="0.11" ry="0.12" transform="translate(8.68 31.93) rotate(-49.72)"/><ellipse class="cls-73" cx="38.8" cy="6.6" rx="0.11" ry="0.12" transform="translate(8.68 31.93) rotate(-49.72)"/><ellipse class="cls-74" cx="38.8" cy="6.6" rx="0.11" ry="0.12" transform="translate(8.67 31.92) rotate(-49.69)"/><ellipse class="cls-75" cx="38.8" cy="6.6" rx="0.11" ry="0.12" transform="translate(8.69 31.94) rotate(-49.73)"/><ellipse class="cls-76" cx="38.8" cy="6.6" rx="0.11" ry="0.12" transform="translate(8.69 31.94) rotate(-49.73)"/><ellipse class="cls-77" cx="38.8" cy="6.6" rx="0.11" ry="0.12" transform="translate(8.68 31.94) rotate(-49.73)"/><ellipse class="cls-78" cx="38.8" cy="6.6" rx="0.11" ry="0.12" transform="translate(8.68 31.94) rotate(-49.72)"/><ellipse class="cls-79" cx="38.8" cy="6.6" rx="0.11" ry="0.12" transform="translate(8.68 31.94) rotate(-49.72)"/><ellipse class="cls-80" cx="38.8" cy="6.6" rx="0.1" ry="0.12" transform="translate(8.68 31.94) rotate(-49.72)"/><ellipse class="cls-81" cx="38.8" cy="6.6" rx="0.1" ry="0.12" transform="translate(8.67 31.92) rotate(-49.68)"/><ellipse class="cls-82" cx="38.8" cy="6.6" rx="0.1" ry="0.12" transform="translate(8.69 31.94) rotate(-49.73)"/><ellipse class="cls-83" cx="38.8" cy="6.6" rx="0.1" ry="0.12" transform="translate(8.69 31.94) rotate(-49.73)"/><ellipse class="cls-84" cx="38.8" cy="6.6" rx="0.1" ry="0.12" transform="translate(8.68 31.94) rotate(-49.73)"/><ellipse class="cls-85" cx="38.8" cy="6.6" rx="0.1" ry="0.12" transform="translate(8.68 31.94) rotate(-49.73)"/><ellipse class="cls-86" cx="38.8" cy="6.6" rx="0.1" ry="0.11" transform="translate(8.68 31.94) rotate(-49.72)"/><ellipse class="cls-87" cx="38.8" cy="6.6" rx="0.1" ry="0.11" transform="translate(8.68 31.93) rotate(-49.72)"/><ellipse class="cls-88" cx="38.8" cy="6.6" rx="0.1" ry="0.11" transform="translate(8.67 31.92) rotate(-49.69)"/><ellipse class="cls-89" cx="38.8" cy="6.6" rx="0.1" ry="0.11" transform="translate(8.67 31.92) rotate(-49.69)"/><ellipse class="cls-90" cx="38.8" cy="6.6" rx="0.1" ry="0.11" transform="translate(8.69 31.94) rotate(-49.73)"/><ellipse class="cls-91" cx="38.8" cy="6.6" rx="0.1" ry="0.11" transform="translate(8.69 31.94) rotate(-49.73)"/><ellipse class="cls-92" cx="38.8" cy="6.6" rx="0.1" ry="0.11" transform="translate(8.69 31.94) rotate(-49.73)"/><ellipse class="cls-93" cx="38.8" cy="6.6" rx="0.1" ry="0.11" transform="translate(8.68 31.94) rotate(-49.72)"/><ellipse class="cls-94" cx="38.8" cy="6.6" rx="0.1" ry="0.11" transform="translate(8.68 31.94) rotate(-49.72)"/><ellipse class="cls-95" cx="38.8" cy="6.6" rx="0.1" ry="0.11" transform="matrix(0.65, -0.76, 0.76, 0.65, 8.67, 31.92)"/><ellipse class="cls-96" cx="38.8" cy="6.6" rx="0.1" ry="0.11" transform="translate(8.67 31.92) rotate(-49.69)"/><ellipse class="cls-97" cx="38.8" cy="6.6" rx="0.1" ry="0.11" transform="translate(8.69 31.95) rotate(-49.74)"/><ellipse class="cls-98" cx="38.8" cy="6.6" rx="0.1" ry="0.11" transform="translate(8.69 31.95) rotate(-49.74)"/><ellipse class="cls-99" cx="38.8" cy="6.6" rx="0.09" ry="0.11" transform="translate(8.69 31.94) rotate(-49.73)"/><ellipse class="cls-100" cx="38.8" cy="6.6" rx="0.09" ry="0.11" transform="translate(8.69 31.94) rotate(-49.73)"/><ellipse class="cls-101" cx="38.8" cy="6.6" rx="0.09" ry="0.11" transform="translate(8.68 31.94) rotate(-49.73)"/><ellipse class="cls-102" cx="38.8" cy="6.6" rx="0.09" ry="0.11" transform="translate(8.67 31.92) rotate(-49.7)"/><ellipse class="cls-103" cx="38.8" cy="6.6" rx="0.09" ry="0.1" transform="translate(8.67 31.92) rotate(-49.69)"/><ellipse class="cls-104" cx="38.8" cy="6.6" rx="0.09" ry="0.1" transform="translate(8.67 31.92) rotate(-49.69)"/><ellipse class="cls-105" cx="38.8" cy="6.6" rx="0.09" ry="0.1" transform="translate(8.69 31.95) rotate(-49.74)"/><ellipse class="cls-106" cx="38.8" cy="6.6" rx="0.09" ry="0.1" transform="translate(8.69 31.95) rotate(-49.74)"/><ellipse class="cls-107" cx="38.8" cy="6.6" rx="0.09" ry="0.1" transform="translate(8.69 31.94) rotate(-49.73)"/><ellipse class="cls-108" cx="38.8" cy="6.6" rx="0.09" ry="0.1" transform="translate(8.69 31.94) rotate(-49.73)"/><ellipse class="cls-109" cx="38.8" cy="6.6" rx="0.09" ry="0.1" transform="translate(8.67 31.92) rotate(-49.69)"/><ellipse class="cls-110" cx="38.8" cy="6.6" rx="0.09" ry="0.1" transform="translate(8.67 31.92) rotate(-49.69)"/><ellipse class="cls-111" cx="38.8" cy="6.6" rx="0.09" ry="0.1" transform="translate(8.67 31.92) rotate(-49.69)"/><ellipse class="cls-112" cx="38.8" cy="6.6" rx="0.09" ry="0.1" transform="translate(8.69 31.95) rotate(-49.74)"/><ellipse class="cls-113" cx="38.8" cy="6.6" rx="0.09" ry="0.1" transform="translate(8.69 31.95) rotate(-49.74)"/><ellipse class="cls-114" cx="38.8" cy="6.6" rx="0.09" ry="0.1" transform="translate(8.69 31.94) rotate(-49.74)"/><ellipse class="cls-115" cx="38.8" cy="6.6" rx="0.09" ry="0.1" transform="translate(8.69 31.94) rotate(-49.74)"/><ellipse class="cls-116" cx="38.8" cy="6.6" rx="0.09" ry="0.1" transform="translate(8.67 31.92) rotate(-49.7)"/><ellipse class="cls-117" cx="38.8" cy="6.6" rx="0.09" ry="0.1" transform="translate(8.67 31.92) rotate(-49.7)"/><ellipse class="cls-118" cx="38.8" cy="6.6" rx="0.08" ry="0.1" transform="translate(8.67 31.92) rotate(-49.69)"/><ellipse class="cls-119" cx="38.8" cy="6.6" rx="0.08" ry="0.1" transform="translate(8.67 31.92) rotate(-49.69)"/><ellipse class="cls-120" cx="38.8" cy="6.6" rx="0.08" ry="0.09" transform="translate(8.69 31.95) rotate(-49.75)"/><ellipse class="cls-121" cx="38.8" cy="6.6" rx="0.08" ry="0.09" transform="translate(8.69 31.95) rotate(-49.74)"/><ellipse class="cls-122" cx="38.8" cy="6.6" rx="0.08" ry="0.09" transform="translate(8.69 31.95) rotate(-49.74)"/><ellipse class="cls-123" cx="38.8" cy="6.6" rx="0.08" ry="0.09" transform="translate(8.67 31.93) rotate(-49.7)"/><ellipse class="cls-124" cx="38.8" cy="6.6" rx="0.08" ry="0.09" transform="translate(8.67 31.92) rotate(-49.7)"/><ellipse class="cls-125" cx="38.8" cy="6.6" rx="0.08" ry="0.09" transform="translate(8.67 31.92) rotate(-49.69)"/><ellipse class="cls-126" cx="38.8" cy="6.6" rx="0.08" ry="0.09" transform="translate(8.67 31.92) rotate(-49.69)"/><ellipse class="cls-127" cx="38.8" cy="6.6" rx="0.08" ry="0.09" transform="translate(8.7 31.95) rotate(-49.75)"/><ellipse class="cls-128" cx="38.8" cy="6.6" rx="0.08" ry="0.09" transform="translate(8.69 31.95) rotate(-49.75)"/><ellipse class="cls-129" cx="38.8" cy="6.6" rx="0.08" ry="0.09" transform="translate(8.69 31.95) rotate(-49.75)"/><ellipse class="cls-130" cx="38.8" cy="6.6" rx="0.08" ry="0.09" transform="translate(8.69 31.95) rotate(-49.74)"/><ellipse class="cls-131" cx="38.8" cy="6.6" rx="0.08" ry="0.09" transform="translate(8.67 31.92) rotate(-49.7)"/><ellipse class="cls-132" cx="38.8" cy="6.6" rx="0.08" ry="0.09" transform="translate(8.67 31.92) rotate(-49.7)"/><ellipse class="cls-133" cx="38.8" cy="6.6" rx="0.08" ry="0.09" transform="translate(8.67 31.92) rotate(-49.69)"/><ellipse class="cls-134" cx="38.8" cy="6.6" rx="0.08" ry="0.09" transform="translate(8.67 31.92) rotate(-49.69)"/><ellipse class="cls-135" cx="38.8" cy="6.6" rx="0.08" ry="0.09" transform="translate(8.7 31.96) rotate(-49.76)"/><ellipse class="cls-136" cx="38.8" cy="6.6" rx="0.08" ry="0.09" transform="translate(8.69 31.95) rotate(-49.75)"/><ellipse class="cls-137" cx="38.8" cy="6.6" rx="0.08" ry="0.08" transform="translate(8.69 31.95) rotate(-49.75)"/><ellipse class="cls-138" cx="38.8" cy="6.6" rx="0.07" ry="0.08" transform="translate(8.67 31.93) rotate(-49.71)"/><ellipse class="cls-139" cx="38.8" cy="6.6" rx="0.07" ry="0.08" transform="translate(8.67 31.92) rotate(-49.7)"/><ellipse class="cls-140" cx="38.8" cy="6.6" rx="0.07" ry="0.08" transform="translate(8.67 31.92) rotate(-49.7)"/><ellipse class="cls-141" cx="38.8" cy="6.6" rx="0.07" ry="0.08" transform="translate(8.67 31.92) rotate(-49.7)"/><ellipse class="cls-142" cx="38.8" cy="6.6" rx="0.07" ry="0.08" transform="translate(8.7 31.96) rotate(-49.76)"/><ellipse class="cls-143" cx="38.8" cy="6.6" rx="0.07" ry="0.08" transform="translate(8.7 31.96) rotate(-49.76)"/><ellipse class="cls-144" cx="38.8" cy="6.6" rx="0.07" ry="0.08" transform="matrix(0.65, -0.76, 0.76, 0.65, 8.7, 31.95)"/><ellipse class="cls-145" cx="38.8" cy="6.6" rx="0.07" ry="0.08" transform="translate(8.68 31.93) rotate(-49.71)"/><ellipse class="cls-146" cx="38.8" cy="6.6" rx="0.07" ry="0.08" transform="translate(8.67 31.93) rotate(-49.7)"/><ellipse class="cls-147" cx="38.8" cy="6.6" rx="0.07" ry="0.08" transform="translate(8.67 31.93) rotate(-49.7)"/><ellipse class="cls-148" cx="38.8" cy="6.6" rx="0.07" ry="0.08" transform="translate(8.67 31.92) rotate(-49.69)"/><ellipse class="cls-149" cx="38.8" cy="6.6" rx="0.07" ry="0.08" transform="translate(8.67 31.92) rotate(-49.69)"/><ellipse class="cls-150" cx="38.8" cy="6.6" rx="0.07" ry="0.08" transform="translate(8.7 31.96) rotate(-49.77)"/><ellipse class="cls-151" cx="38.8" cy="6.6" rx="0.07" ry="0.08" transform="translate(8.7 31.95) rotate(-49.76)"/><ellipse class="cls-152" cx="38.8" cy="6.6" rx="0.07" ry="0.08" transform="translate(8.68 31.93) rotate(-49.71)"/><ellipse class="cls-153" cx="38.8" cy="6.6" rx="0.07" ry="0.08" transform="translate(8.68 31.93) rotate(-49.71)"/><ellipse class="cls-154" cx="38.8" cy="6.6" rx="0.07" ry="0.07" transform="translate(8.67 31.92) rotate(-49.7)"/><ellipse class="cls-155" cx="38.8" cy="6.6" rx="0.07" ry="0.07" transform="translate(8.67 31.92) rotate(-49.7)"/><ellipse class="cls-156" cx="38.8" cy="6.6" rx="0.07" ry="0.07" transform="translate(8.67 31.92) rotate(-49.7)"/><ellipse class="cls-157" cx="38.8" cy="6.6" rx="0.06" ry="0.07" transform="matrix(0.65, -0.76, 0.76, 0.65, 8.7, 31.96)"/><ellipse class="cls-158" cx="38.8" cy="6.6" rx="0.06" ry="0.07" transform="translate(8.7 31.96) rotate(-49.77)"/><ellipse class="cls-159" cx="38.8" cy="6.6" rx="0.06" ry="0.07" transform="translate(8.68 31.94) rotate(-49.72)"/><ellipse class="cls-160" cx="38.8" cy="6.6" rx="0.06" ry="0.07" transform="translate(8.68 31.93) rotate(-49.71)"/><ellipse class="cls-161" cx="38.8" cy="6.6" rx="0.06" ry="0.07" transform="translate(8.67 31.93) rotate(-49.71)"/><ellipse class="cls-162" cx="38.8" cy="6.6" rx="0.06" ry="0.07" transform="translate(8.67 31.93) rotate(-49.71)"/><ellipse class="cls-163" cx="38.8" cy="6.6" rx="0.06" ry="0.07" transform="translate(8.67 31.93) rotate(-49.7)"/><ellipse class="cls-164" cx="38.8" cy="6.6" rx="0.06" ry="0.07" transform="translate(8.67 31.92) rotate(-49.7)"/><ellipse class="cls-165" cx="38.8" cy="6.6" rx="0.06" ry="0.07" transform="translate(8.71 31.96) rotate(-49.78)"/><ellipse class="cls-166" cx="38.8" cy="6.6" rx="0.06" ry="0.07" transform="translate(8.68 31.94) rotate(-49.72)"/><ellipse class="cls-167" cx="38.8" cy="6.6" rx="0.06" ry="0.07" transform="translate(8.68 31.93) rotate(-49.71)"/><ellipse class="cls-168" cx="38.8" cy="6.6" rx="0.06" ry="0.07" transform="translate(8.68 31.93) rotate(-49.71)"/><ellipse class="cls-169" cx="38.8" cy="6.6" rx="0.06" ry="0.07" transform="translate(8.68 31.93) rotate(-49.71)"/><ellipse class="cls-170" cx="38.8" cy="6.6" rx="0.06" ry="0.07" transform="translate(8.67 31.93) rotate(-49.7)"/><ellipse class="cls-171" cx="38.8" cy="6.6" rx="0.06" ry="0.06" transform="translate(8.67 31.93) rotate(-49.7)"/><ellipse class="cls-172" cx="38.8" cy="6.6" rx="0.06" ry="0.06" transform="translate(8.71 31.97) rotate(-49.78)"/><ellipse class="cls-173" cx="38.8" cy="6.6" rx="0.06" ry="0.06" transform="translate(8.68 31.94) rotate(-49.73)"/><ellipse class="cls-173" cx="38.8" cy="6.6" rx="0.06" ry="0.06" transform="translate(8.68 31.94) rotate(-49.72)"/><ellipse class="cls-174" cx="38.8" cy="6.6" rx="0.06" ry="0.06" transform="translate(8.68 31.94) rotate(-49.72)"/><ellipse class="cls-175" cx="38.8" cy="6.6" rx="0.05" ry="0.06" transform="translate(8.68 31.93) rotate(-49.71)"/><ellipse class="cls-175" cx="38.8" cy="6.6" rx="0.05" ry="0.06" transform="translate(8.68 31.93) rotate(-49.71)"/><ellipse class="cls-176" cx="38.8" cy="6.6" rx="0.05" ry="0.06" transform="translate(8.68 31.93) rotate(-49.71)"/><ellipse class="cls-177" cx="38.8" cy="6.6" rx="0.05" ry="0.06" transform="translate(8.67 31.92) rotate(-49.69)"/><ellipse class="cls-178" cx="38.8" cy="6.6" rx="0.05" ry="0.06" transform="translate(8.69 31.94) rotate(-49.74)"/><ellipse class="cls-179" cx="38.8" cy="6.6" rx="0.05" ry="0.06" transform="translate(8.68 31.94) rotate(-49.73)"/><ellipse class="cls-179" cx="38.8" cy="6.6" rx="0.05" ry="0.06" transform="matrix(0.65, -0.76, 0.76, 0.65, 8.68, 31.94)"/><ellipse class="cls-180" cx="38.8" cy="6.6" rx="0.05" ry="0.06" transform="translate(8.68 31.93) rotate(-49.72)"/><ellipse class="cls-181" cx="38.8" cy="6.6" rx="0.05" ry="0.06" transform="translate(8.68 31.93) rotate(-49.72)"/><ellipse class="cls-181" cx="38.8" cy="6.6" rx="0.05" ry="0.06" transform="translate(8.68 31.93) rotate(-49.71)"/><ellipse class="cls-182" cx="38.8" cy="6.6" rx="0.05" ry="0.06" transform="translate(8.67 31.92) rotate(-49.7)"/><ellipse class="cls-182" cx="38.8" cy="6.6" rx="0.05" ry="0.06" transform="translate(8.69 31.94) rotate(-49.74)"/><ellipse class="cls-183" cx="38.8" cy="6.6" rx="0.05" ry="0.05" transform="translate(8.69 31.94) rotate(-49.73)"/><ellipse class="cls-183" cx="38.8" cy="6.6" rx="0.05" ry="0.05" transform="translate(8.69 31.94) rotate(-49.73)"/><ellipse class="cls-184" cx="38.8" cy="6.6" rx="0.05" ry="0.05" transform="translate(8.68 31.94) rotate(-49.73)"/><ellipse class="cls-184" cx="38.8" cy="6.6" rx="0.05" ry="0.05" transform="translate(8.68 31.93) rotate(-49.72)"/><ellipse class="cls-185" cx="38.8" cy="6.6" rx="0.05" ry="0.05" transform="translate(8.68 31.93) rotate(-49.72)"/><ellipse class="cls-185" cx="38.8" cy="6.6" rx="0.05" ry="0.05" transform="translate(8.68 31.93) rotate(-49.71)"/><ellipse class="cls-186" cx="38.8" cy="6.6" rx="0.05" ry="0.05" transform="translate(8.67 31.93) rotate(-49.7)"/><ellipse class="cls-186" cx="38.8" cy="6.6" rx="0.04" ry="0.05" transform="translate(8.69 31.95) rotate(-49.74)"/><ellipse class="cls-187" cx="38.8" cy="6.6" rx="0.04" ry="0.05" transform="matrix(0.65, -0.76, 0.76, 0.65, 8.69, 31.95)"/><ellipse class="cls-187" cx="38.8" cy="6.6" rx="0.04" ry="0.05" transform="translate(8.68 31.94) rotate(-49.73)"/><ellipse class="cls-188" cx="38.8" cy="6.6" rx="0.04" ry="0.05" transform="translate(8.68 31.94) rotate(-49.73)"/><ellipse class="cls-188" cx="38.8" cy="6.6" rx="0.04" ry="0.05" transform="translate(8.68 31.94) rotate(-49.73)"/><ellipse class="cls-189" cx="38.8" cy="6.6" rx="0.04" ry="0.05" transform="translate(8.67 31.93) rotate(-49.7)"/><ellipse class="cls-189" cx="38.8" cy="6.6" rx="0.04" ry="0.05" transform="translate(8.68 31.93) rotate(-49.71)"/><ellipse class="cls-189" cx="38.8" cy="6.6" rx="0.04" ry="0.05" transform="translate(8.7 31.95) rotate(-49.75)"/><ellipse class="cls-190" cx="38.8" cy="6.6" rx="0.04" ry="0.05" transform="translate(8.69 31.95) rotate(-49.74)"/><ellipse class="cls-190" cx="38.8" cy="6.6" rx="0.04" ry="0.05" transform="translate(8.69 31.95) rotate(-49.74)"/><ellipse class="cls-190" cx="38.8" cy="6.6" rx="0.04" ry="0.04" transform="translate(8.69 31.94) rotate(-49.74)"/><ellipse class="cls-191" cx="38.8" cy="6.6" rx="0.04" ry="0.04" transform="translate(8.68 31.94) rotate(-49.72)"/><ellipse class="cls-191" cx="38.8" cy="6.6" rx="0.04" ry="0.04" transform="translate(8.68 31.93) rotate(-49.72)"/><ellipse class="cls-191" cx="38.8" cy="6.6" rx="0.04" ry="0.04" transform="translate(8.68 31.94) rotate(-49.72)"/><ellipse class="cls-192" cx="38.8" cy="6.6" rx="0.04" ry="0.04" transform="translate(8.64 31.88) rotate(-49.62)"/><ellipse class="cls-192" cx="38.8" cy="6.6" rx="0.04" ry="0.04" transform="translate(8.7 31.95) rotate(-49.76)"/><ellipse class="cls-192" cx="38.8" cy="6.6" rx="0.04" ry="0.04" transform="translate(8.7 31.95) rotate(-49.75)"/><ellipse class="cls-192" cx="38.8" cy="6.6" rx="0.04" ry="0.04" transform="translate(8.69 31.95) rotate(-49.74)"/><ellipse class="cls-193" cx="38.8" cy="6.6" rx="0.04" ry="0.04" transform="translate(8.69 31.94) rotate(-49.74)"/><ellipse class="cls-193" cx="38.8" cy="6.6" rx="0.04" ry="0.04" transform="translate(8.69 31.94) rotate(-49.74)"/><ellipse class="cls-193" cx="38.8" cy="6.6" rx="0.03" ry="0.04" transform="translate(8.68 31.94) rotate(-49.72)"/><ellipse class="cls-193" cx="38.8" cy="6.6" rx="0.03" ry="0.04" transform="translate(8.64 31.88) rotate(-49.62)"/><ellipse class="cls-193" cx="38.8" cy="6.6" rx="0.03" ry="0.04" transform="translate(8.7 31.96) rotate(-49.77)"/></g></g><g class="cls-194"><rect class="cls-195" x="2.12" y="7.51" width="35.8" height="21.57"/><polygon class="cls-16" points="16.82 29.08 37.92 7.71 37.92 7.5 37.81 7.5 16.51 29.08 16.82 29.08"/><polygon class="cls-16" points="3.52 29.08 4.95 7.5 4.73 7.5 3.3 29.08 3.52 29.08"/><polygon class="cls-16" points="4.66 29.08 7.74 7.5 7.52 7.5 4.44 29.08 4.66 29.08"/><polygon class="cls-16" points="5.88 29.08 10.7 7.5 10.47 7.5 5.65 29.08 5.88 29.08"/><polygon class="cls-16" points="7.22 29.08 14.1 7.5 13.87 7.5 6.99 29.08 7.22 29.08"/><polygon class="cls-16" points="8.49 29.08 17.32 7.5 17.08 7.5 8.25 29.08 8.49 29.08"/><polygon class="cls-16" points="9.94 29.08 20.99 7.5 20.74 7.5 9.69 29.08 9.94 29.08"/><polygon class="cls-16" points="26.51 7.5 26.25 7.5 11.94 29.08 12.21 29.08 26.51 7.5"/><polygon class="cls-16" points="31.61 7.5 31.33 7.5 13.94 29.08 14.23 29.08 31.61 7.5"/><polygon class="cls-16" points="37.92 15.67 37.92 15.38 20.67 29.08 21.03 29.08 37.92 15.67"/><polygon class="cls-16" points="37.92 21.61 37.92 21.34 25.53 29.08 25.95 29.08 37.92 21.61"/><polygon class="cls-16" points="37.92 27.2 37.92 26.96 33.36 29.08 33.89 29.08 37.92 27.2"/><path class="cls-196" d="M10.14,22.51c-3.72,0-6.25-2.29-6.25-6a6,6,0,0,1,6.28-6.16,6.94,6.94,0,0,1,2.8.56v1.78a3.29,3.29,0,0,0-2.77-1.46c-2.24,0-3.51,2.06-3.51,5,0,3.12,1.19,5.35,3.75,5.35A4.26,4.26,0,0,0,13,20.66l.42.93A5,5,0,0,1,10.14,22.51Z"/><path class="cls-196" d="M22.31,16.43c0,4.6-2.84,4.92-5,4.92V11.44C19.53,11.44,22.31,11.71,22.31,16.43Zm-3,5.86a5.54,5.54,0,0,0,5.71-5.91c0-4.77-3.41-5.84-6-5.84H14.79V22.29Z"/><path class="cls-196" d="M32.69,22.51c-3.72,0-6.25-2.29-6.25-6a6,6,0,0,1,6.28-6.16,6.94,6.94,0,0,1,2.8.56v1.78a3.29,3.29,0,0,0-2.77-1.46c-2.24,0-3.51,2.06-3.51,5,0,3.12,1.19,5.35,3.75,5.35a4.26,4.26,0,0,0,2.53-.93l.42.93A5,5,0,0,1,32.69,22.51Z"/></g></g></g></svg>