<svg id="Layer_1" data-name="Layer 1" xmlns="http://www.w3.org/2000/svg" viewBox="0 0 40 40"><defs><style>.cls-1{fill:#ed3024;}.cls-2{fill:#fff;}</style></defs><title>YT</title><path class="cls-1" d="M38.21,10.79a4.77,4.77,0,0,0-3.36-3.38c-3-.8-14.85-.8-14.85-.8s-11.88,0-14.85.8a4.77,4.77,0,0,0-3.36,3.38C1,13.78,1,20,1,20s0,6.22.79,9.21a4.77,4.77,0,0,0,3.36,3.38c3,.8,14.85.8,14.85.8s11.88,0,14.85-.8a4.77,4.77,0,0,0,3.36-3.38C39,26.22,39,20,39,20S39,13.78,38.21,10.79Z"/><polygon class="cls-2" points="16.11 25.65 16.11 14.35 26.05 20 16.11 25.65"/></svg>