<svg id="Layer_1" data-name="Layer 1" xmlns="http://www.w3.org/2000/svg" viewBox="0 0 40 40"><defs><style>.cls-1{fill:#0060aa;}.cls-2{fill:#f26722;}</style></defs><title>syndication</title><polygon class="cls-1" points="20.08 19.43 4.34 25.8 12.54 26.96 13.77 35.06 20.08 19.43"/><path class="cls-2" d="M13.55,19.71a1.49,1.49,0,0,1-.3,0A1.42,1.42,0,0,1,12.18,18a8.19,8.19,0,0,1,4.41-5.6,1.41,1.41,0,1,1,1.23,2.53,5.4,5.4,0,0,0-2.89,3.66A1.4,1.4,0,0,1,13.55,19.71Z"/><path class="cls-2" d="M21.14,27.79a1.41,1.41,0,0,1-.2-2.8,5.32,5.32,0,0,0,4-3,1.41,1.41,0,0,1,2.55,1.21,8.15,8.15,0,0,1-6.18,4.56Z"/><path class="cls-2" d="M26.61,19.2a1.41,1.41,0,0,1-1.35-1,5.31,5.31,0,0,0-3.46-3.53A1.41,1.41,0,1,1,22.67,12,8.14,8.14,0,0,1,28,17.39,1.4,1.4,0,0,1,27,19.14,1.47,1.47,0,0,1,26.61,19.2Z"/><path class="cls-2" d="M7.71,19l-.24,0a1.42,1.42,0,0,1-1.16-1.62A14,14,0,0,1,15.58,6.5a1.41,1.41,0,0,1,.92,2.66,11.16,11.16,0,0,0-7.41,8.71A1.41,1.41,0,0,1,7.71,19Z"/><path class="cls-2" d="M21.75,33.62a1.41,1.41,0,0,1-.18-2.8,11.14,11.14,0,0,0,8.28-5.5,11.54,11.54,0,0,0,.73-1.49,1.41,1.41,0,0,1,2.62,1,14,14,0,0,1-11.27,8.74Z"/><path class="cls-2" d="M32.41,18.16A1.41,1.41,0,0,1,31,17.09,11.2,11.2,0,0,0,23.14,9a1.41,1.41,0,1,1,.76-2.72,14.22,14.22,0,0,1,3.26,1.37,13.87,13.87,0,0,1,6.62,8.81,1.41,1.41,0,0,1-1,1.7A1.46,1.46,0,0,1,32.41,18.16Z"/><path class="cls-2" d="M2.42,18.31l-.22,0A1.41,1.41,0,0,1,1,16.68a19.37,19.37,0,0,1,12.26-15,1.41,1.41,0,1,1,1,2.63,16.55,16.55,0,0,0-8.45,7.17,16.17,16.17,0,0,0-2,5.64A1.42,1.42,0,0,1,2.42,18.31Z"/><path class="cls-2" d="M21.4,39a1.41,1.41,0,0,1-.09-2.81A16.54,16.54,0,0,0,34.47,28a17,17,0,0,0,1-2A1.41,1.41,0,0,1,38.09,27a19.58,19.58,0,0,1-1.17,2.39A19.35,19.35,0,0,1,21.5,39Z"/><path class="cls-2" d="M37.58,16.88a1.42,1.42,0,0,1-1.37-1.08,16.35,16.35,0,0,0-7.8-10.36,16.76,16.76,0,0,0-4.05-1.67,1.41,1.41,0,0,1-1-1.72,1.43,1.43,0,0,1,1.73-1,19.43,19.43,0,0,1,4.74,2A19.14,19.14,0,0,1,39,15.14a1.41,1.41,0,0,1-1,1.7A1.24,1.24,0,0,1,37.58,16.88Z"/></svg>