<svg xmlns="http://www.w3.org/2000/svg" xmlns:xlink="http://www.w3.org/1999/xlink" viewBox="0 0 40 40">
    <defs>
        <style>
            .cdc-tv-2{isolation:isolate;}.cdc-tv-3{fill:url(#linear-gradient);}.cdc-tv-4{fill:url(#linear-gradient-2);}.cdc-tv-5{fill:url(#linear-gradient-3);}.cdc-tv-10,.cdc-tv-11,.cdc-tv-6,.cdc-tv-7{fill:#7f7f7f;}.cdc-tv-6{opacity:0.5;}.cdc-tv-7{opacity:0.3;}.cdc-tv-8{fill:url(#linear-gradient-4);}.cdc-tv-9{opacity:0.9;fill:url(#linear-gradient-5);}.cdc-tv-10{opacity:0.1;}.cdc-tv-11{opacity:0.2;}.cdc-tv-12{fill:url(#linear-gradient-6);}.cdc-tv-13{fill:#58595b;}.cdc-tv-14{fill:url(#radial-gradient);}.cdc-tv-15{fill:url(#linear-gradient-7);}.cdc-tv-16,.cdc-tv-196{fill:#fff;}.cdc-tv-17{opacity:0.7;fill:url(#linear-gradient-8);}.cdc-tv-18{opacity:0.8;fill:url(#radial-gradient-2);}.cdc-tv-19{mix-blend-mode:screen;}.cdc-tv-20{clip-path:url(#clip-path);}.cdc-tv-21{fill:#020202;}.cdc-tv-22{fill:#030303;}.cdc-tv-23{fill:#050505;}.cdc-tv-24{fill:#060606;}.cdc-tv-25{fill:#080808;}.cdc-tv-26{fill:#090909;}.cdc-tv-27{fill:#0b0b0b;}.cdc-tv-28{fill:#0c0c0c;}.cdc-tv-29{fill:#0e0e0e;}.cdc-tv-30{fill:#0f0f0f;}.cdc-tv-31{fill:#111;}.cdc-tv-32{fill:#121212;}.cdc-tv-33{fill:#141414;}.cdc-tv-34{fill:#151515;}.cdc-tv-35{fill:#171717;}.cdc-tv-36{fill:#181818;}.cdc-tv-37{fill:#1a1a1a;}.cdc-tv-38{fill:#1b1b1b;}.cdc-tv-39{fill:#1c1d1d;}.cdc-tv-40{fill:#1e1e1e;}.cdc-tv-41{fill:#1f2020;}.cdc-tv-42{fill:#212121;}.cdc-tv-43{fill:#222223;}.cdc-tv-44{fill:#242424;}.cdc-tv-45{fill:#252525;}.cdc-tv-46{fill:#272727;}.cdc-tv-47{fill:#282828;}.cdc-tv-48{fill:#292a2a;}.cdc-tv-49{fill:#2b2b2b;}.cdc-tv-50{fill:#2c2c2d;}.cdc-tv-51{fill:#2e2e2e;}.cdc-tv-52{fill:#2f2f2f;}.cdc-tv-53{fill:#303131;}.cdc-tv-54{fill:#323232;}.cdc-tv-55{fill:#333334;}.cdc-tv-56{fill:#353535;}.cdc-tv-57{fill:#363636;}.cdc-tv-58{fill:#373838;}.cdc-tv-59{fill:#393939;}.cdc-tv-60{fill:#3a3a3b;}.cdc-tv-61{fill:#3b3c3c;}.cdc-tv-62{fill:#3d3d3d;}.cdc-tv-63{fill:#3e3e3f;}.cdc-tv-64{fill:#3f4040;}.cdc-tv-65{fill:#414141;}.cdc-tv-66{fill:#424243;}.cdc-tv-67{fill:#434444;}.cdc-tv-68{fill:#454545;}.cdc-tv-69{fill:#464647;}.cdc-tv-70{fill:#474848;}.cdc-tv-71{fill:#494949;}.cdc-tv-72{fill:#4a4a4b;}.cdc-tv-73{fill:#4b4c4c;}.cdc-tv-74{fill:#4d4d4d;}.cdc-tv-75{fill:#4e4e4f;}.cdc-tv-76{fill:#4f5050;}.cdc-tv-77{fill:#505151;}.cdc-tv-78{fill:#525253;}.cdc-tv-79{fill:#535354;}.cdc-tv-80{fill:#545555;}.cdc-tv-81{fill:#565656;}.cdc-tv-82{fill:#575758;}.cdc-tv-83{fill:#585859;}.cdc-tv-84{fill:#595a5a;}.cdc-tv-85{fill:#5b5b5b;}.cdc-tv-86{fill:#5c5c5d;}.cdc-tv-87{fill:#5d5d5e;}.cdc-tv-88{fill:#5e5f5f;}.cdc-tv-89{fill:#5f6060;}.cdc-tv-90{fill:#616162;}.cdc-tv-91{fill:#626263;}.cdc-tv-92{fill:#636464;}.cdc-tv-93{fill:#646565;}.cdc-tv-94{fill:#656666;}.cdc-tv-95{fill:#676768;}.cdc-tv-96{fill:#686869;}.cdc-tv-97{fill:#696a6a;}.cdc-tv-98{fill:#6a6b6b;}.cdc-tv-99{fill:#6b6c6c;}.cdc-tv-100{fill:#6c6d6e;}.cdc-tv-101{fill:#6e6e6f;}.cdc-tv-102{fill:#6f6f70;}.cdc-tv-103{fill:#707071;}.cdc-tv-104{fill:#717272;}.cdc-tv-105{fill:#727373;}.cdc-tv-106{fill:#737474;}.cdc-tv-107{fill:#747576;}.cdc-tv-108{fill:#767677;}.cdc-tv-109{fill:#777778;}.cdc-tv-110{fill:#787879;}.cdc-tv-111{fill:#79797a;}.cdc-tv-112{fill:#7a7b7b;}.cdc-tv-113{fill:#7b7c7c;}.cdc-tv-114{fill:#7c7d7d;}.cdc-tv-115{fill:#7d7e7e;}.cdc-tv-116{fill:#7e7f80;}.cdc-tv-117{fill:#7f8081;}.cdc-tv-118{fill:#808182;}.cdc-tv-119{fill:#818283;}.cdc-tv-120{fill:#838384;}.cdc-tv-121{fill:#848485;}.cdc-tv-122{fill:#858586;}.cdc-tv-123{fill:#868687;}.cdc-tv-124{fill:#878788;}.cdc-tv-125{fill:#888889;}.cdc-tv-126{fill:#89898a;}.cdc-tv-127{fill:#8a8a8b;}.cdc-tv-128{fill:#8b8b8c;}.cdc-tv-129{fill:#8c8c8d;}.cdc-tv-130{fill:#8d8d8e;}.cdc-tv-131{fill:#8e8e8f;}.cdc-tv-132{fill:#8f8f90;}.cdc-tv-133{fill:#909091;}.cdc-tv-134{fill:#919192;}.cdc-tv-135{fill:#919293;}.cdc-tv-136{fill:#929394;}.cdc-tv-137{fill:#939495;}.cdc-tv-138{fill:#949596;}.cdc-tv-139{fill:#959697;}.cdc-tv-140{fill:#969798;}.cdc-tv-141{fill:#979899;}.cdc-tv-142{fill:#98999a;}.cdc-tv-143{fill:#999a9a;}.cdc-tv-144{fill:#9a9b9b;}.cdc-tv-145{fill:#9b9b9c;}.cdc-tv-146{fill:#9c9c9d;}.cdc-tv-147{fill:#9c9d9e;}.cdc-tv-148{fill:#9d9e9f;}.cdc-tv-149{fill:#9e9fa0;}.cdc-tv-150{fill:#9fa0a1;}.cdc-tv-151{fill:#a0a1a2;}.cdc-tv-152{fill:#a1a2a2;}.cdc-tv-153{fill:#a2a2a3;}.cdc-tv-154{fill:#a2a3a4;}.cdc-tv-155{fill:#a3a4a5;}.cdc-tv-156{fill:#a4a5a6;}.cdc-tv-157{fill:#a5a6a7;}.cdc-tv-158{fill:#a6a6a7;}.cdc-tv-159{fill:#a6a7a8;}.cdc-tv-160{fill:#a7a8a9;}.cdc-tv-161{fill:#a8a9aa;}.cdc-tv-162{fill:#a9aaaa;}.cdc-tv-163{fill:#aaaaab;}.cdc-tv-164{fill:#aaabac;}.cdc-tv-165{fill:#abacad;}.cdc-tv-166{fill:#acadae;}.cdc-tv-167{fill:#adadae;}.cdc-tv-168{fill:#adaeaf;}.cdc-tv-169{fill:#aeafb0;}.cdc-tv-170{fill:#afb0b0;}.cdc-tv-171{fill:#afb0b1;}.cdc-tv-172{fill:#b0b1b2;}.cdc-tv-173{fill:#b1b2b3;}.cdc-tv-174{fill:#b2b3b4;}.cdc-tv-175{fill:#b3b4b5;}.cdc-tv-176{fill:#b4b5b6;}.cdc-tv-177{fill:#b5b6b6;}.cdc-tv-178{fill:#b5b6b7;}.cdc-tv-179{fill:#b6b7b8;}.cdc-tv-180{fill:#b7b8b9;}.cdc-tv-181{fill:#b8b9ba;}.cdc-tv-182{fill:#b9babb;}.cdc-tv-183{fill:#babbbc;}.cdc-tv-184{fill:#bbbcbd;}.cdc-tv-185{fill:#bcbdbe;}.cdc-tv-186{fill:#bdbebf;}.cdc-tv-187{fill:#bebfc0;}.cdc-tv-188{fill:#bfc0c1;}.cdc-tv-189{fill:#c0c1c2;}.cdc-tv-190{fill:#c1c2c3;}.cdc-tv-191{fill:#c2c3c4;}.cdc-tv-192{fill:#c3c4c5;}.cdc-tv-193{fill:#c4c5c6;}.cdc-tv-194{clip-path:url(#clip-path-2);}.cdc-tv-195{fill:#0060a9;}.cdc-tv-196{stroke:#fff;stroke-width:0.11px;}
        </style>
        <linearGradient id="linear-gradient" x1="19.96" x2="19.96" y1="31.4" y2="32.81" gradientUnits="userSpaceOnUse">
            <stop offset="0" stop-color="#363636"/>
            <stop offset="0.08" stop-color="#2d2d2d"/>
            <stop offset="0.23" stop-color="#202020"/>
            <stop offset="0.82"/>
        </linearGradient>
        <linearGradient id="linear-gradient-2" x1="19.96" x2="19.96" y1="33.14" y2="32.81" gradientUnits="userSpaceOnUse">
            <stop offset="0.35"/>
            <stop offset="0.5" stop-color="#030303"/>
            <stop offset="0.6" stop-color="#0b0b0b"/>
            <stop offset="0.68" stop-color="#1a1919"/>
            <stop offset="0.75" stop-color="#2e2e2d"/>
            <stop offset="0.82" stop-color="#494847"/>
            <stop offset="0.82" stop-color="#4a4948"/>
            <stop offset="1" stop-color="#202020"/>
        </linearGradient>
        <linearGradient id="linear-gradient-3" x1="17.96" x2="21.96" y1="31.06" y2="31.06" gradientUnits="userSpaceOnUse">
            <stop offset="0"/>
            <stop offset="0.34" stop-color="#030303"/>
            <stop offset="0.62" stop-color="#0d0d0c"/>
            <stop offset="0.87" stop-color="#1f1e1c"/>
            <stop offset="1" stop-color="#2a2927"/>
        </linearGradient>
        <linearGradient id="linear-gradient-4" x1="17.96" x2="21.96" y1="32" y2="32" gradientUnits="userSpaceOnUse">
            <stop offset="0.01"/>
            <stop offset="0.1" stop-color="#020202"/>
            <stop offset="0.13" stop-color="#090808"/>
            <stop offset="0.15" stop-color="#141413"/>
            <stop offset="0.17" stop-color="#252422"/>
            <stop offset="0.18" stop-color="#2a2927"/>
            <stop offset="0.2" stop-color="#252422"/>
            <stop offset="0.29" stop-color="#141413"/>
            <stop offset="0.4" stop-color="#090808"/>
            <stop offset="0.56" stop-color="#020202"/>
            <stop offset="1"/>
        </linearGradient>
        <linearGradient id="linear-gradient-5" x1="18.16" x2="21.75" y1="32.4" y2="32.4" gradientUnits="userSpaceOnUse">
            <stop offset="0"/>
            <stop offset="0.32" stop-color="#040403"/>
            <stop offset="0.61" stop-color="#0f0f0e"/>
            <stop offset="0.9" stop-color="#22211f"/>
            <stop offset="1" stop-color="#2a2927"/>
        </linearGradient>
        <linearGradient id="linear-gradient-6" x1="-1382.53" x2="-1344.53" y1="18.29" y2="18.29" gradientTransform="matrix(-1, 0, 0, 1, -1343.57, 0)" gradientUnits="userSpaceOnUse">
            <stop offset="0"/>
            <stop offset="0.04" stop-color="#414042"/>
            <stop offset="0.04" stop-color="#3f3e40"/>
            <stop offset="0.05" stop-color="#393839"/>
            <stop offset="0.05" stop-color="#2f2c2e"/>
            <stop offset="0.05" stop-color="#231f20"/>
            <stop offset="0.27" stop-color="#171415"/>
            <stop offset="0.56"/>
            <stop offset="0.83"/>
            <stop offset="0.91" stop-color="#231f20"/>
            <stop offset="0.94" stop-color="#414042"/>
            <stop offset="0.98" stop-color="#231f20"/>
            <stop offset="1"/>
        </linearGradient>
        <radialGradient id="radial-gradient" cx="-1376.27" cy="21.62" r="14.86" gradientTransform="matrix(-1, 0, 0, 1, -1343.57, 0)" gradientUnits="userSpaceOnUse">
            <stop offset="0" stop-color="#b6bab5"/>
            <stop offset="0.01" stop-color="#b1b5b0"/>
            <stop offset="0.12" stop-color="#898d89"/>
            <stop offset="0.22" stop-color="#6a6d69"/>
            <stop offset="0.32" stop-color="#535653"/>
            <stop offset="0.42" stop-color="#464946"/>
            <stop offset="0.5" stop-color="#414441"/>
            <stop offset="1"/>
        </radialGradient>
        <linearGradient id="linear-gradient-7" x1="-1374.15" x2="-1354.09" y1="10.03" y2="25.47" gradientTransform="matrix(-1, 0, 0, 1, -1343.57, 0)" gradientUnits="userSpaceOnUse">
            <stop offset="0" stop-color="#b8bab9"/>
            <stop offset="1" stop-color="#414042"/>
        </linearGradient>
        <linearGradient id="linear-gradient-8" x1="-1369.83" x2="-1379.91" y1="3.24" y2="30.94" gradientTransform="matrix(-1, 0, 0, 1, -1343.57, 0)" gradientUnits="userSpaceOnUse">
            <stop offset="0" stop-color="#babcbe"/>
            <stop offset="0" stop-color="#b9bbbd"/>
            <stop offset="0.05" stop-color="#8b8d8f"/>
            <stop offset="0.11" stop-color="#646568"/>
            <stop offset="0.16" stop-color="#444548"/>
            <stop offset="0.22" stop-color="#2c2c2f"/>
            <stop offset="0.28" stop-color="#1a1a1d"/>
            <stop offset="0.34" stop-color="#0f0f12"/>
            <stop offset="0.41" stop-color="#0c0c0f"/>
        </linearGradient>
        <radialGradient id="radial-gradient-2" cx="-1379.41" cy="29.62" r="0.12" gradientTransform="matrix(-1, 0, 0, 1, -1343.57, 0)" gradientUnits="userSpaceOnUse">
            <stop offset="0.32" stop-color="#da0500"/>
            <stop offset="0.42" stop-color="#d00500"/>
            <stop offset="0.6" stop-color="#b40300"/>
            <stop offset="0.83" stop-color="#880200"/>
            <stop offset="1" stop-color="#610000"/>
        </radialGradient>
        <clipPath id="clip-path">
            <path d="M38.67,6.47s.11,0,.19.09.08.2.05.17a.4.4,0,0,0-.08-.13C38.75,6.51,38.66,6.48,38.67,6.47Z" class="cdc-tv-1"/>
        </clipPath>
        <clipPath id="clip-path-2">
            <rect width="35.6" height="21.31" x="2.16" y="7.64" class="cdc-tv-1"/>
        </clipPath>
    </defs>
    <title>
        CDC-tv
    </title>
    <g class="cdc-tv-2">
        <g id="Layer_1" data-name="Layer 1">
            <polygon points="31.14 32.81 8.77 32.81 11.08 31.4 28.85 31.4 31.14 32.81" class="cdc-tv-3"/>
            <rect width="22.38" height="0.32" x="8.77" y="32.81" class="cdc-tv-4"/>
            <path d="M21.9,31.83a1.57,1.57,0,0,1-.43-1.14V30h-3v.73A1.42,1.42,0,0,1,18,31.82s-.08,0-.08.07a4.21,4.21,0,0,0,2,.25,4.22,4.22,0,0,0,2-.25S21.93,31.84,21.9,31.83Z" class="cdc-tv-5"/>
            <path d="M20.22,30V31.2s-.09,1,1,.63V30Z" class="cdc-tv-6"/>
            <path d="M19.23,30h-.41v1.84c.44.1.44-.63.44-.63Z" class="cdc-tv-7"/>
            <path d="M21.94,31.86a5.24,5.24,0,0,1-2,.22,5.24,5.24,0,0,1-2-.22v0a4.21,4.21,0,0,0,2,.25,4.22,4.22,0,0,0,2-.25Z" class="cdc-tv-8"/>
            <path d="M18.47,32.37v.44h3v-.56a.61.61,0,0,1,.29-.26,8.65,8.65,0,0,1-1.8.14A9,9,0,0,1,18.16,32C18.3,32.06,18.47,32.19,18.47,32.37Z" class="cdc-tv-9"/>
            <path d="M19.13,32.81v-.15a.41.41,0,0,0-.32-.5v.66Z" class="cdc-tv-10"/>
            <path d="M20.23,32.81h.95v-.66c-1,.08-1,.5-1,.5Z" class="cdc-tv-11"/>
            <rect width="38" height="23.71" x="0.96" y="6.44" class="cdc-tv-12" rx="0.34" ry="0.34"/>
            <rect width="37.94" height="23.65" x="0.99" y="6.47" class="cdc-tv-13" rx="0.32" ry="0.32"/>
            <rect width="37.89" height="23.59" x="1.01" y="6.5" rx="0.29" ry="0.29"/>
            <rect width="36" height="21.71" x="1.96" y="7.44" class="cdc-tv-14"/>
            <polygon points="37.78 7.61 2.13 7.61 2.13 28.92 37.78 28.8 37.78 7.61" class="cdc-tv-15"/>
            <rect width="35.6" height="21.31" x="2.16" y="7.64" class="cdc-tv-16"/>
            <path d="M24.38,29.15H38V7.44H17.46l-.3-.88H38.61a.29.29,0,0,1,.29.29v23a.29.29,0,0,1-.29.29H24.68Z" class="cdc-tv-17"/>
            <circle cx="35.85" cy="29.58" r="0.12" class="cdc-tv-18"/>
            <g class="cdc-tv-19">
                <g class="cdc-tv-20">
                    <rect width="0.28" height="0.32" x="38.66" y="6.45"/>
                    <ellipse cx="38.8" cy="6.6" rx="0.14" ry="0.15" transform="translate(8.68 31.93) rotate(-49.71)"/>
                    <ellipse cx="38.8" cy="6.6" class="cdc-tv-21" rx="0.14" ry="0.15" transform="translate(8.67 31.93) rotate(-49.71)"/>
                    <ellipse cx="38.8" cy="6.6" class="cdc-tv-22" rx="0.13" ry="0.15" transform="translate(8.69 31.95) rotate(-49.74)"/>
                    <ellipse cx="38.8" cy="6.6" class="cdc-tv-23" rx="0.13" ry="0.15" transform="translate(8.69 31.95) rotate(-49.74)"/>
                    <ellipse cx="38.8" cy="6.6" class="cdc-tv-24" rx="0.13" ry="0.15" transform="translate(8.68 31.93) rotate(-49.72)"/>
                    <ellipse cx="38.8" cy="6.6" class="cdc-tv-25" rx="0.13" ry="0.15" transform="translate(8.68 31.93) rotate(-49.72)"/>
                    <ellipse cx="38.8" cy="6.6" class="cdc-tv-26" rx="0.13" ry="0.15" transform="translate(8.68 31.93) rotate(-49.71)"/>
                    <ellipse cx="38.8" cy="6.6" class="cdc-tv-27" rx="0.13" ry="0.15" transform="translate(8.68 31.93) rotate(-49.71)"/>
                    <ellipse cx="38.8" cy="6.6" class="cdc-tv-28" rx="0.13" ry="0.15" transform="translate(8.68 31.93) rotate(-49.71)"/>
                    <ellipse cx="38.8" cy="6.6" class="cdc-tv-29" rx="0.13" ry="0.15" transform="translate(8.68 31.93) rotate(-49.71)"/>
                    <ellipse cx="38.8" cy="6.6" class="cdc-tv-30" rx="0.13" ry="0.15" transform="translate(8.69 31.95) rotate(-49.74)"/>
                    <ellipse cx="38.8" cy="6.6" class="cdc-tv-31" rx="0.13" ry="0.15" transform="translate(8.68 31.94) rotate(-49.72)"/>
                    <ellipse cx="38.8" cy="6.6" class="cdc-tv-32" rx="0.13" ry="0.15" transform="translate(8.68 31.93) rotate(-49.72)"/>
                    <ellipse cx="38.8" cy="6.6" class="cdc-tv-33" rx="0.13" ry="0.15" transform="translate(8.68 31.93) rotate(-49.71)"/>
                    <ellipse cx="38.8" cy="6.6" class="cdc-tv-34" rx="0.13" ry="0.15" transform="translate(8.68 31.93) rotate(-49.71)"/>
                    <ellipse cx="38.8" cy="6.6" class="cdc-tv-35" rx="0.13" ry="0.14" transform="translate(8.68 31.93) rotate(-49.71)"/>
                    <ellipse cx="38.8" cy="6.6" class="cdc-tv-36" rx="0.13" ry="0.14" transform="translate(8.68 31.93) rotate(-49.71)"/>
                    <ellipse cx="38.8" cy="6.6" class="cdc-tv-37" rx="0.13" ry="0.14" transform="translate(8.69 31.95) rotate(-49.75)"/>
                    <ellipse cx="38.8" cy="6.6" class="cdc-tv-38" rx="0.13" ry="0.14" transform="translate(8.68 31.93) rotate(-49.72)"/>
                    <ellipse cx="38.8" cy="6.6" class="cdc-tv-39" rx="0.13" ry="0.14" transform="translate(8.68 31.93) rotate(-49.72)"/>
                    <ellipse cx="38.8" cy="6.6" class="cdc-tv-40" rx="0.13" ry="0.14" transform="translate(8.68 31.93) rotate(-49.72)"/>
                    <ellipse cx="38.8" cy="6.6" class="cdc-tv-41" rx="0.13" ry="0.14" transform="translate(8.68 31.93) rotate(-49.72)"/>
                    <ellipse cx="38.8" cy="6.6" class="cdc-tv-42" rx="0.12" ry="0.14" transform="translate(8.68 31.93) rotate(-49.71)"/>
                    <ellipse cx="38.8" cy="6.6" class="cdc-tv-43" rx="0.12" ry="0.14" transform="translate(8.68 31.93) rotate(-49.71)"/>
                    <ellipse cx="38.8" cy="6.6" class="cdc-tv-44" rx="0.12" ry="0.14" transform="translate(8.68 31.93) rotate(-49.71)"/>
                    <ellipse cx="38.8" cy="6.6" class="cdc-tv-45" rx="0.12" ry="0.14" transform="translate(8.68 31.94) rotate(-49.72)"/>
                    <ellipse cx="38.8" cy="6.6" class="cdc-tv-46" rx="0.12" ry="0.14" transform="matrix(0.65, -0.76, 0.76, 0.65, 8.68, 31.94)"/>
                    <ellipse cx="38.8" cy="6.6" class="cdc-tv-47" rx="0.12" ry="0.14" transform="translate(8.68 31.94) rotate(-49.72)"/>
                    <ellipse cx="38.8" cy="6.6" class="cdc-tv-48" rx="0.12" ry="0.14" transform="translate(8.68 31.93) rotate(-49.72)"/>
                    <ellipse cx="38.8" cy="6.6" class="cdc-tv-49" rx="0.12" ry="0.14" transform="matrix(0.65, -0.76, 0.76, 0.65, 8.68, 31.93)"/>
                    <ellipse cx="38.8" cy="6.6" class="cdc-tv-50" rx="0.12" ry="0.14" transform="translate(8.68 31.93) rotate(-49.72)"/>
                    <ellipse cx="38.8" cy="6.6" class="cdc-tv-51" rx="0.12" ry="0.13" transform="translate(8.68 31.93) rotate(-49.71)"/>
                    <ellipse cx="38.8" cy="6.6" class="cdc-tv-52" rx="0.12" ry="0.13" transform="translate(8.68 31.94) rotate(-49.73)"/>
                    <ellipse cx="38.8" cy="6.6" class="cdc-tv-53" rx="0.12" ry="0.13" transform="translate(8.68 31.94) rotate(-49.72)"/>
                    <ellipse cx="38.8" cy="6.6" class="cdc-tv-54" rx="0.12" ry="0.13" transform="translate(8.68 31.94) rotate(-49.72)"/>
                    <ellipse cx="38.8" cy="6.6" class="cdc-tv-55" rx="0.12" ry="0.13" transform="translate(8.68 31.94) rotate(-49.72)"/>
                    <ellipse cx="38.8" cy="6.6" class="cdc-tv-56" rx="0.12" ry="0.13" transform="translate(8.68 31.94) rotate(-49.72)"/>
                    <ellipse cx="38.8" cy="6.6" class="cdc-tv-57" rx="0.12" ry="0.13" transform="translate(8.68 31.93) rotate(-49.72)"/>
                    <ellipse cx="38.8" cy="6.6" class="cdc-tv-58" rx="0.12" ry="0.13" transform="translate(8.68 31.93) rotate(-49.71)"/>
                    <ellipse cx="38.8" cy="6.6" class="cdc-tv-59" rx="0.12" ry="0.13" transform="translate(8.68 31.93) rotate(-49.71)"/>
                    <ellipse cx="38.8" cy="6.6" class="cdc-tv-60" rx="0.12" ry="0.13" transform="translate(8.68 31.94) rotate(-49.73)"/>
                    <ellipse cx="38.8" cy="6.6" class="cdc-tv-61" rx="0.11" ry="0.13" transform="translate(8.68 31.94) rotate(-49.73)"/>
                    <ellipse cx="38.8" cy="6.6" class="cdc-tv-62" rx="0.11" ry="0.13" transform="translate(8.68 31.94) rotate(-49.73)"/>
                    <ellipse cx="38.8" cy="6.6" class="cdc-tv-63" rx="0.11" ry="0.13" transform="translate(8.68 31.94) rotate(-49.72)"/>
                    <ellipse cx="38.8" cy="6.6" class="cdc-tv-64" rx="0.11" ry="0.13" transform="translate(8.68 31.94) rotate(-49.72)"/>
                    <ellipse cx="38.8" cy="6.6" class="cdc-tv-65" rx="0.11" ry="0.13" transform="translate(8.68 31.93) rotate(-49.72)"/>
                    <ellipse cx="38.8" cy="6.6" class="cdc-tv-66" rx="0.11" ry="0.13" transform="translate(8.68 31.93) rotate(-49.71)"/>
                    <ellipse cx="38.8" cy="6.6" class="cdc-tv-67" rx="0.11" ry="0.13" transform="translate(8.69 31.94) rotate(-49.73)"/>
                    <ellipse cx="38.8" cy="6.6" class="cdc-tv-68" rx="0.11" ry="0.13" transform="translate(8.69 31.94) rotate(-49.73)"/>
                    <ellipse cx="38.8" cy="6.6" class="cdc-tv-69" rx="0.11" ry="0.12" transform="translate(8.68 31.94) rotate(-49.72)"/>
                    <ellipse cx="38.8" cy="6.6" class="cdc-tv-70" rx="0.11" ry="0.12" transform="translate(8.68 31.94) rotate(-49.72)"/>
                    <ellipse cx="38.8" cy="6.6" class="cdc-tv-71" rx="0.11" ry="0.12" transform="translate(8.68 31.94) rotate(-49.72)"/>
                    <ellipse cx="38.8" cy="6.6" class="cdc-tv-72" rx="0.11" ry="0.12" transform="translate(8.68 31.93) rotate(-49.72)"/>
                    <ellipse cx="38.8" cy="6.6" class="cdc-tv-73" rx="0.11" ry="0.12" transform="translate(8.68 31.93) rotate(-49.72)"/>
                    <ellipse cx="38.8" cy="6.6" class="cdc-tv-74" rx="0.11" ry="0.12" transform="translate(8.67 31.92) rotate(-49.69)"/>
                    <ellipse cx="38.8" cy="6.6" class="cdc-tv-75" rx="0.11" ry="0.12" transform="translate(8.69 31.94) rotate(-49.73)"/>
                    <ellipse cx="38.8" cy="6.6" class="cdc-tv-76" rx="0.11" ry="0.12" transform="translate(8.69 31.94) rotate(-49.73)"/>
                    <ellipse cx="38.8" cy="6.6" class="cdc-tv-77" rx="0.11" ry="0.12" transform="translate(8.68 31.94) rotate(-49.73)"/>
                    <ellipse cx="38.8" cy="6.6" class="cdc-tv-78" rx="0.11" ry="0.12" transform="translate(8.68 31.94) rotate(-49.72)"/>
                    <ellipse cx="38.8" cy="6.6" class="cdc-tv-79" rx="0.11" ry="0.12" transform="translate(8.68 31.94) rotate(-49.72)"/>
                    <ellipse cx="38.8" cy="6.6" class="cdc-tv-80" rx="0.1" ry="0.12" transform="translate(8.68 31.94) rotate(-49.72)"/>
                    <ellipse cx="38.8" cy="6.6" class="cdc-tv-81" rx="0.1" ry="0.12" transform="translate(8.67 31.92) rotate(-49.68)"/>
                    <ellipse cx="38.8" cy="6.6" class="cdc-tv-82" rx="0.1" ry="0.12" transform="translate(8.69 31.94) rotate(-49.73)"/>
                    <ellipse cx="38.8" cy="6.6" class="cdc-tv-83" rx="0.1" ry="0.12" transform="translate(8.69 31.94) rotate(-49.73)"/>
                    <ellipse cx="38.8" cy="6.6" class="cdc-tv-84" rx="0.1" ry="0.12" transform="translate(8.68 31.94) rotate(-49.73)"/>
                    <ellipse cx="38.8" cy="6.6" class="cdc-tv-85" rx="0.1" ry="0.12" transform="translate(8.68 31.94) rotate(-49.73)"/>
                    <ellipse cx="38.8" cy="6.6" class="cdc-tv-86" rx="0.1" ry="0.11" transform="translate(8.68 31.94) rotate(-49.72)"/>
                    <ellipse cx="38.8" cy="6.6" class="cdc-tv-87" rx="0.1" ry="0.11" transform="translate(8.68 31.93) rotate(-49.72)"/>
                    <ellipse cx="38.8" cy="6.6" class="cdc-tv-88" rx="0.1" ry="0.11" transform="translate(8.67 31.92) rotate(-49.69)"/>
                    <ellipse cx="38.8" cy="6.6" class="cdc-tv-89" rx="0.1" ry="0.11" transform="translate(8.67 31.92) rotate(-49.69)"/>
                    <ellipse cx="38.8" cy="6.6" class="cdc-tv-90" rx="0.1" ry="0.11" transform="translate(8.69 31.94) rotate(-49.73)"/>
                    <ellipse cx="38.8" cy="6.6" class="cdc-tv-91" rx="0.1" ry="0.11" transform="translate(8.69 31.94) rotate(-49.73)"/>
                    <ellipse cx="38.8" cy="6.6" class="cdc-tv-92" rx="0.1" ry="0.11" transform="translate(8.69 31.94) rotate(-49.73)"/>
                    <ellipse cx="38.8" cy="6.6" class="cdc-tv-93" rx="0.1" ry="0.11" transform="translate(8.68 31.94) rotate(-49.72)"/>
                    <ellipse cx="38.8" cy="6.6" class="cdc-tv-94" rx="0.1" ry="0.11" transform="translate(8.68 31.94) rotate(-49.72)"/>
                    <ellipse cx="38.8" cy="6.6" class="cdc-tv-95" rx="0.1" ry="0.11" transform="matrix(0.65, -0.76, 0.76, 0.65, 8.67, 31.92)"/>
                    <ellipse cx="38.8" cy="6.6" class="cdc-tv-96" rx="0.1" ry="0.11" transform="translate(8.67 31.92) rotate(-49.69)"/>
                    <ellipse cx="38.8" cy="6.6" class="cdc-tv-97" rx="0.1" ry="0.11" transform="translate(8.69 31.95) rotate(-49.74)"/>
                    <ellipse cx="38.8" cy="6.6" class="cdc-tv-98" rx="0.1" ry="0.11" transform="translate(8.69 31.95) rotate(-49.74)"/>
                    <ellipse cx="38.8" cy="6.6" class="cdc-tv-99" rx="0.09" ry="0.11" transform="translate(8.69 31.94) rotate(-49.73)"/>
                    <ellipse cx="38.8" cy="6.6" class="cdc-tv-100" rx="0.09" ry="0.11" transform="translate(8.69 31.94) rotate(-49.73)"/>
                    <ellipse cx="38.8" cy="6.6" class="cdc-tv-101" rx="0.09" ry="0.11" transform="translate(8.68 31.94) rotate(-49.73)"/>
                    <ellipse cx="38.8" cy="6.6" class="cdc-tv-102" rx="0.09" ry="0.11" transform="translate(8.67 31.92) rotate(-49.7)"/>
                    <ellipse cx="38.8" cy="6.6" class="cdc-tv-103" rx="0.09" ry="0.1" transform="translate(8.67 31.92) rotate(-49.69)"/>
                    <ellipse cx="38.8" cy="6.6" class="cdc-tv-104" rx="0.09" ry="0.1" transform="translate(8.67 31.92) rotate(-49.69)"/>
                    <ellipse cx="38.8" cy="6.6" class="cdc-tv-105" rx="0.09" ry="0.1" transform="translate(8.69 31.95) rotate(-49.74)"/>
                    <ellipse cx="38.8" cy="6.6" class="cdc-tv-106" rx="0.09" ry="0.1" transform="translate(8.69 31.95) rotate(-49.74)"/>
                    <ellipse cx="38.8" cy="6.6" class="cdc-tv-107" rx="0.09" ry="0.1" transform="translate(8.69 31.94) rotate(-49.73)"/>
                    <ellipse cx="38.8" cy="6.6" class="cdc-tv-108" rx="0.09" ry="0.1" transform="translate(8.69 31.94) rotate(-49.73)"/>
                    <ellipse cx="38.8" cy="6.6" class="cdc-tv-109" rx="0.09" ry="0.1" transform="translate(8.67 31.92) rotate(-49.69)"/>
                    <ellipse cx="38.8" cy="6.6" class="cdc-tv-110" rx="0.09" ry="0.1" transform="translate(8.67 31.92) rotate(-49.69)"/>
                    <ellipse cx="38.8" cy="6.6" class="cdc-tv-111" rx="0.09" ry="0.1" transform="translate(8.67 31.92) rotate(-49.69)"/>
                    <ellipse cx="38.8" cy="6.6" class="cdc-tv-112" rx="0.09" ry="0.1" transform="translate(8.69 31.95) rotate(-49.74)"/>
                    <ellipse cx="38.8" cy="6.6" class="cdc-tv-113" rx="0.09" ry="0.1" transform="translate(8.69 31.95) rotate(-49.74)"/>
                    <ellipse cx="38.8" cy="6.6" class="cdc-tv-114" rx="0.09" ry="0.1" transform="translate(8.69 31.94) rotate(-49.74)"/>
                    <ellipse cx="38.8" cy="6.6" class="cdc-tv-115" rx="0.09" ry="0.1" transform="translate(8.69 31.94) rotate(-49.74)"/>
                    <ellipse cx="38.8" cy="6.6" class="cdc-tv-116" rx="0.09" ry="0.1" transform="translate(8.67 31.92) rotate(-49.7)"/>
                    <ellipse cx="38.8" cy="6.6" class="cdc-tv-117" rx="0.09" ry="0.1" transform="translate(8.67 31.92) rotate(-49.7)"/>
                    <ellipse cx="38.8" cy="6.6" class="cdc-tv-118" rx="0.08" ry="0.1" transform="translate(8.67 31.92) rotate(-49.69)"/>
                    <ellipse cx="38.8" cy="6.6" class="cdc-tv-119" rx="0.08" ry="0.1" transform="translate(8.67 31.92) rotate(-49.69)"/>
                    <ellipse cx="38.8" cy="6.6" class="cdc-tv-120" rx="0.08" ry="0.09" transform="translate(8.69 31.95) rotate(-49.75)"/>
                    <ellipse cx="38.8" cy="6.6" class="cdc-tv-121" rx="0.08" ry="0.09" transform="translate(8.69 31.95) rotate(-49.74)"/>
                    <ellipse cx="38.8" cy="6.6" class="cdc-tv-122" rx="0.08" ry="0.09" transform="translate(8.69 31.95) rotate(-49.74)"/>
                    <ellipse cx="38.8" cy="6.6" class="cdc-tv-123" rx="0.08" ry="0.09" transform="translate(8.67 31.93) rotate(-49.7)"/>
                    <ellipse cx="38.8" cy="6.6" class="cdc-tv-124" rx="0.08" ry="0.09" transform="translate(8.67 31.92) rotate(-49.7)"/>
                    <ellipse cx="38.8" cy="6.6" class="cdc-tv-125" rx="0.08" ry="0.09" transform="translate(8.67 31.92) rotate(-49.69)"/>
                    <ellipse cx="38.8" cy="6.6" class="cdc-tv-126" rx="0.08" ry="0.09" transform="translate(8.67 31.92) rotate(-49.69)"/>
                    <ellipse cx="38.8" cy="6.6" class="cdc-tv-127" rx="0.08" ry="0.09" transform="translate(8.7 31.95) rotate(-49.75)"/>
                    <ellipse cx="38.8" cy="6.6" class="cdc-tv-128" rx="0.08" ry="0.09" transform="translate(8.69 31.95) rotate(-49.75)"/>
                    <ellipse cx="38.8" cy="6.6" class="cdc-tv-129" rx="0.08" ry="0.09" transform="translate(8.69 31.95) rotate(-49.75)"/>
                    <ellipse cx="38.8" cy="6.6" class="cdc-tv-130" rx="0.08" ry="0.09" transform="translate(8.69 31.95) rotate(-49.74)"/>
                    <ellipse cx="38.8" cy="6.6" class="cdc-tv-131" rx="0.08" ry="0.09" transform="translate(8.67 31.92) rotate(-49.7)"/>
                    <ellipse cx="38.8" cy="6.6" class="cdc-tv-132" rx="0.08" ry="0.09" transform="translate(8.67 31.92) rotate(-49.7)"/>
                    <ellipse cx="38.8" cy="6.6" class="cdc-tv-133" rx="0.08" ry="0.09" transform="translate(8.67 31.92) rotate(-49.69)"/>
                    <ellipse cx="38.8" cy="6.6" class="cdc-tv-134" rx="0.08" ry="0.09" transform="translate(8.67 31.92) rotate(-49.69)"/>
                    <ellipse cx="38.8" cy="6.6" class="cdc-tv-135" rx="0.08" ry="0.09" transform="translate(8.7 31.96) rotate(-49.76)"/>
                    <ellipse cx="38.8" cy="6.6" class="cdc-tv-136" rx="0.08" ry="0.09" transform="translate(8.69 31.95) rotate(-49.75)"/>
                    <ellipse cx="38.8" cy="6.6" class="cdc-tv-137" rx="0.08" ry="0.08" transform="translate(8.69 31.95) rotate(-49.75)"/>
                    <ellipse cx="38.8" cy="6.6" class="cdc-tv-138" rx="0.07" ry="0.08" transform="translate(8.67 31.93) rotate(-49.71)"/>
                    <ellipse cx="38.8" cy="6.6" class="cdc-tv-139" rx="0.07" ry="0.08" transform="translate(8.67 31.92) rotate(-49.7)"/>
                    <ellipse cx="38.8" cy="6.6" class="cdc-tv-140" rx="0.07" ry="0.08" transform="translate(8.67 31.92) rotate(-49.7)"/>
                    <ellipse cx="38.8" cy="6.6" class="cdc-tv-141" rx="0.07" ry="0.08" transform="translate(8.67 31.92) rotate(-49.7)"/>
                    <ellipse cx="38.8" cy="6.6" class="cdc-tv-142" rx="0.07" ry="0.08" transform="translate(8.7 31.96) rotate(-49.76)"/>
                    <ellipse cx="38.8" cy="6.6" class="cdc-tv-143" rx="0.07" ry="0.08" transform="translate(8.7 31.96) rotate(-49.76)"/>
                    <ellipse cx="38.8" cy="6.6" class="cdc-tv-144" rx="0.07" ry="0.08" transform="matrix(0.65, -0.76, 0.76, 0.65, 8.7, 31.95)"/>
                    <ellipse cx="38.8" cy="6.6" class="cdc-tv-145" rx="0.07" ry="0.08" transform="translate(8.68 31.93) rotate(-49.71)"/>
                    <ellipse cx="38.8" cy="6.6" class="cdc-tv-146" rx="0.07" ry="0.08" transform="translate(8.67 31.93) rotate(-49.7)"/>
                    <ellipse cx="38.8" cy="6.6" class="cdc-tv-147" rx="0.07" ry="0.08" transform="translate(8.67 31.93) rotate(-49.7)"/>
                    <ellipse cx="38.8" cy="6.6" class="cdc-tv-148" rx="0.07" ry="0.08" transform="translate(8.67 31.92) rotate(-49.69)"/>
                    <ellipse cx="38.8" cy="6.6" class="cdc-tv-149" rx="0.07" ry="0.08" transform="translate(8.67 31.92) rotate(-49.69)"/>
                    <ellipse cx="38.8" cy="6.6" class="cdc-tv-150" rx="0.07" ry="0.08" transform="translate(8.7 31.96) rotate(-49.77)"/>
                    <ellipse cx="38.8" cy="6.6" class="cdc-tv-151" rx="0.07" ry="0.08" transform="translate(8.7 31.95) rotate(-49.76)"/>
                    <ellipse cx="38.8" cy="6.6" class="cdc-tv-152" rx="0.07" ry="0.08" transform="translate(8.68 31.93) rotate(-49.71)"/>
                    <ellipse cx="38.8" cy="6.6" class="cdc-tv-153" rx="0.07" ry="0.08" transform="translate(8.68 31.93) rotate(-49.71)"/>
                    <ellipse cx="38.8" cy="6.6" class="cdc-tv-154" rx="0.07" ry="0.07" transform="translate(8.67 31.92) rotate(-49.7)"/>
                    <ellipse cx="38.8" cy="6.6" class="cdc-tv-155" rx="0.07" ry="0.07" transform="translate(8.67 31.92) rotate(-49.7)"/>
                    <ellipse cx="38.8" cy="6.6" class="cdc-tv-156" rx="0.07" ry="0.07" transform="translate(8.67 31.92) rotate(-49.7)"/>
                    <ellipse cx="38.8" cy="6.6" class="cdc-tv-157" rx="0.06" ry="0.07" transform="matrix(0.65, -0.76, 0.76, 0.65, 8.7, 31.96)"/>
                    <ellipse cx="38.8" cy="6.6" class="cdc-tv-158" rx="0.06" ry="0.07" transform="translate(8.7 31.96) rotate(-49.77)"/>
                    <ellipse cx="38.8" cy="6.6" class="cdc-tv-159" rx="0.06" ry="0.07" transform="translate(8.68 31.94) rotate(-49.72)"/>
                    <ellipse cx="38.8" cy="6.6" class="cdc-tv-160" rx="0.06" ry="0.07" transform="translate(8.68 31.93) rotate(-49.71)"/>
                    <ellipse cx="38.8" cy="6.6" class="cdc-tv-161" rx="0.06" ry="0.07" transform="translate(8.67 31.93) rotate(-49.71)"/>
                    <ellipse cx="38.8" cy="6.6" class="cdc-tv-162" rx="0.06" ry="0.07" transform="translate(8.67 31.93) rotate(-49.71)"/>
                    <ellipse cx="38.8" cy="6.6" class="cdc-tv-163" rx="0.06" ry="0.07" transform="translate(8.67 31.93) rotate(-49.7)"/>
                    <ellipse cx="38.8" cy="6.6" class="cdc-tv-164" rx="0.06" ry="0.07" transform="translate(8.67 31.92) rotate(-49.7)"/>
                    <ellipse cx="38.8" cy="6.6" class="cdc-tv-165" rx="0.06" ry="0.07" transform="translate(8.71 31.96) rotate(-49.78)"/>
                    <ellipse cx="38.8" cy="6.6" class="cdc-tv-166" rx="0.06" ry="0.07" transform="translate(8.68 31.94) rotate(-49.72)"/>
                    <ellipse cx="38.8" cy="6.6" class="cdc-tv-167" rx="0.06" ry="0.07" transform="translate(8.68 31.93) rotate(-49.71)"/>
                    <ellipse cx="38.8" cy="6.6" class="cdc-tv-168" rx="0.06" ry="0.07" transform="translate(8.68 31.93) rotate(-49.71)"/>
                    <ellipse cx="38.8" cy="6.6" class="cdc-tv-169" rx="0.06" ry="0.07" transform="translate(8.68 31.93) rotate(-49.71)"/>
                    <ellipse cx="38.8" cy="6.6" class="cdc-tv-170" rx="0.06" ry="0.07" transform="translate(8.67 31.93) rotate(-49.7)"/>
                    <ellipse cx="38.8" cy="6.6" class="cdc-tv-171" rx="0.06" ry="0.06" transform="translate(8.67 31.93) rotate(-49.7)"/>
                    <ellipse cx="38.8" cy="6.6" class="cdc-tv-172" rx="0.06" ry="0.06" transform="translate(8.71 31.97) rotate(-49.78)"/>
                    <ellipse cx="38.8" cy="6.6" class="cdc-tv-173" rx="0.06" ry="0.06" transform="translate(8.68 31.94) rotate(-49.73)"/>
                    <ellipse cx="38.8" cy="6.6" class="cdc-tv-173" rx="0.06" ry="0.06" transform="translate(8.68 31.94) rotate(-49.72)"/>
                    <ellipse cx="38.8" cy="6.6" class="cdc-tv-174" rx="0.06" ry="0.06" transform="translate(8.68 31.94) rotate(-49.72)"/>
                    <ellipse cx="38.8" cy="6.6" class="cdc-tv-175" rx="0.05" ry="0.06" transform="translate(8.68 31.93) rotate(-49.71)"/>
                    <ellipse cx="38.8" cy="6.6" class="cdc-tv-175" rx="0.05" ry="0.06" transform="translate(8.68 31.93) rotate(-49.71)"/>
                    <ellipse cx="38.8" cy="6.6" class="cdc-tv-176" rx="0.05" ry="0.06" transform="translate(8.68 31.93) rotate(-49.71)"/>
                    <ellipse cx="38.8" cy="6.6" class="cdc-tv-177" rx="0.05" ry="0.06" transform="translate(8.67 31.92) rotate(-49.69)"/>
                    <ellipse cx="38.8" cy="6.6" class="cdc-tv-178" rx="0.05" ry="0.06" transform="translate(8.69 31.94) rotate(-49.74)"/>
                    <ellipse cx="38.8" cy="6.6" class="cdc-tv-179" rx="0.05" ry="0.06" transform="translate(8.68 31.94) rotate(-49.73)"/>
                    <ellipse cx="38.8" cy="6.6" class="cdc-tv-179" rx="0.05" ry="0.06" transform="matrix(0.65, -0.76, 0.76, 0.65, 8.68, 31.94)"/>
                    <ellipse cx="38.8" cy="6.6" class="cdc-tv-180" rx="0.05" ry="0.06" transform="translate(8.68 31.93) rotate(-49.72)"/>
                    <ellipse cx="38.8" cy="6.6" class="cdc-tv-181" rx="0.05" ry="0.06" transform="translate(8.68 31.93) rotate(-49.72)"/>
                    <ellipse cx="38.8" cy="6.6" class="cdc-tv-181" rx="0.05" ry="0.06" transform="translate(8.68 31.93) rotate(-49.71)"/>
                    <ellipse cx="38.8" cy="6.6" class="cdc-tv-182" rx="0.05" ry="0.06" transform="translate(8.67 31.92) rotate(-49.7)"/>
                    <ellipse cx="38.8" cy="6.6" class="cdc-tv-182" rx="0.05" ry="0.06" transform="translate(8.69 31.94) rotate(-49.74)"/>
                    <ellipse cx="38.8" cy="6.6" class="cdc-tv-183" rx="0.05" ry="0.05" transform="translate(8.69 31.94) rotate(-49.73)"/>
                    <ellipse cx="38.8" cy="6.6" class="cdc-tv-183" rx="0.05" ry="0.05" transform="translate(8.69 31.94) rotate(-49.73)"/>
                    <ellipse cx="38.8" cy="6.6" class="cdc-tv-184" rx="0.05" ry="0.05" transform="translate(8.68 31.94) rotate(-49.73)"/>
                    <ellipse cx="38.8" cy="6.6" class="cdc-tv-184" rx="0.05" ry="0.05" transform="translate(8.68 31.93) rotate(-49.72)"/>
                    <ellipse cx="38.8" cy="6.6" class="cdc-tv-185" rx="0.05" ry="0.05" transform="translate(8.68 31.93) rotate(-49.72)"/>
                    <ellipse cx="38.8" cy="6.6" class="cdc-tv-185" rx="0.05" ry="0.05" transform="translate(8.68 31.93) rotate(-49.71)"/>
                    <ellipse cx="38.8" cy="6.6" class="cdc-tv-186" rx="0.05" ry="0.05" transform="translate(8.67 31.93) rotate(-49.7)"/>
                    <ellipse cx="38.8" cy="6.6" class="cdc-tv-186" rx="0.04" ry="0.05" transform="translate(8.69 31.95) rotate(-49.74)"/>
                    <ellipse cx="38.8" cy="6.6" class="cdc-tv-187" rx="0.04" ry="0.05" transform="matrix(0.65, -0.76, 0.76, 0.65, 8.69, 31.95)"/>
                    <ellipse cx="38.8" cy="6.6" class="cdc-tv-187" rx="0.04" ry="0.05" transform="translate(8.68 31.94) rotate(-49.73)"/>
                    <ellipse cx="38.8" cy="6.6" class="cdc-tv-188" rx="0.04" ry="0.05" transform="translate(8.68 31.94) rotate(-49.73)"/>
                    <ellipse cx="38.8" cy="6.6" class="cdc-tv-188" rx="0.04" ry="0.05" transform="translate(8.68 31.94) rotate(-49.73)"/>
                    <ellipse cx="38.8" cy="6.6" class="cdc-tv-189" rx="0.04" ry="0.05" transform="translate(8.67 31.93) rotate(-49.7)"/>
                    <ellipse cx="38.8" cy="6.6" class="cdc-tv-189" rx="0.04" ry="0.05" transform="translate(8.68 31.93) rotate(-49.71)"/>
                    <ellipse cx="38.8" cy="6.6" class="cdc-tv-189" rx="0.04" ry="0.05" transform="translate(8.7 31.95) rotate(-49.75)"/>
                    <ellipse cx="38.8" cy="6.6" class="cdc-tv-190" rx="0.04" ry="0.05" transform="translate(8.69 31.95) rotate(-49.74)"/>
                    <ellipse cx="38.8" cy="6.6" class="cdc-tv-190" rx="0.04" ry="0.05" transform="translate(8.69 31.95) rotate(-49.74)"/>
                    <ellipse cx="38.8" cy="6.6" class="cdc-tv-190" rx="0.04" ry="0.04" transform="translate(8.69 31.94) rotate(-49.74)"/>
                    <ellipse cx="38.8" cy="6.6" class="cdc-tv-191" rx="0.04" ry="0.04" transform="translate(8.68 31.94) rotate(-49.72)"/>
                    <ellipse cx="38.8" cy="6.6" class="cdc-tv-191" rx="0.04" ry="0.04" transform="translate(8.68 31.93) rotate(-49.72)"/>
                    <ellipse cx="38.8" cy="6.6" class="cdc-tv-191" rx="0.04" ry="0.04" transform="translate(8.68 31.94) rotate(-49.72)"/>
                    <ellipse cx="38.8" cy="6.6" class="cdc-tv-192" rx="0.04" ry="0.04" transform="translate(8.64 31.88) rotate(-49.62)"/>
                    <ellipse cx="38.8" cy="6.6" class="cdc-tv-192" rx="0.04" ry="0.04" transform="translate(8.7 31.95) rotate(-49.76)"/>
                    <ellipse cx="38.8" cy="6.6" class="cdc-tv-192" rx="0.04" ry="0.04" transform="translate(8.7 31.95) rotate(-49.75)"/>
                    <ellipse cx="38.8" cy="6.6" class="cdc-tv-192" rx="0.04" ry="0.04" transform="translate(8.69 31.95) rotate(-49.74)"/>
                    <ellipse cx="38.8" cy="6.6" class="cdc-tv-193" rx="0.04" ry="0.04" transform="translate(8.69 31.94) rotate(-49.74)"/>
                    <ellipse cx="38.8" cy="6.6" class="cdc-tv-193" rx="0.04" ry="0.04" transform="translate(8.69 31.94) rotate(-49.74)"/>
                    <ellipse cx="38.8" cy="6.6" class="cdc-tv-193" rx="0.03" ry="0.04" transform="translate(8.68 31.94) rotate(-49.72)"/>
                    <ellipse cx="38.8" cy="6.6" class="cdc-tv-193" rx="0.03" ry="0.04" transform="translate(8.64 31.88) rotate(-49.62)"/>
                    <ellipse cx="38.8" cy="6.6" class="cdc-tv-193" rx="0.03" ry="0.04" transform="translate(8.7 31.96) rotate(-49.77)"/>
                </g>
            </g>
            <g class="cdc-tv-194">
                <rect width="35.8" height="21.57" x="2.12" y="7.51" class="cdc-tv-195"/>
                <polygon points="16.82 29.08 37.92 7.71 37.92 7.5 37.81 7.5 16.51 29.08 16.82 29.08" class="cdc-tv-16"/>
                <polygon points="3.52 29.08 4.95 7.5 4.73 7.5 3.3 29.08 3.52 29.08" class="cdc-tv-16"/>
                <polygon points="4.66 29.08 7.74 7.5 7.52 7.5 4.44 29.08 4.66 29.08" class="cdc-tv-16"/>
                <polygon points="5.88 29.08 10.7 7.5 10.47 7.5 5.65 29.08 5.88 29.08" class="cdc-tv-16"/>
                <polygon points="7.22 29.08 14.1 7.5 13.87 7.5 6.99 29.08 7.22 29.08" class="cdc-tv-16"/>
                <polygon points="8.49 29.08 17.32 7.5 17.08 7.5 8.25 29.08 8.49 29.08" class="cdc-tv-16"/>
                <polygon points="9.94 29.08 20.99 7.5 20.74 7.5 9.69 29.08 9.94 29.08" class="cdc-tv-16"/>
                <polygon points="26.51 7.5 26.25 7.5 11.94 29.08 12.21 29.08 26.51 7.5" class="cdc-tv-16"/>
                <polygon points="31.61 7.5 31.33 7.5 13.94 29.08 14.23 29.08 31.61 7.5" class="cdc-tv-16"/>
                <polygon points="37.92 15.67 37.92 15.38 20.67 29.08 21.03 29.08 37.92 15.67" class="cdc-tv-16"/>
                <polygon points="37.92 21.61 37.92 21.34 25.53 29.08 25.95 29.08 37.92 21.61" class="cdc-tv-16"/>
                <polygon points="37.92 27.2 37.92 26.96 33.36 29.08 33.89 29.08 37.92 27.2" class="cdc-tv-16"/>
                <path d="M10.14,22.51c-3.72,0-6.25-2.29-6.25-6a6,6,0,0,1,6.28-6.16,6.94,6.94,0,0,1,2.8.56v1.78a3.29,3.29,0,0,0-2.77-1.46c-2.24,0-3.51,2.06-3.51,5,0,3.12,1.19,5.35,3.75,5.35A4.26,4.26,0,0,0,13,20.66l.42.93A5,5,0,0,1,10.14,22.51Z" class="cdc-tv-196"/>
                <path d="M22.31,16.43c0,4.6-2.84,4.92-5,4.92V11.44C19.53,11.44,22.31,11.71,22.31,16.43Zm-3,5.86a5.54,5.54,0,0,0,5.71-5.91c0-4.77-3.41-5.84-6-5.84H14.79V22.29Z" class="cdc-tv-196"/>
                <path d="M32.69,22.51c-3.72,0-6.25-2.29-6.25-6a6,6,0,0,1,6.28-6.16,6.94,6.94,0,0,1,2.8.56v1.78a3.29,3.29,0,0,0-2.77-1.46c-2.24,0-3.51,2.06-3.51,5,0,3.12,1.19,5.35,3.75,5.35a4.26,4.26,0,0,0,2.53-.93l.42.93A5,5,0,0,1,32.69,22.51Z" class="cdc-tv-196"/>
            </g>
        </g>
    </g>
</svg>
