<svg id="Layer_1" data-name="Layer 1" xmlns="http://www.w3.org/2000/svg" viewBox="0 0 40 40"><title>IG</title><path d="M20,4.42c5.07,0,5.67,0,7.68.11a10.51,10.51,0,0,1,3.53.65,5.89,5.89,0,0,1,2.18,1.42,5.89,5.89,0,0,1,1.42,2.18,10.51,10.51,0,0,1,.65,3.53c.09,2,.11,2.6.11,7.68s0,5.67-.11,7.68a10.51,10.51,0,0,1-.65,3.53,6.29,6.29,0,0,1-3.61,3.61,10.51,10.51,0,0,1-3.53.65c-2,.09-2.6.11-7.68.11s-5.67,0-7.68-.11a10.51,10.51,0,0,1-3.53-.65,5.89,5.89,0,0,1-2.18-1.42,5.89,5.89,0,0,1-1.42-2.18,10.51,10.51,0,0,1-.65-3.53c-.09-2-.11-2.6-.11-7.68s0-5.67.11-7.68a10.51,10.51,0,0,1,.65-3.53A5.89,5.89,0,0,1,6.61,6.61,5.89,5.89,0,0,1,8.79,5.19a10.51,10.51,0,0,1,3.53-.65c2-.09,2.6-.11,7.68-.11M20,1c-5.16,0-5.81,0-7.83.11A14,14,0,0,0,7.55,2,9.31,9.31,0,0,0,4.19,4.19,9.31,9.31,0,0,0,2,7.55a14,14,0,0,0-.88,4.61C1,14.19,1,14.84,1,20s0,5.81.11,7.83A14,14,0,0,0,2,32.45a9.31,9.31,0,0,0,2.19,3.37A9.31,9.31,0,0,0,7.55,38a14,14,0,0,0,4.61.88c2,.09,2.67.11,7.83.11s5.81,0,7.83-.11A14,14,0,0,0,32.45,38,9.72,9.72,0,0,0,38,32.45a14,14,0,0,0,.88-4.61c.09-2,.11-2.67.11-7.83s0-5.81-.11-7.83A14,14,0,0,0,38,7.55a9.31,9.31,0,0,0-2.19-3.37A9.31,9.31,0,0,0,32.45,2a14,14,0,0,0-4.61-.88C25.81,1,25.16,1,20,1Z"/><path d="M20,10.24A9.76,9.76,0,1,0,29.76,20,9.76,9.76,0,0,0,20,10.24Zm0,16.09A6.33,6.33,0,1,1,26.33,20,6.33,6.33,0,0,1,20,26.33Z"/><circle cx="30.14" cy="9.86" r="2.28"/></svg>