<svg xmlns="http://www.w3.org/2000/svg" id="Layer_1" data-name="Layer 1" viewBox="0 0 40 40">
    <defs>
        <style>
            .pin-fill-1{fill:#fff;}.pin-fill-2{fill:#bb1d2c;}
        </style>
    </defs>
    <title>
        pinterest
    </title>
    <circle cx="20" cy="20" r="19" class="pin-fill-1"/>
    <path d="M20,1a19,19,0,0,0-6.92,36.69,18.21,18.21,0,0,1,.07-5.45c.35-1.48,2.23-9.44,2.23-9.44A6.86,6.86,0,0,1,14.8,20c0-2.64,1.53-4.61,3.44-4.61A2.39,2.39,0,0,1,20.64,18c0,1.63-1,4.07-1.57,6.33a2.76,2.76,0,0,0,2.81,3.43c3.38,0,6-3.56,6-8.7,0-4.55-3.27-7.73-7.94-7.73a8.22,8.22,0,0,0-8.58,8.25,7.39,7.39,0,0,0,1.41,4.34.57.57,0,0,1,.13.54c-.14.6-.46,1.89-.53,2.15s-.28.42-.64.25c-2.37-1.1-3.86-4.57-3.86-7.36,0-6,4.35-11.5,12.55-11.5C27,8,32.13,12.74,32.13,19c0,6.55-4.13,11.82-9.86,11.82a5.09,5.09,0,0,1-4.35-2.18l-1.18,4.52a21.24,21.24,0,0,1-2.36,5A19,19,0,1,0,20,1Z" class="pin-fill-2"/>
</svg>
