<svg xmlns="http://www.w3.org/2000/svg" id="Layer_1" data-name="Layer 1" viewBox="0 0 40 40">
    <defs>
        <style>
            .txt-fill-1{fill:#b0bec5;}.txt-fill-2{opacity:0.2;}.txt-fill-3{fill:#455a64;}.txt-fill-4{fill:#fff;}
        </style>
    </defs>
    <title>
        TXT
    </title>
    <path d="M27.42,1.09H6.25v38H33.82V7.5Z" class="txt-fill-1"/>
    <polygon points="33.83 7.47 27.43 7.47 27.43 1.09 33.83 7.47" class="txt-fill-2"/>
    <path d="M33.83,30.22h.91a2.13,2.13,0,0,0,2.13-2.13V17.27a2.13,2.13,0,0,0-2.13-2.13H5.35a2.13,2.13,0,0,0-2.13,2.13V28.09a2.13,2.13,0,0,0,2.13,2.13H33.83Z" class="txt-fill-3"/>
    <polygon points="9.52 19.4 9.52 17.74 16 17.74 16 19.4 13.59 19.4 13.59 27.53 11.94 27.53 11.94 19.4 9.52 19.4" class="txt-fill-4"/>
    <polygon points="16.5 17.74 18.42 17.74 20.06 20.89 21.66 17.74 23.57 17.74 21.03 22.5 23.82 27.53 21.84 27.53 20.02 24.15 18.21 27.53 16.23 27.53 19.02 22.43 16.5 17.74" class="txt-fill-4"/>
    <polygon points="24.08 19.4 24.08 17.74 30.57 17.74 30.57 19.4 28.15 19.4 28.15 27.53 26.5 27.53 26.5 19.4 24.08 19.4" class="txt-fill-4"/>
</svg>
