<svg id="Layer_1" data-name="Layer 1" xmlns="http://www.w3.org/2000/svg" viewBox="0 0 40 40">
    <defs>
        <style>
            .fill-txt-1 {
                fill: #b0bec5;
            }

            .fill-txt-2 {
                opacity: 0.2;
            }

            .fill-txt-3 {
                fill: #455a64;
            }

            .fill-txt-4 {
                fill: #fff;
            }
        </style>
    </defs>
    <title>TXT</title>
    <path class="fill-txt-1" d="M32.1,1.09H.67v38H39V7.5Z" />
    <polygon class="fill-txt-2" points="39 7.47 32.6 7.47 32.1 1.09 39 7.47" />
    <path class="fill-txt-3" d="M33.78,30.22h.92a2.13,2.13,0,0,0,2.13-2.13V17.27a2.13,2.13,0,0,0-2.13-2.13H5.3a2.13,2.13,0,0,0-2.13,2.13V28.09A2.13,2.13,0,0,0,5.3,30.22H33.78Z"
    />
    <polygon class="fill-txt-4" points="9.47 19.4 9.47 17.74 15.96 17.74 15.96 19.4 13.54 19.4 13.54 27.53 11.9 27.53 11.9 19.4 9.47 19.4"
    />
    <polygon class="fill-txt-4" points="16.45 17.74 18.38 17.74 20.02 20.89 21.62 17.74 23.53 17.74 20.99 22.5 23.78 27.53 21.79 27.53 19.98 24.15 18.17 27.53 16.19 27.53 18.98 22.43 16.45 17.74"
    />
    <polygon class="fill-txt-4" points="24.04 19.4 24.04 17.74 30.53 17.74 30.53 19.4 28.11 19.4 28.11 27.53 26.46 27.53 26.46 19.4 24.04 19.4"
    />
</svg>