<svg id="Layer_1" data-name="Layer 1" xmlns="http://www.w3.org/2000/svg" viewBox="0 0 40 40">
    <defs>
        <style>
            .fill-excel-green {
                fill: #207245;
            }

            .fill-excel-white {
                fill: #fff;
            }
        </style>
    </defs>
    <title>Excel</title>
    <g id="excel">
        <path class="fill-excel-green" d="M20.87,1.5h2.57V5c4.32,0,8.64,0,13,0a4,4,0,0,1,2.17.41A4,4,0,0,1,39,7.54c0,7.49,0,15,0,22.47a19.87,19.87,0,0,1-.14,3.78c-.18.9-1.26.92-2,1-4.47,0-8.95,0-13.42,0v3.88H20.76C14.18,37.43,7.59,36.32,1,35.17V5C7.63,3.81,14.25,2.67,20.87,1.5Z"
        />
        <path class="fill-excel-white" d="M23.44,6.25H37.68V33.44H23.44V30.85h3.45v-3H23.44V26.11h3.45v-3H23.44V21.36h3.45v-3H23.44V16.61h3.45v-3H23.44V11.86h3.45v-3H23.44Z"
        />
        <path class="fill-excel-green" d="M28.62,8.84h6v3h-6Z" />
        <path class="fill-excel-white" d="M13.79,12.88c1-.07,2-.13,2.93-.17Q15,16.25,13.24,19.78c1.19,2.42,2.4,4.82,3.59,7.24l-3.12-.2a52.65,52.65,0,0,1-2.15-5.42c-.59,1.75-1.43,3.4-2.1,5.12-.94,0-1.89-.05-2.84-.09C7.73,24.26,8.8,22.07,10,19.91c-1-2.22-2-4.4-3-6.61l2.85-.17c.64,1.69,1.35,3.36,1.88,5.09C12.21,16.38,13.06,14.66,13.79,12.88Z"
        />
        <path class="fill-excel-green" d="M28.62,13.59h6v3h-6Z" />
        <path class="fill-excel-green" d="M28.62,18.34h6v3h-6Z" />
        <path class="fill-excel-green" d="M28.62,23.08h6v3h-6Z" />
        <path class="fill-excel-green" d="M28.62,27.83h6v3h-6Z" />
    </g>
</svg>9C7.73,24.26,8.8,22.07,10,19.91c-1-2.22-2-4.4-3-6.61l2.85-.17c.64,1.69,1.35,3.36,1.88,5.09C12.21,16.38,13.06,14.66,13.79,12.88Z"
        />
        <path class="fill-excel-green" d="M28.62,13.59h6v3h-6Z" />
        <path class="fill-excel-green" d="M28.62,18.34h6v3h-6Z" />
        <path class="fill-excel-green" d="M28.62,23.08h6v3h-6Z" />
        <path class="fill-excel-green" d="M28.62,27.83h6v3h-6Z" />
    </g>
</svg>