<svg id="Layer_1" data-name="Layer 1" xmlns="http://www.w3.org/2000/svg" viewBox="0 0 40 40"><defs><style>.cls-1{fill:#c1272d;}.cls-2{opacity:0.2;}.cls-3{fill:#fff;}</style></defs><title>PDF</title><path class="cls-1" d="M32.52,1H1.45V38.68h38V7.42Z"/><polygon class="cls-2" points="39.38 7.49 32.96 7.49 32.52 1.06 39.38 7.49"/><path id="path4463" class="cls-3" d="M16.28,23C17,21.57,17.84,20,18.5,18.33h0l.26-.64c-.86-3.3-1.38-6-.92-7.67h0A1.19,1.19,0,0,1,19,9.31h.4c.75,0,1.11.95,1.15,1.33h0a6,6,0,0,1-.22,1.68h0a4.1,4.1,0,0,0-.25-1.71h0c-.32-.69-.62-1.1-.88-1.17h0a.85.85,0,0,0-.32.64h0a9.59,9.59,0,0,0-.12,1.47h0a16.43,16.43,0,0,0,.68,4.28h0c.08-.24.16-.48.22-.7h0l.68-2.65h0s-.15,3.07-.36,4h0c0,.2-.09.39-.14.59h0a13.5,13.5,0,0,0,3.36,5.25h0a10.46,10.46,0,0,0,1.94,1.34h0a26.93,26.93,0,0,1,3.95-.3h0a5,5,0,0,1,3,.68h0a1.2,1.2,0,0,1,.33.76h0a2.6,2.6,0,0,1-.06.44h0c0-.08,0-.47-1.19-.86h0a14,14,0,0,0-4.84-.06h0c2.46,1.2,4.85,1.79,5.61,1.44h0a1.69,1.69,0,0,0,.41-.4h0a3.92,3.92,0,0,1-.23.76h0a1.2,1.2,0,0,1-.59.4h0c-1.2.32-4.31-.42-7-2h0a57.18,57.18,0,0,0-9,2.15h0c-2.63,4.6-4.6,6.71-6.21,5.91h0l-.59-.3a.69.69,0,0,1-.22-.74h0c.19-.92,1.34-2.3,3.65-3.67h0c.24-.16,1.35-.74,1.35-.74h0s-.82.79-1,1h0c-1.84,1.51-3.2,3.41-3.17,4.14h0v.07c1.56-.23,3.91-3.41,6.93-9.31m.95.49c-.5,1-1,1.83-1.45,2.63h0a38.68,38.68,0,0,1,7.8-2.2h0c-.35-.24-.68-.5-1-.76h0a13.42,13.42,0,0,1-3.29-4.28h0a35.21,35.21,0,0,1-2.06,4.61"/></svg>