<svg id="Layer_1" data-name="Layer 1" xmlns="http://www.w3.org/2000/svg" xmlns:xlink="http://www.w3.org/1999/xlink" viewBox="0 0 40 40">
    <defs>
        <style>
            .gplus-1 {
                fill: url(#gplus-linear-gradient);
            }

            .gplus-2 {
                fill: #fff;
            }
        </style>
        <linearGradient id="gplus-linear-gradient" x1="0.99" y1="20" x2="38.99" y2="20" gradientUnits="userSpaceOnUse">
            <stop offset="0" stop-color="#d73526" />
            <stop offset="1" stop-color="#dc4e41" />
        </linearGradient>
    </defs>
    <title>googleplus</title>
    <circle class="gplus-1" cx="19.99" cy="20" r="19" />
    <path class="gplus-2" d="M14.55,18.12v3.76h5.13c-.8,2.44-2.05,3.76-5.13,3.76a5.64,5.64,0,0,1,0-11.28,5.39,5.39,0,0,1,3.68,1.38C19,15,19,14.85,20.94,13A9.5,9.5,0,1,0,14.55,29.5c7.84,0,9.75-6.83,9.12-11.38Zm17.11.19V15H29.31v3.3H25.93v2.35h3.38V24h2.35V20.66H35V18.31Z"
    />
</svg>