<svg id="Layer_1" data-name="Layer 1" xmlns="http://www.w3.org/2000/svg" viewBox="0 0 40 40"><defs><style>.cls-1{fill:#dbe3e7;}.cls-2{fill:#9d1415;}</style></defs><title>govD</title><circle class="cls-1" cx="19.99" cy="20" r="19"/><path class="cls-2" d="M13.4,26.94H11.56a3.28,3.28,0,0,1-1.63-.4,3.24,3.24,0,0,1-1.78-2.93c0-3.36,0-6.72,0-10.08a3.32,3.32,0,0,1,3.28-3.29c5.67,0,11.34,0,17,0a3.37,3.37,0,0,1,3.4,3.38q0,5,0,9.94a3.36,3.36,0,0,1-3.42,3.39H22.69a.93.93,0,0,0-.58.18l-10.27,7a.75.75,0,0,1-1.24-.49,1.2,1.2,0,0,1,.14-.57c.84-1.93,1.7-3.86,2.55-5.79C13.32,27.13,13.35,27.05,13.4,26.94Zm3.81-8.75c.77.56,1.51,1.12,2.25,1.67a.81.81,0,0,0,1.07,0l1.92-1.43.32-.24a.47.47,0,0,1,.1.11c.9,1.07,1.79,2.15,2.69,3.23l2.58,3.11a.5.5,0,1,0,.75-.65c-1.39-1.69-2.8-3.37-4.2-5.06l-1.11-1.34.15-.12,5.38-4a.8.8,0,1,0-.95-1.27l-7.94,5.9a.32.32,0,0,1-.45,0l-6.31-4.69c-.56-.42-1.13-.85-1.7-1.26a.79.79,0,0,0-1,0,.76.76,0,0,0-.18.94,1.44,1.44,0,0,0,.35.39l5.23,3.88.24.19-.13.17-4.83,5.82c-.14.17-.29.33-.42.51a.48.48,0,0,0,.1.67.47.47,0,0,0,.65,0,1.14,1.14,0,0,0,.15-.16c1.28-1.54,2.56-3.09,3.85-4.63C16.23,19.35,16.71,18.78,17.21,18.19Z"/></svg>