<svg id="Layer_1" data-name="Layer 1" xmlns="http://www.w3.org/2000/svg" viewBox="0 0 40 40">
    <defs>
        <style>
            .pinterest-1 {
                fill: #fff;
            }

            .pinterest-2 {
                fill: #bb1d2c;
            }
        </style>
    </defs>
    <title>pinterest</title>
    <circle class="pinterest-1" cx="20" cy="20" r="19" />
    <path class="pinterest-2" d="M20,1a19,19,0,0,0-6.92,36.69,18.15,18.15,0,0,1,.06-5.45l2.23-9.44A6.85,6.85,0,0,1,14.8,20c0-2.64,1.53-4.62,3.44-4.62A2.39,2.39,0,0,1,20.64,18c0,1.63-1,4.07-1.57,6.33a2.76,2.76,0,0,0,2.81,3.43c3.38,0,6-3.56,6-8.7,0-4.55-3.27-7.73-7.94-7.73a8.22,8.22,0,0,0-8.58,8.24A7.41,7.41,0,0,0,12.75,24a.57.57,0,0,1,.14.54c-.15.6-.47,1.9-.53,2.16s-.28.42-.64.25c-2.37-1.1-3.85-4.57-3.85-7.36,0-6,4.35-11.49,12.55-11.49,6.59,0,11.71,4.69,11.71,11,0,6.55-4.13,11.82-9.86,11.82a5.09,5.09,0,0,1-4.35-2.18s-1,3.62-1.18,4.51a21,21,0,0,1-2.37,5A19,19,0,1,0,20,1Z"
    />
</svg>