<svg id="Layer_1" data-name="Layer 1" xmlns="http://www.w3.org/2000/svg" viewBox="0 0 40 40">
    <defs>
        <style>
            .twitter-1 {
                fill: #1da1f2;
            }

            .twitter-2 {
                fill: #fff;
            }
        </style>
    </defs>
    <title>twitter</title>
    <circle class="twitter-1" cx="19.99" cy="20" r="19" />
    <path class="twitter-2" d="M15.59,29.65A13.77,13.77,0,0,0,29.46,15.79c0-.21,0-.42,0-.63a10,10,0,0,0,2.44-2.53,9.85,9.85,0,0,1-2.8.77,4.9,4.9,0,0,0,2.14-2.69,10,10,0,0,1-3.09,1.18,4.87,4.87,0,0,0-8.43,3.33,5,5,0,0,0,.12,1.11,13.8,13.8,0,0,1-10-5.09,4.88,4.88,0,0,0,1.51,6.51,5,5,0,0,1-2.21-.61v.06A4.88,4.88,0,0,0,13,22a5,5,0,0,1-1.29.17,4.53,4.53,0,0,1-.91-.09,4.87,4.87,0,0,0,4.55,3.38,9.77,9.77,0,0,1-6.05,2.09,8.82,8.82,0,0,1-1.16-.07,13.77,13.77,0,0,0,7.46,2.19"
    />
</svg>